<?xml version="1.0" encoding="UTF-8"?>
<svg xmlns="http://www.w3.org/2000/svg" xmlns:xlink="http://www.w3.org/1999/xlink" version="1.2" >
<font id="Reserva Serif Italic">
<font-face  font-family="Reserva Serif" units-per-em="1000" ascent="780" descent="-220" font-style="italic" font-weight="400" font-stretch="normal" slope="-12" cap-height="680" x-height="467" underline-position="-75" underline-thickness="50" />
<missing-glyph  horiz-adv-x="500" d="M410 780 L93 780 L93 -220 L410 -220 L410 780 Z M333 713 L333 680 L267 680 L267 643 L333 643 L333 610 L167 610 L167 643 L233 643 L233 680 L168 680 L168 713 L333 713 Z M267 584 L267 514 L333 514 L333 480 L167 480 L167 584 L267 584 Z M233 550 L200 550 L200 514 L233 514 L233 550 Z M333 453 L333 420 L267 420 L267 350 L167 350 L167 383 L233 383 L233 420 L167 420 L167 453 L333 453 Z M333 393 L333 293 L167 293 L167 327 L300 327 L300 393 L333 393 Z M333 271 L333 158 L167 158 L167 271 L200 271 L200 191 L300 191 L300 238 L267 238 L267 215 L233 215 L233 271 L333 271 Z M333 98 L333 -15 L167 -15 L167 98 L333 98 Z M300 65 L200 65 L200 18 L300 18 L300 65 Z M333 -38 L333 -71 L301 -71 L231 -118 L333 -118 L333 -151 L167 -151 L167 -118 L237 -71 L167 -71 L167 -38 L333 -38 Z " />
<glyph glyph-name="NULL" d="" />
<glyph glyph-name="CR" unicode="&#xd;" horiz-adv-x="250" d="" />
<glyph glyph-name="space" unicode="&#x20;" horiz-adv-x="182" d="" />
<glyph glyph-name="exclam" unicode="&#x21;" horiz-adv-x="253" d="M107 197 L131 197 L276 670 L278 680 L165 680 L163 670 L107 197 Z M80 -10 C121 -10 151 22 151 63 C151 99 130 123 97 123 C58 123 27 88 27 47 C27 10 49 -10 80 -10 L80 -10 Z " />
<glyph glyph-name="quotedbl" unicode="&#x22;" horiz-adv-x="421" d="M140 414 L154 414 L263 640 L272 680 L168 680 L159 640 L140 414 Z M312 414 L326 414 L434 640 L444 680 L340 680 L330 640 L312 414 Z " />
<glyph glyph-name="numbersign" unicode="&#x23;" horiz-adv-x="494" d="M539 443 L546 478 L434 478 L512 680 L473 680 L395 478 L260 478 L338 680 L299 680 L221 478 L80 478 L73 443 L208 443 L133 248 L3 248 L-4 213 L120 213 L38 0 L76 0 L158 213 L293 213 L211 0 L251 0 L333 213 L467 213 L474 248 L346 248 L421 443 L539 443 Z M307 248 L172 248 L247 443 L382 443 L307 248 Z " />
<glyph glyph-name="dollar" unicode="&#x24;" horiz-adv-x="580" d="M397 655 L426 789 L397 789 L368 655 C265 648 167 573 167 469 C167 313 398 311 398 184 C398 114 330 52 254 53 C175 54 124 88 103 206 L93 206 L65 53 C96 40 156 28 211 25 L182 -108 L212 -108 L241 25 C365 30 478 126 478 234 C478 382 247 393 247 515 C247 583 301 626 359 626 C426 626 465 587 490 486 L500 486 L521 628 C492 643 443 653 397 655 L397 655 Z " />
<glyph glyph-name="percent" unicode="&#x25;" horiz-adv-x="712" d="M174 304 C269 304 373 435 373 553 C373 624 337 688 268 688 C173 688 75 561 75 438 C75 363 112 304 174 304 L174 304 Z M581 680 L152 0 L176 0 L605 680 L581 680 Z M196 322 C166 322 152 369 152 428 C152 548 198 668 243 668 C276 668 292 617 292 554 C292 438 244 322 196 322 L196 322 Z M488 -7 C583 -7 687 124 687 242 C687 313 651 377 582 377 C487 377 389 250 389 127 C389 52 426 -7 488 -7 L488 -7 Z M510 11 C480 11 466 58 466 117 C466 237 512 357 557 357 C590 357 606 306 606 243 C606 127 558 11 510 11 L510 11 Z " />
<glyph glyph-name="ampersand" unicode="&#x26;" horiz-adv-x="870" d="M819 510 C792 510 772 496 747 468 C814 446 853 393 853 375 C853 369 848 361 840 361 C809 361 638 472 580 472 C545 472 481 422 481 361 C481 320 499 290 522 290 C544 290 573 312 592 337 C537 347 508 360 508 383 C508 396 518 411 533 411 C563 411 630 369 690 336 C459 95 294 43 192 43 C143 43 120 73 120 145 C120 164 122 184 126 206 C413 305 585 523 585 660 C585 735 534 785 476 785 C446 785 427 777 414 768 C457 747 496 704 496 630 C496 541 459 458 385 386 C386 392 386 397 386 402 C386 444 354 477 311 477 C192 477 19 282 19 110 C19 39 47 -11 123 -11 C297 -11 497 111 707 326 C739 310 767 297 785 297 C828 297 887 378 887 431 C887 481 858 510 819 510 L819 510 Z M274 438 C302 438 315 416 315 390 C315 340 283 293 130 228 C153 330 210 438 274 438 L274 438 Z " />
<glyph glyph-name="quotesingle" unicode="&#x27;" horiz-adv-x="249" d="M140 414 L154 414 L263 640 L272 680 L168 680 L159 640 L140 414 Z " />
<glyph glyph-name="parenleft" unicode="&#x28;" horiz-adv-x="286" d="M159 -101 L174 -101 C141 -8 126 85 126 173 C126 385 211 571 340 680 L325 680 C162 589 51 406 51 212 C51 108 84 -1 159 -101 L159 -101 Z " />
<glyph glyph-name="parenright" unicode="&#x29;" horiz-adv-x="285" d="M151 680 L136 680 C168 587 183 494 183 406 C183 195 98 9 -31 -101 L-16 -101 C147 -9 259 173 259 367 C259 472 226 580 151 680 L151 680 Z " />
<glyph glyph-name="asterisk" unicode="&#x2a;" horiz-adv-x="374" d="M154 360 L160 367 L249 503 L281 367 L285 359 L359 406 L357 414 L263 512 L408 526 L417 529 L407 605 L399 602 L260 526 L319 671 L322 680 L242 680 L239 671 L246 526 L130 603 L122 605 L83 529 L92 526 L238 512 L104 414 L96 406 L154 360 Z " />
<glyph glyph-name="plus" unicode="&#x2b;" horiz-adv-x="580" d="M520 260 L313 260 L361 487 L330 487 L282 260 L72 260 L65 229 L275 229 L226 0 L257 0 L306 229 L513 229 L520 260 Z " />
<glyph glyph-name="comma" unicode="&#x2c;" horiz-adv-x="207" d="M-54 -156 C70 -91 133 -19 133 47 C133 87 111 116 70 116 C37 116 4 87 -12 50 C21 40 45 19 45 -12 C45 -71 -29 -130 -57 -151 L-54 -156 Z " />
<glyph glyph-name="hyphen" unicode="&#x2d;" horiz-adv-x="300" d="M228 201 C243 201 251 216 268 276 C263 270 252 268 238 268 C200 268 100 273 79 273 C61 273 52 258 35 199 C44 204 54 207 69 207 C110 207 211 201 228 201 L228 201 Z " />
<glyph glyph-name="period" unicode="&#x2e;" horiz-adv-x="222" d="M65 -10 C105 -10 136 22 136 63 C136 99 114 123 82 123 C42 123 11 88 11 47 C11 10 33 -10 65 -10 L65 -10 Z " />
<glyph glyph-name="slash" unicode="&#x2f;" horiz-adv-x="298" d="M-100 -123 L-59 -123 L407 680 L366 680 L-100 -123 Z " />
<glyph glyph-name="zero" unicode="0" horiz-adv-x="580" d="M225 -15 C377 -15 548 234 548 449 C548 582 494 690 393 690 C238 690 77 447 77 222 C77 82 132 -15 225 -15 L225 -15 Z M273 20 C207 20 180 123 180 242 C180 448 261 654 341 654 C411 654 441 548 441 426 C441 217 354 20 273 20 L273 20 Z " />
<glyph glyph-name="one" unicode="1" horiz-adv-x="580" d="M313 70 L443 682 L437 685 L155 530 L157 524 L324 570 L218 70 C209 31 193 16 64 10 L62 0 L431 0 L433 10 C310 16 303 23 313 70 L313 70 Z " />
<glyph glyph-name="two" unicode="2" horiz-adv-x="580" d="M361 80 L122 79 L238 182 C378 307 542 424 542 562 C542 635 482 691 390 691 C296 691 207 620 145 536 L150 533 C214 587 278 615 338 615 C395 615 438 580 438 527 C438 436 333 330 230 220 L30 8 L37 0 L425 0 L477 136 L473 136 C438 94 400 80 361 80 L361 80 Z " />
<glyph glyph-name="three" unicode="3" horiz-adv-x="580" d="M350 392 C406 417 529 475 529 578 C529 644 479 690 401 690 C301 690 221 630 162 537 L165 533 C227 592 280 621 340 621 C391 621 432 589 432 536 C432 469 366 405 237 356 L237 348 C352 331 402 288 402 207 C402 109 303 21 169 10 L133 138 C96 131 63 106 41 80 C46 55 64 33 87 17 C109 1 155 -10 190 -10 C346 -10 498 114 498 239 C498 314 440 373 350 392 L350 392 Z " />
<glyph glyph-name="four" unicode="4" horiz-adv-x="580" d="M403 157 L512 157 L526 224 L417 224 L513 681 L485 681 L30 163 L33 157 L302 157 L286 82 C276 32 271 19 187 10 L185 0 L462 0 L464 10 C379 18 377 28 387 82 L403 157 Z M115 224 L381 528 L316 224 L115 224 Z " />
<glyph glyph-name="five" unicode="5" horiz-adv-x="580" d="M520 593 L563 716 L559 716 C539 691 519 681 474 681 L261 681 L148 385 L149 383 C317 349 385 297 385 211 C385 106 288 17 179 9 L139 137 C94 130 60 105 46 81 C47 56 60 35 85 19 C114 0 159 -10 202 -10 C323 -10 489 116 489 244 C489 354 404 429 207 467 L253 593 L520 593 Z " />
<glyph glyph-name="six" unicode="6" horiz-adv-x="580" d="M246 -10 C373 -10 518 130 518 263 C518 345 463 409 391 409 C345 409 293 380 215 315 L219 306 C269 340 308 350 332 350 C382 350 414 305 414 235 C414 125 336 19 256 19 C197 19 163 77 163 184 C163 396 302 592 529 681 L523 695 C265 608 60 382 60 178 C60 63 133 -10 246 -10 L246 -10 Z " />
<glyph glyph-name="seven" unicode="7" horiz-adv-x="580" d="M109 0 L233 0 L592 675 L587 680 L202 680 L140 515 L150 515 C191 589 214 590 265 590 L534 590 C339 271 234 135 108 2 L109 0 Z " />
<glyph glyph-name="eight" unicode="8" horiz-adv-x="580" d="M384 382 C477 422 546 495 546 570 C546 639 486 691 392 691 C264 691 167 597 167 498 C167 431 207 391 255 356 C139 318 57 238 57 142 C57 41 139 -10 235 -10 C373 -10 495 93 495 219 C495 296 441 341 384 382 L384 382 Z M365 667 C424 667 464 624 464 560 C464 502 426 441 367 394 C308 436 250 477 250 547 C250 618 303 667 365 667 L365 667 Z M262 18 C186 19 144 65 144 144 C144 225 193 299 273 343 C340 297 413 257 413 170 C413 89 343 17 262 18 L262 18 Z " />
<glyph glyph-name="nine" unicode="9" horiz-adv-x="580" d="M380 696 C253 696 108 556 108 423 C108 341 163 277 235 277 C281 277 333 306 411 371 L407 380 C357 346 318 336 294 336 C244 336 212 381 212 451 C212 561 290 667 370 667 C429 667 463 609 463 502 C463 290 324 94 97 5 L103 -9 C361 78 566 304 566 508 C566 623 493 696 380 696 L380 696 Z " />
<glyph glyph-name="colon" unicode="&#x3a;" horiz-adv-x="223" d="M140 344 C181 344 211 376 211 417 C211 453 189 477 157 477 C117 477 87 442 87 401 C87 363 109 344 140 344 L140 344 Z M66 -10 C106 -10 136 22 136 63 C136 99 115 123 83 123 C43 123 12 88 12 47 C12 10 34 -10 66 -10 L66 -10 Z " />
<glyph glyph-name="semicolon" unicode="&#x3b;" horiz-adv-x="207" d="M115 331 C155 331 186 363 186 404 C186 440 164 464 132 464 C92 464 61 429 61 388 C61 351 83 331 115 331 L115 331 Z M-54 -156 C70 -91 133 -19 133 47 C133 87 111 116 70 116 C37 116 4 87 -12 50 C21 40 45 19 45 -12 C45 -71 -29 -130 -57 -151 L-54 -156 Z " />
<glyph glyph-name="less" unicode="&#x3c;" horiz-adv-x="580" d="M517 419 L514 449 L111 270 L104 240 L430 61 L446 86 L148 253 L517 419 Z " />
<glyph glyph-name="equal" unicode="&#x3d;" horiz-adv-x="580" d="M98 359 L535 359 L542 389 L105 389 L98 359 Z M51 139 L488 139 L495 169 L58 169 L51 139 Z " />
<glyph glyph-name="greater" unicode="&#x3e;" horiz-adv-x="580" d="M159 449 L144 424 L442 257 L73 91 L76 61 L479 240 L485 270 L159 449 Z " />
<glyph glyph-name="question" unicode="&#x3f;" horiz-adv-x="441" d="M493 570 C493 645 427 693 317 693 C205 693 106 639 106 577 C106 552 126 538 165 538 C183 538 206 541 232 549 L227 664 C337 667 388 627 388 558 C388 458 265 404 170 349 L165 343 L151 196 L173 196 L216 318 C358 380 493 455 493 570 L493 570 Z M141 123 C102 123 71 88 71 47 C71 10 93 -10 124 -10 C165 -10 195 22 195 63 C195 99 174 123 141 123 L141 123 Z " />
<glyph glyph-name="at" unicode="&#x40;" horiz-adv-x="867" d="M342 -143 C437 -143 538 -105 604 -47 L599 -35 C540 -79 432 -111 356 -111 C219 -111 126 -26 126 135 C126 352 322 560 516 560 C650 560 745 466 745 320 C745 199 680 71 585 71 C554 71 536 79 536 98 C536 115 542 139 556 179 L635 413 L625 413 L569 373 C549 396 521 428 477 428 C369 428 235 264 235 123 C235 71 253 46 296 46 C370 46 467 125 508 257 L513 257 C475 167 460 115 460 94 C460 55 497 37 547 37 C684 37 811 176 811 332 C811 481 695 591 528 591 C293 591 57 368 57 131 C57 -50 176 -143 342 -143 L342 -143 Z M352 99 C330 99 323 114 323 148 C323 253 389 395 448 395 C480 395 506 357 520 320 C474 173 399 99 352 99 L352 99 Z " />
<glyph glyph-name="A" unicode="A" horiz-adv-x="631" d="M519 67 L421 693 L390 687 L91 145 C43 58 21 24 -47 10 L-49 0 L147 0 L149 10 C109 15 84 24 84 46 C84 66 112 120 131 155 L200 284 L383 284 L404 122 C407 105 409 87 409 72 C409 31 392 15 340 10 L338 0 L580 0 L582 10 C530 19 524 39 519 67 L519 67 Z M216 314 L348 561 L380 314 L216 314 Z " />
<glyph glyph-name="B" unicode="B" horiz-adv-x="582" d="M-10 0 L226 0 C389 0 538 95 538 232 C538 303 483 364 387 374 C491 395 567 463 567 550 C567 627 502 680 370 680 L136 680 L133 670 C200 662 201 654 189 599 L77 81 C66 28 62 19 -8 10 L-10 0 Z M316 378 L246 378 L294 609 C301 638 307 653 349 653 C419 653 458 612 458 547 C458 459 383 378 316 378 L316 378 Z M215 28 C188 28 173 40 179 70 L240 350 L282 350 C379 350 434 301 434 226 C434 104 342 28 215 28 L215 28 Z " />
<glyph glyph-name="C" unicode="C" horiz-adv-x="673" d="M334 -10 C403 -10 497 11 564 48 L606 229 L593 229 C535 86 444 19 359 19 C245 19 169 121 169 268 C169 508 294 651 454 651 C531 651 613 616 641 502 L654 502 L676 653 C637 673 563 690 500 690 C265 690 58 497 58 262 C58 98 162 -10 334 -10 L334 -10 Z " />
<glyph glyph-name="D" unicode="D" horiz-adv-x="701" d="M-10 0 L231 0 C486 0 689 198 689 412 C689 562 585 680 367 680 L136 680 L133 670 C197 661 197 654 185 599 L75 81 C64 28 60 19 -8 10 L-10 0 Z M254 29 C187 29 172 50 183 102 L289 597 C297 639 313 653 354 653 C498 653 573 560 573 416 C573 201 429 29 254 29 L254 29 Z " />
<glyph glyph-name="E" unicode="E" horiz-adv-x="562" d="M135 680 L132 670 C205 660 202 647 192 599 L82 81 C72 32 68 19 -8 10 L-10 0 L438 0 L508 207 L498 207 L459 147 C416 79 374 25 261 24 C180 23 177 39 187 86 L244 353 L304 350 C353 348 381 336 385 243 L398 243 L444 468 L434 468 C402 399 364 379 306 377 L249 374 L308 651 L395 648 C491 645 505 614 524 566 L546 511 L556 511 L573 680 L135 680 Z " />
<glyph glyph-name="F" unicode="F" horiz-adv-x="544" d="M135 680 L132 670 C211 661 208 652 197 599 L89 90 C77 33 74 22 -8 10 L-10 0 L272 0 L274 10 C181 22 181 33 193 89 L245 332 L291 330 C369 329 391 315 389 224 L400 224 L446 450 L437 450 C402 363 349 359 297 356 L250 354 L313 651 L397 648 C496 645 518 607 531 565 L550 509 L560 509 L577 680 L135 680 Z " />
<glyph glyph-name="G" unicode="G" horiz-adv-x="671" d="M422 262 C497 252 496 236 485 182 L458 53 C428 30 392 17 348 17 C232 17 165 109 165 266 C165 470 304 652 459 652 C555 652 605 607 638 489 L648 489 L666 665 C630 680 562 690 508 690 C269 690 58 487 58 263 C58 122 155 -10 333 -10 C418 -10 521 21 562 50 L592 191 C603 242 605 253 654 262 L656 272 L424 272 L422 262 Z " />
<glyph glyph-name="H" unicode="H" horiz-adv-x="731" d="M530 680 L527 670 C600 660 598 644 588 599 L537 360 L247 360 L298 599 C307 644 313 659 388 670 L391 680 L135 680 L132 670 C208 661 205 651 194 599 L84 81 C73 29 71 19 -8 10 L-10 0 L246 0 L248 10 C179 20 177 32 188 81 L240 327 L530 327 L478 81 C469 37 462 19 387 10 L385 0 L642 0 L644 10 C569 19 571 30 582 81 L692 599 C703 651 707 661 784 670 L787 680 L530 680 Z " />
<glyph glyph-name="I" unicode="I" horiz-adv-x="336" d="M-3 0 L240 0 L242 10 C178 18 176 25 187 81 L297 599 C309 655 316 662 381 670 L384 680 L142 680 L139 670 C207 661 204 651 193 599 L83 81 C72 28 68 19 -1 10 L-3 0 Z " />
<glyph glyph-name="J" unicode="J" horiz-adv-x="477" d="M132 -10 C230 -10 328 42 348 135 L446 599 C458 655 465 661 537 670 L539 680 L279 680 L277 670 C356 661 355 653 343 599 L237 102 C224 44 198 12 159 12 C107 12 63 46 31 187 L22 187 L-6 30 C24 7 62 -10 132 -10 L132 -10 Z " />
<glyph glyph-name="K" unicode="K" horiz-adv-x="657" d="M714 670 L716 680 L486 680 L484 670 C516 664 532 654 531 639 C530 614 475 564 446 539 L238 353 L290 599 C302 655 309 662 374 670 L377 680 L136 680 L133 670 C200 661 197 651 186 599 L76 81 C65 28 61 19 -8 10 L-10 0 L233 0 L235 10 C172 18 169 25 180 81 L235 342 L361 120 C383 83 393 65 393 49 C393 28 371 18 326 9 L324 1 L592 0 L594 11 C548 21 522 62 468 150 L323 403 L541 577 C611 633 651 659 714 670 L714 670 Z " />
<glyph glyph-name="L" unicode="L" horiz-adv-x="559" d="M-10 0 L443 0 L516 222 L506 222 L474 171 C419 82 375 29 234 27 C179 27 172 37 180 73 L291 599 C302 652 307 661 377 670 L380 680 L135 680 L132 670 C202 661 199 651 188 599 L78 81 C67 28 63 19 -8 10 L-10 0 Z " />
<glyph glyph-name="M" unicode="M" horiz-adv-x="817" d="M672 680 L393 171 L324 680 L148 680 L145 670 C216 657 216 626 204 583 L61 88 C46 35 44 20 -42 10 L-44 0 L160 0 L162 10 C78 19 79 34 94 88 L235 590 L320 -6 L332 -6 L657 582 L589 90 C580 29 575 21 493 10 L491 0 L762 0 L764 10 C690 20 689 37 696 90 L759 588 C766 640 776 659 850 670 L853 680 L672 680 Z " />
<glyph glyph-name="N" unicode="N" horiz-adv-x="675" d="M543 680 L540 670 C619 654 622 626 607 559 L525 175 L262 680 L126 680 L123 669 C153 645 170 618 185 589 L85 121 C68 39 65 24 -26 10 L-28 0 L193 0 L193 10 C98 24 101 40 118 121 L209 545 L501 -12 L519 -12 L641 559 C652 611 666 657 741 670 L744 680 L543 680 Z " />
<glyph glyph-name="O" unicode="O" horiz-adv-x="718" d="M304 -10 C506 -10 706 208 706 413 C706 579 601 689 455 689 C236 689 59 471 59 266 C59 100 168 -10 304 -10 L304 -10 Z M356 33 C235 33 169 136 169 293 C169 484 283 647 413 647 C531 647 597 536 597 384 C597 193 482 33 356 33 L356 33 Z " />
<glyph glyph-name="P" unicode="P" horiz-adv-x="537" d="M356 680 L135 680 L132 670 C199 661 194 648 184 599 L74 81 C63 28 59 19 -8 10 L-10 0 L235 0 L237 10 C164 19 166 28 177 81 L223 295 C242 292 266 291 292 291 C426 291 567 395 567 522 C567 621 491 680 356 680 L356 680 Z M290 324 C272 324 250 326 230 331 L290 609 C295 636 301 653 350 653 C418 653 459 601 459 523 C459 409 388 324 290 324 L290 324 Z " />
<glyph glyph-name="Q" unicode="Q" horiz-adv-x="720" d="M616 -114 C577 -114 467 -56 315 -10 C513 -2 706 212 706 413 C706 579 601 689 455 689 C236 689 59 471 59 266 C59 123 140 21 250 -4 C374 -68 510 -206 555 -206 C579 -206 592 -195 673 -89 L667 -83 C637 -109 628 -114 616 -114 L616 -114 Z M169 293 C169 484 283 647 413 647 C531 647 597 536 597 384 C597 193 482 33 356 33 C235 33 169 136 169 293 L169 293 Z " />
<glyph glyph-name="R" unicode="R" horiz-adv-x="626" d="M458 159 L390 335 C489 370 575 448 575 535 C575 630 493 680 357 680 L135 680 L132 670 C210 661 207 650 196 599 L86 81 C75 30 73 19 -8 10 L-10 0 L248 0 L250 10 C176 19 178 29 189 81 L240 320 C254 319 270 317 286 317 L289 317 L354 128 C382 43 427 0 519 0 L565 0 L567 10 C509 30 487 85 458 159 L458 159 Z M302 609 C309 641 319 654 359 654 C428 654 467 608 467 533 C467 431 394 349 306 349 C289 349 267 353 248 358 L302 609 Z " />
<glyph glyph-name="S" unicode="S" horiz-adv-x="523" d="M191 -10 C319 -10 460 90 460 208 C460 286 399 341 325 398 C257 449 218 480 218 547 C218 612 267 660 333 660 C407 660 452 617 476 501 L486 501 L510 664 C474 680 416 690 365 690 C245 690 129 608 129 500 C129 424 180 380 254 323 C319 273 369 234 369 161 C369 87 296 22 213 23 C130 24 82 64 60 192 L49 192 L19 21 C55 5 129 -10 191 -10 L191 -10 Z " />
<glyph glyph-name="T" unicode="T" horiz-adv-x="600" d="M634 695 L593 680 L197 680 L162 695 L152 695 L94 498 L104 498 L167 596 C195 639 231 653 281 653 L335 653 L214 81 C204 33 198 20 114 10 L112 0 L386 0 L388 10 C304 20 307 33 317 81 L439 653 L498 653 C560 653 580 631 588 596 L609 498 L619 498 L645 695 L634 695 Z " />
<glyph glyph-name="U" unicode="U" horiz-adv-x="641" d="M283 -10 C422 -10 511 77 541 215 L622 595 C634 650 636 661 709 670 L711 680 L531 680 L529 670 C574 665 588 658 588 634 C588 627 587 617 584 606 L507 224 C483 103 414 42 317 42 C227 42 187 81 187 148 C187 163 189 179 192 197 L279 599 C290 652 293 662 360 670 L362 680 L123 680 L121 670 C167 664 181 657 181 636 C181 627 178 615 175 599 L89 200 C85 180 83 160 83 143 C83 41 157 -10 283 -10 L283 -10 Z " />
<glyph glyph-name="V" unicode="V" horiz-adv-x="635" d="M514 680 L512 670 C558 662 577 640 577 613 C577 584 551 529 536 503 L334 126 L276 560 C274 575 272 591 272 602 C272 645 298 668 348 670 L350 680 L95 680 L93 670 C142 665 156 649 163 610 L259 -13 L288 -7 L583 526 C632 614 666 641 728 670 L730 680 L514 680 Z " />
<glyph glyph-name="W" unicode="W" horiz-adv-x="955" d="M835 680 L832 666 C870 663 894 646 894 614 C894 583 858 511 823 442 L673 156 L611 684 L587 681 L292 156 L267 510 C265 539 264 557 264 574 C264 633 289 659 359 666 L362 680 L90 680 L87 666 C146 653 152 621 157 577 L220 -10 L237 -6 L536 522 L598 -10 L616 -6 L922 554 C961 626 996 652 1048 666 L1051 680 L835 680 Z " />
<glyph glyph-name="X" unicode="X" horiz-adv-x="663" d="M700 667 L703 680 L489 680 L486 667 C527 662 549 653 549 638 C549 614 502 557 448 490 L380 406 L347 488 C321 550 306 593 306 621 C306 648 327 661 378 667 L381 680 L107 680 L104 667 C162 657 178 636 194 597 L300 334 L95 93 C59 49 33 33 -33 13 L-36 0 L177 0 L180 13 C142 17 126 28 126 46 C126 69 158 109 212 179 L311 306 L363 178 C379 138 395 94 395 62 C395 32 378 20 331 12 L328 0 L594 0 L597 13 C550 17 525 48 500 111 L391 381 L567 582 C608 628 632 649 700 667 L700 667 Z " />
<glyph glyph-name="Y" unicode="Y" horiz-adv-x="602" d="M487 680 L485 670 C526 664 547 654 547 634 C547 606 493 524 455 464 L357 309 L311 474 C292 540 280 590 280 618 C280 653 300 665 362 670 L364 680 L103 680 L101 670 C143 665 156 643 171 594 L263 278 L221 81 C211 32 205 19 137 10 L135 0 L381 0 L383 10 C310 19 312 29 323 81 L366 283 L565 567 C611 633 628 659 684 670 L686 680 L487 680 Z " />
<glyph glyph-name="Z" unicode="Z" horiz-adv-x="555" d="M291 35 L103 16 L592 675 L588 680 L227 680 L194 695 L185 695 L119 489 L129 489 C193 623 223 632 288 640 L472 663 L-12 5 L-8 0 L381 0 L414 -15 L423 -15 L502 203 L492 203 C412 53 363 42 291 35 L291 35 Z " />
<glyph glyph-name="bracketleft" unicode="&#x5b;" horiz-adv-x="283" d="M335 663 L339 680 L180 680 L13 -102 L173 -102 L176 -86 L92 -86 L251 663 L335 663 Z " />
<glyph glyph-name="backslash" unicode="&#x5c;" horiz-adv-x="255" d="M227 -119 L268 -119 L54 680 L13 680 L227 -119 Z " />
<glyph glyph-name="bracketright" unicode="&#x5d;" horiz-adv-x="283" d="M293 680 L134 680 L131 663 L214 663 L54 -86 L-29 -86 L-33 -102 L127 -102 L293 680 Z " />
<glyph glyph-name="asciicircum" unicode="&#x5e;" horiz-adv-x="580" d="M520 208 L341 465 L310 465 L49 208 L74 186 L323 435 L495 186 L520 208 Z " />
<glyph glyph-name="underscore" unicode="&#x5f;" horiz-adv-x="708" d="M558 -147 L565 -112 L-5 -112 L-12 -147 L558 -147 Z " />
<glyph glyph-name="grave" unicode="&#x60;" horiz-adv-x="353" d="M374 528 L377 540 L376 543 C290 596 226 639 162 694 C137 680 126 653 124 618 C185 585 271 551 371 528 L374 528 Z " />
<glyph glyph-name="a" unicode="a" horiz-adv-x="511" d="M465 99 C438 67 414 50 394 50 C387 50 383 55 383 63 C383 71 386 83 390 107 L468 467 L458 467 L404 416 C385 448 357 474 319 474 C189 474 20 265 20 77 C20 26 40 -10 78 -10 C137 -10 260 88 327 255 L328 255 L291 82 C285 58 281 38 281 24 C281 3 292 -7 312 -7 C362 -7 433 45 471 89 L465 99 Z M142 60 C126 60 118 73 118 108 C118 253 210 445 286 445 C313 445 338 413 345 347 C280 167 176 60 142 60 L142 60 Z " />
<glyph glyph-name="b" unicode="b" horiz-adv-x="471" d="M136 -11 C296 -11 455 199 455 363 C455 430 426 474 368 474 C307 474 243 433 162 261 L159 261 L249 691 L240 691 L92 654 L90 643 C136 631 141 620 134 584 L51 195 C38 132 34 106 34 86 C34 14 72 -11 136 -11 L136 -11 Z M188 26 C149 26 124 43 124 92 C124 116 132 160 145 199 C236 377 289 419 318 419 C346 419 357 386 357 340 C357 209 291 26 188 26 L188 26 Z " />
<glyph glyph-name="c" unicode="c" horiz-adv-x="386" d="M103 -10 C154 -10 258 33 328 103 L324 112 C255 66 208 49 171 49 C138 49 120 86 120 152 C120 309 181 436 223 436 C267 436 315 409 353 364 L394 441 C369 461 331 478 283 478 C161 478 18 295 18 100 C18 28 51 -10 103 -10 L103 -10 Z " />
<glyph glyph-name="d" unicode="d" horiz-adv-x="510" d="M393 47 C385 47 381 51 381 59 C381 67 384 80 388 103 L512 680 L506 680 L342 630 L340 620 C377 612 390 598 390 573 C390 563 388 553 383 526 L368 454 C350 468 327 477 301 477 C178 477 19 247 19 73 C19 23 39 -14 77 -14 C136 -14 259 84 326 255 L289 79 C284 55 279 34 279 20 C279 -1 290 -11 310 -11 C361 -11 432 41 469 86 L463 95 C436 63 412 47 393 47 L393 47 Z M141 59 C125 59 117 71 117 105 C117 235 199 449 267 449 C301 449 333 416 345 349 C281 167 174 59 141 59 L141 59 Z " />
<glyph glyph-name="e" unicode="e" horiz-adv-x="418" d="M194 54 C148 54 126 89 126 160 C126 171 127 182 128 194 C319 267 408 364 408 426 C408 461 381 478 345 478 C191 478 25 279 25 105 C25 28 64 -10 120 -10 C170 -10 274 33 373 128 L370 140 C292 77 230 54 194 54 L194 54 Z M273 435 C303 435 317 415 317 386 C317 339 267 277 130 214 C148 329 219 435 273 435 L273 435 Z " />
<glyph glyph-name="f" unicode="f" horiz-adv-x="350" d="M287 621 C316 621 362 609 396 594 L427 679 C409 685 377 690 345 690 C301 690 260 655 211 574 C191 542 173 506 158 466 L50 445 L48 435 L146 435 C131 390 119 341 110 287 C94 187 92 16 72 -73 C67 -97 51 -117 18 -117 C-5 -117 -35 -105 -52 -93 L-77 -184 C-64 -190 -45 -194 -28 -194 C3 -194 37 -173 87 -105 C141 -31 196 147 225 318 C232 356 236 396 238 435 L368 435 L375 467 L240 467 C243 509 245 548 248 578 C252 608 264 621 287 621 L287 621 Z " />
<glyph glyph-name="g" unicode="g" horiz-adv-x="477" d="M457 467 L404 416 C385 450 357 477 319 477 C189 477 20 265 20 76 C20 26 40 -11 79 -11 C138 -11 259 87 327 254 L328 254 L291 84 C275 10 267 -42 245 -73 C223 -103 186 -115 138 -115 C103 -115 52 -106 7 -85 L-19 -168 C6 -183 50 -192 82 -192 C151 -192 217 -154 279 -82 C336 -15 377 44 391 111 L468 467 L457 467 Z M143 60 C127 60 119 73 119 107 C119 255 209 448 284 448 C311 448 336 414 345 349 C281 167 176 60 143 60 L143 60 Z " />
<glyph glyph-name="h" unicode="h" horiz-adv-x="523" d="M476 95 C449 63 425 47 406 47 C398 47 394 52 394 60 C394 67 397 80 402 104 L449 326 C460 380 462 402 462 417 C462 456 441 478 395 478 C329 478 243 431 181 268 L180 268 C211 421 240 553 268 682 L261 682 L103 631 L101 621 C137 614 150 600 150 575 C150 566 148 557 143 527 L30 0 L123 0 L168 214 C232 354 292 415 343 415 C359 415 365 407 365 390 C365 382 363 368 360 353 L302 79 C296 55 292 34 292 20 C292 -1 302 -11 322 -11 C373 -11 444 41 482 86 L476 95 Z " />
<glyph glyph-name="i" unicode="i" horiz-adv-x="265" d="M190 570 C227 570 258 596 258 635 C258 672 233 692 197 692 C158 692 130 668 130 626 C130 590 156 570 190 570 L190 570 Z M65 -11 C116 -11 186 41 224 86 L218 95 C191 63 166 47 147 47 C140 47 136 51 136 58 C136 67 139 80 144 104 L223 478 L215 478 L62 441 L60 430 C109 415 115 405 106 363 L44 79 C39 55 35 34 35 20 C35 -1 45 -11 65 -11 L65 -11 Z " />
<glyph glyph-name="j" unicode="j" horiz-adv-x="258" d="M185 570 C223 570 253 596 253 635 C253 672 228 692 193 692 C154 692 125 668 125 626 C125 590 151 570 185 570 L185 570 Z M-76 -199 L33 -132 C84 -101 116 -68 127 -15 L233 478 L225 478 L72 441 L69 430 C124 416 124 406 117 367 L28 -46 C18 -90 4 -124 -81 -182 L-76 -199 Z " />
<glyph glyph-name="k" unicode="k" horiz-adv-x="489" d="M466 81 C442 66 401 49 391 49 C378 49 373 65 359 93 L289 225 C399 285 448 363 448 424 C448 455 428 474 395 474 C339 474 251 425 183 296 L267 689 L259 689 L107 652 L105 642 C159 626 159 616 150 575 L26 0 L120 0 L156 170 C175 176 192 182 208 188 L275 55 C303 -3 308 -9 332 -9 C352 -9 388 9 472 68 L466 81 Z M170 234 C226 346 282 412 325 412 C345 412 355 396 355 373 C355 305 307 242 160 189 L170 234 Z " />
<glyph glyph-name="l" unicode="l" horiz-adv-x="265" d="M64 -11 C115 -11 185 41 223 85 L217 95 C191 63 166 47 147 47 C139 47 135 51 135 59 C135 67 138 80 143 103 L268 689 L260 689 L107 652 L105 642 C144 631 154 623 154 604 C154 596 152 587 150 575 L43 80 C38 55 34 34 34 20 C34 -1 44 -11 64 -11 L64 -11 Z " />
<glyph glyph-name="m" unicode="m" horiz-adv-x="785" d="M738 95 C710 63 686 48 667 48 C659 48 655 52 655 60 C655 69 659 85 662 104 L710 326 C721 378 722 402 722 417 C722 456 703 478 656 478 C590 478 499 423 440 268 L439 268 L451 326 C459 359 464 388 464 411 C464 454 446 478 396 478 C332 478 242 423 182 268 L181 268 C189 312 219 451 227 476 L221 476 L59 425 L57 415 C94 408 107 394 107 368 C107 359 106 349 100 321 L31 0 L124 0 L169 214 C233 352 294 415 342 415 C360 415 367 403 367 382 C367 373 364 359 362 345 L288 0 L381 0 L427 212 C491 353 552 415 600 415 C620 415 627 404 627 386 C627 376 624 360 621 345 L564 79 C559 53 555 34 555 20 C555 -1 566 -11 585 -11 C637 -11 706 41 744 86 L738 95 Z " />
<glyph glyph-name="n" unicode="n" horiz-adv-x="525" d="M478 95 C450 63 426 48 407 48 C400 48 395 52 395 59 C395 68 399 86 403 104 L451 326 C462 378 463 402 463 417 C463 456 444 478 397 478 C331 478 241 423 182 268 L181 268 C189 313 219 451 227 476 L220 476 L59 425 L57 415 C94 408 107 394 107 369 C107 359 105 349 100 321 L30 0 L124 0 L169 210 C232 353 294 415 342 415 C360 415 369 405 369 389 C369 382 366 366 361 345 L305 79 C300 54 295 34 295 20 C295 -1 307 -11 326 -11 C378 -11 447 42 484 86 L478 95 Z " />
<glyph glyph-name="o" unicode="o" horiz-adv-x="453" d="M147 -10 C279 -10 430 178 430 333 C430 420 384 479 300 479 C150 479 25 298 25 145 C25 46 77 -10 147 -10 L147 -10 Z M191 35 C141 35 123 92 123 176 C123 324 184 443 262 443 C308 443 336 394 336 307 C336 184 278 35 191 35 L191 35 Z " />
<glyph glyph-name="p" unicode="p" horiz-adv-x="484" d="M134 -3 C334 78 469 217 469 361 C469 425 421 478 336 478 C301 478 265 470 229 457 L241 514 L150 513 L127 407 C98 389 68 368 37 346 L42 326 C69 343 95 359 120 373 L13 -132 C4 -173 -10 -185 -59 -189 L-61 -199 L160 -199 L162 -189 C105 -184 97 -176 107 -132 L134 -3 Z M292 430 C342 430 370 402 370 348 C370 236 284 106 139 24 L221 418 C245 426 269 430 292 430 L292 430 Z " />
<glyph glyph-name="q" unicode="q" horiz-adv-x="485" d="M342 -126 L468 467 L458 467 L404 416 C386 450 358 477 319 477 C189 477 20 264 20 73 C20 23 40 -14 78 -14 C137 -14 260 84 327 255 L328 255 L245 -136 C238 -169 223 -184 160 -192 L158 -202 L395 -188 L397 -178 C337 -177 333 -166 342 -126 L342 -126 Z M142 59 C126 59 118 71 118 105 C118 252 209 449 285 449 C320 449 340 415 346 348 C281 166 175 59 142 59 L142 59 Z " />
<glyph glyph-name="r" unicode="r" horiz-adv-x="368" d="M30 0 L124 0 L169 209 C193 322 243 391 288 391 C306 391 333 384 357 373 L381 464 C360 472 331 478 311 478 C285 478 251 467 181 293 L179 293 C195 373 207 424 206 476 L200 476 L59 425 L57 415 C94 408 107 394 107 370 C107 359 106 350 100 321 L30 0 Z " />
<glyph glyph-name="s" unicode="s" horiz-adv-x="383" d="M118 -11 C225 -11 327 79 327 158 C327 218 280 248 231 283 C178 323 145 342 145 384 C145 416 171 443 212 443 C261 443 306 415 341 374 L378 437 C356 457 302 478 252 478 C169 478 77 417 77 334 C77 277 122 246 168 215 C228 174 259 147 259 103 C259 64 221 31 175 31 C124 31 64 62 24 112 L-9 34 C20 6 62 -11 118 -11 L118 -11 Z " />
<glyph glyph-name="t" unicode="t" horiz-adv-x="365" d="M243 429 L365 429 L374 467 L252 467 L279 584 L270 584 L88 435 L86 429 L152 429 L68 79 C63 56 59 35 59 21 C59 0 70 -11 90 -11 C165 -11 263 48 313 98 L307 107 C262 67 208 45 171 45 C164 45 160 49 160 57 C160 64 160 71 167 103 L243 429 Z " />
<glyph glyph-name="u" unicode="u" horiz-adv-x="524" d="M477 95 C451 63 426 47 407 47 C399 47 396 51 396 60 C396 69 400 87 405 110 L482 467 L389 467 L344 255 C280 116 219 53 170 53 C150 53 144 63 144 81 C144 91 147 105 150 122 L225 478 L217 478 L64 441 L62 430 C112 415 118 405 109 363 L54 107 C49 85 47 67 47 52 C47 5 69 -11 103 -11 C167 -11 269 43 331 199 L332 199 L306 88 C301 61 295 37 295 21 C295 1 302 -11 325 -11 C376 -11 446 41 483 86 L477 95 Z " />
<glyph glyph-name="v" unicode="v" horiz-adv-x="447" d="M332 467 L330 456 C356 447 373 425 373 393 C373 331 311 214 220 96 L180 467 L42 467 L40 457 C70 453 85 437 91 397 L140 -7 L157 -7 C308 148 418 332 448 467 L332 467 Z " />
<glyph glyph-name="w" unicode="w" horiz-adv-x="670" d="M559 467 L557 456 C579 447 592 425 592 395 C592 331 544 214 468 97 L420 467 L306 467 L304 457 C325 447 339 424 339 392 C339 325 288 208 217 96 L169 467 L38 467 L36 457 C61 453 74 436 80 397 L136 -7 L154 -6 C235 88 303 192 351 291 L388 -7 L406 -6 C539 145 639 332 669 467 L559 467 Z " />
<glyph glyph-name="x" unicode="x" horiz-adv-x="498" d="M392 393 C406 393 431 384 452 376 L483 471 C463 476 441 482 429 482 C404 482 350 438 283 291 L247 419 C234 463 223 482 200 482 C166 482 117 434 57 355 L63 347 C102 384 125 402 136 402 C150 402 157 386 170 344 L212 208 C164 106 123 77 107 77 C78 77 48 89 25 97 L-6 5 C17 -3 47 -10 58 -10 C88 -10 141 11 219 184 L257 58 C272 11 282 -10 306 -10 C340 -10 386 38 444 119 L438 126 C398 87 376 69 364 69 C348 69 342 84 330 127 L290 267 C338 364 369 393 392 393 L392 393 Z " />
<glyph glyph-name="y" unicode="y" horiz-adv-x="467" d="M322 467 L320 456 C347 452 366 443 366 425 C366 398 335 277 238 102 C228 226 204 347 162 467 L44 467 L42 457 C87 446 158 131 158 16 C158 -42 107 -113 55 -113 C27 -113 -7 -104 -39 -88 L-61 -172 C-38 -185 1 -192 21 -192 C71 -192 114 -140 185 -26 C280 120 420 335 453 467 L322 467 Z " />
<glyph glyph-name="z" unicode="z" horiz-adv-x="436" d="M347 171 C325 171 313 163 313 151 C313 137 333 83 333 73 C333 69 329 68 323 68 C284 68 172 122 120 131 L454 473 L433 491 L412 467 L156 466 L133 478 L126 478 L55 289 L65 289 C105 368 129 384 189 384 L332 383 L19 59 C-16 22 -19 12 -19 3 C-19 -5 -13 -11 -2 -11 C13 -11 21 -2 28 19 C35 39 44 56 59 56 C105 56 230 -11 279 -11 C310 -11 326 25 367 90 C383 114 389 128 389 143 C389 157 370 171 347 171 L347 171 Z " />
<glyph glyph-name="braceleft" unicode="&#x7b;" horiz-adv-x="283" d="M112 -124 L162 -116 L163 -101 C150 -104 135 -106 124 -106 C96 -106 79 -90 79 -53 C79 38 173 131 173 209 C173 249 155 276 104 280 L104 281 C173 290 198 333 205 368 C213 405 214 452 214 497 C214 589 217 675 296 675 C311 675 329 673 341 670 L347 685 C332 687 309 690 286 690 C183 690 140 627 138 521 C137 487 137 467 136 445 C134 309 101 291 53 291 L46 277 C83 275 100 263 100 233 C100 120 8 63 8 -40 C8 -101 48 -124 112 -124 L112 -124 Z " />
<glyph glyph-name="bar" unicode="&#x7c;" horiz-adv-x="238" d="M18 -169 L50 -169 L249 769 L217 769 L18 -169 Z " />
<glyph glyph-name="braceright" unicode="&#x7d;" horiz-adv-x="283" d="M192 690 L142 682 L142 667 C154 670 170 672 180 672 C208 672 225 656 225 619 C225 528 132 435 132 357 C132 317 150 291 201 286 L201 285 C132 277 106 234 99 198 C91 161 91 114 91 70 C90 -23 87 -108 8 -108 C-6 -108 -25 -106 -37 -103 L-43 -119 C-27 -121 -5 -124 18 -124 C121 -124 164 -61 166 45 C168 79 167 99 168 122 C170 257 203 275 251 275 L258 289 C221 291 204 303 204 333 C204 446 296 503 296 606 C296 667 256 690 192 690 L192 690 Z " />
<glyph glyph-name="asciitilde" unicode="&#x7e;" horiz-adv-x="479" d="M108 253 C131 277 145 298 157 298 C186 298 280 256 324 256 C345 256 372 295 413 360 L404 365 C389 346 372 326 358 326 C327 326 230 367 189 367 C167 367 141 331 99 259 L108 253 Z " />
<glyph glyph-name="exclamdown" unicode="&#xa1;" horiz-adv-x="253" d="M174 482 C133 482 103 449 103 408 C103 372 125 349 157 349 C197 349 227 383 227 424 C227 462 205 482 174 482 L174 482 Z M147 275 L123 275 L-22 -198 L-24 -208 L90 -208 L92 -198 L147 275 Z " />
<glyph glyph-name="cent" unicode="&#xa2;" horiz-adv-x="580" d="M408 578 L442 722 L413 722 L378 576 C262 558 134 385 134 200 C134 128 167 90 219 90 C231 90 246 92 263 97 L226 -57 L256 -57 L295 108 C344 126 400 159 443 202 L439 212 C384 182 342 168 309 164 L395 524 C421 512 446 491 469 464 L509 542 C487 560 451 576 408 578 L408 578 Z M279 164 C250 168 235 200 235 252 C235 411 298 538 340 538 C349 538 359 537 368 534 L279 164 Z " />
<glyph glyph-name="sterling" unicode="&#xa3;" horiz-adv-x="580" d="M432 690 C324 690 172 586 172 415 C172 408 172 401 173 394 L114 394 L106 359 L175 359 C182 297 195 239 190 191 C188 165 183 135 168 106 C93 106 40 72 40 22 C40 2 51 -10 71 -10 C97 -10 123 12 175 84 C226 51 303 -13 368 -13 C397 -13 428 8 485 159 L477 159 C444 97 427 83 401 83 C374 83 253 98 194 104 C248 159 289 225 289 291 C289 312 287 335 285 359 L461 359 L469 394 L282 394 C279 422 277 450 277 478 C277 593 328 662 400 662 C452 662 495 623 516 512 L527 512 L546 668 C520 679 480 690 432 690 L432 690 Z " />
<glyph glyph-name="yen" unicode="&#xa5;" horiz-adv-x="580" d="M471 680 L469 670 C502 665 522 654 522 635 C522 606 469 517 446 478 L349 322 L306 490 C293 541 285 579 285 608 C285 650 300 665 358 670 L360 680 L123 680 L121 670 C162 663 171 638 181 594 L258 299 L108 299 L101 264 L251 264 L235 191 L85 191 L78 156 L228 156 L212 81 C202 33 199 20 138 10 L136 0 L360 0 L362 10 C300 19 301 28 313 81 L329 156 L471 156 L478 191 L336 191 L351 264 L494 264 L501 299 L359 299 L359 300 L537 567 C583 637 601 658 646 670 L648 680 L471 680 Z " />
<glyph glyph-name="section" unicode="&#xa7;" horiz-adv-x="510" d="M372 690 C255 690 144 607 144 514 C144 455 183 419 229 389 C140 370 55 307 55 219 C55 79 297 74 297 -38 C297 -101 238 -154 171 -153 C94 -152 44 -119 22 -5 L12 -5 L-14 -152 C17 -167 88 -179 138 -179 C259 -179 379 -85 379 18 C379 65 350 96 312 122 C406 165 468 233 468 307 C468 432 229 462 229 562 C229 619 280 665 342 665 C411 665 450 631 478 529 L485 529 L507 667 C476 679 431 690 372 690 L372 690 Z M386 247 C386 199 350 158 292 134 C222 176 136 206 136 276 C136 322 179 361 247 378 C313 339 386 309 386 247 L386 247 Z " />
<glyph glyph-name="dieresis" unicode="&#xa8;" horiz-adv-x="351" d="M169 561 C204 561 235 591 235 625 C235 654 214 672 186 672 C152 672 121 643 121 608 C121 579 143 561 169 561 L169 561 Z M327 561 C362 561 393 591 393 625 C393 654 373 672 345 672 C310 672 280 643 280 608 C280 579 301 561 327 561 L327 561 Z " />
<glyph glyph-name="copyright" unicode="&#xa9;" horiz-adv-x="769" d="M408 -10 C607 -10 745 135 745 344 C745 553 593 690 408 690 C221 690 70 553 70 344 C70 135 208 -10 408 -10 L408 -10 Z M408 22 C231 22 121 163 121 344 C121 525 252 659 408 659 C562 659 694 525 694 344 C694 163 583 22 408 22 L408 22 Z M407 145 C433 145 460 165 555 218 L549 233 C500 213 450 199 424 199 C362 199 304 281 304 369 C304 456 352 501 410 501 C456 501 492 474 523 414 L532 414 L512 527 C494 531 463 540 427 540 C311 540 221 428 221 332 C221 217 305 145 407 145 L407 145 Z " />
<glyph glyph-name="ordfeminine" unicode="&#xaa;" horiz-adv-x="401" d="M433 431 C415 413 398 403 384 403 C377 403 374 407 374 413 C374 419 376 427 379 440 L431 683 L423 683 L377 651 C358 674 330 690 295 690 C198 690 73 542 73 411 C73 370 90 343 119 343 C163 343 253 405 305 532 L306 532 L281 414 C276 394 272 377 272 367 C272 352 280 345 294 345 C330 345 399 387 437 423 L433 431 Z M184 410 C173 410 167 421 167 448 C167 531 221 666 268 666 C290 666 310 645 321 603 C277 480 206 410 184 410 L184 410 Z " />
<glyph glyph-name="guillemotleft" unicode="&#xab;" horiz-adv-x="507" d="M292 407 L286 412 C208 345 144 297 47 239 L45 230 C116 173 160 127 211 60 L219 65 C196 135 172 185 143 235 C194 286 237 336 292 407 L292 407 Z M500 407 L494 412 C416 345 352 297 255 239 L253 230 C324 173 368 127 419 60 L427 65 C404 135 380 185 351 235 C402 286 445 336 500 407 L500 407 Z " />
<glyph glyph-name="logicalnot" unicode="&#xac;" horiz-adv-x="580" d="M460 149 L491 149 L543 397 L107 397 L100 366 L506 366 L460 149 Z " />
<glyph glyph-name="registered" unicode="&#xae;" horiz-adv-x="474" d="M293 690 C189 690 98 609 98 498 C98 388 181 302 293 302 C405 302 489 386 489 498 C489 611 396 690 293 690 L293 690 Z M293 327 C198 327 140 403 140 498 C140 594 209 665 293 665 C376 665 448 594 448 498 C448 403 387 327 293 327 L293 327 Z M360 460 L330 503 C351 513 367 531 367 552 C367 581 342 600 286 600 L206 600 L206 590 C230 587 230 583 230 569 L230 436 C230 422 226 418 206 415 L206 405 L293 405 L293 415 C276 418 273 420 273 436 L273 494 L288 494 L320 447 C338 421 348 405 382 405 L397 405 L397 415 C386 420 374 440 360 460 L360 460 Z M273 578 C273 585 277 587 286 587 C305 587 323 575 323 549 C323 527 311 507 293 507 L273 508 L273 578 Z " />
<glyph glyph-name="degree" unicode="&#xb0;" horiz-adv-x="187" d="M161 407 C235 407 296 469 296 549 C296 628 235 690 161 690 C87 690 25 628 25 549 C25 469 87 407 161 407 L161 407 Z M161 447 C112 447 69 487 69 549 C69 610 112 651 161 651 C210 651 252 610 252 549 C252 487 210 447 161 447 L161 447 Z " />
<glyph glyph-name="acute" unicode="&#xb4;" horiz-adv-x="316" d="M108 528 L111 528 C211 551 297 585 358 618 C356 653 345 680 320 694 C256 639 192 596 106 543 L105 540 L108 528 Z " />
<glyph glyph-name="paragraph" unicode="&#xb6;" horiz-adv-x="505" d="M55 -179 C146 -179 242 -49 267 63 L360 501 C376 571 395 646 442 674 C426 682 390 688 354 688 C198 688 62 533 62 361 C62 275 107 231 159 231 C191 231 224 243 279 282 L232 60 C213 -26 169 -76 107 -78 C69 -79 21 -67 -8 -62 L-40 -158 C-15 -169 34 -179 55 -179 L55 -179 Z M305 -3 C357 99 390 181 404 252 L462 525 C481 610 512 661 563 671 L565 681 C484 673 446 607 426 511 C393 353 359 157 305 -3 L305 -3 Z " />
<glyph glyph-name="periodcentered" unicode="&#xb7;" horiz-adv-x="223" d="M101 160 C142 160 172 193 172 234 C172 270 150 293 118 293 C79 293 48 259 48 218 C48 180 70 160 101 160 L101 160 Z " />
<glyph glyph-name="cedilla" unicode="&#xb8;" horiz-adv-x="318" d="M116 -48 L161 13 L127 13 L82 -48 C57 -83 51 -89 51 -93 C51 -98 57 -102 72 -113 C110 -138 129 -154 129 -170 C129 -188 111 -200 87 -200 C59 -200 -1 -177 -26 -152 L-31 -152 L-52 -201 C-23 -218 30 -226 60 -226 C133 -226 197 -185 197 -138 C197 -110 174 -82 116 -48 L116 -48 Z " />
<glyph glyph-name="ordmasculine" unicode="&#xba;" horiz-adv-x="370" d="M207 345 C306 345 414 458 414 567 C414 638 356 690 281 690 C185 690 79 587 79 474 C79 397 127 345 207 345 L207 345 Z M225 367 C190 367 175 405 175 462 C175 553 214 669 268 669 C301 669 317 624 317 570 C317 475 276 367 225 367 L225 367 Z " />
<glyph glyph-name="guillemotright" unicode="&#xbb;" horiz-adv-x="507" d="M257 242 C187 299 143 345 91 412 L83 407 C106 337 130 287 159 237 C108 186 66 136 10 65 L16 60 C95 127 159 175 255 233 L257 242 Z M299 412 L291 407 C314 337 338 287 367 237 C316 186 274 136 218 65 L224 60 C303 127 367 175 463 233 L465 242 C395 299 351 345 299 412 L299 412 Z " />
<glyph glyph-name="onequarter" unicode="&#xbc;" horiz-adv-x="674" d="M300 316 C234 321 236 337 243 368 L311 683 L307 685 L141 595 L142 589 L214 605 L163 368 C155 332 144 321 83 316 L82 311 L299 311 L300 316 Z M581 680 L152 0 L176 0 L605 680 L581 680 Z M562 88 L618 88 L629 135 L572 135 L622 371 L595 371 L341 91 L343 88 L486 88 L478 51 C472 20 469 14 424 9 L422 0 L592 0 L594 9 C547 14 547 20 554 51 L562 88 Z M399 135 L527 276 L496 135 L399 135 Z " />
<glyph glyph-name="onehalf" unicode="&#xbd;" horiz-adv-x="712" d="M300 316 C234 321 236 337 243 368 L311 683 L307 685 L141 595 L142 589 L214 605 L163 368 C155 332 144 321 83 316 L82 311 L299 311 L300 316 Z M581 680 L152 0 L176 0 L605 680 L581 680 Z M577 60 L446 60 L506 108 C585 170 673 230 673 300 C673 346 638 377 589 377 C534 377 480 335 439 280 L441 278 C479 305 512 316 543 316 C573 316 593 297 593 270 C593 228 549 182 502 134 L376 4 L377 0 L607 0 L641 91 L639 91 C619 68 595 60 577 60 L577 60 Z " />
<glyph glyph-name="threequarters" unicode="&#xbe;" horiz-adv-x="674" d="M335 448 C335 489 304 517 254 531 C285 543 348 574 348 626 C348 662 317 688 272 688 C214 688 165 649 132 598 L134 595 C166 621 195 634 224 634 C251 634 273 619 273 593 C273 552 234 525 178 503 L178 499 C229 490 263 467 263 428 C263 373 214 327 146 318 L135 393 C108 388 87 373 70 359 C73 347 77 338 99 322 C115 311 144 306 163 306 C244 306 335 378 335 448 L335 448 Z M581 680 L152 0 L176 0 L605 680 L581 680 Z M562 88 L618 88 L629 135 L572 135 L622 371 L595 371 L341 91 L343 88 L486 88 L478 51 C472 20 469 14 424 9 L422 0 L592 0 L594 9 C547 14 547 20 554 51 L562 88 Z M399 135 L527 276 L496 135 L399 135 Z " />
<glyph glyph-name="questiondown" unicode="&#xbf;" horiz-adv-x="403" d="M340 477 C300 477 269 444 269 403 C269 367 291 344 323 344 C363 344 394 378 394 419 C394 457 372 477 340 477 L340 477 Z M300 -71 C282 -71 259 -75 233 -83 L237 -197 C128 -199 77 -161 77 -91 C77 9 200 63 294 117 L299 123 L313 270 L291 270 L249 150 C107 86 -29 12 -29 -103 C-29 -178 37 -227 148 -227 C259 -227 358 -172 358 -110 C358 -86 338 -71 300 -71 L300 -71 Z " />
<glyph glyph-name="Agrave" unicode="&#xc0;" horiz-adv-x="631" d="M530 732 L536 744 L536 747 C464 786 392 832 336 879 C312 865 296 837 296 808 C341 780 449 745 527 732 L530 732 Z M519 67 L421 693 L390 687 L91 145 C43 58 21 24 -47 10 L-49 0 L147 0 L149 10 C109 15 84 24 84 46 C84 66 112 120 131 155 L200 284 L383 284 L404 122 C407 105 409 87 409 72 C409 31 392 15 340 10 L338 0 L580 0 L582 10 C530 19 524 39 519 67 L519 67 Z M216 314 L348 561 L380 314 L216 314 Z " />
<glyph glyph-name="Aacute" unicode="&#xc1;" horiz-adv-x="631" d="M323 732 C401 745 509 780 554 808 C554 837 539 865 514 879 C458 832 386 786 314 747 L314 744 L320 732 L323 732 Z M519 67 L421 693 L390 687 L91 145 C43 58 21 24 -47 10 L-49 0 L147 0 L149 10 C109 15 84 24 84 46 C84 66 112 120 131 155 L200 284 L383 284 L404 122 C407 105 409 87 409 72 C409 31 392 15 340 10 L338 0 L580 0 L582 10 C530 19 524 39 519 67 L519 67 Z M216 314 L348 561 L380 314 L216 314 Z " />
<glyph glyph-name="Acircumflex" unicode="&#xc2;" horiz-adv-x="631" d="M434 785 L525 727 L539 738 L463 867 L439 867 L305 734 L314 727 L434 785 Z M519 67 L421 693 L390 687 L91 145 C43 58 21 24 -47 10 L-49 0 L147 0 L149 10 C109 15 84 24 84 46 C84 66 112 120 131 155 L200 284 L383 284 L404 122 C407 105 409 87 409 72 C409 31 392 15 340 10 L338 0 L580 0 L582 10 C530 19 524 39 519 67 L519 67 Z M216 314 L348 561 L380 314 L216 314 Z " />
<glyph glyph-name="Atilde" unicode="&#xc3;" horiz-adv-x="631" d="M335 776 C364 776 457 734 502 734 C523 734 549 774 591 838 L582 843 C567 825 549 804 536 804 C504 804 408 845 366 845 C345 845 319 810 276 737 L285 731 C309 755 323 776 335 776 L335 776 Z M519 67 L421 693 L390 687 L91 145 C43 58 21 24 -47 10 L-49 0 L147 0 L149 10 C109 15 84 24 84 46 C84 66 112 120 131 155 L200 284 L383 284 L404 122 C407 105 409 87 409 72 C409 31 392 15 340 10 L338 0 L580 0 L582 10 C530 19 524 39 519 67 L519 67 Z M216 314 L348 561 L380 314 L216 314 Z " />
<glyph glyph-name="Adieresis" unicode="&#xc4;" horiz-adv-x="631" d="M345 748 C377 748 411 777 411 815 C411 840 393 859 363 859 C331 859 298 830 298 793 C298 766 316 748 345 748 L345 748 Z M507 748 C539 748 573 777 573 815 C573 840 556 859 526 859 C493 859 460 830 460 793 C460 766 478 748 507 748 L507 748 Z M519 67 L421 693 L390 687 L91 145 C43 58 21 24 -47 10 L-49 0 L147 0 L149 10 C109 15 84 24 84 46 C84 66 112 120 131 155 L200 284 L383 284 L404 122 C407 105 409 87 409 72 C409 31 392 15 340 10 L338 0 L580 0 L582 10 C530 19 524 39 519 67 L519 67 Z M216 314 L348 561 L380 314 L216 314 Z " />
<glyph glyph-name="Aring" unicode="&#xc5;" horiz-adv-x="631" d="M424 723 C486 723 536 773 536 826 C536 868 499 898 450 898 C393 898 342 851 342 797 C342 752 374 723 424 723 L424 723 Z M437 872 C463 872 481 843 481 811 C481 773 462 750 440 750 C413 750 398 777 398 813 C398 848 413 872 437 872 L437 872 Z M519 67 L421 693 L390 687 L91 145 C43 58 21 24 -47 10 L-49 0 L147 0 L149 10 C109 15 84 24 84 46 C84 66 112 120 131 155 L200 284 L383 284 L404 122 C407 105 409 87 409 72 C409 31 392 15 340 10 L338 0 L580 0 L582 10 C530 19 524 39 519 67 L519 67 Z M216 314 L348 561 L380 314 L216 314 Z " />
<glyph glyph-name="AE" unicode="&#xc6;" horiz-adv-x="877" d="M423 680 L420 670 C464 666 483 653 483 633 C483 623 481 609 460 581 L89 116 C35 49 7 24 -47 10 L-49 0 L157 0 L159 10 C117 15 91 23 91 47 C91 70 121 106 161 158 L264 289 L442 289 L398 81 C387 31 387 20 308 10 L306 0 L755 0 L824 207 L814 207 L775 147 C732 81 690 25 576 24 C496 23 492 39 502 86 L559 353 L620 350 C669 347 697 336 702 243 L715 243 L761 468 L751 468 C715 390 668 378 623 377 L564 373 L624 651 L711 648 C806 645 819 615 839 566 L862 511 L871 511 L889 680 L423 680 Z M448 317 L286 317 L509 601 L448 317 Z " />
<glyph glyph-name="Ccedilla" unicode="&#xc7;" horiz-adv-x="673" d="M500 690 C265 690 58 497 58 262 C58 99 161 -9 331 -10 L303 -48 C278 -83 272 -89 272 -93 C272 -98 278 -102 293 -113 C331 -138 350 -154 350 -170 C350 -188 332 -200 308 -200 C280 -200 220 -177 195 -152 L190 -152 L169 -201 C198 -218 251 -226 281 -226 C354 -226 418 -185 418 -138 C418 -110 395 -82 337 -48 L366 -9 C430 -3 507 16 564 48 L606 229 L593 229 C535 86 444 19 359 19 C245 19 169 121 169 268 C169 508 294 651 454 651 C531 651 613 616 641 502 L654 502 L676 653 C637 673 563 690 500 690 L500 690 Z " />
<glyph glyph-name="Egrave" unicode="&#xc8;" horiz-adv-x="562" d="M496 732 L502 744 L502 747 C430 786 358 832 302 879 C278 865 262 837 262 808 C307 780 415 745 493 732 L496 732 Z M135 680 L132 670 C205 660 202 647 192 599 L82 81 C72 32 68 19 -8 10 L-10 0 L438 0 L508 207 L498 207 L459 147 C416 79 374 25 261 24 C180 23 177 39 187 86 L244 353 L304 350 C353 348 381 336 385 243 L398 243 L444 468 L434 468 C402 399 364 379 306 377 L249 374 L308 651 L395 648 C491 645 505 614 524 566 L546 511 L556 511 L573 680 L135 680 Z " />
<glyph glyph-name="Eacute" unicode="&#xc9;" horiz-adv-x="562" d="M290 732 C368 745 476 780 521 808 C521 837 506 865 481 879 C425 832 353 786 281 747 L281 744 L287 732 L290 732 Z M135 680 L132 670 C205 660 202 647 192 599 L82 81 C72 32 68 19 -8 10 L-10 0 L438 0 L508 207 L498 207 L459 147 C416 79 374 25 261 24 C180 23 177 39 187 86 L244 353 L304 350 C353 348 381 336 385 243 L398 243 L444 468 L434 468 C402 399 364 379 306 377 L249 374 L308 651 L395 648 C491 645 505 614 524 566 L546 511 L556 511 L573 680 L135 680 Z " />
<glyph glyph-name="Ecircumflex" unicode="&#xca;" horiz-adv-x="562" d="M400 785 L491 727 L505 738 L429 867 L405 867 L271 734 L280 727 L400 785 Z M135 680 L132 670 C205 660 202 647 192 599 L82 81 C72 32 68 19 -8 10 L-10 0 L438 0 L508 207 L498 207 L459 147 C416 79 374 25 261 24 C180 23 177 39 187 86 L244 353 L304 350 C353 348 381 336 385 243 L398 243 L444 468 L434 468 C402 399 364 379 306 377 L249 374 L308 651 L395 648 C491 645 505 614 524 566 L546 511 L556 511 L573 680 L135 680 Z " />
<glyph glyph-name="Edieresis" unicode="&#xcb;" horiz-adv-x="562" d="M311 748 C343 748 377 777 377 815 C377 840 359 859 329 859 C297 859 264 830 264 793 C264 766 282 748 311 748 L311 748 Z M473 748 C505 748 539 777 539 815 C539 840 522 859 492 859 C459 859 426 830 426 793 C426 766 444 748 473 748 L473 748 Z M135 680 L132 670 C205 660 202 647 192 599 L82 81 C72 32 68 19 -8 10 L-10 0 L438 0 L508 207 L498 207 L459 147 C416 79 374 25 261 24 C180 23 177 39 187 86 L244 353 L304 350 C353 348 381 336 385 243 L398 243 L444 468 L434 468 C402 399 364 379 306 377 L249 374 L308 651 L395 648 C491 645 505 614 524 566 L546 511 L556 511 L573 680 L135 680 Z " />
<glyph glyph-name="Igrave" unicode="&#xcc;" horiz-adv-x="336" d="M382 732 L388 744 L388 747 C316 786 244 832 188 879 C164 865 148 837 148 808 C193 780 301 745 379 732 L382 732 Z M-3 0 L240 0 L242 10 C178 18 176 25 187 81 L297 599 C309 655 316 662 381 670 L384 680 L142 680 L139 670 C207 661 204 651 193 599 L83 81 C72 28 68 19 -1 10 L-3 0 Z " />
<glyph glyph-name="Iacute" unicode="&#xcd;" horiz-adv-x="336" d="M173 732 L176 732 C254 745 362 780 407 808 C407 837 392 865 367 879 C311 832 239 786 167 747 L167 744 L173 732 Z M-3 0 L240 0 L242 10 C178 18 176 25 187 81 L297 599 C309 655 316 662 381 670 L384 680 L142 680 L139 670 C207 661 204 651 193 599 L83 81 C72 28 68 19 -1 10 L-3 0 Z " />
<glyph glyph-name="Icircumflex" unicode="&#xce;" horiz-adv-x="336" d="M287 785 L378 727 L392 738 L316 867 L292 867 L158 734 L167 727 L287 785 Z M139 670 C207 661 204 651 193 599 L83 81 C72 28 68 19 -1 10 L-3 0 L240 0 L242 10 C178 18 176 25 187 81 L297 599 C309 655 316 662 381 670 L384 680 L142 680 L139 670 Z " />
<glyph glyph-name="Idieresis" unicode="&#xcf;" horiz-adv-x="336" d="M198 748 C230 748 264 777 264 815 C264 840 246 859 216 859 C184 859 151 830 151 793 C151 766 169 748 198 748 L198 748 Z M360 748 C392 748 426 777 426 815 C426 840 409 859 379 859 C346 859 313 830 313 793 C313 766 331 748 360 748 L360 748 Z M-3 0 L240 0 L242 10 C178 18 176 25 187 81 L297 599 C309 655 316 662 381 670 L384 680 L142 680 L139 670 C207 661 204 651 193 599 L83 81 C72 28 68 19 -1 10 L-3 0 Z " />
<glyph glyph-name="Eth" unicode="&#xd0;" horiz-adv-x="703" d="M368 680 L138 680 L135 670 C199 661 198 654 187 599 L138 368 L87 368 L81 337 L131 337 L77 81 C66 28 62 19 -7 10 L-9 0 L232 0 C488 0 690 198 690 412 C690 562 586 680 368 680 L368 680 Z M255 29 C189 29 174 50 185 102 L235 337 L419 337 L425 368 L241 368 L290 597 C299 639 315 653 355 653 C499 653 575 560 575 416 C575 201 431 29 255 29 L255 29 Z " />
<glyph glyph-name="Ntilde" unicode="&#xd1;" horiz-adv-x="675" d="M382 801 C411 801 505 759 549 759 C570 759 597 798 638 863 L629 868 C614 849 596 829 583 829 C552 829 455 870 414 870 C392 870 366 834 324 762 L333 756 C356 780 370 801 382 801 L382 801 Z M543 680 L540 670 C619 654 622 626 607 559 L525 175 L262 680 L126 680 L123 669 C153 645 170 618 185 589 L85 121 C68 39 65 24 -26 10 L-28 0 L193 0 L193 10 C98 24 101 40 118 121 L209 545 L501 -12 L519 -12 L641 559 C652 611 666 657 741 670 L744 680 L543 680 Z " />
<glyph glyph-name="Ograve" unicode="&#xd2;" horiz-adv-x="718" d="M552 732 L558 744 L558 747 C486 786 414 832 358 879 C334 865 318 837 318 808 C363 780 471 745 549 732 L552 732 Z M304 -10 C506 -10 706 208 706 413 C706 579 601 689 455 689 C236 689 59 471 59 266 C59 100 168 -10 304 -10 L304 -10 Z M356 33 C235 33 169 136 169 293 C169 484 283 647 413 647 C531 647 597 536 597 384 C597 193 482 33 356 33 L356 33 Z " />
<glyph glyph-name="Oacute" unicode="&#xd3;" horiz-adv-x="718" d="M342 732 L345 732 C423 745 531 780 576 808 C576 837 561 865 536 879 C480 832 408 786 336 747 L336 744 L342 732 Z M304 -10 C506 -10 706 208 706 413 C706 579 601 689 455 689 C236 689 59 471 59 266 C59 100 168 -10 304 -10 L304 -10 Z M356 33 C235 33 169 136 169 293 C169 484 283 647 413 647 C531 647 597 536 597 384 C597 193 482 33 356 33 L356 33 Z " />
<glyph glyph-name="Ocircumflex" unicode="&#xd4;" horiz-adv-x="718" d="M456 785 L547 727 L561 738 L485 867 L461 867 L327 734 L336 727 L456 785 Z M455 689 C236 689 59 471 59 266 C59 100 168 -10 304 -10 C506 -10 706 208 706 413 C706 579 601 689 455 689 L455 689 Z M356 33 C235 33 169 136 169 293 C169 484 283 647 413 647 C531 647 597 536 597 384 C597 193 482 33 356 33 L356 33 Z " />
<glyph glyph-name="Otilde" unicode="&#xd5;" horiz-adv-x="718" d="M311 756 C334 780 348 801 360 801 C389 801 483 759 527 759 C548 759 575 798 616 863 L607 868 C592 849 574 829 561 829 C530 829 433 870 392 870 C370 870 344 834 302 762 L311 756 Z M304 -10 C506 -10 706 208 706 413 C706 579 601 689 455 689 C236 689 59 471 59 266 C59 100 168 -10 304 -10 L304 -10 Z M356 33 C235 33 169 136 169 293 C169 484 283 647 413 647 C531 647 597 536 597 384 C597 193 482 33 356 33 L356 33 Z " />
<glyph glyph-name="Odieresis" unicode="&#xd6;" horiz-adv-x="718" d="M367 748 C399 748 433 777 433 815 C433 840 415 859 385 859 C353 859 320 830 320 793 C320 766 338 748 367 748 L367 748 Z M529 748 C561 748 595 777 595 815 C595 840 578 859 548 859 C515 859 482 830 482 793 C482 766 500 748 529 748 L529 748 Z M304 -10 C506 -10 706 208 706 413 C706 579 601 689 455 689 C236 689 59 471 59 266 C59 100 168 -10 304 -10 L304 -10 Z M356 33 C235 33 169 136 169 293 C169 484 283 647 413 647 C531 647 597 536 597 384 C597 193 482 33 356 33 L356 33 Z " />
<glyph glyph-name="multiply" unicode="&#xd7;" horiz-adv-x="580" d="M505 404 L484 428 L297 268 L180 427 L153 405 L271 245 L80 81 L102 57 L291 219 L410 58 L436 80 L317 242 L505 404 Z " />
<glyph glyph-name="Oslash" unicode="&#xd8;" horiz-adv-x="766" d="M604 642 L661 721 L637 739 L579 658 C543 678 501 689 455 689 C236 689 59 471 59 266 C59 175 91 102 143 53 L76 -40 L102 -56 L167 34 C206 6 253 -10 304 -10 C506 -10 706 208 706 413 C706 514 667 594 604 642 L604 642 Z M169 293 C169 484 283 647 413 647 C462 647 502 628 533 594 L200 133 C180 175 169 230 169 293 L169 293 Z M356 33 C296 33 249 59 217 104 L552 569 C581 522 597 458 597 384 C597 193 482 33 356 33 L356 33 Z " />
<glyph glyph-name="Ugrave" unicode="&#xd9;" horiz-adv-x="641" d="M554 732 L560 744 L560 747 C488 786 416 832 360 879 C336 865 320 837 320 808 C365 780 473 745 551 732 L554 732 Z M283 -10 C422 -10 511 77 541 215 L622 595 C634 650 636 661 709 670 L711 680 L531 680 L529 670 C574 665 588 658 588 634 C588 627 587 617 584 606 L507 224 C483 103 414 42 317 42 C227 42 187 81 187 148 C187 163 189 179 192 197 L279 599 C290 652 293 662 360 670 L362 680 L123 680 L121 670 C167 664 181 657 181 636 C181 627 178 615 175 599 L89 200 C85 180 83 160 83 143 C83 41 157 -10 283 -10 L283 -10 Z " />
<glyph glyph-name="Uacute" unicode="&#xda;" horiz-adv-x="641" d="M344 732 L347 732 C425 745 533 780 578 808 C578 837 563 865 538 879 C482 832 410 786 338 747 L338 744 L344 732 Z M283 -10 C422 -10 511 77 541 215 L622 595 C634 650 636 661 709 670 L711 680 L531 680 L529 670 C574 665 588 658 588 634 C588 627 587 617 584 606 L507 224 C483 103 414 42 317 42 C227 42 187 81 187 148 C187 163 189 179 192 197 L279 599 C290 652 293 662 360 670 L362 680 L123 680 L121 670 C167 664 181 657 181 636 C181 627 178 615 175 599 L89 200 C85 180 83 160 83 143 C83 41 157 -10 283 -10 L283 -10 Z " />
<glyph glyph-name="Ucircumflex" unicode="&#xdb;" horiz-adv-x="641" d="M458 785 L549 727 L563 738 L487 867 L463 867 L329 734 L338 727 L458 785 Z M531 680 L529 670 C574 665 588 658 588 634 C588 627 587 617 584 606 L507 224 C483 103 414 42 317 42 C227 42 187 81 187 148 C187 163 189 179 192 197 L279 599 C290 652 293 662 360 670 L362 680 L123 680 L121 670 C167 664 181 657 181 636 C181 627 178 615 175 599 L89 200 C85 180 83 160 83 143 C83 41 157 -10 283 -10 C422 -10 511 77 541 215 L622 595 C634 650 636 661 709 670 L711 680 L531 680 Z " />
<glyph glyph-name="Udieresis" unicode="&#xdc;" horiz-adv-x="641" d="M369 748 C401 748 435 777 435 815 C435 840 417 859 387 859 C355 859 322 830 322 793 C322 766 340 748 369 748 L369 748 Z M531 748 C563 748 597 777 597 815 C597 840 580 859 550 859 C517 859 484 830 484 793 C484 766 502 748 531 748 L531 748 Z M283 -10 C422 -10 511 77 541 215 L622 595 C634 650 636 661 709 670 L711 680 L531 680 L529 670 C574 665 588 658 588 634 C588 627 587 617 584 606 L507 224 C483 103 414 42 317 42 C227 42 187 81 187 148 C187 163 189 179 192 197 L279 599 C290 652 293 662 360 670 L362 680 L123 680 L121 670 C167 664 181 657 181 636 C181 627 178 615 175 599 L89 200 C85 180 83 160 83 143 C83 41 157 -10 283 -10 L283 -10 Z " />
<glyph glyph-name="Thorn" unicode="&#xde;" horiz-adv-x="535" d="M352 550 C324 550 297 546 274 539 L287 599 C298 650 300 661 369 670 L372 680 L135 680 L132 670 C197 661 195 651 184 599 L74 81 C63 28 59 19 -8 10 L-10 0 L235 0 L237 10 C164 19 166 28 177 81 L195 166 C214 163 236 161 255 161 C397 161 539 280 539 400 C539 486 472 550 352 550 L352 550 Z M262 194 C244 194 221 197 203 201 L262 483 C271 514 290 524 319 524 C390 524 432 482 432 408 C432 290 355 194 262 194 L262 194 Z " />
<glyph glyph-name="germandbls" unicode="&#xdf;" horiz-adv-x="562" d="M-32 -194 C-3 -194 31 -173 81 -106 C141 -27 185 153 212 315 C229 417 238 512 246 575 C251 619 269 639 303 639 C368 639 437 588 437 532 C437 491 299 445 299 369 C299 274 437 206 437 111 C437 69 405 30 368 30 C324 30 269 63 225 116 L195 40 C229 8 275 -12 323 -12 C409 -12 507 84 507 168 C507 268 374 336 374 417 C374 465 511 512 511 561 C511 642 438 690 372 690 C318 690 260 661 218 597 C129 453 113 325 101 180 C94 101 92 16 77 -61 C71 -93 53 -112 16 -112 C-7 -112 -39 -103 -58 -94 L-83 -184 C-68 -191 -49 -194 -32 -194 L-32 -194 Z " />
<glyph glyph-name="agrave" unicode="&#xe0;" horiz-adv-x="511" d="M452 528 L455 540 L454 543 C368 596 304 639 240 694 C215 680 204 653 202 618 C263 585 349 551 449 528 L452 528 Z M465 99 C438 67 414 50 394 50 C387 50 383 55 383 63 C383 71 386 83 390 107 L468 467 L458 467 L404 416 C385 448 357 474 319 474 C189 474 20 265 20 77 C20 26 40 -10 78 -10 C137 -10 260 88 327 255 L328 255 L291 82 C285 58 281 38 281 24 C281 3 292 -7 312 -7 C362 -7 433 45 471 89 L465 99 Z M142 60 C126 60 118 73 118 108 C118 253 210 445 286 445 C313 445 338 413 345 347 C280 167 176 60 142 60 L142 60 Z " />
<glyph glyph-name="aacute" unicode="&#xe1;" horiz-adv-x="511" d="M242 530 C342 553 428 587 489 620 C487 655 476 682 451 696 C387 641 323 598 237 545 L236 542 L239 530 L242 530 Z M394 50 C387 50 383 55 383 63 C383 71 386 83 390 107 L468 467 L458 467 L404 416 C385 448 357 474 319 474 C189 474 20 265 20 77 C20 26 40 -10 78 -10 C137 -10 260 88 327 255 L328 255 L291 82 C285 58 281 38 281 24 C281 3 292 -7 312 -7 C362 -7 433 45 471 89 L465 99 C438 67 414 50 394 50 L394 50 Z M142 60 C126 60 118 73 118 108 C118 253 210 445 286 445 C313 445 338 413 345 347 C280 167 176 60 142 60 L142 60 Z " />
<glyph glyph-name="acircumflex" unicode="&#xe2;" horiz-adv-x="511" d="M228 529 L345 612 L426 530 L428 530 L442 539 L443 542 L376 698 L351 698 L215 544 L214 541 L225 529 L228 529 Z M465 99 C438 67 414 50 394 50 C387 50 383 55 383 63 C383 71 386 83 390 107 L468 467 L458 467 L404 416 C385 448 357 474 319 474 C189 474 20 265 20 77 C20 26 40 -10 78 -10 C137 -10 260 88 327 255 L328 255 L291 82 C285 58 281 38 281 24 C281 3 292 -7 312 -7 C362 -7 433 45 471 89 L465 99 Z M142 60 C126 60 118 73 118 108 C118 253 210 445 286 445 C313 445 338 413 345 347 C280 167 176 60 142 60 L142 60 Z " />
<glyph glyph-name="atilde" unicode="&#xe3;" horiz-adv-x="511" d="M239 588 C268 588 362 546 406 546 C427 546 454 585 495 650 L486 655 C471 636 453 616 440 616 C409 616 312 657 271 657 C249 657 223 621 181 549 L190 543 C213 567 227 588 239 588 L239 588 Z M394 50 C387 50 383 55 383 63 C383 71 386 83 390 107 L468 467 L458 467 L404 416 C385 448 357 474 319 474 C189 474 20 265 20 77 C20 26 40 -10 78 -10 C137 -10 260 88 327 255 L328 255 L291 82 C285 58 281 38 281 24 C281 3 292 -7 312 -7 C362 -7 433 45 471 89 L465 99 C438 67 414 50 394 50 L394 50 Z M142 60 C126 60 118 73 118 108 C118 253 210 445 286 445 C313 445 338 413 345 347 C280 167 176 60 142 60 L142 60 Z " />
<glyph glyph-name="adieresis" unicode="&#xe4;" horiz-adv-x="511" d="M256 561 C291 561 322 591 322 625 C322 654 301 672 273 672 C239 672 208 643 208 608 C208 579 230 561 256 561 L256 561 Z M414 561 C449 561 480 591 480 625 C480 654 460 672 432 672 C397 672 367 643 367 608 C367 579 388 561 414 561 L414 561 Z M394 50 C387 50 383 55 383 63 C383 71 386 83 390 107 L468 467 L458 467 L404 416 C385 448 357 474 319 474 C189 474 20 265 20 77 C20 26 40 -10 78 -10 C137 -10 260 88 327 255 L328 255 L291 82 C285 58 281 38 281 24 C281 3 292 -7 312 -7 C362 -7 433 45 471 89 L465 99 C438 67 414 50 394 50 L394 50 Z M142 60 C126 60 118 73 118 108 C118 253 210 445 286 445 C313 445 338 413 345 347 C280 167 176 60 142 60 L142 60 Z " />
<glyph glyph-name="aring" unicode="&#xe5;" horiz-adv-x="511" d="M324 530 C379 530 433 580 433 633 C433 674 404 700 360 700 C305 700 255 652 255 599 C255 557 286 530 324 530 L324 530 Z M343 677 C368 677 387 649 387 614 C387 577 369 552 345 552 C321 552 302 578 302 617 C302 652 319 677 343 677 L343 677 Z M465 99 C438 67 414 50 394 50 C387 50 383 55 383 63 C383 71 386 83 390 107 L468 467 L458 467 L404 416 C385 448 357 474 319 474 C189 474 20 265 20 77 C20 26 40 -10 78 -10 C137 -10 260 88 327 255 L328 255 L291 82 C285 58 281 38 281 24 C281 3 292 -7 312 -7 C362 -7 433 45 471 89 L465 99 Z M142 60 C126 60 118 73 118 108 C118 253 210 445 286 445 C313 445 338 413 345 347 C280 167 176 60 142 60 L142 60 Z " />
<glyph glyph-name="ae" unicode="&#xe6;" horiz-adv-x="662" d="M438 54 C392 54 370 89 370 160 C370 171 371 182 372 193 C563 266 653 364 653 426 C653 461 626 478 589 478 C521 478 449 438 391 378 C386 445 348 478 295 478 C244 478 149 439 75 371 L79 362 C146 403 199 418 230 418 C270 418 291 381 291 309 C291 298 290 286 289 275 C98 202 8 103 8 42 C8 6 35 -11 72 -11 C140 -11 212 29 270 89 C275 23 313 -10 364 -10 C415 -10 518 33 618 128 L614 140 C537 77 475 54 438 54 L438 54 Z M517 435 C547 435 561 415 561 386 C561 339 511 277 374 214 C393 329 463 435 517 435 L517 435 Z M144 32 C114 32 100 52 100 82 C100 128 149 190 286 254 C268 138 197 32 144 32 L144 32 Z " />
<glyph glyph-name="ccedilla" unicode="&#xe7;" horiz-adv-x="386" d="M283 478 C161 478 18 295 18 100 C18 28 51 -10 103 -10 C112 -10 122 -9 133 -6 L102 -48 C77 -83 71 -89 71 -93 C71 -98 77 -102 92 -113 C130 -138 149 -154 149 -170 C149 -188 131 -200 107 -200 C79 -200 19 -177 -6 -152 L-11 -152 L-32 -201 C-3 -218 50 -226 80 -226 C153 -226 217 -185 217 -138 C217 -110 194 -82 136 -48 L176 7 C226 25 284 59 328 103 L324 112 C255 66 208 49 171 49 C138 49 120 86 120 152 C120 309 181 436 223 436 C267 436 315 409 353 364 L394 441 C369 461 331 478 283 478 L283 478 Z " />
<glyph glyph-name="egrave" unicode="&#xe8;" horiz-adv-x="418" d="M430 543 C344 596 280 639 216 694 C191 680 180 653 178 618 C239 585 325 551 425 528 L428 528 L431 540 L430 543 Z M408 426 C408 461 381 478 345 478 C191 478 25 279 25 105 C25 28 64 -10 120 -10 C170 -10 274 33 373 128 L370 140 C292 77 230 54 194 54 C148 54 126 89 126 160 C126 171 127 182 128 194 C319 267 408 364 408 426 L408 426 Z M273 435 C303 435 317 415 317 386 C317 339 267 277 130 214 C148 329 219 435 273 435 L273 435 Z " />
<glyph glyph-name="eacute" unicode="&#xe9;" horiz-adv-x="418" d="M218 530 C318 553 404 587 465 620 C463 655 452 682 427 696 C363 641 299 598 213 545 L212 542 L215 530 L218 530 Z M408 426 C408 461 381 478 345 478 C191 478 25 279 25 105 C25 28 64 -10 120 -10 C170 -10 274 33 373 128 L370 140 C292 77 230 54 194 54 C148 54 126 89 126 160 C126 171 127 182 128 194 C319 267 408 364 408 426 L408 426 Z M273 435 C303 435 317 415 317 386 C317 339 267 277 130 214 C148 329 219 435 273 435 L273 435 Z " />
<glyph glyph-name="ecircumflex" unicode="&#xea;" horiz-adv-x="418" d="M352 698 L327 698 L191 544 L190 541 L201 529 L204 529 L321 612 L402 530 L404 530 L418 539 L419 542 L352 698 Z M408 426 C408 461 381 478 345 478 C191 478 25 279 25 105 C25 28 64 -10 120 -10 C170 -10 274 33 373 128 L370 140 C292 77 230 54 194 54 C148 54 126 89 126 160 C126 171 127 182 128 194 C319 267 408 364 408 426 L408 426 Z M273 435 C303 435 317 415 317 386 C317 339 267 277 130 214 C148 329 219 435 273 435 L273 435 Z " />
<glyph glyph-name="edieresis" unicode="&#xeb;" horiz-adv-x="418" d="M232 561 C267 561 298 591 298 625 C298 654 277 672 249 672 C215 672 184 643 184 608 C184 579 206 561 232 561 L232 561 Z M408 672 C373 672 343 643 343 608 C343 579 364 561 390 561 C425 561 456 591 456 625 C456 654 436 672 408 672 L408 672 Z M408 426 C408 461 381 478 345 478 C191 478 25 279 25 105 C25 28 64 -10 120 -10 C170 -10 274 33 373 128 L370 140 C292 77 230 54 194 54 C148 54 126 89 126 160 C126 171 127 182 128 194 C319 267 408 364 408 426 L408 426 Z M273 435 C303 435 317 415 317 386 C317 339 267 277 130 214 C148 329 219 435 273 435 L273 435 Z " />
<glyph glyph-name="igrave" unicode="&#xec;" horiz-adv-x="265" d="M264 546 L270 558 L270 561 C216 601 165 647 121 695 C94 685 81 659 79 625 C134 598 195 568 261 546 L264 546 Z M65 -11 C116 -11 186 41 224 86 L218 95 C191 63 166 47 147 47 C140 47 136 51 136 58 C136 67 139 80 144 104 L223 478 L215 478 L62 441 L60 430 C109 415 115 405 106 363 L44 79 C39 55 35 34 35 20 C35 -1 45 -11 65 -11 L65 -11 Z " />
<glyph glyph-name="iacute" unicode="&#xed;" horiz-adv-x="265" d="M119 546 L122 546 C188 568 250 598 304 625 C302 659 290 685 263 695 C218 647 167 601 113 561 L113 558 L119 546 Z M65 -11 C116 -11 186 41 224 86 L218 95 C191 63 166 47 147 47 C140 47 136 51 136 58 C136 67 139 80 144 104 L223 478 L215 478 L62 441 L60 430 C109 415 115 405 106 363 L44 79 C39 55 35 34 35 20 C35 -1 45 -11 65 -11 L65 -11 Z " />
<glyph glyph-name="icircumflex" unicode="&#xee;" horiz-adv-x="265" d="M230 698 L205 698 L69 544 L68 541 L79 529 L82 529 L199 612 L280 530 L282 530 L296 539 L297 542 L230 698 Z M147 47 C140 47 136 51 136 58 C136 67 139 80 144 104 L223 478 L215 478 L62 441 L60 430 C109 415 115 405 106 363 L44 79 C39 55 35 34 35 20 C35 -1 45 -11 65 -11 C116 -11 186 41 224 86 L218 95 C191 63 166 47 147 47 L147 47 Z " />
<glyph glyph-name="idieresis" unicode="&#xef;" horiz-adv-x="265" d="M121 565 C153 565 183 598 183 632 C183 658 167 677 141 677 C107 677 80 643 80 609 C80 580 96 565 121 565 L121 565 Z M256 565 C288 565 318 598 318 632 C318 658 302 677 276 677 C242 677 215 643 215 609 C215 580 231 565 256 565 L256 565 Z M65 -11 C116 -11 186 41 224 86 L218 95 C191 63 166 47 147 47 C140 47 136 51 136 58 C136 67 139 80 144 104 L223 478 L215 478 L62 441 L60 430 C109 415 115 405 106 363 L44 79 C39 55 35 34 35 20 C35 -1 45 -11 65 -11 L65 -11 Z " />
<glyph glyph-name="eth" unicode="&#xf0;" horiz-adv-x="486" d="M361 610 L471 676 L464 699 L343 627 C310 653 271 677 227 695 L219 681 C253 661 281 634 302 602 L136 504 L145 481 L314 582 C349 519 363 440 362 364 C349 416 310 449 258 449 C171 449 29 334 29 162 C29 58 87 -10 177 -10 C320 -10 470 185 470 372 C470 462 432 546 361 610 L361 610 Z M212 24 C155 24 131 81 131 160 C131 300 198 419 270 419 C310 419 345 365 345 274 C345 144 283 24 212 24 L212 24 Z " />
<glyph glyph-name="ntilde" unicode="&#xf1;" horiz-adv-x="525" d="M215 588 C244 588 338 546 382 546 C403 546 430 585 471 650 L462 655 C447 636 429 616 416 616 C385 616 288 657 247 657 C225 657 199 621 157 549 L166 543 C189 567 203 588 215 588 L215 588 Z M478 95 C450 63 426 48 407 48 C400 48 395 52 395 59 C395 68 399 86 403 104 L451 326 C462 378 463 402 463 417 C463 456 444 478 397 478 C331 478 241 423 182 268 L181 268 C189 313 219 451 227 476 L220 476 L59 425 L57 415 C94 408 107 394 107 369 C107 359 105 349 100 321 L30 0 L124 0 L169 210 C232 353 294 415 342 415 C360 415 369 405 369 389 C369 382 366 366 361 345 L305 79 C300 54 295 34 295 20 C295 -1 307 -11 326 -11 C378 -11 447 42 484 86 L478 95 Z " />
<glyph glyph-name="ograve" unicode="&#xf2;" horiz-adv-x="453" d="M417 528 L420 540 L419 543 C333 596 269 639 205 694 C180 680 169 653 167 618 C228 585 314 551 414 528 L417 528 Z M147 -10 C279 -10 430 178 430 333 C430 420 384 479 300 479 C150 479 25 298 25 145 C25 46 77 -10 147 -10 L147 -10 Z M191 35 C141 35 123 92 123 176 C123 324 184 443 262 443 C308 443 336 394 336 307 C336 184 278 35 191 35 L191 35 Z " />
<glyph glyph-name="oacute" unicode="&#xf3;" horiz-adv-x="453" d="M203 530 L206 530 C306 553 392 587 453 620 C451 655 440 682 415 696 C351 641 287 598 201 545 L200 542 L203 530 Z M147 -10 C279 -10 430 178 430 333 C430 420 384 479 300 479 C150 479 25 298 25 145 C25 46 77 -10 147 -10 L147 -10 Z M191 35 C141 35 123 92 123 176 C123 324 184 443 262 443 C308 443 336 394 336 307 C336 184 278 35 191 35 L191 35 Z " />
<glyph glyph-name="ocircumflex" unicode="&#xf4;" horiz-adv-x="453" d="M192 529 L309 612 L390 530 L392 530 L406 539 L407 542 L340 698 L315 698 L179 544 L178 541 L189 529 L192 529 Z M300 479 C150 479 25 298 25 145 C25 46 77 -10 147 -10 C279 -10 430 178 430 333 C430 420 384 479 300 479 L300 479 Z M191 35 C141 35 123 92 123 176 C123 324 184 443 262 443 C308 443 336 394 336 307 C336 184 278 35 191 35 L191 35 Z " />
<glyph glyph-name="otilde" unicode="&#xf5;" horiz-adv-x="453" d="M155 543 C178 567 192 588 204 588 C233 588 327 546 371 546 C392 546 419 585 460 650 L451 655 C436 636 418 616 405 616 C374 616 277 657 236 657 C214 657 188 621 146 549 L155 543 Z M147 -10 C279 -10 430 178 430 333 C430 420 384 479 300 479 C150 479 25 298 25 145 C25 46 77 -10 147 -10 L147 -10 Z M191 35 C141 35 123 92 123 176 C123 324 184 443 262 443 C308 443 336 394 336 307 C336 184 278 35 191 35 L191 35 Z " />
<glyph glyph-name="odieresis" unicode="&#xf6;" horiz-adv-x="453" d="M220 561 C255 561 286 591 286 625 C286 654 265 672 237 672 C203 672 172 643 172 608 C172 579 194 561 220 561 L220 561 Z M378 561 C413 561 444 591 444 625 C444 654 424 672 396 672 C361 672 331 643 331 608 C331 579 352 561 378 561 L378 561 Z M147 -10 C279 -10 430 178 430 333 C430 420 384 479 300 479 C150 479 25 298 25 145 C25 46 77 -10 147 -10 L147 -10 Z M191 35 C141 35 123 92 123 176 C123 324 184 443 262 443 C308 443 336 394 336 307 C336 184 278 35 191 35 L191 35 Z " />
<glyph glyph-name="divide" unicode="&#xf7;" horiz-adv-x="580" d="M317 374 C357 374 387 406 387 447 C387 483 366 506 334 506 C295 506 264 472 264 431 C264 394 286 374 317 374 L317 374 Z M55 246 L533 246 L540 276 L62 276 L55 246 Z M252 14 C292 14 322 46 322 87 C322 123 300 146 268 146 C229 146 199 112 199 71 C199 34 220 14 252 14 L252 14 Z " />
<glyph glyph-name="oslash" unicode="&#xf8;" horiz-adv-x="453" d="M430 333 C430 384 414 426 383 452 L425 539 L398 549 L359 467 C342 475 322 479 300 479 C150 479 25 298 25 145 C25 54 69 -1 131 -9 L92 -91 L120 -102 L164 -9 C292 6 430 185 430 333 L430 333 Z M123 176 C123 324 184 443 262 443 C290 443 311 425 323 393 L158 46 C133 67 123 114 123 176 L123 176 Z M191 35 L185 35 L334 347 C335 335 336 321 336 307 C336 184 278 35 191 35 L191 35 Z " />
<glyph glyph-name="ugrave" unicode="&#xf9;" horiz-adv-x="524" d="M441 528 L444 540 L443 543 C357 596 293 639 229 694 C204 680 193 653 191 618 C252 585 338 551 438 528 L441 528 Z M477 95 C451 63 426 47 407 47 C399 47 396 51 396 60 C396 69 400 87 405 110 L482 467 L389 467 L344 255 C280 116 219 53 170 53 C150 53 144 63 144 81 C144 91 147 105 150 122 L225 478 L217 478 L64 441 L62 430 C112 415 118 405 109 363 L54 107 C49 85 47 67 47 52 C47 5 69 -11 103 -11 C167 -11 269 43 331 199 L332 199 L306 88 C301 61 295 37 295 21 C295 1 302 -11 325 -11 C376 -11 446 41 483 86 L477 95 Z " />
<glyph glyph-name="uacute" unicode="&#xfa;" horiz-adv-x="524" d="M231 530 C331 553 417 587 478 620 C476 655 465 682 440 696 C376 641 312 598 226 545 L225 542 L228 530 L231 530 Z M477 95 C451 63 426 47 407 47 C399 47 396 51 396 60 C396 69 400 87 405 110 L482 467 L389 467 L344 255 C280 116 219 53 170 53 C150 53 144 63 144 81 C144 91 147 105 150 122 L225 478 L217 478 L64 441 L62 430 C112 415 118 405 109 363 L54 107 C49 85 47 67 47 52 C47 5 69 -11 103 -11 C167 -11 269 43 331 199 L332 199 L306 88 C301 61 295 37 295 21 C295 1 302 -11 325 -11 C376 -11 446 41 483 86 L477 95 Z " />
<glyph glyph-name="ucircumflex" unicode="&#xfb;" horiz-adv-x="524" d="M216 529 L333 612 L414 530 L416 530 L430 539 L431 542 L364 698 L339 698 L203 544 L202 541 L213 529 L216 529 Z M477 95 C451 63 426 47 407 47 C399 47 396 51 396 60 C396 69 400 87 405 110 L482 467 L389 467 L344 255 C280 116 219 53 170 53 C150 53 144 63 144 81 C144 91 147 105 150 122 L225 478 L217 478 L64 441 L62 430 C112 415 118 405 109 363 L54 107 C49 85 47 67 47 52 C47 5 69 -11 103 -11 C167 -11 269 43 331 199 L332 199 L306 88 C301 61 295 37 295 21 C295 1 302 -11 325 -11 C376 -11 446 41 483 86 L477 95 Z " />
<glyph glyph-name="udieresis" unicode="&#xfc;" horiz-adv-x="524" d="M245 561 C280 561 311 591 311 625 C311 654 290 672 262 672 C228 672 197 643 197 608 C197 579 219 561 245 561 L245 561 Z M403 561 C438 561 469 591 469 625 C469 654 449 672 421 672 C386 672 356 643 356 608 C356 579 377 561 403 561 L403 561 Z M477 95 C451 63 426 47 407 47 C399 47 396 51 396 60 C396 69 400 87 405 110 L482 467 L389 467 L344 255 C280 116 219 53 170 53 C150 53 144 63 144 81 C144 91 147 105 150 122 L225 478 L217 478 L64 441 L62 430 C112 415 118 405 109 363 L54 107 C49 85 47 67 47 52 C47 5 69 -11 103 -11 C167 -11 269 43 331 199 L332 199 L306 88 C301 61 295 37 295 21 C295 1 302 -11 325 -11 C376 -11 446 41 483 86 L477 95 Z " />
<glyph glyph-name="thorn" unicode="&#xfe;" horiz-adv-x="484" d="M134 -2 C334 79 469 217 469 361 C469 425 421 478 336 478 C301 478 266 471 231 458 L279 689 L271 689 L121 652 L119 642 C157 631 168 623 168 604 C168 596 166 587 163 575 L127 407 C98 389 68 368 37 346 L42 326 C69 343 95 359 120 373 L13 -132 C4 -173 -10 -185 -59 -189 L-61 -199 L160 -199 L162 -189 C105 -184 98 -176 107 -132 L134 -2 Z M292 430 C342 430 370 401 370 347 C370 236 285 105 140 23 L222 419 C246 426 269 430 292 430 L292 430 Z " />
<glyph glyph-name="dotlessi" unicode="&#x131;" horiz-adv-x="265" d="M65 -11 C116 -11 186 41 224 86 L218 95 C191 63 166 47 147 47 C140 47 136 51 136 58 C136 67 139 80 144 104 L223 478 L215 478 L62 441 L60 430 C109 415 115 405 106 363 L44 79 C39 55 35 34 35 20 C35 -1 45 -11 65 -11 L65 -11 Z " />
<glyph glyph-name="OE" unicode="&#x152;" horiz-adv-x="889" d="M572 680 C528 680 470 689 416 689 C232 689 57 476 57 255 C57 101 138 -10 287 -10 C339 -10 380 0 420 0 L765 0 L835 207 L825 207 L786 147 C745 81 704 25 586 24 C514 23 503 40 512 86 L569 353 L641 350 C694 347 705 328 713 243 L727 243 L772 468 L761 468 C729 396 689 379 644 377 L573 373 L632 651 L722 648 C819 645 832 610 851 566 L873 511 L883 511 L899 680 L572 680 Z M419 127 C404 54 369 19 313 19 C223 19 156 125 156 271 C156 487 256 650 395 650 C437 650 487 630 516 577 L419 127 Z " />
<glyph glyph-name="oe" unicode="&#x153;" horiz-adv-x="691" d="M451 49 C412 49 393 84 393 154 C393 166 394 180 396 194 C592 267 680 367 680 427 C680 461 653 478 617 478 C541 478 460 428 399 356 C388 432 336 478 275 478 C155 478 27 323 27 146 C27 48 77 -11 147 -11 C203 -11 258 21 301 72 C310 17 342 -10 387 -10 C446 -10 562 41 646 128 L643 137 C557 73 491 49 451 49 L451 49 Z M183 19 C141 19 125 83 125 168 C125 316 186 448 250 448 C290 448 309 396 309 315 C309 153 246 19 183 19 L183 19 Z M544 435 C575 435 587 414 587 386 C587 340 538 279 399 213 C418 314 478 435 544 435 L544 435 Z " />
<glyph glyph-name="Utilde" unicode="&#x168;" horiz-adv-x="641" d="M313 756 C336 780 350 801 362 801 C391 801 485 759 529 759 C550 759 577 798 618 863 L609 868 C594 849 576 829 563 829 C532 829 435 870 394 870 C372 870 346 834 304 762 L313 756 Z M283 -10 C422 -10 511 77 541 215 L622 595 C634 650 636 661 709 670 L711 680 L531 680 L529 670 C574 665 588 658 588 634 C588 627 587 617 584 606 L507 224 C483 103 414 42 317 42 C227 42 187 81 187 148 C187 163 189 179 192 197 L279 599 C290 652 293 662 360 670 L362 680 L123 680 L121 670 C167 664 181 657 181 636 C181 627 178 615 175 599 L89 200 C85 180 83 160 83 143 C83 41 157 -10 283 -10 L283 -10 Z " />
<glyph glyph-name="utilde" unicode="&#x169;" horiz-adv-x="524" d="M228 588 C257 588 351 546 395 546 C416 546 443 585 484 650 L475 655 C460 636 442 616 429 616 C398 616 301 657 260 657 C238 657 212 621 170 549 L179 543 C202 567 216 588 228 588 L228 588 Z M407 47 C399 47 396 51 396 60 C396 69 400 87 405 110 L482 467 L389 467 L344 255 C280 116 219 53 170 53 C150 53 144 63 144 81 C144 91 147 105 150 122 L225 478 L217 478 L64 441 L62 430 C112 415 118 405 109 363 L54 107 C49 85 47 67 47 52 C47 5 69 -11 103 -11 C167 -11 269 43 331 199 L332 199 L306 88 C301 61 295 37 295 21 C295 1 302 -11 325 -11 C376 -11 446 41 483 86 L477 95 C451 63 426 47 407 47 L407 47 Z " />
<glyph glyph-name="uni0237" unicode="&#x237;" horiz-adv-x="258" d="M-76 -199 L33 -132 C84 -101 116 -68 127 -15 L233 478 L225 478 L72 441 L69 430 C124 416 124 406 117 367 L28 -46 C18 -90 4 -124 -81 -182 L-76 -199 Z " />
<glyph glyph-name="circumflex" unicode="&#x2c6;" horiz-adv-x="309" d="M267 698 L242 698 L106 544 L105 541 L116 529 L119 529 L236 612 L317 530 L319 530 L333 539 L334 542 L267 698 Z " />
<glyph glyph-name="dotaccent" unicode="&#x2d9;" horiz-adv-x="210" d="M185 570 C223 570 253 596 253 635 C253 672 228 692 193 692 C154 692 125 668 125 626 C125 590 151 570 185 570 L185 570 Z " />
<glyph glyph-name="ring" unicode="&#x2da;" horiz-adv-x="255" d="M189 530 C244 530 298 580 298 633 C298 674 269 700 225 700 C170 700 120 652 120 599 C120 557 151 530 189 530 L189 530 Z M210 552 C186 552 167 578 167 617 C167 652 184 677 208 677 C233 677 252 649 252 614 C252 577 234 552 210 552 L210 552 Z " />
<glyph glyph-name="tilde" unicode="&#x2dc;" horiz-adv-x="373" d="M116 543 C139 567 153 588 165 588 C194 588 288 546 332 546 C353 546 380 585 421 650 L412 655 C397 636 379 616 366 616 C335 616 238 657 197 657 C175 657 149 621 107 549 L116 543 Z " />
<glyph glyph-name="gravecomb" unicode="&#x300;" d="M21 528 L24 540 L23 543 C-63 596 -127 639 -191 694 C-216 680 -227 653 -229 618 C-168 585 -82 551 18 528 L21 528 Z " />
<glyph glyph-name="acutecomb" unicode="&#x301;" d="M-208 528 L-205 528 C-105 551 -19 585 42 618 C40 653 29 680 4 694 C-60 639 -124 596 -210 543 L-211 540 L-208 528 Z " />
<glyph glyph-name="uni0302" unicode="&#x302;" d="M-42 698 L-67 698 L-203 544 L-204 541 L-193 529 L-190 529 L-73 612 L8 530 L10 530 L24 539 L25 542 L-42 698 Z " />
<glyph glyph-name="tildecomb" unicode="&#x303;" d="M-257 543 C-234 567 -220 588 -208 588 C-179 588 -85 546 -41 546 C-20 546 7 585 48 650 L39 655 C24 636 6 616 -7 616 C-38 616 -135 657 -176 657 C-198 657 -224 621 -266 549 L-257 543 Z " />
<glyph glyph-name="uni0307" unicode="&#x307;" d="M-25 570 C13 570 43 596 43 635 C43 672 18 692 -17 692 C-56 692 -85 668 -85 626 C-85 590 -59 570 -25 570 L-25 570 Z " />
<glyph glyph-name="uni0308" unicode="&#x308;" d="M-182 561 C-147 561 -116 591 -116 625 C-116 654 -137 672 -165 672 C-199 672 -230 643 -230 608 C-230 579 -208 561 -182 561 L-182 561 Z M-24 561 C11 561 42 591 42 625 C42 654 22 672 -6 672 C-41 672 -71 643 -71 608 C-71 579 -50 561 -24 561 L-24 561 Z " />
<glyph glyph-name="uni030A" unicode="&#x30a;" d="M-66 530 C-11 530 43 580 43 633 C43 674 14 700 -30 700 C-85 700 -135 652 -135 599 C-135 557 -104 530 -66 530 L-66 530 Z M-45 552 C-69 552 -88 578 -88 617 C-88 652 -71 677 -47 677 C-22 677 -3 649 -3 614 C-3 577 -21 552 -45 552 L-45 552 Z " />
<glyph glyph-name="uni0327" unicode="&#x327;" d="M-202 -48 L-157 13 L-191 13 L-236 -48 C-261 -83 -267 -89 -267 -93 C-267 -98 -261 -102 -246 -113 C-208 -138 -189 -154 -189 -170 C-189 -188 -207 -200 -231 -200 C-259 -200 -319 -177 -344 -152 L-349 -152 L-370 -201 C-341 -218 -288 -226 -258 -226 C-185 -226 -121 -185 -121 -138 C-121 -110 -144 -82 -202 -48 L-202 -48 Z " />
<glyph glyph-name="endash" unicode="&#x2013;" horiz-adv-x="418" d="M374 223 L381 258 L46 258 L39 223 L374 223 Z " />
<glyph glyph-name="emdash" unicode="&#x2014;" horiz-adv-x="653" d="M609 223 L616 258 L46 258 L39 223 L609 223 Z " />
<glyph glyph-name="quoteleft" unicode="&#x2018;" horiz-adv-x="224" d="M158 418 C190 418 224 446 240 484 C209 493 182 513 182 546 C182 606 255 662 284 684 L281 690 C162 627 94 555 94 487 C94 447 122 418 158 418 L158 418 Z " />
<glyph glyph-name="quoteright" unicode="&#x2019;" horiz-adv-x="224" d="M203 690 C171 690 138 663 121 625 C152 615 179 596 179 563 C179 502 106 446 77 424 L80 418 C199 481 267 554 267 622 C267 661 239 690 203 690 L203 690 Z " />
<glyph glyph-name="quotesinglbase" unicode="&#x201a;" horiz-adv-x="244" d="M-46 -156 C79 -91 142 -19 142 47 C142 87 119 116 79 116 C45 116 12 87 -3 50 C30 40 54 19 54 -12 C54 -71 -20 -130 -48 -151 L-46 -156 Z " />
<glyph glyph-name="quotedblleft" unicode="&#x201c;" horiz-adv-x="418" d="M158 418 C190 418 224 446 240 484 C209 493 182 513 182 546 C182 606 255 662 284 684 L281 690 C162 627 94 555 94 487 C94 447 122 418 158 418 L158 418 Z M351 418 C383 418 417 446 433 484 C402 493 375 513 375 546 C375 606 448 662 477 684 L475 690 C355 627 288 555 288 487 C288 447 315 418 351 418 L351 418 Z " />
<glyph glyph-name="quotedblright" unicode="&#x201d;" horiz-adv-x="418" d="M203 690 C171 690 138 663 121 625 C152 615 179 596 179 563 C179 502 106 446 77 424 L80 418 C199 481 267 554 267 622 C267 661 239 690 203 690 L203 690 Z M396 690 C365 690 331 663 315 625 C345 615 372 596 372 563 C372 502 299 446 271 424 L273 418 C393 481 460 554 460 622 C460 661 433 690 396 690 L396 690 Z " />
<glyph glyph-name="quotedblbase" unicode="&#x201e;" horiz-adv-x="439" d="M-46 -156 C79 -91 142 -19 142 47 C142 87 119 116 79 116 C45 116 12 87 -3 50 C30 40 54 19 54 -12 C54 -71 -20 -130 -48 -151 L-46 -156 Z M150 -156 C274 -91 337 -19 337 47 C337 87 315 116 274 116 C241 116 208 87 193 50 C225 40 249 19 249 -12 C249 -71 175 -130 147 -151 L150 -156 Z " />
<glyph glyph-name="bullet" unicode="&#x2022;" horiz-adv-x="218" d="M120 264 C168 264 219 311 219 365 C219 405 190 436 147 436 C98 436 49 392 49 340 C49 296 76 264 120 264 L120 264 Z " />
<glyph glyph-name="ellipsis" unicode="&#x2026;" horiz-adv-x="559" d="M65 -10 C105 -10 136 22 136 63 C136 99 114 123 82 123 C42 123 11 88 11 47 C11 10 33 -10 65 -10 L65 -10 Z M233 -10 C273 -10 303 22 303 63 C303 99 282 123 250 123 C210 123 179 88 179 47 C179 10 201 -10 233 -10 L233 -10 Z M401 -10 C441 -10 472 22 472 63 C472 99 450 123 418 123 C378 123 347 88 347 47 C347 10 369 -10 401 -10 L401 -10 Z " />
<glyph glyph-name="guilsinglleft" unicode="&#x2039;" horiz-adv-x="298" d="M292 407 L286 412 C208 345 144 297 47 239 L45 230 C116 173 160 127 211 60 L219 65 C196 135 172 185 143 235 C194 286 237 336 292 407 L292 407 Z " />
<glyph glyph-name="guilsinglright" unicode="&#x203a;" horiz-adv-x="299" d="M91 412 L83 407 C106 337 130 287 159 237 C108 186 66 137 10 65 L16 60 C95 127 159 175 255 233 L257 242 C187 299 143 345 91 412 L91 412 Z " />
<glyph glyph-name="fraction" unicode="&#x2044;" horiz-adv-x="48" d="M249 680 L-180 0 L-156 0 L273 680 L249 680 Z " />
<glyph glyph-name="Euro" unicode="&#x20ac;" horiz-adv-x="580" d="M481 690 C358 690 234 571 171 419 L104 419 L97 384 L158 384 C150 360 143 336 138 311 L81 311 L74 276 L133 276 C130 256 129 236 129 216 C129 74 202 -10 306 -10 C358 -10 436 18 474 48 L516 229 L506 229 C445 85 394 18 335 18 C272 18 235 85 235 200 C235 226 236 251 238 276 L461 276 L468 311 L242 311 C245 336 249 360 254 384 L484 384 L491 419 L262 419 C277 475 297 525 320 564 C353 620 394 654 438 654 C501 654 543 616 565 512 L574 512 L598 654 C574 673 532 690 481 690 L481 690 Z " />
<glyph glyph-name="trademark" unicode="&#x2122;" horiz-adv-x="733" d="M294 662 L305 662 C339 662 348 650 353 631 L369 576 L374 576 L388 687 L383 687 L364 680 L157 680 L140 687 L136 687 L101 576 L108 576 L146 630 C169 662 188 662 206 662 L216 662 L162 408 C157 385 156 381 110 374 L108 364 L278 364 L280 374 C234 379 236 386 241 408 L294 662 Z M689 680 L576 476 L534 680 L429 680 L426 670 C457 664 460 648 452 617 L397 422 C387 387 385 380 339 374 L337 364 L448 364 L450 374 C401 378 407 393 415 422 L466 615 L521 363 L531 363 L676 617 L646 409 C643 384 640 379 598 374 L596 364 L764 364 L766 374 C724 378 727 389 729 407 L756 627 C759 650 762 663 796 670 L799 680 L689 680 Z " />
<glyph glyph-name="oneeighth" unicode="&#x215b;" horiz-adv-x="712" d="M300 316 C234 321 236 337 243 368 L311 683 L307 685 L141 595 L142 589 L214 605 L163 368 C155 332 144 321 83 316 L82 311 L299 311 L300 316 Z M581 680 L152 0 L176 0 L605 680 L581 680 Z M582 213 C636 237 666 273 666 309 C666 345 629 377 578 377 C510 377 444 319 444 264 C444 227 465 204 491 186 C431 165 390 121 390 77 C390 24 436 -5 497 -5 C574 -5 646 59 646 124 C646 167 615 192 582 213 L582 213 Z M557 359 C590 359 611 335 611 304 C611 278 595 248 569 221 C534 243 500 263 500 299 C500 337 528 359 557 359 L557 359 Z M517 13 C475 13 453 45 453 80 C453 119 473 151 507 177 C546 153 590 134 590 89 C590 45 553 13 517 13 L517 13 Z " />
<glyph glyph-name="threeeighths" unicode="&#x215c;" horiz-adv-x="712" d="M335 448 C335 489 304 517 254 531 C285 543 348 574 348 626 C348 662 317 688 272 688 C214 688 165 649 132 598 L134 595 C166 621 195 634 224 634 C251 634 273 619 273 593 C273 552 234 525 178 503 L178 499 C229 490 263 467 263 428 C263 373 214 327 146 318 L135 393 C108 388 87 373 70 359 C73 347 77 338 99 322 C115 311 144 306 163 306 C244 306 335 378 335 448 L335 448 Z M581 680 L152 0 L176 0 L605 680 L581 680 Z M582 213 C636 237 666 273 666 309 C666 345 629 377 578 377 C510 377 444 319 444 264 C444 227 465 204 491 186 C431 165 390 121 390 77 C390 24 436 -5 497 -5 C574 -5 646 59 646 124 C646 167 615 192 582 213 L582 213 Z M557 359 C590 359 611 335 611 304 C611 278 595 248 569 221 C534 243 500 263 500 299 C500 337 528 359 557 359 L557 359 Z M517 13 C475 13 453 45 453 80 C453 119 473 151 507 177 C546 153 590 134 590 89 C590 45 553 13 517 13 L517 13 Z " />
<glyph glyph-name="fiveeighths" unicode="&#x215d;" horiz-adv-x="693" d="M333 449 C333 502 292 552 164 567 L184 619 L344 619 L371 698 L369 698 C356 685 340 681 322 681 L193 681 L123 507 L124 504 C217 489 256 461 256 417 C256 364 205 321 151 317 L141 391 C111 388 86 370 73 358 C74 346 84 333 101 322 C117 312 145 305 169 305 C242 305 333 379 333 449 L333 449 Z M562 680 L133 0 L157 0 L586 680 L562 680 Z M563 213 C617 237 647 273 647 309 C647 345 610 377 559 377 C491 377 425 319 425 264 C425 227 446 204 472 186 C412 165 371 121 371 77 C371 24 417 -5 478 -5 C555 -5 627 59 627 124 C627 167 596 192 563 213 L563 213 Z M538 359 C571 359 592 335 592 304 C592 278 576 248 550 221 C515 243 481 263 481 299 C481 337 509 359 538 359 L538 359 Z M498 13 C456 13 434 45 434 80 C434 119 454 151 488 177 C527 153 571 134 571 89 C571 45 534 13 498 13 L498 13 Z " />
<glyph glyph-name="seveneighths" unicode="&#x215e;" horiz-adv-x="712" d="M380 677 L378 680 L165 680 L124 574 L129 574 C154 613 168 613 196 613 L337 613 C257 484 180 393 104 312 L105 310 L190 310 L380 677 Z M581 680 L152 0 L176 0 L605 680 L581 680 Z M582 213 C636 237 666 273 666 309 C666 345 629 377 578 377 C510 377 444 319 444 264 C444 227 465 204 491 186 C431 165 390 121 390 77 C390 24 436 -5 497 -5 C574 -5 646 59 646 124 C646 167 615 192 582 213 L582 213 Z M557 359 C590 359 611 335 611 304 C611 278 595 248 569 221 C534 243 500 263 500 299 C500 337 528 359 557 359 L557 359 Z M517 13 C475 13 453 45 453 80 C453 119 473 151 507 177 C546 153 590 134 590 89 C590 45 553 13 517 13 L517 13 Z " />
<glyph glyph-name="minus" unicode="&#x2212;" horiz-adv-x="580" d="M83 281 L77 250 L512 250 L518 281 L83 281 Z " />
<glyph glyph-name="uniF8FF" unicode="&#xf8ff;" horiz-adv-x="665" d="M607 -114 C614 -110 619 -107 619 -100 C631 -82 614 -50 611 -50 C604 -45 556 -11 524 20 L524 26 C524 30 525 35 522 37 C516 44 487 74 471 89 C457 109 446 129 433 149 C421 170 402 200 394 211 C388 221 359 260 349 275 C334 295 317 317 302 326 C289 334 249 361 232 385 C225 396 216 438 217 456 C219 474 222 484 222 484 C228 498 235 510 240 520 C247 529 257 537 257 549 C255 555 260 565 253 570 C251 570 248 567 248 567 C247 580 251 593 254 603 C257 610 252 618 252 626 C254 631 264 638 258 640 C251 643 258 653 251 653 C244 654 245 667 239 664 C225 654 205 626 203 627 C200 628 205 655 206 666 C205 672 199 669 193 668 C186 666 182 669 180 668 C178 666 161 644 160 643 C158 638 153 617 152 614 C151 610 150 605 149 610 C148 618 157 642 159 659 C157 661 155 660 153 660 C149 657 143 653 141 651 C138 648 133 636 133 636 C133 633 133 623 130 625 C126 629 130 636 130 640 C130 640 129 643 125 643 C120 643 120 644 118 644 C116 635 111 626 109 623 C105 614 98 605 98 596 C97 593 95 596 93 596 C93 596 85 600 85 593 C85 590 85 587 87 583 C90 578 98 572 97 563 C97 563 94 562 92 560 C89 553 107 516 112 507 C112 506 109 506 109 506 C99 506 61 488 54 481 C47 477 31 460 20 450 C18 447 18 441 21 443 C29 450 56 470 87 479 C119 488 131 466 131 466 C131 466 146 443 130 396 C121 361 107 331 109 286 C113 233 137 203 160 177 C180 155 239 87 248 78 C258 69 264 50 269 44 C276 34 280 29 288 23 C289 19 289 14 289 9 C289 4 280 -46 279 -47 C277 -50 271 -50 271 -50 C234 -38 243 -41 232 -39 C228 -39 224 -47 220 -53 C215 -58 223 -63 216 -70 C215 -71 216 -75 216 -75 C216 -75 218 -75 220 -73 C222 -70 225 -71 225 -71 C253 -80 286 -74 288 -74 C290 -73 303 -81 303 -81 C315 -88 328 -94 340 -101 C343 -103 346 -110 351 -105 C353 -101 348 -97 348 -97 C347 -94 329 -82 317 -74 C311 -66 306 -58 298 -53 C297 -48 305 -27 307 -19 C309 -10 309 7 314 19 C318 25 324 28 334 33 C350 26 364 20 376 17 C382 14 386 14 391 12 C391 9 390 6 390 3 C390 3 387 -16 387 -19 L383 -24 C382 -28 374 -27 374 -27 C362 -22 349 -19 336 -14 C332 -17 328 -24 324 -28 C318 -33 327 -40 320 -45 C318 -46 319 -51 320 -52 C320 -52 321 -52 323 -49 C325 -45 330 -47 330 -47 C356 -56 378 -49 391 -50 L407 -58 C419 -65 431 -71 444 -80 C447 -80 451 -87 454 -83 C456 -78 454 -77 451 -74 C448 -71 433 -59 421 -50 C415 -43 410 -33 402 -28 C401 -26 403 -24 403 -22 C403 -20 410 5 410 5 L410 6 C428 -1 440 -7 446 -11 C461 -23 477 -32 489 -48 C512 -70 531 -90 558 -105 C581 -123 600 -119 607 -114 L607 -114 Z " />
<glyph glyph-name="fi" unicode="&#xfb01;" horiz-adv-x="562" d="M443 47 C436 47 432 51 432 58 C432 67 435 80 440 104 L519 478 L511 478 C475 473 428 467 386 467 L236 467 C239 504 242 534 244 552 C250 609 273 623 308 623 C356 623 435 602 494 566 C514 572 530 591 530 614 C530 659 445 690 379 690 C310 690 256 655 220 598 C193 553 172 510 157 467 L84 467 L65 445 L146 436 C119 350 110 266 103 178 C96 101 96 19 81 -61 C74 -93 57 -112 19 -112 C-4 -112 -36 -103 -54 -94 L-80 -184 C-67 -190 -47 -194 -30 -194 C1 -194 35 -172 85 -105 C141 -29 189 149 216 311 C223 354 228 397 233 435 L347 435 C402 435 414 417 403 369 L341 79 C335 55 331 34 331 20 C331 -1 341 -11 361 -11 C412 -11 483 41 520 86 L514 95 C488 63 463 47 443 47 L443 47 Z " />
<glyph glyph-name="fl" unicode="&#xfb02;" horiz-adv-x="571" d="M454 46 C446 46 442 51 442 59 C442 67 445 79 449 103 L575 689 L567 689 L488 657 C450 672 405 690 359 690 C271 690 198 591 168 491 C166 483 163 475 161 467 L65 445 L65 435 L152 435 C129 345 107 240 103 180 C97 101 95 15 80 -62 C74 -94 56 -114 18 -114 C-4 -114 -35 -104 -53 -95 L-78 -184 C-64 -191 -45 -194 -29 -194 C2 -194 38 -171 86 -105 C143 -27 187 150 216 314 C223 355 230 395 236 435 L350 435 L357 467 L242 467 C249 508 256 550 264 591 C272 631 289 652 316 652 C368 652 432 608 457 574 L351 80 C345 55 341 34 341 20 C341 -1 352 -11 372 -11 C423 -11 492 41 530 85 L524 95 C498 63 473 46 454 46 L454 46 Z " />
</font>
</svg>
