<?xml version="1.0" encoding="UTF-8"?>
<svg xmlns="http://www.w3.org/2000/svg" xmlns:xlink="http://www.w3.org/1999/xlink" version="1.2" >
<font id="Reserva Serif Light Italic">
<font-face  font-family="Reserva Serif" units-per-em="1000" ascent="780" descent="-220" font-style="italic" font-weight="300" font-stretch="normal" slope="-12" cap-height="680" x-height="466" underline-position="-75" underline-thickness="50" />
<missing-glyph  horiz-adv-x="500" d="M410 780 L93 780 L93 -220 L410 -220 L410 780 Z M333 713 L333 680 L267 680 L267 643 L333 643 L333 610 L167 610 L167 643 L233 643 L233 680 L168 680 L168 713 L333 713 Z M267 584 L267 514 L333 514 L333 480 L167 480 L167 584 L267 584 Z M233 550 L200 550 L200 514 L233 514 L233 550 Z M333 453 L333 420 L267 420 L267 350 L167 350 L167 383 L233 383 L233 420 L167 420 L167 453 L333 453 Z M333 393 L333 293 L167 293 L167 327 L300 327 L300 393 L333 393 Z M333 271 L333 158 L167 158 L167 271 L200 271 L200 191 L300 191 L300 238 L267 238 L267 215 L233 215 L233 271 L333 271 Z M333 98 L333 -15 L167 -15 L167 98 L333 98 Z M300 65 L200 65 L200 18 L300 18 L300 65 Z M333 -38 L333 -71 L301 -71 L231 -118 L333 -118 L333 -151 L167 -151 L167 -118 L237 -71 L167 -71 L167 -38 L333 -38 Z " />
<glyph glyph-name="NULL" d="" />
<glyph glyph-name="CR" unicode="&#xd;" horiz-adv-x="250" d="" />
<glyph glyph-name="space" unicode="&#x20;" horiz-adv-x="175" d="" />
<glyph glyph-name="exclam" unicode="&#x21;" horiz-adv-x="249" d="M106 193 L127 193 L266 670 L268 680 L172 680 L170 670 L106 193 Z M78 -10 C115 -10 145 22 145 61 C145 96 124 119 95 119 C58 119 28 85 28 46 C28 9 49 -10 78 -10 L78 -10 Z " />
<glyph glyph-name="quotedbl" unicode="&#x22;" horiz-adv-x="408" d="M139 414 L153 414 L256 640 L265 680 L169 680 L161 640 L139 414 Z M303 414 L317 414 L421 640 L430 680 L334 680 L326 640 L303 414 Z " />
<glyph glyph-name="numbersign" unicode="&#x23;" horiz-adv-x="488" d="M536 443 L543 478 L431 478 L509 680 L471 680 L393 478 L257 478 L335 680 L297 680 L219 478 L77 478 L70 443 L206 443 L131 248 L0 248 L-7 213 L118 213 L36 0 L73 0 L155 213 L291 213 L209 0 L248 0 L330 213 L464 213 L471 248 L343 248 L418 443 L536 443 Z M305 248 L169 248 L244 443 L380 443 L305 248 Z " />
<glyph glyph-name="dollar" unicode="&#x24;" horiz-adv-x="580" d="M394 655 L423 789 L394 789 L365 654 C265 647 173 575 173 473 C173 320 405 319 405 191 C405 118 333 51 253 52 C175 53 124 84 104 201 L94 201 L69 52 C99 40 155 28 210 26 L182 -105 L212 -105 L240 25 C362 28 474 122 474 229 C474 376 241 382 241 509 C241 583 298 627 359 627 C428 627 465 587 489 489 L498 489 L518 628 C489 644 439 653 394 655 L394 655 Z " />
<glyph glyph-name="percent" unicode="&#x25;" horiz-adv-x="705" d="M175 307 C269 307 373 437 373 554 C373 624 337 687 269 687 C174 687 78 561 78 438 C78 363 115 307 175 307 L175 307 Z M579 680 L150 0 L173 0 L602 680 L579 680 Z M194 324 C163 324 149 367 149 424 C149 546 198 668 247 668 C281 668 298 621 298 560 C298 443 245 324 194 324 L194 324 Z M482 -7 C576 -7 680 123 680 241 C680 310 644 373 576 373 C482 373 385 247 385 124 C385 49 422 -7 482 -7 L482 -7 Z M502 10 C470 10 456 53 456 110 C456 232 505 354 554 354 C588 354 606 307 606 246 C606 129 552 10 502 10 L502 10 Z " />
<glyph glyph-name="ampersand" unicode="&#x26;" horiz-adv-x="852" d="M804 510 C777 510 757 496 732 468 C799 446 838 393 838 375 C838 369 833 361 825 361 C793 361 619 469 561 469 C531 469 474 430 474 375 C474 332 494 301 517 301 C537 301 565 321 585 346 C528 354 499 367 499 390 C499 403 509 420 524 420 C554 420 624 376 685 344 C449 92 271 37 169 37 C124 37 102 68 102 136 C102 157 105 181 109 205 C404 305 572 528 572 661 C572 733 524 784 469 784 C439 784 422 776 409 767 C452 746 491 704 491 631 C491 542 451 459 373 387 C374 393 374 398 374 403 C374 444 343 476 304 476 C187 476 14 281 14 108 C14 38 40 -11 111 -11 C289 -11 488 114 703 335 C732 320 757 310 774 310 C816 310 872 382 872 431 C872 481 843 510 804 510 L804 510 Z M266 434 C297 434 310 413 310 389 C310 340 275 294 114 227 C139 329 200 434 266 434 L266 434 Z " />
<glyph glyph-name="quotesingle" unicode="&#x27;" horiz-adv-x="243" d="M139 414 L153 414 L256 640 L265 680 L169 680 L161 640 L139 414 Z " />
<glyph glyph-name="parenleft" unicode="&#x28;" horiz-adv-x="279" d="M155 -99 L168 -99 C133 -3 116 93 116 183 C116 390 203 570 334 680 L321 680 C160 591 49 405 49 210 C49 106 81 -2 155 -99 L155 -99 Z " />
<glyph glyph-name="parenright" unicode="&#x29;" horiz-adv-x="278" d="M148 680 L135 680 C170 583 187 488 187 397 C187 190 100 11 -31 -99 L-18 -99 C142 -10 254 175 254 371 C254 474 222 582 148 680 L148 680 Z " />
<glyph glyph-name="asterisk" unicode="&#x2a;" horiz-adv-x="364" d="M149 364 L153 369 L245 505 L280 369 L283 363 L352 407 L351 412 L257 514 L403 531 L409 533 L400 603 L395 601 L255 527 L311 674 L313 680 L239 680 L237 674 L242 527 L123 602 L118 604 L82 533 L88 531 L235 514 L100 412 L95 407 L149 364 Z " />
<glyph glyph-name="plus" unicode="&#x2b;" horiz-adv-x="580" d="M513 257 L309 257 L357 486 L330 486 L281 257 L77 257 L72 230 L275 230 L227 3 L255 3 L303 230 L508 230 L513 257 Z " />
<glyph glyph-name="comma" unicode="&#x2c;" horiz-adv-x="193" d="M-58 -152 C63 -87 122 -18 122 46 C122 84 102 112 62 112 C29 112 -3 83 -16 47 C17 39 42 19 42 -12 C42 -70 -33 -127 -60 -147 L-58 -152 Z " />
<glyph glyph-name="hyphen" unicode="&#x2d;" horiz-adv-x="287" d="M220 201 C234 201 242 216 255 271 C251 265 242 263 231 263 C197 263 95 267 74 267 C57 267 48 252 34 198 C43 203 51 206 64 206 C101 206 203 201 220 201 L220 201 Z " />
<glyph glyph-name="period" unicode="&#x2e;" horiz-adv-x="213" d="M60 -10 C97 -10 127 22 127 61 C127 96 106 119 77 119 C39 119 10 85 10 46 C10 9 31 -10 60 -10 L60 -10 Z " />
<glyph glyph-name="slash" unicode="&#x2f;" horiz-adv-x="291" d="M-105 -117 L-67 -117 L404 680 L366 680 L-105 -117 Z " />
<glyph glyph-name="zero" unicode="0" horiz-adv-x="580" d="M226 -15 C374 -15 544 227 544 444 C544 581 493 690 392 690 C241 690 80 451 80 225 C80 81 135 -15 226 -15 L226 -15 Z M270 20 C196 20 168 130 168 246 C168 448 256 654 342 654 C422 654 454 536 454 416 C454 211 358 20 270 20 L270 20 Z " />
<glyph glyph-name="one" unicode="1" horiz-adv-x="580" d="M305 66 L435 682 L429 685 L162 533 L164 528 L337 579 L228 66 C220 31 201 15 67 10 L65 0 L429 0 L431 10 C303 15 295 22 305 66 L305 66 Z " />
<glyph glyph-name="two" unicode="2" horiz-adv-x="580" d="M355 69 L118 69 L234 178 C370 305 539 424 539 565 C539 635 481 691 389 691 C297 691 208 619 150 544 L155 541 C220 597 288 627 350 627 C407 627 450 591 450 537 C450 442 342 336 224 209 L36 8 L45 0 L425 0 L473 125 L469 125 C432 81 394 69 355 69 L355 69 Z " />
<glyph glyph-name="three" unicode="3" horiz-adv-x="580" d="M349 388 C404 413 531 471 531 577 C531 644 481 690 405 690 C307 690 229 631 171 541 L174 537 C238 600 293 631 354 631 C406 631 448 597 448 543 C448 475 379 408 245 357 L243 349 C366 332 414 288 414 206 C414 109 311 19 172 10 L130 135 C97 128 68 103 47 77 C52 53 72 30 92 16 C111 2 157 -10 191 -10 C347 -10 496 112 496 235 C496 311 439 370 349 388 L349 388 Z " />
<glyph glyph-name="four" unicode="4" horiz-adv-x="580" d="M399 155 L512 155 L524 215 L411 215 L508 681 L490 681 L34 161 L37 155 L312 155 L296 80 C287 33 281 19 195 10 L193 0 L463 0 L465 10 C376 18 374 28 383 80 L399 155 Z M110 215 L393 536 L325 215 L110 215 Z " />
<glyph glyph-name="five" unicode="5" horiz-adv-x="580" d="M520 601 L560 716 L556 716 C537 691 519 681 472 681 L265 681 L157 393 L158 392 C328 355 394 303 394 214 C394 108 295 16 182 9 L136 133 C92 126 62 102 51 79 C52 53 65 33 87 19 C115 0 159 -10 202 -10 C324 -10 485 116 485 238 C485 350 398 422 212 464 L261 601 L520 601 Z " />
<glyph glyph-name="six" unicode="6" horiz-adv-x="580" d="M248 -10 C371 -10 517 131 517 262 C517 343 464 409 391 409 C347 409 294 381 207 315 L212 305 C269 343 313 354 337 354 C392 354 426 306 426 234 C426 123 343 19 257 19 C192 19 156 83 156 196 C156 397 296 589 526 682 L520 695 C266 607 65 379 65 178 C65 63 137 -10 248 -10 L248 -10 Z " />
<glyph glyph-name="seven" unicode="7" horiz-adv-x="580" d="M117 0 L229 0 L590 675 L585 680 L203 680 L145 526 L155 526 C196 601 219 601 269 601 L539 601 C327 252 235 131 116 2 L117 0 Z " />
<glyph glyph-name="eight" unicode="8" horiz-adv-x="580" d="M381 379 C478 418 546 495 546 570 C546 639 486 691 395 691 C269 691 174 597 174 503 C174 436 217 396 267 360 C146 323 62 241 62 143 C62 41 145 -10 239 -10 C371 -10 493 89 493 216 C493 293 439 338 381 379 L381 379 Z M368 667 C430 667 472 621 472 555 C472 497 432 437 366 390 C306 432 248 473 248 543 C248 618 304 667 368 667 L368 667 Z M263 18 C184 19 140 66 140 148 C140 234 195 307 285 348 C350 304 421 262 421 176 C421 89 343 17 263 18 L263 18 Z " />
<glyph glyph-name="nine" unicode="9" horiz-adv-x="580" d="M380 696 C257 696 111 555 111 424 C111 343 165 277 238 277 C281 277 334 305 422 371 L416 381 C360 343 315 332 291 332 C236 332 203 380 203 452 C203 563 285 667 372 667 C436 667 472 603 472 490 C472 289 332 97 102 4 L108 -9 C362 79 563 307 563 508 C563 623 492 696 380 696 L380 696 Z " />
<glyph glyph-name="colon" unicode="&#x3a;" horiz-adv-x="214" d="M136 347 C173 347 203 379 203 418 C203 453 182 476 153 476 C116 476 86 442 86 402 C86 365 107 347 136 347 L136 347 Z M61 -10 C98 -10 128 22 128 61 C128 96 107 119 78 119 C40 119 11 85 11 46 C11 9 32 -10 61 -10 L61 -10 Z " />
<glyph glyph-name="semicolon" unicode="&#x3b;" horiz-adv-x="193" d="M107 331 C144 331 174 363 174 402 C174 437 153 460 124 460 C87 460 57 426 57 387 C57 350 78 331 107 331 L107 331 Z M-58 -152 C63 -87 122 -18 122 46 C122 84 102 112 62 112 C29 112 -3 83 -16 47 C17 39 42 19 42 -12 C42 -70 -33 -127 -60 -147 L-58 -152 Z " />
<glyph glyph-name="less" unicode="&#x3c;" horiz-adv-x="580" d="M517 423 L515 451 L112 274 L105 244 L433 66 L446 90 L145 257 L517 423 Z " />
<glyph glyph-name="equal" unicode="&#x3d;" horiz-adv-x="580" d="M101 359 L534 359 L539 386 L106 386 L101 359 Z M54 139 L487 139 L492 166 L59 166 L54 139 Z " />
<glyph glyph-name="greater" unicode="&#x3e;" horiz-adv-x="580" d="M159 451 L145 428 L447 261 L74 95 L76 66 L479 244 L486 274 L159 451 Z " />
<glyph glyph-name="question" unicode="&#x3f;" horiz-adv-x="433" d="M485 571 C485 646 420 694 312 694 C206 694 110 640 110 580 C110 555 131 541 169 541 C187 541 209 544 232 552 L230 665 C341 670 394 630 394 557 C394 458 266 402 169 345 L164 339 L150 193 L172 193 L213 317 C349 381 485 454 485 571 L485 571 Z M139 119 C102 119 72 85 72 46 C72 9 93 -10 122 -10 C160 -10 189 22 189 61 C189 96 169 119 139 119 L139 119 Z " />
<glyph glyph-name="at" unicode="&#x40;" horiz-adv-x="858" d="M341 -142 C434 -142 534 -104 602 -43 L597 -33 C539 -76 430 -110 355 -110 C219 -110 126 -27 126 134 C126 350 321 561 510 561 C642 561 737 469 737 325 C737 203 671 74 574 74 C543 74 525 80 525 98 C525 114 531 139 544 178 L622 412 L612 412 L557 368 C540 392 513 425 469 425 C369 425 239 263 239 126 C239 75 257 51 299 51 C376 51 473 133 512 265 L517 265 C476 170 460 115 460 94 C460 59 493 41 542 41 C678 41 798 180 798 336 C798 485 684 592 522 592 C294 592 61 367 61 128 C61 -52 177 -142 341 -142 L341 -142 Z M347 99 C325 99 318 114 318 147 C318 248 384 394 445 394 C477 394 505 353 519 315 C474 172 398 99 347 99 L347 99 Z " />
<glyph glyph-name="A" unicode="A" horiz-adv-x="628" d="M512 66 L420 693 L387 687 L93 145 C46 56 25 21 -46 10 L-48 0 L147 0 L149 10 C109 14 83 23 83 44 C83 62 111 116 131 153 L207 296 L393 296 L415 119 C417 104 419 87 419 72 C419 30 404 16 349 10 L347 0 L576 0 L578 10 C522 19 516 40 512 66 L512 66 Z M222 325 L359 582 L390 325 L222 325 Z " />
<glyph glyph-name="B" unicode="B" horiz-adv-x="566" d="M-10 0 L218 0 C370 0 519 96 519 233 C519 304 463 367 371 374 C474 398 548 465 548 551 C548 626 487 680 356 680 L137 680 L134 670 C202 662 204 654 192 599 L80 81 C69 28 65 19 -8 10 L-10 0 Z M308 379 L231 379 L279 605 C286 638 293 654 338 654 C414 654 455 613 455 548 C455 460 376 379 308 379 L308 379 Z M198 27 C172 27 158 38 164 66 L225 351 L272 351 C375 351 434 302 434 226 C434 101 335 27 198 27 L198 27 Z " />
<glyph glyph-name="C" unicode="C" horiz-adv-x="676" d="M333 -10 C400 -10 497 11 565 50 L607 227 L593 227 C535 78 439 16 355 16 C237 16 153 119 153 269 C153 517 278 650 446 650 C526 650 613 616 642 507 L656 507 L672 649 C633 672 560 690 499 690 C265 690 60 497 60 258 C60 97 158 -10 333 -10 L333 -10 Z " />
<glyph glyph-name="D" unicode="D" horiz-adv-x="701" d="M-10 0 L223 0 C485 0 686 200 686 413 C686 566 581 680 363 680 L137 680 L134 670 C201 661 201 655 189 599 L79 81 C68 28 64 19 -8 10 L-10 0 Z M249 28 C175 28 160 51 171 105 L276 594 C285 639 301 654 345 654 C508 654 588 555 588 410 C588 191 437 28 249 28 L249 28 Z " />
<glyph glyph-name="E" unicode="E" horiz-adv-x="549" d="M135 680 L132 670 C206 660 203 647 193 599 L83 81 C73 33 69 19 -8 10 L-10 0 L425 0 L495 207 L485 207 L449 148 C409 81 369 25 246 24 C164 23 161 39 171 86 L228 353 L295 350 C342 348 370 340 374 244 L387 244 L432 467 L422 467 C391 395 352 378 295 376 L232 373 L292 651 L384 648 C483 645 494 617 513 567 L533 517 L543 517 L558 680 L135 680 Z " />
<glyph glyph-name="F" unicode="F" horiz-adv-x="534" d="M135 680 L132 670 C215 661 212 652 201 599 L93 92 C81 34 79 23 -8 10 L-10 0 L261 0 L263 10 C165 23 167 33 180 91 L232 334 L282 333 C363 332 384 321 381 228 L391 228 L436 450 L428 450 C393 358 336 359 286 357 L237 355 L300 651 L389 648 C492 645 514 608 525 568 L540 517 L549 517 L565 680 L135 680 Z " />
<glyph glyph-name="G" unicode="G" horiz-adv-x="665" d="M427 258 C505 248 504 229 493 176 L469 62 C436 34 396 18 346 18 C222 18 150 113 150 273 C150 480 291 651 452 651 C558 651 607 605 635 496 L645 496 L662 666 C627 680 563 690 509 690 C268 690 61 489 61 264 C61 125 157 -10 333 -10 C415 -10 519 21 555 48 L585 187 C596 238 597 249 647 258 L649 268 L429 268 L427 258 Z " />
<glyph glyph-name="H" unicode="H" horiz-adv-x="727" d="M533 680 L530 670 C608 660 605 642 596 599 L545 359 L235 359 L286 599 C295 643 302 659 381 670 L384 680 L135 680 L132 670 C214 661 210 651 199 599 L89 81 C78 29 77 19 -8 10 L-10 0 L239 0 L241 10 C168 20 166 32 176 81 L228 327 L538 327 L486 81 C477 38 470 19 390 10 L388 0 L638 0 L640 10 C560 19 562 30 573 81 L683 599 C694 651 699 661 780 670 L783 680 L533 680 Z " />
<glyph glyph-name="I" unicode="I" horiz-adv-x="327" d="M-2 0 L229 0 L231 10 C166 18 163 25 174 81 L284 599 C296 655 304 662 371 670 L374 680 L143 680 L140 670 C211 661 208 651 197 599 L87 81 C76 28 72 19 0 10 L-2 0 Z " />
<glyph glyph-name="J" unicode="J" horiz-adv-x="468" d="M133 -10 C220 -10 315 38 334 125 L435 599 C447 655 453 661 526 670 L528 680 L284 680 L282 670 C361 661 360 653 348 599 L242 102 C229 43 203 11 162 11 C111 11 64 39 31 180 L23 180 L-3 30 C28 7 63 -10 133 -10 L133 -10 Z " />
<glyph glyph-name="K" unicode="K" horiz-adv-x="645" d="M702 670 L704 680 L483 680 L481 670 C512 665 528 657 529 644 C529 621 466 565 442 545 L222 349 L275 599 C287 655 296 662 363 670 L366 680 L135 680 L132 670 C203 661 200 651 189 599 L79 81 C68 28 64 19 -8 10 L-10 0 L221 0 L223 10 C158 18 155 25 165 81 L221 343 L361 113 C385 75 396 58 396 44 C396 27 373 18 323 9 L321 1 L577 0 L579 11 C531 21 503 63 442 161 L296 390 L536 584 C606 640 641 659 702 670 L702 670 Z " />
<glyph glyph-name="L" unicode="L" horiz-adv-x="559" d="M-10 0 L438 0 L512 215 L501 215 L469 164 C415 80 373 29 230 27 C167 26 160 37 168 77 L279 599 C290 652 295 661 369 670 L372 680 L135 680 L132 670 C206 661 203 651 192 599 L82 81 C71 28 67 19 -8 10 L-10 0 Z " />
<glyph glyph-name="M" unicode="M" horiz-adv-x="812" d="M675 680 L382 153 L318 680 L155 680 L152 670 C224 656 223 629 212 591 L62 78 C49 33 49 20 -42 10 L-44 0 L166 0 L168 10 C82 19 80 29 94 78 L243 601 L324 -7 L332 -7 L665 589 L596 92 C587 28 581 21 493 10 L491 0 L758 0 L760 10 C679 20 677 36 684 92 L747 590 C754 643 765 659 842 670 L845 680 L675 680 Z " />
<glyph glyph-name="N" unicode="N" horiz-adv-x="671" d="M534 680 L531 670 C612 654 617 626 602 559 L515 147 L244 680 L129 680 L126 670 C157 644 173 615 188 585 L89 121 C71 36 69 24 -25 10 L-27 0 L200 0 L200 10 C100 24 102 37 121 121 L210 541 L493 -12 L512 -12 L634 559 C644 606 656 657 737 670 L740 680 L534 680 Z " />
<glyph glyph-name="O" unicode="O" horiz-adv-x="718" d="M300 -10 C501 -10 703 210 703 413 C703 578 601 689 457 689 C237 689 60 466 60 263 C60 100 166 -10 300 -10 L300 -10 Z M356 34 C227 34 153 135 153 296 C153 483 275 646 413 646 C541 646 613 532 613 382 C613 198 490 34 356 34 L356 34 Z " />
<glyph glyph-name="P" unicode="P" horiz-adv-x="522" d="M346 680 L135 680 L132 670 C203 661 198 647 188 599 L78 81 C67 28 63 19 -8 10 L-10 0 L225 0 L227 10 C150 19 153 28 164 81 L210 298 C230 294 257 292 285 292 C410 292 551 398 551 524 C551 625 474 680 346 680 L346 680 Z M284 326 C264 326 237 329 218 336 L275 605 C281 636 288 654 343 654 C415 654 460 600 460 520 C460 409 387 326 284 326 L284 326 Z " />
<glyph glyph-name="Q" unicode="Q" horiz-adv-x="720" d="M623 -117 C586 -117 469 -57 313 -10 C509 -1 703 214 703 413 C703 578 601 689 457 689 C237 689 60 466 60 263 C60 122 139 20 248 -4 C368 -57 516 -199 562 -199 C585 -199 599 -190 673 -97 L667 -91 C637 -114 632 -117 623 -117 L623 -117 Z M153 296 C153 483 275 646 413 646 C541 646 613 532 613 382 C613 198 490 34 356 34 C227 34 153 135 153 296 L153 296 Z " />
<glyph glyph-name="R" unicode="R" horiz-adv-x="612" d="M436 159 L367 332 C469 366 559 451 559 539 C559 625 488 680 352 680 L135 680 L132 670 C214 661 211 650 200 599 L90 81 C79 30 77 19 -8 10 L-10 0 L238 0 L240 10 C164 19 166 29 177 81 L229 322 C241 320 261 317 279 317 L283 317 L351 125 C379 48 421 0 507 0 L546 0 L548 10 C487 33 466 85 436 159 L436 159 Z M289 605 C297 641 308 654 352 654 C425 654 464 605 464 532 C464 429 390 349 301 349 C283 349 258 354 237 362 L289 605 Z " />
<glyph glyph-name="S" unicode="S" horiz-adv-x="517" d="M190 -10 C313 -10 449 86 449 203 C449 278 391 332 316 389 C246 441 210 471 210 540 C210 611 261 661 329 661 C404 661 445 616 468 505 L478 505 L499 664 C465 680 410 690 360 690 C245 690 133 612 133 504 C133 431 180 389 255 332 C321 282 370 245 370 168 C370 90 293 21 207 22 C126 23 81 59 60 185 L50 185 L22 20 C58 4 129 -10 190 -10 L190 -10 Z " />
<glyph glyph-name="T" unicode="T" horiz-adv-x="596" d="M627 695 L586 680 L200 680 L165 695 L154 695 L99 508 L109 508 L167 601 C190 638 226 655 277 655 L342 655 L220 81 C210 32 203 20 115 10 L113 0 L379 0 L381 10 C293 20 296 32 306 81 L428 655 L499 655 C556 655 579 635 585 601 L604 508 L614 508 L638 695 L627 695 Z " />
<glyph glyph-name="U" unicode="U" horiz-adv-x="638" d="M284 -10 C417 -10 506 75 536 216 L618 601 C629 651 631 661 703 670 L705 680 L528 680 L526 670 C570 665 583 658 583 637 C583 630 582 622 580 614 L503 224 C479 103 409 38 308 38 C212 38 174 78 174 147 C174 163 176 180 180 199 L266 599 C277 652 281 662 350 670 L352 680 L124 680 L122 670 C171 664 185 657 185 636 C185 627 182 615 179 599 L93 199 C89 179 87 160 87 143 C87 42 160 -10 284 -10 L284 -10 Z " />
<glyph glyph-name="V" unicode="V" horiz-adv-x="632" d="M506 680 L504 670 C553 662 572 640 572 613 C572 583 543 524 529 498 L322 105 L261 560 C259 575 257 591 257 602 C257 645 285 668 337 670 L339 680 L95 680 L93 670 C146 666 161 653 167 615 L258 -14 L289 -8 L578 526 C624 612 658 638 725 670 L727 680 L506 680 Z " />
<glyph glyph-name="W" unicode="W" horiz-adv-x="943" d="M827 680 L824 665 C862 663 886 646 886 614 C886 583 847 506 808 431 L656 139 L599 684 L576 681 L273 137 L249 517 C248 542 248 557 248 570 C248 632 273 658 346 665 L349 680 L91 680 L88 665 C152 650 156 617 161 574 L215 -9 L232 -6 L535 540 L591 -9 L609 -6 L915 559 C953 629 987 652 1037 665 L1040 680 L827 680 Z " />
<glyph glyph-name="X" unicode="X" horiz-adv-x="661" d="M489 680 L486 667 C528 662 550 653 550 641 C550 619 502 561 446 494 L373 405 L339 488 C313 553 296 599 296 627 C296 651 316 661 370 667 L373 680 L110 680 L107 667 C170 657 187 637 203 598 L307 339 L84 77 C55 42 35 32 -30 13 L-33 0 L175 0 L178 13 C140 17 123 27 123 43 C123 65 155 103 206 168 L319 310 L377 166 C390 133 404 90 404 58 C404 29 390 20 342 12 L339 0 L588 0 L591 13 C539 17 515 49 490 113 L383 378 L573 594 C612 638 633 654 695 667 L698 680 L489 680 Z " />
<glyph glyph-name="Y" unicode="Y" horiz-adv-x="602" d="M482 680 L480 670 C523 664 546 654 546 634 C546 607 488 522 458 476 L348 306 L304 456 C281 534 268 591 268 622 C268 656 288 665 354 670 L356 680 L106 680 L104 670 C147 666 161 645 177 595 L271 278 L229 81 C219 33 213 19 143 10 L141 0 L376 0 L378 10 C302 19 304 29 315 81 L356 278 L561 567 C608 633 624 659 680 670 L682 680 L482 680 Z " />
<glyph glyph-name="Z" unicode="Z" horiz-adv-x="553" d="M294 35 L90 14 L587 675 L583 680 L230 680 L197 695 L188 695 L122 494 L132 494 C190 623 220 632 281 640 L485 665 L-8 5 L-4 0 L376 0 L409 -15 L418 -15 L495 195 L485 195 C411 53 361 42 294 35 L294 35 Z " />
<glyph glyph-name="bracketleft" unicode="&#x5b;" horiz-adv-x="276" d="M327 664 L331 680 L180 680 L14 -99 L165 -99 L168 -83 L82 -83 L242 664 L327 664 Z " />
<glyph glyph-name="backslash" unicode="&#x5c;" horiz-adv-x="234" d="M223 -118 L261 -118 L50 680 L12 680 L223 -118 Z " />
<glyph glyph-name="bracketright" unicode="&#x5d;" horiz-adv-x="276" d="M286 680 L135 680 L132 664 L217 664 L58 -83 L-27 -83 L-31 -99 L120 -99 L286 680 Z " />
<glyph glyph-name="asciicircum" unicode="&#x5e;" horiz-adv-x="580" d="M520 216 L341 466 L314 466 L53 214 L75 195 L325 439 L499 195 L520 216 Z " />
<glyph glyph-name="underscore" unicode="&#x5f;" horiz-adv-x="733" d="M571 -147 L578 -112 L8 -112 L1 -147 L571 -147 Z " />
<glyph glyph-name="grave" unicode="&#x60;" horiz-adv-x="342" d="M363 524 L366 535 L365 538 C282 589 221 629 157 683 C134 673 125 648 125 619 C188 583 264 548 360 524 L363 524 Z " />
<glyph glyph-name="a" unicode="a" horiz-adv-x="490" d="M441 92 C414 58 388 40 368 40 C361 40 357 44 357 51 C357 59 360 72 365 98 L445 466 L435 466 L385 409 C370 443 346 473 311 473 C184 473 21 259 21 74 C21 26 40 -10 78 -10 C136 -10 259 93 323 255 L286 79 C281 58 277 38 277 25 C277 4 288 -7 308 -7 C361 -7 419 44 447 83 L441 92 Z M127 50 C111 50 103 62 103 96 C103 249 199 445 279 445 C308 445 334 408 337 337 C269 157 162 50 127 50 L127 50 Z " />
<glyph glyph-name="b" unicode="b" horiz-adv-x="455" d="M130 -11 C284 -11 437 203 437 360 C437 427 407 473 349 473 C291 473 231 441 147 260 L144 260 L234 690 L225 690 L96 655 L94 644 C140 631 143 620 137 584 L55 199 C41 129 38 106 38 86 C38 13 75 -11 130 -11 L130 -11 Z M176 25 C134 25 109 43 109 93 C109 117 117 161 130 199 C231 395 284 430 312 430 C342 430 354 394 354 347 C354 215 286 25 176 25 L176 25 Z " />
<glyph glyph-name="c" unicode="c" horiz-adv-x="368" d="M102 -10 C145 -10 240 28 303 86 L300 94 C233 51 189 38 156 38 C123 38 104 75 104 141 C104 309 171 436 213 436 C260 436 308 412 348 375 L374 449 C351 464 316 477 274 477 C154 477 19 292 19 99 C19 27 52 -10 102 -10 L102 -10 Z " />
<glyph glyph-name="d" unicode="d" horiz-adv-x="489" d="M366 36 C359 36 355 40 355 47 C355 55 358 68 363 93 L489 680 L484 680 L335 630 L333 620 C372 615 385 601 385 577 C385 568 384 560 378 532 L360 442 C342 462 319 476 289 476 C171 476 20 238 20 70 C20 22 39 -14 77 -14 C134 -14 255 87 320 250 L284 75 C279 54 275 34 275 21 C275 0 286 -11 306 -11 C358 -11 417 40 445 79 L439 88 C411 53 386 36 366 36 L366 36 Z M126 46 C110 46 102 57 102 91 C102 227 187 448 258 448 C298 448 332 409 335 334 C267 153 161 46 126 46 L126 46 Z " />
<glyph glyph-name="e" unicode="e" horiz-adv-x="402" d="M182 43 C134 43 111 81 111 153 C111 165 112 176 113 188 C301 262 394 363 394 426 C394 460 369 477 337 477 C187 477 26 278 26 105 C26 25 65 -10 117 -10 C160 -10 254 29 354 117 L351 129 C274 65 216 43 182 43 L182 43 Z M268 435 C300 435 314 415 314 386 C314 343 265 278 115 207 C134 329 212 435 268 435 L268 435 Z " />
<glyph glyph-name="f" unicode="f" horiz-adv-x="343" d="M288 625 C317 625 363 617 399 607 L422 680 C405 685 371 690 338 690 C297 690 260 658 214 577 C195 545 178 507 162 465 L57 445 L55 435 L152 435 C138 393 126 347 117 296 C98 194 89 26 65 -73 C59 -97 42 -118 7 -118 C-16 -118 -41 -110 -55 -103 L-79 -180 C-67 -186 -47 -190 -31 -190 C-1 -190 31 -170 76 -107 C128 -33 177 143 211 322 C218 359 224 398 229 435 L361 435 L368 466 L233 466 C239 507 243 545 247 578 C251 611 264 625 288 625 L288 625 Z " />
<glyph glyph-name="g" unicode="g" horiz-adv-x="456" d="M435 466 L386 410 C371 445 346 476 311 476 C184 476 21 258 21 69 C21 21 40 -15 78 -15 C135 -15 259 89 323 255 L324 255 L286 73 C271 2 260 -45 234 -75 C209 -106 169 -118 116 -118 C81 -118 36 -110 4 -97 L-16 -168 C5 -180 47 -188 78 -188 C146 -188 209 -153 266 -83 C317 -19 354 36 365 91 L445 466 L435 466 Z M127 45 C111 45 103 57 103 91 C103 247 199 448 280 448 C309 448 334 411 337 337 C269 154 161 45 127 45 L127 45 Z " />
<glyph glyph-name="h" unicode="h" horiz-adv-x="504" d="M453 88 C426 53 401 36 380 36 C374 36 370 40 370 47 C370 55 373 68 378 93 L426 320 C438 381 440 403 440 418 C440 457 419 477 373 477 C310 477 227 432 166 268 L165 268 L165 269 L166 269 C193 401 224 542 253 682 L247 682 L106 632 L104 622 C141 617 154 604 154 579 C154 572 153 564 147 534 L33 0 L108 0 L154 216 L155 216 C217 361 284 426 340 426 C356 426 363 418 363 399 C363 392 363 383 360 371 L298 75 C293 54 289 34 289 21 C289 0 300 -11 320 -11 C373 -11 432 40 459 79 L453 88 Z " />
<glyph glyph-name="i" unicode="i" horiz-adv-x="253" d="M186 578 C216 578 243 601 243 637 C243 672 221 689 191 689 C159 689 134 669 134 629 C134 595 157 578 186 578 L186 578 Z M69 -11 C121 -11 180 40 208 79 L202 88 C175 53 150 36 129 36 C122 36 118 40 118 47 C118 55 121 68 126 93 L208 477 L200 477 L65 443 L63 431 C114 419 119 410 111 374 L46 75 C42 54 38 34 38 21 C38 0 49 -11 69 -11 L69 -11 Z " />
<glyph glyph-name="j" unicode="j" horiz-adv-x="247" d="M181 578 C211 578 238 601 238 637 C238 672 216 689 186 689 C154 689 129 669 129 629 C129 595 153 578 181 578 L181 578 Z M-74 -196 L26 -131 C66 -106 101 -75 112 -24 L218 477 L210 477 L76 442 L73 431 C131 417 128 409 121 373 L33 -41 C23 -87 8 -121 -80 -179 L-74 -196 Z " />
<glyph glyph-name="k" unicode="k" horiz-adv-x="465" d="M442 72 C419 57 379 40 369 40 C356 40 353 55 337 82 L260 220 C373 281 422 362 422 425 C422 454 403 472 373 472 C320 472 234 423 168 293 L253 690 L245 690 L111 656 L109 645 C166 631 163 623 155 587 L29 0 L105 0 L142 170 C161 176 180 183 197 190 L268 55 C299 -3 301 -9 325 -9 C344 -9 374 6 448 59 L442 72 Z M155 231 C215 354 271 418 315 418 C335 418 346 402 346 379 C346 309 299 246 146 189 L155 231 Z " />
<glyph glyph-name="l" unicode="l" horiz-adv-x="251" d="M68 -11 C120 -11 179 40 207 79 L201 88 C173 54 148 36 128 36 C121 36 117 40 117 47 C117 55 120 68 125 94 L253 690 L245 690 L111 656 L109 645 C149 635 159 628 159 612 C159 605 157 598 155 587 L45 76 C41 54 37 34 37 21 C37 0 48 -11 68 -11 L68 -11 Z " />
<glyph glyph-name="m" unicode="m" horiz-adv-x="758" d="M707 88 C679 53 654 36 633 36 C627 36 623 40 623 47 C623 56 627 74 631 93 L679 320 C691 378 692 403 692 418 C692 457 672 477 626 477 C562 477 474 423 417 269 L428 320 C436 356 441 387 441 411 C441 454 424 477 374 477 C312 477 225 423 167 268 L166 268 L166 269 C171 291 207 457 212 475 L206 475 L62 425 L60 415 C98 409 111 395 111 372 C111 363 110 354 104 326 L34 0 L109 0 L155 216 L156 216 C219 361 286 426 338 426 C357 426 365 412 365 390 C365 381 364 371 362 361 L286 0 L361 0 L406 217 C469 361 536 426 588 426 C610 426 617 415 617 395 C617 386 616 375 613 361 L553 75 C548 52 544 34 544 21 C544 0 556 -11 576 -11 C630 -11 686 40 713 79 L707 88 Z " />
<glyph glyph-name="n" unicode="n" horiz-adv-x="507" d="M456 88 C428 53 403 36 383 36 C376 36 372 40 372 47 C372 56 376 74 380 93 L428 320 C440 378 442 403 442 418 C442 457 422 477 376 477 C312 477 225 423 167 268 L166 268 L166 269 L167 269 C171 291 207 457 212 475 L206 475 L62 425 L60 415 C98 409 111 395 111 372 C111 363 110 354 104 326 L34 0 L109 0 L155 216 L156 216 C219 360 286 426 338 426 C357 426 368 415 368 398 C368 392 366 380 362 361 L302 75 C297 52 293 34 293 21 C293 0 306 -11 325 -11 C379 -11 435 40 462 79 L456 88 Z " />
<glyph glyph-name="o" unicode="o" horiz-adv-x="433" d="M139 -10 C264 -10 410 181 410 334 C410 420 368 478 288 478 C142 478 26 295 26 144 C26 43 76 -10 139 -10 L139 -10 Z M179 36 C126 36 107 92 107 177 C107 331 174 442 255 442 C304 442 333 395 333 310 C333 191 272 36 179 36 L179 36 Z " />
<glyph glyph-name="p" unicode="p" horiz-adv-x="464" d="M118 -4 C317 78 447 216 447 360 C447 421 405 477 321 477 C285 477 249 468 213 453 L224 508 L151 509 L130 409 C100 391 70 369 38 345 L45 326 C72 344 98 361 123 376 L16 -131 C7 -172 -7 -184 -58 -188 L-60 -198 L144 -198 L146 -188 C90 -183 82 -175 92 -131 L118 -4 Z M287 431 C336 431 364 404 364 349 C364 233 273 102 123 21 L205 415 C232 425 259 431 287 431 L287 431 Z " />
<glyph glyph-name="q" unicode="q" horiz-adv-x="461" d="M319 -127 L445 466 L435 466 L385 409 C371 445 346 476 311 476 C184 476 21 258 21 70 C21 22 40 -14 78 -14 C136 -14 259 89 323 255 L324 255 L241 -135 C234 -169 219 -184 155 -192 L153 -202 L375 -189 L377 -179 C314 -179 310 -169 319 -127 L319 -127 Z M127 46 C111 46 103 57 103 91 C103 248 199 448 279 448 C319 448 336 410 337 337 C269 154 162 46 127 46 L127 46 Z " />
<glyph glyph-name="r" unicode="r" horiz-adv-x="351" d="M34 0 L109 0 L157 221 C182 335 235 406 282 406 C299 406 323 399 346 389 L363 463 C344 471 316 477 296 477 C271 477 237 467 170 307 L168 307 C181 368 195 420 195 475 L189 475 L62 425 L60 415 C98 409 111 395 111 372 C111 363 110 354 104 326 L34 0 Z " />
<glyph glyph-name="s" unicode="s" horiz-adv-x="367" d="M106 -11 C210 -11 310 81 310 155 C310 214 266 243 220 277 C164 319 134 336 134 380 C134 413 162 442 205 442 C256 442 300 418 334 381 L365 437 C345 457 295 477 248 477 C170 477 79 417 79 335 C79 280 121 251 164 222 C225 180 253 154 253 107 C253 67 213 32 164 32 C114 32 56 58 17 101 L-9 31 C16 6 52 -11 106 -11 L106 -11 Z " />
<glyph glyph-name="t" unicode="t" horiz-adv-x="359" d="M233 429 L361 429 L369 466 L242 466 L268 577 L260 577 L96 435 L94 429 L159 429 L73 75 C68 53 64 34 64 21 C64 0 75 -11 95 -11 C174 -11 264 44 306 89 L300 98 C251 55 196 33 156 33 C149 33 145 37 145 45 C145 52 145 58 153 93 L233 429 Z " />
<glyph glyph-name="u" unicode="u" horiz-adv-x="506" d="M455 88 C428 53 403 36 382 36 C374 36 372 40 372 49 C372 58 375 72 379 91 L460 466 L385 466 L339 250 L338 250 C275 104 208 40 156 40 C134 40 128 51 128 69 C128 79 129 91 132 104 L211 477 L203 477 L68 443 L66 431 C117 419 122 410 114 374 L58 107 C53 88 51 70 51 56 C51 5 75 -11 111 -11 C173 -11 270 43 327 198 L328 198 L300 77 C296 54 292 37 292 22 C292 2 299 -11 322 -11 C375 -11 434 40 461 79 L455 88 Z " />
<glyph glyph-name="v" unicode="v" horiz-adv-x="427" d="M325 466 L323 456 C348 447 362 424 362 392 C362 327 293 205 201 87 L165 466 L42 466 L40 456 C71 453 87 438 91 401 L131 -6 L145 -6 C300 152 402 329 428 466 L325 466 Z " />
<glyph glyph-name="w" unicode="w" horiz-adv-x="647" d="M546 466 L544 456 C568 447 581 424 581 394 C581 327 530 205 451 87 L401 466 L302 466 L300 456 C322 447 336 425 336 395 C336 329 284 206 206 85 L156 466 L37 466 L35 456 C64 453 75 437 81 401 L137 -6 L151 -6 C236 94 301 201 346 303 L382 -6 L396 -6 C531 149 618 329 645 466 L546 466 Z " />
<glyph glyph-name="x" unicode="x" horiz-adv-x="481" d="M387 408 C398 408 421 400 440 392 L464 471 C447 476 428 481 417 481 C392 481 334 432 268 291 L237 415 C225 462 212 482 189 482 C155 482 110 435 59 358 L64 351 C104 391 128 410 139 410 C153 410 160 394 172 351 L212 205 C158 92 115 61 98 61 C69 61 40 73 18 81 L-6 5 C16 -3 44 -10 54 -10 C84 -10 141 12 219 181 L254 55 C267 11 277 -10 301 -10 C335 -10 371 35 424 112 L418 119 C379 80 355 61 344 61 C328 61 322 77 311 120 L273 270 C329 378 363 408 387 408 L387 408 Z " />
<glyph glyph-name="y" unicode="y" horiz-adv-x="451" d="M314 466 L312 456 C340 453 360 444 360 428 C360 404 327 282 226 95 C217 227 192 346 147 466 L46 466 L44 456 C91 447 158 146 158 25 C158 -38 100 -119 43 -119 C17 -119 -11 -111 -42 -96 L-61 -167 C-41 -180 2 -188 22 -188 C75 -188 122 -129 196 -6 C270 120 403 332 434 466 L314 466 Z " />
<glyph glyph-name="z" unicode="z" horiz-adv-x="413" d="M327 159 C306 159 296 152 296 140 C296 126 313 71 313 62 C313 58 309 57 303 57 C267 57 149 109 96 116 L431 470 L410 488 L392 466 L149 466 L127 477 L120 477 L55 299 L64 299 C103 379 125 395 184 395 L330 394 L17 58 C-19 19 -19 11 -19 3 C-19 -5 -13 -10 -3 -10 C12 -10 19 -2 25 19 C31 38 40 55 54 55 C94 55 221 -10 270 -10 C301 -10 314 24 348 84 C360 106 365 118 365 132 C365 145 347 159 327 159 L327 159 Z " />
<glyph glyph-name="braceleft" unicode="&#x7b;" horiz-adv-x="276" d="M108 -125 L155 -117 L153 -102 C142 -105 127 -107 117 -107 C88 -107 69 -91 69 -52 C69 34 163 129 163 208 C163 248 147 275 94 279 L94 280 C166 287 189 333 196 366 C204 403 205 450 205 495 C204 588 207 675 286 675 C301 675 319 673 333 670 L339 686 C323 688 304 690 286 690 C178 690 134 621 135 508 L135 455 C135 308 99 290 52 290 L45 276 C82 274 99 260 99 229 C99 109 7 64 7 -43 C7 -104 46 -125 108 -125 L108 -125 Z " />
<glyph glyph-name="bar" unicode="&#x7c;" horiz-adv-x="241" d="M19 -169 L51 -169 L250 769 L218 769 L19 -169 Z " />
<glyph glyph-name="braceright" unicode="&#x7d;" horiz-adv-x="276" d="M189 690 L142 682 L143 667 C155 670 170 672 180 672 C209 672 227 656 227 616 C227 530 133 436 133 357 C133 317 150 290 202 286 L202 285 C131 277 107 232 100 199 C92 162 92 115 92 70 C92 -23 90 -110 10 -110 C-5 -110 -23 -108 -36 -105 L-42 -122 C-26 -124 -8 -125 11 -125 C119 -125 162 -57 162 57 L162 110 C162 257 197 275 245 275 L252 289 C215 291 198 304 198 335 C198 455 290 501 290 608 C290 668 250 690 189 690 L189 690 Z " />
<glyph glyph-name="asciitilde" unicode="&#x7e;" horiz-adv-x="459" d="M106 255 C127 276 141 298 152 298 C181 298 267 258 310 258 C330 258 357 299 393 351 L384 356 C369 339 353 318 340 318 C310 318 221 358 180 358 C161 358 135 325 97 261 L106 255 Z " />
<glyph glyph-name="exclamdown" unicode="&#xa1;" horiz-adv-x="249" d="M172 481 C135 481 105 449 105 409 C105 375 126 352 155 352 C193 352 222 386 222 425 C222 462 202 481 172 481 L172 481 Z M144 278 L124 278 L-16 -200 L-18 -209 L79 -209 L81 -200 L144 278 Z " />
<glyph glyph-name="cent" unicode="&#xa2;" horiz-adv-x="580" d="M473 475 L500 549 C479 563 447 575 407 577 L442 718 L413 718 L378 575 C265 556 145 381 145 199 C145 127 178 90 227 90 C236 90 248 92 262 95 L225 -55 L253 -55 L292 105 C336 121 389 149 428 186 L425 195 C373 170 335 159 304 155 L395 525 C423 514 450 497 473 475 L473 475 Z M276 154 C247 158 230 189 230 241 C230 408 297 535 339 535 C349 535 358 534 368 532 L276 154 Z " />
<glyph glyph-name="sterling" unicode="&#xa3;" horiz-adv-x="580" d="M427 690 C329 690 180 593 180 418 C180 409 180 400 181 391 L122 391 L114 356 L184 356 C191 289 205 225 196 173 C191 149 183 119 166 88 C93 88 49 63 49 19 C49 1 59 -10 78 -10 C102 -10 125 10 168 68 C219 50 304 -13 371 -13 C395 -13 424 5 473 140 L465 140 C435 79 420 67 397 67 C373 67 246 82 185 87 C236 142 278 209 278 277 C278 301 276 328 273 356 L453 356 L461 391 L270 391 C268 418 266 445 266 471 C266 586 316 662 395 662 C445 662 490 624 509 519 L520 519 L538 669 C513 679 473 690 427 690 L427 690 Z " />
<glyph glyph-name="yen" unicode="&#xa5;" horiz-adv-x="580" d="M466 680 L464 670 C497 665 518 655 518 635 C518 607 465 518 449 493 L342 320 L301 474 C285 533 276 577 276 610 C276 653 291 665 351 670 L353 680 L131 680 L129 670 C172 664 180 638 190 595 L267 298 L266 294 L115 294 L108 259 L259 259 L243 186 L92 186 L85 151 L236 151 L221 81 C211 34 208 20 146 10 L144 0 L355 0 L357 10 C292 19 293 28 305 81 L320 151 L463 151 L470 186 L327 186 L343 259 L486 259 L493 294 L350 294 L351 299 L531 567 C578 637 595 658 638 670 L640 680 L466 680 Z " />
<glyph glyph-name="section" unicode="&#xa7;" horiz-adv-x="509" d="M369 690 C256 690 147 608 147 517 C147 458 187 422 234 392 C149 377 60 316 60 226 C60 87 301 86 301 -29 C301 -93 239 -150 170 -149 C91 -148 43 -119 22 -4 L13 -4 L-14 -148 C17 -162 89 -174 139 -174 C260 -174 375 -81 375 20 C375 65 349 95 313 120 C402 160 461 229 461 301 C461 427 221 457 221 557 C221 617 276 665 342 665 C414 665 451 631 477 532 L484 532 L506 666 C475 679 431 690 369 690 L369 690 Z M393 247 C393 198 355 158 292 134 C222 175 132 204 132 276 C132 323 177 364 253 380 C320 342 393 311 393 247 L393 247 Z " />
<glyph glyph-name="dieresis" unicode="&#xa8;" horiz-adv-x="332" d="M164 556 C196 556 224 584 224 616 C224 642 204 659 179 659 C147 659 120 631 120 600 C120 572 140 556 164 556 L164 556 Z M312 556 C344 556 373 584 373 616 C373 642 353 659 327 659 C295 659 268 631 268 600 C268 572 289 556 312 556 L312 556 Z " />
<glyph glyph-name="copyright" unicode="&#xa9;" horiz-adv-x="761" d="M404 -10 C602 -10 736 135 736 344 C736 553 589 690 404 690 C218 690 71 553 71 344 C71 135 205 -10 404 -10 L404 -10 Z M404 22 C228 22 118 163 118 344 C118 525 249 659 404 659 C558 659 689 525 689 344 C689 163 579 22 404 22 L404 22 Z M403 144 C430 144 454 164 548 215 L542 230 C492 209 439 195 412 195 C350 195 292 272 292 361 C292 453 344 501 406 501 C455 501 489 474 518 418 L527 418 L505 527 C487 531 456 540 420 540 C306 540 218 427 218 333 C218 216 302 144 403 144 L403 144 Z " />
<glyph glyph-name="ordfeminine" unicode="&#xaa;" horiz-adv-x="384" d="M417 427 C397 407 380 396 366 396 C359 396 356 400 356 406 C356 412 358 420 361 435 L415 683 L407 683 L364 649 C346 672 320 690 286 690 C192 690 71 537 71 411 C71 370 88 344 117 344 C160 344 250 409 301 533 L302 533 L276 413 C272 394 268 378 268 368 C268 353 276 346 291 346 C329 346 390 387 421 420 L417 427 Z M172 403 C160 403 154 414 154 441 C154 528 211 667 260 667 C284 667 305 644 315 601 C271 476 195 403 172 403 L172 403 Z " />
<glyph glyph-name="guillemotleft" unicode="&#xab;" horiz-adv-x="495" d="M284 407 L278 412 C201 345 139 297 46 239 L44 230 C111 173 153 127 203 60 L211 65 C185 135 161 185 132 235 C182 286 226 335 284 407 L284 407 Z M488 407 L482 412 C405 345 343 297 250 239 L248 230 C315 173 357 127 407 60 L415 65 C389 135 365 185 336 235 C386 286 430 335 488 407 L488 407 Z " />
<glyph glyph-name="logicalnot" unicode="&#xac;" horiz-adv-x="580" d="M463 153 L490 153 L541 396 L109 396 L103 369 L509 369 L463 153 Z " />
<glyph glyph-name="registered" unicode="&#xae;" horiz-adv-x="467" d="M290 690 C188 690 99 610 99 502 C99 395 181 309 290 309 C399 309 481 392 481 502 C481 612 390 690 290 690 L290 690 Z M290 334 C198 334 140 408 140 502 C140 595 208 665 290 665 C370 665 441 595 441 502 C441 408 381 334 290 334 L290 334 Z M354 464 L324 506 C345 516 361 534 361 555 C361 582 336 601 283 601 L207 601 L207 591 C230 588 230 586 230 572 L230 440 C230 427 226 423 207 420 L207 410 L289 410 L289 420 C273 423 270 425 270 440 L270 498 L285 498 L317 452 C335 426 343 410 376 410 L390 410 L390 420 C379 425 368 444 354 464 L354 464 Z M270 580 C270 587 274 589 283 589 C302 589 320 578 320 552 C320 530 308 510 290 510 L270 511 L270 580 Z " />
<glyph glyph-name="degree" unicode="&#xb0;" horiz-adv-x="178" d="M157 414 C229 414 289 474 289 552 C289 629 229 690 157 690 C84 690 24 629 24 552 C24 474 84 414 157 414 L157 414 Z M157 450 C108 450 65 490 65 552 C65 614 108 654 157 654 C206 654 248 614 248 552 C248 490 206 450 157 450 L157 450 Z " />
<glyph glyph-name="acute" unicode="&#xb4;" horiz-adv-x="303" d="M107 524 L110 524 C206 548 281 583 345 619 C345 648 335 673 313 683 C249 629 188 589 105 538 L104 535 L107 524 Z " />
<glyph glyph-name="paragraph" unicode="&#xb6;" horiz-adv-x="490" d="M51 -174 C141 -174 224 -45 247 57 L341 498 C357 569 376 647 426 674 C411 682 377 688 342 688 C191 688 59 536 59 367 C59 279 107 236 158 236 C186 236 210 246 260 279 L213 59 C194 -29 150 -81 88 -83 C53 -84 6 -72 -17 -68 L-44 -154 C-19 -164 31 -174 51 -174 L51 -174 Z M286 -2 C338 98 371 178 385 248 L443 521 C462 606 494 661 548 670 L550 680 C466 672 427 603 407 508 C374 351 340 154 286 -2 L286 -2 Z " />
<glyph glyph-name="periodcentered" unicode="&#xb7;" horiz-adv-x="214" d="M97 163 C134 163 164 194 164 234 C164 269 143 292 114 292 C77 292 47 258 47 218 C47 181 68 163 97 163 L97 163 Z " />
<glyph glyph-name="cedilla" unicode="&#xb8;" horiz-adv-x="313" d="M116 -49 L160 10 L126 10 L90 -38 C61 -78 55 -84 55 -88 C55 -94 62 -98 79 -110 C110 -134 129 -151 129 -169 C129 -187 111 -199 88 -199 C62 -199 -2 -174 -26 -151 L-31 -151 L-52 -200 C-22 -217 33 -224 60 -224 C131 -224 191 -188 191 -142 C191 -114 169 -85 116 -49 L116 -49 Z " />
<glyph glyph-name="ordmasculine" unicode="&#xba;" horiz-adv-x="354" d="M198 346 C296 346 401 462 401 569 C401 641 344 690 273 690 C180 690 75 585 75 471 C75 396 122 346 198 346 L198 346 Z M216 367 C178 367 162 406 162 465 C162 561 205 669 261 669 C296 669 314 624 314 568 C314 472 269 367 216 367 L216 367 Z " />
<glyph glyph-name="guillemotright" unicode="&#xbb;" horiz-adv-x="495" d="M249 242 C182 299 139 345 90 412 L82 407 C107 337 132 287 161 237 C111 186 67 137 9 65 L15 60 C91 127 154 175 247 233 L249 242 Z M294 412 L286 407 C311 337 336 287 365 237 C314 186 270 137 213 65 L219 60 C295 127 358 175 451 233 L453 242 C386 299 343 345 294 412 L294 412 Z " />
<glyph glyph-name="onequarter" unicode="&#xbc;" horiz-adv-x="667" d="M298 319 C231 322 233 340 240 369 L307 682 L303 684 L146 596 L147 592 L222 610 L170 369 C163 336 151 322 89 319 L88 314 L297 314 L298 319 Z M579 680 L150 0 L172 0 L601 680 L579 680 Z M553 87 L610 87 L620 131 L562 131 L613 367 L590 367 L339 91 L341 87 L485 87 L477 50 C471 20 468 14 422 9 L420 0 L584 0 L586 9 C538 14 538 19 545 50 L553 87 Z M392 131 L526 277 L494 131 L392 131 Z " />
<glyph glyph-name="onehalf" unicode="&#xbd;" horiz-adv-x="705" d="M298 319 C231 322 233 340 240 369 L307 682 L303 684 L146 596 L147 592 L222 610 L170 369 C163 336 151 322 89 319 L88 314 L297 314 L298 319 Z M579 680 L150 0 L173 0 L602 680 L579 680 Z M567 54 L438 55 L498 104 C575 169 663 228 663 297 C663 343 630 373 581 373 C528 373 474 332 436 281 L438 279 C477 308 512 319 543 319 C574 319 593 300 593 273 C593 229 547 184 495 130 L374 4 L377 0 L599 0 L631 85 L629 85 C608 60 584 54 567 54 L567 54 Z " />
<glyph glyph-name="threequarters" unicode="&#xbe;" horiz-adv-x="667" d="M332 449 C332 490 301 518 252 531 C281 542 347 571 347 625 C347 661 317 687 273 687 C218 687 170 650 137 600 L139 597 C171 625 201 638 231 638 C258 638 280 623 280 597 C280 555 239 527 182 504 L182 501 C234 491 268 469 268 431 C268 375 217 329 149 321 L134 393 C109 388 90 373 74 360 C78 349 80 342 103 325 C117 314 144 309 163 309 C244 309 332 379 332 449 L332 449 Z M579 680 L150 0 L172 0 L601 680 L579 680 Z M553 87 L610 87 L620 131 L562 131 L613 367 L590 367 L339 91 L341 87 L485 87 L477 50 C471 20 468 14 422 9 L420 0 L584 0 L586 9 C538 14 538 19 545 50 L553 87 Z M392 131 L526 277 L494 131 L392 131 Z " />
<glyph glyph-name="questiondown" unicode="&#xbf;" horiz-adv-x="392" d="M333 476 C296 476 266 444 266 404 C266 370 287 347 316 347 C354 347 383 381 383 420 C383 457 363 476 333 476 L333 476 Z M287 -75 C269 -75 247 -78 224 -86 L226 -200 C114 -204 62 -164 62 -91 C62 8 190 64 287 121 L292 127 L306 273 L284 273 L242 148 C106 84 -29 12 -29 -106 C-29 -181 36 -228 144 -228 C250 -228 346 -175 346 -114 C346 -89 325 -75 287 -75 L287 -75 Z " />
<glyph glyph-name="Agrave" unicode="&#xc0;" horiz-adv-x="628" d="M525 732 L530 743 L530 746 C462 782 394 824 337 869 C316 858 301 834 301 810 C344 781 452 745 522 732 L525 732 Z M512 66 L420 693 L387 687 L93 145 C46 56 25 21 -46 10 L-48 0 L147 0 L149 10 C109 14 83 23 83 44 C83 62 111 116 131 153 L207 296 L393 296 L415 119 C417 104 419 87 419 72 C419 30 404 16 349 10 L347 0 L576 0 L578 10 C522 19 516 40 512 66 L512 66 Z M222 325 L359 582 L390 325 L222 325 Z " />
<glyph glyph-name="Aacute" unicode="&#xc1;" horiz-adv-x="628" d="M323 732 C393 745 501 781 544 810 C544 834 529 858 508 869 C451 824 383 782 315 746 L315 743 L320 732 L323 732 Z M512 66 L420 693 L387 687 L93 145 C46 56 25 21 -46 10 L-48 0 L147 0 L149 10 C109 14 83 23 83 44 C83 62 111 116 131 153 L207 296 L393 296 L415 119 C417 104 419 87 419 72 C419 30 404 16 349 10 L347 0 L576 0 L578 10 C522 19 516 40 512 66 L512 66 Z M222 325 L359 582 L390 325 L222 325 Z " />
<glyph glyph-name="Acircumflex" unicode="&#xc2;" horiz-adv-x="628" d="M432 783 L514 726 L531 738 L461 857 L435 857 L312 733 L322 726 L432 783 Z M512 66 L420 693 L387 687 L93 145 C46 56 25 21 -46 10 L-48 0 L147 0 L149 10 C109 14 83 23 83 44 C83 62 111 116 131 153 L207 296 L393 296 L415 119 C417 104 419 87 419 72 C419 30 404 16 349 10 L347 0 L576 0 L578 10 C522 19 516 40 512 66 L512 66 Z M222 325 L359 582 L390 325 L222 325 Z " />
<glyph glyph-name="Atilde" unicode="&#xc3;" horiz-adv-x="628" d="M338 772 C367 772 453 731 496 731 C515 731 543 773 579 824 L570 829 C555 813 538 792 526 792 C496 792 407 832 366 832 C347 832 321 799 283 734 L292 728 C313 750 327 772 338 772 L338 772 Z M512 66 L420 693 L387 687 L93 145 C46 56 25 21 -46 10 L-48 0 L147 0 L149 10 C109 14 83 23 83 44 C83 62 111 116 131 153 L207 296 L393 296 L415 119 C417 104 419 87 419 72 C419 30 404 16 349 10 L347 0 L576 0 L578 10 C522 19 516 40 512 66 L512 66 Z M222 325 L359 582 L390 325 L222 325 Z " />
<glyph glyph-name="Adieresis" unicode="&#xc4;" horiz-adv-x="628" d="M349 747 C378 747 410 774 410 809 C410 832 395 850 366 850 C337 850 306 823 306 789 C306 765 322 747 349 747 L349 747 Z M502 747 C532 747 564 774 564 809 C564 832 549 850 520 850 C491 850 459 823 459 789 C459 765 476 747 502 747 L502 747 Z M512 66 L420 693 L387 687 L93 145 C46 56 25 21 -46 10 L-48 0 L147 0 L149 10 C109 14 83 23 83 44 C83 62 111 116 131 153 L207 296 L393 296 L415 119 C417 104 419 87 419 72 C419 30 404 16 349 10 L347 0 L576 0 L578 10 C522 19 516 40 512 66 L512 66 Z M222 325 L359 582 L390 325 L222 325 Z " />
<glyph glyph-name="Aring" unicode="&#xc5;" horiz-adv-x="628" d="M422 723 C482 723 526 771 526 822 C526 862 492 891 447 891 C394 891 346 846 346 794 C346 751 375 723 422 723 L422 723 Z M435 866 C461 866 479 839 479 808 C479 771 459 750 437 750 C410 750 395 773 395 809 C395 842 411 866 435 866 L435 866 Z M512 66 L420 693 L387 687 L93 145 C46 56 25 21 -46 10 L-48 0 L147 0 L149 10 C109 14 83 23 83 44 C83 62 111 116 131 153 L207 296 L393 296 L415 119 C417 104 419 87 419 72 C419 30 404 16 349 10 L347 0 L576 0 L578 10 C522 19 516 40 512 66 L512 66 Z M222 325 L359 582 L390 325 L222 325 Z " />
<glyph glyph-name="AE" unicode="&#xc6;" horiz-adv-x="865" d="M424 680 L421 670 C465 666 484 652 484 632 C484 623 483 611 468 589 L86 109 C36 47 8 22 -46 10 L-48 0 L153 0 L155 10 C116 14 89 22 89 44 C89 67 120 103 158 153 L271 297 L446 297 L400 81 C389 31 390 20 309 10 L307 0 L742 0 L811 207 L802 207 L766 148 C728 86 687 25 562 24 C481 23 477 38 487 86 L544 353 L611 350 C661 348 686 339 691 244 L703 244 L748 467 L739 467 C705 387 658 377 612 376 L549 373 L609 651 L701 648 C800 645 810 616 829 567 L850 517 L859 517 L874 680 L424 680 Z M452 324 L292 324 L512 604 L452 324 Z " />
<glyph glyph-name="Ccedilla" unicode="&#xc7;" horiz-adv-x="676" d="M499 690 C265 690 60 497 60 258 C60 97 158 -10 332 -10 L311 -38 C282 -78 276 -84 276 -88 C276 -94 283 -98 300 -110 C331 -134 350 -151 350 -169 C350 -187 332 -199 309 -199 C283 -199 219 -174 195 -151 L190 -151 L169 -200 C199 -217 254 -224 281 -224 C352 -224 412 -188 412 -142 C412 -114 390 -85 337 -49 L367 -8 C430 -3 508 17 565 50 L607 227 L593 227 C535 78 439 16 355 16 C237 16 153 119 153 269 C153 517 278 650 446 650 C526 650 613 616 642 507 L656 507 L672 649 C633 672 560 690 499 690 L499 690 Z " />
<glyph glyph-name="Egrave" unicode="&#xc8;" horiz-adv-x="549" d="M485 732 L490 743 L490 746 C422 782 354 824 297 869 C276 858 261 834 261 810 C304 781 412 745 482 732 L485 732 Z M135 680 L132 670 C206 660 203 647 193 599 L83 81 C73 33 69 19 -8 10 L-10 0 L425 0 L495 207 L485 207 L449 148 C409 81 369 25 246 24 C164 23 161 39 171 86 L228 353 L295 350 C342 348 370 340 374 244 L387 244 L432 467 L422 467 C391 395 352 378 295 376 L232 373 L292 651 L384 648 C483 645 494 617 513 567 L533 517 L543 517 L558 680 L135 680 Z " />
<glyph glyph-name="Eacute" unicode="&#xc9;" horiz-adv-x="549" d="M282 732 C352 745 460 781 503 810 C503 834 488 858 467 869 C410 824 342 782 274 746 L274 743 L279 732 L282 732 Z M135 680 L132 670 C206 660 203 647 193 599 L83 81 C73 33 69 19 -8 10 L-10 0 L425 0 L495 207 L485 207 L449 148 C409 81 369 25 246 24 C164 23 161 39 171 86 L228 353 L295 350 C342 348 370 340 374 244 L387 244 L432 467 L422 467 C391 395 352 378 295 376 L232 373 L292 651 L384 648 C483 645 494 617 513 567 L533 517 L543 517 L558 680 L135 680 Z " />
<glyph glyph-name="Ecircumflex" unicode="&#xca;" horiz-adv-x="549" d="M391 783 L473 726 L490 738 L420 857 L394 857 L271 733 L281 726 L391 783 Z M135 680 L132 670 C206 660 203 647 193 599 L83 81 C73 33 69 19 -8 10 L-10 0 L425 0 L495 207 L485 207 L449 148 C409 81 369 25 246 24 C164 23 161 39 171 86 L228 353 L295 350 C342 348 370 340 374 244 L387 244 L432 467 L422 467 C391 395 352 378 295 376 L232 373 L292 651 L384 648 C483 645 494 617 513 567 L533 517 L543 517 L558 680 L135 680 Z " />
<glyph glyph-name="Edieresis" unicode="&#xcb;" horiz-adv-x="549" d="M309 747 C338 747 370 774 370 809 C370 832 355 850 326 850 C297 850 266 823 266 789 C266 765 282 747 309 747 L309 747 Z M462 747 C492 747 524 774 524 809 C524 832 509 850 480 850 C451 850 419 823 419 789 C419 765 436 747 462 747 L462 747 Z M135 680 L132 670 C206 660 203 647 193 599 L83 81 C73 33 69 19 -8 10 L-10 0 L425 0 L495 207 L485 207 L449 148 C409 81 369 25 246 24 C164 23 161 39 171 86 L228 353 L295 350 C342 348 370 340 374 244 L387 244 L432 467 L422 467 C391 395 352 378 295 376 L232 373 L292 651 L384 648 C483 645 494 617 513 567 L533 517 L543 517 L558 680 L135 680 Z " />
<glyph glyph-name="Igrave" unicode="&#xcc;" horiz-adv-x="327" d="M374 732 L379 743 L379 746 C311 782 243 824 186 869 C165 858 150 834 150 810 C193 781 301 745 371 732 L374 732 Z M-2 0 L229 0 L231 10 C166 18 163 25 174 81 L284 599 C296 655 304 662 371 670 L374 680 L143 680 L140 670 C211 661 208 651 197 599 L87 81 C76 28 72 19 0 10 L-2 0 Z " />
<glyph glyph-name="Iacute" unicode="&#xcd;" horiz-adv-x="327" d="M169 732 L172 732 C242 745 350 781 393 810 C393 834 378 858 357 869 C300 824 232 782 164 746 L164 743 L169 732 Z M-2 0 L229 0 L231 10 C166 18 163 25 174 81 L284 599 C296 655 304 662 371 670 L374 680 L143 680 L140 670 C211 661 208 651 197 599 L87 81 C76 28 72 19 0 10 L-2 0 Z " />
<glyph glyph-name="Icircumflex" unicode="&#xce;" horiz-adv-x="327" d="M281 783 L363 726 L380 738 L310 857 L284 857 L161 733 L171 726 L281 783 Z M140 670 C211 661 208 651 197 599 L87 81 C76 28 72 19 0 10 L-2 0 L229 0 L231 10 C166 18 163 25 174 81 L284 599 C296 655 304 662 371 670 L374 680 L143 680 L140 670 Z " />
<glyph glyph-name="Idieresis" unicode="&#xcf;" horiz-adv-x="327" d="M198 747 C227 747 259 774 259 809 C259 832 244 850 215 850 C186 850 155 823 155 789 C155 765 171 747 198 747 L198 747 Z M351 747 C381 747 413 774 413 809 C413 832 398 850 369 850 C340 850 308 823 308 789 C308 765 325 747 351 747 L351 747 Z M-2 0 L229 0 L231 10 C166 18 163 25 174 81 L284 599 C296 655 304 662 371 670 L374 680 L143 680 L140 670 C211 661 208 651 197 599 L87 81 C76 28 72 19 0 10 L-2 0 Z " />
<glyph glyph-name="Eth" unicode="&#xd0;" horiz-adv-x="700" d="M363 680 L137 680 L134 670 C201 661 201 655 189 599 L139 365 L91 365 L85 338 L134 338 L79 81 C68 28 64 19 -8 10 L-10 0 L223 0 C484 0 686 200 686 413 C686 566 581 680 363 680 L363 680 Z M248 28 C175 28 159 51 170 105 L220 338 L422 338 L428 365 L226 365 L275 594 C284 639 300 654 344 654 C507 654 588 555 588 410 C588 191 437 28 248 28 L248 28 Z " />
<glyph glyph-name="Ntilde" unicode="&#xd1;" horiz-adv-x="671" d="M387 802 C416 802 502 762 545 762 C565 762 592 803 628 855 L619 860 C605 843 588 822 575 822 C545 822 456 862 415 862 C396 862 370 829 332 765 L341 759 C363 780 377 802 387 802 L387 802 Z M534 680 L531 670 C612 654 617 626 602 559 L515 147 L244 680 L129 680 L126 670 C157 644 173 615 188 585 L89 121 C71 36 69 24 -25 10 L-27 0 L200 0 L200 10 C100 24 102 37 121 121 L210 541 L493 -12 L512 -12 L634 559 C644 606 656 657 737 670 L740 680 L534 680 Z " />
<glyph glyph-name="Ograve" unicode="&#xd2;" horiz-adv-x="718" d="M550 732 L555 743 L555 746 C487 782 419 824 362 869 C341 858 326 834 326 810 C369 781 477 745 547 732 L550 732 Z M300 -10 C501 -10 703 210 703 413 C703 578 601 689 457 689 C237 689 60 466 60 263 C60 100 166 -10 300 -10 L300 -10 Z M356 34 C227 34 153 135 153 296 C153 483 275 646 413 646 C541 646 613 532 613 382 C613 198 490 34 356 34 L356 34 Z " />
<glyph glyph-name="Oacute" unicode="&#xd3;" horiz-adv-x="718" d="M344 732 L347 732 C417 745 525 781 568 810 C568 834 553 858 532 869 C475 824 407 782 339 746 L339 743 L344 732 Z M300 -10 C501 -10 703 210 703 413 C703 578 601 689 457 689 C237 689 60 466 60 263 C60 100 166 -10 300 -10 L300 -10 Z M356 34 C227 34 153 135 153 296 C153 483 275 646 413 646 C541 646 613 532 613 382 C613 198 490 34 356 34 L356 34 Z " />
<glyph glyph-name="Ocircumflex" unicode="&#xd4;" horiz-adv-x="718" d="M456 783 L538 726 L555 738 L485 857 L459 857 L336 733 L346 726 L456 783 Z M457 689 C237 689 60 466 60 263 C60 100 166 -10 300 -10 C501 -10 703 210 703 413 C703 578 601 689 457 689 L457 689 Z M356 34 C227 34 153 135 153 296 C153 483 275 646 413 646 C541 646 613 532 613 382 C613 198 490 34 356 34 L356 34 Z " />
<glyph glyph-name="Otilde" unicode="&#xd5;" horiz-adv-x="718" d="M321 759 C343 780 357 802 367 802 C396 802 482 762 525 762 C545 762 572 803 608 855 L599 860 C585 843 568 822 555 822 C525 822 436 862 395 862 C376 862 350 829 312 765 L321 759 Z M300 -10 C501 -10 703 210 703 413 C703 578 601 689 457 689 C237 689 60 466 60 263 C60 100 166 -10 300 -10 L300 -10 Z M356 34 C227 34 153 135 153 296 C153 483 275 646 413 646 C541 646 613 532 613 382 C613 198 490 34 356 34 L356 34 Z " />
<glyph glyph-name="Odieresis" unicode="&#xd6;" horiz-adv-x="718" d="M374 747 C403 747 435 774 435 809 C435 832 420 850 391 850 C362 850 331 823 331 789 C331 765 347 747 374 747 L374 747 Z M527 747 C557 747 589 774 589 809 C589 832 574 850 545 850 C516 850 484 823 484 789 C484 765 501 747 527 747 L527 747 Z M300 -10 C501 -10 703 210 703 413 C703 578 601 689 457 689 C237 689 60 466 60 263 C60 100 166 -10 300 -10 L300 -10 Z M356 34 C227 34 153 135 153 296 C153 483 275 646 413 646 C541 646 613 532 613 382 C613 198 490 34 356 34 L356 34 Z " />
<glyph glyph-name="multiply" unicode="&#xd7;" horiz-adv-x="580" d="M508 403 L488 425 L297 267 L175 423 L149 404 L272 247 L77 85 L98 62 L291 223 L416 63 L441 82 L315 243 L508 403 Z " />
<glyph glyph-name="Oslash" unicode="&#xd8;" horiz-adv-x="769" d="M602 642 L659 722 L635 739 L577 659 C542 678 502 689 457 689 C237 689 60 466 60 263 C60 174 91 101 142 53 L76 -38 L101 -53 L164 34 C202 6 249 -10 300 -10 C501 -10 703 210 703 413 C703 514 665 595 602 642 L602 642 Z M153 296 C153 483 275 646 413 646 C462 646 503 629 535 600 L193 124 C167 168 153 227 153 296 L153 296 Z M356 34 C294 34 245 57 211 99 L555 578 C593 530 613 461 613 382 C613 198 490 34 356 34 L356 34 Z " />
<glyph glyph-name="Ugrave" unicode="&#xd9;" horiz-adv-x="638" d="M544 732 L549 743 L549 746 C481 782 413 824 356 869 C335 858 320 834 320 810 C363 781 471 745 541 732 L544 732 Z M284 -10 C417 -10 506 75 536 216 L618 601 C629 651 631 661 703 670 L705 680 L528 680 L526 670 C570 665 583 658 583 637 C583 630 582 622 580 614 L503 224 C479 103 409 38 308 38 C212 38 174 78 174 147 C174 163 176 180 180 199 L266 599 C277 652 281 662 350 670 L352 680 L124 680 L122 670 C171 664 185 657 185 636 C185 627 182 615 179 599 L93 199 C89 179 87 160 87 143 C87 42 160 -10 284 -10 L284 -10 Z " />
<glyph glyph-name="Uacute" unicode="&#xda;" horiz-adv-x="638" d="M338 732 L341 732 C411 745 519 781 562 810 C562 834 547 858 526 869 C469 824 401 782 333 746 L333 743 L338 732 Z M284 -10 C417 -10 506 75 536 216 L618 601 C629 651 631 661 703 670 L705 680 L528 680 L526 670 C570 665 583 658 583 637 C583 630 582 622 580 614 L503 224 C479 103 409 38 308 38 C212 38 174 78 174 147 C174 163 176 180 180 199 L266 599 C277 652 281 662 350 670 L352 680 L124 680 L122 670 C171 664 185 657 185 636 C185 627 182 615 179 599 L93 199 C89 179 87 160 87 143 C87 42 160 -10 284 -10 L284 -10 Z " />
<glyph glyph-name="Ucircumflex" unicode="&#xdb;" horiz-adv-x="638" d="M451 783 L533 726 L550 738 L480 857 L454 857 L331 733 L341 726 L451 783 Z M528 680 L526 670 C570 665 583 658 583 637 C583 630 582 622 580 614 L503 224 C479 103 409 38 308 38 C212 38 174 78 174 147 C174 163 176 180 180 199 L266 599 C277 652 281 662 350 670 L352 680 L124 680 L122 670 C171 664 185 657 185 636 C185 627 182 615 179 599 L93 199 C89 179 87 160 87 143 C87 42 160 -10 284 -10 C417 -10 506 75 536 216 L618 601 C629 651 631 661 703 670 L705 680 L528 680 Z " />
<glyph glyph-name="Udieresis" unicode="&#xdc;" horiz-adv-x="638" d="M368 747 C397 747 429 774 429 809 C429 832 414 850 385 850 C356 850 325 823 325 789 C325 765 341 747 368 747 L368 747 Z M521 747 C551 747 583 774 583 809 C583 832 568 850 539 850 C510 850 478 823 478 789 C478 765 495 747 521 747 L521 747 Z M284 -10 C417 -10 506 75 536 216 L618 601 C629 651 631 661 703 670 L705 680 L528 680 L526 670 C570 665 583 658 583 637 C583 630 582 622 580 614 L503 224 C479 103 409 38 308 38 C212 38 174 78 174 147 C174 163 176 180 180 199 L266 599 C277 652 281 662 350 670 L352 680 L124 680 L122 670 C171 664 185 657 185 636 C185 627 182 615 179 599 L93 199 C89 179 87 160 87 143 C87 42 160 -10 284 -10 L284 -10 Z " />
<glyph glyph-name="Thorn" unicode="&#xde;" horiz-adv-x="520" d="M339 549 C310 549 283 545 261 536 L274 599 C285 650 286 661 359 670 L362 680 L135 680 L132 670 C201 661 199 651 188 599 L78 81 C67 28 63 19 -8 10 L-10 0 L225 0 L227 10 C150 19 153 28 164 81 L182 167 C202 163 227 161 247 161 C382 161 523 280 523 399 C523 484 458 549 339 549 L339 549 Z M255 194 C236 194 209 198 190 205 L250 486 C260 515 281 523 311 523 C387 523 432 478 432 403 C432 287 352 194 255 194 L255 194 Z " />
<glyph glyph-name="germandbls" unicode="&#xdf;" horiz-adv-x="544" d="M-29 -190 C1 -190 34 -170 79 -106 C129 -34 172 143 204 311 C224 412 239 509 248 579 C254 627 273 648 310 648 C380 648 437 600 437 540 C437 497 295 451 295 369 C295 273 429 211 429 115 C429 70 395 27 355 27 C311 27 257 59 213 112 L186 41 C221 9 266 -12 315 -12 C396 -12 488 83 488 165 C488 263 354 329 354 412 C354 462 495 509 495 561 C495 647 434 690 367 690 C316 690 260 662 226 604 C136 449 124 313 110 164 C102 93 94 22 76 -63 C69 -98 49 -119 8 -119 C-15 -119 -39 -111 -53 -103 L-76 -180 C-65 -186 -45 -190 -29 -190 L-29 -190 Z " />
<glyph glyph-name="agrave" unicode="&#xe0;" horiz-adv-x="490" d="M434 524 L437 535 L436 538 C353 589 292 629 228 683 C205 673 196 648 196 619 C259 583 335 548 431 524 L434 524 Z M441 92 C414 58 388 40 368 40 C361 40 357 44 357 51 C357 59 360 72 365 98 L445 466 L435 466 L385 409 C370 443 346 473 311 473 C184 473 21 259 21 74 C21 26 40 -10 78 -10 C136 -10 259 93 323 255 L286 79 C281 58 277 38 277 25 C277 4 288 -7 308 -7 C361 -7 419 44 447 83 L441 92 Z M127 50 C111 50 103 62 103 96 C103 249 199 445 279 445 C308 445 334 408 337 337 C269 157 162 50 127 50 L127 50 Z " />
<glyph glyph-name="aacute" unicode="&#xe1;" horiz-adv-x="490" d="M234 526 C330 550 405 585 469 621 C469 650 459 675 437 685 C373 631 312 591 229 540 L228 537 L231 526 L234 526 Z M368 40 C361 40 357 44 357 51 C357 59 360 72 365 98 L445 466 L435 466 L385 409 C370 443 346 473 311 473 C184 473 21 259 21 74 C21 26 40 -10 78 -10 C136 -10 259 93 323 255 L286 79 C281 58 277 38 277 25 C277 4 288 -7 308 -7 C361 -7 419 44 447 83 L441 92 C414 58 388 40 368 40 L368 40 Z M127 50 C111 50 103 62 103 96 C103 249 199 445 279 445 C308 445 334 408 337 337 C269 157 162 50 127 50 L127 50 Z " />
<glyph glyph-name="acircumflex" unicode="&#xe2;" horiz-adv-x="490" d="M226 528 L339 613 L413 529 L416 529 L430 538 L431 541 L367 688 L342 688 L213 543 L212 540 L223 528 L226 528 Z M441 92 C414 58 388 40 368 40 C361 40 357 44 357 51 C357 59 360 72 365 98 L445 466 L435 466 L385 409 C370 443 346 473 311 473 C184 473 21 259 21 74 C21 26 40 -10 78 -10 C136 -10 259 93 323 255 L286 79 C281 58 277 38 277 25 C277 4 288 -7 308 -7 C361 -7 419 44 447 83 L441 92 Z M127 50 C111 50 103 62 103 96 C103 249 199 445 279 445 C308 445 334 408 337 337 C269 157 162 50 127 50 L127 50 Z " />
<glyph glyph-name="atilde" unicode="&#xe3;" horiz-adv-x="490" d="M236 588 C265 588 351 548 394 548 C414 548 441 589 477 641 L468 646 C454 629 437 608 424 608 C394 608 305 648 264 648 C245 648 219 615 181 551 L190 545 C212 566 226 588 236 588 L236 588 Z M368 40 C361 40 357 44 357 51 C357 59 360 72 365 98 L445 466 L435 466 L385 409 C370 443 346 473 311 473 C184 473 21 259 21 74 C21 26 40 -10 78 -10 C136 -10 259 93 323 255 L286 79 C281 58 277 38 277 25 C277 4 288 -7 308 -7 C361 -7 419 44 447 83 L441 92 C414 58 388 40 368 40 L368 40 Z M127 50 C111 50 103 62 103 96 C103 249 199 445 279 445 C308 445 334 408 337 337 C269 157 162 50 127 50 L127 50 Z " />
<glyph glyph-name="adieresis" unicode="&#xe4;" horiz-adv-x="490" d="M252 556 C284 556 312 584 312 616 C312 642 292 659 267 659 C235 659 208 631 208 600 C208 572 228 556 252 556 L252 556 Z M400 556 C432 556 461 584 461 616 C461 642 441 659 415 659 C383 659 356 631 356 600 C356 572 377 556 400 556 L400 556 Z M368 40 C361 40 357 44 357 51 C357 59 360 72 365 98 L445 466 L435 466 L385 409 C370 443 346 473 311 473 C184 473 21 259 21 74 C21 26 40 -10 78 -10 C136 -10 259 93 323 255 L286 79 C281 58 277 38 277 25 C277 4 288 -7 308 -7 C361 -7 419 44 447 83 L441 92 C414 58 388 40 368 40 L368 40 Z M127 50 C111 50 103 62 103 96 C103 249 199 445 279 445 C308 445 334 408 337 337 C269 157 162 50 127 50 L127 50 Z " />
<glyph glyph-name="aring" unicode="&#xe5;" horiz-adv-x="490" d="M314 530 C366 530 416 578 416 628 C416 666 390 690 350 690 C299 690 252 644 252 595 C252 554 280 530 314 530 L314 530 Z M334 669 C358 669 377 644 377 611 C377 574 358 550 333 550 C310 550 292 573 292 610 C292 644 310 669 334 669 L334 669 Z M441 92 C414 58 388 40 368 40 C361 40 357 44 357 51 C357 59 360 72 365 98 L445 466 L435 466 L385 409 C370 443 346 473 311 473 C184 473 21 259 21 74 C21 26 40 -10 78 -10 C136 -10 259 93 323 255 L286 79 C281 58 277 38 277 25 C277 4 288 -7 308 -7 C361 -7 419 44 447 83 L441 92 Z M127 50 C111 50 103 62 103 96 C103 249 199 445 279 445 C308 445 334 408 337 337 C269 157 162 50 127 50 L127 50 Z " />
<glyph glyph-name="ae" unicode="&#xe6;" horiz-adv-x="644" d="M424 43 C377 43 354 81 354 153 C354 165 355 176 356 188 C544 262 637 363 637 426 C637 460 611 477 580 477 C508 477 435 432 377 367 C375 442 337 477 287 477 C240 477 148 439 79 379 L82 370 C150 414 202 429 233 429 C273 429 292 389 292 313 C292 302 291 290 290 279 C102 204 9 104 9 41 C9 7 35 -10 67 -10 C138 -10 212 35 269 100 C271 24 309 -10 360 -10 C403 -10 496 29 596 117 L593 129 C517 65 459 43 424 43 L424 43 Z M510 435 C543 435 557 415 557 386 C557 343 508 279 358 208 C377 329 455 435 510 435 L510 435 Z M136 32 C103 32 89 52 89 81 C89 123 138 188 288 259 C269 138 191 32 136 32 L136 32 Z " />
<glyph glyph-name="ccedilla" unicode="&#xe7;" horiz-adv-x="368" d="M213 436 C260 436 308 412 348 375 L374 449 C351 464 316 477 274 477 C154 477 19 292 19 99 C19 27 52 -10 102 -10 C109 -10 118 -9 128 -7 L105 -38 C76 -78 70 -84 70 -88 C70 -94 77 -98 94 -110 C125 -134 144 -151 144 -169 C144 -187 126 -199 103 -199 C77 -199 13 -174 -11 -151 L-16 -151 L-37 -200 C-7 -217 48 -224 75 -224 C146 -224 206 -188 206 -142 C206 -114 184 -85 131 -49 L173 7 C215 23 265 51 303 86 L300 94 C233 51 189 38 156 38 C123 38 104 75 104 141 C104 309 171 436 213 436 L213 436 Z " />
<glyph glyph-name="egrave" unicode="&#xe8;" horiz-adv-x="402" d="M411 538 C328 589 267 629 203 683 C180 673 171 648 171 619 C234 583 310 548 406 524 L409 524 L412 535 L411 538 Z M394 426 C394 460 369 477 337 477 C187 477 26 278 26 105 C26 25 65 -10 117 -10 C160 -10 254 29 354 117 L351 129 C274 65 216 43 182 43 C134 43 111 81 111 153 C111 165 112 176 113 188 C301 262 394 363 394 426 L394 426 Z M268 435 C300 435 314 415 314 386 C314 343 265 278 115 207 C134 329 212 435 268 435 L268 435 Z " />
<glyph glyph-name="eacute" unicode="&#xe9;" horiz-adv-x="402" d="M209 526 C305 550 380 585 444 621 C444 650 434 675 412 685 C348 631 287 591 204 540 L203 537 L206 526 L209 526 Z M394 426 C394 460 369 477 337 477 C187 477 26 278 26 105 C26 25 65 -10 117 -10 C160 -10 254 29 354 117 L351 129 C274 65 216 43 182 43 C134 43 111 81 111 153 C111 165 112 176 113 188 C301 262 394 363 394 426 L394 426 Z M268 435 C300 435 314 415 314 386 C314 343 265 278 115 207 C134 329 212 435 268 435 L268 435 Z " />
<glyph glyph-name="ecircumflex" unicode="&#xea;" horiz-adv-x="402" d="M342 688 L317 688 L188 543 L187 540 L198 528 L201 528 L314 613 L388 529 L391 529 L405 538 L406 541 L342 688 Z M394 426 C394 460 369 477 337 477 C187 477 26 278 26 105 C26 25 65 -10 117 -10 C160 -10 254 29 354 117 L351 129 C274 65 216 43 182 43 C134 43 111 81 111 153 C111 165 112 176 113 188 C301 262 394 363 394 426 L394 426 Z M268 435 C300 435 314 415 314 386 C314 343 265 278 115 207 C134 329 212 435 268 435 L268 435 Z " />
<glyph glyph-name="edieresis" unicode="&#xeb;" horiz-adv-x="402" d="M227 556 C259 556 287 584 287 616 C287 642 267 659 242 659 C210 659 183 631 183 600 C183 572 203 556 227 556 L227 556 Z M390 659 C358 659 331 631 331 600 C331 572 352 556 375 556 C407 556 436 584 436 616 C436 642 416 659 390 659 L390 659 Z M394 426 C394 460 369 477 337 477 C187 477 26 278 26 105 C26 25 65 -10 117 -10 C160 -10 254 29 354 117 L351 129 C274 65 216 43 182 43 C134 43 111 81 111 153 C111 165 112 176 113 188 C301 262 394 363 394 426 L394 426 Z M268 435 C300 435 314 415 314 386 C314 343 265 278 115 207 C134 329 212 435 268 435 L268 435 Z " />
<glyph glyph-name="igrave" unicode="&#xec;" horiz-adv-x="253" d="M257 546 L261 557 L261 560 C208 597 161 636 116 683 C90 674 80 651 79 623 C130 597 189 568 254 546 L257 546 Z M69 -11 C121 -11 180 40 208 79 L202 88 C175 53 150 36 129 36 C122 36 118 40 118 47 C118 55 121 68 126 93 L208 477 L200 477 L65 443 L63 431 C114 419 119 410 111 374 L46 75 C42 54 38 34 38 21 C38 0 49 -11 69 -11 L69 -11 Z " />
<glyph glyph-name="iacute" unicode="&#xed;" horiz-adv-x="253" d="M116 546 L119 546 C183 568 242 597 293 623 C293 651 282 674 257 683 C212 636 165 597 111 560 L111 557 L116 546 Z M69 -11 C121 -11 180 40 208 79 L202 88 C175 53 150 36 129 36 C122 36 118 40 118 47 C118 55 121 68 126 93 L208 477 L200 477 L65 443 L63 431 C114 419 119 410 111 374 L46 75 C42 54 38 34 38 21 C38 0 49 -11 69 -11 L69 -11 Z " />
<glyph glyph-name="icircumflex" unicode="&#xee;" horiz-adv-x="253" d="M224 688 L199 688 L70 543 L69 540 L80 528 L83 528 L196 613 L270 529 L273 529 L287 538 L288 541 L224 688 Z M208 477 L200 477 L65 443 L63 431 C114 419 119 410 111 374 L46 75 C42 54 38 34 38 21 C38 0 49 -11 69 -11 C121 -11 180 40 208 79 L202 88 C175 53 150 36 129 36 C122 36 118 40 118 47 C118 55 121 68 126 93 L208 477 Z " />
<glyph glyph-name="idieresis" unicode="&#xef;" horiz-adv-x="253" d="M117 562 C147 562 175 593 175 624 C175 648 160 665 137 665 C104 665 80 632 80 602 C80 575 94 562 117 562 L117 562 Z M244 562 C275 562 302 593 302 624 C302 648 288 665 264 665 C232 665 207 632 207 602 C207 575 222 562 244 562 L244 562 Z M69 -11 C121 -11 180 40 208 79 L202 88 C175 53 150 36 129 36 C122 36 118 40 118 47 C118 55 121 68 126 93 L208 477 L200 477 L65 443 L63 431 C114 419 119 410 111 374 L46 75 C42 54 38 34 38 21 C38 0 49 -11 69 -11 L69 -11 Z " />
<glyph glyph-name="eth" unicode="&#xf0;" horiz-adv-x="472" d="M471 670 L465 692 L344 621 C313 650 275 675 231 695 L223 682 C259 661 286 633 308 600 L137 500 L145 477 L319 580 C355 514 368 432 365 353 C353 411 313 448 259 448 C176 448 29 335 29 157 C29 55 86 -10 166 -10 C307 -10 456 190 456 378 C456 464 423 542 361 605 L471 670 Z M203 25 C142 25 116 84 116 164 C116 297 186 418 263 418 C306 418 344 362 344 267 C344 140 278 25 203 25 L203 25 Z " />
<glyph glyph-name="ntilde" unicode="&#xf1;" horiz-adv-x="507" d="M206 588 C235 588 321 548 364 548 C384 548 411 589 447 641 L438 646 C424 629 407 608 394 608 C364 608 275 648 234 648 C215 648 189 615 151 551 L160 545 C182 566 196 588 206 588 L206 588 Z M456 88 C428 53 403 36 383 36 C376 36 372 40 372 47 C372 56 376 74 380 93 L428 320 C440 378 442 403 442 418 C442 457 422 477 376 477 C312 477 225 423 167 268 L166 268 L166 269 L167 269 C171 291 207 457 212 475 L206 475 L62 425 L60 415 C98 409 111 395 111 372 C111 363 110 354 104 326 L34 0 L109 0 L155 216 L156 216 C219 360 286 426 338 426 C357 426 368 415 368 398 C368 392 366 380 362 361 L302 75 C297 52 293 34 293 21 C293 0 306 -11 325 -11 C379 -11 435 40 462 79 L456 88 Z " />
<glyph glyph-name="ograve" unicode="&#xf2;" horiz-adv-x="433" d="M397 524 L400 535 L399 538 C316 589 255 629 191 683 C168 673 159 648 159 619 C222 583 298 548 394 524 L397 524 Z M139 -10 C264 -10 410 181 410 334 C410 420 368 478 288 478 C142 478 26 295 26 144 C26 43 76 -10 139 -10 L139 -10 Z M179 36 C126 36 107 92 107 177 C107 331 174 442 255 442 C304 442 333 395 333 310 C333 191 272 36 179 36 L179 36 Z " />
<glyph glyph-name="oacute" unicode="&#xf3;" horiz-adv-x="433" d="M194 526 L197 526 C293 550 368 585 432 621 C432 650 422 675 400 685 C336 631 275 591 192 540 L191 537 L194 526 Z M139 -10 C264 -10 410 181 410 334 C410 420 368 478 288 478 C142 478 26 295 26 144 C26 43 76 -10 139 -10 L139 -10 Z M179 36 C126 36 107 92 107 177 C107 331 174 442 255 442 C304 442 333 395 333 310 C333 191 272 36 179 36 L179 36 Z " />
<glyph glyph-name="ocircumflex" unicode="&#xf4;" horiz-adv-x="433" d="M189 528 L302 613 L376 529 L379 529 L393 538 L394 541 L330 688 L305 688 L176 543 L175 540 L186 528 L189 528 Z M288 478 C142 478 26 295 26 144 C26 43 76 -10 139 -10 C264 -10 410 181 410 334 C410 420 368 478 288 478 L288 478 Z M179 36 C126 36 107 92 107 177 C107 331 174 442 255 442 C304 442 333 395 333 310 C333 191 272 36 179 36 L179 36 Z " />
<glyph glyph-name="otilde" unicode="&#xf5;" horiz-adv-x="433" d="M153 545 C175 566 189 588 199 588 C228 588 314 548 357 548 C377 548 404 589 440 641 L431 646 C417 629 400 608 387 608 C357 608 268 648 227 648 C208 648 182 615 144 551 L153 545 Z M139 -10 C264 -10 410 181 410 334 C410 420 368 478 288 478 C142 478 26 295 26 144 C26 43 76 -10 139 -10 L139 -10 Z M179 36 C126 36 107 92 107 177 C107 331 174 442 255 442 C304 442 333 395 333 310 C333 191 272 36 179 36 L179 36 Z " />
<glyph glyph-name="odieresis" unicode="&#xf6;" horiz-adv-x="433" d="M215 556 C247 556 275 584 275 616 C275 642 255 659 230 659 C198 659 171 631 171 600 C171 572 191 556 215 556 L215 556 Z M363 556 C395 556 424 584 424 616 C424 642 404 659 378 659 C346 659 319 631 319 600 C319 572 340 556 363 556 L363 556 Z M139 -10 C264 -10 410 181 410 334 C410 420 368 478 288 478 C142 478 26 295 26 144 C26 43 76 -10 139 -10 L139 -10 Z M179 36 C126 36 107 92 107 177 C107 331 174 442 255 442 C304 442 333 395 333 310 C333 191 272 36 179 36 L179 36 Z " />
<glyph glyph-name="divide" unicode="&#xf7;" horiz-adv-x="580" d="M318 377 C356 377 385 408 385 448 C385 483 365 506 335 506 C298 506 268 472 268 432 C268 395 289 377 318 377 L318 377 Z M58 249 L534 249 L540 276 L63 276 L58 249 Z M255 17 C292 17 322 48 322 88 C322 123 301 146 272 146 C234 146 204 112 204 72 C204 35 225 17 255 17 L255 17 Z " />
<glyph glyph-name="oslash" unicode="&#xf8;" horiz-adv-x="433" d="M416 536 L387 546 L349 464 C332 473 312 478 288 478 C142 478 26 295 26 144 C26 48 71 -5 130 -10 L92 -92 L120 -102 L164 -8 C283 15 410 191 410 334 C410 381 398 419 374 444 L416 536 Z M107 177 C107 331 174 442 255 442 C283 442 305 426 318 397 L154 41 C120 57 107 107 107 177 L107 177 Z M333 310 C333 193 274 42 184 36 L330 351 C332 339 333 325 333 310 L333 310 Z " />
<glyph glyph-name="ugrave" unicode="&#xf9;" horiz-adv-x="506" d="M421 524 L424 535 L423 538 C340 589 279 629 215 683 C192 673 183 648 183 619 C246 583 322 548 418 524 L421 524 Z M455 88 C428 53 403 36 382 36 C374 36 372 40 372 49 C372 58 375 72 379 91 L460 466 L385 466 L339 250 L338 250 C275 104 208 40 156 40 C134 40 128 51 128 69 C128 79 129 91 132 104 L211 477 L203 477 L68 443 L66 431 C117 419 122 410 114 374 L58 107 C53 88 51 70 51 56 C51 5 75 -11 111 -11 C173 -11 270 43 327 198 L328 198 L300 77 C296 54 292 37 292 22 C292 2 299 -11 322 -11 C375 -11 434 40 461 79 L455 88 Z " />
<glyph glyph-name="uacute" unicode="&#xfa;" horiz-adv-x="506" d="M221 526 C317 550 392 585 456 621 C456 650 446 675 424 685 C360 631 299 591 216 540 L215 537 L218 526 L221 526 Z M455 88 C428 53 403 36 382 36 C374 36 372 40 372 49 C372 58 375 72 379 91 L460 466 L385 466 L339 250 L338 250 C275 104 208 40 156 40 C134 40 128 51 128 69 C128 79 129 91 132 104 L211 477 L203 477 L68 443 L66 431 C117 419 122 410 114 374 L58 107 C53 88 51 70 51 56 C51 5 75 -11 111 -11 C173 -11 270 43 327 198 L328 198 L300 77 C296 54 292 37 292 22 C292 2 299 -11 322 -11 C375 -11 434 40 461 79 L455 88 Z " />
<glyph glyph-name="ucircumflex" unicode="&#xfb;" horiz-adv-x="506" d="M213 528 L326 613 L400 529 L403 529 L417 538 L418 541 L354 688 L329 688 L200 543 L199 540 L210 528 L213 528 Z M455 88 C428 53 403 36 382 36 C374 36 372 40 372 49 C372 58 375 72 379 91 L460 466 L385 466 L339 250 L338 250 C275 104 208 40 156 40 C134 40 128 51 128 69 C128 79 129 91 132 104 L211 477 L203 477 L68 443 L66 431 C117 419 122 410 114 374 L58 107 C53 88 51 70 51 56 C51 5 75 -11 111 -11 C173 -11 270 43 327 198 L328 198 L300 77 C296 54 292 37 292 22 C292 2 299 -11 322 -11 C375 -11 434 40 461 79 L455 88 Z " />
<glyph glyph-name="udieresis" unicode="&#xfc;" horiz-adv-x="506" d="M239 556 C271 556 299 584 299 616 C299 642 279 659 254 659 C222 659 195 631 195 600 C195 572 215 556 239 556 L239 556 Z M387 556 C419 556 448 584 448 616 C448 642 428 659 402 659 C370 659 343 631 343 600 C343 572 364 556 387 556 L387 556 Z M455 88 C428 53 403 36 382 36 C374 36 372 40 372 49 C372 58 375 72 379 91 L460 466 L385 466 L339 250 L338 250 C275 104 208 40 156 40 C134 40 128 51 128 69 C128 79 129 91 132 104 L211 477 L203 477 L68 443 L66 431 C117 419 122 410 114 374 L58 107 C53 88 51 70 51 56 C51 5 75 -11 111 -11 C173 -11 270 43 327 198 L328 198 L300 77 C296 54 292 37 292 22 C292 2 299 -11 322 -11 C375 -11 434 40 461 79 L455 88 Z " />
<glyph glyph-name="thorn" unicode="&#xfe;" horiz-adv-x="464" d="M119 -3 C317 78 447 216 447 360 C447 421 405 477 321 477 C285 477 250 469 215 454 L264 690 L256 690 L124 656 L122 645 C162 635 172 628 172 612 C172 605 170 598 168 587 L130 410 C101 391 70 369 38 345 L45 326 C72 344 98 361 123 376 L16 -131 C7 -172 -7 -184 -58 -188 L-60 -198 L144 -198 L146 -188 C90 -183 83 -175 92 -131 L119 -3 Z M287 431 C336 431 364 404 364 350 C364 233 273 102 124 21 L207 416 C233 426 260 431 287 431 L287 431 Z " />
<glyph glyph-name="dotlessi" unicode="&#x131;" horiz-adv-x="253" d="M69 -11 C121 -11 180 40 208 79 L202 88 C175 53 150 36 129 36 C122 36 118 40 118 47 C118 55 121 68 126 93 L208 477 L200 477 L65 443 L63 431 C114 419 119 410 111 374 L46 75 C42 54 38 34 38 21 C38 0 49 -11 69 -11 L69 -11 Z " />
<glyph glyph-name="OE" unicode="&#x152;" horiz-adv-x="875" d="M573 680 C530 680 471 689 415 689 C232 689 61 478 61 259 C61 105 138 -10 291 -10 C345 -10 389 0 431 0 L751 0 L821 207 L811 207 L776 148 C735 80 696 25 573 24 C500 23 485 37 495 86 L552 353 L633 350 C684 348 694 330 701 244 L713 244 L758 467 L748 467 C718 392 677 378 634 376 L556 373 L615 651 L711 648 C811 645 822 611 840 567 L859 517 L869 517 L884 680 L573 680 Z M420 127 C404 53 367 16 306 16 C213 16 141 121 141 270 C141 489 247 651 396 651 C432 651 481 642 522 608 L420 127 Z " />
<glyph glyph-name="oe" unicode="&#x153;" horiz-adv-x="671" d="M428 38 C389 38 370 75 370 147 C370 160 371 174 373 189 C568 264 659 366 659 427 C659 460 634 477 602 477 C525 477 444 424 383 350 C375 429 324 477 265 477 C154 477 27 323 27 141 C27 46 74 -11 137 -11 C189 -11 241 22 284 71 C293 17 326 -10 372 -10 C428 -10 539 38 623 117 L620 126 C533 61 468 38 428 38 L428 38 Z M171 18 C126 18 110 87 110 173 C110 332 174 447 238 447 C281 447 301 393 301 307 C301 146 238 18 171 18 L171 18 Z M532 435 C565 435 577 414 577 387 C577 344 528 280 377 209 C397 312 463 435 532 435 L532 435 Z " />
<glyph glyph-name="Utilde" unicode="&#x168;" horiz-adv-x="638" d="M316 759 C338 780 352 802 362 802 C391 802 477 762 520 762 C540 762 567 803 603 855 L594 860 C580 843 563 822 550 822 C520 822 431 862 390 862 C371 862 345 829 307 765 L316 759 Z M284 -10 C417 -10 506 75 536 216 L618 601 C629 651 631 661 703 670 L705 680 L528 680 L526 670 C570 665 583 658 583 637 C583 630 582 622 580 614 L503 224 C479 103 409 38 308 38 C212 38 174 78 174 147 C174 163 176 180 180 199 L266 599 C277 652 281 662 350 670 L352 680 L124 680 L122 670 C171 664 185 657 185 636 C185 627 182 615 179 599 L93 199 C89 179 87 160 87 143 C87 42 160 -10 284 -10 L284 -10 Z " />
<glyph glyph-name="utilde" unicode="&#x169;" horiz-adv-x="506" d="M223 588 C252 588 338 548 381 548 C401 548 428 589 464 641 L455 646 C441 629 424 608 411 608 C381 608 292 648 251 648 C232 648 206 615 168 551 L177 545 C199 566 213 588 223 588 L223 588 Z M382 36 C374 36 372 40 372 49 C372 58 375 72 379 91 L460 466 L385 466 L339 250 L338 250 C275 104 208 40 156 40 C134 40 128 51 128 69 C128 79 129 91 132 104 L211 477 L203 477 L68 443 L66 431 C117 419 122 410 114 374 L58 107 C53 88 51 70 51 56 C51 5 75 -11 111 -11 C173 -11 270 43 327 198 L328 198 L300 77 C296 54 292 37 292 22 C292 2 299 -11 322 -11 C375 -11 434 40 461 79 L455 88 C428 53 403 36 382 36 L382 36 Z " />
<glyph glyph-name="uni0237" unicode="&#x237;" horiz-adv-x="247" d="M-74 -196 L26 -131 C66 -106 101 -75 112 -24 L218 477 L210 477 L76 442 L73 431 C131 417 128 409 121 373 L33 -41 C23 -87 8 -121 -80 -179 L-74 -196 Z " />
<glyph glyph-name="circumflex" unicode="&#x2c6;" horiz-adv-x="299" d="M260 688 L235 688 L106 543 L105 540 L116 528 L119 528 L232 613 L306 529 L309 529 L323 538 L324 541 L260 688 Z " />
<glyph glyph-name="dotaccent" unicode="&#x2d9;" horiz-adv-x="191" d="M178 578 C208 578 235 601 235 637 C235 672 213 689 183 689 C151 689 126 669 126 629 C126 595 150 578 178 578 L178 578 Z " />
<glyph glyph-name="ring" unicode="&#x2da;" horiz-adv-x="241" d="M181 530 C233 530 283 578 283 628 C283 666 257 690 217 690 C166 690 119 644 119 595 C119 554 147 530 181 530 L181 530 Z M200 550 C177 550 159 573 159 610 C159 644 177 669 201 669 C225 669 244 644 244 611 C244 574 225 550 200 550 L200 550 Z " />
<glyph glyph-name="tilde" unicode="&#x2dc;" horiz-adv-x="357" d="M116 545 C138 566 152 588 162 588 C191 588 277 548 320 548 C340 548 367 589 403 641 L394 646 C380 629 363 608 350 608 C320 608 231 648 190 648 C171 648 145 615 107 551 L116 545 Z " />
<glyph glyph-name="gravecomb" unicode="&#x300;" d="M21 524 L24 535 L23 538 C-60 589 -121 629 -185 683 C-208 673 -217 648 -217 619 C-154 583 -78 548 18 524 L21 524 Z " />
<glyph glyph-name="acutecomb" unicode="&#x301;" d="M-196 524 L-193 524 C-97 548 -22 583 42 619 C42 648 32 673 10 683 C-54 629 -115 589 -198 538 L-199 535 L-196 524 Z " />
<glyph glyph-name="uni0302" unicode="&#x302;" d="M-39 688 L-64 688 L-193 543 L-194 540 L-183 528 L-180 528 L-67 613 L7 529 L10 529 L24 538 L25 541 L-39 688 Z " />
<glyph glyph-name="tildecomb" unicode="&#x303;" d="M-241 545 C-219 566 -205 588 -195 588 C-166 588 -80 548 -37 548 C-17 548 10 589 46 641 L37 646 C23 629 6 608 -7 608 C-37 608 -126 648 -167 648 C-186 648 -212 615 -250 551 L-241 545 Z " />
<glyph glyph-name="uni0307" unicode="&#x307;" d="M-13 578 C17 578 44 601 44 637 C44 672 22 689 -8 689 C-40 689 -65 669 -65 629 C-65 595 -41 578 -13 578 L-13 578 Z " />
<glyph glyph-name="uni0308" unicode="&#x308;" d="M-168 556 C-136 556 -108 584 -108 616 C-108 642 -128 659 -153 659 C-185 659 -212 631 -212 600 C-212 572 -192 556 -168 556 L-168 556 Z M-20 556 C12 556 41 584 41 616 C41 642 21 659 -5 659 C-37 659 -64 631 -64 600 C-64 572 -43 556 -20 556 L-20 556 Z " />
<glyph glyph-name="uni030A" unicode="&#x30a;" d="M-60 530 C-8 530 42 578 42 628 C42 666 16 690 -24 690 C-75 690 -122 644 -122 595 C-122 554 -94 530 -60 530 L-60 530 Z M-41 550 C-64 550 -82 573 -82 610 C-82 644 -64 669 -40 669 C-16 669 3 644 3 611 C3 574 -16 550 -41 550 L-41 550 Z " />
<glyph glyph-name="uni0327" unicode="&#x327;" d="M-197 -49 L-153 10 L-187 10 L-223 -38 C-252 -78 -258 -84 -258 -88 C-258 -94 -251 -98 -234 -110 C-203 -134 -184 -151 -184 -169 C-184 -187 -202 -199 -225 -199 C-251 -199 -315 -174 -339 -151 L-344 -151 L-365 -200 C-335 -217 -280 -224 -253 -224 C-182 -224 -122 -188 -122 -142 C-122 -114 -144 -85 -197 -49 L-197 -49 Z " />
<glyph glyph-name="endash" unicode="&#x2013;" horiz-adv-x="417" d="M374 223 L381 258 L46 258 L39 223 L374 223 Z " />
<glyph glyph-name="emdash" unicode="&#x2014;" horiz-adv-x="652" d="M609 223 L616 258 L46 258 L39 223 L609 223 Z " />
<glyph glyph-name="quoteleft" unicode="&#x2018;" horiz-adv-x="217" d="M157 426 C188 426 220 454 235 491 C204 498 175 517 175 550 C175 609 250 665 277 685 L276 690 C160 628 95 558 95 493 C95 454 122 426 157 426 L157 426 Z " />
<glyph glyph-name="quoteright" unicode="&#x2019;" horiz-adv-x="217" d="M199 690 C168 690 136 662 121 625 C152 618 180 599 180 566 C180 507 106 451 78 431 L80 426 C196 488 260 558 260 623 C260 662 233 690 199 690 L199 690 Z " />
<glyph glyph-name="quotesinglbase" unicode="&#x201a;" horiz-adv-x="230" d="M-48 -152 C73 -87 133 -18 133 46 C133 84 112 112 72 112 C39 112 8 83 -6 47 C27 39 53 19 53 -12 C53 -70 -23 -127 -50 -147 L-48 -152 Z " />
<glyph glyph-name="quotedblleft" unicode="&#x201c;" horiz-adv-x="405" d="M152 426 C183 426 216 454 230 491 C199 498 171 517 171 550 C171 609 245 665 273 685 L271 690 C155 628 91 558 91 493 C91 454 118 426 152 426 L152 426 Z M349 426 C379 426 412 454 427 491 C396 498 367 517 367 550 C367 609 442 665 469 685 L467 690 C351 628 287 558 287 493 C287 454 314 426 349 426 L349 426 Z " />
<glyph glyph-name="quotedblright" unicode="&#x201d;" horiz-adv-x="405" d="M194 690 C164 690 131 662 116 625 C147 618 176 599 176 566 C176 507 101 451 74 431 L76 426 C192 488 256 558 256 623 C256 662 229 690 194 690 L194 690 Z M391 690 C360 690 327 662 313 625 C344 618 372 599 372 566 C372 507 298 451 270 431 L272 426 C388 488 452 558 452 623 C452 662 425 690 391 690 L391 690 Z " />
<glyph glyph-name="quotedblbase" unicode="&#x201e;" horiz-adv-x="420" d="M-48 -152 C73 -87 133 -18 133 46 C133 84 112 112 72 112 C39 112 8 83 -6 47 C27 39 53 19 53 -12 C53 -70 -23 -127 -50 -147 L-48 -152 Z M142 -152 C263 -87 322 -18 322 46 C322 84 301 112 262 112 C229 112 197 83 184 47 C217 39 242 19 242 -12 C242 -70 167 -127 140 -147 L142 -152 Z " />
<glyph glyph-name="bullet" unicode="&#x2022;" horiz-adv-x="210" d="M116 268 C163 268 212 314 212 366 C212 404 185 433 144 433 C97 433 49 391 49 341 C49 298 75 268 116 268 L116 268 Z " />
<glyph glyph-name="ellipsis" unicode="&#x2026;" horiz-adv-x="534" d="M60 -10 C97 -10 127 22 127 61 C127 96 106 119 77 119 C39 119 10 85 10 46 C10 9 31 -10 60 -10 L60 -10 Z M220 -10 C257 -10 287 22 287 61 C287 96 266 119 237 119 C199 119 170 85 170 46 C170 9 191 -10 220 -10 L220 -10 Z M381 -10 C418 -10 448 22 448 61 C448 96 427 119 398 119 C361 119 331 85 331 46 C331 9 352 -10 381 -10 L381 -10 Z " />
<glyph glyph-name="guilsinglleft" unicode="&#x2039;" horiz-adv-x="291" d="M284 407 L278 412 C201 345 139 297 46 239 L44 230 C111 173 153 127 203 60 L211 65 C185 135 161 185 132 235 C182 286 226 335 284 407 L284 407 Z " />
<glyph glyph-name="guilsinglright" unicode="&#x203a;" horiz-adv-x="291" d="M90 412 L82 407 C107 337 132 287 161 237 C111 186 67 137 9 65 L15 60 C91 127 154 175 247 233 L249 242 C182 299 139 345 90 412 L90 412 Z " />
<glyph glyph-name="fraction" unicode="&#x2044;" horiz-adv-x="46" d="M250 680 L-179 0 L-157 0 L272 680 L250 680 Z " />
<glyph glyph-name="Euro" unicode="&#x20ac;" horiz-adv-x="580" d="M479 690 C360 690 238 571 176 419 L109 419 L102 384 L163 384 C155 360 149 336 144 311 L86 311 L79 276 L138 276 C135 255 134 233 134 212 C134 74 200 -10 305 -10 C357 -10 437 19 472 50 L512 227 L502 227 C444 85 393 17 333 17 C264 17 223 87 223 211 C223 233 224 254 226 276 L456 276 L463 311 L229 311 C233 336 237 360 242 384 L479 384 L486 419 L251 419 C267 476 288 526 314 566 C348 620 391 654 436 654 C502 654 545 617 566 519 L575 519 L593 651 C569 673 530 690 479 690 L479 690 Z " />
<glyph glyph-name="trademark" unicode="&#x2122;" horiz-adv-x="699" d="M278 663 L297 663 C326 663 336 653 341 635 L355 585 L359 585 L372 687 L367 687 L349 680 L153 680 L136 687 L132 687 L101 585 L107 585 L141 634 C161 663 182 663 197 663 L214 663 L161 413 C156 390 155 388 108 381 L106 371 L263 371 L265 381 C219 386 220 392 225 413 L278 663 Z M725 630 C728 651 730 662 765 670 L768 680 L670 680 L553 467 L511 680 L416 680 L413 670 C446 664 448 649 440 622 L382 426 C372 394 372 387 324 381 L322 371 L435 371 L437 381 C386 385 392 400 400 427 L454 623 L506 370 L515 370 L660 623 L631 414 C628 390 626 386 583 381 L581 371 L735 371 L737 381 C693 385 697 396 699 414 L725 630 Z " />
<glyph glyph-name="oneeighth" unicode="&#x215b;" horiz-adv-x="705" d="M298 319 C231 322 233 340 240 369 L307 682 L303 684 L146 596 L147 592 L222 610 L170 369 C163 336 151 322 89 319 L88 314 L297 314 L298 319 Z M579 680 L150 0 L173 0 L602 680 L579 680 Z M575 210 C628 234 658 271 658 306 C658 341 622 373 571 373 C506 373 441 316 441 263 C441 225 463 204 490 186 C429 165 387 119 387 76 C387 23 433 -5 492 -5 C568 -5 638 59 638 123 C638 165 608 189 575 210 L575 210 Z M551 355 C585 355 607 332 607 300 C607 273 589 244 562 218 C527 239 493 259 493 295 C493 333 522 355 551 355 L551 355 Z M511 13 C468 13 446 45 446 81 C446 122 467 154 504 178 C544 156 587 138 587 92 C587 46 549 13 511 13 L511 13 Z " />
<glyph glyph-name="threeeighths" unicode="&#x215c;" horiz-adv-x="705" d="M332 449 C332 490 301 518 252 531 C281 542 347 571 347 625 C347 661 317 687 273 687 C218 687 170 650 137 600 L139 597 C171 625 201 638 231 638 C258 638 280 623 280 597 C280 555 239 527 182 504 L182 501 C234 491 268 469 268 431 C268 375 217 329 149 321 L134 393 C109 388 90 373 74 360 C78 349 80 342 103 325 C117 314 144 309 163 309 C244 309 332 379 332 449 L332 449 Z M579 680 L150 0 L173 0 L602 680 L579 680 Z M575 210 C628 234 658 271 658 306 C658 341 622 373 571 373 C506 373 441 316 441 263 C441 225 463 204 490 186 C429 165 387 119 387 76 C387 23 433 -5 492 -5 C568 -5 638 59 638 123 C638 165 608 189 575 210 L575 210 Z M551 355 C584 355 607 332 607 300 C607 273 589 244 562 218 C527 239 493 259 493 295 C493 333 522 355 551 355 L551 355 Z M511 13 C468 13 446 45 446 81 C446 122 467 154 504 178 C544 156 587 138 587 92 C587 46 549 13 511 13 L511 13 Z " />
<glyph glyph-name="fiveeighths" unicode="&#x215d;" horiz-adv-x="686" d="M330 449 C330 502 289 552 167 568 L189 624 L342 624 L369 699 L367 699 C354 685 338 681 320 681 L195 681 L129 513 L130 511 C225 493 261 464 261 421 C261 366 208 324 153 320 L141 392 C112 389 90 373 78 361 C79 349 88 337 105 326 C119 316 146 309 170 309 C246 309 330 384 330 449 L330 449 Z M559 680 L130 0 L152 0 L581 680 L559 680 Z M555 210 C608 234 638 271 638 306 C638 341 602 373 551 373 C486 373 422 316 422 263 C422 225 444 204 471 187 C409 165 367 119 367 76 C367 23 413 -5 472 -5 C549 -5 618 59 618 123 C618 165 588 189 555 210 L555 210 Z M532 355 C565 355 587 332 587 300 C587 273 569 243 542 217 C507 239 473 259 473 295 C473 333 503 355 532 355 L532 355 Z M492 13 C448 13 426 45 426 81 C426 122 447 154 485 178 C524 156 567 138 567 92 C567 46 529 13 492 13 L492 13 Z " />
<glyph glyph-name="seveneighths" unicode="&#x215e;" horiz-adv-x="707" d="M376 677 L374 680 L166 680 L128 580 L133 580 C158 620 171 620 199 620 L338 620 C249 476 183 395 108 315 L109 313 L187 313 L376 677 Z M580 680 L151 0 L173 0 L602 680 L580 680 Z M576 210 C629 234 659 271 659 306 C659 341 623 373 572 373 C507 373 443 316 443 263 C443 225 465 204 492 187 C430 165 388 119 388 76 C388 23 434 -5 493 -5 C570 -5 639 59 639 123 C639 165 609 189 576 210 L576 210 Z M553 355 C586 355 608 332 608 300 C608 273 590 243 563 217 C528 239 494 259 494 295 C494 333 524 355 553 355 L553 355 Z M513 13 C469 13 447 45 447 81 C447 122 468 154 506 178 C545 156 588 138 588 92 C588 46 550 13 513 13 L513 13 Z " />
<glyph glyph-name="minus" unicode="&#x2212;" horiz-adv-x="580" d="M81 278 L75 251 L514 251 L520 278 L81 278 Z " />
<glyph glyph-name="uniF8FF" unicode="&#xf8ff;" horiz-adv-x="672" d="M607 -132 C614 -128 619 -125 619 -118 C631 -100 614 -68 611 -68 C609 -67 556 -29 524 2 L524 8 C524 12 525 17 522 19 C523 20 487 58 471 71 C457 91 446 111 433 131 C421 152 402 182 394 193 C388 203 359 242 349 257 C334 277 317 299 302 308 C289 316 249 343 232 367 C225 378 216 422 217 438 C219 456 222 466 222 466 C228 480 235 492 240 502 C247 511 257 519 257 531 C255 537 260 547 253 552 C251 552 248 549 248 549 C247 562 251 575 254 585 C257 592 252 600 252 608 C254 613 264 620 258 622 C251 625 258 635 251 635 C244 636 245 649 239 646 C225 636 205 608 203 609 C200 610 205 637 206 648 C205 654 199 651 193 650 C186 648 182 651 180 650 C178 648 161 626 160 625 C158 620 153 599 152 596 C151 592 150 587 149 592 C148 600 157 624 159 641 C157 643 155 642 153 642 C149 639 143 635 141 633 C138 630 133 618 133 618 C133 615 133 605 130 607 C126 611 130 618 130 622 C130 622 129 625 125 625 C120 625 120 626 118 626 C116 619 111 608 109 605 C105 596 98 587 98 578 C97 575 95 578 93 578 C93 578 85 582 85 575 C85 572 85 569 87 565 C90 560 98 554 97 545 C97 545 94 544 92 542 C89 535 107 498 112 489 C112 488 109 488 109 488 C99 488 61 470 54 463 C47 459 31 442 20 432 C18 429 18 423 21 425 C29 432 56 452 87 461 C119 470 131 448 131 448 C131 448 146 425 130 378 C121 343 107 313 109 268 C113 215 137 186 160 159 C180 137 239 69 248 60 C258 51 264 32 269 26 C276 16 280 13 288 5 C289 1 289 -4 289 -9 C289 -14 280 -64 279 -65 C277 -68 271 -68 271 -68 C233 -55 243 -59 232 -57 C228 -57 224 -65 220 -71 C215 -76 223 -81 216 -88 C215 -89 216 -93 216 -93 C216 -93 218 -93 220 -91 C222 -88 225 -89 225 -89 C253 -98 286 -92 288 -92 C290 -91 303 -99 303 -99 C315 -106 328 -112 340 -119 C343 -121 346 -128 351 -123 C353 -119 348 -115 348 -115 C347 -112 329 -100 317 -92 C311 -84 306 -76 298 -71 C297 -66 305 -45 307 -37 C309 -28 309 -11 314 1 C318 7 324 10 334 15 C350 8 364 4 376 -1 C382 -4 386 -4 391 -6 C391 -9 390 -12 390 -15 C390 -15 387 -34 387 -37 L383 -42 C382 -46 374 -45 374 -45 C362 -40 349 -37 336 -32 C332 -35 328 -42 324 -46 C318 -51 327 -58 320 -63 C318 -64 319 -69 320 -70 C320 -70 321 -70 323 -67 C325 -63 330 -65 330 -65 C356 -74 378 -67 391 -68 L407 -76 C419 -83 431 -89 444 -98 C447 -98 451 -105 454 -101 C456 -96 454 -95 451 -92 C448 -89 433 -77 421 -68 C415 -61 410 -51 402 -46 C401 -44 403 -42 403 -40 C403 -38 410 -13 410 -13 L410 -12 C428 -18 440 -25 446 -29 C461 -41 477 -50 489 -66 C512 -88 531 -108 558 -123 C581 -141 600 -135 607 -132 L607 -132 Z " />
<glyph glyph-name="fi" unicode="&#xfb01;" horiz-adv-x="539" d="M314 624 C362 624 427 609 486 577 C499 582 508 598 508 616 C508 659 428 690 367 690 C303 690 256 655 225 603 C197 556 177 511 162 466 L76 466 L75 445 L153 437 C126 347 117 258 108 164 C101 93 92 21 74 -63 C67 -98 48 -119 7 -119 C-16 -119 -40 -111 -54 -103 L-78 -180 C-66 -186 -46 -190 -30 -190 C-1 -190 32 -170 77 -107 C128 -33 170 144 202 312 C211 355 218 398 225 435 L340 435 C395 435 407 418 397 372 L333 75 C328 54 324 34 324 21 C324 0 335 -11 355 -11 C407 -11 466 40 494 79 L488 88 C461 53 436 36 415 36 C408 36 404 40 404 47 C404 55 407 68 412 93 L494 477 L486 477 C448 472 403 466 363 466 L230 466 C236 501 241 529 243 546 C250 610 276 624 314 624 L314 624 Z " />
<glyph glyph-name="fl" unicode="&#xfb02;" horiz-adv-x="549" d="M426 36 C419 36 415 40 415 47 C415 55 418 68 423 94 L551 690 L543 690 L469 658 C435 673 394 690 352 690 C263 690 186 581 164 479 L161 465 L75 445 L75 435 L155 435 C136 341 114 222 108 164 C101 93 92 22 74 -63 C67 -98 48 -119 7 -119 C-16 -119 -41 -111 -54 -103 L-78 -180 C-67 -186 -46 -190 -30 -190 C-1 -190 31 -171 77 -107 C128 -34 168 145 202 311 C211 352 219 393 228 435 L340 435 L347 466 L235 466 L261 592 C269 633 288 656 316 656 C369 656 433 612 453 588 L343 76 C338 54 334 34 334 21 C334 0 345 -11 365 -11 C418 -11 477 40 504 80 L498 88 C471 54 446 36 426 36 L426 36 Z " />
</font>
</svg>
