<?xml version="1.0" encoding="utf-8"?>
<!-- Generator: Adobe Illustrator 19.0.0, SVG Export Plug-In . SVG Version: 6.00 Build 0)  -->
<svg version="1.1" id="Camada_1" xmlns="http://www.w3.org/2000/svg" xmlns:xlink="http://www.w3.org/1999/xlink" x="0px" y="0px"
	 viewBox="0 0 207 48.3" style="enable-background:new 0 0 207 48.3;" xml:space="preserve">
<style type="text/css">
	.st0{fill:#010101;}
</style>
<g id="XMLID_2_">
	<path id="XMLID_14_" class="st0" d="M7.9,41.5V14.9L0,13.3L24.6,0l-2.3,9.8v31.7l7.3,5.9H0.8L7.9,41.5z"/>
	<path id="XMLID_11_" class="st0" d="M55.2,33.1v8.4l6.8,5.9h-29l6.5-5.9V7.7l-6.5-6.4h22.7c14.3,0,23.8,5.9,23.8,16
		c0,10.2-8.4,16-21.8,16C57,33.4,56.1,33.3,55.2,33.1z M55.2,5v25h0.6c4.6,0,7.7-3.3,7.7-11.8C63.5,9.5,61.3,5.9,55.2,5z"/>
	<g id="XMLID_8_">
		<rect id="XMLID_10_" x="88.9" y="14" class="st0" width="22" height="8.4"/>
		<rect id="XMLID_9_" x="88.9" y="27.8" class="st0" width="22" height="8.4"/>
	</g>
	<path id="XMLID_6_" class="st0" d="M155.3,31.7c0,12.3-10.8,16.6-19.4,16.6c-10.1,0-16.5-3.8-16.5-10.2c0-2.7,1.8-6.4,5.7-8
		c3.9,8.2,11,13,14.9,13c2.3,0,3.5-1.4,3.5-3.7c0-5.6-7.5-13-19.1-15.3l-1.6-1.5l6-21.5l20,0.1c4.1,0,4.8-0.3,6.1-1
		c-2.8,12.2-3,13.3-7.7,13.3h-18.3l-1.9,5.8c3.3-1,6.4-1.4,9.3-1.4C146.9,18.1,155.3,23.9,155.3,31.7z"/>
	<path id="XMLID_3_" class="st0" d="M182.5,33.1v8.4l6.8,5.9h-29l6.5-5.9V7.7l-6.5-6.4h22.7c14.3,0,23.8,5.9,23.8,16
		c0,10.2-8.4,16-21.8,16C184.3,33.4,183.4,33.3,182.5,33.1z M182.5,5v25h0.6c4.6,0,7.7-3.3,7.7-11.8C190.8,9.5,188.5,5.9,182.5,5z"
		/>
</g>
</svg>
