<?xml version="1.0" encoding="UTF-8"?>
<svg xmlns="http://www.w3.org/2000/svg" xmlns:xlink="http://www.w3.org/1999/xlink" version="1.2" >
<font id="Reserva Sans Regular">
<font-face  font-family="Reserva Sans" units-per-em="1000" ascent="780" descent="-220" font-style="normal" font-weight="400" font-stretch="normal" cap-height="680" x-height="466" underline-position="-75" underline-thickness="50" />
<missing-glyph  horiz-adv-x="500" d="M410 780 L93 780 L93 -220 L410 -220 L410 780 Z M333 713 L333 680 L267 680 L267 643 L333 643 L333 610 L167 610 L167 643 L233 643 L233 680 L168 680 L168 713 L333 713 Z M267 584 L267 514 L333 514 L333 480 L167 480 L167 584 L267 584 Z M233 550 L200 550 L200 514 L233 514 L233 550 Z M333 453 L333 420 L267 420 L267 350 L167 350 L167 383 L233 383 L233 420 L167 420 L167 453 L333 453 Z M333 393 L333 293 L167 293 L167 327 L300 327 L300 393 L333 393 Z M333 271 L333 158 L167 158 L167 271 L200 271 L200 191 L300 191 L300 238 L267 238 L267 215 L233 215 L233 271 L333 271 Z M333 98 L333 -15 L167 -15 L167 98 L333 98 Z M300 65 L200 65 L200 18 L300 18 L300 65 Z M333 -38 L333 -71 L301 -71 L231 -118 L333 -118 L333 -151 L167 -151 L167 -118 L237 -71 L167 -71 L167 -38 L333 -38 Z " />
<glyph glyph-name="NULL" d="" />
<glyph glyph-name="CR" unicode="&#xd;" horiz-adv-x="250" d="" />
<glyph glyph-name="space" unicode="&#x20;" horiz-adv-x="200" d="" />
<glyph glyph-name="exclam" unicode="&#x21;" horiz-adv-x="307" d="M124 179 L184 179 L202 680 L106 680 L124 179 Z M154 -10 C195 -10 221 10 221 54 C221 95 194 115 157 115 C113 115 86 88 86 49 C86 11 112 -10 154 -10 L154 -10 Z " />
<glyph glyph-name="quotedbl" unicode="&#x22;" horiz-adv-x="398" d="M72 428 L132 428 L170 655 L170 680 L72 680 L72 428 Z M240 428 L300 428 L338 655 L338 680 L240 680 L240 428 Z " />
<glyph glyph-name="numbersign" unicode="&#x23;" horiz-adv-x="538" d="M540 437 L540 494 L432 494 L467 680 L403 680 L368 494 L228 494 L263 680 L199 680 L164 494 L28 494 L28 437 L153 437 L121 264 L-2 264 L-2 206 L110 206 L71 0 L135 0 L174 206 L314 206 L275 0 L339 0 L378 206 L515 206 L515 264 L389 264 L421 437 L540 437 Z M325 264 L185 264 L217 437 L357 437 L325 264 Z " />
<glyph glyph-name="dollar" unicode="&#x24;" horiz-adv-x="580" d="M180 489 C180 539 243 567 323 567 C369 567 420 560 453 553 L471 641 C437 648 393 652 348 652 L338 652 L343 789 L262 783 L268 644 C231 637 196 624 166 605 C111 570 89 529 89 479 C89 311 414 315 414 196 C414 143 347 106 254 106 C194 106 118 121 69 138 L84 47 C121 35 178 26 238 26 L244 26 L238 -109 L319 -103 L312 33 C362 42 408 59 438 83 C484 120 512 159 512 212 C512 372 180 387 180 489 L180 489 Z " />
<glyph glyph-name="percent" unicode="&#x25;" horiz-adv-x="857" d="M182 262 C233 262 274 291 299 329 C322 364 340 419 340 483 C340 606 281 685 192 685 C144 685 108 661 80 622 C51 581 37 522 37 468 C37 343 94 262 182 262 L182 262 Z M225 0 L298 0 L632 680 L559 680 L225 0 Z M188 327 C140 327 114 382 114 484 C114 569 144 620 187 620 C234 620 263 567 263 471 C263 384 235 327 188 327 L188 327 Z M662 -10 C713 -10 754 19 779 57 C802 92 820 147 820 211 C820 334 761 413 672 413 C624 413 588 389 560 350 C531 309 517 250 517 196 C517 71 574 -10 662 -10 L662 -10 Z M668 55 C620 55 594 110 594 212 C594 297 624 348 667 348 C714 348 743 295 743 199 C743 112 715 55 668 55 L668 55 Z " />
<glyph glyph-name="ampersand" unicode="&#x26;" horiz-adv-x="684" d="M675 70 C624 93 573 120 525 151 C580 225 620 319 635 424 L552 441 C538 339 505 256 462 195 C440 211 420 227 401 244 C365 276 332 309 306 341 C306 342 307 342 308 343 C393 400 477 467 477 556 C477 636 411 688 324 688 C216 688 133 606 133 504 C133 456 154 404 189 350 C114 296 52 238 52 152 C52 59 127 -11 243 -11 C323 -11 401 25 466 85 C519 49 574 16 628 -11 L675 70 Z M316 612 C352 612 387 587 387 548 C387 498 337 453 263 401 C238 442 224 482 224 518 C224 573 266 612 316 612 L316 612 Z M260 69 C191 69 148 112 148 166 C148 214 179 249 234 290 C261 257 294 225 329 193 C353 172 378 151 404 130 C358 90 307 69 260 69 L260 69 Z " />
<glyph glyph-name="quotesingle" unicode="&#x27;" horiz-adv-x="230" d="M72 428 L132 428 L170 655 L170 680 L72 680 L72 428 Z " />
<glyph glyph-name="parenleft" unicode="&#x28;" horiz-adv-x="336" d="M228 -106 L305 -106 C215 5 170 146 170 287 C170 428 215 569 305 680 L228 680 C132 569 83 428 83 287 C83 146 132 5 228 -106 L228 -106 Z " />
<glyph glyph-name="parenright" unicode="&#x29;" horiz-adv-x="336" d="M108 -106 C204 5 253 146 253 287 C253 428 204 569 108 680 L31 680 C121 569 166 428 166 287 C166 146 121 5 31 -106 L108 -106 Z " />
<glyph glyph-name="asterisk" unicode="&#x2a;" horiz-adv-x="412" d="M393 510 L367 590 L351 584 L229 524 L249 663 L249 680 L165 680 L165 663 L185 524 L61 585 L45 591 L19 511 L35 505 L170 482 L73 383 L63 370 L131 320 L141 334 L206 459 L272 334 L282 320 L350 370 L340 383 L244 481 L377 504 L393 510 Z " />
<glyph glyph-name="plus" unicode="&#x2b;" horiz-adv-x="580" d="M517 334 L329 334 L329 515 L252 515 L252 334 L64 334 L64 257 L252 257 L252 75 L329 75 L329 257 L517 257 L517 334 Z " />
<glyph glyph-name="comma" unicode="&#x2c;" horiz-adv-x="315" d="M113 -133 C176 -86 209 -35 209 28 C209 61 202 95 188 135 L107 121 C121 83 129 49 129 19 C129 -29 107 -69 64 -111 L113 -133 Z " />
<glyph glyph-name="hyphen" unicode="&#x2d;" horiz-adv-x="389" d="M48 233 L341 233 L341 310 L48 310 L48 233 Z " />
<glyph glyph-name="period" unicode="&#x2e;" horiz-adv-x="289" d="M145 -10 C186 -10 212 10 212 54 C212 95 185 115 148 115 C104 115 77 88 77 49 C77 11 103 -10 145 -10 L145 -10 Z " />
<glyph glyph-name="slash" unicode="&#x2f;" horiz-adv-x="335" d="M-24 -189 L50 -189 L331 680 L257 680 L-24 -189 Z " />
<glyph glyph-name="zero" unicode="0" horiz-adv-x="580" d="M279 -15 C358 -15 419 32 460 103 C500 172 522 264 522 361 C522 558 432 690 296 690 C219 690 158 647 117 577 C79 513 58 429 58 327 C58 121 144 -15 279 -15 L279 -15 Z M287 65 C195 65 148 175 148 339 C148 516 203 610 289 610 C379 610 433 506 433 341 C433 179 381 65 287 65 L287 65 Z " />
<glyph glyph-name="one" unicode="1" horiz-adv-x="580" d="M370 691 C284 611 172 524 74 458 L111 395 C191 443 262 491 334 549 L334 0 L420 0 L420 671 L370 691 Z " />
<glyph glyph-name="two" unicode="2" horiz-adv-x="580" d="M170 80 L284 196 C374 288 489 384 489 510 C489 622 406 691 270 691 C212 691 147 681 103 660 L85 566 C133 595 203 611 256 611 C334 611 396 573 396 503 C396 422 333 366 218 242 L59 70 L83 0 L479 0 L500 100 C446 90 338 80 170 80 L170 80 Z " />
<glyph glyph-name="three" unicode="3" horiz-adv-x="580" d="M343 382 C432 418 473 483 473 544 C473 624 400 691 267 691 C208 691 142 678 100 661 L85 574 C135 595 200 611 257 611 C331 611 378 579 378 525 C378 466 320 410 173 392 L183 316 C199 317 218 318 240 318 C333 318 410 280 410 207 C410 137 338 73 229 73 C170 73 118 81 57 108 L79 12 C120 -3 179 -9 223 -9 C388 -9 506 93 506 217 C506 298 451 367 343 382 L343 382 Z " />
<glyph glyph-name="four" unicode="4" horiz-adv-x="580" d="M536 242 L442 239 L442 678 L371 693 L39 236 L72 157 L354 157 L354 0 L442 0 L442 157 L536 157 L536 242 Z M131 237 L354 545 L354 238 C279 237 205 237 131 237 L131 237 Z " />
<glyph glyph-name="five" unicode="5" horiz-adv-x="580" d="M268 428 C239 428 210 425 180 421 L207 601 L473 601 L473 681 L136 681 L92 379 L143 329 C176 341 214 349 251 349 C355 349 420 296 420 222 C420 144 348 73 240 73 C180 73 129 81 69 108 L90 12 C129 -2 184 -9 233 -9 C398 -9 516 99 516 235 C516 337 426 428 268 428 L268 428 Z " />
<glyph glyph-name="six" unicode="6" horiz-adv-x="580" d="M313 420 C267 420 215 407 170 377 C216 474 315 575 472 638 L419 698 C189 589 52 417 52 236 C52 151 77 90 119 48 C157 9 216 -12 280 -12 C343 -12 412 15 460 65 C498 105 524 158 524 220 C524 335 437 420 313 420 L313 420 Z M286 66 C209 66 141 120 141 257 C141 269 142 282 144 296 C191 328 244 342 290 342 C377 342 432 287 432 207 C432 129 368 66 286 66 L286 66 Z " />
<glyph glyph-name="seven" unicode="7" horiz-adv-x="580" d="M501 680 L75 680 L62 593 C177 597 296 599 411 600 C296 406 200 201 124 0 L223 0 C300 217 401 422 516 620 L501 680 Z " />
<glyph glyph-name="eight" unicode="8" horiz-adv-x="580" d="M381 367 C458 409 501 470 501 537 C501 629 418 695 301 695 C163 695 80 603 80 513 C80 437 125 391 194 355 C102 309 58 238 58 169 C58 64 139 -10 279 -10 C415 -10 522 82 522 197 C522 274 476 323 381 367 L381 367 Z M293 615 C355 615 411 581 411 527 C411 480 376 433 304 398 C220 431 170 466 170 520 C170 576 220 615 293 615 L293 615 Z M290 70 C207 70 155 116 155 183 C155 239 186 287 265 325 C267 325 269 324 271 323 C378 284 426 255 426 189 C426 121 363 70 290 70 L290 70 Z " />
<glyph glyph-name="nine" unicode="9" horiz-adv-x="580" d="M461 641 C423 680 364 701 300 701 C237 701 168 674 120 624 C82 584 56 531 56 469 C56 354 143 269 267 269 C313 269 365 282 410 312 C364 215 265 114 108 51 L161 -9 C391 100 528 272 528 453 C528 538 503 599 461 641 L461 641 Z M148 482 C148 560 212 623 294 623 C371 623 439 569 439 432 C439 420 438 407 436 393 C389 361 336 347 290 347 C203 347 148 402 148 482 L148 482 Z " />
<glyph glyph-name="colon" unicode="&#x3a;" horiz-adv-x="289" d="M145 304 C186 304 212 324 212 368 C212 409 185 429 148 429 C104 429 77 402 77 363 C77 325 103 304 145 304 L145 304 Z M145 -10 C186 -10 212 10 212 54 C212 95 185 115 148 115 C104 115 77 88 77 49 C77 11 103 -10 145 -10 L145 -10 Z " />
<glyph glyph-name="semicolon" unicode="&#x3b;" horiz-adv-x="318" d="M145 303 C186 303 212 323 212 367 C212 408 185 428 148 428 C104 428 77 401 77 362 C77 324 103 303 145 303 L145 303 Z M113 -133 C176 -86 209 -35 209 28 C209 61 202 95 188 135 L107 121 C121 83 129 49 129 19 C129 -29 107 -69 64 -111 L113 -133 Z " />
<glyph glyph-name="less" unicode="&#x3c;" horiz-adv-x="540" d="M487 423 L462 494 L53 312 L53 252 L462 69 L487 141 L164 282 L487 423 Z " />
<glyph glyph-name="equal" unicode="&#x3d;" horiz-adv-x="540" d="M59 375 L482 375 L482 452 L59 452 L59 375 Z M59 135 L482 135 L482 212 L59 212 L59 135 Z " />
<glyph glyph-name="greater" unicode="&#x3e;" horiz-adv-x="540" d="M78 494 L53 423 L376 282 L53 141 L78 69 L487 252 L487 312 L78 494 Z " />
<glyph glyph-name="question" unicode="&#x3f;" horiz-adv-x="484" d="M226 691 C167 691 102 678 62 661 L47 566 C99 591 158 607 212 607 C289 607 338 576 338 520 C338 462 284 407 161 332 L167 203 L239 203 L250 297 C374 375 435 445 435 537 C435 622 366 691 226 691 L226 691 Z M207 115 C163 115 136 88 136 49 C136 11 162 -10 204 -10 C245 -10 271 10 271 54 C271 95 244 115 207 115 L207 115 Z " />
<glyph glyph-name="at" unicode="&#x40;" horiz-adv-x="822" d="M430 599 C215 599 30 434 30 203 C30 -17 173 -140 378 -140 C438 -140 495 -132 548 -110 L581 -34 C519 -63 461 -74 389 -74 C229 -74 105 27 105 215 C105 399 254 535 430 535 C602 535 717 420 717 273 C717 165 675 100 618 100 C582 100 556 121 556 178 C556 188 557 201 559 223 L573 386 C538 413 477 432 419 432 C306 432 216 335 216 205 C216 100 284 40 357 40 C408 40 457 65 485 109 C497 65 537 34 601 34 C710 34 792 129 792 276 C792 464 644 599 430 599 L430 599 Z M378 106 C328 106 301 149 301 215 C301 305 351 365 416 365 C445 365 469 359 489 349 L473 164 C453 129 421 106 378 106 L378 106 Z " />
<glyph glyph-name="A" unicode="A" horiz-adv-x="651" d="M554 192 L376 686 L270 680 L31 0 L121 0 L193 220 L454 220 L466 185 C486 128 514 41 536 -9 L621 12 C604 48 583 111 554 192 L554 192 Z M218 294 L319 601 L428 294 L218 294 Z " />
<glyph glyph-name="B" unicode="B" horiz-adv-x="608" d="M418 378 C475 404 520 464 520 523 C520 605 454 680 295 680 L105 680 L105 0 L323 0 C451 0 557 87 557 191 C557 277 511 352 418 378 L418 378 Z M195 600 L276 600 C381 600 425 564 425 502 C425 459 387 414 330 397 L195 399 L195 600 Z M377 78 L195 78 L195 324 L334 324 C424 311 470 266 470 201 C470 127 423 98 377 78 L377 78 Z " />
<glyph glyph-name="C" unicode="C" horiz-adv-x="621" d="M356 -15 C424 -15 502 3 542 27 L573 124 C536 96 448 65 386 65 C239 65 153 133 153 329 C153 511 254 609 390 609 C445 609 508 592 551 570 L565 668 C533 679 464 690 418 690 C312 690 225 658 164 587 C95 517 63 411 63 303 C63 96 183 -15 356 -15 L356 -15 Z " />
<glyph glyph-name="D" unicode="D" horiz-adv-x="726" d="M310 680 L105 680 L105 0 L295 0 C495 0 663 143 663 357 C663 557 548 680 310 680 L310 680 Z M337 78 L195 78 L195 600 L285 600 C474 600 569 513 569 354 C569 190 469 98 337 78 L337 78 Z " />
<glyph glyph-name="E" unicode="E" horiz-adv-x="541" d="M195 80 L195 328 L442 328 L445 406 L195 406 L195 600 L470 600 L475 680 L105 680 L105 0 L486 0 L491 80 L195 80 Z " />
<glyph glyph-name="F" unicode="F" horiz-adv-x="502" d="M456 600 L461 680 L105 680 L105 0 L195 0 L195 297 L428 297 L431 375 L195 375 L195 600 L456 600 Z " />
<glyph glyph-name="G" unicode="G" horiz-adv-x="675" d="M516 80 C483 73 444 68 405 68 C247 68 154 133 154 329 C154 511 259 606 413 606 C471 606 544 595 586 574 L602 670 C564 680 493 690 436 690 C325 690 231 653 164 583 C97 512 63 407 63 311 C63 101 184 -10 378 -10 C453 -10 551 5 597 27 L597 295 L516 295 L516 80 Z " />
<glyph glyph-name="H" unicode="H" horiz-adv-x="717" d="M522 680 L522 395 L195 395 L195 680 L105 680 L105 0 L195 0 L195 319 L522 319 L522 0 L612 0 L612 680 L522 680 Z " />
<glyph glyph-name="I" unicode="I" horiz-adv-x="290" d="M100 0 L190 0 L190 680 L100 680 L100 0 Z " />
<glyph glyph-name="J" unicode="J" horiz-adv-x="386" d="M48 -9 C124 -5 178 15 219 49 C256 79 281 122 281 200 L281 680 L192 680 L192 187 C192 110 140 76 38 69 L48 -9 Z " />
<glyph glyph-name="K" unicode="K" horiz-adv-x="636" d="M594 -1 L295 341 L567 680 L457 680 L195 332 L195 680 L105 680 L105 0 L195 0 L195 330 L479 -9 L594 -1 Z " />
<glyph glyph-name="L" unicode="L" horiz-adv-x="505" d="M195 80 L195 680 L105 680 L105 0 L466 0 L476 80 L195 80 Z " />
<glyph glyph-name="M" unicode="M" horiz-adv-x="862" d="M784 6 L728 684 L630 680 L430 120 L240 684 L140 680 L75 0 L161 0 L201 548 L393 -3 L460 0 L658 539 L698 -3 L784 6 Z " />
<glyph glyph-name="N" unicode="N" horiz-adv-x="756" d="M568 679 L568 167 L173 684 L105 680 L105 0 L190 0 L190 516 L583 -5 L651 8 L651 683 L568 679 Z " />
<glyph glyph-name="O" unicode="O" horiz-adv-x="745" d="M363 -15 C448 -15 534 19 594 89 C650 153 682 245 682 357 C682 565 555 689 383 689 C297 689 219 657 160 596 C93 528 63 438 63 328 C63 95 214 -15 363 -15 L363 -15 Z M370 64 C231 64 153 168 153 344 C153 505 237 609 370 609 C508 609 592 507 592 332 C592 168 508 64 370 64 L370 64 Z " />
<glyph glyph-name="P" unicode="P" horiz-adv-x="563" d="M286 680 L105 680 L105 0 L195 0 L195 269 C218 266 252 262 283 262 C337 262 400 277 443 314 C490 356 518 421 518 486 C518 593 444 680 286 680 L286 680 Z M290 342 C261 342 221 346 195 353 L195 601 L279 601 C380 601 424 556 424 474 C424 391 381 342 290 342 L290 342 Z " />
<glyph glyph-name="Q" unicode="Q" horiz-adv-x="737" d="M453 -2 C506 14 555 44 594 89 C650 153 682 245 682 357 C682 565 555 689 383 689 C297 689 219 657 160 596 C93 528 63 438 63 328 C63 101 207 -9 352 -15 C444 -99 563 -165 645 -205 L647 -205 L707 -118 L707 -114 C639 -100 529 -50 453 -2 L453 -2 Z M153 344 C153 505 237 609 370 609 C508 609 592 507 592 332 C592 168 508 64 370 64 C231 64 153 168 153 344 L153 344 Z " />
<glyph glyph-name="R" unicode="R" horiz-adv-x="614" d="M364 315 C434 356 505 418 505 514 C505 605 437 680 299 680 L105 680 L105 0 L195 0 L195 291 L279 288 C341 185 408 90 478 0 L593 0 L593 6 C510 101 433 205 364 315 L364 315 Z M195 600 L262 600 C363 600 411 564 411 498 C411 446 378 400 303 364 L195 368 L195 600 Z " />
<glyph glyph-name="S" unicode="S" horiz-adv-x="528" d="M206 -10 C279 -10 356 10 406 51 C449 87 480 142 480 200 C480 297 383 345 296 389 C224 424 158 457 158 511 C158 568 217 601 299 601 C340 601 389 594 422 586 L440 678 C409 685 371 690 328 690 C259 690 200 673 150 637 C100 601 74 545 74 496 C74 400 164 358 248 317 C322 282 392 249 392 183 C392 119 325 75 230 75 C169 75 98 91 49 109 L64 13 C96 -1 140 -10 206 -10 L206 -10 Z " />
<glyph glyph-name="T" unicode="T" horiz-adv-x="505" d="M477 680 L35 680 L29 600 L210 600 L210 0 L299 0 L299 600 L472 600 L477 680 Z " />
<glyph glyph-name="U" unicode="U" horiz-adv-x="676" d="M320 -16 C381 -16 453 4 503 45 C556 89 583 143 583 219 L583 680 L494 680 L494 194 C494 116 432 61 342 61 C254 61 195 94 195 182 L195 680 L105 680 L105 162 C105 50 190 -16 320 -16 L320 -16 Z " />
<glyph glyph-name="V" unicode="V" horiz-adv-x="668" d="M520 680 L328 83 L143 690 L51 680 L271 -5 L383 0 L617 680 L520 680 Z " />
<glyph glyph-name="W" unicode="W" horiz-adv-x="947" d="M805 680 L663 112 L588 401 C564 492 541 584 517 675 L433 675 L285 117 L225 377 C200 477 167 608 147 690 L51 668 C68 615 98 504 133 375 L234 0 L319 0 L471 540 C486 485 501 429 515 374 L612 0 L704 0 L896 680 L805 680 Z " />
<glyph glyph-name="X" unicode="X" horiz-adv-x="622" d="M590 683 L491 683 L315 411 L132 698 L39 668 L264 338 L32 0 L133 0 L310 275 L496 -11 L590 9 L361 348 L590 683 Z " />
<glyph glyph-name="Y" unicode="Y" horiz-adv-x="562" d="M445 680 L292 377 L123 688 L27 680 L244 308 L244 0 L333 0 L333 315 L543 680 L445 680 Z " />
<glyph glyph-name="Z" unicode="Z" horiz-adv-x="560" d="M144 81 L511 611 L490 680 L74 680 L58 593 L404 600 L42 69 L66 0 L498 0 L516 84 L144 81 Z " />
<glyph glyph-name="bracketleft" unicode="&#x5b;" horiz-adv-x="336" d="M281 614 L281 680 L91 680 L91 -106 L281 -106 L281 -40 L177 -40 L177 614 L281 614 Z " />
<glyph glyph-name="backslash" unicode="&#x5c;" horiz-adv-x="335" d="M359 -189 L78 680 L4 680 L285 -189 L359 -189 Z " />
<glyph glyph-name="bracketright" unicode="&#x5d;" horiz-adv-x="336" d="M245 680 L55 680 L55 614 L159 614 L159 -40 L55 -40 L55 -106 L245 -106 L245 680 Z " />
<glyph glyph-name="underscore" unicode="&#x5f;" horiz-adv-x="580" d="M0 -184 L580 -184 L580 -110 L0 -110 L0 -184 Z " />
<glyph glyph-name="grave" unicode="&#x60;" horiz-adv-x="351" d="M289 542 L292 542 L311 589 L311 592 C231 622 154 660 75 702 L70 702 L40 618 C123 588 205 560 289 542 L289 542 Z " />
<glyph glyph-name="a" unicode="a" horiz-adv-x="478" d="M406 58 C396 58 393 63 393 71 L393 347 C393 411 365 476 247 476 C193 476 123 467 94 459 L74 377 C126 389 182 398 228 398 C277 398 313 377 313 328 L313 278 L207 257 C151 246 110 226 83 199 C59 175 47 142 47 109 C47 39 91 -9 154 -9 C202 -9 259 20 313 72 L315 42 C317 3 341 -10 368 -10 C393 -10 427 -4 448 2 L459 69 C432 61 413 58 406 58 L406 58 Z M130 122 C130 168 161 193 218 198 L313 206 L313 134 C256 85 213 65 181 65 C148 65 130 88 130 122 L130 122 Z " />
<glyph glyph-name="b" unicode="b" horiz-adv-x="510" d="M287 473 C246 473 205 459 176 441 L157 429 L154 429 L154 690 L74 675 L74 30 C102 5 153 -11 212 -11 C289 -11 349 18 390 60 C435 106 461 176 461 265 C461 395 400 473 287 473 L287 473 Z M236 67 C206 67 174 73 154 82 L154 363 C187 379 223 393 264 393 C333 393 376 342 376 249 C376 116 324 67 236 67 L236 67 Z " />
<glyph glyph-name="c" unicode="c" horiz-adv-x="432" d="M240 -11 C292 -11 347 4 379 24 L401 110 L398 110 C365 86 312 66 262 66 C181 66 130 118 130 223 C130 336 189 399 281 399 C312 399 349 388 371 376 L390 460 C368 469 333 476 290 476 C222 476 158 446 116 396 C72 344 49 281 49 208 C49 71 124 -11 240 -11 L240 -11 Z " />
<glyph glyph-name="d" unicode="d" horiz-adv-x="508" d="M436 141 L436 680 L356 668 L356 466 C334 472 307 476 280 476 C225 476 168 453 122 404 C74 353 49 288 49 193 C49 70 116 -10 215 -10 C272 -10 324 14 359 53 L361 53 C365 32 372 8 380 -9 L458 10 C446 41 436 91 436 141 L436 141 Z M235 65 C174 65 133 107 133 218 C133 339 185 399 266 399 C298 399 332 388 356 373 L356 119 C330 92 285 65 235 65 L235 65 Z " />
<glyph glyph-name="e" unicode="e" horiz-adv-x="476" d="M425 109 C396 86 341 67 292 67 C195 67 135 108 130 223 C130 226 130 230 131 233 L418 231 C423 257 427 299 427 322 C427 415 363 477 267 477 C213 477 157 453 115 405 C69 353 49 288 49 223 C49 78 131 -10 277 -10 C320 -10 380 6 410 27 L429 109 L425 109 Z M254 399 C316 399 353 364 356 299 L135 292 C151 369 202 399 254 399 L254 399 Z " />
<glyph glyph-name="f" unicode="f" horiz-adv-x="305" d="M187 567 C187 591 201 603 225 603 C245 603 263 600 279 597 L300 686 L249 690 C205 685 181 678 152 652 C112 616 103 579 103 530 L103 466 L33 466 L24 400 L103 400 L103 0 L187 0 L187 400 L286 400 L296 466 L187 466 L187 567 Z " />
<glyph glyph-name="g" unicode="g" horiz-adv-x="461" d="M335 73 L209 93 C170 99 152 104 152 115 C152 123 164 132 200 154 C205 153 211 153 216 153 C317 153 407 222 407 315 C407 354 387 394 356 410 L356 414 L442 410 L452 473 L314 473 C204 473 143 451 106 417 C69 385 50 345 50 298 C50 235 88 185 149 164 C76 125 56 104 56 83 C56 61 76 42 137 33 C49 0 24 -45 24 -89 C24 -156 110 -202 210 -202 C279 -202 348 -183 395 -150 C438 -120 467 -79 467 -30 C467 27 424 59 335 73 L335 73 Z M227 403 C287 403 321 368 321 310 C321 260 281 214 231 214 C171 214 137 252 137 309 C137 363 172 403 227 403 L227 403 Z M229 -134 C161 -134 109 -107 109 -64 C109 -33 136 -4 205 23 L288 11 C343 3 374 -15 374 -48 C374 -93 320 -134 229 -134 L229 -134 Z " />
<glyph glyph-name="h" unicode="h" horiz-adv-x="506" d="M78 0 L159 0 L159 372 C209 392 248 400 281 400 C324 400 353 382 353 328 L353 0 L433 0 L433 336 C433 431 381 477 305 477 C257 477 201 458 154 433 L153 433 L151 688 L78 680 L78 0 Z " />
<glyph glyph-name="i" unicode="i" horiz-adv-x="248" d="M120 576 C153 576 181 600 181 637 C181 672 158 690 126 690 C91 690 65 669 65 628 C65 594 89 576 120 576 L120 576 Z M84 0 L164 0 L164 471 L84 463 L84 0 Z " />
<glyph glyph-name="j" unicode="j" horiz-adv-x="252" d="M123 576 C156 576 184 600 184 637 C184 672 161 690 129 690 C94 690 68 669 68 628 C68 594 92 576 123 576 L123 576 Z M27 -190 C69 -184 98 -170 122 -150 C147 -130 168 -100 168 -63 L168 474 L84 466 L84 -62 C84 -96 64 -113 38 -113 C23 -113 14 -112 -5 -108 L-17 -184 L27 -190 Z " />
<glyph glyph-name="k" unicode="k" horiz-adv-x="469" d="M472 1 L257 255 L340 337 C380 377 426 429 450 466 L348 466 C326 434 299 397 268 364 L163 253 L163 690 L83 681 L83 0 L163 0 L163 244 L371 -7 L472 1 Z " />
<glyph glyph-name="l" unicode="l" horiz-adv-x="228" d="M74 0 L154 0 L154 690 L74 681 L74 0 Z " />
<glyph glyph-name="m" unicode="m" horiz-adv-x="750" d="M551 477 C505 477 450 459 407 417 C385 459 344 477 301 477 C257 477 211 461 163 416 L160 416 C158 435 154 459 152 475 L78 466 C84 423 88 382 88 343 L88 0 L169 0 L169 369 C210 389 247 400 276 400 C308 400 342 382 342 331 L342 0 L423 0 L423 343 C423 352 422 361 421 369 C465 389 498 400 530 400 C561 400 596 382 596 331 L596 0 L677 0 L677 343 C677 437 617 477 551 477 L551 477 Z " />
<glyph glyph-name="n" unicode="n" horiz-adv-x="515" d="M88 0 L168 0 L168 372 C216 391 249 400 289 400 C334 400 362 383 362 327 L362 0 L442 0 L442 339 C442 433 391 477 305 477 C258 477 202 458 163 423 L160 423 C158 437 155 464 152 475 L78 466 C84 423 88 383 88 343 L88 0 Z " />
<glyph glyph-name="o" unicode="o" horiz-adv-x="518" d="M242 -11 C304 -11 363 15 402 57 C444 102 469 167 469 249 C469 394 389 477 269 477 C210 477 149 452 105 398 C64 348 49 292 49 225 C49 69 138 -11 242 -11 L242 -11 Z M263 67 C177 67 130 123 130 244 C130 342 176 399 252 399 C340 399 383 345 383 225 C383 125 340 67 263 67 L263 67 Z " />
<glyph glyph-name="p" unicode="p" horiz-adv-x="497" d="M284 475 C227 475 179 450 148 417 L146 417 L146 416 C143 431 136 463 133 474 L53 464 C60 430 67 359 67 298 L67 -193 L147 -183 L147 -2 C170 -8 197 -11 222 -11 C281 -11 340 14 386 61 C429 105 457 171 457 263 C457 385 389 475 284 475 L284 475 Z M242 66 C207 66 173 74 147 85 L147 366 C173 385 211 399 252 399 C321 399 373 355 373 244 C373 137 323 66 242 66 L242 66 Z " />
<glyph glyph-name="q" unicode="q" horiz-adv-x="503" d="M289 477 C222 477 162 448 123 406 C76 357 49 293 49 201 C49 73 111 -7 215 -7 C277 -7 322 17 357 47 L360 47 L360 -193 L440 -183 L440 431 C411 454 355 477 289 477 L289 477 Z M237 73 C173 73 134 114 134 226 C134 342 188 399 258 399 C295 399 335 389 360 375 L360 128 C320 91 284 73 237 73 L237 73 Z " />
<glyph glyph-name="r" unicode="r" horiz-adv-x="341" d="M90 0 L170 0 L170 323 C206 362 227 374 259 377 L299 370 L321 467 L280 479 C242 473 207 454 165 391 L163 391 C161 418 154 459 150 478 L73 466 C80 429 90 348 90 275 L90 0 Z " />
<glyph glyph-name="s" unicode="s" horiz-adv-x="430" d="M183 -11 C244 -11 298 3 334 32 C366 57 388 92 388 140 C388 203 335 238 240 279 C185 302 143 321 143 354 C143 383 177 398 220 398 C263 398 314 390 349 381 L361 461 C331 469 288 477 246 477 C197 477 148 464 112 436 C80 412 64 376 64 343 C64 282 102 256 188 215 C273 175 309 157 309 126 C309 90 269 67 215 67 C163 67 99 83 45 108 L54 15 C84 0 137 -11 183 -11 L183 -11 Z " />
<glyph glyph-name="t" unicode="t" horiz-adv-x="353" d="M314 87 C274 68 244 61 227 61 C200 61 184 74 184 97 L184 395 L312 395 L309 466 L184 466 L184 609 L103 579 L103 466 L26 466 L21 395 L103 395 L103 86 C103 27 131 -11 201 -11 C233 -11 275 -2 304 13 L316 87 L314 87 Z " />
<glyph glyph-name="u" unicode="u" horiz-adv-x="508" d="M420 466 L341 466 L341 94 C295 75 261 66 224 66 C170 66 153 94 153 139 L153 466 L73 466 L73 127 C73 33 122 -11 202 -11 C250 -11 302 12 343 46 L346 46 C349 25 353 3 356 -9 L430 0 C424 43 420 87 420 123 L420 466 Z " />
<glyph glyph-name="v" unicode="v" horiz-adv-x="446" d="M345 466 L224 97 L174 262 C154 328 121 415 104 473 L21 449 C36 411 70 328 93 257 L177 0 L256 0 L428 466 L345 466 Z " />
<glyph glyph-name="w" unicode="w" horiz-adv-x="663" d="M561 466 L469 80 L420 267 L369 462 L295 462 L197 92 L152 282 L107 473 L21 459 C35 416 57 335 78 257 L149 0 L233 0 L327 338 C337 294 345 267 353 239 L419 0 L509 0 L642 466 L561 466 Z " />
<glyph glyph-name="x" unicode="x" horiz-adv-x="450" d="M432 466 L339 466 L230 294 L117 481 L34 451 L184 232 L21 0 L117 0 L227 174 L340 -10 L430 9 L272 236 L432 466 Z " />
<glyph glyph-name="y" unicode="y" horiz-adv-x="463" d="M358 466 L235 85 L164 296 C108 464 128 408 107 473 L23 459 L85 283 L183 10 L202 7 L185 -39 C166 -90 130 -114 103 -114 C78 -114 61 -112 32 -106 L49 -195 L92 -199 C132 -192 164 -180 198 -149 C230 -119 251 -73 275 -7 L443 466 L358 466 Z " />
<glyph glyph-name="z" unicode="z" horiz-adv-x="436" d="M157 75 L392 419 L385 466 L66 466 L57 389 L276 391 L45 46 L62 0 L389 0 L402 79 L157 75 Z " />
<glyph glyph-name="braceleft" unicode="&#x7b;" horiz-adv-x="354" d="M226 -116 L293 -109 L313 -35 C292 -41 266 -42 245 -42 C212 -42 191 -26 191 14 C191 67 222 158 222 222 C222 257 203 284 161 287 L161 289 C201 296 222 321 222 360 C222 413 183 498 183 558 C183 598 210 618 241 618 C261 618 281 612 295 605 L317 678 C295 685 264 690 236 690 C160 690 98 639 98 567 C98 492 136 398 136 360 C136 337 124 323 103 323 L70 323 L66 251 L103 251 C124 251 136 237 136 213 C136 169 98 62 98 -4 C98 -72 155 -116 226 -116 L226 -116 Z " />
<glyph glyph-name="bar" unicode="&#x7c;" horiz-adv-x="302" d="M116 -174 L186 -174 L186 760 L116 760 L116 -174 Z " />
<glyph glyph-name="braceright" unicode="&#x7d;" horiz-adv-x="354" d="M128 690 L61 683 L41 609 C62 615 88 616 109 616 C142 616 163 600 163 560 C163 507 132 416 132 352 C132 317 151 290 193 287 L193 285 C153 278 132 253 132 214 C132 161 171 76 171 16 C171 -24 144 -44 113 -44 C93 -44 73 -38 59 -31 L37 -104 C59 -111 90 -116 118 -116 C194 -116 256 -65 256 7 C256 82 218 176 218 214 C218 237 230 251 251 251 L284 251 L288 323 L251 323 C230 323 218 337 218 361 C218 405 256 512 256 578 C256 646 199 690 128 690 L128 690 Z " />
<glyph glyph-name="exclamdown" unicode="&#xa1;" horiz-adv-x="307" d="M153 476 C112 476 86 456 86 412 C86 371 113 351 150 351 C194 351 221 378 221 417 C221 455 195 476 153 476 L153 476 Z M183 287 L123 287 L105 -214 L201 -214 L183 287 Z " />
<glyph glyph-name="cent" unicode="&#xa2;" horiz-adv-x="580" d="M486 210 L483 210 C446 186 385 166 328 166 C238 166 178 218 178 323 C178 436 247 499 343 499 C383 499 428 488 454 475 L475 560 C450 568 414 575 373 576 L379 733 L297 727 L304 570 C250 559 201 533 168 497 C119 444 94 381 94 308 C94 176 173 96 291 89 L284 -63 L361 -60 L353 92 C396 97 436 110 463 125 L486 210 Z " />
<glyph glyph-name="sterling" unicode="&#xa3;" horiz-adv-x="580" d="M209 81 C238 109 258 167 258 239 C258 261 256 285 252 308 L434 308 L434 376 L239 376 C227 428 215 476 215 511 C215 572 250 608 327 608 C369 608 427 597 469 585 L484 666 C428 683 384 690 341 690 C230 690 126 609 126 491 C126 457 134 417 143 376 L86 376 L86 308 L158 308 C168 268 175 231 175 202 C175 139 157 81 95 62 L116 1 L485 1 L494 81 L209 81 Z " />
<glyph glyph-name="yen" unicode="&#xa5;" horiz-adv-x="580" d="M548 680 L450 680 L300 371 L126 680 L32 680 L220 363 L96 363 L96 293 L253 293 L253 207 L96 207 L96 136 L253 136 L253 0 L342 0 L342 136 L498 136 L498 207 L342 207 L342 293 L498 293 L498 363 L369 363 L548 680 Z " />
<glyph glyph-name="section" unicode="&#xa7;" horiz-adv-x="538" d="M362 112 C442 143 490 196 490 259 C490 408 157 434 157 535 C157 579 211 608 283 608 C325 608 377 598 409 586 L422 678 C395 684 350 690 309 690 C243 690 189 674 150 648 C98 613 73 564 73 523 C73 458 124 420 186 390 C107 368 49 313 49 244 C49 84 380 86 380 -29 C380 -79 313 -116 228 -116 C176 -116 101 -98 65 -80 L76 -175 C103 -186 155 -194 209 -194 C267 -194 338 -179 385 -145 C430 -112 460 -66 460 -14 C460 46 417 84 362 112 L362 112 Z M129 255 C129 305 197 340 280 340 C288 340 298 340 309 339 C360 315 400 289 400 248 C400 201 362 163 270 152 C196 180 129 206 129 255 L129 255 Z " />
<glyph glyph-name="dieresis" unicode="&#xa8;" horiz-adv-x="363" d="M95 578 C128 578 156 602 156 639 C156 674 133 692 101 692 C66 692 40 671 40 630 C40 596 64 578 95 578 L95 578 Z M262 578 C295 578 323 602 323 639 C323 674 300 692 268 692 C233 692 207 671 207 630 C207 596 231 578 262 578 L262 578 Z " />
<glyph glyph-name="copyright" unicode="&#xa9;" horiz-adv-x="802" d="M402 -8 C613 -8 763 130 763 337 C763 561 581 690 401 690 C221 690 39 562 39 337 C39 122 197 -8 402 -8 L402 -8 Z M404 44 C240 44 95 160 95 341 C95 522 240 638 402 638 C558 638 707 531 707 340 C707 149 561 44 404 44 L404 44 Z M410 162 C446 162 482 174 502 190 L509 245 L506 245 C494 230 454 217 421 217 C349 217 290 255 290 338 C290 421 343 466 424 466 C448 466 476 461 493 452 L508 506 C483 515 455 520 428 520 C304 520 228 438 228 332 C228 218 315 162 410 162 L410 162 Z " />
<glyph glyph-name="ordfeminine" unicode="&#xaa;" horiz-adv-x="387" d="M328 419 C320 419 317 424 317 430 L317 591 C317 636 302 694 196 694 C156 694 101 689 72 682 L55 608 C94 617 137 625 174 625 C212 625 239 611 239 577 L239 561 L167 545 C94 529 34 500 34 435 C34 386 69 354 118 354 C158 354 202 373 240 404 L241 398 C245 365 264 353 289 353 C311 353 338 358 357 366 L366 427 C349 422 333 419 328 419 L328 419 Z M114 453 C114 478 144 492 177 496 L239 504 L239 455 C201 430 172 418 149 418 C128 418 114 432 114 453 L114 453 Z " />
<glyph glyph-name="guillemotleft" unicode="&#xab;" horiz-adv-x="548" d="M290 411 L192 411 L46 235 L46 226 L192 51 L290 51 L137 231 L290 411 Z M517 411 L419 411 L273 235 L273 226 L419 51 L517 51 L364 231 L517 411 Z " />
<glyph glyph-name="logicalnot" unicode="&#xac;" horiz-adv-x="540" d="M493 429 L47 429 L47 352 L419 352 L419 133 L493 133 L493 429 Z " />
<glyph glyph-name="registered" unicode="&#xae;" horiz-adv-x="532" d="M265 690 C161 690 49 611 49 480 C49 349 161 271 265 271 C369 271 483 349 483 480 C483 611 369 690 265 690 L265 690 Z M267 315 C182 315 95 379 95 481 C95 582 178 647 265 647 C352 647 436 588 436 481 C436 375 352 315 267 315 L267 315 Z M347 530 C347 563 322 587 271 587 L189 587 L189 389 L233 389 L233 462 L270 459 L311 389 L365 389 L365 391 L311 474 C334 488 347 507 347 530 L347 530 Z M233 547 L267 547 C287 547 299 538 299 524 C299 512 290 501 275 496 L233 498 L233 547 Z " />
<glyph glyph-name="degree" unicode="&#xb0;" horiz-adv-x="385" d="M192 351 C287 351 365 425 365 520 C365 615 287 690 192 690 C98 690 20 615 20 520 C20 425 98 351 192 351 L192 351 Z M192 423 C140 423 100 463 100 520 C100 578 140 617 192 617 C244 617 285 578 285 520 C285 462 244 423 192 423 L192 423 Z " />
<glyph glyph-name="acute" unicode="&#xb4;" horiz-adv-x="351" d="M276 702 C203 661 125 625 40 592 L40 589 L59 542 L62 542 C151 563 234 589 311 618 L281 702 L276 702 Z " />
<glyph glyph-name="paragraph" unicode="&#xb6;" horiz-adv-x="546" d="M45 459 C45 354 103 274 204 274 C233 274 258 281 277 290 L277 117 C277 -27 252 -92 165 -176 L190 -201 C292 -128 328 -15 328 117 L328 680 L248 689 C128 665 45 580 45 459 L45 459 Z M390 680 L390 0 L441 0 L441 680 L390 680 Z " />
<glyph glyph-name="periodcentered" unicode="&#xb7;" horiz-adv-x="289" d="M145 200 C186 200 212 220 212 264 C212 305 185 325 148 325 C104 325 77 298 77 259 C77 221 103 200 145 200 L145 200 Z " />
<glyph glyph-name="cedilla" unicode="&#xb8;" horiz-adv-x="290" d="M153 -41 L173 0 L116 0 L84 -71 L85 -72 C141 -89 178 -108 178 -130 C178 -149 161 -164 126 -164 C97 -164 63 -157 40 -148 L47 -206 C70 -214 96 -218 128 -218 C190 -218 250 -183 250 -128 C250 -89 219 -63 153 -41 L153 -41 Z " />
<glyph glyph-name="ordmasculine" unicode="&#xba;" horiz-adv-x="436" d="M205 346 C257 346 305 365 340 397 C375 429 397 473 397 529 C397 629 326 690 230 690 C174 690 123 669 88 634 C54 600 39 559 39 511 C39 402 115 346 205 346 L205 346 Z M219 416 C158 416 121 450 121 521 C121 591 157 621 215 621 C277 621 312 587 312 517 C312 448 278 416 219 416 L219 416 Z " />
<glyph glyph-name="guillemotright" unicode="&#xbb;" horiz-adv-x="548" d="M290 246 L144 421 L46 421 L199 241 L46 61 L144 61 L290 237 L290 246 Z M371 421 L273 421 L426 241 L273 61 L371 61 L517 237 L517 246 L371 421 Z " />
<glyph glyph-name="onequarter" unicode="&#xbc;" horiz-adv-x="857" d="M261 270 L261 675 L211 686 C168 658 109 626 51 599 L80 547 C116 560 153 576 187 593 L187 270 L261 270 Z M559 680 L225 0 L298 0 L632 680 L559 680 Z M829 151 C809 150 789 149 769 149 L769 404 L708 415 L508 149 L531 88 L695 88 L695 -2 L769 -2 L769 88 L829 88 L829 151 Z M574 147 L695 307 L695 148 C655 147 614 147 574 147 L574 147 Z " />
<glyph glyph-name="onehalf" unicode="&#xbd;" horiz-adv-x="857" d="M261 270 L261 675 L211 686 C168 658 109 626 51 599 L80 547 C116 560 153 576 187 593 L187 270 L261 270 Z M559 680 L225 0 L298 0 L632 680 L559 680 Z M615 62 L678 126 C744 193 799 238 799 305 C799 372 744 413 661 413 C623 413 578 405 548 393 L534 322 C568 336 609 346 647 346 C687 346 719 327 719 291 C719 249 680 216 623 158 L521 54 L542 -2 L791 -2 L806 72 C756 67 708 65 615 62 L615 62 Z " />
<glyph glyph-name="threequarters" unicode="&#xbe;" horiz-adv-x="857" d="M329 405 C329 453 296 494 230 504 C285 526 308 562 308 596 C308 644 264 685 179 685 C137 685 96 677 70 667 L57 597 C89 609 129 618 163 618 C200 618 228 604 228 575 C228 546 194 517 110 506 L117 451 C197 458 247 439 247 396 C247 361 207 330 145 330 C109 330 77 335 42 349 L58 276 C82 268 120 265 144 265 C250 265 329 328 329 405 L329 405 Z M559 680 L225 0 L298 0 L632 680 L559 680 Z M829 151 C809 150 789 149 769 149 L769 404 L708 415 L508 149 L531 88 L695 88 L695 -2 L769 -2 L769 88 L829 88 L829 151 Z M574 147 L695 307 L695 148 C655 147 614 147 574 147 L574 147 Z " />
<glyph glyph-name="questiondown" unicode="&#xbf;" horiz-adv-x="484" d="M275 351 C319 351 346 378 346 417 C346 455 320 476 278 476 C237 476 211 456 211 412 C211 371 238 351 275 351 L275 351 Z M270 -141 C193 -141 144 -110 144 -54 C144 4 198 59 321 134 L315 263 L243 263 L232 169 C108 91 47 21 47 -71 C47 -156 116 -225 256 -225 C315 -225 380 -212 420 -195 L435 -100 C383 -125 324 -141 270 -141 L270 -141 Z " />
<glyph glyph-name="Agrave" unicode="&#xc0;" horiz-adv-x="651" d="M433 756 L452 803 L452 806 C372 836 295 874 216 916 L211 916 L181 832 C264 802 346 774 430 756 L433 756 Z M554 192 L376 686 L270 680 L31 0 L121 0 L193 220 L454 220 L466 185 C486 128 514 41 536 -9 L621 12 C604 48 583 111 554 192 L554 192 Z M218 294 L319 601 L428 294 L218 294 Z " />
<glyph glyph-name="Aacute" unicode="&#xc1;" horiz-adv-x="651" d="M212 756 C301 777 384 803 461 832 L431 916 L426 916 C353 875 275 839 190 806 L190 803 L209 756 L212 756 Z M554 192 L376 686 L270 680 L31 0 L121 0 L193 220 L454 220 L466 185 C486 128 514 41 536 -9 L621 12 C604 48 583 111 554 192 L554 192 Z M218 294 L319 601 L428 294 L218 294 Z " />
<glyph glyph-name="Acircumflex" unicode="&#xc2;" horiz-adv-x="651" d="M211 741 L322 835 C360 800 398 771 443 741 L446 741 L484 770 L484 773 C407 852 381 882 348 919 L301 919 L168 769 L168 766 L208 741 L211 741 Z M554 192 L376 686 L270 680 L31 0 L121 0 L193 220 L454 220 L466 185 C486 128 514 41 536 -9 L621 12 C604 48 583 111 554 192 L554 192 Z M218 294 L319 601 L428 294 L218 294 Z " />
<glyph glyph-name="Atilde" unicode="&#xc3;" horiz-adv-x="651" d="M268 787 C304 787 342 746 387 746 C427 746 463 779 487 832 L436 867 C417 837 401 824 381 824 C346 824 304 864 264 864 C225 864 190 835 165 789 L206 745 C228 773 247 787 268 787 L268 787 Z M554 192 L376 686 L270 680 L31 0 L121 0 L193 220 L454 220 L466 185 C486 128 514 41 536 -9 L621 12 C604 48 583 111 554 192 L554 192 Z M218 294 L319 601 L428 294 L218 294 Z " />
<glyph glyph-name="Adieresis" unicode="&#xc4;" horiz-adv-x="651" d="M233 772 C266 772 294 796 294 833 C294 868 271 886 239 886 C204 886 178 865 178 824 C178 790 202 772 233 772 L233 772 Z M405 772 C438 772 466 796 466 833 C466 868 443 886 411 886 C376 886 350 865 350 824 C350 790 374 772 405 772 L405 772 Z M554 192 L376 686 L270 680 L31 0 L121 0 L193 220 L454 220 L466 185 C486 128 514 41 536 -9 L621 12 C604 48 583 111 554 192 L554 192 Z M218 294 L319 601 L428 294 L218 294 Z " />
<glyph glyph-name="Aring" unicode="&#xc5;" horiz-adv-x="651" d="M327 745 C386 745 434 782 434 844 C434 905 386 944 327 944 C267 944 218 905 218 844 C218 782 267 745 327 745 L327 745 Z M327 891 C351 891 371 878 371 844 C371 810 351 796 327 796 C301 796 281 810 281 844 C281 878 301 891 327 891 L327 891 Z M554 192 L376 686 L270 680 L31 0 L121 0 L193 220 L454 220 L466 185 C486 128 514 41 536 -9 L621 12 C604 48 583 111 554 192 L554 192 Z M218 294 L319 601 L428 294 L218 294 Z " />
<glyph glyph-name="AE" unicode="&#xc6;" horiz-adv-x="894" d="M548 80 L548 328 L795 328 L798 406 L548 406 L548 600 L823 600 L828 680 L491 680 L409 684 L16 0 L113 0 L229 208 L458 208 L458 0 L839 0 L844 80 L548 80 Z M270 282 L458 621 L458 282 L270 282 Z " />
<glyph glyph-name="Ccedilla" unicode="&#xc7;" horiz-adv-x="621" d="M542 27 L573 124 C536 96 448 65 386 65 C239 65 153 133 153 329 C153 511 254 609 390 609 C445 609 508 592 551 570 L565 668 C533 679 464 690 418 690 C312 690 225 658 164 587 C95 517 63 411 63 303 C63 108 170 -2 327 -14 L301 -71 L302 -72 C358 -89 395 -108 395 -130 C395 -149 378 -164 343 -164 C314 -164 280 -157 257 -148 L264 -206 C287 -214 313 -218 345 -218 C407 -218 467 -183 467 -128 C467 -89 436 -63 370 -41 L383 -14 C444 -10 507 6 542 27 L542 27 Z " />
<glyph glyph-name="Egrave" unicode="&#xc8;" horiz-adv-x="541" d="M400 756 L419 803 L419 806 C339 836 262 874 183 916 L178 916 L148 832 C231 802 313 774 397 756 L400 756 Z M195 80 L195 328 L442 328 L445 406 L195 406 L195 600 L470 600 L475 680 L105 680 L105 0 L486 0 L491 80 L195 80 Z " />
<glyph glyph-name="Eacute" unicode="&#xc9;" horiz-adv-x="541" d="M179 756 C268 777 351 803 428 832 L398 916 L393 916 C320 875 242 839 157 806 L157 803 L176 756 L179 756 Z M195 80 L195 328 L442 328 L445 406 L195 406 L195 600 L470 600 L475 680 L105 680 L105 0 L486 0 L491 80 L195 80 Z " />
<glyph glyph-name="Ecircumflex" unicode="&#xca;" horiz-adv-x="541" d="M178 741 L289 835 C327 800 365 771 410 741 L413 741 L451 770 L451 773 C374 852 348 882 315 919 L268 919 L135 769 L135 766 L175 741 L178 741 Z M195 80 L195 328 L442 328 L445 406 L195 406 L195 600 L470 600 L475 680 L105 680 L105 0 L486 0 L491 80 L195 80 Z " />
<glyph glyph-name="Edieresis" unicode="&#xcb;" horiz-adv-x="541" d="M200 772 C233 772 261 796 261 833 C261 868 238 886 206 886 C171 886 145 865 145 824 C145 790 169 772 200 772 L200 772 Z M372 772 C405 772 433 796 433 833 C433 868 410 886 378 886 C343 886 317 865 317 824 C317 790 341 772 372 772 L372 772 Z M195 80 L195 328 L442 328 L445 406 L195 406 L195 600 L470 600 L475 680 L105 680 L105 0 L486 0 L491 80 L195 80 Z " />
<glyph glyph-name="Igrave" unicode="&#xcc;" horiz-adv-x="290" d="M58 912 L53 912 L22 837 C80 804 143 774 212 747 L215 747 L234 798 L234 801 C171 836 111 872 58 912 L58 912 Z M100 0 L190 0 L190 680 L100 680 L100 0 Z " />
<glyph glyph-name="Iacute" unicode="&#xcd;" horiz-adv-x="290" d="M252 912 C199 872 139 836 76 801 L76 798 L95 747 L98 747 C167 774 230 804 288 837 L257 912 L252 912 Z M100 0 L190 0 L190 680 L100 680 L100 0 Z " />
<glyph glyph-name="Icircumflex" unicode="&#xce;" horiz-adv-x="290" d="M166 919 L121 919 L12 769 L12 766 L46 741 L49 741 L141 836 C174 801 204 773 243 741 L246 741 L278 770 L278 773 C218 852 198 878 166 919 L166 919 Z M100 0 L190 0 L190 680 L100 680 L100 0 Z " />
<glyph glyph-name="Idieresis" unicode="&#xcf;" horiz-adv-x="290" d="M52 772 C85 772 113 796 113 833 C113 868 90 886 58 886 C23 886 -3 865 -3 824 C-3 790 21 772 52 772 L52 772 Z M224 772 C257 772 285 796 285 833 C285 868 262 886 230 886 C195 886 169 865 169 824 C169 790 193 772 224 772 L224 772 Z M100 0 L190 0 L190 680 L100 680 L100 0 Z " />
<glyph glyph-name="Eth" unicode="&#xd0;" horiz-adv-x="726" d="M310 680 L105 680 L105 386 L38 386 L38 309 L105 309 L105 0 L295 0 C495 0 663 143 663 357 C663 557 548 680 310 680 L310 680 Z M337 78 L195 78 L195 309 L383 309 L383 386 L195 386 L195 600 L285 600 C474 600 569 513 569 354 C569 190 469 98 337 78 L337 78 Z " />
<glyph glyph-name="Ntilde" unicode="&#xd1;" horiz-adv-x="756" d="M320 787 C356 787 394 746 439 746 C479 746 515 779 539 832 L488 867 C469 837 453 824 433 824 C398 824 356 864 316 864 C277 864 242 835 217 789 L258 745 C280 773 299 787 320 787 L320 787 Z M568 679 L568 167 L173 684 L105 680 L105 0 L190 0 L190 516 L583 -5 L651 8 L651 683 L568 679 Z " />
<glyph glyph-name="Ograve" unicode="&#xd2;" horiz-adv-x="745" d="M466 756 L469 756 L488 803 L488 806 C408 836 331 874 252 916 L247 916 L217 832 C300 802 382 774 466 756 L466 756 Z M363 -15 C448 -15 534 19 594 89 C650 153 682 245 682 357 C682 565 555 689 383 689 C297 689 219 657 160 596 C93 528 63 438 63 328 C63 95 214 -15 363 -15 L363 -15 Z M370 64 C231 64 153 168 153 344 C153 505 237 609 370 609 C508 609 592 507 592 332 C592 168 508 64 370 64 L370 64 Z " />
<glyph glyph-name="Oacute" unicode="&#xd3;" horiz-adv-x="745" d="M462 916 C389 875 311 839 226 806 L226 803 L245 756 L248 756 C337 777 420 803 497 832 L467 916 L462 916 Z M363 -15 C448 -15 534 19 594 89 C650 153 682 245 682 357 C682 565 555 689 383 689 C297 689 219 657 160 596 C93 528 63 438 63 328 C63 95 214 -15 363 -15 L363 -15 Z M370 64 C231 64 153 168 153 344 C153 505 237 609 370 609 C508 609 592 507 592 332 C592 168 508 64 370 64 L370 64 Z " />
<glyph glyph-name="Ocircumflex" unicode="&#xd4;" horiz-adv-x="745" d="M247 741 L358 835 C396 800 434 771 479 741 L482 741 L520 770 L520 773 C443 852 417 882 384 919 L337 919 L204 769 L204 766 L244 741 L247 741 Z M383 689 C297 689 219 657 160 596 C93 528 63 438 63 328 C63 95 214 -15 363 -15 C448 -15 534 19 594 89 C650 153 682 245 682 357 C682 565 555 689 383 689 L383 689 Z M370 64 C231 64 153 168 153 344 C153 505 237 609 370 609 C508 609 592 507 592 332 C592 168 508 64 370 64 L370 64 Z " />
<glyph glyph-name="Otilde" unicode="&#xd5;" horiz-adv-x="745" d="M242 745 C264 773 283 787 304 787 C340 787 378 746 423 746 C463 746 499 779 523 832 L472 867 C453 837 437 824 417 824 C382 824 340 864 300 864 C261 864 226 835 201 789 L242 745 Z M363 -15 C448 -15 534 19 594 89 C650 153 682 245 682 357 C682 565 555 689 383 689 C297 689 219 657 160 596 C93 528 63 438 63 328 C63 95 214 -15 363 -15 L363 -15 Z M370 64 C231 64 153 168 153 344 C153 505 237 609 370 609 C508 609 592 507 592 332 C592 168 508 64 370 64 L370 64 Z " />
<glyph glyph-name="Odieresis" unicode="&#xd6;" horiz-adv-x="745" d="M269 772 C302 772 330 796 330 833 C330 868 307 886 275 886 C240 886 214 865 214 824 C214 790 238 772 269 772 L269 772 Z M441 772 C474 772 502 796 502 833 C502 868 479 886 447 886 C412 886 386 865 386 824 C386 790 410 772 441 772 L441 772 Z M363 -15 C448 -15 534 19 594 89 C650 153 682 245 682 357 C682 565 555 689 383 689 C297 689 219 657 160 596 C93 528 63 438 63 328 C63 95 214 -15 363 -15 L363 -15 Z M370 64 C231 64 153 168 153 344 C153 505 237 609 370 609 C508 609 592 507 592 332 C592 168 508 64 370 64 L370 64 Z " />
<glyph glyph-name="multiply" unicode="&#xd7;" horiz-adv-x="540" d="M478 431 L423 485 L270 331 L121 480 L66 426 L214 276 L62 122 L116 68 L269 222 L419 72 L474 126 L324 276 L478 431 Z " />
<glyph glyph-name="Oslash" unicode="&#xd8;" horiz-adv-x="745" d="M593 606 L668 723 L603 769 L529 654 C486 677 437 689 383 689 C297 689 219 657 160 596 C93 528 63 438 63 328 C63 213 100 128 155 71 L79 -48 L144 -94 L219 22 C263 -3 313 -15 363 -15 C448 -15 534 19 594 89 C650 153 682 245 682 357 C682 464 649 548 593 606 L593 606 Z M153 344 C153 505 237 609 370 609 C413 609 450 599 482 580 L203 146 C170 194 153 261 153 344 L153 344 Z M370 64 C329 64 293 73 263 91 L541 525 C574 478 592 413 592 332 C592 168 508 64 370 64 L370 64 Z " />
<glyph glyph-name="Ugrave" unicode="&#xd9;" horiz-adv-x="676" d="M446 756 L449 756 L468 803 L468 806 C388 836 311 874 232 916 L227 916 L197 832 C280 802 362 774 446 756 L446 756 Z M320 -16 C381 -16 453 4 503 45 C556 89 583 143 583 219 L583 680 L494 680 L494 194 C494 116 432 61 342 61 C254 61 195 94 195 182 L195 680 L105 680 L105 162 C105 50 190 -16 320 -16 L320 -16 Z " />
<glyph glyph-name="Uacute" unicode="&#xda;" horiz-adv-x="676" d="M442 916 C369 875 291 839 206 806 L206 803 L225 756 L228 756 C317 777 400 803 477 832 L447 916 L442 916 Z M320 -16 C381 -16 453 4 503 45 C556 89 583 143 583 219 L583 680 L494 680 L494 194 C494 116 432 61 342 61 C254 61 195 94 195 182 L195 680 L105 680 L105 162 C105 50 190 -16 320 -16 L320 -16 Z " />
<glyph glyph-name="Ucircumflex" unicode="&#xdb;" horiz-adv-x="676" d="M227 741 L338 835 C376 800 414 771 459 741 L462 741 L500 770 L500 773 C423 852 397 882 364 919 L317 919 L184 769 L184 766 L224 741 L227 741 Z M494 680 L494 194 C494 116 432 61 342 61 C254 61 195 94 195 182 L195 680 L105 680 L105 162 C105 50 190 -16 320 -16 C381 -16 453 4 503 45 C556 89 583 143 583 219 L583 680 L494 680 Z " />
<glyph glyph-name="Udieresis" unicode="&#xdc;" horiz-adv-x="676" d="M249 772 C282 772 310 796 310 833 C310 868 287 886 255 886 C220 886 194 865 194 824 C194 790 218 772 249 772 L249 772 Z M421 772 C454 772 482 796 482 833 C482 868 459 886 427 886 C392 886 366 865 366 824 C366 790 390 772 421 772 L421 772 Z M320 -16 C381 -16 453 4 503 45 C556 89 583 143 583 219 L583 680 L494 680 L494 194 C494 116 432 61 342 61 C254 61 195 94 195 182 L195 680 L105 680 L105 162 C105 50 190 -16 320 -16 L320 -16 Z " />
<glyph glyph-name="Thorn" unicode="&#xde;" horiz-adv-x="563" d="M286 560 C256 560 225 557 195 550 L195 680 L105 680 L105 0 L195 0 L195 149 C218 146 252 142 283 142 C337 142 400 157 443 194 C491 235 518 301 518 366 C518 473 444 560 286 560 L286 560 Z M290 222 C261 222 221 226 195 233 L195 473 C225 479 253 481 279 481 C380 481 424 436 424 354 C424 271 381 222 290 222 L290 222 Z " />
<glyph glyph-name="germandbls" unicode="&#xdf;" horiz-adv-x="499" d="M324 -11 C375 -11 412 6 442 35 C466 59 484 91 484 137 C484 203 448 237 393 278 C346 313 319 338 319 371 C319 427 423 462 423 560 C423 634 366 688 265 688 C152 688 74 622 74 494 L74 0 L158 0 L158 497 C158 580 194 623 264 623 C313 623 341 596 341 554 C341 475 240 446 239 355 C238 300 281 266 327 230 C376 193 405 170 405 127 C405 87 376 61 339 61 C299 61 255 81 220 109 L231 13 C252 1 285 -11 324 -11 L324 -11 Z " />
<glyph glyph-name="agrave" unicode="&#xe0;" horiz-adv-x="478" d="M333 542 L352 589 L352 592 C272 622 195 660 116 702 L111 702 L81 618 C164 588 246 560 330 542 L333 542 Z M406 58 C396 58 393 63 393 71 L393 347 C393 411 365 476 247 476 C193 476 123 467 94 459 L74 377 C126 389 182 398 228 398 C277 398 313 377 313 328 L313 278 L207 257 C151 246 110 226 83 199 C59 175 47 142 47 109 C47 39 91 -9 154 -9 C202 -9 259 20 313 72 L315 42 C317 3 341 -10 368 -10 C393 -10 427 -4 448 2 L459 69 C432 61 413 58 406 58 L406 58 Z M130 122 C130 168 161 193 218 198 L313 206 L313 134 C256 85 213 65 181 65 C148 65 130 88 130 122 L130 122 Z " />
<glyph glyph-name="aacute" unicode="&#xe1;" horiz-adv-x="478" d="M112 542 C201 563 284 589 361 618 L331 702 L326 702 C253 661 175 625 90 592 L90 589 L109 542 L112 542 Z M406 58 C396 58 393 63 393 71 L393 347 C393 411 365 476 247 476 C193 476 123 467 94 459 L74 377 C126 389 182 398 228 398 C277 398 313 377 313 328 L313 278 L207 257 C151 246 110 226 83 199 C59 175 47 142 47 109 C47 39 91 -9 154 -9 C202 -9 259 20 313 72 L315 42 C317 3 341 -10 368 -10 C393 -10 427 -4 448 2 L459 69 C432 61 413 58 406 58 L406 58 Z M130 122 C130 168 161 193 218 198 L313 206 L313 134 C256 85 213 65 181 65 C148 65 130 88 130 122 L130 122 Z " />
<glyph glyph-name="acircumflex" unicode="&#xe2;" horiz-adv-x="478" d="M111 527 L222 621 C260 586 298 557 343 527 L346 527 L384 556 L384 559 C307 638 281 668 248 705 L201 705 L68 555 L68 552 L108 527 L111 527 Z M406 58 C396 58 393 63 393 71 L393 347 C393 411 365 476 247 476 C193 476 123 467 94 459 L74 377 C126 389 182 398 228 398 C277 398 313 377 313 328 L313 278 L207 257 C151 246 110 226 83 199 C59 175 47 142 47 109 C47 39 91 -9 154 -9 C202 -9 259 20 313 72 L315 42 C317 3 341 -10 368 -10 C393 -10 427 -4 448 2 L459 69 C432 61 413 58 406 58 L406 58 Z M130 122 C130 168 161 193 218 198 L313 206 L313 134 C256 85 213 65 181 65 C148 65 130 88 130 122 L130 122 Z " />
<glyph glyph-name="atilde" unicode="&#xe3;" horiz-adv-x="478" d="M168 603 C204 603 242 562 287 562 C327 562 363 595 387 648 L336 683 C317 653 301 640 281 640 C246 640 204 680 164 680 C125 680 90 651 65 605 L106 561 C128 589 147 603 168 603 L168 603 Z M406 58 C396 58 393 63 393 71 L393 347 C393 411 365 476 247 476 C193 476 123 467 94 459 L74 377 C126 389 182 398 228 398 C277 398 313 377 313 328 L313 278 L207 257 C151 246 110 226 83 199 C59 175 47 142 47 109 C47 39 91 -9 154 -9 C202 -9 259 20 313 72 L315 42 C317 3 341 -10 368 -10 C393 -10 427 -4 448 2 L459 69 C432 61 413 58 406 58 L406 58 Z M130 122 C130 168 161 193 218 198 L313 206 L313 134 C256 85 213 65 181 65 C148 65 130 88 130 122 L130 122 Z " />
<glyph glyph-name="adieresis" unicode="&#xe4;" horiz-adv-x="478" d="M139 578 C172 578 200 602 200 639 C200 674 177 692 145 692 C110 692 84 671 84 630 C84 596 108 578 139 578 L139 578 Z M306 578 C339 578 367 602 367 639 C367 674 344 692 312 692 C277 692 251 671 251 630 C251 596 275 578 306 578 L306 578 Z M406 58 C396 58 393 63 393 71 L393 347 C393 411 365 476 247 476 C193 476 123 467 94 459 L74 377 C126 389 182 398 228 398 C277 398 313 377 313 328 L313 278 L207 257 C151 246 110 226 83 199 C59 175 47 142 47 109 C47 39 91 -9 154 -9 C202 -9 259 20 313 72 L315 42 C317 3 341 -10 368 -10 C393 -10 427 -4 448 2 L459 69 C432 61 413 58 406 58 L406 58 Z M130 122 C130 168 161 193 218 198 L313 206 L313 134 C256 85 213 65 181 65 C148 65 130 88 130 122 L130 122 Z " />
<glyph glyph-name="aring" unicode="&#xe5;" horiz-adv-x="478" d="M227 531 C286 531 334 568 334 630 C334 691 286 730 227 730 C167 730 118 691 118 630 C118 568 167 531 227 531 L227 531 Z M227 677 C251 677 271 664 271 630 C271 596 251 582 227 582 C201 582 181 596 181 630 C181 664 201 677 227 677 L227 677 Z M406 58 C396 58 393 63 393 71 L393 347 C393 411 365 476 247 476 C193 476 123 467 94 459 L74 377 C126 389 182 398 228 398 C277 398 313 377 313 328 L313 278 L207 257 C151 246 110 226 83 199 C59 175 47 142 47 109 C47 39 91 -9 154 -9 C202 -9 259 20 313 72 L315 42 C317 3 341 -10 368 -10 C393 -10 427 -4 448 2 L459 69 C432 61 413 58 406 58 L406 58 Z M130 122 C130 168 161 193 218 198 L313 206 L313 134 C256 85 213 65 181 65 C148 65 130 88 130 122 L130 122 Z " />
<glyph glyph-name="ae" unicode="&#xe6;" horiz-adv-x="743" d="M692 109 C663 86 608 67 559 67 C465 67 407 108 402 223 L402 233 L684 231 C689 255 694 292 694 315 C694 414 632 476 539 476 C479 476 427 449 392 403 C376 444 336 476 252 476 C196 476 124 467 94 459 L74 377 C126 389 182 398 228 398 C282 398 321 377 321 328 L321 282 L218 264 C151 252 110 226 83 199 C59 175 47 142 47 109 C47 39 91 -9 154 -9 C213 -9 288 23 357 81 C393 23 457 -10 544 -10 C587 -10 647 6 677 27 L696 109 L692 109 Z M526 398 C586 398 621 363 623 298 L406 288 C421 367 473 398 526 398 L526 398 Z M181 65 C148 65 130 88 130 122 C130 168 162 192 218 201 L321 217 C321 191 325 166 330 144 C265 88 215 65 181 65 L181 65 Z " />
<glyph glyph-name="ccedilla" unicode="&#xe7;" horiz-adv-x="432" d="M379 24 L401 110 L398 110 C365 86 312 66 262 66 C181 66 130 118 130 223 C130 336 189 399 281 399 C312 399 349 388 371 376 L390 460 C368 469 333 476 290 476 C222 476 158 446 116 396 C72 344 49 281 49 208 C49 81 114 1 216 -10 L188 -71 L189 -72 C245 -89 282 -108 282 -130 C282 -149 265 -164 230 -164 C201 -164 167 -157 144 -148 L151 -206 C174 -214 200 -218 232 -218 C294 -218 354 -183 354 -128 C354 -89 323 -63 257 -41 L273 -9 C314 -5 354 8 379 24 L379 24 Z " />
<glyph glyph-name="egrave" unicode="&#xe8;" horiz-adv-x="476" d="M358 542 L377 589 L377 592 C297 622 220 660 141 702 L136 702 L106 618 C189 588 271 560 355 542 L358 542 Z M425 109 C396 86 341 67 292 67 C195 67 135 108 130 223 C130 226 130 230 131 233 L418 231 C423 257 427 299 427 322 C427 415 363 477 267 477 C213 477 157 453 115 405 C69 353 49 288 49 223 C49 78 131 -10 277 -10 C320 -10 380 6 410 27 L429 109 L425 109 Z M254 399 C316 399 353 364 356 299 L135 292 C151 369 202 399 254 399 L254 399 Z " />
<glyph glyph-name="eacute" unicode="&#xe9;" horiz-adv-x="476" d="M137 542 C226 563 309 589 386 618 L356 702 L351 702 C278 661 200 625 115 592 L115 589 L134 542 L137 542 Z M425 109 C396 86 341 67 292 67 C195 67 135 108 130 223 C130 226 130 230 131 233 L418 231 C423 257 427 299 427 322 C427 415 363 477 267 477 C213 477 157 453 115 405 C69 353 49 288 49 223 C49 78 131 -10 277 -10 C320 -10 380 6 410 27 L429 109 L425 109 Z M254 399 C316 399 353 364 356 299 L135 292 C151 369 202 399 254 399 L254 399 Z " />
<glyph glyph-name="ecircumflex" unicode="&#xea;" horiz-adv-x="476" d="M136 527 L247 621 C285 586 323 557 368 527 L371 527 L409 556 L409 559 C332 638 306 668 273 705 L226 705 L93 555 L93 552 L133 527 L136 527 Z M425 109 C396 86 341 67 292 67 C195 67 135 108 130 223 C130 226 130 230 131 233 L418 231 C423 257 427 299 427 322 C427 415 363 477 267 477 C213 477 157 453 115 405 C69 353 49 288 49 223 C49 78 131 -10 277 -10 C320 -10 380 6 410 27 L429 109 L425 109 Z M254 399 C316 399 353 364 356 299 L135 292 C151 369 202 399 254 399 L254 399 Z " />
<glyph glyph-name="edieresis" unicode="&#xeb;" horiz-adv-x="476" d="M164 578 C197 578 225 602 225 639 C225 674 202 692 170 692 C135 692 109 671 109 630 C109 596 133 578 164 578 L164 578 Z M331 578 C364 578 392 602 392 639 C392 674 369 692 337 692 C302 692 276 671 276 630 C276 596 300 578 331 578 L331 578 Z M425 109 C396 86 341 67 292 67 C195 67 135 108 130 223 C130 226 130 230 131 233 L418 231 C423 257 427 299 427 322 C427 415 363 477 267 477 C213 477 157 453 115 405 C69 353 49 288 49 223 C49 78 131 -10 277 -10 C320 -10 380 6 410 27 L429 109 L425 109 Z M254 399 C316 399 353 364 356 299 L135 292 C151 369 202 399 254 399 L254 399 Z " />
<glyph glyph-name="igrave" unicode="&#xec;" horiz-adv-x="248" d="M36 698 L31 698 L0 623 C58 590 121 560 190 533 L193 533 L212 584 L212 587 C149 622 89 658 36 698 L36 698 Z M84 0 L164 0 L164 471 L84 463 L84 0 Z " />
<glyph glyph-name="iacute" unicode="&#xed;" horiz-adv-x="248" d="M230 698 C177 658 117 622 54 587 L54 584 L73 533 L76 533 C145 560 208 590 266 623 L235 698 L230 698 Z M84 0 L164 0 L164 471 L84 463 L84 0 Z " />
<glyph glyph-name="icircumflex" unicode="&#xee;" horiz-adv-x="248" d="M144 705 L99 705 L-10 555 L-10 552 L24 527 L27 527 L119 622 C152 587 182 559 221 527 L224 527 L256 556 L256 559 C196 638 176 664 144 705 L144 705 Z M84 0 L164 0 L164 471 L84 463 L84 0 Z " />
<glyph glyph-name="idieresis" unicode="&#xef;" horiz-adv-x="248" d="M49 578 C75 578 98 602 98 639 C98 674 79 692 54 692 C26 692 5 671 5 630 C5 596 24 578 49 578 L49 578 Z M186 578 C212 578 235 602 235 639 C235 674 216 692 191 692 C163 692 142 671 142 630 C142 596 161 578 186 578 L186 578 Z M84 0 L164 0 L164 471 L84 463 L84 0 Z " />
<glyph glyph-name="eth" unicode="&#xf0;" horiz-adv-x="511" d="M336 593 L432 637 L408 690 L290 636 C268 654 244 672 217 690 L129 673 C165 651 197 629 225 606 L107 552 L131 499 L273 564 C310 527 338 487 358 445 C332 460 300 470 260 470 C139 470 49 368 49 225 C49 69 131 -11 237 -11 C304 -11 358 19 398 63 C438 107 462 168 462 258 C462 381 434 491 336 593 L336 593 Z M258 67 C177 67 130 130 130 242 C130 346 179 399 247 399 C297 399 336 383 359 366 C373 324 378 273 378 231 C378 129 336 67 258 67 L258 67 Z " />
<glyph glyph-name="ntilde" unicode="&#xf1;" horiz-adv-x="515" d="M130 561 C152 589 171 603 192 603 C228 603 266 562 311 562 C351 562 387 595 411 648 L360 683 C341 653 325 640 305 640 C270 640 228 680 188 680 C149 680 114 651 89 605 L130 561 Z M88 0 L168 0 L168 372 C216 391 249 400 289 400 C334 400 362 383 362 327 L362 0 L442 0 L442 339 C442 433 391 477 305 477 C258 477 202 458 163 423 L160 423 C158 437 155 464 152 475 L78 466 C84 423 88 383 88 343 L88 0 Z " />
<glyph glyph-name="ograve" unicode="&#xf2;" horiz-adv-x="518" d="M363 542 L366 542 L385 589 L385 592 C305 622 228 660 149 702 L144 702 L114 618 C197 588 279 560 363 542 L363 542 Z M242 -11 C304 -11 363 15 402 57 C444 102 469 167 469 249 C469 394 389 477 269 477 C210 477 149 452 105 398 C64 348 49 292 49 225 C49 69 138 -11 242 -11 L242 -11 Z M263 67 C177 67 130 123 130 244 C130 342 176 399 252 399 C340 399 383 345 383 225 C383 125 340 67 263 67 L263 67 Z " />
<glyph glyph-name="oacute" unicode="&#xf3;" horiz-adv-x="518" d="M359 702 C286 661 208 625 123 592 L123 589 L142 542 L145 542 C234 563 317 589 394 618 L364 702 L359 702 Z M242 -11 C304 -11 363 15 402 57 C444 102 469 167 469 249 C469 394 389 477 269 477 C210 477 149 452 105 398 C64 348 49 292 49 225 C49 69 138 -11 242 -11 L242 -11 Z M263 67 C177 67 130 123 130 244 C130 342 176 399 252 399 C340 399 383 345 383 225 C383 125 340 67 263 67 L263 67 Z " />
<glyph glyph-name="ocircumflex" unicode="&#xf4;" horiz-adv-x="518" d="M281 705 L234 705 L101 555 L101 552 L141 527 L144 527 L255 621 C293 586 331 557 376 527 L379 527 L417 556 L417 559 C340 638 314 668 281 705 L281 705 Z M242 -11 C304 -11 363 15 402 57 C444 102 469 167 469 249 C469 394 389 477 269 477 C210 477 149 452 105 398 C64 348 49 292 49 225 C49 69 138 -11 242 -11 L242 -11 Z M263 67 C177 67 130 123 130 244 C130 342 176 399 252 399 C340 399 383 345 383 225 C383 125 340 67 263 67 L263 67 Z " />
<glyph glyph-name="otilde" unicode="&#xf5;" horiz-adv-x="518" d="M139 561 C161 589 180 603 201 603 C237 603 275 562 320 562 C360 562 396 595 420 648 L369 683 C350 653 334 640 314 640 C279 640 237 680 197 680 C158 680 123 651 98 605 L139 561 Z M242 -11 C304 -11 363 15 402 57 C444 102 469 167 469 249 C469 394 389 477 269 477 C210 477 149 452 105 398 C64 348 49 292 49 225 C49 69 138 -11 242 -11 L242 -11 Z M263 67 C177 67 130 123 130 244 C130 342 176 399 252 399 C340 399 383 345 383 225 C383 125 340 67 263 67 L263 67 Z " />
<glyph glyph-name="odieresis" unicode="&#xf6;" horiz-adv-x="518" d="M172 578 C205 578 233 602 233 639 C233 674 210 692 178 692 C143 692 117 671 117 630 C117 596 141 578 172 578 L172 578 Z M339 578 C372 578 400 602 400 639 C400 674 377 692 345 692 C310 692 284 671 284 630 C284 596 308 578 339 578 L339 578 Z M242 -11 C304 -11 363 15 402 57 C444 102 469 167 469 249 C469 394 389 477 269 477 C210 477 149 452 105 398 C64 348 49 292 49 225 C49 69 138 -11 242 -11 L242 -11 Z M263 67 C177 67 130 123 130 244 C130 342 176 399 252 399 C340 399 383 345 383 225 C383 125 340 67 263 67 L263 67 Z " />
<glyph glyph-name="divide" unicode="&#xf7;" horiz-adv-x="540" d="M272 382 C313 382 339 402 339 446 C339 487 312 507 275 507 C231 507 204 480 204 441 C204 403 230 382 272 382 L272 382 Z M57 250 L480 250 L480 316 L57 316 L57 250 Z M272 58 C313 58 339 78 339 122 C339 163 312 183 275 183 C231 183 204 156 204 117 C204 79 230 58 272 58 L272 58 Z " />
<glyph glyph-name="oslash" unicode="&#xf8;" horiz-adv-x="533" d="M389 431 L435 519 L369 553 L325 467 C305 474 282 477 258 477 C199 477 138 452 94 398 C53 348 38 292 38 225 C38 145 62 85 99 45 L44 -45 L114 -81 L162 2 C183 -7 207 -11 231 -11 C293 -11 352 15 391 57 C433 102 458 167 458 249 C458 330 433 392 389 431 L389 431 Z M241 399 C260 399 277 397 291 391 L146 120 C128 149 119 190 119 244 C119 342 165 399 241 399 L241 399 Z M252 67 C232 67 214 70 198 76 L344 351 C363 322 372 281 372 225 C372 125 329 67 252 67 L252 67 Z " />
<glyph glyph-name="ugrave" unicode="&#xf9;" horiz-adv-x="508" d="M364 543 L367 543 L386 590 L386 593 C306 623 229 661 150 703 L145 703 L115 619 C198 589 280 561 364 543 L364 543 Z M420 466 L341 466 L341 94 C295 75 261 66 224 66 C170 66 153 94 153 139 L153 466 L73 466 L73 127 C73 33 122 -11 202 -11 C250 -11 302 12 343 46 L346 46 C349 25 353 3 356 -9 L430 0 C424 43 420 87 420 123 L420 466 Z " />
<glyph glyph-name="uacute" unicode="&#xfa;" horiz-adv-x="543" d="M403 703 C330 662 252 626 167 593 L167 590 L186 543 L189 543 C278 564 361 590 438 619 L408 703 L403 703 Z M420 466 L341 466 L341 94 C295 75 261 66 224 66 C170 66 153 94 153 139 L153 466 L73 466 L73 127 C73 33 122 -11 202 -11 C250 -11 302 12 343 46 L346 46 C349 25 353 3 356 -9 L430 0 C424 43 420 87 420 123 L420 466 Z " />
<glyph glyph-name="ucircumflex" unicode="&#xfb;" horiz-adv-x="543" d="M305 706 L258 706 L125 556 L125 553 L165 528 L168 528 L279 622 C317 587 355 558 400 528 L403 528 L441 557 L441 560 C364 639 338 669 305 706 L305 706 Z M420 466 L341 466 L341 94 C295 75 261 66 224 66 C170 66 153 94 153 139 L153 466 L73 466 L73 127 C73 33 122 -11 202 -11 C250 -11 302 12 343 46 L346 46 C349 25 353 3 356 -9 L430 0 C424 43 420 87 420 123 L420 466 Z " />
<glyph glyph-name="udieresis" unicode="&#xfc;" horiz-adv-x="508" d="M173 579 C206 579 234 603 234 640 C234 675 211 693 179 693 C144 693 118 672 118 631 C118 597 142 579 173 579 L173 579 Z M340 579 C373 579 401 603 401 640 C401 675 378 693 346 693 C311 693 285 672 285 631 C285 597 309 579 340 579 L340 579 Z M420 466 L341 466 L341 94 C295 75 261 66 224 66 C170 66 153 94 153 139 L153 466 L73 466 L73 127 C73 33 122 -11 202 -11 C250 -11 302 12 343 46 L346 46 C349 25 353 3 356 -9 L430 0 C424 43 420 87 420 123 L420 466 Z " />
<glyph glyph-name="thorn" unicode="&#xfe;" horiz-adv-x="505" d="M280 475 C235 475 187 454 156 427 L154 427 L154 690 L74 680 L74 -193 L155 -183 L155 -2 C178 -8 205 -11 230 -11 C289 -11 348 14 394 61 C437 105 465 171 465 263 C465 385 404 475 280 475 L280 475 Z M250 66 C215 66 181 74 155 85 L155 366 C181 385 219 399 260 399 C329 399 381 355 381 244 C381 137 331 66 250 66 L250 66 Z " />
<glyph glyph-name="dotlessi" unicode="&#x131;" horiz-adv-x="248" d="M84 0 L164 0 L164 471 L84 463 L84 0 Z " />
<glyph glyph-name="OE" unicode="&#x152;" horiz-adv-x="846" d="M510 80 L510 328 L747 328 L750 406 L510 406 L510 600 L775 600 L780 680 L383 680 C193 680 63 532 63 333 C63 105 214 0 363 0 L791 0 L796 80 L510 80 Z M370 79 C233 79 156 178 156 353 C156 504 239 600 373 600 L420 600 L420 79 L370 79 Z " />
<glyph glyph-name="oe" unicode="&#x153;" horiz-adv-x="815" d="M764 109 C731 84 681 67 625 67 C536 67 473 110 469 223 L469 233 L757 231 C762 257 766 299 766 322 C766 414 701 476 609 476 C551 476 496 452 454 405 L437 384 C404 444 345 477 272 477 C140 477 49 370 49 226 C49 69 135 -11 245 -11 C308 -11 363 15 402 57 C410 65 417 74 423 84 C461 24 526 -10 608 -10 C661 -10 714 4 749 27 L768 109 L764 109 Z M260 67 C177 67 130 127 130 237 C130 346 176 399 257 399 C343 399 388 340 388 233 C388 123 340 67 260 67 L260 67 Z M596 398 C656 398 692 364 695 299 L474 292 C490 368 540 398 596 398 L596 398 Z " />
<glyph glyph-name="Utilde" unicode="&#x168;" horiz-adv-x="676" d="M222 745 C244 773 263 787 284 787 C320 787 358 746 403 746 C443 746 479 779 503 832 L452 867 C433 837 417 824 397 824 C362 824 320 864 280 864 C241 864 206 835 181 789 L222 745 Z M320 -16 C381 -16 453 4 503 45 C556 89 583 143 583 219 L583 680 L494 680 L494 194 C494 116 432 61 342 61 C254 61 195 94 195 182 L195 680 L105 680 L105 162 C105 50 190 -16 320 -16 L320 -16 Z " />
<glyph glyph-name="utilde" unicode="&#x169;" horiz-adv-x="543" d="M168 562 C190 590 209 604 230 604 C266 604 304 563 349 563 C389 563 425 596 449 649 L398 684 C379 654 363 641 343 641 C308 641 266 681 226 681 C187 681 152 652 127 606 L168 562 Z M420 466 L341 466 L341 94 C295 75 261 66 224 66 C170 66 153 94 153 139 L153 466 L73 466 L73 127 C73 33 122 -11 202 -11 C250 -11 302 12 343 46 L346 46 C349 25 353 3 356 -9 L430 0 C424 43 420 87 420 123 L420 466 Z " />
<glyph glyph-name="uni0237" unicode="&#x237;" horiz-adv-x="252" d="M27 -190 C69 -184 98 -170 122 -150 C147 -130 168 -100 168 -63 L168 474 L84 466 L84 -62 C84 -96 64 -113 38 -113 C23 -113 14 -112 -5 -108 L-17 -184 L27 -190 Z " />
<glyph glyph-name="circumflex" unicode="&#x2c6;" horiz-adv-x="396" d="M220 705 L173 705 L40 555 L40 552 L80 527 L83 527 L194 621 C232 586 270 557 315 527 L318 527 L356 556 L356 559 C279 638 253 668 220 705 L220 705 Z " />
<glyph glyph-name="dotaccent" unicode="&#x2d9;" horiz-adv-x="196" d="M95 576 C128 576 156 600 156 637 C156 672 133 690 101 690 C66 690 40 669 40 628 C40 594 64 576 95 576 L95 576 Z " />
<glyph glyph-name="ring" unicode="&#x2da;" horiz-adv-x="276" d="M139 531 C198 531 246 568 246 630 C246 691 198 730 139 730 C79 730 30 691 30 630 C30 568 79 531 139 531 L139 531 Z M139 582 C113 582 93 596 93 630 C93 664 113 677 139 677 C163 677 183 664 183 630 C183 596 163 582 139 582 L139 582 Z " />
<glyph glyph-name="tilde" unicode="&#x2dc;" horiz-adv-x="402" d="M81 561 C103 589 122 603 143 603 C179 603 217 562 262 562 C302 562 338 595 362 648 L311 683 C292 653 276 640 256 640 C221 640 179 680 139 680 C100 680 65 651 40 605 L81 561 Z " />
<glyph glyph-name="gravecomb" unicode="&#x300;" d="M-62 542 L-59 542 L-40 589 L-40 592 C-120 622 -197 660 -276 702 L-281 702 L-311 618 C-228 588 -146 560 -62 542 L-62 542 Z " />
<glyph glyph-name="acutecomb" unicode="&#x301;" d="M-75 702 C-148 661 -226 625 -311 592 L-311 589 L-292 542 L-289 542 C-200 563 -117 589 -40 618 L-70 702 L-75 702 Z " />
<glyph glyph-name="uni0302" unicode="&#x302;" d="M-176 705 L-223 705 L-356 555 L-356 552 L-316 527 L-313 527 L-202 621 C-164 586 -126 557 -81 527 L-78 527 L-40 556 L-40 559 C-117 638 -143 668 -176 705 L-176 705 Z " />
<glyph glyph-name="tildecomb" unicode="&#x303;" d="M-313 561 C-291 589 -272 603 -251 603 C-215 603 -177 562 -132 562 C-92 562 -56 595 -32 648 L-83 683 C-102 653 -118 640 -138 640 C-173 640 -215 680 -255 680 C-294 680 -329 651 -354 605 L-313 561 Z " />
<glyph glyph-name="uni0307" unicode="&#x307;" d="M-105 576 C-72 576 -44 600 -44 637 C-44 672 -67 690 -99 690 C-134 690 -160 669 -160 628 C-160 594 -136 576 -105 576 L-105 576 Z " />
<glyph glyph-name="uni0308" unicode="&#x308;" d="M-268 578 C-235 578 -207 602 -207 639 C-207 674 -230 692 -262 692 C-297 692 -323 671 -323 630 C-323 596 -299 578 -268 578 L-268 578 Z M-101 578 C-68 578 -40 602 -40 639 C-40 674 -63 692 -95 692 C-130 692 -156 671 -156 630 C-156 596 -132 578 -101 578 L-101 578 Z " />
<glyph glyph-name="uni030A" unicode="&#x30a;" d="M-137 531 C-78 531 -30 568 -30 630 C-30 691 -78 730 -137 730 C-197 730 -246 691 -246 630 C-246 568 -197 531 -137 531 L-137 531 Z M-137 582 C-163 582 -183 596 -183 630 C-183 664 -163 677 -137 677 C-113 677 -93 664 -93 630 C-93 596 -113 582 -137 582 L-137 582 Z " />
<glyph glyph-name="uni0327" unicode="&#x327;" d="M-134 -41 L-114 0 L-171 0 L-203 -71 L-202 -72 C-146 -89 -109 -108 -109 -130 C-109 -149 -126 -164 -161 -164 C-190 -164 -224 -157 -247 -148 L-240 -206 C-217 -214 -191 -218 -159 -218 C-97 -218 -37 -183 -37 -128 C-37 -89 -68 -63 -134 -41 L-134 -41 Z " />
<glyph glyph-name="endash" unicode="&#x2013;" horiz-adv-x="429" d="M48 233 L381 233 L381 310 L48 310 L48 233 Z " />
<glyph glyph-name="emdash" unicode="&#x2014;" horiz-adv-x="682" d="M48 233 L634 233 L634 310 L48 310 L48 233 Z " />
<glyph glyph-name="quoteleft" unicode="&#x2018;" horiz-adv-x="252" d="M138 691 C75 644 42 593 42 530 C42 497 49 463 63 423 L144 437 C130 475 122 509 122 539 C122 587 144 627 187 669 L138 691 Z " />
<glyph glyph-name="quoteright" unicode="&#x2019;" horiz-adv-x="252" d="M114 432 C177 479 210 530 210 593 C210 626 203 660 189 700 L108 686 C122 648 130 614 130 584 C130 536 108 496 65 454 L114 432 Z " />
<glyph glyph-name="quotesinglbase" unicode="&#x201a;" horiz-adv-x="315" d="M113 -133 C176 -86 209 -35 209 28 C209 61 202 95 188 135 L107 121 C121 83 129 49 129 19 C129 -29 107 -69 64 -111 L113 -133 Z " />
<glyph glyph-name="quotedblleft" unicode="&#x201c;" horiz-adv-x="429" d="M138 691 C75 644 42 593 42 530 C42 497 49 463 63 423 L144 437 C130 475 122 509 122 539 C122 587 144 627 187 669 L138 691 Z M315 691 C252 644 219 593 219 530 C219 497 226 463 240 423 L321 437 C307 475 299 509 299 539 C299 587 321 627 364 669 L315 691 Z " />
<glyph glyph-name="quotedblright" unicode="&#x201d;" horiz-adv-x="429" d="M114 428 C177 475 210 526 210 589 C210 622 203 656 189 696 L108 682 C122 644 130 610 130 580 C130 532 108 492 65 450 L114 428 Z M291 428 C354 475 387 526 387 589 C387 622 380 656 366 696 L285 682 C299 644 307 610 307 580 C307 532 285 492 242 450 L291 428 Z " />
<glyph glyph-name="quotedblbase" unicode="&#x201e;" horiz-adv-x="493" d="M113 -133 C176 -86 209 -35 209 28 C209 61 202 95 188 135 L107 121 C121 83 129 49 129 19 C129 -29 107 -69 64 -111 L113 -133 Z M291 -133 C354 -86 387 -35 387 28 C387 61 380 95 366 135 L285 121 C299 83 307 49 307 19 C307 -29 285 -69 242 -111 L291 -133 Z " />
<glyph glyph-name="bullet" unicode="&#x2022;" horiz-adv-x="353" d="M177 246 C238 246 276 288 276 342 C276 396 238 438 177 438 C117 438 77 396 77 342 C77 288 117 246 177 246 L177 246 Z " />
<glyph glyph-name="ellipsis" unicode="&#x2026;" horiz-adv-x="727" d="M145 -10 C186 -10 212 10 212 54 C212 95 185 115 148 115 C104 115 77 88 77 49 C77 11 103 -10 145 -10 L145 -10 Z M364 -10 C405 -10 431 10 431 54 C431 95 404 115 367 115 C323 115 296 88 296 49 C296 11 322 -10 364 -10 L364 -10 Z M583 -10 C624 -10 650 10 650 54 C650 95 623 115 586 115 C542 115 515 88 515 49 C515 11 541 -10 583 -10 L583 -10 Z " />
<glyph glyph-name="guilsinglleft" unicode="&#x2039;" horiz-adv-x="321" d="M290 411 L192 411 L46 235 L46 226 L192 51 L290 51 L137 231 L290 411 Z " />
<glyph glyph-name="guilsinglright" unicode="&#x203a;" horiz-adv-x="321" d="M144 422 L46 422 L199 242 L46 62 L144 62 L290 238 L290 247 L144 422 Z " />
<glyph glyph-name="fraction" unicode="&#x2044;" horiz-adv-x="103" d="M-152 0 L-79 0 L255 680 L182 680 L-152 0 Z " />
<glyph glyph-name="Euro" unicode="&#x20ac;" horiz-adv-x="580" d="M529 124 C501 100 428 75 375 75 C280 75 212 117 190 229 L462 229 L471 300 L186 300 C185 309 185 319 185 329 C185 354 187 377 190 398 L482 398 L492 468 L202 468 C233 558 299 606 378 606 C423 606 477 590 514 570 L526 668 C500 679 441 690 402 690 C311 690 232 661 175 587 C150 554 131 515 118 471 L26 471 L26 394 L101 394 C96 364 94 334 94 303 L26 303 L26 226 L99 226 C123 72 217 -10 345 -10 C402 -10 472 6 507 27 L534 124 L529 124 Z " />
<glyph glyph-name="trademark" unicode="&#x2122;" horiz-adv-x="918" d="M840 298 L802 682 L722 680 L613 403 L506 682 L420 680 L382 294 L455 294 L475 565 L580 300 L632 299 L740 556 L763 293 L840 298 Z M336 680 L33 680 L29 614 L144 614 L144 294 L221 294 L221 614 L332 614 L336 680 Z " />
<glyph glyph-name="oneeighth" unicode="&#x215b;" horiz-adv-x="857" d="M261 270 L261 675 L211 686 C168 658 109 626 51 599 L80 547 C116 560 153 576 187 593 L187 270 L261 270 Z M559 680 L225 0 L298 0 L632 680 L559 680 Z M737 220 C783 247 804 285 804 321 C804 376 750 416 674 416 C585 416 533 358 533 302 C533 257 558 229 596 209 C543 180 520 139 520 99 C520 38 570 -8 662 -8 C748 -8 817 49 817 120 C817 168 786 197 737 220 L737 220 Z M669 361 C701 361 732 341 732 311 C732 286 715 262 681 242 C636 260 606 278 606 310 C606 337 632 361 669 361 L669 361 Z M669 54 C623 54 598 79 598 115 C598 142 612 166 645 187 L650 185 C708 164 741 150 741 115 C741 81 709 54 669 54 L669 54 Z " />
<glyph glyph-name="threeeighths" unicode="&#x215c;" horiz-adv-x="857" d="M329 405 C329 453 296 494 230 504 C285 526 308 562 308 596 C308 644 264 685 179 685 C137 685 96 677 70 667 L57 597 C89 609 129 618 163 618 C200 618 228 604 228 575 C228 546 194 517 110 506 L117 451 C197 458 247 439 247 396 C247 361 207 330 145 330 C109 330 77 335 42 349 L58 276 C82 268 120 265 144 265 C250 265 329 328 329 405 L329 405 Z M559 680 L225 0 L298 0 L632 680 L559 680 Z M737 220 C783 247 804 285 804 321 C804 376 750 416 674 416 C585 416 533 358 533 302 C533 257 558 229 596 209 C543 180 520 139 520 99 C520 38 570 -8 662 -8 C748 -8 817 49 817 120 C817 168 786 197 737 220 L737 220 Z M669 361 C701 361 732 341 732 311 C732 286 715 262 681 242 C636 260 606 278 606 310 C606 337 632 361 669 361 L669 361 Z M669 54 C623 54 598 79 598 115 C598 142 612 166 645 187 L650 185 C708 164 741 150 741 115 C741 81 709 54 669 54 L669 54 Z " />
<glyph glyph-name="fiveeighths" unicode="&#x215d;" horiz-adv-x="857" d="M559 680 L225 0 L298 0 L632 680 L559 680 Z M332 412 C332 479 270 531 179 531 C162 531 145 529 130 527 L142 615 L304 615 L301 679 L88 679 L60 494 L99 458 C118 465 141 470 164 470 C219 470 256 444 256 406 C256 367 214 330 153 330 C120 330 84 336 49 351 L62 277 C85 269 123 265 150 265 C256 265 332 331 332 412 L332 412 Z M737 220 C783 247 804 285 804 321 C804 376 750 416 674 416 C585 416 533 358 533 302 C533 257 558 229 596 209 C543 180 520 139 520 99 C520 38 570 -8 662 -8 C748 -8 817 49 817 120 C817 168 786 197 737 220 L737 220 Z M669 361 C701 361 732 341 732 311 C732 286 715 262 681 242 C636 260 606 278 606 310 C606 337 632 361 669 361 L669 361 Z M669 54 C623 54 598 79 598 115 C598 142 612 166 645 187 L650 185 C708 164 741 150 741 115 C741 81 709 54 669 54 L669 54 Z " />
<glyph glyph-name="seveneighths" unicode="&#x215e;" horiz-adv-x="857" d="M559 680 L225 0 L298 0 L632 680 L559 680 Z M316 679 L58 679 L46 607 C118 611 191 612 250 612 C187 510 131 394 89 270 L176 270 C215 390 268 513 335 628 L316 679 Z M737 220 C783 247 804 285 804 321 C804 376 750 416 674 416 C585 416 533 358 533 302 C533 257 558 229 596 209 C543 180 520 139 520 99 C520 38 570 -8 662 -8 C748 -8 817 49 817 120 C817 168 786 197 737 220 L737 220 Z M669 361 C701 361 732 341 732 311 C732 286 715 262 681 242 C636 260 606 278 606 310 C606 337 632 361 669 361 L669 361 Z M669 54 C623 54 598 79 598 115 C598 142 612 166 645 187 L650 185 C708 164 741 150 741 115 C741 81 709 54 669 54 L669 54 Z " />
<glyph glyph-name="minus" unicode="&#x2212;" horiz-adv-x="540" d="M58 256 L481 256 L481 333 L58 333 L58 256 Z " />
<glyph glyph-name="uniF8FF" unicode="&#xf8ff;" horiz-adv-x="676" d="M639 -127 C646 -123 652 -120 652 -113 C664 -95 646 -63 643 -63 C612 -42 582 -20 552 7 C551 8 551 11 552 13 C552 16 553 22 549 24 C531 43 514 60 496 76 C481 96 469 116 456 136 C443 157 424 187 415 198 C408 208 378 247 367 262 C353 280 334 304 318 313 C304 321 261 348 244 372 C237 383 227 425 228 443 C230 461 234 471 234 471 C240 485 246 495 253 507 C260 516 270 524 270 536 C268 542 274 552 266 557 C264 557 261 554 261 554 C260 567 264 579 267 590 C270 597 265 605 265 613 C267 618 278 625 271 627 C264 630 271 640 264 640 C257 641 258 654 251 651 C237 641 216 613 214 614 C211 615 215 640 217 653 C216 659 208 656 203 655 C196 653 191 656 189 655 C188 654 169 631 168 630 L160 601 C159 597 158 591 157 597 C156 605 165 629 167 646 C165 648 162 647 161 647 C158 645 150 640 148 638 C145 635 140 623 140 623 C140 620 140 610 137 612 C133 616 137 624 137 627 C137 627 136 630 131 630 C126 630 126 631 124 631 C122 623 117 614 115 610 C110 601 103 591 103 583 C102 580 99 583 98 583 C98 583 89 587 89 580 C89 576 90 573 92 570 C94 566 103 559 102 550 C102 550 99 549 97 547 C93 540 112 505 118 494 C118 493 115 493 115 493 C104 493 64 475 57 468 C49 464 33 447 21 437 C19 434 19 428 22 430 C30 437 59 458 92 466 C125 475 138 453 138 453 C138 453 154 430 137 383 C127 347 113 318 115 273 C119 220 146 187 168 164 C189 142 252 74 261 65 C271 56 278 37 283 31 C288 24 295 16 303 10 C304 6 304 1 304 -4 C304 -9 295 -59 294 -60 C292 -63 285 -63 285 -63 C272 -59 258 -54 244 -52 C240 -52 236 -60 231 -66 C226 -71 235 -76 227 -83 C226 -84 227 -88 227 -88 C227 -88 229 -88 231 -86 C234 -83 237 -84 237 -84 C266 -93 300 -87 303 -87 C305 -86 319 -94 319 -94 L358 -114 C361 -116 364 -123 369 -118 C372 -114 366 -110 366 -110 C365 -107 345 -94 334 -87 C328 -80 322 -71 314 -66 C313 -61 321 -40 323 -32 C325 -23 325 -6 330 6 C334 11 342 16 351 20 C368 13 384 7 396 4 C402 1 406 1 411 -1 C411 -4 410 -7 410 -10 C410 -10 407 -29 407 -32 L403 -37 C402 -41 394 -40 394 -40 C381 -35 368 -31 354 -27 C349 -30 345 -37 341 -41 C335 -46 344 -53 337 -58 C335 -59 335 -63 337 -65 C337 -65 338 -65 340 -62 C342 -58 347 -60 347 -60 C375 -69 398 -62 411 -63 L428 -71 C441 -78 454 -84 467 -93 C470 -93 475 -100 478 -96 C480 -91 477 -89 475 -87 C472 -84 454 -71 443 -63 C437 -56 431 -46 423 -41 C422 -39 424 -37 424 -35 C424 -33 432 -8 432 -8 L432 -7 C450 -14 463 -19 469 -24 C485 -36 502 -45 515 -61 C539 -83 559 -103 587 -118 C611 -136 632 -131 639 -127 L639 -127 Z " />
<glyph glyph-name="fi" unicode="&#xfb01;" horiz-adv-x="553" d="M225 603 C245 603 263 600 279 597 L300 686 L249 690 C205 685 181 678 152 652 C112 616 103 579 103 530 L103 466 L33 466 L24 400 L103 400 L103 0 L187 0 L187 400 L286 400 L296 466 L187 466 L187 567 C187 591 201 603 225 603 L225 603 Z M486 637 C486 672 463 690 431 690 C396 690 370 669 370 628 C370 594 394 576 425 576 C458 576 486 600 486 637 L486 637 Z M389 0 L469 0 L469 471 L389 463 L389 0 Z " />
<glyph glyph-name="fl" unicode="&#xfb02;" horiz-adv-x="543" d="M225 603 C245 603 263 600 279 597 L300 686 L249 690 C205 685 181 678 152 652 C112 616 103 579 103 530 L103 466 L33 466 L24 400 L103 400 L103 0 L187 0 L187 400 L286 400 L296 466 L187 466 L187 567 C187 591 201 603 225 603 L225 603 Z M389 681 L389 0 L469 0 L469 690 L389 681 Z " />
</font>
</svg>
