<?xml version="1.0" encoding="UTF-8"?>
<svg xmlns="http://www.w3.org/2000/svg" xmlns:xlink="http://www.w3.org/1999/xlink" version="1.2" >
<font id="Reserva Sans Thin Italic">
<font-face  font-family="Reserva Sans" units-per-em="1000" ascent="780" descent="-220" font-style="italic" font-weight="100" font-stretch="normal" slope="-12" cap-height="680" x-height="464" underline-position="-75" underline-thickness="50" />
<missing-glyph  horiz-adv-x="500" d="M410 780 L93 780 L93 -220 L410 -220 L410 780 Z M333 713 L333 680 L267 680 L267 643 L333 643 L333 610 L167 610 L167 643 L233 643 L233 680 L168 680 L168 713 L333 713 Z M267 584 L267 514 L333 514 L333 480 L167 480 L167 584 L267 584 Z M233 550 L200 550 L200 514 L233 514 L233 550 Z M333 453 L333 420 L267 420 L267 350 L167 350 L167 383 L233 383 L233 420 L167 420 L167 453 L333 453 Z M333 393 L333 293 L167 293 L167 327 L300 327 L300 393 L333 393 Z M333 271 L333 158 L167 158 L167 271 L200 271 L200 191 L300 191 L300 238 L267 238 L267 215 L233 215 L233 271 L333 271 Z M333 98 L333 -15 L167 -15 L167 98 L333 98 Z M300 65 L200 65 L200 18 L300 18 L300 65 Z M333 -38 L333 -71 L301 -71 L231 -118 L333 -118 L333 -151 L167 -151 L167 -118 L237 -71 L167 -71 L167 -38 L333 -38 Z " />
<glyph glyph-name="NULL" d="" />
<glyph glyph-name="CR" unicode="&#xd;" horiz-adv-x="250" d="" />
<glyph glyph-name="space" unicode="&#x20;" horiz-adv-x="212" d="" />
<glyph glyph-name="exclam" unicode="&#x21;" horiz-adv-x="307" d="M109 133 L149 133 L265 680 L225 680 L109 133 Z M106 -10 C137 -10 155 8 155 35 C155 60 139 73 116 73 C87 73 67 54 67 27 C67 1 83 -10 106 -10 L106 -10 Z " />
<glyph glyph-name="quotedbl" unicode="&#x22;" horiz-adv-x="324" d="M117 471 L148 471 L223 660 L226 680 L165 680 L117 471 Z M254 471 L285 471 L360 660 L363 680 L302 680 L254 471 Z " />
<glyph glyph-name="numbersign" unicode="&#x23;" horiz-adv-x="523" d="M576 443 L583 478 L461 478 L542 680 L501 680 L420 478 L271 478 L352 680 L311 680 L230 478 L74 478 L67 443 L216 443 L138 248 L-5 248 L-12 213 L124 213 L39 0 L80 0 L165 213 L314 213 L229 0 L270 0 L355 213 L502 213 L509 248 L369 248 L447 443 L576 443 Z M328 248 L179 248 L257 443 L406 443 L328 248 Z " />
<glyph glyph-name="dollar" unicode="&#x24;" horiz-adv-x="510" d="M348 613 C388 613 430 605 459 590 L474 635 C441 644 405 649 370 651 L403 796 L356 794 L331 650 C284 646 236 626 200 598 C161 566 135 525 135 478 C135 328 384 345 384 217 C384 124 282 60 190 60 C132 60 74 78 40 97 L46 49 C71 35 125 22 184 22 L187 22 L153 -124 L200 -122 L225 25 C269 32 311 49 346 75 C398 113 428 168 428 224 C428 377 181 366 181 486 C181 555 258 613 348 613 L348 613 Z " />
<glyph glyph-name="percent" unicode="&#x25;" horiz-adv-x="850" d="M190 263 C237 263 279 293 310 335 C352 392 379 477 379 550 C379 634 342 684 276 684 C232 684 194 659 163 619 C119 563 92 469 92 395 C92 311 128 263 190 263 L190 263 Z M262 0 L303 0 L634 680 L593 680 L262 0 Z M196 296 C155 296 130 334 130 401 C130 502 185 650 270 650 C313 650 342 616 342 549 C342 450 285 296 196 296 L196 296 Z M605 -9 C652 -9 694 21 725 63 C767 120 794 205 794 278 C794 362 757 412 691 412 C647 412 609 387 578 347 C534 291 507 197 507 123 C507 39 543 -9 605 -9 L605 -9 Z M611 24 C570 24 545 62 545 129 C545 230 600 378 685 378 C728 378 757 344 757 277 C757 178 700 24 611 24 L611 24 Z " />
<glyph glyph-name="ampersand" unicode="&#x26;" horiz-adv-x="613" d="M567 408 L528 416 C497 314 443 225 381 157 C352 185 326 215 302 246 C278 277 258 309 242 341 L269 358 C363 418 470 485 470 578 C470 637 429 685 356 685 C254 685 161 601 161 484 C161 440 171 397 190 353 C101 294 11 216 11 117 C11 46 55 -11 136 -11 C217 -11 303 32 379 102 C423 60 471 21 519 -11 L549 24 C503 53 454 90 408 131 C478 206 536 303 567 408 L567 408 Z M202 497 C202 582 269 648 345 648 C393 648 426 618 426 571 C426 508 359 457 251 391 L227 376 C211 416 202 457 202 497 L202 497 Z M53 118 C53 204 130 267 207 318 C225 284 247 250 274 216 C297 186 324 156 352 128 C284 64 211 27 151 27 C89 27 53 67 53 118 L53 118 Z " />
<glyph glyph-name="quotesingle" unicode="&#x27;" horiz-adv-x="187" d="M117 471 L148 471 L223 660 L226 680 L165 680 L117 471 Z " />
<glyph glyph-name="parenleft" unicode="&#x28;" horiz-adv-x="318" d="M152 -100 L192 -100 C148 -16 128 73 128 169 C128 369 228 557 358 680 L310 680 C182 557 85 371 85 166 C85 74 107 -17 152 -100 L152 -100 Z " />
<glyph glyph-name="parenright" unicode="&#x29;" horiz-adv-x="331" d="M39 -100 C165 23 272 209 272 415 C272 508 250 597 205 680 L160 680 C204 602 229 514 229 420 C229 213 113 25 -16 -100 L39 -100 Z " />
<glyph glyph-name="asterisk" unicode="&#x2a;" horiz-adv-x="374" d="M418 554 L410 598 L403 596 L265 532 L296 673 L297 680 L251 680 L250 673 L242 532 L118 587 L111 589 L91 545 L97 543 L232 510 L125 403 L120 397 L153 370 L158 376 L249 498 L305 376 L309 370 L350 397 L346 403 L269 511 L418 554 Z " />
<glyph glyph-name="plus" unicode="&#x2b;" horiz-adv-x="580" d="M530 338 L308 338 L308 560 L273 560 L273 338 L51 338 L51 303 L273 303 L273 80 L308 80 L308 303 L530 303 L530 338 Z " />
<glyph glyph-name="comma" unicode="&#x2c;" horiz-adv-x="198" d="M-27 -128 C42 -84 85 -40 85 34 C85 60 81 89 77 110 L23 103 C32 75 36 43 36 23 C36 -38 2 -75 -48 -109 L-27 -128 Z " />
<glyph glyph-name="hyphen" unicode="&#x2d;" horiz-adv-x="324" d="M39 258 L297 258 L305 296 L47 296 L39 258 Z " />
<glyph glyph-name="period" unicode="&#x2e;" horiz-adv-x="251" d="M78 -10 C109 -10 127 8 127 35 C127 60 111 73 88 73 C59 73 39 54 39 27 C39 1 55 -10 78 -10 L78 -10 Z " />
<glyph glyph-name="slash" unicode="&#x2f;" horiz-adv-x="310" d="M-134 -189 L-90 -189 L376 680 L332 680 L-134 -189 Z " />
<glyph glyph-name="zero" unicode="0" horiz-adv-x="580" d="M239 -10 C426 -10 548 279 548 489 C548 614 495 690 395 690 C210 690 80 407 80 205 C80 68 139 -10 239 -10 L239 -10 Z M243 28 C165 28 121 99 121 213 C121 426 258 652 386 652 C461 652 507 597 507 483 C507 257 375 28 243 28 L243 28 Z " />
<glyph glyph-name="one" unicode="1" horiz-adv-x="580" d="M474 689 C366 617 264 558 162 503 L177 473 C265 518 342 562 441 626 L305 0 L347 0 L492 681 L474 689 Z " />
<glyph glyph-name="two" unicode="2" horiz-adv-x="580" d="M94 38 L278 212 C404 331 550 428 550 567 C550 635 501 691 380 691 C310 691 230 669 194 652 L189 608 C246 635 320 654 373 654 C453 654 506 616 506 553 C506 441 367 348 250 237 L44 42 L55 0 L430 0 L457 47 C385 43 256 38 94 38 L94 38 Z " />
<glyph glyph-name="three" unicode="3" horiz-adv-x="580" d="M328 371 L314 371 C437 394 538 483 538 571 C538 639 486 691 376 691 C317 691 245 678 198 661 L194 619 C248 640 312 654 366 654 C447 654 494 622 494 568 C494 475 389 403 235 384 L226 345 C237 346 253 347 271 347 C374 347 455 315 455 232 C455 126 333 28 200 28 C157 28 105 37 45 63 L48 15 C96 -2 145 -9 192 -9 C352 -9 497 107 497 238 C497 312 444 371 328 371 L328 371 Z " />
<glyph glyph-name="four" unicode="4" horiz-adv-x="580" d="M527 216 L425 216 L524 681 L496 689 L46 219 L61 180 L376 180 L338 0 L379 0 L417 180 L520 180 L527 216 Z M91 216 L467 606 L384 216 L91 216 Z " />
<glyph glyph-name="five" unicode="5" horiz-adv-x="580" d="M547 643 L552 681 L250 681 L146 397 L168 364 C206 376 249 384 286 384 C395 384 454 332 454 254 C454 137 329 28 191 28 C143 28 89 40 52 65 L46 21 C80 0 136 -10 183 -10 C363 -10 495 121 495 259 C495 349 429 422 303 422 C261 422 218 414 191 406 L277 643 L547 643 Z " />
<glyph glyph-name="six" unicode="6" horiz-adv-x="580" d="M327 425 C277 425 215 405 163 371 C243 505 394 627 552 672 L526 703 C263 609 63 376 63 175 C63 70 125 -12 238 -12 C380 -12 506 112 506 249 C506 358 434 425 327 425 L327 425 Z M249 26 C165 26 106 81 106 182 C106 228 118 276 138 322 C200 367 259 385 317 387 C404 390 463 332 463 246 C463 128 357 26 249 26 L249 26 Z " />
<glyph glyph-name="seven" unicode="7" horiz-adv-x="580" d="M565 680 L175 680 L154 639 C274 642 394 642 514 642 C354 424 218 212 99 0 L144 0 C266 223 416 445 570 656 L565 680 Z " />
<glyph glyph-name="eight" unicode="8" horiz-adv-x="580" d="M353 359 C466 401 540 478 540 563 C540 633 489 695 381 695 C262 695 161 620 161 510 C161 437 206 398 270 362 C133 309 57 230 57 135 C57 51 116 -10 231 -10 C377 -10 493 87 493 195 C493 274 430 317 353 359 L353 359 Z M201 514 C201 598 279 657 372 657 C454 657 500 611 500 556 C500 485 423 417 317 378 C256 410 201 444 201 514 L201 514 Z M239 28 C149 28 97 72 97 141 C97 223 170 291 304 343 C397 292 453 256 453 190 C453 102 356 28 239 28 L239 28 Z " />
<glyph glyph-name="nine" unicode="9" horiz-adv-x="580" d="M388 692 C246 692 120 568 120 431 C120 322 192 255 299 255 C349 255 411 275 463 309 C383 175 232 53 74 8 L100 -23 C363 71 563 304 563 505 C563 610 501 692 388 692 L388 692 Z M163 434 C163 552 269 654 377 654 C461 654 520 599 520 498 C520 452 508 404 488 358 C426 313 367 295 309 293 C222 290 163 348 163 434 L163 434 Z " />
<glyph glyph-name="colon" unicode="&#x3a;" horiz-adv-x="251" d="M145 304 C176 304 194 322 194 349 C194 374 178 387 155 387 C126 387 106 368 106 341 C106 315 122 304 145 304 L145 304 Z M78 -10 C109 -10 127 8 127 35 C127 60 111 73 88 73 C59 73 39 54 39 27 C39 1 55 -10 78 -10 L78 -10 Z " />
<glyph glyph-name="semicolon" unicode="&#x3b;" horiz-adv-x="198" d="M88 301 C119 301 137 319 137 346 C137 371 121 384 98 384 C69 384 49 365 49 338 C49 312 65 301 88 301 L88 301 Z M-27 -128 C42 -84 85 -40 85 34 C85 52 83 71 79 90 L25 83 C32 59 36 37 36 17 C36 -38 2 -75 -48 -109 L-27 -128 Z " />
<glyph glyph-name="less" unicode="&#x3c;" horiz-adv-x="580" d="M504 436 L490 471 L76 301 L76 265 L490 95 L504 130 L119 283 L504 436 Z " />
<glyph glyph-name="equal" unicode="&#x3d;" horiz-adv-x="580" d="M75 396 L504 396 L504 431 L75 431 L75 396 Z M75 156 L504 156 L504 191 L75 191 L75 156 Z " />
<glyph glyph-name="greater" unicode="&#x3e;" horiz-adv-x="580" d="M90 471 L76 436 L461 283 L76 130 L90 95 L504 265 L504 301 L90 471 Z " />
<glyph glyph-name="question" unicode="&#x3f;" horiz-adv-x="473" d="M474 561 C474 635 411 691 301 691 C247 691 179 675 137 653 L138 613 C189 640 248 654 298 654 C380 654 434 615 434 555 C434 468 326 388 194 312 L160 156 L202 157 L229 287 C361 365 474 448 474 561 L474 561 Z M165 73 C136 73 116 54 116 27 C116 1 132 -10 155 -10 C186 -10 204 8 204 35 C204 60 188 73 165 73 L165 73 Z " />
<glyph glyph-name="at" unicode="&#x40;" horiz-adv-x="781" d="M448 569 C219 569 43 374 43 153 C43 -9 155 -120 316 -120 C377 -120 436 -101 480 -82 L496 -33 C444 -65 384 -83 320 -83 C189 -83 86 12 86 158 C86 360 239 533 446 533 C595 533 701 444 701 318 C701 204 620 85 536 85 C510 85 488 96 488 132 C488 156 504 206 509 223 L555 373 C530 397 491 412 444 412 C327 412 220 286 220 162 C220 97 258 53 316 53 C364 53 414 79 454 125 C453 78 477 51 528 51 C639 51 744 189 744 323 C744 470 619 569 448 569 L448 569 Z M447 157 C413 114 372 91 334 91 C290 91 264 120 264 169 C264 274 351 376 439 376 C464 376 488 368 508 356 L447 157 Z " />
<glyph glyph-name="A" unicode="A" horiz-adv-x="580" d="M485 119 L402 686 L352 680 L-28 0 L19 0 L167 269 L419 269 L442 107 C446 77 458 22 467 -11 L510 3 C499 40 491 80 485 119 L485 119 Z M187 307 L368 636 L414 307 L187 307 Z " />
<glyph glyph-name="B" unicode="B" horiz-adv-x="547" d="M371 376 C458 412 508 481 508 554 C508 627 455 680 349 680 L211 680 L66 0 L243 0 C358 0 477 116 477 238 C477 294 440 352 371 376 L371 376 Z M243 642 L335 642 C426 642 466 612 466 549 C466 473 400 414 311 389 L190 391 L243 642 Z M282 38 L115 38 L182 352 L298 352 C387 352 430 297 430 231 C430 146 372 73 282 38 L282 38 Z " />
<glyph glyph-name="C" unicode="C" horiz-adv-x="575" d="M300 -11 C353 -11 423 2 459 21 L483 72 C418 41 366 28 314 28 C204 28 129 89 129 231 C129 463 302 648 473 648 C510 648 552 638 577 624 L599 670 C571 679 524 687 487 687 C260 687 86 461 86 225 C86 68 180 -11 300 -11 L300 -11 Z " />
<glyph glyph-name="D" unicode="D" horiz-adv-x="673" d="M355 680 L211 680 L66 0 L220 0 C436 0 628 196 628 426 C628 584 537 680 355 680 L355 680 Z M249 38 L115 38 L243 642 L351 642 C509 642 587 560 587 418 C587 246 447 58 249 38 L249 38 Z " />
<glyph glyph-name="E" unicode="E" horiz-adv-x="514" d="M532 642 L534 680 L211 680 L66 0 L412 0 L424 38 L115 38 L182 352 L444 352 L454 390 L190 390 L244 642 L532 642 Z " />
<glyph glyph-name="F" unicode="F" horiz-adv-x="479" d="M519 642 L527 680 L211 680 L66 0 L107 0 L177 329 L424 329 L433 367 L185 367 L244 642 L519 642 Z " />
<glyph glyph-name="G" unicode="G" horiz-adv-x="623" d="M488 652 C531 652 578 643 610 630 L630 671 C605 680 547 690 497 690 C265 690 89 472 89 238 C89 70 179 -10 319 -10 C376 -10 457 3 496 22 L550 273 L510 273 L462 49 C419 36 378 29 336 29 C213 29 133 88 133 241 C133 455 290 652 488 652 L488 652 Z " />
<glyph glyph-name="H" unicode="H" horiz-adv-x="663" d="M602 680 L538 381 L188 381 L252 680 L211 680 L66 0 L107 0 L180 343 L530 343 L457 0 L498 0 L643 680 L602 680 Z " />
<glyph glyph-name="I" unicode="I" horiz-adv-x="274" d="M67 0 L108 0 L253 680 L212 680 L67 0 Z " />
<glyph glyph-name="J" unicode="J" horiz-adv-x="341" d="M8 -7 C56 -2 108 22 141 49 C175 78 201 117 212 169 L321 680 L280 680 L173 174 C155 91 90 44 -6 31 L8 -7 Z " />
<glyph glyph-name="K" unicode="K" horiz-adv-x="546" d="M606 680 L546 680 L180 344 L252 680 L211 680 L66 0 L107 0 L180 344 L428 -9 L474 -1 L228 339 L606 680 Z " />
<glyph glyph-name="L" unicode="L" horiz-adv-x="473" d="M115 38 L252 680 L211 680 L66 0 L378 0 L393 38 L115 38 Z " />
<glyph glyph-name="M" unicode="M" horiz-adv-x="767" d="M679 680 L350 79 L270 682 L223 680 L13 0 L57 0 L239 611 L320 16 L360 18 L689 623 L611 -3 L654 0 L736 683 L679 680 Z " />
<glyph glyph-name="N" unicode="N" horiz-adv-x="711" d="M651 679 L523 78 L240 682 L211 680 L66 0 L106 0 L234 603 L515 -4 L547 1 L691 682 L651 679 Z " />
<glyph glyph-name="O" unicode="O" horiz-adv-x="694" d="M294 -11 C398 -11 481 40 543 120 C612 209 652 337 652 460 C652 609 572 691 446 691 C365 691 287 657 221 586 C136 494 88 353 88 226 C88 66 178 -11 294 -11 L294 -11 Z M303 26 C189 26 128 105 128 230 C128 432 251 654 442 654 C543 654 611 591 611 460 C611 256 490 26 303 26 L303 26 Z " />
<glyph glyph-name="P" unicode="P" horiz-adv-x="526" d="M331 680 L211 680 L66 0 L107 0 L173 312 C193 308 238 302 274 302 C335 302 388 314 437 351 C483 385 526 458 526 523 C526 627 458 680 331 680 L331 680 Z M285 340 C249 340 207 346 182 351 L244 647 L330 645 C435 644 483 603 483 522 C483 418 400 340 285 340 L285 340 Z " />
<glyph glyph-name="Q" unicode="Q" horiz-adv-x="694" d="M388 4 C449 25 501 66 543 120 C612 209 652 337 652 460 C652 609 572 691 446 691 C365 691 287 657 221 586 C136 494 88 353 88 226 C88 66 178 -11 294 -11 C312 -11 330 -9 347 -6 C403 -82 479 -141 577 -191 L579 -191 L601 -151 L602 -147 C527 -114 446 -57 388 4 L388 4 Z M128 230 C128 432 251 654 442 654 C543 654 611 591 611 460 C611 256 490 26 303 26 C189 26 128 105 128 230 L128 230 Z " />
<glyph glyph-name="R" unicode="R" horiz-adv-x="555" d="M345 328 C441 365 520 443 520 536 C520 630 439 680 352 680 L211 680 L66 0 L108 0 L176 320 L299 315 C336 190 376 97 418 0 L463 0 L464 6 C413 112 373 204 337 324 L345 328 Z M244 642 L329 642 C426 642 480 603 480 531 C480 453 411 385 311 352 L184 357 L244 642 Z " />
<glyph glyph-name="S" unicode="S" horiz-adv-x="493" d="M156 -10 C234 -10 294 13 343 53 C391 93 425 149 425 212 C425 304 352 343 283 382 C206 426 169 452 169 508 C169 591 252 653 357 653 C397 653 441 644 478 628 L488 673 C462 681 416 690 369 690 C305 690 245 671 201 639 C156 606 126 558 126 505 C126 425 192 389 256 352 C335 307 382 277 382 208 C382 106 277 28 163 28 C117 28 61 41 30 55 L23 10 C41 2 100 -10 156 -10 L156 -10 Z " />
<glyph glyph-name="T" unicode="T" horiz-adv-x="441" d="M504 680 L124 680 L110 642 L286 642 L149 0 L190 0 L327 642 L491 642 L504 680 Z " />
<glyph glyph-name="U" unicode="U" horiz-adv-x="626" d="M257 -10 C306 -10 361 3 410 42 C455 78 489 128 504 198 L606 680 L565 680 L463 197 C442 100 364 28 263 28 C190 28 140 55 140 133 C140 149 142 166 146 186 L251 680 L210 680 L104 181 C100 162 98 145 98 129 C98 38 158 -10 257 -10 L257 -10 Z " />
<glyph glyph-name="V" unicode="V" horiz-adv-x="594" d="M597 680 C504 466 391 253 260 39 L205 482 L179 688 L139 677 C147 612 156 547 164 482 L225 -6 L278 0 C412 213 533 435 645 680 L597 680 Z " />
<glyph glyph-name="W" unicode="W" horiz-adv-x="846" d="M854 680 C773 479 677 280 570 78 L556 359 C552 449 544 596 542 683 L498 677 L202 84 L194 359 C191 452 181 620 178 687 L138 676 C144 585 150 464 153 370 L166 -4 L202 0 L506 610 C509 553 511 458 515 384 L536 -5 L568 0 C692 227 801 453 897 680 L854 680 Z " />
<glyph glyph-name="X" unicode="X" horiz-adv-x="554" d="M610 681 L559 681 L311 373 L181 691 L143 672 L282 343 L-10 0 L44 0 L298 303 L425 -7 L466 5 L329 336 L610 681 Z " />
<glyph glyph-name="Y" unicode="Y" horiz-adv-x="500" d="M507 680 L281 355 L171 690 L132 676 L252 314 L184 0 L227 0 L295 314 L557 680 L507 680 Z " />
<glyph glyph-name="Z" unicode="Z" horiz-adv-x="500" d="M544 680 L168 680 L150 639 L484 644 L8 28 L9 0 L392 0 L410 39 L64 36 L538 650 L544 680 Z " />
<glyph glyph-name="bracketleft" unicode="&#x5b;" horiz-adv-x="313" d="M333 642 L341 680 L181 680 L15 -100 L175 -100 L183 -62 L63 -62 L213 642 L333 642 Z " />
<glyph glyph-name="backslash" unicode="&#x5c;" horiz-adv-x="346" d="M291 -189 L332 -189 L136 680 L95 680 L291 -189 Z " />
<glyph glyph-name="bracketright" unicode="&#x5d;" horiz-adv-x="314" d="M323 680 L163 680 L155 642 L275 642 L125 -62 L5 -62 L-3 -100 L157 -100 L323 680 Z " />
<glyph glyph-name="underscore" unicode="&#x5f;" horiz-adv-x="479" d="M-79 -143 L399 -143 L407 -103 L-71 -103 L-79 -143 Z " />
<glyph glyph-name="grave" unicode="&#x60;" horiz-adv-x="331" d="M344 547 L347 547 L364 577 L364 580 C287 606 219 635 155 670 L150 670 L124 626 C195 594 266 568 344 547 L344 547 Z " />
<glyph glyph-name="a" unicode="a" horiz-adv-x="483" d="M429 469 L407 418 C373 447 326 474 281 474 C159 474 44 280 44 108 C44 35 63 -9 114 -9 C175 -9 265 54 358 233 C325 114 319 65 320 0 L358 0 C360 62 363 104 375 151 L457 465 L429 469 Z M125 28 C95 28 84 57 84 109 C84 261 180 439 279 439 C314 439 359 416 395 383 C303 157 188 28 125 28 L125 28 Z " />
<glyph glyph-name="b" unicode="b" horiz-adv-x="464" d="M296 469 C239 469 192 435 159 378 L155 378 L220 687 L179 680 L58 110 C50 73 41 45 32 23 C66 4 106 -7 155 -7 C303 -7 413 149 413 325 C413 411 366 469 296 469 L296 469 Z M163 30 C136 30 106 36 84 47 L127 245 C153 367 228 432 285 432 C335 432 370 388 370 318 C370 156 263 30 163 30 L163 30 Z " />
<glyph glyph-name="c" unicode="c" horiz-adv-x="405" d="M192 -11 C230 -11 279 2 309 19 L318 66 L315 66 C283 43 239 27 198 27 C140 27 92 56 92 149 C92 311 201 433 303 433 C333 433 361 424 382 415 L394 456 C370 465 338 470 310 470 C158 470 50 299 50 144 C50 36 105 -11 192 -11 L192 -11 Z " />
<glyph glyph-name="d" unicode="d" horiz-adv-x="475" d="M465 680 L400 424 C375 451 335 474 292 474 C137 474 41 238 41 94 C41 31 70 -9 119 -9 C194 -9 283 79 357 244 C321 112 315 86 316 0 L354 0 C356 63 359 104 371 151 L504 685 L465 680 Z M124 28 C97 28 81 52 81 101 C81 221 161 439 291 439 C331 439 364 421 390 383 C287 140 192 28 124 28 L124 28 Z " />
<glyph glyph-name="e" unicode="e" horiz-adv-x="433" d="M264 246 C348 272 396 318 396 385 C396 432 359 470 297 470 C155 470 52 309 52 150 C52 50 117 -10 205 -10 C256 -10 312 7 345 29 L357 77 L354 77 C318 49 258 27 215 27 C152 27 96 69 96 158 C96 179 98 201 102 222 C165 225 219 233 264 246 L264 246 Z M291 433 C329 433 355 412 355 379 C355 329 314 296 247 277 C209 266 163 261 111 259 C140 354 208 433 291 433 L291 433 Z " />
<glyph glyph-name="f" unicode="f" horiz-adv-x="284" d="M268 648 C284 648 302 646 331 641 L348 682 L288 687 C269 687 248 682 225 664 C201 646 188 624 182 597 L153 464 L79 464 L68 428 L145 428 L10 -190 L50 -190 L185 428 L288 428 L300 464 L193 464 L224 606 C229 630 247 648 268 648 L268 648 Z " />
<glyph glyph-name="g" unicode="g" horiz-adv-x="466" d="M418 469 L396 419 C367 447 317 474 276 474 C155 474 39 257 39 84 C39 29 65 -9 113 -9 C193 -9 272 60 351 229 L282 -44 C260 -126 219 -158 166 -158 C118 -158 65 -140 17 -114 L15 -164 C62 -184 113 -197 163 -197 C237 -197 299 -150 323 -48 L445 465 L418 469 Z M124 28 C95 28 79 51 79 88 C79 241 180 439 275 439 C310 439 346 418 385 383 C297 156 206 28 124 28 L124 28 Z " />
<glyph glyph-name="h" unicode="h" horiz-adv-x="494" d="M42 0 L83 0 L130 217 C164 373 268 434 328 434 C368 434 393 410 393 373 C393 347 385 310 376 269 L316 0 L357 0 L413 262 C423 310 435 355 435 384 C435 430 400 471 343 471 C284 471 220 444 164 361 L160 361 L229 685 L189 679 C180 635 170 592 159 541 L42 0 Z " />
<glyph glyph-name="i" unicode="i" horiz-adv-x="214" d="M182 599 C204 599 225 616 225 638 C225 656 212 668 194 668 C169 668 151 650 151 630 C151 610 164 599 182 599 L182 599 Z M39 0 L77 0 L175 464 L137 464 L39 0 Z " />
<glyph glyph-name="j" unicode="j" horiz-adv-x="218" d="M186 599 C208 599 229 616 229 638 C229 656 216 668 198 668 C173 668 155 650 155 630 C155 610 168 599 186 599 L186 599 Z M-34 -190 C-11 -188 7 -180 22 -168 C38 -155 51 -135 56 -112 L178 464 L138 464 L14 -116 C9 -140 -4 -149 -19 -149 C-36 -149 -48 -144 -65 -138 L-80 -177 L-34 -190 Z " />
<glyph glyph-name="k" unicode="k" horiz-adv-x="411" d="M415 464 L363 464 C344 438 299 392 232 339 L128 258 L227 688 L186 681 L28 0 L68 0 L126 250 L285 -9 L329 -1 L170 248 L257 312 C329 365 375 418 415 464 L415 464 Z " />
<glyph glyph-name="l" unicode="l" horiz-adv-x="201" d="M28 0 L68 0 L221 688 L180 681 L28 0 Z " />
<glyph glyph-name="m" unicode="m" horiz-adv-x="712" d="M38 0 L78 0 L130 217 C167 372 253 434 306 434 C343 434 363 411 363 371 C363 353 357 317 345 263 L285 0 L325 0 L372 206 C399 325 453 434 544 434 C586 434 608 407 608 371 C608 349 603 314 594 275 L530 0 L570 0 L633 272 C643 317 650 355 650 379 C650 427 616 471 552 471 C497 471 437 434 402 362 L401 362 C412 420 381 471 314 471 C271 471 212 444 164 361 L161 361 C168 395 174 430 181 468 L139 464 C133 419 125 377 114 330 L38 0 Z " />
<glyph glyph-name="n" unicode="n" horiz-adv-x="494" d="M42 0 L83 0 L130 217 C164 373 268 434 328 434 C368 434 393 410 393 373 C393 347 385 310 376 269 L316 0 L357 0 L413 262 C423 310 435 355 435 384 C435 430 400 471 343 471 C284 471 220 444 164 361 L160 361 C170 404 176 448 177 470 L136 464 C131 421 124 379 114 333 L42 0 Z " />
<glyph glyph-name="o" unicode="o" horiz-adv-x="471" d="M174 -11 C316 -11 420 159 420 318 C420 403 369 474 294 474 C150 474 51 301 51 146 C51 44 107 -11 174 -11 L174 -11 Z M191 26 C127 26 94 71 94 152 C94 296 181 437 277 437 C340 437 377 390 377 314 C377 157 278 26 191 26 L191 26 Z " />
<glyph glyph-name="p" unicode="p" horiz-adv-x="471" d="M306 472 C255 472 197 434 160 374 L158 374 L179 468 L140 465 C127 403 108 324 92 254 L-11 -191 L31 -183 L75 2 C96 -6 126 -11 156 -11 C317 -11 422 172 422 330 C422 414 388 472 306 472 L306 472 Z M164 26 C135 26 106 34 85 45 L132 244 C162 374 247 435 303 435 C350 435 380 395 380 323 C380 174 280 26 164 26 L164 26 Z " />
<glyph glyph-name="q" unicode="q" horiz-adv-x="481" d="M422 469 L401 419 C376 446 328 474 278 474 C150 474 43 267 43 98 C43 28 70 -9 116 -9 C173 -9 274 61 359 244 L267 -189 L310 -183 L450 465 L422 469 Z M123 28 C98 28 83 53 83 103 C83 250 174 439 275 439 C317 439 356 419 389 384 C297 157 184 28 123 28 L123 28 Z " />
<glyph glyph-name="r" unicode="r" horiz-adv-x="308" d="M46 0 L86 0 L143 268 C166 367 232 429 284 429 C300 429 319 426 330 422 L333 468 C325 471 315 474 297 474 C249 474 198 444 162 364 L160 364 C168 417 168 447 166 468 L126 464 C127 432 121 355 106 283 L46 0 Z " />
<glyph glyph-name="s" unicode="s" horiz-adv-x="352" d="M112 -11 C204 -11 288 50 288 136 C288 196 238 232 191 261 C148 285 115 305 115 346 C115 395 166 435 230 435 C267 435 304 424 329 412 L332 456 C312 464 274 472 238 472 C155 472 75 414 75 338 C75 283 114 261 162 233 C221 199 248 173 248 130 C248 74 192 28 126 28 C84 28 39 41 1 63 L-2 14 C21 1 66 -11 112 -11 L112 -11 Z " />
<glyph glyph-name="t" unicode="t" horiz-adv-x="312" d="M181 428 L313 428 L319 464 L189 464 L216 592 L207 592 L172 573 L149 464 L77 464 L66 428 L141 428 L75 118 C65 70 63 59 63 47 C63 10 87 -11 127 -11 C161 -11 198 1 227 15 L234 59 L231 59 C196 37 163 28 142 28 C117 28 105 40 105 62 C105 70 107 82 114 115 L181 428 Z " />
<glyph glyph-name="u" unicode="u" horiz-adv-x="495" d="M152 -9 C218 -9 297 35 338 112 L341 112 C341 110 328 41 322 0 L359 0 C369 50 380 100 390 150 L456 464 L416 464 L372 260 C336 95 234 28 162 28 C120 28 100 49 100 89 C100 106 103 121 114 172 L177 464 L137 464 L76 181 C66 134 61 111 61 86 C61 27 94 -9 152 -9 L152 -9 Z " />
<glyph glyph-name="v" unicode="v" horiz-adv-x="410" d="M373 464 C326 337 250 198 164 65 L140 299 L122 471 L79 467 C85 410 92 353 98 296 L131 0 L160 0 C272 158 359 313 418 468 L373 464 Z " />
<glyph glyph-name="w" unicode="w" horiz-adv-x="603" d="M567 464 C534 335 465 197 391 76 C388 205 381 334 368 464 L326 464 C267 324 203 194 136 73 L128 248 C125 313 123 424 120 471 L78 464 C81 436 83 367 89 253 L101 0 L133 0 C205 124 272 257 335 399 C348 266 355 133 357 0 L388 0 C478 145 564 309 610 464 L567 464 Z " />
<glyph glyph-name="x" unicode="x" horiz-adv-x="393" d="M412 464 L363 464 C319 398 266 332 203 267 L123 471 L81 460 L172 234 C100 156 36 78 -17 0 L34 0 C75 66 127 131 187 197 L267 -5 L307 4 L218 230 C293 307 357 386 412 464 L412 464 Z " />
<glyph glyph-name="y" unicode="y" horiz-adv-x="395" d="M363 464 C311 327 238 190 165 53 L132 334 C127 379 121 423 116 468 L74 463 C79 419 86 375 91 331 L130 17 L144 16 L100 -64 C59 -139 17 -161 -15 -161 C-32 -161 -51 -154 -63 -149 L-72 -189 L-27 -199 C54 -199 98 -147 131 -87 C223 80 328 269 411 464 L363 464 Z " />
<glyph glyph-name="z" unicode="z" horiz-adv-x="381" d="M364 434 L345 464 L94 464 L78 425 L312 428 L-5 28 L10 0 L286 0 L303 39 L47 36 L364 434 Z " />
<glyph glyph-name="braceleft" unicode="&#x7b;" horiz-adv-x="326" d="M132 -116 L201 -106 L200 -67 C183 -73 158 -77 138 -77 C108 -77 88 -64 88 -33 C88 69 182 149 182 234 C182 263 165 283 133 287 L134 288 C189 296 218 346 218 455 C218 482 217 510 217 534 C217 619 243 655 303 655 C322 655 345 650 363 641 L379 678 C359 685 335 690 308 690 C230 690 174 649 174 526 C174 495 176 463 176 433 C176 344 149 306 100 306 L91 306 L83 268 L92 268 C127 268 138 250 138 226 C138 154 47 78 47 -35 C47 -94 87 -116 132 -116 L132 -116 Z " />
<glyph glyph-name="bar" unicode="&#x7c;" horiz-adv-x="351" d="M93 -191 L134 -191 L279 755 L238 755 L93 -191 Z " />
<glyph glyph-name="braceright" unicode="&#x7d;" horiz-adv-x="313" d="M208 690 L143 680 L142 641 C161 647 183 651 205 651 C235 651 255 638 255 609 C255 506 156 440 156 349 C156 313 174 290 203 287 L203 286 C140 277 115 222 115 88 L115 67 C115 -45 93 -81 28 -81 C11 -81 -7 -76 -22 -67 L-22 -104 C-10 -111 6 -116 27 -116 C116 -116 158 -59 158 63 L158 127 C158 232 187 268 236 268 L245 268 L254 306 L245 306 C211 306 199 324 199 347 C199 443 296 495 296 614 C296 659 267 690 208 690 L208 690 Z " />
<glyph glyph-name="exclamdown" unicode="&#xa1;" horiz-adv-x="307" d="M202 476 C171 476 153 458 153 431 C153 406 169 393 192 393 C221 393 241 412 241 439 C241 465 225 476 202 476 L202 476 Z M199 333 L159 333 L43 -214 L83 -214 L199 333 Z " />
<glyph glyph-name="cent" unicode="&#xa2;" horiz-adv-x="580" d="M409 533 C447 533 492 526 513 516 L531 552 C503 563 464 569 428 570 L468 732 L423 730 L393 569 C232 557 111 428 111 272 C111 153 179 96 274 90 L236 -67 L280 -65 L309 89 C357 92 401 104 433 118 L456 169 L453 169 C415 143 357 126 301 126 C216 126 154 164 154 272 C154 423 262 533 409 533 L409 533 Z " />
<glyph glyph-name="sterling" unicode="&#xa3;" horiz-adv-x="580" d="M390 652 C449 652 494 641 534 622 L550 664 C519 677 460 688 404 688 C289 688 181 609 181 488 C181 451 190 411 198 370 L107 370 L98 332 L205 332 C209 309 212 285 212 262 C212 161 165 85 59 34 L74 0 L453 0 L461 39 L123 39 C214 85 252 175 252 262 C252 287 249 310 244 332 L447 332 L456 370 L236 370 C228 404 221 441 221 488 C221 593 309 652 390 652 L390 652 Z " />
<glyph glyph-name="yen" unicode="&#xa5;" horiz-adv-x="580" d="M612 680 L561 680 L317 350 L196 690 L157 676 L283 336 L107 336 L99 298 L288 298 L266 196 L78 196 L70 158 L258 158 L224 0 L267 0 L301 158 L489 158 L497 196 L309 196 L331 298 L519 298 L527 336 L351 336 L612 680 Z " />
<glyph glyph-name="section" unicode="&#xa7;" horiz-adv-x="511" d="M360 652 C397 652 439 645 474 633 L490 675 C466 683 416 690 368 690 C316 690 264 675 224 647 C179 617 150 572 150 525 C150 471 191 439 241 412 C138 387 72 321 72 253 C72 106 334 121 334 6 C334 -76 237 -145 134 -145 C77 -145 20 -132 -8 -119 L0 -165 C18 -175 73 -184 120 -184 C184 -184 255 -161 295 -130 C342 -94 374 -39 374 7 C374 55 345 85 307 109 C362 132 458 190 458 276 C458 420 190 422 190 533 C190 595 265 652 360 652 L360 652 Z M418 272 C418 208 354 158 265 131 C193 164 112 188 112 256 C112 324 193 379 295 386 C358 357 418 328 418 272 L418 272 Z " />
<glyph glyph-name="dieresis" unicode="&#xa8;" horiz-adv-x="278" d="M161 599 C183 599 204 616 204 638 C204 656 191 668 173 668 C148 668 130 650 130 630 C130 610 143 599 161 599 L161 599 Z M276 599 C298 599 319 616 319 638 C319 656 306 668 288 668 C263 668 245 650 245 630 C245 610 258 599 276 599 L276 599 Z " />
<glyph glyph-name="copyright" unicode="&#xa9;" horiz-adv-x="795" d="M370 -8 C589 -8 772 168 772 398 C772 574 623 690 468 690 C250 690 68 502 68 279 C68 108 191 -8 370 -8 L370 -8 Z M368 30 C222 30 110 140 110 288 C110 490 271 652 464 652 C602 652 733 549 733 393 C733 190 569 30 368 30 L368 30 Z M392 156 C431 156 468 167 495 183 L504 227 L501 227 C476 210 443 195 405 195 C340 195 285 228 285 310 C285 406 360 485 459 485 C495 485 526 478 545 471 L559 506 C537 515 501 524 463 524 C339 524 241 415 241 305 C241 199 313 156 392 156 L392 156 Z " />
<glyph glyph-name="ordfeminine" unicode="&#xaa;" horiz-adv-x="384" d="M432 676 L407 677 L387 645 C362 666 327 683 297 683 C197 683 107 535 107 426 C107 373 128 344 172 344 C218 344 289 392 344 488 C323 414 324 386 325 350 L365 350 C364 392 367 428 377 468 L432 676 Z M180 381 C158 381 147 400 147 431 C147 515 221 648 295 648 C320 648 347 632 374 613 C311 455 228 381 180 381 L180 381 Z " />
<glyph glyph-name="guillemotleft" unicode="&#xab;" horiz-adv-x="508" d="M286 411 L219 411 L47 240 L45 231 L155 60 L208 60 L98 233 L286 411 Z M492 411 L425 411 L253 240 L251 231 L361 60 L414 60 L304 233 L492 411 Z " />
<glyph glyph-name="logicalnot" unicode="&#xac;" horiz-adv-x="580" d="M510 412 L70 412 L70 377 L475 377 L475 132 L510 132 L510 412 Z " />
<glyph glyph-name="registered" unicode="&#xae;" horiz-adv-x="514" d="M340 690 C215 690 115 582 115 462 C115 365 185 294 285 294 C406 294 510 403 510 522 C510 619 439 690 340 690 L340 690 Z M291 330 C210 330 154 388 154 466 C154 566 231 654 333 654 C414 654 472 595 472 517 C472 418 390 330 291 330 L291 330 Z M398 552 C398 576 380 596 338 596 L264 596 L225 401 L260 401 L275 476 L313 472 L345 401 L383 401 L384 403 L348 481 C378 494 398 521 398 552 L398 552 Z M326 503 L281 506 L293 562 L330 562 C346 562 359 554 359 540 C359 524 346 509 326 503 L326 503 Z " />
<glyph glyph-name="degree" unicode="&#xb0;" horiz-adv-x="310" d="M201 406 C283 406 357 494 357 576 C357 643 307 696 244 696 C163 696 90 617 90 528 C90 457 138 406 201 406 L201 406 Z M208 445 C166 445 131 477 131 529 C131 589 174 657 239 657 C280 657 314 624 314 574 C314 515 272 445 208 445 L208 445 Z " />
<glyph glyph-name="acute" unicode="&#xb4;" horiz-adv-x="324" d="M285 670 C210 637 136 610 38 580 L37 577 L41 547 L44 547 C135 570 217 596 297 626 L290 670 L285 670 Z " />
<glyph glyph-name="paragraph" unicode="&#xb6;" horiz-adv-x="541" d="M357 688 C196 670 107 560 107 436 C107 358 150 300 227 300 C255 300 281 309 302 319 L262 130 C229 -24 189 -90 79 -184 L93 -201 C213 -124 278 -6 307 130 L424 680 L357 688 Z M481 680 L336 0 L376 0 L521 680 L481 680 Z " />
<glyph glyph-name="periodcentered" unicode="&#xb7;" horiz-adv-x="250" d="M122 200 C153 200 171 218 171 245 C171 270 155 283 132 283 C103 283 83 264 83 237 C83 211 99 200 122 200 L122 200 Z " />
<glyph glyph-name="cedilla" unicode="&#xb8;" horiz-adv-x="261" d="M62 -53 L96 0 L58 0 L12 -74 L12 -75 C77 -103 99 -117 99 -135 C99 -159 70 -177 33 -177 C9 -177 -18 -171 -43 -160 L-44 -204 C-30 -209 0 -213 24 -213 C91 -213 143 -172 143 -129 C143 -96 116 -74 62 -53 L62 -53 Z " />
<glyph glyph-name="ordmasculine" unicode="&#xba;" horiz-adv-x="390" d="M213 342 C319 342 400 458 400 564 C400 633 356 682 295 682 C187 682 110 567 110 460 C110 385 157 342 213 342 L213 342 Z M224 379 C175 379 149 410 149 465 C149 557 211 647 282 647 C330 647 360 615 360 560 C360 461 289 379 224 379 L224 379 Z " />
<glyph glyph-name="guillemotright" unicode="&#xbb;" horiz-adv-x="515" d="M255 241 L146 412 L91 412 L202 242 L9 61 L71 61 L253 232 L255 241 Z M354 412 L299 412 L410 242 L217 61 L279 61 L461 232 L463 241 L354 412 Z " />
<glyph glyph-name="onequarter" unicode="&#xbc;" horiz-adv-x="850" d="M308 684 C258 662 186 627 127 607 L137 580 C186 594 225 610 282 637 L203 270 L238 270 L324 675 L308 684 Z M593 680 L262 0 L303 0 L634 680 L593 680 Z M790 136 C770 136 750 136 729 135 L787 406 L759 413 L491 135 L501 100 L685 100 L663 -2 L700 -2 L722 100 L783 100 L790 136 Z M535 135 L736 342 L692 135 L535 135 Z " />
<glyph glyph-name="onehalf" unicode="&#xbd;" horiz-adv-x="850" d="M308 684 C258 662 186 627 127 607 L137 580 C186 594 225 610 282 637 L203 270 L238 270 L324 675 L308 684 Z M593 680 L262 0 L303 0 L634 680 L593 680 Z M626 119 C706 188 794 251 794 327 C794 376 755 413 680 413 C644 413 603 405 576 392 L557 347 C591 367 639 379 671 379 C718 379 753 358 753 322 C753 261 677 210 598 140 L474 30 L479 -2 L721 -2 L742 42 C703 37 630 33 525 32 L626 119 Z " />
<glyph glyph-name="threequarters" unicode="&#xbe;" horiz-adv-x="850" d="M350 413 C350 452 324 491 260 496 C326 516 372 559 372 606 C372 649 338 685 271 685 C229 685 192 676 168 667 L158 630 C191 643 229 651 260 651 C303 651 330 634 330 603 C330 554 274 515 182 503 L177 469 C256 474 309 456 309 408 C309 351 238 299 165 299 C139 299 104 304 73 322 L74 278 C97 269 135 265 159 265 C259 265 350 336 350 413 L350 413 Z M593 680 L262 0 L303 0 L634 680 L593 680 Z M790 136 C770 136 750 136 729 135 L787 406 L759 413 L491 135 L501 100 L685 100 L663 -2 L700 -2 L722 100 L783 100 L790 136 Z M535 135 L736 342 L692 135 L535 135 Z " />
<glyph glyph-name="questiondown" unicode="&#xbf;" horiz-adv-x="473" d="M321 474 C290 474 272 456 272 429 C272 404 288 391 311 391 C340 391 360 410 360 437 C360 463 344 474 321 474 L321 474 Z M178 -190 C96 -190 42 -151 42 -91 C42 -4 150 76 282 152 L316 308 L274 307 L247 177 C115 99 2 16 2 -97 C2 -171 65 -227 175 -227 C229 -227 297 -211 339 -189 L338 -149 C287 -176 228 -190 178 -190 L178 -190 Z " />
<glyph glyph-name="Agrave" unicode="&#xc0;" horiz-adv-x="580" d="M478 763 L495 793 L495 796 C418 822 350 851 286 886 L281 886 L255 842 C326 810 397 784 475 763 L478 763 Z M485 119 L402 686 L352 680 L-28 0 L19 0 L167 269 L419 269 L442 107 C446 77 458 22 467 -11 L510 3 C499 40 491 80 485 119 L485 119 Z M187 307 L368 636 L414 307 L187 307 Z " />
<glyph glyph-name="Aacute" unicode="&#xc1;" horiz-adv-x="580" d="M280 763 C371 786 453 812 533 842 L526 886 L521 886 C446 853 372 826 274 796 L273 793 L277 763 L280 763 Z M402 686 L352 680 L-28 0 L19 0 L167 269 L419 269 L442 107 C446 77 458 22 467 -11 L510 3 C499 40 491 80 485 119 L402 686 Z M187 307 L368 636 L414 307 L187 307 Z " />
<glyph glyph-name="Acircumflex" unicode="&#xc2;" horiz-adv-x="580" d="M416 906 L391 906 L237 769 L236 766 L260 747 L263 747 L394 857 C420 819 448 785 485 747 L488 747 L515 770 L515 773 C478 818 440 869 416 906 L416 906 Z M402 686 L352 680 L-28 0 L19 0 L167 269 L419 269 L442 107 C446 77 458 22 467 -11 L510 3 C499 40 491 80 485 119 L402 686 Z M187 307 L368 636 L414 307 L187 307 Z " />
<glyph glyph-name="Atilde" unicode="&#xc3;" horiz-adv-x="580" d="M337 808 C373 808 389 753 431 753 C466 753 498 782 532 832 L511 853 C484 820 461 798 438 798 C405 798 390 852 343 852 C303 852 264 817 234 772 L256 751 C287 791 312 808 337 808 L337 808 Z M402 686 L352 680 L-28 0 L19 0 L167 269 L419 269 L442 107 C446 77 458 22 467 -11 L510 3 C499 40 491 80 485 119 L402 686 Z M187 307 L368 636 L414 307 L187 307 Z " />
<glyph glyph-name="Adieresis" unicode="&#xc4;" horiz-adv-x="580" d="M320 785 C342 785 363 802 363 824 C363 842 350 854 332 854 C307 854 289 836 289 816 C289 796 302 785 320 785 L320 785 Z M442 785 C464 785 485 802 485 824 C485 842 472 854 454 854 C429 854 411 836 411 816 C411 796 424 785 442 785 L442 785 Z M485 119 L402 686 L352 680 L-28 0 L19 0 L167 269 L419 269 L442 107 C446 77 458 22 467 -11 L510 3 C499 40 491 80 485 119 L485 119 Z M187 307 L368 636 L414 307 L187 307 Z " />
<glyph glyph-name="Aring" unicode="&#xc5;" horiz-adv-x="580" d="M374 747 C426 747 473 789 473 840 C473 881 447 906 403 906 C349 906 303 863 303 812 C303 772 333 747 374 747 L374 747 Z M397 878 C423 878 441 863 441 837 C441 803 412 775 379 775 C354 775 336 789 336 816 C336 850 365 878 397 878 L397 878 Z M485 119 L402 686 L352 680 L-28 0 L19 0 L167 269 L419 269 L442 107 C446 77 458 22 467 -11 L510 3 C499 40 491 80 485 119 L485 119 Z M187 307 L368 636 L414 307 L187 307 Z " />
<glyph glyph-name="AE" unicode="&#xc6;" horiz-adv-x="829" d="M853 642 L855 680 L527 680 L484 684 L-39 0 L8 0 L190 239 L420 239 L369 0 L727 0 L739 38 L418 38 L487 360 L766 360 L776 398 L495 398 L547 642 L853 642 Z M219 277 L509 656 L428 277 L219 277 Z " />
<glyph glyph-name="Ccedilla" unicode="&#xc7;" horiz-adv-x="575" d="M473 648 C510 648 552 638 577 624 L599 670 C571 679 524 687 487 687 C260 687 86 461 86 225 C86 82 164 4 268 -9 L226 -76 L226 -77 C291 -105 313 -119 313 -137 C313 -161 284 -179 247 -179 C223 -179 196 -173 171 -162 L170 -206 C184 -211 214 -215 238 -215 C305 -215 357 -174 357 -131 C357 -98 330 -76 276 -55 L304 -11 C357 -10 424 2 459 21 L483 72 C418 41 366 28 314 28 C204 28 129 89 129 231 C129 463 302 648 473 648 L473 648 Z " />
<glyph glyph-name="Egrave" unicode="&#xc8;" horiz-adv-x="514" d="M495 763 L512 793 L512 796 C435 822 367 851 303 886 L298 886 L272 842 C343 810 414 784 492 763 L495 763 Z M532 642 L534 680 L211 680 L66 0 L412 0 L424 38 L115 38 L182 352 L444 352 L454 390 L190 390 L244 642 L532 642 Z " />
<glyph glyph-name="Eacute" unicode="&#xc9;" horiz-adv-x="514" d="M297 763 C388 786 470 812 550 842 L543 886 L538 886 C463 853 389 826 291 796 L290 793 L294 763 L297 763 Z M534 680 L211 680 L66 0 L412 0 L424 38 L115 38 L182 352 L444 352 L454 390 L190 390 L244 642 L532 642 L534 680 Z " />
<glyph glyph-name="Ecircumflex" unicode="&#xca;" horiz-adv-x="514" d="M280 747 L411 857 C437 819 465 785 502 747 L505 747 L532 770 L532 773 C495 818 457 869 433 906 L408 906 L254 769 L253 766 L277 747 L280 747 Z M532 642 L534 680 L211 680 L66 0 L412 0 L424 38 L115 38 L182 352 L444 352 L454 390 L190 390 L244 642 L532 642 Z " />
<glyph glyph-name="Edieresis" unicode="&#xcb;" horiz-adv-x="514" d="M337 785 C359 785 380 802 380 824 C380 842 367 854 349 854 C324 854 306 836 306 816 C306 796 319 785 337 785 L337 785 Z M459 785 C481 785 502 802 502 824 C502 842 489 854 471 854 C446 854 428 836 428 816 C428 796 441 785 459 785 L459 785 Z M532 642 L534 680 L211 680 L66 0 L412 0 L424 38 L115 38 L182 352 L444 352 L454 390 L190 390 L244 642 L532 642 Z " />
<glyph glyph-name="Igrave" unicode="&#xcc;" horiz-adv-x="274" d="M203 886 L198 886 L177 842 C226 815 278 790 333 767 L336 767 L350 796 L350 799 C298 826 249 855 203 886 L203 886 Z M67 0 L108 0 L253 680 L212 680 L67 0 Z " />
<glyph glyph-name="Iacute" unicode="&#xcd;" horiz-adv-x="274" d="M324 886 C278 855 229 826 177 799 L177 796 L191 767 L194 767 C249 790 301 815 350 842 L329 886 L324 886 Z M67 0 L108 0 L253 680 L212 680 L67 0 Z " />
<glyph glyph-name="Icircumflex" unicode="&#xce;" horiz-adv-x="274" d="M302 906 L278 906 L152 770 L151 767 L172 744 L175 744 L281 857 C299 819 317 788 346 744 L348 744 L375 762 L375 765 C349 807 327 851 302 906 L302 906 Z M67 0 L108 0 L253 680 L212 680 L67 0 Z " />
<glyph glyph-name="Idieresis" unicode="&#xcf;" horiz-adv-x="274" d="M195 785 C217 785 238 802 238 824 C238 842 225 854 207 854 C182 854 164 836 164 816 C164 796 177 785 195 785 L195 785 Z M317 785 C339 785 360 802 360 824 C360 842 347 854 329 854 C304 854 286 836 286 816 C286 796 299 785 317 785 L317 785 Z M67 0 L108 0 L253 680 L212 680 L67 0 Z " />
<glyph glyph-name="Eth" unicode="&#xd0;" horiz-adv-x="673" d="M355 680 L211 680 L145 371 L78 371 L71 333 L137 333 L66 0 L220 0 C436 0 628 196 628 426 C628 584 537 680 355 680 L355 680 Z M249 38 L115 38 L177 333 L358 333 L366 371 L185 371 L243 642 L351 642 C509 642 587 560 587 418 C587 246 447 58 249 38 L249 38 Z " />
<glyph glyph-name="Ntilde" unicode="&#xd1;" horiz-adv-x="711" d="M431 808 C467 808 483 753 525 753 C560 753 592 782 626 832 L605 853 C578 820 555 798 532 798 C499 798 484 852 437 852 C397 852 358 817 328 772 L350 751 C381 791 406 808 431 808 L431 808 Z M651 679 L523 78 L240 682 L211 680 L66 0 L106 0 L234 603 L515 -4 L547 1 L691 682 L651 679 Z " />
<glyph glyph-name="Ograve" unicode="&#xd2;" horiz-adv-x="694" d="M550 763 L553 763 L570 793 L570 796 C493 822 425 851 361 886 L356 886 L330 842 C401 810 472 784 550 763 L550 763 Z M294 -11 C398 -11 481 40 543 120 C612 209 652 337 652 460 C652 609 572 691 446 691 C365 691 287 657 221 586 C136 494 88 353 88 226 C88 66 178 -11 294 -11 L294 -11 Z M303 26 C189 26 128 105 128 230 C128 432 251 654 442 654 C543 654 611 591 611 460 C611 256 490 26 303 26 L303 26 Z " />
<glyph glyph-name="Oacute" unicode="&#xd3;" horiz-adv-x="694" d="M596 886 C521 853 447 826 349 796 L348 793 L352 763 L355 763 C446 786 528 812 608 842 L601 886 L596 886 Z M294 -11 C398 -11 481 40 543 120 C612 209 652 337 652 460 C652 609 572 691 446 691 C365 691 287 657 221 586 C136 494 88 353 88 226 C88 66 178 -11 294 -11 L294 -11 Z M303 26 C189 26 128 105 128 230 C128 432 251 654 442 654 C543 654 611 591 611 460 C611 256 490 26 303 26 L303 26 Z " />
<glyph glyph-name="Ocircumflex" unicode="&#xd4;" horiz-adv-x="694" d="M338 747 L469 857 C495 819 523 785 560 747 L563 747 L590 770 L590 773 C553 818 515 869 491 906 L466 906 L312 769 L311 766 L335 747 L338 747 Z M446 691 C365 691 287 657 221 586 C136 494 88 353 88 226 C88 66 178 -11 294 -11 C398 -11 481 40 543 120 C612 209 652 337 652 460 C652 609 572 691 446 691 L446 691 Z M303 26 C189 26 128 105 128 230 C128 432 251 654 442 654 C543 654 611 591 611 460 C611 256 490 26 303 26 L303 26 Z " />
<glyph glyph-name="Otilde" unicode="&#xd5;" horiz-adv-x="694" d="M331 751 C362 791 387 808 412 808 C448 808 464 753 506 753 C541 753 573 782 607 832 L586 853 C559 820 536 798 513 798 C480 798 465 852 418 852 C378 852 339 817 309 772 L331 751 Z M294 -11 C398 -11 481 40 543 120 C612 209 652 337 652 460 C652 609 572 691 446 691 C365 691 287 657 221 586 C136 494 88 353 88 226 C88 66 178 -11 294 -11 L294 -11 Z M303 26 C189 26 128 105 128 230 C128 432 251 654 442 654 C543 654 611 591 611 460 C611 256 490 26 303 26 L303 26 Z " />
<glyph glyph-name="Odieresis" unicode="&#xd6;" horiz-adv-x="694" d="M405 815 C427 815 448 832 448 854 C448 872 435 884 417 884 C392 884 374 866 374 846 C374 826 387 815 405 815 L405 815 Z M520 815 C542 815 563 832 563 854 C563 872 550 884 532 884 C507 884 489 866 489 846 C489 826 502 815 520 815 L520 815 Z M294 -11 C398 -11 481 40 543 120 C612 209 652 337 652 460 C652 609 572 691 446 691 C365 691 287 657 221 586 C136 494 88 353 88 226 C88 66 178 -11 294 -11 L294 -11 Z M303 26 C189 26 128 105 128 230 C128 432 251 654 442 654 C543 654 611 591 611 460 C611 256 490 26 303 26 L303 26 Z " />
<glyph glyph-name="multiply" unicode="&#xd7;" horiz-adv-x="580" d="M508 477 L483 502 L290 310 L97 502 L72 478 L265 285 L72 93 L97 68 L290 260 L483 68 L508 92 L315 285 L508 477 Z " />
<glyph glyph-name="Oslash" unicode="&#xd8;" horiz-adv-x="694" d="M579 648 L643 751 L614 768 L551 667 C521 683 486 691 446 691 C365 691 287 657 221 586 C136 494 88 353 88 226 C88 139 114 77 157 38 L84 -78 L114 -95 L184 18 C216 -2 253 -11 294 -11 C398 -11 481 40 543 120 C612 209 652 337 652 460 C652 546 625 610 579 648 L579 648 Z M128 230 C128 432 251 654 442 654 C475 654 505 647 530 633 L179 74 C145 109 128 163 128 230 L128 230 Z M303 26 C264 26 232 35 206 52 L557 614 C591 582 611 531 611 460 C611 256 490 26 303 26 L303 26 Z " />
<glyph glyph-name="Ugrave" unicode="&#xd9;" horiz-adv-x="626" d="M526 763 L529 763 L546 793 L546 796 C469 822 401 851 337 886 L332 886 L306 842 C377 810 448 784 526 763 L526 763 Z M257 -10 C306 -10 361 3 410 42 C455 78 489 128 504 198 L606 680 L565 680 L463 197 C442 100 364 28 263 28 C190 28 140 55 140 133 C140 149 142 166 146 186 L251 680 L210 680 L104 181 C100 162 98 145 98 129 C98 38 158 -10 257 -10 L257 -10 Z " />
<glyph glyph-name="Uacute" unicode="&#xda;" horiz-adv-x="626" d="M572 886 C497 853 423 826 325 796 L324 793 L328 763 L331 763 C422 786 504 812 584 842 L577 886 L572 886 Z M257 -10 C306 -10 361 3 410 42 C455 78 489 128 504 198 L606 680 L565 680 L463 197 C442 100 364 28 263 28 C190 28 140 55 140 133 C140 149 142 166 146 186 L251 680 L210 680 L104 181 C100 162 98 145 98 129 C98 38 158 -10 257 -10 L257 -10 Z " />
<glyph glyph-name="Ucircumflex" unicode="&#xdb;" horiz-adv-x="626" d="M314 747 L445 857 C471 819 499 785 536 747 L539 747 L566 770 L566 773 C529 818 491 869 467 906 L442 906 L288 769 L287 766 L311 747 L314 747 Z M565 680 L463 197 C442 100 364 28 263 28 C190 28 140 55 140 133 C140 149 142 166 146 186 L251 680 L210 680 L104 181 C100 162 98 145 98 129 C98 38 158 -10 257 -10 C306 -10 361 3 410 42 C455 78 489 128 504 198 L606 680 L565 680 Z " />
<glyph glyph-name="Udieresis" unicode="&#xdc;" horiz-adv-x="626" d="M371 785 C393 785 414 802 414 824 C414 842 401 854 383 854 C358 854 340 836 340 816 C340 796 353 785 371 785 L371 785 Z M493 785 C515 785 536 802 536 824 C536 842 523 854 505 854 C480 854 462 836 462 816 C462 796 475 785 493 785 L493 785 Z M257 -10 C306 -10 361 3 410 42 C455 78 489 128 504 198 L606 680 L565 680 L463 197 C442 100 364 28 263 28 C190 28 140 55 140 133 C140 149 142 166 146 186 L251 680 L210 680 L104 181 C100 162 98 145 98 129 C98 38 158 -10 257 -10 L257 -10 Z " />
<glyph glyph-name="Thorn" unicode="&#xde;" horiz-adv-x="508" d="M313 546 C284 546 253 543 221 536 L252 680 L211 680 L66 0 L107 0 L145 177 C163 173 201 168 231 168 C282 168 338 179 386 216 C442 258 482 333 482 401 C482 491 413 546 313 546 L313 546 Z M246 206 C219 206 176 212 153 217 L214 501 C252 510 286 513 307 512 C397 509 438 470 438 398 C438 289 355 206 246 206 L246 206 Z " />
<glyph glyph-name="germandbls" unicode="&#xdf;" horiz-adv-x="477" d="M256 -11 C299 -11 338 6 366 33 C397 61 416 99 416 137 C416 186 379 226 331 264 C297 291 273 318 273 348 C273 430 419 459 419 596 C419 646 377 687 316 687 C235 687 162 632 136 508 L-12 -190 L28 -190 L175 505 C196 606 247 650 311 650 C351 650 380 625 380 591 C380 477 232 453 232 344 C232 299 258 268 295 239 C349 196 372 169 372 132 C372 81 321 26 268 26 C219 26 181 42 150 70 L147 18 C172 0 207 -11 256 -11 L256 -11 Z " />
<glyph glyph-name="agrave" unicode="&#xe0;" horiz-adv-x="483" d="M408 547 L425 577 L425 580 C348 606 280 635 216 670 L211 670 L185 626 C256 594 327 568 405 547 L408 547 Z M429 469 L407 418 C373 447 326 474 281 474 C159 474 44 280 44 108 C44 35 63 -9 114 -9 C175 -9 265 54 358 233 C325 114 319 65 320 0 L358 0 C360 62 363 104 375 151 L457 465 L429 469 Z M125 28 C95 28 84 57 84 109 C84 261 180 439 279 439 C314 439 359 416 395 383 C303 157 188 28 125 28 L125 28 Z " />
<glyph glyph-name="aacute" unicode="&#xe1;" horiz-adv-x="483" d="M210 547 C301 570 383 596 463 626 L456 670 L451 670 C376 637 302 610 204 580 L203 577 L207 547 L210 547 Z M407 418 C373 447 326 474 281 474 C159 474 44 280 44 108 C44 35 63 -9 114 -9 C175 -9 265 54 358 233 C325 114 319 65 320 0 L358 0 C360 62 363 104 375 151 L457 465 L429 469 L407 418 Z M125 28 C95 28 84 57 84 109 C84 261 180 439 279 439 C314 439 359 416 395 383 C303 157 188 28 125 28 L125 28 Z " />
<glyph glyph-name="acircumflex" unicode="&#xe2;" horiz-adv-x="483" d="M193 531 L324 641 C350 603 378 569 415 531 L418 531 L445 554 L445 557 C408 602 370 653 346 690 L321 690 L167 553 L166 550 L190 531 L193 531 Z M429 469 L407 418 C373 447 326 474 281 474 C159 474 44 280 44 108 C44 35 63 -9 114 -9 C175 -9 265 54 358 233 C325 114 319 65 320 0 L358 0 C360 62 363 104 375 151 L457 465 L429 469 Z M125 28 C95 28 84 57 84 109 C84 261 180 439 279 439 C314 439 359 416 395 383 C303 157 188 28 125 28 L125 28 Z " />
<glyph glyph-name="atilde" unicode="&#xe3;" horiz-adv-x="483" d="M272 622 C302 622 323 567 357 567 C381 567 413 589 449 646 L425 664 C403 636 386 612 363 612 C336 612 320 666 278 666 C254 666 222 639 189 592 L211 570 C237 607 255 622 272 622 L272 622 Z M429 469 L407 418 C373 447 326 474 281 474 C159 474 44 280 44 108 C44 35 63 -9 114 -9 C175 -9 265 54 358 233 C325 114 319 65 320 0 L358 0 C360 62 363 104 375 151 L457 465 L429 469 Z M125 28 C95 28 84 57 84 109 C84 261 180 439 279 439 C314 439 359 416 395 383 C303 157 188 28 125 28 L125 28 Z " />
<glyph glyph-name="adieresis" unicode="&#xe4;" horiz-adv-x="483" d="M260 599 C282 599 303 616 303 638 C303 656 290 668 272 668 C247 668 229 650 229 630 C229 610 242 599 260 599 L260 599 Z M375 599 C397 599 418 616 418 638 C418 656 405 668 387 668 C362 668 344 650 344 630 C344 610 357 599 375 599 L375 599 Z M429 469 L407 418 C373 447 326 474 281 474 C159 474 44 280 44 108 C44 35 63 -9 114 -9 C175 -9 265 54 358 233 C325 114 319 65 320 0 L358 0 C360 62 363 104 375 151 L457 465 L429 469 Z M125 28 C95 28 84 57 84 109 C84 261 180 439 279 439 C314 439 359 416 395 383 C303 157 188 28 125 28 L125 28 Z " />
<glyph glyph-name="aring" unicode="&#xe5;" horiz-adv-x="483" d="M304 531 C356 531 403 573 403 624 C403 665 377 690 333 690 C279 690 233 647 233 596 C233 556 263 531 304 531 L304 531 Z M327 662 C353 662 371 647 371 621 C371 587 342 559 309 559 C284 559 266 573 266 600 C266 634 295 662 327 662 L327 662 Z M429 469 L407 418 C373 447 326 474 281 474 C159 474 44 280 44 108 C44 35 63 -9 114 -9 C175 -9 265 54 358 233 C325 114 319 65 320 0 L358 0 C360 62 363 104 375 151 L457 465 L429 469 Z M125 28 C95 28 84 57 84 109 C84 261 180 439 279 439 C314 439 359 416 395 383 C303 157 188 28 125 28 L125 28 Z " />
<glyph glyph-name="ae" unicode="&#xe6;" horiz-adv-x="693" d="M524 246 C608 272 656 318 656 385 C656 432 619 470 557 470 C490 470 432 434 389 380 L389 386 C389 442 351 474 271 474 C227 474 165 457 141 443 L123 394 C170 420 226 437 273 437 C320 437 349 416 349 377 C349 369 348 359 346 349 L328 262 L327 260 L251 254 C128 245 33 181 33 86 C33 24 72 -9 126 -9 C181 -9 242 16 323 84 C345 24 398 -10 465 -10 C516 -10 572 7 605 29 L617 77 L614 77 C578 49 518 27 475 27 C412 27 356 69 356 158 C356 179 358 201 362 222 C425 225 479 233 524 246 L524 246 Z M551 433 C589 433 615 412 615 379 C615 329 574 296 507 277 C469 266 423 261 371 259 C400 354 468 433 551 433 L551 433 Z M136 28 C95 28 75 53 75 93 C75 161 141 211 254 219 L319 224 C314 199 312 175 312 150 C312 140 313 130 314 120 C242 53 179 28 136 28 L136 28 Z " />
<glyph glyph-name="ccedilla" unicode="&#xe7;" horiz-adv-x="405" d="M303 433 C333 433 361 424 382 415 L394 456 C370 465 338 470 310 470 C158 470 50 299 50 144 C50 50 91 3 159 -8 L118 -74 L118 -75 C183 -103 205 -117 205 -135 C205 -159 176 -177 139 -177 C115 -177 88 -171 63 -160 L62 -204 C76 -209 106 -213 130 -213 C197 -213 249 -172 249 -129 C249 -96 222 -74 168 -53 L195 -11 C232 -10 280 2 309 19 L318 66 L315 66 C283 43 239 27 198 27 C140 27 92 56 92 149 C92 311 201 433 303 433 L303 433 Z " />
<glyph glyph-name="egrave" unicode="&#xe8;" horiz-adv-x="433" d="M203 670 L198 670 L172 626 C243 594 314 568 392 547 L395 547 L412 577 L412 580 C335 606 267 635 203 670 L203 670 Z M297 470 C155 470 52 309 52 150 C52 50 117 -10 205 -10 C256 -10 312 7 345 29 L357 77 L354 77 C318 49 258 27 215 27 C152 27 96 69 96 158 C96 179 98 201 102 222 C165 225 219 233 264 246 C348 272 396 318 396 385 C396 432 359 470 297 470 L297 470 Z M247 277 C209 266 163 261 111 259 C140 354 208 433 291 433 C329 433 355 412 355 379 C355 329 314 296 247 277 L247 277 Z " />
<glyph glyph-name="eacute" unicode="&#xe9;" horiz-adv-x="433" d="M197 547 C288 570 370 596 450 626 L443 670 L438 670 C363 637 289 610 191 580 L190 577 L194 547 L197 547 Z M297 470 C155 470 52 309 52 150 C52 50 117 -10 205 -10 C256 -10 312 7 345 29 L357 77 L354 77 C318 49 258 27 215 27 C152 27 96 69 96 158 C96 179 98 201 102 222 C165 225 219 233 264 246 C348 272 396 318 396 385 C396 432 359 470 297 470 L297 470 Z M247 277 C209 266 163 261 111 259 C140 354 208 433 291 433 C329 433 355 412 355 379 C355 329 314 296 247 277 L247 277 Z " />
<glyph glyph-name="ecircumflex" unicode="&#xea;" horiz-adv-x="433" d="M333 690 L308 690 L154 553 L153 550 L177 531 L180 531 L311 641 C337 603 365 569 402 531 L405 531 L432 554 L432 557 C395 602 357 653 333 690 L333 690 Z M297 470 C155 470 52 309 52 150 C52 50 117 -10 205 -10 C256 -10 312 7 345 29 L357 77 L354 77 C318 49 258 27 215 27 C152 27 96 69 96 158 C96 179 98 201 102 222 C165 225 219 233 264 246 C348 272 396 318 396 385 C396 432 359 470 297 470 L297 470 Z M247 277 C209 266 163 261 111 259 C140 354 208 433 291 433 C329 433 355 412 355 379 C355 329 314 296 247 277 L247 277 Z " />
<glyph glyph-name="edieresis" unicode="&#xeb;" horiz-adv-x="433" d="M247 599 C269 599 290 616 290 638 C290 656 277 668 259 668 C234 668 216 650 216 630 C216 610 229 599 247 599 L247 599 Z M362 599 C384 599 405 616 405 638 C405 656 392 668 374 668 C349 668 331 650 331 630 C331 610 344 599 362 599 L362 599 Z M297 470 C155 470 52 309 52 150 C52 50 117 -10 205 -10 C256 -10 312 7 345 29 L357 77 L354 77 C318 49 258 27 215 27 C152 27 96 69 96 158 C96 179 98 201 102 222 C165 225 219 233 264 246 C348 272 396 318 396 385 C396 432 359 470 297 470 L297 470 Z M247 277 C209 266 163 261 111 259 C140 354 208 433 291 433 C329 433 355 412 355 379 C355 329 314 296 247 277 L247 277 Z " />
<glyph glyph-name="igrave" unicode="&#xec;" horiz-adv-x="214" d="M127 670 L122 670 L101 626 C150 599 202 574 257 551 L260 551 L274 580 L274 583 C222 610 173 639 127 670 L127 670 Z M39 0 L77 0 L175 464 L137 464 L39 0 Z " />
<glyph glyph-name="iacute" unicode="&#xed;" horiz-adv-x="214" d="M248 670 C202 639 153 610 101 583 L101 580 L115 551 L118 551 C173 574 225 599 274 626 L253 670 L248 670 Z M39 0 L77 0 L175 464 L137 464 L39 0 Z " />
<glyph glyph-name="icircumflex" unicode="&#xee;" horiz-adv-x="214" d="M226 690 L202 690 L76 554 L75 551 L96 528 L99 528 L205 641 C223 603 241 572 270 528 L272 528 L299 546 L299 549 C273 591 251 635 226 690 L226 690 Z M39 0 L77 0 L175 464 L137 464 L39 0 Z " />
<glyph glyph-name="idieresis" unicode="&#xef;" horiz-adv-x="214" d="M139 599 C159 599 178 616 178 638 C178 656 166 668 150 668 C128 668 112 650 112 630 C112 610 123 599 139 599 L139 599 Z M234 599 C254 599 273 616 273 638 C273 656 261 668 245 668 C223 668 207 650 207 630 C207 610 218 599 234 599 L234 599 Z M39 0 L77 0 L175 464 L137 464 L39 0 Z " />
<glyph glyph-name="eth" unicode="&#xf0;" horiz-adv-x="458" d="M466 648 L461 676 L349 622 C332 644 312 667 288 689 L240 680 C268 654 291 629 311 603 L184 542 L190 514 L327 580 C355 537 371 494 377 446 C357 463 327 474 290 474 C163 474 51 311 51 141 C51 45 98 -11 176 -11 C325 -11 419 205 419 403 C419 469 405 535 364 599 L466 648 Z M376 394 C376 203 282 26 180 26 C123 26 95 71 95 147 C95 296 187 437 287 437 C325 437 361 418 376 398 L376 394 Z " />
<glyph glyph-name="ntilde" unicode="&#xf1;" horiz-adv-x="494" d="M222 570 C248 607 266 622 283 622 C313 622 334 567 368 567 C392 567 424 589 460 646 L436 664 C414 636 397 612 374 612 C347 612 331 666 289 666 C265 666 233 639 200 592 L222 570 Z M42 0 L83 0 L130 217 C164 373 268 434 328 434 C368 434 393 410 393 373 C393 347 385 310 376 269 L316 0 L357 0 L413 262 C423 310 435 355 435 384 C435 430 400 471 343 471 C284 471 220 444 164 361 L160 361 C170 404 176 448 177 470 L136 464 C131 421 124 379 114 333 L42 0 Z " />
<glyph glyph-name="ograve" unicode="&#xf2;" horiz-adv-x="471" d="M403 547 L406 547 L423 577 L423 580 C346 606 278 635 214 670 L209 670 L183 626 C254 594 325 568 403 547 L403 547 Z M174 -11 C316 -11 420 159 420 318 C420 403 369 474 294 474 C150 474 51 301 51 146 C51 44 107 -11 174 -11 L174 -11 Z M191 26 C127 26 94 71 94 152 C94 296 181 437 277 437 C340 437 377 390 377 314 C377 157 278 26 191 26 L191 26 Z " />
<glyph glyph-name="oacute" unicode="&#xf3;" horiz-adv-x="471" d="M449 670 C374 637 300 610 202 580 L201 577 L205 547 L208 547 C299 570 381 596 461 626 L454 670 L449 670 Z M174 -11 C316 -11 420 159 420 318 C420 403 369 474 294 474 C150 474 51 301 51 146 C51 44 107 -11 174 -11 L174 -11 Z M191 26 C127 26 94 71 94 152 C94 296 181 437 277 437 C340 437 377 390 377 314 C377 157 278 26 191 26 L191 26 Z " />
<glyph glyph-name="ocircumflex" unicode="&#xf4;" horiz-adv-x="471" d="M344 690 L319 690 L165 553 L164 550 L188 531 L191 531 L322 641 C348 603 376 569 413 531 L416 531 L443 554 L443 557 C406 602 368 653 344 690 L344 690 Z M294 474 C150 474 51 301 51 146 C51 44 107 -11 174 -11 C316 -11 420 159 420 318 C420 403 369 474 294 474 L294 474 Z M191 26 C127 26 94 71 94 152 C94 296 181 437 277 437 C340 437 377 390 377 314 C377 157 278 26 191 26 L191 26 Z " />
<glyph glyph-name="otilde" unicode="&#xf5;" horiz-adv-x="471" d="M209 570 C235 607 253 622 270 622 C300 622 321 567 355 567 C379 567 411 589 447 646 L423 664 C401 636 384 612 361 612 C334 612 318 666 276 666 C252 666 220 639 187 592 L209 570 Z M174 -11 C316 -11 420 159 420 318 C420 403 369 474 294 474 C150 474 51 301 51 146 C51 44 107 -11 174 -11 L174 -11 Z M191 26 C127 26 94 71 94 152 C94 296 181 437 277 437 C340 437 377 390 377 314 C377 157 278 26 191 26 L191 26 Z " />
<glyph glyph-name="odieresis" unicode="&#xf6;" horiz-adv-x="471" d="M258 599 C280 599 301 616 301 638 C301 656 288 668 270 668 C245 668 227 650 227 630 C227 610 240 599 258 599 L258 599 Z M373 599 C395 599 416 616 416 638 C416 656 403 668 385 668 C360 668 342 650 342 630 C342 610 355 599 373 599 L373 599 Z M174 -11 C316 -11 420 159 420 318 C420 403 369 474 294 474 C150 474 51 301 51 146 C51 44 107 -11 174 -11 L174 -11 Z M191 26 C127 26 94 71 94 152 C94 296 181 437 277 437 C340 437 377 390 377 314 C377 157 278 26 191 26 L191 26 Z " />
<glyph glyph-name="divide" unicode="&#xf7;" horiz-adv-x="580" d="M302 439 C330 439 347 453 347 482 C347 508 330 522 306 522 C277 522 260 505 260 477 C260 451 277 439 302 439 L302 439 Z M89 277 L518 277 L518 312 L89 312 L89 277 Z M302 65 C330 65 347 79 347 108 C347 134 330 148 306 148 C277 148 260 131 260 103 C260 77 277 65 302 65 L302 65 Z " />
<glyph glyph-name="oslash" unicode="&#xf8;" horiz-adv-x="471" d="M372 442 L418 514 L390 529 L346 461 C331 469 313 474 294 474 C150 474 51 301 51 146 C51 102 61 67 78 42 L-1 -83 L27 -97 L100 17 C120 -2 146 -11 174 -11 C316 -11 420 159 420 318 C420 368 402 413 372 442 L372 442 Z M277 437 C295 437 311 433 325 426 L105 83 C98 102 94 125 94 152 C94 296 181 437 277 437 L277 437 Z M191 26 C162 26 139 35 123 53 L347 402 L349 406 C367 384 377 353 377 314 C377 157 278 26 191 26 L191 26 Z " />
<glyph glyph-name="ugrave" unicode="&#xf9;" horiz-adv-x="495" d="M426 547 L429 547 L446 577 L446 580 C369 606 301 635 237 670 L232 670 L206 626 C277 594 348 568 426 547 L426 547 Z M152 -9 C218 -9 297 35 338 112 L341 112 C341 110 328 41 322 0 L359 0 C369 50 380 100 390 150 L456 464 L416 464 L372 260 C336 95 234 28 162 28 C120 28 100 49 100 89 C100 106 103 121 114 172 L177 464 L137 464 L76 181 C66 134 61 111 61 86 C61 27 94 -9 152 -9 L152 -9 Z " />
<glyph glyph-name="uacute" unicode="&#xfa;" horiz-adv-x="495" d="M472 670 C397 637 323 610 225 580 L224 577 L228 547 L231 547 C322 570 404 596 484 626 L477 670 L472 670 Z M152 -9 C218 -9 297 35 338 112 L341 112 C341 110 328 41 322 0 L359 0 C369 50 380 100 390 150 L456 464 L416 464 L372 260 C336 95 234 28 162 28 C120 28 100 49 100 89 C100 106 103 121 114 172 L177 464 L137 464 L76 181 C66 134 61 111 61 86 C61 27 94 -9 152 -9 L152 -9 Z " />
<glyph glyph-name="ucircumflex" unicode="&#xfb;" horiz-adv-x="495" d="M367 690 L342 690 L188 553 L187 550 L211 531 L214 531 L345 641 C371 603 399 569 436 531 L439 531 L466 554 L466 557 C429 602 391 653 367 690 L367 690 Z M372 260 C336 95 234 28 162 28 C120 28 100 49 100 89 C100 106 103 121 114 172 L177 464 L137 464 L76 181 C66 134 61 111 61 86 C61 27 94 -9 152 -9 C218 -9 297 35 338 112 L341 112 C341 110 328 41 322 0 L359 0 C369 50 380 100 390 150 L456 464 L416 464 L372 260 Z " />
<glyph glyph-name="udieresis" unicode="&#xfc;" horiz-adv-x="495" d="M281 599 C303 599 324 616 324 638 C324 656 311 668 293 668 C268 668 250 650 250 630 C250 610 263 599 281 599 L281 599 Z M396 599 C418 599 439 616 439 638 C439 656 426 668 408 668 C383 668 365 650 365 630 C365 610 378 599 396 599 L396 599 Z M152 -9 C218 -9 297 35 338 112 L341 112 C341 110 328 41 322 0 L359 0 C369 50 380 100 390 150 L456 464 L416 464 L372 260 C336 95 234 28 162 28 C120 28 100 49 100 89 C100 106 103 121 114 172 L177 464 L137 464 L76 181 C66 134 61 111 61 86 C61 27 94 -9 152 -9 L152 -9 Z " />
<glyph glyph-name="thorn" unicode="&#xfe;" horiz-adv-x="469" d="M304 472 C253 472 195 434 158 374 L156 374 C186 502 207 595 225 683 L185 680 C158 555 123 395 90 254 L-13 -191 L29 -183 L73 2 C94 -6 124 -11 154 -11 C315 -11 420 172 420 330 C420 414 386 472 304 472 L304 472 Z M162 26 C133 26 104 34 83 45 L130 244 C160 374 245 435 301 435 C348 435 378 395 378 323 C378 174 278 26 162 26 L162 26 Z " />
<glyph glyph-name="dotlessi" unicode="&#x131;" horiz-adv-x="214" d="M39 0 L77 0 L175 464 L137 464 L39 0 Z " />
<glyph glyph-name="OE" unicode="&#x152;" horiz-adv-x="819" d="M838 642 L850 680 L471 680 C257 680 90 487 90 237 C90 75 184 0 324 0 L717 0 L729 38 L425 38 L493 352 L748 352 L758 390 L501 390 L556 642 L838 642 Z M330 37 C201 37 133 115 133 244 C133 464 276 643 464 643 L515 643 L384 37 L330 37 Z " />
<glyph glyph-name="oe" unicode="&#x153;" horiz-adv-x="738" d="M571 246 C655 272 703 318 703 385 C703 432 666 470 604 470 C527 470 461 421 417 351 C406 421 359 474 294 474 C150 474 51 301 51 146 C51 44 107 -11 174 -11 C253 -11 320 41 364 115 C377 36 436 -10 512 -10 C563 -10 619 7 652 29 L657 71 L654 71 C620 46 563 27 522 27 C459 27 403 69 403 158 C403 179 405 201 409 222 C472 225 526 233 571 246 L571 246 Z M191 26 C127 26 94 71 94 152 C94 296 181 437 277 437 C340 437 377 390 377 314 C377 157 278 26 191 26 L191 26 Z M598 433 C636 433 662 412 662 379 C662 329 621 296 554 277 C516 266 470 261 418 259 C447 354 515 433 598 433 L598 433 Z " />
<glyph glyph-name="Utilde" unicode="&#x168;" horiz-adv-x="626" d="M307 751 C338 791 363 808 388 808 C424 808 440 753 482 753 C517 753 549 782 583 832 L562 853 C535 820 512 798 489 798 C456 798 441 852 394 852 C354 852 315 817 285 772 L307 751 Z M257 -10 C306 -10 361 3 410 42 C455 78 489 128 504 198 L606 680 L565 680 L463 197 C442 100 364 28 263 28 C190 28 140 55 140 133 C140 149 142 166 146 186 L251 680 L210 680 L104 181 C100 162 98 145 98 129 C98 38 158 -10 257 -10 L257 -10 Z " />
<glyph glyph-name="utilde" unicode="&#x169;" horiz-adv-x="495" d="M232 570 C258 607 276 622 293 622 C323 622 344 567 378 567 C402 567 434 589 470 646 L446 664 C424 636 407 612 384 612 C357 612 341 666 299 666 C275 666 243 639 210 592 L232 570 Z M152 -9 C218 -9 297 35 338 112 L341 112 C341 110 328 41 322 0 L359 0 C369 50 380 100 390 150 L456 464 L416 464 L372 260 C336 95 234 28 162 28 C120 28 100 49 100 89 C100 106 103 121 114 172 L177 464 L137 464 L76 181 C66 134 61 111 61 86 C61 27 94 -9 152 -9 L152 -9 Z " />
<glyph glyph-name="uni0237" unicode="&#x237;" horiz-adv-x="218" d="M-34 -190 C-11 -188 7 -180 22 -168 C38 -155 51 -135 56 -112 L178 464 L138 464 L14 -116 C9 -140 -4 -149 -19 -149 C-36 -149 -48 -144 -65 -138 L-80 -177 L-34 -190 Z " />
<glyph glyph-name="circumflex" unicode="&#x2c6;" horiz-adv-x="359" d="M288 690 L263 690 L109 553 L108 550 L132 531 L135 531 L266 641 C292 603 320 569 357 531 L360 531 L387 554 L387 557 C350 602 312 653 288 690 L288 690 Z " />
<glyph glyph-name="dotaccent" unicode="&#x2d9;" horiz-adv-x="153" d="M156 599 C178 599 199 616 199 638 C199 656 186 668 168 668 C143 668 125 650 125 630 C125 610 138 599 156 599 L156 599 Z " />
<glyph glyph-name="ring" unicode="&#x2da;" horiz-adv-x="248" d="M190 531 C242 531 289 573 289 624 C289 665 263 690 219 690 C165 690 119 647 119 596 C119 556 149 531 190 531 L190 531 Z M195 559 C170 559 152 573 152 600 C152 634 181 662 213 662 C239 662 257 647 257 621 C257 587 228 559 195 559 L195 559 Z " />
<glyph glyph-name="tilde" unicode="&#x2dc;" horiz-adv-x="329" d="M139 570 C165 607 183 622 200 622 C230 622 251 567 285 567 C309 567 341 589 377 646 L353 664 C331 636 314 612 291 612 C264 612 248 666 206 666 C182 666 150 639 117 592 L139 570 Z " />
<glyph glyph-name="gravecomb" unicode="&#x300;" d="M97 547 L100 547 L117 577 L117 580 C40 606 -28 635 -92 670 L-97 670 L-123 626 C-52 594 19 568 97 547 L97 547 Z " />
<glyph glyph-name="acutecomb" unicode="&#x301;" d="M108 670 C33 637 -41 610 -139 580 L-140 577 L-136 547 L-133 547 C-42 570 40 596 120 626 L113 670 L108 670 Z " />
<glyph glyph-name="uni0302" unicode="&#x302;" d="M-23 690 L-48 690 L-202 553 L-203 550 L-179 531 L-176 531 L-45 641 C-19 603 9 569 46 531 L49 531 L76 554 L76 557 C39 602 1 653 -23 690 L-23 690 Z " />
<glyph glyph-name="tildecomb" unicode="&#x303;" d="M-113 570 C-87 607 -69 622 -52 622 C-22 622 -1 567 33 567 C57 567 89 589 125 646 L101 664 C79 636 62 612 39 612 C12 612 -4 666 -46 666 C-70 666 -102 639 -135 592 L-113 570 Z " />
<glyph glyph-name="uni0307" unicode="&#x307;" d="M71 599 C93 599 114 616 114 638 C114 656 101 668 83 668 C58 668 40 650 40 630 C40 610 53 599 71 599 L71 599 Z " />
<glyph glyph-name="uni0308" unicode="&#x308;" d="M-117 599 C-95 599 -74 616 -74 638 C-74 656 -87 668 -105 668 C-130 668 -148 650 -148 630 C-148 610 -135 599 -117 599 L-117 599 Z M-2 599 C20 599 41 616 41 638 C41 656 28 668 10 668 C-15 668 -33 650 -33 630 C-33 610 -20 599 -2 599 L-2 599 Z " />
<glyph glyph-name="uni030A" unicode="&#x30a;" d="M-58 531 C-6 531 41 573 41 624 C41 665 15 690 -29 690 C-83 690 -129 647 -129 596 C-129 556 -99 531 -58 531 L-58 531 Z M-53 559 C-78 559 -96 573 -96 600 C-96 634 -67 662 -35 662 C-9 662 9 647 9 621 C9 587 -20 559 -53 559 L-53 559 Z " />
<glyph glyph-name="uni0327" unicode="&#x327;" d="M-322 -53 L-288 0 L-326 0 L-372 -74 L-372 -75 C-307 -103 -285 -117 -285 -135 C-285 -159 -314 -177 -351 -177 C-375 -177 -402 -171 -427 -160 L-428 -204 C-414 -209 -384 -213 -360 -213 C-293 -213 -241 -172 -241 -129 C-241 -96 -268 -74 -322 -53 L-322 -53 Z " />
<glyph glyph-name="endash" unicode="&#x2013;" horiz-adv-x="335" d="M39 258 L308 258 L316 296 L47 296 L39 258 Z " />
<glyph glyph-name="emdash" unicode="&#x2014;" horiz-adv-x="580" d="M39 258 L553 258 L561 296 L47 296 L39 258 Z " />
<glyph glyph-name="quoteleft" unicode="&#x2018;" horiz-adv-x="237" d="M155 472 L209 479 C203 500 199 522 199 544 C199 591 221 630 282 671 L262 690 C182 640 149 591 149 527 C149 512 151 491 155 472 L155 472 Z " />
<glyph glyph-name="quoteright" unicode="&#x2019;" horiz-adv-x="237" d="M123 472 C202 522 235 570 235 635 C235 653 233 673 229 690 L176 683 C182 660 186 639 186 618 C186 570 162 531 102 491 L123 472 Z " />
<glyph glyph-name="quotesinglbase" unicode="&#x201a;" horiz-adv-x="198" d="M-27 -128 C42 -84 85 -40 85 34 C85 60 81 89 77 110 L23 103 C32 75 36 43 36 23 C36 -38 2 -75 -48 -109 L-27 -128 Z " />
<glyph glyph-name="quotedblleft" unicode="&#x201c;" horiz-adv-x="392" d="M262 690 C182 640 149 591 149 527 C149 512 151 491 155 472 L209 479 C203 500 199 522 199 544 C199 593 223 631 282 671 L262 690 Z M417 690 C337 640 304 591 304 527 C304 512 306 491 310 472 L364 479 C358 500 354 522 354 544 C354 593 378 631 437 671 L417 690 Z " />
<glyph glyph-name="quotedblright" unicode="&#x201d;" horiz-adv-x="392" d="M123 472 C202 522 235 570 235 635 C235 653 233 673 229 690 L176 683 C182 660 186 639 186 618 C186 570 162 531 102 491 L123 472 Z M278 472 C357 522 390 570 390 635 C390 653 388 673 384 690 L331 683 C337 660 341 639 341 618 C341 570 317 531 257 491 L278 472 Z " />
<glyph glyph-name="quotedblbase" unicode="&#x201e;" horiz-adv-x="353" d="M-27 -128 C42 -84 85 -40 85 34 C85 60 81 89 77 110 L23 103 C32 75 36 43 36 23 C36 -38 2 -75 -48 -109 L-27 -128 Z M128 -128 C197 -84 240 -40 240 34 C240 60 236 89 232 110 L178 103 C187 75 191 43 191 23 C191 -38 157 -75 107 -109 L128 -128 Z " />
<glyph glyph-name="bullet" unicode="&#x2022;" horiz-adv-x="344" d="M183 255 C239 255 288 302 288 358 C288 399 259 429 207 429 C153 429 103 382 103 328 C103 286 132 255 183 255 L183 255 Z " />
<glyph glyph-name="ellipsis" unicode="&#x2026;" horiz-adv-x="580" d="M78 -10 C109 -10 127 8 127 35 C127 60 111 73 88 73 C59 73 39 54 39 27 C39 1 55 -10 78 -10 L78 -10 Z M245 -10 C276 -10 294 8 294 35 C294 60 278 73 255 73 C226 73 206 54 206 27 C206 1 222 -10 245 -10 L245 -10 Z M407 -10 C438 -10 456 8 456 35 C456 60 440 73 417 73 C388 73 368 54 368 27 C368 1 384 -10 407 -10 L407 -10 Z " />
<glyph glyph-name="guilsinglleft" unicode="&#x2039;" horiz-adv-x="302" d="M286 411 L219 411 L47 240 L45 231 L155 60 L208 60 L98 233 L286 411 Z " />
<glyph glyph-name="guilsinglright" unicode="&#x203a;" horiz-adv-x="307" d="M146 412 L91 412 L202 242 L9 61 L71 61 L253 232 L255 241 L146 412 Z " />
<glyph glyph-name="fraction" unicode="&#x2044;" horiz-adv-x="96" d="M-115 0 L-74 0 L257 680 L216 680 L-115 0 Z " />
<glyph glyph-name="Euro" unicode="&#x20ac;" horiz-adv-x="580" d="M476 652 C505 652 551 643 578 630 L591 675 C566 683 526 690 479 690 C327 690 213 576 154 436 L90 436 L82 398 L140 398 C128 365 120 330 115 296 L60 296 L52 258 L111 258 C110 247 110 235 110 224 C110 58 192 -10 308 -10 C360 -10 426 3 460 22 L480 70 L477 70 C421 41 373 29 319 29 C221 29 150 86 150 228 C150 238 150 248 151 258 L490 258 L499 296 L155 296 C160 330 169 365 181 398 L523 398 L531 436 L196 436 C250 556 348 652 476 652 L476 652 Z " />
<glyph glyph-name="trademark" unicode="&#x2122;" horiz-adv-x="774" d="M731 681 L547 362 L513 679 L458 681 L349 320 L389 320 L478 628 L516 318 L560 318 L733 612 L690 319 L729 323 L780 680 L731 681 Z M370 645 L379 680 L121 680 L111 645 L222 645 L151 320 L191 320 L262 645 L370 645 Z " />
<glyph glyph-name="oneeighth" unicode="&#x215b;" horiz-adv-x="850" d="M308 684 C258 662 186 627 127 607 L137 580 C186 594 225 610 282 637 L203 270 L238 270 L324 675 L308 684 Z M593 680 L262 0 L303 0 L634 680 L593 680 Z M696 215 C761 240 802 286 802 332 C802 381 761 416 693 416 C624 416 557 363 557 301 C557 260 581 238 619 215 C545 187 497 139 497 84 C497 26 536 -8 608 -8 C692 -8 772 59 772 125 C772 167 741 193 696 215 L696 215 Z M597 306 C597 354 642 384 689 384 C731 384 763 362 763 330 C763 293 721 255 662 231 C624 251 597 272 597 306 L597 306 Z M617 26 C564 26 537 51 537 88 C537 133 579 173 651 198 C698 174 731 156 731 121 C731 75 675 26 617 26 L617 26 Z " />
<glyph glyph-name="threeeighths" unicode="&#x215c;" horiz-adv-x="850" d="M350 413 C350 452 324 491 260 496 C326 516 372 559 372 606 C372 649 338 685 271 685 C229 685 192 676 168 667 L158 630 C191 643 229 651 260 651 C303 651 330 634 330 603 C330 554 274 515 182 503 L177 469 C256 474 309 456 309 408 C309 351 238 299 165 299 C139 299 104 304 73 322 L74 278 C97 269 135 265 159 265 C259 265 350 336 350 413 L350 413 Z M593 680 L262 0 L303 0 L634 680 L593 680 Z M696 215 C761 240 802 286 802 332 C802 381 761 416 693 416 C624 416 557 363 557 301 C557 260 581 238 619 215 C545 187 497 139 497 84 C497 26 536 -8 608 -8 C692 -8 772 59 772 125 C772 167 741 193 696 215 L696 215 Z M597 306 C597 354 642 384 689 384 C731 384 763 362 763 330 C763 293 721 255 662 231 C624 251 597 272 597 306 L597 306 Z M617 26 C564 26 537 51 537 88 C537 133 579 173 651 198 C698 174 731 156 731 121 C731 75 675 26 617 26 L617 26 Z " />
<glyph glyph-name="fiveeighths" unicode="&#x215d;" horiz-adv-x="850" d="M593 680 L262 0 L303 0 L634 680 L593 680 Z M360 420 C360 474 317 525 232 525 C214 525 191 522 171 518 L218 645 L384 645 L391 679 L194 679 L129 503 L149 479 C171 486 199 491 219 491 C283 491 318 458 318 414 C318 354 247 299 174 299 C141 299 107 304 75 324 L76 279 C99 269 132 264 167 264 C263 264 360 339 360 420 L360 420 Z M696 215 C761 240 802 286 802 332 C802 381 761 416 693 416 C624 416 557 363 557 301 C557 260 581 238 619 215 C545 187 497 139 497 84 C497 26 536 -8 608 -8 C692 -8 772 59 772 125 C772 167 741 193 696 215 L696 215 Z M597 306 C597 354 642 384 689 384 C731 384 763 362 763 330 C763 293 721 255 662 231 C624 251 597 272 597 306 L597 306 Z M617 26 C564 26 537 51 537 88 C537 133 579 173 651 198 C698 174 731 156 731 121 C731 75 675 26 617 26 L617 26 Z " />
<glyph glyph-name="seveneighths" unicode="&#x215e;" horiz-adv-x="850" d="M593 680 L262 0 L303 0 L634 680 L593 680 Z M415 679 L153 679 L138 642 C211 644 300 645 364 646 C269 527 192 416 102 270 L146 270 C223 401 320 534 416 655 L415 679 Z M696 215 C761 240 802 286 802 332 C802 381 761 416 693 416 C624 416 557 363 557 301 C557 260 581 238 619 215 C545 187 497 139 497 84 C497 26 536 -8 608 -8 C692 -8 772 59 772 125 C772 167 741 193 696 215 L696 215 Z M597 306 C597 354 642 384 689 384 C731 384 763 362 763 330 C763 293 721 255 662 231 C624 251 597 272 597 306 L597 306 Z M617 26 C564 26 537 51 537 88 C537 133 579 173 651 198 C698 174 731 156 731 121 C731 75 675 26 617 26 L617 26 Z " />
<glyph glyph-name="minus" unicode="&#x2212;" horiz-adv-x="497" d="M34 277 L463 277 L463 312 L34 312 L34 277 Z " />
<glyph glyph-name="uniF8FF" unicode="&#xf8ff;" horiz-adv-x="704" d="M639 -127 C646 -123 652 -120 652 -113 C664 -95 646 -63 643 -63 C612 -42 582 -20 552 7 C551 8 551 11 552 13 C552 16 553 22 549 24 C531 43 514 60 496 76 C481 96 469 116 456 136 C443 157 424 187 415 198 C408 208 378 247 367 262 C353 280 334 304 318 313 C304 321 261 348 244 372 C237 383 227 425 228 443 C230 461 234 471 234 471 C240 485 246 495 253 507 C260 516 270 524 270 536 C268 542 274 552 266 557 C264 557 261 554 261 554 C260 567 264 579 267 590 C270 597 265 605 265 613 C267 618 278 625 271 627 C264 630 271 640 264 640 C257 641 258 654 251 651 C237 641 216 613 214 614 C211 615 215 640 217 653 C216 659 208 656 203 655 C196 653 191 656 189 655 C188 654 169 631 168 630 L160 601 C159 597 158 591 157 597 C156 605 165 629 167 646 C165 648 162 647 161 647 C158 645 150 640 148 638 C145 635 140 623 140 623 C140 620 140 610 137 612 C133 616 137 624 137 627 C137 627 136 630 131 630 C126 630 126 631 124 631 C122 623 117 614 115 610 C110 601 103 591 103 583 C102 580 99 583 98 583 C98 583 89 587 89 580 C89 576 90 573 92 570 C94 566 103 559 102 550 C102 550 99 549 97 547 C93 540 112 505 118 494 C118 493 115 493 115 493 C104 493 64 475 57 468 C49 464 33 447 21 437 C19 434 19 428 22 430 C30 437 59 458 92 466 C125 475 138 453 138 453 C138 453 154 430 137 383 C127 347 113 318 115 273 C119 220 146 187 168 164 C189 142 252 74 261 65 C271 56 278 37 283 31 C288 24 295 16 303 10 C304 6 304 1 304 -4 C304 -9 295 -59 294 -60 C292 -63 285 -63 285 -63 C272 -59 258 -54 244 -52 C240 -52 236 -60 231 -66 C226 -71 235 -76 227 -83 C226 -84 227 -88 227 -88 C227 -88 229 -88 231 -86 C234 -83 237 -84 237 -84 C266 -93 300 -87 303 -87 C305 -86 319 -94 319 -94 L358 -114 C361 -116 364 -123 369 -118 C372 -114 366 -110 366 -110 C365 -107 345 -94 334 -87 C328 -80 322 -71 314 -66 C313 -61 321 -40 323 -32 C325 -23 325 -6 330 6 C334 11 342 16 351 20 C368 13 384 7 396 4 C402 1 406 1 411 -1 C411 -4 410 -7 410 -10 C410 -10 407 -29 407 -32 L403 -37 C402 -41 394 -40 394 -40 C381 -35 368 -31 354 -27 C349 -30 345 -37 341 -41 C335 -46 344 -53 337 -58 C335 -59 335 -63 337 -65 C337 -65 338 -65 340 -62 C342 -58 347 -60 347 -60 C375 -69 398 -62 411 -63 L428 -71 C441 -78 454 -84 467 -93 C470 -93 475 -100 478 -96 C480 -91 477 -89 475 -87 C472 -84 454 -71 443 -63 C437 -56 431 -46 423 -41 C422 -39 424 -37 424 -35 C424 -33 432 -8 432 -8 L432 -7 C450 -14 463 -19 469 -24 C485 -36 502 -45 515 -61 C539 -83 559 -103 587 -118 C611 -136 632 -131 639 -127 L639 -127 Z " />
<glyph glyph-name="fi" unicode="&#xfb01;" horiz-adv-x="498" d="M224 606 C229 630 247 648 268 648 C284 648 302 646 331 641 L348 682 L288 687 C269 687 248 682 225 664 C201 646 188 624 182 597 L153 464 L79 464 L68 428 L145 428 L10 -190 L50 -190 L185 428 L288 428 L300 464 L193 464 L224 606 Z M478 668 C453 668 435 650 435 630 C435 610 448 599 466 599 C488 599 509 616 509 638 C509 656 496 668 478 668 L478 668 Z M323 0 L361 0 L459 464 L421 464 L323 0 Z " />
<glyph glyph-name="fl" unicode="&#xfb02;" horiz-adv-x="485" d="M464 681 L312 0 L352 0 L505 688 L464 681 Z M224 606 C229 630 247 648 268 648 C284 648 302 646 331 641 L348 682 L288 687 C269 687 248 682 225 664 C201 646 188 624 182 597 L153 464 L79 464 L68 428 L145 428 L10 -190 L50 -190 L185 428 L288 428 L300 464 L193 464 L224 606 Z " />
</font>
</svg>
