<?xml version="1.0" encoding="UTF-8"?>
<svg xmlns="http://www.w3.org/2000/svg" xmlns:xlink="http://www.w3.org/1999/xlink" version="1.2" >
<font id="Reserva Sans Light Italic">
<font-face  font-family="Reserva Sans" units-per-em="1000" ascent="780" descent="-220" font-style="italic" font-weight="300" font-stretch="normal" slope="-12" cap-height="680" x-height="465" underline-position="-75" underline-thickness="50" />
<missing-glyph  horiz-adv-x="500" d="M410 780 L93 780 L93 -220 L410 -220 L410 780 Z M333 713 L333 680 L267 680 L267 643 L333 643 L333 610 L167 610 L167 643 L233 643 L233 680 L168 680 L168 713 L333 713 Z M267 584 L267 514 L333 514 L333 480 L167 480 L167 584 L267 584 Z M233 550 L200 550 L200 514 L233 514 L233 550 Z M333 453 L333 420 L267 420 L267 350 L167 350 L167 383 L233 383 L233 420 L167 420 L167 453 L333 453 Z M333 393 L333 293 L167 293 L167 327 L300 327 L300 393 L333 393 Z M333 271 L333 158 L167 158 L167 271 L200 271 L200 191 L300 191 L300 238 L267 238 L267 215 L233 215 L233 271 L333 271 Z M333 98 L333 -15 L167 -15 L167 98 L333 98 Z M300 65 L200 65 L200 18 L300 18 L300 65 Z M333 -38 L333 -71 L301 -71 L231 -118 L333 -118 L333 -151 L167 -151 L167 -118 L237 -71 L167 -71 L167 -38 L333 -38 Z " />
<glyph glyph-name="NULL" d="" />
<glyph glyph-name="CR" unicode="&#xd;" horiz-adv-x="250" d="" />
<glyph glyph-name="space" unicode="&#x20;" horiz-adv-x="209" d="" />
<glyph glyph-name="exclam" unicode="&#x21;" horiz-adv-x="285" d="M108 150 L158 150 L275 680 L216 680 L108 150 Z M96 -10 C133 -10 154 11 153 43 C154 72 133 89 105 89 C72 89 48 67 48 35 C48 4 68 -10 96 -10 L96 -10 Z " />
<glyph glyph-name="quotedbl" unicode="&#x22;" horiz-adv-x="346" d="M113 456 L155 456 L235 658 L238 680 L165 680 L113 456 Z M260 456 L302 456 L383 658 L386 680 L312 680 L260 456 Z " />
<glyph glyph-name="numbersign" unicode="&#x23;" horiz-adv-x="533" d="M581 441 L590 484 L473 484 L552 680 L502 680 L424 484 L278 484 L357 680 L307 680 L229 484 L80 484 L71 441 L211 441 L137 254 L1 254 L-8 210 L119 210 L35 0 L84 0 L168 210 L314 210 L230 0 L279 0 L363 210 L507 210 L516 254 L381 254 L456 441 L581 441 Z M332 254 L186 254 L261 441 L406 441 L332 254 Z " />
<glyph glyph-name="dollar" unicode="&#x24;" horiz-adv-x="554" d="M369 596 C409 596 454 588 483 576 L502 637 C470 646 432 650 395 651 L428 793 L368 790 L345 648 C301 642 257 626 223 602 C173 566 144 521 144 471 C144 324 393 335 393 214 C393 135 302 77 210 77 C153 77 91 94 53 112 L63 48 C88 35 139 24 193 24 L197 24 L163 -118 L225 -115 L249 29 C294 36 337 53 370 77 C416 109 458 165 458 229 C458 379 208 374 208 483 C208 545 281 596 369 596 L369 596 Z " />
<glyph glyph-name="percent" unicode="&#x25;" horiz-adv-x="858" d="M192 263 C237 263 279 290 312 331 C357 388 384 474 384 549 C384 634 346 684 278 684 C235 684 197 661 166 623 C119 566 90 473 90 397 C90 312 127 263 192 263 L192 263 Z M259 0 L312 0 L645 680 L592 680 L259 0 Z M202 308 C164 308 142 342 142 403 C142 495 190 638 269 638 C309 638 333 607 333 545 C333 453 283 308 202 308 L202 308 Z M615 -9 C660 -9 702 18 735 59 C780 116 807 202 807 277 C807 362 769 412 701 412 C658 412 620 389 589 351 C542 294 513 201 513 125 C513 40 550 -9 615 -9 L615 -9 Z M625 36 C587 36 565 70 565 131 C565 223 613 366 692 366 C732 366 756 335 756 273 C756 181 706 36 625 36 L625 36 Z " />
<glyph glyph-name="ampersand" unicode="&#x26;" horiz-adv-x="640" d="M600 414 L546 425 C513 323 460 237 401 172 C375 196 352 220 332 245 C306 276 284 309 267 341 L284 352 C371 406 492 480 492 580 C492 641 446 686 372 686 C263 686 163 594 163 477 C163 436 173 394 192 352 C102 294 11 218 11 117 C11 45 60 -11 149 -11 C230 -11 316 29 392 95 C436 56 484 20 533 -11 L575 41 C529 67 481 101 437 139 C508 213 566 309 600 414 L600 414 Z M224 493 C224 578 290 635 356 635 C398 635 429 608 429 567 C429 503 347 447 256 392 L246 386 C232 422 224 458 224 493 L224 493 Z M171 43 C110 43 74 80 74 129 C74 204 140 259 214 308 C233 274 256 241 283 208 C306 181 330 154 356 129 C293 74 227 43 171 43 L171 43 Z " />
<glyph glyph-name="quotesingle" unicode="&#x27;" horiz-adv-x="199" d="M113 456 L155 456 L235 658 L238 680 L165 680 L113 456 Z " />
<glyph glyph-name="parenleft" unicode="&#x28;" horiz-adv-x="327" d="M153 -102 L207 -102 C162 -20 142 71 142 167 C142 360 238 552 373 680 L310 680 C175 551 83 362 83 169 C83 75 105 -19 153 -102 L153 -102 Z " />
<glyph glyph-name="parenright" unicode="&#x29;" horiz-adv-x="338" d="M47 -102 C180 27 281 219 281 415 C281 507 259 598 211 680 L154 680 C199 603 222 515 222 420 C222 222 110 28 -22 -102 L47 -102 Z " />
<glyph glyph-name="asterisk" unicode="&#x2a;" horiz-adv-x="388" d="M430 538 L420 595 L409 592 L273 529 L308 669 L310 680 L250 680 L248 669 L244 529 L123 586 L112 590 L86 532 L95 529 L229 500 L121 396 L113 387 L157 351 L164 360 L253 484 L305 360 L311 351 L364 387 L359 396 L280 500 L420 534 L430 538 Z " />
<glyph glyph-name="plus" unicode="&#x2b;" horiz-adv-x="580" d="M525 337 L316 337 L316 543 L265 543 L265 337 L56 337 L56 286 L265 286 L265 78 L316 78 L316 286 L525 286 L525 337 Z " />
<glyph glyph-name="comma" unicode="&#x2c;" horiz-adv-x="228" d="M-10 -130 C53 -89 109 -39 109 45 C109 70 104 99 99 119 L34 110 C43 83 47 52 47 32 C47 -33 9 -74 -39 -110 L-10 -130 Z " />
<glyph glyph-name="hyphen" unicode="&#x2d;" horiz-adv-x="341" d="M41 249 L307 249 L318 301 L52 301 L41 249 Z " />
<glyph glyph-name="period" unicode="&#x2e;" horiz-adv-x="263" d="M86 -10 C123 -10 144 11 143 43 C144 72 123 89 95 89 C62 89 38 67 38 35 C38 4 58 -10 86 -10 L86 -10 Z " />
<glyph glyph-name="slash" unicode="&#x2f;" horiz-adv-x="319" d="M-131 -189 L-73 -189 L393 680 L335 680 L-131 -189 Z " />
<glyph glyph-name="zero" unicode="0" horiz-adv-x="580" d="M235 -12 C422 -12 553 267 553 478 C553 611 497 690 391 690 C205 690 74 418 74 205 C74 66 135 -12 235 -12 L235 -12 Z M246 42 C173 42 134 107 134 212 C134 422 258 636 379 636 C451 636 492 581 492 474 C492 259 369 42 246 42 L246 42 Z " />
<glyph glyph-name="one" unicode="1" horiz-adv-x="580" d="M464 690 C363 625 255 564 149 509 L167 466 C254 506 326 544 421 603 L290 0 L348 0 L492 677 L464 690 Z " />
<glyph glyph-name="two" unicode="2" horiz-adv-x="580" d="M281 206 C402 315 555 420 555 561 C555 637 495 691 375 691 C309 691 232 672 191 653 L180 592 C237 620 310 638 363 638 C439 638 491 603 491 543 C491 440 366 352 243 239 L41 53 L51 0 L434 0 L466 67 C401 60 279 54 115 54 L281 206 Z " />
<glyph glyph-name="three" unicode="3" horiz-adv-x="580" d="M346 376 C459 408 542 489 542 571 C542 639 487 691 374 691 C313 691 240 677 192 660 L183 602 C236 623 302 638 357 638 C433 638 477 609 477 558 C477 472 377 405 227 387 L219 334 C232 335 250 336 268 336 C364 336 439 305 439 230 C439 134 326 45 200 45 C152 45 100 54 42 80 L45 14 C89 -2 141 -9 188 -9 C353 -9 503 108 503 238 C503 313 449 370 346 376 L346 376 Z " />
<glyph glyph-name="four" unicode="4" horiz-adv-x="580" d="M532 226 C499 226 466 225 433 225 L530 680 L487 691 L45 225 L60 171 L363 171 L327 0 L385 0 L421 171 L521 171 L532 226 Z M112 224 L450 578 L375 225 C287 224 200 224 112 224 L112 224 Z " />
<glyph glyph-name="five" unicode="5" horiz-adv-x="580" d="M547 627 L556 681 L241 681 L136 390 L164 351 C201 363 243 371 280 371 C383 371 439 323 439 251 C439 144 323 45 195 45 C143 45 91 55 48 81 L39 22 C74 1 131 -10 178 -10 C364 -10 503 123 503 262 C503 352 434 424 303 424 C266 424 229 418 200 412 L278 627 L547 627 Z " />
<glyph glyph-name="six" unicode="6" horiz-adv-x="580" d="M329 423 C281 423 223 406 175 372 C256 502 395 609 557 658 L525 700 C238 600 59 379 58 180 C57 70 125 -12 246 -12 C386 -12 516 106 515 246 C515 356 438 423 329 423 L329 423 Z M259 41 C176 41 120 95 120 190 C120 229 129 267 144 304 C200 349 262 369 314 370 C397 372 453 318 453 236 C453 127 356 41 259 41 L259 41 Z " />
<glyph glyph-name="seven" unicode="7" horiz-adv-x="580" d="M579 680 L174 680 L150 622 C269 626 388 626 506 627 C348 417 213 206 96 0 L161 0 C283 221 430 438 586 644 L579 680 Z " />
<glyph glyph-name="eight" unicode="8" horiz-adv-x="580" d="M372 360 C484 404 554 480 554 560 C554 633 496 695 386 695 C258 695 154 613 154 503 C154 430 201 391 255 361 C125 311 53 231 53 138 C53 51 118 -10 233 -10 C384 -10 505 92 505 203 C505 280 446 321 372 360 L372 360 Z M212 512 C212 589 287 644 374 644 C448 644 493 604 493 551 C493 486 424 422 324 384 C266 414 212 448 212 512 L212 512 Z M246 43 C163 43 114 85 114 149 C114 224 178 289 300 337 C386 293 443 259 443 193 C443 110 352 43 246 43 L246 43 Z " />
<glyph glyph-name="nine" unicode="9" horiz-adv-x="580" d="M381 695 C241 695 111 577 112 438 C112 327 189 260 298 260 C347 260 404 278 454 313 C372 182 234 75 70 26 L102 -17 C390 84 569 304 569 504 C570 614 502 695 381 695 L381 695 Z M482 378 C427 334 365 315 313 313 C230 311 175 365 175 448 C175 557 272 642 368 642 C452 642 507 588 507 493 C507 455 498 416 482 378 L482 378 Z " />
<glyph glyph-name="colon" unicode="&#x3a;" horiz-adv-x="263" d="M153 304 C190 304 211 325 210 357 C211 386 190 403 162 403 C129 403 105 381 105 349 C105 318 125 304 153 304 L153 304 Z M86 -10 C123 -10 144 11 143 43 C144 72 123 89 95 89 C62 89 38 67 38 35 C38 4 58 -10 86 -10 L86 -10 Z " />
<glyph glyph-name="semicolon" unicode="&#x3b;" horiz-adv-x="231" d="M107 297 C144 297 164 318 164 351 C164 379 144 396 116 396 C83 396 59 374 58 342 C58 311 79 297 107 297 L107 297 Z M-8 -130 C56 -89 112 -39 112 45 C112 66 108 88 104 103 L39 94 C45 73 50 48 50 28 C50 -33 11 -74 -37 -110 L-8 -130 Z " />
<glyph glyph-name="less" unicode="&#x3c;" horiz-adv-x="580" d="M506 431 L488 480 L76 305 L76 260 L488 85 L506 134 L146 283 L506 431 Z " />
<glyph glyph-name="equal" unicode="&#x3d;" horiz-adv-x="580" d="M76 388 L503 388 L503 439 L76 439 L76 388 Z M76 148 L503 148 L503 199 L76 199 L76 148 Z " />
<glyph glyph-name="greater" unicode="&#x3e;" horiz-adv-x="580" d="M92 480 L74 431 L434 283 L74 134 L92 85 L504 260 L504 305 L92 480 Z " />
<glyph glyph-name="question" unicode="&#x3f;" horiz-adv-x="475" d="M482 557 C482 631 414 691 301 691 C246 691 178 675 136 654 L131 594 C183 622 242 636 292 636 C367 636 418 603 418 549 C418 469 321 395 186 321 L156 174 L212 174 L240 292 C370 365 482 443 482 557 L482 557 Z M156 89 C123 89 99 67 98 35 C99 4 119 -10 147 -10 C184 -10 204 11 204 43 C204 72 184 89 156 89 L156 89 Z " />
<glyph glyph-name="at" unicode="&#x40;" horiz-adv-x="796" d="M459 580 C225 580 38 385 38 149 C38 -21 158 -128 315 -128 C378 -128 436 -111 478 -93 L503 -32 C447 -64 389 -80 325 -80 C195 -80 94 11 94 157 C94 369 250 534 456 534 C606 534 709 446 709 324 C709 207 632 91 553 91 C528 91 507 102 507 138 C507 161 520 202 526 223 L573 378 C548 403 503 420 452 420 C332 420 218 289 218 161 C218 91 259 48 317 48 C367 48 418 74 460 131 C459 74 486 45 539 45 C655 45 764 188 764 331 C764 476 639 580 459 580 L459 580 Z M459 187 C427 126 380 97 342 97 C301 97 278 124 278 172 C278 272 360 372 443 372 C469 372 492 365 510 354 L459 187 Z " />
<glyph glyph-name="A" unicode="A" horiz-adv-x="593" d="M499 146 L417 686 L346 680 L-32 0 L34 0 L170 251 L422 251 L439 136 C445 96 457 31 467 -10 L527 6 C517 43 508 92 499 146 L499 146 Z M197 302 L369 620 L415 302 L197 302 Z " />
<glyph glyph-name="B" unicode="B" horiz-adv-x="567" d="M398 374 C480 406 535 476 535 550 C535 623 479 680 363 680 L205 680 L60 0 L252 0 C372 0 504 107 504 236 C504 296 465 351 398 374 L398 374 Z M252 626 L342 626 C431 626 471 596 471 538 C471 466 412 414 329 392 L203 394 L252 626 Z M296 53 L131 53 L192 342 L317 342 C401 337 442 290 442 230 C442 146 384 83 296 53 L296 53 Z " />
<glyph glyph-name="C" unicode="C" horiz-adv-x="583" d="M308 -13 C361 -13 431 2 470 23 L495 92 C439 61 378 42 325 42 C217 42 143 99 143 236 C143 459 299 633 471 633 C511 633 559 622 589 604 L615 667 C582 679 528 688 483 688 C254 688 80 469 80 227 C80 72 179 -13 308 -13 L308 -13 Z " />
<glyph glyph-name="D" unicode="D" horiz-adv-x="683" d="M364 680 L205 680 L60 0 L233 0 C452 0 643 193 643 420 C643 580 547 680 364 680 L364 680 Z M269 53 L130 53 L252 626 L351 626 C503 626 581 551 581 413 C581 239 450 77 269 53 L269 53 Z " />
<glyph glyph-name="E" unicode="E" horiz-adv-x="521" d="M536 626 L542 680 L205 680 L60 0 L419 0 L435 54 L131 54 L192 343 L449 343 L462 396 L203 396 L252 626 L536 626 Z " />
<glyph glyph-name="F" unicode="F" horiz-adv-x="485" d="M523 626 L536 680 L205 680 L60 0 L119 0 L187 317 L429 317 L442 370 L198 370 L252 626 L523 626 Z " />
<glyph glyph-name="G" unicode="G" horiz-adv-x="637" d="M490 635 C538 635 590 624 625 609 L650 670 C621 679 560 690 506 690 C267 690 83 476 83 242 C83 72 181 -10 326 -10 C385 -10 470 4 513 24 L568 281 L512 281 L465 61 C427 50 387 44 347 44 C228 44 146 99 146 249 C146 452 297 635 490 635 L490 635 Z " />
<glyph glyph-name="H" unicode="H" horiz-adv-x="678" d="M604 680 L541 386 L201 386 L264 680 L205 680 L60 0 L119 0 L190 334 L530 334 L459 0 L519 0 L664 680 L604 680 Z " />
<glyph glyph-name="I" unicode="I" horiz-adv-x="276" d="M59 0 L118 0 L263 680 L204 680 L59 0 Z " />
<glyph glyph-name="J" unicode="J" horiz-adv-x="362" d="M17 -8 C73 -3 125 18 161 48 C198 77 228 118 240 176 L348 680 L289 680 L183 180 C166 100 103 56 4 45 L17 -8 Z " />
<glyph glyph-name="K" unicode="K" horiz-adv-x="569" d="M624 680 L543 680 L192 342 L264 680 L205 680 L60 0 L119 0 L191 338 L425 -9 L493 -1 L258 337 L624 680 Z " />
<glyph glyph-name="L" unicode="L" horiz-adv-x="482" d="M131 54 L264 680 L205 680 L60 0 L390 0 L410 54 L131 54 Z " />
<glyph glyph-name="M" unicode="M" horiz-adv-x="799" d="M693 680 L370 98 L293 683 L226 680 L16 0 L76 0 L249 589 L328 9 L377 11 L700 590 L623 -3 L682 0 L767 683 L693 680 Z " />
<glyph glyph-name="N" unicode="N" horiz-adv-x="724" d="M653 679 L531 105 L249 683 L205 680 L60 0 L117 0 L240 578 L520 -4 L566 4 L710 682 L653 679 Z " />
<glyph glyph-name="O" unicode="O" horiz-adv-x="702" d="M299 -13 C390 -13 474 29 542 108 C619 196 666 330 666 450 C666 599 581 690 447 690 C370 690 289 657 222 590 C135 502 82 360 82 230 C82 70 178 -13 299 -13 L299 -13 Z M311 40 C202 40 143 114 143 235 C143 438 263 637 439 637 C541 637 605 572 605 448 C605 246 483 40 311 40 L311 40 Z " />
<glyph glyph-name="P" unicode="P" horiz-adv-x="539" d="M343 680 L205 680 L60 0 L119 0 L182 296 C204 292 245 287 280 287 C340 287 397 300 445 336 C500 375 543 449 543 518 C543 617 474 680 343 680 L343 680 Z M293 341 C261 341 219 346 194 352 L253 630 L335 629 C431 628 480 590 480 515 C480 415 403 341 293 341 L293 341 Z " />
<glyph glyph-name="Q" unicode="Q" horiz-adv-x="705" d="M404 7 C455 27 501 61 542 108 C619 196 666 330 666 450 C666 599 581 690 447 690 C370 690 289 657 222 590 C135 502 82 360 82 230 C82 70 178 -13 299 -13 C315 -13 331 -12 347 -9 C402 -88 484 -150 569 -196 L571 -196 L612 -142 L613 -138 C545 -110 458 -51 404 7 L404 7 Z M143 235 C143 438 263 637 439 637 C541 637 605 572 605 448 C605 246 483 40 311 40 C202 40 143 114 143 235 L143 235 Z " />
<glyph glyph-name="R" unicode="R" horiz-adv-x="570" d="M533 534 C533 621 458 680 358 680 L205 680 L60 0 L120 0 L185 310 L296 305 C333 190 372 99 420 0 L487 0 L488 6 C433 107 389 205 350 320 C440 351 533 429 533 534 L533 534 Z M252 626 L331 626 C423 626 472 590 472 524 C472 454 413 390 315 357 L196 362 L252 626 Z " />
<glyph glyph-name="S" unicode="S" horiz-adv-x="501" d="M158 -10 C227 -10 294 9 348 50 C403 93 438 150 438 214 C438 304 363 346 294 385 C226 425 185 453 185 504 C185 578 262 634 360 634 C400 634 445 625 480 612 L496 674 C469 682 427 690 380 690 C315 690 252 670 204 636 C156 601 124 550 124 495 C124 415 192 377 257 339 C328 298 376 267 376 205 C376 115 281 46 174 46 C122 46 63 60 26 75 L27 11 C47 1 103 -10 158 -10 L158 -10 Z " />
<glyph glyph-name="T" unicode="T" horiz-adv-x="467" d="M533 680 L126 680 L109 626 L288 626 L155 0 L214 0 L347 626 L517 626 L533 680 Z " />
<glyph glyph-name="U" unicode="U" horiz-adv-x="644" d="M263 -12 C310 -12 373 0 427 40 C478 79 513 132 527 198 L629 680 L570 680 L470 206 C449 106 371 40 274 40 C203 40 154 66 154 141 C154 155 156 170 159 188 L264 680 L204 680 L99 185 C95 167 93 149 93 134 C93 37 162 -12 263 -12 L263 -12 Z " />
<glyph glyph-name="V" unicode="V" horiz-adv-x="590" d="M582 680 C494 470 386 260 262 50 L216 471 C207 550 197 621 188 688 L129 678 C140 603 149 539 157 470 L213 -6 L290 0 C418 206 538 431 650 680 L582 680 Z " />
<glyph glyph-name="W" unicode="W" horiz-adv-x="861" d="M860 680 C781 484 688 287 584 90 L572 366 C568 460 559 587 556 679 L498 676 L210 97 L203 366 C200 465 192 605 187 687 L128 676 C135 581 142 470 146 372 L162 -3 L216 0 L505 583 C508 523 511 445 514 378 L535 -3 L588 0 C713 227 824 453 921 680 L860 680 Z " />
<glyph glyph-name="X" unicode="X" horiz-adv-x="568" d="M635 682 L563 682 L318 384 L190 693 L134 669 L278 343 L-21 0 L53 0 L301 293 L428 -9 L486 7 L343 336 L635 682 Z " />
<glyph glyph-name="Y" unicode="Y" horiz-adv-x="523" d="M515 680 L295 367 L187 690 L126 678 L255 312 L187 0 L248 0 L315 310 L586 680 L515 680 Z " />
<glyph glyph-name="Z" unicode="Z" horiz-adv-x="522" d="M559 680 L164 680 L141 622 L479 628 L7 43 L11 0 L416 0 L438 56 L85 53 L558 635 L559 680 Z " />
<glyph glyph-name="bracketleft" unicode="&#x5b;" horiz-adv-x="319" d="M342 632 L352 680 L181 680 L15 -102 L186 -102 L196 -54 L82 -54 L228 632 L342 632 Z " />
<glyph glyph-name="backslash" unicode="&#x5c;" horiz-adv-x="356" d="M271 -189 L325 -189 L147 680 L94 680 L271 -189 Z " />
<glyph glyph-name="bracketright" unicode="&#x5d;" horiz-adv-x="319" d="M328 680 L157 680 L147 632 L261 632 L115 -54 L1 -54 L-9 -102 L162 -102 L328 680 Z " />
<glyph glyph-name="underscore" unicode="&#x5f;" horiz-adv-x="517" d="M-72 -158 L444 -158 L455 -106 L-61 -106 L-72 -158 Z " />
<glyph glyph-name="grave" unicode="&#x60;" horiz-adv-x="339" d="M348 545 L351 545 L373 582 L373 585 C297 612 230 644 163 682 L158 682 L123 623 C197 592 269 565 348 545 L348 545 Z " />
<glyph glyph-name="a" unicode="a" horiz-adv-x="485" d="M430 468 L402 423 C368 453 324 476 281 476 C153 476 38 276 38 109 C38 36 60 -9 115 -9 C178 -9 264 53 339 198 C316 104 312 58 311 0 L366 0 C368 64 372 109 386 167 L462 465 L430 468 Z M135 42 C107 42 95 68 95 118 C95 255 186 428 281 428 C314 428 353 406 383 378 C303 152 192 42 135 42 L135 42 Z " />
<glyph glyph-name="b" unicode="b" horiz-adv-x="471" d="M307 471 C250 471 203 437 170 380 L167 380 L232 688 L175 678 L58 123 C50 86 38 51 29 26 C62 4 106 -9 164 -9 C312 -9 427 154 427 323 C427 410 380 471 307 471 L307 471 Z M176 42 C150 42 122 47 98 58 L136 232 C163 357 230 418 289 418 C336 418 365 377 365 312 C365 165 268 42 176 42 L176 42 Z " />
<glyph glyph-name="c" unicode="c" horiz-adv-x="407" d="M194 -11 C230 -11 283 2 314 20 L322 79 L320 79 C288 58 243 42 201 42 C145 42 103 72 103 155 C103 305 203 420 301 420 C335 420 362 411 384 400 L403 456 C382 465 345 472 313 472 C160 472 45 311 45 148 C45 43 102 -11 194 -11 L194 -11 Z " />
<glyph glyph-name="d" unicode="d" horiz-adv-x="477" d="M455 680 L393 433 C367 458 331 476 293 476 C141 476 36 250 36 101 C36 33 65 -9 121 -9 C193 -9 277 68 338 203 C314 104 308 70 309 0 L364 0 C364 61 369 110 383 167 L511 686 L455 680 Z M135 42 C108 42 93 66 93 112 C93 231 176 428 291 428 C327 428 356 409 379 379 C301 155 198 42 135 42 L135 42 Z " />
<glyph glyph-name="e" unicode="e" horiz-adv-x="436" d="M246 232 C350 256 408 306 408 381 C408 433 368 472 301 472 C161 472 46 316 46 152 C46 52 109 -10 204 -10 C255 -10 312 9 348 32 L363 96 L360 96 C325 67 264 42 217 42 C154 42 105 78 105 161 C105 179 106 196 109 213 C161 216 207 222 246 232 L246 232 Z M293 425 C329 425 353 406 353 374 C353 328 314 293 232 274 C200 266 163 261 120 260 C148 352 214 425 293 425 L293 425 Z " />
<glyph glyph-name="f" unicode="f" horiz-adv-x="302" d="M283 631 C302 631 321 628 346 624 L369 684 L312 688 C283 686 260 681 234 660 C200 635 186 607 178 572 L155 465 L83 465 L67 418 L145 418 L15 -183 L71 -183 L201 418 L311 418 L324 465 L212 465 L239 591 C244 615 262 631 283 631 L283 631 Z " />
<glyph glyph-name="g" unicode="g" horiz-adv-x="470" d="M426 468 L398 425 C367 454 323 476 286 476 C153 476 35 262 35 95 C35 32 62 -9 116 -9 C190 -9 269 53 333 180 L277 -41 C257 -115 220 -145 170 -145 C120 -145 63 -125 14 -94 L9 -158 C53 -179 110 -196 169 -197 C238 -195 308 -147 332 -47 L457 465 L426 468 Z M135 42 C107 42 92 65 92 103 C92 243 187 428 278 428 C315 428 347 405 378 377 C299 150 207 42 135 42 L135 42 Z " />
<glyph glyph-name="h" unicode="h" horiz-adv-x="501" d="M35 0 L91 0 L136 206 C170 364 271 424 327 424 C364 424 388 402 388 366 C388 340 380 304 371 265 L312 0 L368 0 L424 257 C434 306 446 351 446 382 C446 431 410 473 349 473 C291 473 224 445 171 359 L167 360 C192 479 214 588 231 684 L177 679 C170 628 160 578 140 485 L35 0 Z " />
<glyph glyph-name="i" unicode="i" horiz-adv-x="221" d="M185 590 C212 590 239 612 239 640 C239 662 224 676 201 676 C170 676 147 654 147 627 C147 604 163 590 185 590 L185 590 Z M34 0 L89 0 L187 465 L133 465 L34 0 Z " />
<glyph glyph-name="j" unicode="j" horiz-adv-x="221" d="M187 590 C214 590 241 612 241 640 C241 662 226 676 203 676 C172 676 149 654 149 627 C149 604 165 590 187 590 L187 590 Z M-49 -190 C-19 -187 4 -177 25 -161 C46 -145 64 -122 70 -94 L189 465 L132 465 L13 -96 C7 -124 -11 -136 -30 -136 C-45 -136 -57 -132 -74 -127 L-94 -180 L-49 -190 Z " />
<glyph glyph-name="k" unicode="k" horiz-adv-x="429" d="M437 465 L367 465 C349 439 303 392 243 342 L140 258 L238 689 L181 681 L25 0 L81 0 L138 249 L290 -9 L350 -1 L197 248 L284 314 C353 367 394 415 437 465 L437 465 Z " />
<glyph glyph-name="l" unicode="l" horiz-adv-x="210" d="M25 0 L81 0 L233 689 L176 681 L25 0 Z " />
<glyph glyph-name="m" unicode="m" horiz-adv-x="725" d="M34 0 L90 0 L138 206 C172 357 256 422 308 422 C342 422 360 400 360 364 C360 346 353 311 342 259 L283 0 L339 0 L383 196 C410 314 467 422 552 422 C589 422 609 398 609 364 C609 343 604 309 594 269 L531 0 L587 0 L649 265 C660 312 667 352 667 378 C667 427 634 473 569 473 C514 473 452 436 415 365 L414 365 C422 421 393 473 326 473 C279 473 222 445 173 365 L170 365 C177 400 183 433 188 469 L133 465 C127 420 118 374 108 330 L34 0 Z " />
<glyph glyph-name="n" unicode="n" horiz-adv-x="502" d="M37 0 L93 0 L138 206 C173 367 272 423 327 423 C365 423 389 400 389 365 C389 340 381 304 372 265 L313 0 L369 0 L424 257 C435 306 447 351 447 382 C447 431 411 473 351 473 C292 473 226 445 174 364 L170 365 C180 414 185 450 186 472 L131 464 C125 417 118 378 109 333 L37 0 Z " />
<glyph glyph-name="o" unicode="o" horiz-adv-x="473" d="M179 -11 C321 -11 428 160 428 315 C428 406 373 475 290 475 C148 475 46 306 46 149 C46 51 100 -11 179 -11 L179 -11 Z M194 41 C136 41 106 84 106 159 C106 296 185 423 275 423 C332 423 368 379 368 308 C368 159 281 41 194 41 L194 41 Z " />
<glyph glyph-name="p" unicode="p" horiz-adv-x="471" d="M311 473 C261 473 207 438 166 375 L164 375 C176 422 180 450 184 470 L128 465 C120 414 104 338 89 271 L-16 -192 L41 -183 L85 7 C106 -4 137 -11 169 -11 C315 -11 428 165 428 331 C428 417 390 473 311 473 L311 473 Z M175 41 C147 41 119 50 98 63 L136 229 C167 365 248 422 301 422 C344 422 369 387 369 323 C369 180 278 41 175 41 L175 41 Z " />
<glyph glyph-name="q" unicode="q" horiz-adv-x="482" d="M421 468 L395 425 C368 453 325 476 280 476 C149 476 37 269 37 104 C37 32 64 -9 118 -9 C180 -9 278 63 342 214 L255 -190 L313 -183 L454 465 L421 468 Z M134 42 C108 42 94 67 94 114 C94 249 182 427 278 427 C316 427 349 405 375 378 C294 150 189 42 134 42 L134 42 Z " />
<glyph glyph-name="r" unicode="r" horiz-adv-x="313" d="M39 0 L94 0 L146 246 C171 357 231 411 282 411 C300 411 320 408 332 404 L339 468 C327 472 314 475 298 475 C255 475 213 446 167 362 L165 362 C173 410 175 444 175 471 L122 465 C121 425 116 364 103 302 L39 0 Z " />
<glyph glyph-name="s" unicode="s" horiz-adv-x="362" d="M117 -11 C212 -11 303 51 303 140 C303 200 254 234 202 266 C159 291 128 310 128 347 C128 389 172 423 229 423 C267 423 307 412 335 401 L341 458 C319 466 281 474 246 474 C158 474 73 416 73 337 C73 281 109 258 160 227 C220 192 249 168 249 129 C249 81 198 41 139 41 C97 41 47 55 7 78 L2 14 C26 0 72 -11 117 -11 L117 -11 Z " />
<glyph glyph-name="t" unicode="t" horiz-adv-x="327" d="M195 416 L325 416 L331 465 L206 465 L234 598 L225 598 L174 575 L150 465 L76 465 L62 416 L140 416 L79 132 C70 89 66 71 66 54 C66 11 92 -11 138 -11 C172 -11 210 0 240 15 L252 71 L249 71 C214 50 180 40 159 40 C135 40 124 52 124 74 C124 85 127 99 134 129 L195 416 Z " />
<glyph glyph-name="u" unicode="u" horiz-adv-x="500" d="M152 -9 C219 -9 291 32 329 106 L332 106 C330 92 321 37 317 0 L369 0 C376 50 385 98 394 140 L462 465 L407 465 L362 252 C329 100 238 40 173 40 C134 40 115 62 115 98 C115 117 118 136 127 179 L189 465 L134 465 L73 187 C63 141 58 116 58 88 C58 29 92 -9 152 -9 L152 -9 Z " />
<glyph glyph-name="v" unicode="v" horiz-adv-x="418" d="M372 465 C324 339 254 206 172 77 L152 298 C146 355 140 414 131 472 L72 463 C82 407 90 350 96 293 L128 0 L175 0 C284 157 370 312 433 469 L372 465 Z " />
<glyph glyph-name="w" unicode="w" horiz-adv-x="624" d="M579 465 C541 333 479 203 410 89 C408 216 399 343 386 465 L331 465 C274 330 213 203 148 87 L142 258 C140 325 136 420 131 472 L73 461 C78 424 83 358 88 264 L101 0 L148 0 C220 115 284 242 342 377 C354 251 360 131 363 0 L411 0 C502 141 585 302 638 465 L579 465 Z " />
<glyph glyph-name="x" unicode="x" horiz-adv-x="412" d="M436 465 L369 465 C327 402 273 338 216 275 L138 475 L81 457 L175 235 C101 159 36 80 -22 0 L48 0 C88 64 140 127 196 189 L276 -7 L332 6 L236 230 C312 308 380 387 436 465 L436 465 Z " />
<glyph glyph-name="y" unicode="y" horiz-adv-x="418" d="M369 465 C318 332 251 199 179 67 L149 317 C144 370 135 420 125 470 L67 462 C78 412 86 363 93 309 L132 14 L146 12 L108 -55 C71 -121 32 -143 1 -143 C-19 -143 -39 -137 -55 -131 L-68 -186 L-17 -199 C76 -199 121 -135 154 -78 C258 106 355 284 433 465 L369 465 Z " />
<glyph glyph-name="z" unicode="z" horiz-adv-x="392" d="M381 428 L359 465 L97 465 L77 412 C150 413 228 413 302 414 L-7 35 L12 0 L297 0 L319 54 L71 51 L381 428 Z " />
<glyph glyph-name="braceleft" unicode="&#x7b;" horiz-adv-x="329" d="M143 -116 L209 -107 L217 -54 C199 -60 173 -63 152 -63 C123 -63 105 -51 105 -22 C105 73 194 152 194 231 C194 265 177 284 145 287 L145 288 C201 297 228 342 228 437 C228 466 226 497 226 525 C226 604 252 640 308 640 C327 640 348 635 364 627 L381 678 C363 685 339 690 314 690 C230 690 167 644 167 517 C167 481 170 446 170 416 C170 344 148 313 107 313 L88 313 L76 261 L96 261 C124 261 134 247 134 226 C134 158 44 72 44 -34 C44 -90 85 -116 143 -116 L143 -116 Z " />
<glyph glyph-name="bar" unicode="&#x7c;" horiz-adv-x="360" d="M98 -185 L152 -185 L285 757 L231 757 L98 -185 Z " />
<glyph glyph-name="braceright" unicode="&#x7d;" horiz-adv-x="318" d="M201 690 L139 681 L130 628 C149 634 171 637 193 637 C222 637 241 625 241 597 C241 498 149 428 149 346 C149 312 165 290 197 287 L197 286 C136 276 112 228 112 118 C112 102 113 80 113 66 C113 -30 90 -66 31 -66 C13 -66 -6 -61 -20 -53 L-26 -104 C-13 -111 6 -116 27 -116 C117 -116 172 -58 172 72 C172 99 170 127 170 150 C170 231 193 261 235 261 L253 261 L266 313 L246 313 C219 313 208 327 208 349 C208 437 302 495 302 612 C302 659 268 690 201 690 L201 690 Z " />
<glyph glyph-name="exclamdown" unicode="&#xa1;" horiz-adv-x="285" d="M190 476 C153 476 132 455 133 423 C132 394 153 377 181 377 C214 377 238 399 238 432 C238 462 218 476 190 476 L190 476 Z M178 316 L128 316 L11 -214 L70 -214 L178 316 Z " />
<glyph glyph-name="cent" unicode="&#xa2;" horiz-adv-x="540" d="M385 520 C424 520 468 511 490 500 L517 555 C492 565 453 570 415 572 L455 732 L395 729 L366 570 C213 553 88 422 88 272 C88 158 154 98 249 90 L211 -66 L267 -63 L294 90 C339 93 381 104 413 116 L442 184 L439 184 C400 159 341 141 286 141 C204 141 148 180 148 279 C148 418 250 520 385 520 L385 520 Z " />
<glyph glyph-name="sterling" unicode="&#xa3;" horiz-adv-x="580" d="M398 636 C453 636 500 625 537 607 L559 666 C526 679 469 689 411 689 C291 689 184 599 184 478 C184 449 189 411 195 372 L108 372 L95 323 L201 323 C204 300 206 278 206 259 C206 149 156 83 63 45 L80 0 L452 0 L467 55 L151 55 C234 98 265 180 265 269 C265 288 263 305 261 323 L452 323 L465 372 L253 372 C248 405 242 440 242 482 C242 578 311 636 398 636 L398 636 Z " />
<glyph glyph-name="yen" unicode="&#xa5;" horiz-adv-x="580" d="M624 680 L555 680 L321 358 L205 686 L145 678 L269 346 L113 346 L102 296 L279 296 L258 200 L83 200 L72 150 L247 150 L215 0 L276 0 L308 150 L485 150 L495 200 L319 200 L339 296 L516 296 L526 346 L368 346 L624 680 Z " />
<glyph glyph-name="section" unicode="&#xa7;" horiz-adv-x="514" d="M358 639 C395 639 441 631 474 619 L495 676 C471 683 421 690 373 690 C317 690 261 674 218 643 C173 612 143 566 143 516 C143 462 181 430 228 404 C130 379 63 316 63 245 C63 101 321 107 321 -2 C321 -74 232 -136 137 -136 C81 -136 21 -121 -8 -106 L-6 -168 C14 -178 67 -187 121 -187 C187 -187 259 -164 303 -131 C350 -96 381 -44 381 5 C381 55 351 86 312 110 C386 139 466 200 466 279 C466 417 202 425 202 530 C202 588 272 639 358 639 L358 639 Z M406 267 C406 207 348 160 258 138 C191 169 122 194 122 252 C122 315 200 367 295 372 C353 345 406 318 406 267 L406 267 Z " />
<glyph glyph-name="dieresis" unicode="&#xa8;" horiz-adv-x="304" d="M162 591 C189 591 216 613 216 641 C216 663 200 677 178 677 C147 677 124 655 124 627 C124 604 140 591 162 591 L162 591 Z M296 591 C324 591 350 613 350 641 C350 663 335 677 312 677 C281 677 259 655 259 627 C259 604 274 591 296 591 L296 591 Z " />
<glyph glyph-name="copyright" unicode="&#xa9;" horiz-adv-x="788" d="M368 -8 C586 -8 770 169 770 397 C770 573 621 690 464 690 C246 690 63 502 63 281 C63 109 189 -8 368 -8 L368 -8 Z M367 35 C222 35 111 144 111 290 C111 488 269 647 459 647 C596 647 725 545 725 392 C725 192 564 35 367 35 L367 35 Z M388 158 C426 158 463 169 490 184 L501 234 L498 234 C474 218 441 203 404 203 C342 203 291 235 291 311 C291 403 362 478 456 478 C490 478 521 471 539 463 L556 504 C534 513 498 523 460 523 C338 523 239 415 239 305 C239 201 310 158 388 158 L388 158 Z " />
<glyph glyph-name="ordfeminine" unicode="&#xaa;" horiz-adv-x="389" d="M437 679 L406 680 L383 651 C357 673 324 687 295 687 C191 687 102 538 102 432 C102 377 126 347 171 347 C218 347 287 391 333 479 C317 415 317 388 318 353 L372 353 C370 401 375 440 385 480 L437 679 Z M189 396 C168 396 158 414 158 442 C158 520 226 642 294 642 C317 642 341 628 364 611 C309 462 233 396 189 396 L189 396 Z " />
<glyph glyph-name="guillemotleft" unicode="&#xab;" horiz-adv-x="523" d="M298 411 L218 411 L42 238 L40 229 L150 57 L220 57 L109 231 L298 411 Z M513 411 L433 411 L257 238 L255 229 L364 57 L434 57 L323 231 L513 411 Z " />
<glyph glyph-name="logicalnot" unicode="&#xac;" horiz-adv-x="580" d="M511 418 L69 418 L69 368 L462 368 L462 132 L511 132 L511 418 Z " />
<glyph glyph-name="registered" unicode="&#xae;" horiz-adv-x="507" d="M337 690 C210 690 108 581 108 458 C108 361 178 288 280 288 C402 288 509 399 509 520 C509 618 437 690 337 690 L337 690 Z M286 326 C204 326 148 385 148 463 C148 564 227 653 329 653 C411 653 469 593 469 515 C469 415 386 326 286 326 L286 326 Z M397 549 C397 573 378 593 335 593 L259 593 L219 397 L257 397 L272 470 L310 467 L338 397 L380 397 L381 399 L346 478 C377 493 397 520 397 549 L397 549 Z M322 500 L279 503 L290 556 L326 556 C342 556 354 549 354 536 C354 521 341 506 322 500 L322 500 Z " />
<glyph glyph-name="degree" unicode="&#xb0;" horiz-adv-x="345" d="M212 385 C306 385 385 476 385 569 C385 642 332 694 261 694 C170 694 92 608 92 512 C92 437 142 385 212 385 L212 385 Z M221 437 C179 437 146 468 146 517 C146 579 192 642 254 642 C296 642 329 611 329 562 C329 500 282 437 221 437 L221 437 Z " />
<glyph glyph-name="acute" unicode="&#xb4;" horiz-adv-x="334" d="M291 682 C213 646 136 616 39 585 L38 582 L44 545 L47 545 C140 568 223 593 305 623 L296 682 L291 682 Z " />
<glyph glyph-name="paragraph" unicode="&#xb6;" horiz-adv-x="541" d="M352 688 C195 666 99 553 99 425 C99 347 142 290 221 290 C249 290 276 298 297 308 L258 125 C227 -20 190 -89 78 -181 L95 -201 C213 -126 276 -9 305 125 L423 680 L352 688 Z M482 680 L337 0 L381 0 L526 680 L482 680 Z " />
<glyph glyph-name="periodcentered" unicode="&#xb7;" horiz-adv-x="262" d="M131 200 C167 200 188 221 188 253 C188 282 168 299 139 299 C106 299 82 277 82 245 C82 214 102 200 131 200 L131 200 Z " />
<glyph glyph-name="cedilla" unicode="&#xb8;" horiz-adv-x="272" d="M74 -49 L107 0 L61 0 L15 -73 L15 -74 C74 -97 100 -113 100 -132 C100 -155 72 -172 36 -172 C11 -172 -19 -166 -42 -156 L-45 -205 C-28 -211 0 -215 28 -215 C97 -215 155 -171 155 -124 C155 -91 128 -69 74 -49 L74 -49 Z " />
<glyph glyph-name="ordmasculine" unicode="&#xba;" horiz-adv-x="384" d="M213 345 C318 345 402 459 402 566 C402 639 355 686 291 686 C184 686 104 575 104 466 C104 390 151 345 213 345 L213 345 Z M223 392 C180 392 155 421 155 472 C155 556 211 641 278 641 C321 641 349 612 349 560 C349 470 285 392 223 392 L223 392 Z " />
<glyph glyph-name="guillemotright" unicode="&#xbb;" horiz-adv-x="527" d="M267 243 L158 416 L88 416 L199 245 L5 61 L82 61 L265 234 L267 243 Z M373 416 L304 416 L415 245 L220 61 L297 61 L480 234 L482 243 L373 416 Z " />
<glyph glyph-name="onequarter" unicode="&#xbc;" horiz-adv-x="858" d="M304 685 C254 661 187 628 124 604 L137 568 C183 582 222 598 270 620 L195 270 L246 270 L332 675 L304 685 Z M592 680 L259 0 L312 0 L645 680 L592 680 Z M804 142 C784 142 764 141 744 141 L800 405 L761 414 L497 140 L507 96 L683 96 L662 -2 L713 -2 L734 96 L795 96 L804 142 Z M550 140 L732 327 L692 140 L550 140 Z " />
<glyph glyph-name="onehalf" unicode="&#xbd;" horiz-adv-x="858" d="M304 685 C254 661 187 628 124 604 L137 568 C183 582 222 598 270 620 L195 270 L246 270 L332 675 L304 685 Z M592 680 L259 0 L312 0 L645 680 L592 680 Z M644 122 C723 189 807 250 807 326 C807 376 763 413 688 413 C652 413 610 405 581 392 L560 338 C595 355 641 367 676 367 C718 367 750 348 750 315 C750 259 681 212 606 147 L482 39 L489 -2 L733 -2 L758 53 C715 48 652 45 552 43 L644 122 Z " />
<glyph glyph-name="threequarters" unicode="&#xbe;" horiz-adv-x="858" d="M356 416 C356 456 330 490 274 498 C335 519 377 559 377 605 C377 649 341 685 271 685 C229 685 189 676 163 667 L152 618 C184 630 223 639 253 639 C292 639 318 624 318 596 C318 551 263 515 176 504 L171 462 C248 468 298 451 298 407 C298 356 234 311 164 311 C135 311 102 316 72 332 L70 277 C93 269 131 265 155 265 C260 265 356 337 356 416 L356 416 Z M592 680 L259 0 L312 0 L645 680 L592 680 Z M804 142 C784 142 764 141 744 141 L800 405 L761 414 L497 140 L507 96 L683 96 L662 -2 L713 -2 L734 96 L795 96 L804 142 Z M550 140 L732 327 L692 140 L550 140 Z " />
<glyph glyph-name="questiondown" unicode="&#xbf;" horiz-adv-x="475" d="M333 475 C296 475 275 454 276 422 C275 393 296 376 324 376 C357 376 381 398 381 430 C381 461 361 475 333 475 L333 475 Z M62 -84 C62 -4 159 70 294 144 L324 291 L268 291 L240 173 C110 100 -2 22 -2 -92 C-2 -167 66 -226 179 -226 C234 -226 302 -211 344 -189 L349 -130 C297 -157 238 -172 188 -172 C113 -172 62 -138 62 -84 L62 -84 Z " />
<glyph glyph-name="Agrave" unicode="&#xc0;" horiz-adv-x="593" d="M490 760 L511 797 L511 800 C436 827 368 859 301 897 L296 897 L262 838 C335 807 408 780 487 760 L490 760 Z M499 146 L417 686 L346 680 L-32 0 L34 0 L170 251 L422 251 L439 136 C445 96 457 31 467 -10 L527 6 C517 43 508 92 499 146 L499 146 Z M197 302 L369 620 L415 302 L197 302 Z " />
<glyph glyph-name="Aacute" unicode="&#xc1;" horiz-adv-x="593" d="M283 760 C376 783 459 808 541 838 L532 897 L527 897 C449 861 372 831 275 800 L274 797 L280 760 L283 760 Z M417 686 L346 680 L-32 0 L34 0 L170 251 L422 251 L439 136 C445 96 457 31 467 -10 L527 6 C517 43 508 92 499 146 L417 686 Z M197 302 L369 620 L415 302 L197 302 Z " />
<glyph glyph-name="Acircumflex" unicode="&#xc2;" horiz-adv-x="593" d="M432 911 L396 911 L241 771 L240 768 L270 745 L273 745 L401 848 C429 811 459 780 496 745 L499 745 L533 770 L533 773 C488 830 456 874 432 911 L432 911 Z M417 686 L346 680 L-32 0 L34 0 L170 251 L422 251 L439 136 C445 96 457 31 467 -10 L527 6 C517 43 508 92 499 146 L417 686 Z M197 302 L369 620 L415 302 L197 302 Z " />
<glyph glyph-name="Atilde" unicode="&#xc3;" horiz-adv-x="593" d="M343 800 C378 800 399 750 441 750 C477 750 513 781 547 832 L519 858 C492 826 471 808 449 808 C416 808 395 857 351 857 C312 857 272 824 241 778 L266 749 C296 784 319 800 343 800 L343 800 Z M417 686 L346 680 L-32 0 L34 0 L170 251 L422 251 L439 136 C445 96 457 31 467 -10 L527 6 C517 43 508 92 499 146 L417 686 Z M197 302 L369 620 L415 302 L197 302 Z " />
<glyph glyph-name="Adieresis" unicode="&#xc4;" horiz-adv-x="593" d="M320 780 C347 780 374 802 374 830 C374 852 359 866 336 866 C305 866 282 844 282 816 C282 793 298 780 320 780 L320 780 Z M461 780 C488 780 515 802 515 830 C515 852 499 866 477 866 C446 866 423 844 423 816 C423 793 439 780 461 780 L461 780 Z M499 146 L417 686 L346 680 L-32 0 L34 0 L170 251 L422 251 L439 136 C445 96 457 31 467 -10 L527 6 C517 43 508 92 499 146 L499 146 Z M197 302 L369 620 L415 302 L197 302 Z " />
<glyph glyph-name="Aring" unicode="&#xc5;" horiz-adv-x="593" d="M384 746 C444 746 495 792 495 848 C495 892 464 920 416 920 C356 920 306 873 306 817 C306 773 339 746 384 746 L384 746 Z M409 883 C433 883 451 869 451 844 C451 810 424 783 391 783 C367 783 350 795 350 822 C350 856 377 883 409 883 L409 883 Z M499 146 L417 686 L346 680 L-32 0 L34 0 L170 251 L422 251 L439 136 C445 96 457 31 467 -10 L527 6 C517 43 508 92 499 146 L499 146 Z M197 302 L369 620 L415 302 L197 302 Z " />
<glyph glyph-name="AE" unicode="&#xc6;" horiz-adv-x="848" d="M867 626 L873 680 L549 680 L488 684 L-41 0 L28 0 L202 227 L429 227 L381 0 L747 0 L762 54 L451 54 L513 348 L781 348 L794 401 L525 401 L572 626 L867 626 Z M242 279 L517 638 L440 279 L242 279 Z " />
<glyph glyph-name="Ccedilla" unicode="&#xc7;" horiz-adv-x="583" d="M471 633 C511 633 559 622 589 604 L615 667 C582 679 528 688 483 688 C254 688 80 469 80 227 C80 86 162 3 274 -11 L234 -74 L234 -75 C293 -98 319 -114 319 -133 C319 -156 291 -173 255 -173 C230 -173 200 -167 177 -157 L174 -206 C191 -212 219 -216 247 -216 C316 -216 374 -172 374 -125 C374 -92 347 -70 293 -50 L318 -13 C370 -11 433 3 470 23 L495 92 C439 61 378 42 325 42 C217 42 143 99 143 236 C143 459 299 633 471 633 L471 633 Z " />
<glyph glyph-name="Egrave" unicode="&#xc8;" horiz-adv-x="521" d="M499 760 L520 797 L520 800 C445 827 377 859 310 897 L305 897 L271 838 C344 807 417 780 496 760 L499 760 Z M536 626 L542 680 L205 680 L60 0 L419 0 L435 54 L131 54 L192 343 L449 343 L462 396 L203 396 L252 626 L536 626 Z " />
<glyph glyph-name="Eacute" unicode="&#xc9;" horiz-adv-x="521" d="M293 760 C386 783 469 808 551 838 L542 897 L537 897 C459 861 382 831 285 800 L284 797 L290 760 L293 760 Z M542 680 L205 680 L60 0 L419 0 L435 54 L131 54 L192 343 L449 343 L462 396 L203 396 L252 626 L536 626 L542 680 Z " />
<glyph glyph-name="Ecircumflex" unicode="&#xca;" horiz-adv-x="521" d="M442 911 L406 911 L251 771 L250 768 L280 745 L283 745 L411 848 C439 811 469 780 506 745 L509 745 L543 770 L543 773 C498 830 466 874 442 911 L442 911 Z M542 680 L205 680 L60 0 L419 0 L435 54 L131 54 L192 343 L449 343 L462 396 L203 396 L252 626 L536 626 L542 680 Z " />
<glyph glyph-name="Edieresis" unicode="&#xcb;" horiz-adv-x="521" d="M330 780 C357 780 384 802 384 830 C384 852 369 866 346 866 C315 866 292 844 292 816 C292 793 308 780 330 780 L330 780 Z M471 780 C498 780 525 802 525 830 C525 852 509 866 487 866 C456 866 433 844 433 816 C433 793 449 780 471 780 L471 780 Z M536 626 L542 680 L205 680 L60 0 L419 0 L435 54 L131 54 L192 343 L449 343 L462 396 L203 396 L252 626 L536 626 Z " />
<glyph glyph-name="Igrave" unicode="&#xcc;" horiz-adv-x="276" d="M182 896 L177 896 L153 840 C205 811 261 784 321 759 L324 759 L340 797 L340 800 C284 830 231 861 182 896 L182 896 Z M59 0 L118 0 L263 680 L204 680 L59 0 Z " />
<glyph glyph-name="Iacute" unicode="&#xcd;" horiz-adv-x="276" d="M329 896 C281 861 227 830 171 800 L171 797 L187 759 L190 759 C250 784 307 811 359 840 L334 896 L329 896 Z M59 0 L118 0 L263 680 L204 680 L59 0 Z " />
<glyph glyph-name="Icircumflex" unicode="&#xce;" horiz-adv-x="276" d="M303 911 L272 911 L141 769 L140 766 L164 743 L167 743 L276 849 C297 813 318 783 346 743 L349 743 L380 765 L380 768 C355 807 328 858 303 911 L303 911 Z M59 0 L118 0 L263 680 L204 680 L59 0 Z " />
<glyph glyph-name="Idieresis" unicode="&#xcf;" horiz-adv-x="276" d="M185 780 C212 780 239 802 239 830 C239 852 224 866 201 866 C170 866 147 844 147 816 C147 793 163 780 185 780 L185 780 Z M326 780 C353 780 380 802 380 830 C380 852 364 866 342 866 C311 866 288 844 288 816 C288 793 304 780 326 780 L326 780 Z M59 0 L118 0 L263 680 L204 680 L59 0 Z " />
<glyph glyph-name="Eth" unicode="&#xd0;" horiz-adv-x="686" d="M367 680 L208 680 L143 377 L72 377 L62 324 L132 324 L63 0 L236 0 C455 0 646 193 646 420 C646 580 550 680 367 680 L367 680 Z M272 53 L133 53 L191 324 L367 324 L377 377 L202 377 L255 626 L354 626 C506 626 584 551 584 413 C584 239 453 77 272 53 L272 53 Z " />
<glyph glyph-name="Ntilde" unicode="&#xd1;" horiz-adv-x="724" d="M433 800 C468 800 489 750 531 750 C567 750 603 781 637 832 L609 858 C582 826 561 808 539 808 C506 808 485 857 441 857 C402 857 362 824 331 778 L356 749 C386 784 409 800 433 800 L433 800 Z M653 679 L531 105 L249 683 L205 680 L60 0 L117 0 L240 578 L520 -4 L566 4 L710 682 L653 679 Z " />
<glyph glyph-name="Ograve" unicode="&#xd2;" horiz-adv-x="702" d="M555 760 L558 760 L579 797 L579 800 C504 827 436 859 369 897 L364 897 L330 838 C403 807 476 780 555 760 L555 760 Z M299 -13 C390 -13 474 29 542 108 C619 196 666 330 666 450 C666 599 581 690 447 690 C370 690 289 657 222 590 C135 502 82 360 82 230 C82 70 178 -13 299 -13 L299 -13 Z M311 40 C202 40 143 114 143 235 C143 438 263 637 439 637 C541 637 605 572 605 448 C605 246 483 40 311 40 L311 40 Z " />
<glyph glyph-name="Oacute" unicode="&#xd3;" horiz-adv-x="702" d="M595 897 C517 861 440 831 343 800 L342 797 L348 760 L351 760 C444 783 527 808 609 838 L600 897 L595 897 Z M299 -13 C390 -13 474 29 542 108 C619 196 666 330 666 450 C666 599 581 690 447 690 C370 690 289 657 222 590 C135 502 82 360 82 230 C82 70 178 -13 299 -13 L299 -13 Z M311 40 C202 40 143 114 143 235 C143 438 263 637 439 637 C541 637 605 572 605 448 C605 246 483 40 311 40 L311 40 Z " />
<glyph glyph-name="Ocircumflex" unicode="&#xd4;" horiz-adv-x="702" d="M341 745 L469 848 C497 811 527 780 564 745 L567 745 L601 770 L601 773 C556 830 524 874 500 911 L464 911 L309 771 L308 768 L338 745 L341 745 Z M447 690 C370 690 289 657 222 590 C135 502 82 360 82 230 C82 70 178 -13 299 -13 C390 -13 474 29 542 108 C619 196 666 330 666 450 C666 599 581 690 447 690 L447 690 Z M311 40 C202 40 143 114 143 235 C143 438 263 637 439 637 C541 637 605 572 605 448 C605 246 483 40 311 40 L311 40 Z " />
<glyph glyph-name="Otilde" unicode="&#xd5;" horiz-adv-x="702" d="M334 749 C364 784 387 800 411 800 C446 800 467 750 509 750 C545 750 581 781 615 832 L587 858 C560 826 539 808 517 808 C484 808 463 857 419 857 C380 857 340 824 309 778 L334 749 Z M299 -13 C390 -13 474 29 542 108 C619 196 666 330 666 450 C666 599 581 690 447 690 C370 690 289 657 222 590 C135 502 82 360 82 230 C82 70 178 -13 299 -13 L299 -13 Z M311 40 C202 40 143 114 143 235 C143 438 263 637 439 637 C541 637 605 572 605 448 C605 246 483 40 311 40 L311 40 Z " />
<glyph glyph-name="Odieresis" unicode="&#xd6;" horiz-adv-x="702" d="M397 806 C424 806 451 828 451 856 C451 878 435 892 413 892 C382 892 359 870 359 842 C359 819 375 806 397 806 L397 806 Z M531 806 C559 806 585 828 585 856 C585 878 570 892 547 892 C516 892 494 870 494 842 C494 819 509 806 531 806 L531 806 Z M299 -13 C390 -13 474 29 542 108 C619 196 666 330 666 450 C666 599 581 690 447 690 C370 690 289 657 222 590 C135 502 82 360 82 230 C82 70 178 -13 299 -13 L299 -13 Z M311 40 C202 40 143 114 143 235 C143 438 263 637 439 637 C541 637 605 572 605 448 C605 246 483 40 311 40 L311 40 Z " />
<glyph glyph-name="multiply" unicode="&#xd7;" horiz-adv-x="580" d="M504 460 L468 496 L290 318 L114 494 L77 459 L253 282 L76 104 L112 68 L289 246 L467 70 L503 105 L326 282 L504 460 Z " />
<glyph glyph-name="Oslash" unicode="&#xd8;" horiz-adv-x="702" d="M590 642 L652 741 L613 766 L551 668 C521 682 486 690 447 690 C370 690 289 657 222 590 C135 502 82 360 82 230 C82 144 110 81 154 40 L85 -69 L125 -95 L193 12 C224 -4 260 -13 299 -13 C390 -13 474 29 542 108 C619 196 666 330 666 450 C666 535 638 601 590 642 L590 642 Z M143 235 C143 438 263 637 439 637 C470 637 497 631 520 619 L187 92 C158 125 143 174 143 235 L143 235 Z M311 40 C277 40 247 47 223 61 L558 592 C588 560 605 512 605 448 C605 246 483 40 311 40 L311 40 Z " />
<glyph glyph-name="Ugrave" unicode="&#xd9;" horiz-adv-x="644" d="M535 760 L538 760 L559 797 L559 800 C484 827 416 859 349 897 L344 897 L310 838 C383 807 456 780 535 760 L535 760 Z M263 -12 C310 -12 373 0 427 40 C478 79 513 132 527 198 L629 680 L570 680 L470 206 C449 106 371 40 274 40 C203 40 154 66 154 141 C154 155 156 170 159 188 L264 680 L204 680 L99 185 C95 167 93 149 93 134 C93 37 162 -12 263 -12 L263 -12 Z " />
<glyph glyph-name="Uacute" unicode="&#xda;" horiz-adv-x="644" d="M575 897 C497 861 420 831 323 800 L322 797 L328 760 L331 760 C424 783 507 808 589 838 L580 897 L575 897 Z M263 -12 C310 -12 373 0 427 40 C478 79 513 132 527 198 L629 680 L570 680 L470 206 C449 106 371 40 274 40 C203 40 154 66 154 141 C154 155 156 170 159 188 L264 680 L204 680 L99 185 C95 167 93 149 93 134 C93 37 162 -12 263 -12 L263 -12 Z " />
<glyph glyph-name="Ucircumflex" unicode="&#xdb;" horiz-adv-x="644" d="M322 745 L450 848 C478 811 508 780 545 745 L548 745 L582 770 L582 773 C537 830 505 874 481 911 L445 911 L290 771 L289 768 L319 745 L322 745 Z M570 680 L470 206 C449 106 371 40 274 40 C203 40 154 66 154 141 C154 155 156 170 159 188 L264 680 L204 680 L99 185 C95 167 93 149 93 134 C93 37 162 -12 263 -12 C310 -12 373 0 427 40 C478 79 513 132 527 198 L629 680 L570 680 Z " />
<glyph glyph-name="Udieresis" unicode="&#xdc;" horiz-adv-x="644" d="M368 780 C395 780 422 802 422 830 C422 852 407 866 384 866 C353 866 330 844 330 816 C330 793 346 780 368 780 L368 780 Z M509 780 C536 780 563 802 563 830 C563 852 547 866 525 866 C494 866 471 844 471 816 C471 793 487 780 509 780 L509 780 Z M263 -12 C310 -12 373 0 427 40 C478 79 513 132 527 198 L629 680 L570 680 L470 206 C449 106 371 40 274 40 C203 40 154 66 154 141 C154 155 156 170 159 188 L264 680 L204 680 L99 185 C95 167 93 149 93 134 C93 37 162 -12 263 -12 L263 -12 Z " />
<glyph glyph-name="Thorn" unicode="&#xde;" horiz-adv-x="526" d="M328 551 C299 551 268 548 236 541 L266 680 L207 680 L60 0 L119 0 L155 167 C175 163 211 158 241 158 C294 158 353 171 403 207 C461 250 505 328 505 398 C505 490 438 551 328 551 L328 551 Z M259 212 C232 212 191 217 167 223 L225 491 C260 499 292 501 315 500 C401 499 441 463 441 392 C441 290 364 212 259 212 L259 212 Z " />
<glyph glyph-name="germandbls" unicode="&#xdf;" horiz-adv-x="498" d="M269 -11 C311 -11 354 4 385 32 C418 60 439 102 439 145 C439 195 406 232 361 269 C324 299 298 323 298 352 C298 428 445 454 445 586 C445 641 399 687 325 687 C236 687 158 628 132 503 L-13 -183 L43 -183 L188 502 C208 597 257 640 321 640 C361 640 391 616 391 581 C391 477 240 455 240 342 C240 295 273 264 308 236 C358 196 381 172 381 134 C381 87 335 40 285 40 C238 40 196 57 164 85 L159 16 C182 0 222 -11 269 -11 L269 -11 Z " />
<glyph glyph-name="agrave" unicode="&#xe0;" horiz-adv-x="485" d="M415 535 L436 572 L436 575 C361 602 293 634 226 672 L221 672 L187 613 C260 582 333 555 412 535 L415 535 Z M430 468 L402 423 C368 453 324 476 281 476 C153 476 38 276 38 109 C38 36 60 -9 115 -9 C178 -9 264 53 339 198 C316 104 312 58 311 0 L366 0 C368 64 372 109 386 167 L462 465 L430 468 Z M135 42 C107 42 95 68 95 118 C95 255 186 428 281 428 C314 428 353 406 383 378 C303 152 192 42 135 42 L135 42 Z " />
<glyph glyph-name="aacute" unicode="&#xe1;" horiz-adv-x="485" d="M208 535 C301 558 384 583 466 613 L457 672 L452 672 C374 636 297 606 200 575 L199 572 L205 535 L208 535 Z M402 423 C368 453 324 476 281 476 C153 476 38 276 38 109 C38 36 60 -9 115 -9 C178 -9 264 53 339 198 C316 104 312 58 311 0 L366 0 C368 64 372 109 386 167 L462 465 L430 468 L402 423 Z M135 42 C107 42 95 68 95 118 C95 255 186 428 281 428 C314 428 353 406 383 378 C303 152 192 42 135 42 L135 42 Z " />
<glyph glyph-name="acircumflex" unicode="&#xe2;" horiz-adv-x="485" d="M198 520 L326 623 C354 586 384 555 421 520 L424 520 L458 545 L458 548 C413 605 381 649 357 686 L321 686 L166 546 L165 543 L195 520 L198 520 Z M430 468 L402 423 C368 453 324 476 281 476 C153 476 38 276 38 109 C38 36 60 -9 115 -9 C178 -9 264 53 339 198 C316 104 312 58 311 0 L366 0 C368 64 372 109 386 167 L462 465 L430 468 Z M135 42 C107 42 95 68 95 118 C95 255 186 428 281 428 C314 428 353 406 383 378 C303 152 192 42 135 42 L135 42 Z " />
<glyph glyph-name="atilde" unicode="&#xe3;" horiz-adv-x="485" d="M275 605 C306 605 327 555 364 555 C391 555 426 581 461 637 L432 661 C411 632 393 613 372 613 C343 613 323 661 284 661 C256 661 222 634 189 587 L213 557 C239 590 257 605 275 605 L275 605 Z M430 468 L402 423 C368 453 324 476 281 476 C153 476 38 276 38 109 C38 36 60 -9 115 -9 C178 -9 264 53 339 198 C316 104 312 58 311 0 L366 0 C368 64 372 109 386 167 L462 465 L430 468 Z M135 42 C107 42 95 68 95 118 C95 255 186 428 281 428 C314 428 353 406 383 378 C303 152 192 42 135 42 L135 42 Z " />
<glyph glyph-name="adieresis" unicode="&#xe4;" horiz-adv-x="485" d="M254 581 C281 581 308 603 308 631 C308 653 292 667 270 667 C239 667 216 645 216 617 C216 594 232 581 254 581 L254 581 Z M388 581 C416 581 442 603 442 631 C442 653 427 667 404 667 C373 667 351 645 351 617 C351 594 366 581 388 581 L388 581 Z M430 468 L402 423 C368 453 324 476 281 476 C153 476 38 276 38 109 C38 36 60 -9 115 -9 C178 -9 264 53 339 198 C316 104 312 58 311 0 L366 0 C368 64 372 109 386 167 L462 465 L430 468 Z M135 42 C107 42 95 68 95 118 C95 255 186 428 281 428 C314 428 353 406 383 378 C303 152 192 42 135 42 L135 42 Z " />
<glyph glyph-name="aring" unicode="&#xe5;" horiz-adv-x="485" d="M309 521 C369 521 420 567 420 623 C420 667 389 695 341 695 C281 695 231 648 231 592 C231 548 264 521 309 521 L309 521 Z M334 658 C358 658 376 644 376 619 C376 585 349 558 316 558 C292 558 275 570 275 597 C275 631 302 658 334 658 L334 658 Z M430 468 L402 423 C368 453 324 476 281 476 C153 476 38 276 38 109 C38 36 60 -9 115 -9 C178 -9 264 53 339 198 C316 104 312 58 311 0 L366 0 C368 64 372 109 386 167 L462 465 L430 468 Z M135 42 C107 42 95 68 95 118 C95 255 186 428 281 428 C314 428 353 406 383 378 C303 152 192 42 135 42 L135 42 Z " />
<glyph glyph-name="ae" unicode="&#xe6;" horiz-adv-x="702" d="M512 232 C616 256 675 306 675 381 C675 433 634 472 567 472 C504 472 446 440 401 391 C395 445 355 475 275 475 C228 475 164 459 138 446 L117 384 C166 410 223 426 269 426 C316 426 346 406 346 362 C346 354 345 344 343 334 L329 265 L230 255 C113 244 28 181 28 88 C28 26 66 -9 125 -9 C183 -9 247 20 324 83 C347 24 400 -10 470 -10 C521 -10 578 9 614 32 L630 96 L627 96 C591 67 530 42 484 42 C421 42 371 78 371 161 C371 179 372 196 375 213 C428 216 473 222 512 232 L512 232 Z M560 425 C595 425 620 406 620 374 C620 328 580 293 498 274 C467 266 428 261 386 260 C415 352 481 425 560 425 L560 425 Z M140 42 C105 42 87 64 87 98 C87 158 141 204 239 212 L318 219 C314 197 312 175 312 152 C312 144 312 137 313 129 C240 66 179 42 140 42 L140 42 Z " />
<glyph glyph-name="ccedilla" unicode="&#xe7;" horiz-adv-x="407" d="M301 420 C335 420 362 411 384 400 L403 456 C382 465 345 472 313 472 C160 472 45 311 45 148 C45 56 88 4 161 -8 L120 -73 L120 -74 C179 -97 205 -113 205 -132 C205 -155 177 -172 141 -172 C116 -172 86 -166 63 -156 L60 -205 C77 -211 105 -215 133 -215 C202 -215 260 -171 260 -124 C260 -91 233 -69 179 -49 L205 -11 C240 -8 286 4 314 20 L322 79 L320 79 C288 58 243 42 201 42 C145 42 103 72 103 155 C103 305 203 420 301 420 L301 420 Z " />
<glyph glyph-name="egrave" unicode="&#xe8;" horiz-adv-x="436" d="M212 682 L207 682 L173 623 C246 592 319 565 398 545 L401 545 L422 582 L422 585 C347 612 279 644 212 682 L212 682 Z M301 472 C161 472 46 316 46 152 C46 52 109 -10 204 -10 C255 -10 312 9 348 32 L363 96 L360 96 C325 67 264 42 217 42 C154 42 105 78 105 161 C105 179 106 196 109 213 C161 216 207 222 246 232 C350 256 408 306 408 381 C408 433 368 472 301 472 L301 472 Z M232 274 C200 266 163 261 120 260 C148 352 214 425 293 425 C329 425 353 406 353 374 C353 328 314 293 232 274 L232 274 Z " />
<glyph glyph-name="eacute" unicode="&#xe9;" horiz-adv-x="436" d="M194 545 C287 568 370 593 452 623 L443 682 L438 682 C360 646 283 616 186 585 L185 582 L191 545 L194 545 Z M301 472 C161 472 46 316 46 152 C46 52 109 -10 204 -10 C255 -10 312 9 348 32 L363 96 L360 96 C325 67 264 42 217 42 C154 42 105 78 105 161 C105 179 106 196 109 213 C161 216 207 222 246 232 C350 256 408 306 408 381 C408 433 368 472 301 472 L301 472 Z M232 274 C200 266 163 261 120 260 C148 352 214 425 293 425 C329 425 353 406 353 374 C353 328 314 293 232 274 L232 274 Z " />
<glyph glyph-name="ecircumflex" unicode="&#xea;" horiz-adv-x="436" d="M343 696 L307 696 L152 556 L151 553 L181 530 L184 530 L312 633 C340 596 370 565 407 530 L410 530 L444 555 L444 558 C399 615 367 659 343 696 L343 696 Z M301 472 C161 472 46 316 46 152 C46 52 109 -10 204 -10 C255 -10 312 9 348 32 L363 96 L360 96 C325 67 264 42 217 42 C154 42 105 78 105 161 C105 179 106 196 109 213 C161 216 207 222 246 232 C350 256 408 306 408 381 C408 433 368 472 301 472 L301 472 Z M232 274 C200 266 163 261 120 260 C148 352 214 425 293 425 C329 425 353 406 353 374 C353 328 314 293 232 274 L232 274 Z " />
<glyph glyph-name="edieresis" unicode="&#xeb;" horiz-adv-x="436" d="M240 591 C267 591 294 613 294 641 C294 663 278 677 256 677 C225 677 202 655 202 627 C202 604 218 591 240 591 L240 591 Z M390 677 C359 677 337 655 337 627 C337 604 352 591 374 591 C402 591 428 613 428 641 C428 663 413 677 390 677 L390 677 Z M301 472 C161 472 46 316 46 152 C46 52 109 -10 204 -10 C255 -10 312 9 348 32 L363 96 L360 96 C325 67 264 42 217 42 C154 42 105 78 105 161 C105 179 106 196 109 213 C161 216 207 222 246 232 C350 256 408 306 408 381 C408 433 368 472 301 472 L301 472 Z M232 274 C200 266 163 261 120 260 C148 352 214 425 293 425 C329 425 353 406 353 374 C353 328 314 293 232 274 L232 274 Z " />
<glyph glyph-name="igrave" unicode="&#xec;" horiz-adv-x="221" d="M108 681 L103 681 L79 625 C131 596 187 569 247 544 L250 544 L266 582 L266 585 C210 615 157 646 108 681 L108 681 Z M34 0 L89 0 L187 465 L133 465 L34 0 Z " />
<glyph glyph-name="iacute" unicode="&#xed;" horiz-adv-x="221" d="M255 681 C207 646 153 615 97 585 L97 582 L113 544 L116 544 C176 569 233 596 285 625 L260 681 L255 681 Z M34 0 L89 0 L187 465 L133 465 L34 0 Z " />
<glyph glyph-name="icircumflex" unicode="&#xee;" horiz-adv-x="221" d="M229 696 L198 696 L67 554 L66 551 L90 528 L93 528 L202 634 C223 598 244 568 272 528 L275 528 L306 550 L306 553 C281 592 254 643 229 696 L229 696 Z M34 0 L89 0 L187 465 L133 465 L34 0 Z " />
<glyph glyph-name="idieresis" unicode="&#xef;" horiz-adv-x="221" d="M134 591 C157 591 179 613 179 641 C179 663 166 677 147 677 C121 677 101 655 101 627 C101 604 115 591 134 591 L134 591 Z M244 591 C267 591 290 613 290 641 C290 663 277 677 258 677 C232 677 212 655 212 627 C212 604 225 591 244 591 L244 591 Z M34 0 L89 0 L187 465 L133 465 L34 0 Z " />
<glyph glyph-name="eth" unicode="&#xf0;" horiz-adv-x="465" d="M465 644 L458 681 L351 629 C335 649 316 669 294 689 L230 677 C258 653 282 629 301 605 L179 546 L189 509 L324 575 C353 534 370 491 377 445 C355 462 325 473 287 473 C160 473 46 314 46 148 C46 50 96 -11 177 -11 C328 -11 431 196 431 396 C431 465 415 533 372 599 L465 644 Z M375 370 C370 196 285 41 189 41 C134 41 105 84 105 157 C105 296 189 423 283 423 C321 423 355 405 375 386 L375 370 Z " />
<glyph glyph-name="ntilde" unicode="&#xf1;" horiz-adv-x="502" d="M221 567 C247 600 265 615 283 615 C314 615 335 565 372 565 C399 565 434 591 469 647 L440 671 C419 642 401 623 380 623 C351 623 331 671 292 671 C264 671 230 644 197 597 L221 567 Z M37 0 L93 0 L138 206 C173 367 272 423 327 423 C365 423 389 400 389 365 C389 340 381 304 372 265 L313 0 L369 0 L424 257 C435 306 447 351 447 382 C447 431 411 473 351 473 C292 473 226 445 174 364 L170 365 C180 414 185 450 186 472 L131 464 C125 417 118 378 109 333 L37 0 Z " />
<glyph glyph-name="ograve" unicode="&#xf2;" horiz-adv-x="473" d="M407 545 L410 545 L431 582 L431 585 C356 612 288 644 221 682 L216 682 L182 623 C255 592 328 565 407 545 L407 545 Z M179 -11 C321 -11 428 160 428 315 C428 406 373 475 290 475 C148 475 46 306 46 149 C46 51 100 -11 179 -11 L179 -11 Z M194 41 C136 41 106 84 106 159 C106 296 185 423 275 423 C332 423 368 379 368 308 C368 159 281 41 194 41 L194 41 Z " />
<glyph glyph-name="oacute" unicode="&#xf3;" horiz-adv-x="473" d="M447 682 C369 646 292 616 195 585 L194 582 L200 545 L203 545 C296 568 379 593 461 623 L452 682 L447 682 Z M179 -11 C321 -11 428 160 428 315 C428 406 373 475 290 475 C148 475 46 306 46 149 C46 51 100 -11 179 -11 L179 -11 Z M194 41 C136 41 106 84 106 159 C106 296 185 423 275 423 C332 423 368 379 368 308 C368 159 281 41 194 41 L194 41 Z " />
<glyph glyph-name="ocircumflex" unicode="&#xf4;" horiz-adv-x="473" d="M352 696 L316 696 L161 556 L160 553 L190 530 L193 530 L321 633 C349 596 379 565 416 530 L419 530 L453 555 L453 558 C408 615 376 659 352 696 L352 696 Z M290 475 C148 475 46 306 46 149 C46 51 100 -11 179 -11 C321 -11 428 160 428 315 C428 406 373 475 290 475 L290 475 Z M194 41 C136 41 106 84 106 159 C106 296 185 423 275 423 C332 423 368 379 368 308 C368 159 281 41 194 41 L194 41 Z " />
<glyph glyph-name="otilde" unicode="&#xf5;" horiz-adv-x="473" d="M208 567 C234 600 252 615 270 615 C301 615 322 565 359 565 C386 565 421 591 456 647 L427 671 C406 642 388 623 367 623 C338 623 318 671 279 671 C251 671 217 644 184 597 L208 567 Z M179 -11 C321 -11 428 160 428 315 C428 406 373 475 290 475 C148 475 46 306 46 149 C46 51 100 -11 179 -11 L179 -11 Z M194 41 C136 41 106 84 106 159 C106 296 185 423 275 423 C332 423 368 379 368 308 C368 159 281 41 194 41 L194 41 Z " />
<glyph glyph-name="odieresis" unicode="&#xf6;" horiz-adv-x="473" d="M249 591 C276 591 303 613 303 641 C303 663 287 677 265 677 C234 677 211 655 211 627 C211 604 227 591 249 591 L249 591 Z M383 591 C411 591 437 613 437 641 C437 663 422 677 399 677 C368 677 346 655 346 627 C346 604 361 591 383 591 L383 591 Z M179 -11 C321 -11 428 160 428 315 C428 406 373 475 290 475 C148 475 46 306 46 149 C46 51 100 -11 179 -11 L179 -11 Z M194 41 C136 41 106 84 106 159 C106 296 185 423 275 423 C332 423 368 379 368 308 C368 159 281 41 194 41 L194 41 Z " />
<glyph glyph-name="divide" unicode="&#xf7;" horiz-adv-x="580" d="M300 418 C333 418 353 434 353 469 C353 500 333 516 304 516 C269 516 248 496 248 464 C248 433 269 418 300 418 L300 418 Z M88 267 L514 267 L514 313 L88 313 L88 267 Z M300 62 C333 62 353 79 353 113 C353 145 333 161 304 161 C269 161 248 140 248 108 C248 78 269 62 300 62 L300 62 Z " />
<glyph glyph-name="oslash" unicode="&#xf8;" horiz-adv-x="473" d="M441 514 L401 537 L350 461 C332 470 312 475 290 475 C148 475 46 306 46 149 C46 108 56 73 72 46 L-6 -68 L33 -92 L105 12 C125 -3 150 -11 179 -11 C321 -11 428 160 428 315 C428 363 413 404 386 433 L441 514 Z M275 423 C292 423 306 419 319 412 L114 102 C109 118 106 137 106 159 C106 296 185 423 275 423 L275 423 Z M194 41 C170 41 151 48 137 62 L350 382 C362 363 368 338 368 308 C368 159 281 41 194 41 L194 41 Z " />
<glyph glyph-name="ugrave" unicode="&#xf9;" horiz-adv-x="500" d="M427 545 L430 545 L451 582 L451 585 C376 612 308 644 241 682 L236 682 L202 623 C275 592 348 565 427 545 L427 545 Z M152 -9 C219 -9 291 32 329 106 L332 106 C330 92 321 37 317 0 L369 0 C376 50 385 98 394 140 L462 465 L407 465 L362 252 C329 100 238 40 173 40 C134 40 115 62 115 98 C115 117 118 136 127 179 L189 465 L134 465 L73 187 C63 141 58 116 58 88 C58 29 92 -9 152 -9 L152 -9 Z " />
<glyph glyph-name="uacute" unicode="&#xfa;" horiz-adv-x="489" d="M446 682 C368 646 291 616 194 585 L193 582 L199 546 L202 546 C295 568 378 594 460 623 L451 682 L446 682 Z M142 -9 C210 -9 281 32 320 106 L323 106 C320 92 311 37 307 0 L359 0 C366 50 376 98 384 140 L453 465 L398 465 L352 252 C319 100 228 40 163 40 C124 40 105 62 105 98 C105 117 109 136 118 179 L179 465 L124 465 L64 187 C54 141 48 116 48 88 C48 29 83 -9 142 -9 L142 -9 Z " />
<glyph glyph-name="ucircumflex" unicode="&#xfb;" horiz-adv-x="489" d="M188 530 L316 634 C344 597 374 565 411 530 L414 530 L448 555 L448 558 C402 616 371 659 347 696 L311 696 L156 557 L155 554 L185 530 L188 530 Z M398 465 L352 252 C319 100 228 40 163 40 C124 40 105 62 105 98 C105 117 109 136 118 179 L179 465 L124 465 L64 187 C54 141 48 116 48 88 C48 29 83 -9 142 -9 C210 -9 281 32 320 106 L323 106 C320 92 311 37 307 0 L359 0 C366 50 376 98 384 140 L453 465 L398 465 Z " />
<glyph glyph-name="udieresis" unicode="&#xfc;" horiz-adv-x="500" d="M269 591 C296 591 323 613 323 641 C323 663 307 677 285 677 C254 677 231 655 231 627 C231 604 247 591 269 591 L269 591 Z M403 591 C431 591 457 613 457 641 C457 663 442 677 419 677 C388 677 366 655 366 627 C366 604 381 591 403 591 L403 591 Z M152 -9 C219 -9 291 32 329 106 L332 106 C330 92 321 37 317 0 L369 0 C376 50 385 98 394 140 L462 465 L407 465 L362 252 C329 100 238 40 173 40 C134 40 115 62 115 98 C115 117 118 136 127 179 L189 465 L134 465 L73 187 C63 141 58 116 58 88 C58 29 92 -9 152 -9 L152 -9 Z " />
<glyph glyph-name="thorn" unicode="&#xfe;" horiz-adv-x="472" d="M313 473 C262 473 209 438 168 375 L166 375 C194 494 215 590 232 684 L179 680 C157 569 129 436 101 316 L-16 -192 L41 -183 L85 6 C108 -4 138 -11 169 -11 C315 -11 430 165 430 331 C430 417 391 473 313 473 L313 473 Z M175 41 C148 41 120 50 99 62 L138 229 C168 362 249 422 303 422 C345 422 371 387 371 323 C371 180 278 41 175 41 L175 41 Z " />
<glyph glyph-name="dotlessi" unicode="&#x131;" horiz-adv-x="221" d="M34 0 L89 0 L187 465 L133 465 L34 0 Z " />
<glyph glyph-name="OE" unicode="&#x152;" horiz-adv-x="822" d="M839 626 L855 680 L469 680 C250 680 84 482 84 240 C84 76 187 0 319 0 L720 0 L736 54 L442 54 L504 343 L750 343 L764 396 L516 396 L565 626 L839 626 Z M330 53 C210 53 147 125 147 249 C147 459 281 627 460 627 L507 627 L382 53 L330 53 Z " />
<glyph glyph-name="oe" unicode="&#x153;" horiz-adv-x="741" d="M552 232 C655 256 714 306 714 384 C714 433 674 472 607 472 C534 472 468 428 421 364 C406 429 358 475 291 475 C149 475 45 306 45 149 C45 51 100 -11 180 -11 C252 -11 315 34 359 99 C378 31 433 -10 510 -10 C562 -10 620 8 657 31 L657 85 L654 85 C622 61 566 42 523 42 C460 42 411 78 411 161 C411 179 412 196 415 213 C467 216 513 222 552 232 L552 232 Z M598 424 C634 424 659 403 659 372 C659 327 619 293 537 274 C506 266 468 261 426 260 C454 351 520 424 598 424 L598 424 Z M193 41 C134 41 104 84 104 159 C104 291 182 423 274 423 C332 423 368 379 368 308 C368 164 279 41 193 41 L193 41 Z " />
<glyph glyph-name="Utilde" unicode="&#x168;" horiz-adv-x="644" d="M315 749 C345 784 368 800 392 800 C427 800 448 750 490 750 C526 750 562 781 596 832 L568 858 C541 826 520 808 498 808 C465 808 444 857 400 857 C361 857 321 824 290 778 L315 749 Z M263 -12 C310 -12 373 0 427 40 C478 79 513 132 527 198 L629 680 L570 680 L470 206 C449 106 371 40 274 40 C203 40 154 66 154 141 C154 155 156 170 159 188 L264 680 L204 680 L99 185 C95 167 93 149 93 134 C93 37 162 -12 263 -12 L263 -12 Z " />
<glyph glyph-name="utilde" unicode="&#x169;" horiz-adv-x="489" d="M193 567 C219 601 238 615 256 615 C287 615 308 566 345 566 C372 566 407 592 442 647 L413 672 C391 643 374 623 353 623 C324 623 304 672 264 672 C236 672 202 644 170 597 L193 567 Z M142 -9 C210 -9 281 32 320 106 L323 106 C320 92 311 37 307 0 L359 0 C366 50 376 98 384 140 L453 465 L398 465 L352 252 C319 100 228 40 163 40 C124 40 105 62 105 98 C105 117 109 136 118 179 L179 465 L124 465 L64 187 C54 141 48 116 48 88 C48 29 83 -9 142 -9 L142 -9 Z " />
<glyph glyph-name="uni0237" unicode="&#x237;" horiz-adv-x="221" d="M-49 -190 C-19 -187 4 -177 25 -161 C46 -145 64 -122 70 -94 L189 465 L132 465 L13 -96 C7 -124 -11 -136 -30 -136 C-45 -136 -57 -132 -74 -127 L-94 -180 L-49 -190 Z " />
<glyph glyph-name="circumflex" unicode="&#x2c6;" horiz-adv-x="373" d="M300 696 L265 696 L109 556 L108 553 L139 530 L142 530 L270 633 C297 596 328 565 365 530 L368 530 L401 555 L401 558 C356 615 325 659 300 696 L300 696 Z " />
<glyph glyph-name="dotaccent" unicode="&#x2d9;" horiz-adv-x="170" d="M162 590 C190 590 216 612 216 640 C216 662 201 676 179 676 C148 676 125 654 125 627 C125 604 140 590 162 590 L162 590 Z " />
<glyph glyph-name="ring" unicode="&#x2da;" horiz-adv-x="267" d="M199 531 C259 531 310 577 310 633 C310 677 279 705 231 705 C171 705 121 658 121 602 C121 558 154 531 199 531 L199 531 Z M206 568 C182 568 165 580 165 607 C165 641 192 668 224 668 C248 668 266 654 266 629 C266 595 239 568 206 568 L206 568 Z " />
<glyph glyph-name="tilde" unicode="&#x2dc;" horiz-adv-x="342" d="M141 567 C167 600 186 615 204 615 C235 615 256 565 293 565 C320 565 355 591 390 647 L361 671 C339 642 322 623 301 623 C272 623 252 671 212 671 C185 671 150 644 118 597 L141 567 Z " />
<glyph glyph-name="gravecomb" unicode="&#x300;" d="M93 545 L96 545 L117 582 L117 585 C42 612 -26 644 -93 682 L-98 682 L-132 623 C-59 592 14 565 93 545 L93 545 Z " />
<glyph glyph-name="acutecomb" unicode="&#x301;" d="M106 682 C28 646 -49 616 -146 585 L-147 582 L-141 545 L-138 545 C-45 568 38 593 120 623 L111 682 L106 682 Z " />
<glyph glyph-name="uni0302" unicode="&#x302;" d="M-17 696 L-53 696 L-208 556 L-209 553 L-179 530 L-176 530 L-48 633 C-20 596 10 565 47 530 L50 530 L84 555 L84 558 C39 615 7 659 -17 696 L-17 696 Z " />
<glyph glyph-name="tildecomb" unicode="&#x303;" d="M-119 567 C-93 600 -75 615 -57 615 C-26 615 -5 565 32 565 C59 565 94 591 129 647 L100 671 C79 642 61 623 40 623 C11 623 -9 671 -48 671 C-76 671 -110 644 -143 597 L-119 567 Z " />
<glyph glyph-name="uni0307" unicode="&#x307;" d="M65 590 C92 590 119 612 119 640 C119 662 104 676 81 676 C50 676 27 654 27 627 C27 604 43 590 65 590 L65 590 Z " />
<glyph glyph-name="uni0308" unicode="&#x308;" d="M-142 591 C-115 591 -88 613 -88 641 C-88 663 -104 677 -126 677 C-157 677 -180 655 -180 627 C-180 604 -164 591 -142 591 L-142 591 Z M-8 591 C21 591 47 613 47 641 C47 663 32 677 9 677 C-23 677 -45 655 -45 627 C-45 604 -30 591 -8 591 L-8 591 Z " />
<glyph glyph-name="uni030A" unicode="&#x30a;" d="M-68 531 C-8 531 43 577 43 633 C43 677 12 705 -36 705 C-96 705 -146 658 -146 602 C-146 558 -113 531 -68 531 L-68 531 Z M-61 568 C-85 568 -102 580 -102 607 C-102 641 -75 668 -43 668 C-19 668 -1 654 -1 629 C-1 595 -28 568 -61 568 L-61 568 Z " />
<glyph glyph-name="uni0327" unicode="&#x327;" d="M-306 -49 L-273 0 L-319 0 L-365 -73 L-365 -74 C-306 -97 -280 -113 -280 -132 C-280 -155 -308 -172 -344 -172 C-369 -172 -399 -166 -422 -156 L-425 -205 C-408 -211 -380 -215 -352 -215 C-283 -215 -225 -171 -225 -124 C-225 -91 -252 -69 -306 -49 L-306 -49 Z " />
<glyph glyph-name="endash" unicode="&#x2013;" horiz-adv-x="367" d="M41 249 L333 249 L345 301 L53 301 L41 249 Z " />
<glyph glyph-name="emdash" unicode="&#x2014;" horiz-adv-x="616" d="M41 249 L583 249 L594 301 L52 301 L41 249 Z " />
<glyph glyph-name="quoteleft" unicode="&#x2018;" horiz-adv-x="239" d="M146 457 L212 467 C205 489 201 512 201 533 C201 587 230 629 286 670 L255 690 C176 642 139 590 139 517 C139 499 141 477 146 457 L146 457 Z " />
<glyph glyph-name="quoteright" unicode="&#x2019;" horiz-adv-x="239" d="M125 457 C200 506 243 557 243 631 C243 649 241 670 235 690 L170 680 C177 657 181 636 181 615 C181 560 151 518 96 477 L125 457 Z " />
<glyph glyph-name="quotesinglbase" unicode="&#x201a;" horiz-adv-x="228" d="M-10 -130 C53 -89 109 -39 109 45 C109 70 104 99 99 119 L34 110 C43 83 47 52 47 32 C47 -33 9 -74 -39 -110 L-10 -130 Z " />
<glyph glyph-name="quotedblleft" unicode="&#x201c;" horiz-adv-x="402" d="M256 690 C181 642 138 590 138 517 C138 499 141 477 146 457 L211 467 C204 489 200 512 200 533 C200 588 231 630 285 670 L256 690 Z M419 690 C344 642 301 589 301 517 C301 500 304 478 309 457 L375 467 C367 489 363 512 363 533 C363 588 394 630 449 670 L419 690 Z " />
<glyph glyph-name="quotedblright" unicode="&#x201d;" horiz-adv-x="402" d="M125 457 C200 506 243 557 243 631 C243 649 241 670 235 690 L170 680 C177 657 181 636 181 615 C181 560 151 518 96 477 L125 457 Z M289 457 C363 506 406 557 406 631 C406 649 404 670 398 690 L334 680 C340 657 344 636 344 615 C344 560 314 518 259 477 L289 457 Z " />
<glyph glyph-name="quotedblbase" unicode="&#x201e;" horiz-adv-x="392" d="M-10 -130 C53 -89 109 -39 109 45 C109 70 104 99 99 119 L34 110 C43 83 47 52 47 32 C47 -33 9 -74 -39 -110 L-10 -130 Z M154 -130 C217 -89 273 -39 273 45 C273 70 268 99 262 119 L197 110 C206 83 211 52 211 32 C211 -33 172 -74 124 -110 L154 -130 Z " />
<glyph glyph-name="bullet" unicode="&#x2022;" horiz-adv-x="346" d="M183 252 C242 252 292 300 292 358 C292 401 262 432 208 432 C151 432 100 384 100 328 C100 284 131 252 183 252 L183 252 Z " />
<glyph glyph-name="ellipsis" unicode="&#x2026;" horiz-adv-x="633" d="M86 -10 C123 -10 144 11 143 43 C144 72 123 89 95 89 C62 89 38 67 38 35 C38 4 58 -10 86 -10 L86 -10 Z M273 -10 C309 -10 330 11 330 43 C330 72 310 89 281 89 C248 89 224 67 224 35 C224 4 244 -10 273 -10 L273 -10 Z M456 -10 C493 -10 513 11 513 43 C513 72 493 89 465 89 C432 89 408 67 407 35 C408 4 428 -10 456 -10 L456 -10 Z " />
<glyph glyph-name="guilsinglleft" unicode="&#x2039;" horiz-adv-x="308" d="M298 411 L218 411 L42 238 L40 229 L150 57 L220 57 L109 231 L298 411 Z " />
<glyph glyph-name="guilsinglright" unicode="&#x203a;" horiz-adv-x="312" d="M158 416 L88 416 L199 245 L5 61 L82 61 L265 234 L267 243 L158 416 Z " />
<glyph glyph-name="fraction" unicode="&#x2044;" horiz-adv-x="104" d="M-118 0 L-65 0 L268 680 L215 680 L-118 0 Z " />
<glyph glyph-name="Euro" unicode="&#x20ac;" horiz-adv-x="580" d="M472 635 C509 635 556 623 585 608 L605 672 C580 682 535 690 483 690 C335 690 219 585 157 449 L89 449 L78 397 L137 397 C126 365 118 332 114 299 L57 299 L46 246 L109 246 L109 230 C109 60 192 -10 314 -10 C367 -10 435 4 470 24 L495 90 L492 90 C444 63 385 46 331 46 C232 46 168 99 168 235 L168 247 L483 247 L498 298 L172 298 C177 332 184 366 195 398 L525 398 L539 448 L216 448 C267 555 356 635 472 635 L472 635 Z " />
<glyph glyph-name="trademark" unicode="&#x2122;" horiz-adv-x="822" d="M760 681 L582 377 L544 680 L477 681 L364 310 L416 310 L501 605 L542 311 L589 311 L758 591 L718 309 L771 314 L820 681 L760 681 Z M384 633 L397 680 L123 680 L110 633 L222 633 L152 310 L206 310 L276 633 L384 633 Z " />
<glyph glyph-name="oneeighth" unicode="&#x215b;" horiz-adv-x="858" d="M304 685 C254 661 187 628 124 604 L137 568 C183 582 222 598 270 620 L195 270 L246 270 L332 675 L304 685 Z M592 680 L259 0 L312 0 L645 680 L592 680 Z M715 216 C777 242 816 285 816 332 C816 380 772 416 702 416 C628 416 558 362 558 297 C558 257 581 234 616 214 C545 185 501 138 501 85 C501 27 541 -8 616 -8 C703 -8 786 61 786 130 C786 169 758 194 715 216 L715 216 Z M696 376 C734 376 764 356 764 327 C764 293 726 258 674 235 C637 254 611 274 611 305 C611 348 653 376 696 376 L696 376 Z M627 37 C580 37 554 59 554 93 C554 134 591 170 654 194 C703 170 732 154 732 121 C732 80 680 37 627 37 L627 37 Z " />
<glyph glyph-name="threeeighths" unicode="&#x215c;" horiz-adv-x="858" d="M356 416 C356 456 330 490 274 498 C335 519 377 559 377 605 C377 649 341 685 271 685 C229 685 189 676 163 667 L152 618 C184 630 223 639 253 639 C292 639 318 624 318 596 C318 551 263 515 176 504 L171 462 C248 468 298 451 298 407 C298 356 234 311 164 311 C135 311 102 316 72 332 L70 277 C93 269 131 265 155 265 C260 265 356 337 356 416 L356 416 Z M592 680 L259 0 L312 0 L645 680 L592 680 Z M715 216 C777 242 816 285 816 332 C816 380 772 416 702 416 C628 416 558 362 558 297 C558 257 581 234 616 214 C545 185 501 138 501 85 C501 27 541 -8 616 -8 C703 -8 786 61 786 130 C786 169 758 194 715 216 L715 216 Z M696 376 C734 376 764 356 764 327 C764 293 726 258 674 235 C637 254 611 274 611 305 C611 348 653 376 696 376 L696 376 Z M627 37 C580 37 554 59 554 93 C554 134 591 170 654 194 C703 170 732 154 732 121 C732 80 680 37 627 37 L627 37 Z " />
<glyph glyph-name="fiveeighths" unicode="&#x215d;" horiz-adv-x="858" d="M592 680 L259 0 L312 0 L645 680 L592 680 Z M364 422 C364 477 318 527 235 527 C217 527 197 525 178 522 L219 634 L384 634 L392 679 L189 679 L123 500 L147 471 C169 478 195 483 216 483 C275 483 308 453 308 413 C308 359 242 311 173 311 C141 311 107 316 74 334 L73 278 C96 269 132 264 164 264 C266 264 364 338 364 422 L364 422 Z M715 216 C777 242 816 285 816 332 C816 380 772 416 702 416 C628 416 558 362 558 297 C558 257 581 234 616 214 C545 185 501 138 501 85 C501 27 541 -8 616 -8 C703 -8 786 61 786 130 C786 169 758 194 715 216 L715 216 Z M696 376 C734 376 764 356 764 327 C764 293 726 258 674 235 C637 254 611 274 611 305 C611 348 653 376 696 376 L696 376 Z M627 37 C580 37 554 59 554 93 C554 134 591 170 654 194 C703 170 732 154 732 121 C732 80 680 37 627 37 L627 37 Z " />
<glyph glyph-name="seveneighths" unicode="&#x215e;" horiz-adv-x="858" d="M592 680 L259 0 L312 0 L645 680 L592 680 Z M413 679 L152 679 L133 629 C206 632 288 633 350 633 C259 522 181 409 99 270 L160 270 C232 398 322 525 416 645 L413 679 Z M715 216 C777 242 816 285 816 332 C816 380 772 416 702 416 C628 416 558 362 558 297 C558 257 581 234 616 214 C545 185 501 138 501 85 C501 27 541 -8 616 -8 C703 -8 786 61 786 130 C786 169 758 194 715 216 L715 216 Z M696 376 C734 376 764 356 764 327 C764 293 726 258 674 235 C637 254 611 274 611 305 C611 348 653 376 696 376 L696 376 Z M627 37 C580 37 554 59 554 93 C554 134 591 170 654 194 C703 170 732 154 732 121 C732 80 680 37 627 37 L627 37 Z " />
<glyph glyph-name="minus" unicode="&#x2212;" horiz-adv-x="497" d="M35 269 L462 269 L462 320 L35 320 L35 269 Z " />
<glyph glyph-name="uniF8FF" unicode="&#xf8ff;" horiz-adv-x="704" d="M639 -127 C646 -123 652 -120 652 -113 C664 -95 646 -63 643 -63 C612 -42 582 -20 552 7 C551 8 551 11 552 13 C552 16 553 22 549 24 C531 43 514 60 496 76 C481 96 469 116 456 136 C443 157 424 187 415 198 C408 208 378 247 367 262 C353 280 334 304 318 313 C304 321 261 348 244 372 C237 383 227 425 228 443 C230 461 234 471 234 471 C240 485 246 495 253 507 C260 516 270 524 270 536 C268 542 274 552 266 557 C264 557 261 554 261 554 C260 567 264 579 267 590 C270 597 265 605 265 613 C267 618 278 625 271 627 C264 630 271 640 264 640 C257 641 258 654 251 651 C237 641 216 613 214 614 C211 615 215 640 217 653 C216 659 208 656 203 655 C196 653 191 656 189 655 C188 654 169 631 168 630 L160 601 C159 597 158 591 157 597 C156 605 165 629 167 646 C165 648 162 647 161 647 C158 645 150 640 148 638 C145 635 140 623 140 623 C140 620 140 610 137 612 C133 616 137 624 137 627 C137 627 136 630 131 630 C126 630 126 631 124 631 C122 623 117 614 115 610 C110 601 103 591 103 583 C102 580 99 583 98 583 C98 583 89 587 89 580 C89 576 90 573 92 570 C94 566 103 559 102 550 C102 550 99 549 97 547 C93 540 112 505 118 494 C118 493 115 493 115 493 C104 493 64 475 57 468 C49 464 33 447 21 437 C19 434 19 428 22 430 C30 437 59 458 92 466 C125 475 138 453 138 453 C138 453 154 430 137 383 C127 347 113 318 115 273 C119 220 146 187 168 164 C189 142 252 74 261 65 C271 56 278 37 283 31 C288 24 295 16 303 10 C304 6 304 1 304 -4 C304 -9 295 -59 294 -60 C292 -63 285 -63 285 -63 C272 -59 258 -54 244 -52 C240 -52 236 -60 231 -66 C226 -71 235 -76 227 -83 C226 -84 227 -88 227 -88 C227 -88 229 -88 231 -86 C234 -83 237 -84 237 -84 C266 -93 300 -87 303 -87 C305 -86 319 -94 319 -94 L358 -114 C361 -116 364 -123 369 -118 C372 -114 366 -110 366 -110 C365 -107 345 -94 334 -87 C328 -80 322 -71 314 -66 C313 -61 321 -40 323 -32 C325 -23 325 -6 330 6 C334 11 342 16 351 20 C368 13 384 7 396 4 C402 1 406 1 411 -1 C411 -4 410 -7 410 -10 C410 -10 407 -29 407 -32 L403 -37 C402 -41 394 -40 394 -40 C381 -35 368 -31 354 -27 C349 -30 345 -37 341 -41 C335 -46 344 -53 337 -58 C335 -59 335 -63 337 -65 C337 -65 338 -65 340 -62 C342 -58 347 -60 347 -60 C375 -69 398 -62 411 -63 L428 -71 C441 -78 454 -84 467 -93 C470 -93 475 -100 478 -96 C480 -91 477 -89 475 -87 C472 -84 454 -71 443 -63 C437 -56 431 -46 423 -41 C422 -39 424 -37 424 -35 C424 -33 432 -8 432 -8 L432 -7 C450 -14 463 -19 469 -24 C485 -36 502 -45 515 -61 C539 -83 559 -103 587 -118 C611 -136 632 -131 639 -127 L639 -127 Z " />
<glyph glyph-name="fi" unicode="&#xfb01;" horiz-adv-x="523" d="M239 591 C244 615 262 631 283 631 C302 631 321 628 346 624 L369 684 L312 688 C283 686 260 681 234 660 C200 635 186 607 178 572 L155 465 L83 465 L67 418 L145 418 L15 -183 L71 -183 L201 418 L311 418 L324 465 L212 465 L239 591 Z M503 676 C472 676 449 654 449 627 C449 604 465 590 487 590 C514 590 541 612 541 640 C541 662 526 676 503 676 L503 676 Z M336 0 L391 0 L489 465 L435 465 L336 0 Z " />
<glyph glyph-name="fl" unicode="&#xfb02;" horiz-adv-x="512" d="M478 681 L327 0 L383 0 L535 689 L478 681 Z M239 591 C244 615 262 631 283 631 C302 631 321 628 346 624 L369 684 L312 688 C283 686 260 681 234 660 C200 635 186 607 178 572 L155 465 L83 465 L67 418 L145 418 L15 -183 L71 -183 L201 418 L311 418 L324 465 L212 465 L239 591 Z " />
</font>
</svg>
