<?xml version="1.0" encoding="UTF-8"?>
<svg xmlns="http://www.w3.org/2000/svg" xmlns:xlink="http://www.w3.org/1999/xlink" version="1.2" >
<font id="Reserva Sans Thin">
<font-face  font-family="Reserva Sans" units-per-em="1000" ascent="780" descent="-220" font-style="normal" font-weight="100" font-stretch="normal" cap-height="680" x-height="464" underline-position="-75" underline-thickness="50" />
<missing-glyph  horiz-adv-x="500" d="M410 780 L93 780 L93 -220 L410 -220 L410 780 Z M333 713 L333 680 L267 680 L267 643 L333 643 L333 610 L167 610 L167 643 L233 643 L233 680 L168 680 L168 713 L333 713 Z M267 584 L267 514 L333 514 L333 480 L167 480 L167 584 L267 584 Z M233 550 L200 550 L200 514 L233 514 L233 550 Z M333 453 L333 420 L267 420 L267 350 L167 350 L167 383 L233 383 L233 420 L167 420 L167 453 L333 453 Z M333 393 L333 293 L167 293 L167 327 L300 327 L300 393 L333 393 Z M333 271 L333 158 L167 158 L167 271 L200 271 L200 191 L300 191 L300 238 L267 238 L267 215 L233 215 L233 271 L333 271 Z M333 98 L333 -15 L167 -15 L167 98 L333 98 Z M300 65 L200 65 L200 18 L300 18 L300 65 Z M333 -38 L333 -71 L301 -71 L231 -118 L333 -118 L333 -151 L167 -151 L167 -118 L237 -71 L167 -71 L167 -38 L333 -38 Z " />
<glyph glyph-name="NULL" d="" />
<glyph glyph-name="CR" unicode="&#xd;" horiz-adv-x="250" d="" />
<glyph glyph-name="space" unicode="&#x20;" horiz-adv-x="212" d="" />
<glyph glyph-name="exclam" unicode="&#x21;" horiz-adv-x="317" d="M139 133 L179 133 L179 680 L139 680 L139 133 Z M157 -10 C185 -10 202 4 202 33 C202 59 185 73 161 73 C132 73 115 56 115 28 C115 2 132 -10 157 -10 L157 -10 Z " />
<glyph glyph-name="quotedbl" unicode="&#x22;" horiz-adv-x="317" d="M70 466 L101 466 L125 660 L125 680 L70 680 L70 466 Z M202 466 L233 466 L257 660 L257 680 L202 680 L202 466 Z " />
<glyph glyph-name="numbersign" unicode="&#x23;" horiz-adv-x="515" d="M527 443 L527 478 L405 478 L443 680 L402 680 L364 478 L215 478 L253 680 L212 680 L174 478 L18 478 L18 443 L167 443 L131 248 L-12 248 L-12 213 L124 213 L84 0 L125 0 L165 213 L314 213 L274 0 L315 0 L355 213 L502 213 L502 248 L362 248 L398 443 L527 443 Z M321 248 L172 248 L208 443 L357 443 L321 248 Z " />
<glyph glyph-name="dollar" unicode="&#x24;" horiz-adv-x="580" d="M161 506 C161 566 230 613 318 613 C361 613 407 605 441 590 L451 635 C422 643 376 651 333 651 L337 796 L290 794 L294 649 C256 644 216 631 188 613 C142 583 117 542 117 496 C117 330 440 352 440 189 C440 112 353 60 264 60 C200 60 136 78 96 97 L106 49 C135 35 193 22 250 22 C257 22 264 22 270 23 L265 -124 L313 -122 L308 27 C355 36 397 53 427 78 C464 109 485 154 485 199 C485 381 161 366 161 506 L161 506 Z " />
<glyph glyph-name="percent" unicode="&#x25;" horiz-adv-x="836" d="M184 262 C227 262 262 288 284 328 C309 373 320 431 320 488 C320 609 269 684 195 684 C150 684 115 657 94 620 C68 575 58 522 58 467 C58 342 110 262 184 262 L184 262 Z M232 0 L273 0 L604 680 L563 680 L232 0 Z M188 296 C129 296 96 367 96 477 C96 576 134 650 190 650 C244 650 282 590 282 477 C282 376 249 296 188 296 L188 296 Z M643 -10 C686 -10 721 16 743 56 C768 101 779 159 779 216 C779 337 728 412 654 412 C609 412 574 385 553 348 C527 303 517 250 517 195 C517 70 569 -10 643 -10 L643 -10 Z M647 24 C588 24 555 95 555 205 C555 304 593 378 649 378 C703 378 741 318 741 205 C741 104 708 24 647 24 L647 24 Z " />
<glyph glyph-name="ampersand" unicode="&#x26;" horiz-adv-x="645" d="M640 28 C585 57 525 95 467 137 C524 211 564 306 573 408 L532 416 C523 315 487 227 438 160 C403 187 369 216 338 246 C304 278 274 312 249 345 C256 351 263 356 270 361 C355 423 435 480 435 561 C435 627 381 685 297 685 C206 685 131 618 131 521 C131 467 156 409 196 350 C122 293 59 229 59 143 C59 60 120 -11 217 -11 C294 -11 375 34 441 106 C500 61 561 21 618 -11 L640 28 Z M171 525 C171 603 228 648 290 648 C347 648 395 610 395 556 C395 497 339 453 250 389 L228 373 C193 426 171 478 171 525 L171 525 Z M224 27 C147 27 99 81 99 148 C99 220 152 272 217 322 C243 287 274 253 309 219 C341 187 376 157 413 128 C356 64 288 27 224 27 L224 27 Z " />
<glyph glyph-name="quotesingle" unicode="&#x27;" horiz-adv-x="185" d="M70 466 L101 466 L125 660 L125 680 L70 680 L70 466 Z " />
<glyph glyph-name="parenleft" unicode="&#x28;" horiz-adv-x="323" d="M225 -100 L265 -100 C176 20 132 155 132 290 C132 425 176 560 265 680 L225 680 C134 560 88 425 88 290 C88 155 134 20 225 -100 L225 -100 Z " />
<glyph glyph-name="parenright" unicode="&#x29;" horiz-adv-x="323" d="M98 -100 C189 20 235 155 235 290 C235 425 189 560 98 680 L58 680 C147 560 191 425 191 290 C191 155 147 20 58 -100 L98 -100 Z " />
<glyph glyph-name="asterisk" unicode="&#x2a;" horiz-adv-x="377" d="M352 544 L338 588 L331 586 L200 531 L212 673 L212 680 L166 680 L166 673 L178 532 L46 587 L39 589 L25 545 L31 543 L171 510 L78 403 L74 397 L111 370 L115 376 L190 498 L264 376 L268 370 L305 397 L301 403 L209 510 L346 542 L352 544 Z " />
<glyph glyph-name="plus" unicode="&#x2b;" horiz-adv-x="580" d="M530 338 L308 338 L308 560 L273 560 L273 338 L51 338 L51 303 L273 303 L273 80 L308 80 L308 303 L530 303 L530 338 Z " />
<glyph glyph-name="comma" unicode="&#x2c;" horiz-adv-x="202" d="M50 -128 C98 -87 132 -39 132 19 C132 47 129 77 117 110 L65 103 C80 70 85 38 85 10 C85 -35 62 -74 25 -109 L50 -128 Z " />
<glyph glyph-name="hyphen" unicode="&#x2d;" horiz-adv-x="330" d="M36 258 L294 258 L294 296 L36 296 L36 258 Z " />
<glyph glyph-name="period" unicode="&#x2e;" horiz-adv-x="257" d="M127 -10 C155 -10 172 4 172 33 C172 59 155 73 131 73 C102 73 85 56 85 28 C85 2 102 -10 127 -10 L127 -10 Z " />
<glyph glyph-name="slash" unicode="&#x2f;" horiz-adv-x="310" d="M-21 -189 L20 -189 L301 680 L260 680 L-21 -189 Z " />
<glyph glyph-name="zero" unicode="0" horiz-adv-x="580" d="M284 -10 C358 -10 415 32 446 87 C489 163 505 266 505 364 C505 576 422 690 300 690 C231 690 172 642 141 592 C100 526 75 437 75 321 C75 114 169 -10 284 -10 L284 -10 Z M288 27 C185 27 114 151 114 330 C114 514 192 653 297 653 C388 653 466 559 466 356 C466 168 404 27 288 27 L288 27 Z " />
<glyph glyph-name="one" unicode="1" horiz-adv-x="580" d="M356 689 C272 621 187 560 107 513 L128 483 C199 526 261 569 335 630 L335 0 L377 0 L377 681 L356 689 Z " />
<glyph glyph-name="two" unicode="2" horiz-adv-x="580" d="M119 38 L266 212 C372 338 473 405 473 532 C473 615 416 691 280 691 C211 691 140 669 109 652 L100 608 C151 635 220 654 274 654 C365 654 431 605 431 527 C431 422 336 352 239 237 L75 42 L95 0 L470 0 L487 47 C415 43 285 38 119 38 L119 38 Z " />
<glyph glyph-name="three" unicode="3" horiz-adv-x="580" d="M286 371 L274 371 C389 393 455 474 455 550 C455 624 392 691 266 691 C211 691 148 678 108 661 L100 619 C149 640 210 654 264 654 C356 654 413 613 413 545 C413 467 339 403 191 384 L190 345 C201 346 216 347 234 347 C349 347 445 308 445 207 C445 114 363 28 231 28 C188 28 134 37 68 67 L82 15 C134 -2 183 -9 225 -9 C384 -9 487 90 487 202 C487 292 421 371 286 371 L286 371 Z " />
<glyph glyph-name="four" unicode="4" horiz-adv-x="580" d="M530 216 L428 216 L428 681 L398 689 L48 219 L71 180 L387 180 L387 0 L428 0 L428 180 L530 180 L530 216 Z M89 216 L387 613 L387 216 L89 216 Z " />
<glyph glyph-name="five" unicode="5" horiz-adv-x="580" d="M261 422 C218 422 177 414 152 406 L188 643 L458 643 L455 681 L153 681 L109 397 L138 364 C174 376 215 384 252 384 C378 384 452 315 452 216 C452 119 365 27 239 27 C190 27 135 37 86 65 L102 9 C135 -3 190 -10 233 -10 C388 -10 495 101 495 222 C495 327 409 422 261 422 L261 422 Z " />
<glyph glyph-name="six" unicode="6" horiz-adv-x="580" d="M295 425 C251 425 194 411 137 369 C175 479 285 618 451 675 L422 701 C200 612 72 417 72 238 C72 162 91 102 130 54 C164 12 215 -12 279 -12 C333 -12 393 8 440 55 C480 96 505 159 505 221 C505 337 417 425 295 425 L295 425 Z M286 26 C193 26 113 93 113 249 C113 271 116 297 123 324 C176 367 236 385 290 387 C382 391 464 320 464 212 C464 113 388 26 286 26 L286 26 Z " />
<glyph glyph-name="seven" unicode="7" horiz-adv-x="580" d="M493 680 L103 680 L91 639 C211 642 330 642 450 642 C334 421 243 205 172 0 L217 0 C292 223 390 440 503 656 L493 680 Z " />
<glyph glyph-name="eight" unicode="8" horiz-adv-x="580" d="M335 361 C432 398 478 469 478 543 C478 629 405 695 297 695 C176 695 103 610 103 524 C103 439 167 396 241 360 C130 316 79 239 79 161 C79 65 154 -10 282 -10 C415 -10 504 81 504 177 C504 276 421 321 335 361 L335 361 Z M145 531 C145 595 203 657 292 657 C372 657 436 606 436 536 C436 477 386 413 296 379 C215 416 145 454 145 531 L145 531 Z M291 28 C184 28 122 86 122 164 C122 236 172 301 280 342 C283 340 287 339 290 337 C383 295 461 256 461 172 C461 91 381 28 291 28 L291 28 Z " />
<glyph glyph-name="nine" unicode="9" horiz-adv-x="580" d="M450 635 C416 677 365 701 301 701 C247 701 187 681 140 634 C100 593 75 530 75 468 C75 352 163 264 285 264 C329 264 386 278 443 320 C405 210 295 71 129 14 L158 -12 C380 77 508 272 508 451 C508 527 489 587 450 635 L450 635 Z M116 477 C116 576 192 663 294 663 C387 663 467 596 467 440 C467 418 464 392 457 365 C404 322 344 304 290 302 C198 298 116 369 116 477 L116 477 Z " />
<glyph glyph-name="colon" unicode="&#x3a;" horiz-adv-x="257" d="M127 304 C155 304 172 318 172 347 C172 373 155 387 131 387 C102 387 85 370 85 342 C85 316 102 304 127 304 L127 304 Z M127 -10 C155 -10 172 4 172 33 C172 59 155 73 131 73 C102 73 85 56 85 28 C85 2 102 -10 127 -10 L127 -10 Z " />
<glyph glyph-name="semicolon" unicode="&#x3b;" horiz-adv-x="202" d="M82 301 C110 301 127 315 127 344 C127 370 110 384 86 384 C57 384 40 367 40 339 C40 313 57 301 82 301 L82 301 Z M50 -128 C98 -87 132 -39 132 19 C132 47 129 77 117 110 L65 103 C80 70 85 38 85 10 C85 -35 62 -74 25 -109 L50 -128 Z " />
<glyph glyph-name="less" unicode="&#x3c;" horiz-adv-x="540" d="M484 436 L470 471 L56 301 L56 265 L470 95 L484 130 L99 283 L484 436 Z " />
<glyph glyph-name="equal" unicode="&#x3d;" horiz-adv-x="540" d="M55 396 L484 396 L484 431 L55 431 L55 396 Z M55 156 L484 156 L484 191 L55 191 L55 156 Z " />
<glyph glyph-name="greater" unicode="&#x3e;" horiz-adv-x="540" d="M70 471 L56 436 L441 283 L56 130 L70 95 L484 265 L484 301 L70 471 Z " />
<glyph glyph-name="question" unicode="&#x3f;" horiz-adv-x="468" d="M217 691 C162 691 99 678 59 661 L51 616 C102 640 161 654 214 654 C308 654 366 610 366 536 C366 461 305 393 182 304 L182 156 L222 157 L222 287 C349 380 406 452 406 545 C406 624 343 691 217 691 L217 691 Z M207 73 C177 73 161 56 161 27 C161 -1 177 -10 203 -10 C231 -10 248 4 248 33 C248 62 232 73 207 73 L207 73 Z " />
<glyph glyph-name="at" unicode="&#x40;" horiz-adv-x="786" d="M410 569 C205 569 43 414 43 206 C43 18 179 -120 370 -120 C436 -120 496 -103 534 -87 L553 -38 C506 -67 442 -83 380 -83 C212 -83 85 35 85 211 C85 403 232 533 406 533 C578 533 701 414 701 263 C701 157 647 85 576 85 C543 85 511 101 511 160 C511 174 513 203 515 223 L529 373 C497 397 452 412 410 412 C313 412 224 328 224 205 C224 117 280 53 355 53 C406 53 450 78 483 124 C492 78 524 51 576 51 C669 51 743 137 743 268 C743 439 602 569 410 569 L410 569 Z M364 91 C305 91 267 136 267 212 C267 307 329 376 408 376 C434 376 462 368 485 355 L468 157 C442 114 404 91 364 91 L364 91 Z " />
<glyph glyph-name="A" unicode="A" horiz-adv-x="658" d="M562 119 L345 686 L297 680 L47 0 L91 0 L189 269 L461 269 L522 107 C540 60 555 25 572 -11 L614 3 C595 41 577 79 562 119 L562 119 Z M202 307 L323 639 L447 307 L202 307 Z " />
<glyph glyph-name="B" unicode="B" horiz-adv-x="587" d="M358 377 C429 413 473 464 473 531 C473 618 409 680 282 680 L122 680 L122 0 L312 0 C439 0 516 105 516 204 C516 287 459 358 358 377 L358 377 Z M162 642 L270 642 C386 642 433 600 433 528 C433 463 387 415 300 389 L162 391 L162 642 Z M352 38 L162 38 L162 352 L288 352 C407 352 471 278 471 197 C471 122 431 68 352 38 L352 38 Z " />
<glyph glyph-name="C" unicode="C" horiz-adv-x="603" d="M360 -10 C421 -10 499 3 534 22 L546 70 C478 40 429 29 371 29 C232 29 123 115 123 321 C123 526 249 652 393 652 C436 652 486 643 520 630 L532 675 C504 684 457 690 409 690 C310 690 233 649 179 592 C116 526 82 425 82 315 C82 93 205 -10 360 -10 L360 -10 Z " />
<glyph glyph-name="D" unicode="D" horiz-adv-x="710" d="M275 680 L122 680 L122 0 L282 0 C454 0 628 132 628 355 C628 568 512 680 275 680 L275 680 Z M307 38 L162 38 L162 642 L278 642 C485 642 588 542 588 357 C588 168 465 54 307 38 L307 38 Z " />
<glyph glyph-name="E" unicode="E" horiz-adv-x="554" d="M162 38 L162 352 L451 352 L453 390 L162 390 L162 642 L480 642 L483 680 L122 680 L122 0 L498 0 L502 38 L162 38 Z " />
<glyph glyph-name="F" unicode="F" horiz-adv-x="518" d="M162 642 L469 642 L467 680 L122 680 L122 0 L162 0 L162 329 L437 329 L438 367 L162 367 L162 642 Z " />
<glyph glyph-name="G" unicode="G" horiz-adv-x="652" d="M530 273 L530 50 C488 37 445 29 393 29 C244 29 124 115 124 323 C124 528 268 652 423 652 C466 652 516 643 553 630 L565 675 C536 684 486 690 434 690 C333 690 248 652 188 593 C120 526 82 428 82 315 C82 93 217 -10 382 -10 C447 -10 533 3 570 22 L570 273 L530 273 Z " />
<glyph glyph-name="H" unicode="H" horiz-adv-x="706" d="M544 680 L544 381 L162 381 L162 680 L122 680 L122 0 L162 0 L162 343 L544 343 L544 0 L584 0 L584 680 L544 680 Z " />
<glyph glyph-name="I" unicode="I" horiz-adv-x="284" d="M122 0 L162 0 L162 680 L122 680 L122 0 Z " />
<glyph glyph-name="J" unicode="J" horiz-adv-x="380" d="M49 -7 C116 -2 165 20 203 52 C236 79 258 125 258 182 L258 680 L218 680 L218 175 C218 96 153 44 39 31 L49 -7 Z " />
<glyph glyph-name="K" unicode="K" horiz-adv-x="557" d="M531 -1 L211 345 L516 680 L462 680 L162 347 L162 680 L122 680 L122 0 L162 0 L162 341 L481 -9 L531 -1 Z " />
<glyph glyph-name="L" unicode="L" horiz-adv-x="501" d="M162 38 L162 680 L122 680 L122 0 L453 0 L461 38 L162 38 Z " />
<glyph glyph-name="M" unicode="M" horiz-adv-x="847" d="M757 6 L692 683 L641 680 L428 67 L200 682 L156 680 L88 0 L130 0 L185 612 L406 16 L446 18 L658 617 L717 -3 L757 6 Z " />
<glyph glyph-name="N" unicode="N" horiz-adv-x="754" d="M592 679 L592 78 L150 682 L122 680 L122 0 L162 0 L162 601 L602 -4 L632 1 L632 682 L592 679 Z " />
<glyph glyph-name="O" unicode="O" horiz-adv-x="736" d="M364 -11 C440 -11 526 18 579 83 C624 138 654 235 654 347 C654 569 537 691 373 691 C286 691 209 657 154 585 C105 521 82 439 82 339 C82 100 214 -11 364 -11 L364 -11 Z M371 26 C218 26 123 150 123 341 C123 530 216 654 372 654 C511 654 614 555 614 346 C614 152 526 26 371 26 L371 26 Z " />
<glyph glyph-name="P" unicode="P" horiz-adv-x="545" d="M249 680 L122 680 L122 0 L162 0 L162 312 C181 308 226 302 260 302 C320 302 375 314 419 351 C462 386 484 450 484 503 C484 617 402 680 249 680 L249 680 Z M268 340 C237 340 188 346 162 351 L162 647 C211 647 242 647 267 646 C389 643 443 593 443 497 C443 402 379 340 268 340 L268 340 Z " />
<glyph glyph-name="Q" unicode="Q" horiz-adv-x="727" d="M404 -8 C469 0 535 29 579 83 C624 138 654 235 654 347 C654 569 537 691 373 691 C286 691 209 657 154 585 C105 521 82 439 82 339 C82 104 209 -7 356 -11 C434 -86 536 -143 657 -191 L659 -191 L677 -151 L677 -147 C587 -117 484 -65 404 -8 L404 -8 Z M123 341 C123 530 216 654 372 654 C511 654 614 555 614 346 C614 152 526 26 371 26 C218 26 123 150 123 341 L123 341 Z " />
<glyph glyph-name="R" unicode="R" horiz-adv-x="581" d="M334 325 L339 328 C409 356 476 423 476 509 C476 616 407 680 264 680 L122 680 L122 0 L162 0 L162 320 L294 315 C348 210 413 106 487 0 L535 0 L535 6 C461 111 384 218 334 325 L334 325 Z M162 642 L249 642 C375 642 438 594 438 507 C438 444 395 386 309 353 L162 357 L162 642 Z " />
<glyph glyph-name="S" unicode="S" horiz-adv-x="513" d="M213 -10 C279 -10 354 12 397 55 C431 89 447 140 447 184 C447 293 354 339 268 382 C194 419 124 453 124 524 C124 599 192 653 287 653 C326 653 370 644 404 626 L413 673 C385 682 341 690 297 690 C245 690 189 674 153 648 C109 616 83 571 83 516 C83 427 163 388 243 349 C325 310 407 270 407 176 C407 86 323 27 223 27 C157 27 95 49 62 67 L71 14 C98 0 152 -10 213 -10 L213 -10 Z " />
<glyph glyph-name="T" unicode="T" horiz-adv-x="495" d="M456 680 L46 680 L40 642 L232 642 L232 0 L272 0 L272 642 L451 642 L456 680 Z " />
<glyph glyph-name="U" unicode="U" horiz-adv-x="660" d="M318 -10 C377 -10 437 6 481 45 C520 80 548 128 548 198 L548 680 L508 680 L508 193 C508 107 439 28 329 28 C239 28 162 66 162 181 L162 680 L122 680 L122 170 C122 57 198 -10 318 -10 L318 -10 Z " />
<glyph glyph-name="V" unicode="V" horiz-adv-x="653" d="M549 680 L319 37 L101 689 L59 680 L293 -6 L345 0 L594 680 L549 680 Z " />
<glyph glyph-name="W" unicode="W" horiz-adv-x="907" d="M805 680 L635 81 L558 393 C544 449 500 598 479 685 L436 679 L259 84 L184 359 C159 452 116 623 98 690 L59 679 C66 656 110 485 140 370 L237 -4 L272 0 L456 610 C471 554 500 449 517 384 L618 -5 L651 0 L848 680 L805 680 Z " />
<glyph glyph-name="X" unicode="X" horiz-adv-x="597" d="M548 5 L326 336 L547 681 L500 681 L303 369 L86 691 L49 672 L276 334 L50 0 L98 0 L298 303 L511 -7 L548 5 Z " />
<glyph glyph-name="Y" unicode="Y" horiz-adv-x="535" d="M449 680 L275 349 L78 690 L40 676 L253 314 L251 0 L294 0 L295 314 L494 680 L449 680 Z " />
<glyph glyph-name="Z" unicode="Z" horiz-adv-x="537" d="M101 36 L473 650 L475 680 L74 680 L59 639 L428 644 L54 28 L60 0 L467 0 L485 39 L101 36 Z " />
<glyph glyph-name="bracketleft" unicode="&#x5b;" horiz-adv-x="323" d="M262 642 L262 680 L102 680 L102 -100 L262 -100 L262 -62 L142 -62 L142 642 L262 642 Z " />
<glyph glyph-name="backslash" unicode="&#x5c;" horiz-adv-x="310" d="M331 -189 L50 680 L9 680 L290 -189 L331 -189 Z " />
<glyph glyph-name="bracketright" unicode="&#x5d;" horiz-adv-x="323" d="M221 680 L61 680 L61 642 L181 642 L181 -62 L61 -62 L61 -100 L221 -100 L221 680 Z " />
<glyph glyph-name="underscore" unicode="&#x5f;" horiz-adv-x="478" d="M0 -143 L478 -143 L478 -103 L0 -103 L0 -143 Z " />
<glyph glyph-name="grave" unicode="&#x60;" horiz-adv-x="330" d="M277 547 L280 547 L290 577 L290 580 C210 605 134 635 62 670 L57 670 L40 626 C115 595 194 568 277 547 L277 547 Z " />
<glyph glyph-name="a" unicode="a" horiz-adv-x="467" d="M376 27 C363 27 363 38 363 41 L363 384 C363 438 324 474 240 474 C187 474 113 462 88 452 L70 404 C120 424 184 437 233 437 C292 437 323 418 323 376 L323 268 L259 260 C187 251 132 233 97 202 C68 176 53 140 53 100 C53 30 97 -9 161 -9 C205 -9 252 10 324 48 L324 35 C324 19 328 -11 363 -11 C381 -11 410 -3 430 7 L436 48 C409 36 388 27 376 27 L376 27 Z M93 105 C93 173 145 215 265 224 L323 229 L323 83 C262 48 204 28 165 28 C117 28 93 59 93 105 L93 105 Z " />
<glyph glyph-name="b" unicode="b" horiz-adv-x="489" d="M262 469 C209 469 171 453 136 420 L124 408 L120 408 L120 687 L80 680 L80 22 C110 6 154 -7 210 -7 C271 -7 323 17 361 58 C401 104 425 170 425 251 C425 386 371 469 262 469 L262 469 Z M217 30 C181 30 143 39 120 50 L120 360 C158 410 204 432 250 432 C332 432 385 363 385 245 C385 108 310 30 217 30 L217 30 Z " />
<glyph glyph-name="c" unicode="c" horiz-adv-x="441" d="M242 -11 C289 -11 348 3 375 21 L391 69 L388 69 C354 46 301 26 250 26 C167 26 104 74 104 217 C104 364 172 433 276 433 C311 433 350 426 370 415 L385 452 C357 464 319 470 285 470 C217 470 160 444 122 399 C82 351 64 283 64 207 C64 54 143 -11 242 -11 L242 -11 Z " />
<glyph glyph-name="d" unicode="d" horiz-adv-x="499" d="M417 98 L417 686 L377 679 L377 461 C354 467 327 472 301 472 C227 472 167 441 129 397 C92 354 64 283 64 197 C64 73 127 -10 232 -10 C291 -10 352 20 380 46 L381 46 C383 28 389 9 395 -8 L432 3 C423 29 417 62 417 98 L417 98 Z M238 26 C157 26 106 85 106 211 C106 361 198 435 287 435 C318 435 348 430 377 419 L377 82 C344 51 297 26 238 26 L238 26 Z " />
<glyph glyph-name="e" unicode="e" horiz-adv-x="478" d="M279 27 C187 27 106 81 106 218 C106 236 107 249 109 264 L411 266 C414 279 416 295 416 315 C416 401 364 474 266 474 C211 474 155 448 117 398 C81 355 64 292 64 220 C64 78 144 -10 273 -10 C325 -10 374 6 400 23 L416 71 L413 71 C381 47 329 27 279 27 L279 27 Z M257 437 C342 437 376 380 376 303 L376 299 L114 298 C133 395 198 437 257 437 L257 437 Z " />
<glyph glyph-name="f" unicode="f" horiz-adv-x="309" d="M286 464 L160 464 L160 606 C160 632 178 648 201 648 C218 648 239 646 276 641 L283 682 L212 687 C192 687 171 682 151 664 C130 646 120 625 120 597 L120 464 L33 464 L30 428 L120 428 L120 0 L160 0 L160 428 L279 428 L286 464 Z " />
<glyph glyph-name="g" unicode="g" horiz-adv-x="462" d="M326 75 L166 99 C129 105 115 109 115 119 C115 129 133 145 186 178 C195 177 205 176 215 176 C302 176 381 246 381 331 C381 374 356 419 319 433 L319 435 L414 429 L423 470 L280 470 C206 470 152 451 117 417 C86 387 71 348 71 307 C71 254 100 209 150 188 C85 146 67 128 67 108 C67 87 87 72 139 65 L151 63 C62 10 34 -25 34 -78 C34 -153 115 -200 209 -200 C274 -200 339 -180 381 -148 C418 -120 439 -78 439 -31 C439 21 403 63 326 75 L326 75 Z M109 314 C109 382 152 428 228 428 C302 428 343 385 343 322 C343 262 287 212 223 212 C149 212 109 252 109 314 L109 314 Z M221 -162 C143 -162 74 -123 74 -71 C74 -31 101 2 192 58 L311 41 C367 33 399 0 399 -43 C399 -105 332 -162 221 -162 L221 -162 Z " />
<glyph glyph-name="h" unicode="h" horiz-adv-x="517" d="M95 0 L135 0 L135 392 C179 420 236 436 288 436 C347 436 385 403 385 337 L385 0 L425 0 L425 347 C425 425 374 473 291 473 C240 473 193 457 138 429 L135 429 L135 688 L95 682 L95 0 Z " />
<glyph glyph-name="i" unicode="i" horiz-adv-x="220" d="M106 599 C126 599 144 613 144 635 C144 657 130 668 110 668 C89 668 73 655 73 630 C73 610 87 599 106 599 L106 599 Z M90 0 L130 0 L130 466 L90 461 L90 0 Z " />
<glyph glyph-name="j" unicode="j" horiz-adv-x="234" d="M116 599 C136 599 154 613 154 635 C154 657 140 668 120 668 C99 668 83 655 83 630 C83 610 97 599 116 599 L116 599 Z M57 -190 C85 -188 102 -180 117 -168 C132 -155 137 -133 137 -112 L137 472 L97 466 L97 -116 C97 -140 87 -149 65 -149 C47 -149 28 -145 12 -140 L3 -179 L57 -190 Z " />
<glyph glyph-name="k" unicode="k" horiz-adv-x="435" d="M429 -1 L182 256 L259 318 C338 383 375 429 397 464 L343 464 C329 438 296 395 229 338 L137 258 L137 688 L97 681 L97 0 L137 0 L137 249 L379 -9 L429 -1 Z " />
<glyph glyph-name="l" unicode="l" horiz-adv-x="200" d="M80 0 L120 0 L120 688 L80 681 L80 0 Z " />
<glyph glyph-name="m" unicode="m" horiz-adv-x="721" d="M518 471 C474 471 431 453 374 416 C358 452 319 471 274 471 C236 471 191 453 135 416 L133 416 L133 469 L95 464 L95 333 L95 0 L135 0 L135 380 C180 413 225 434 266 434 C314 434 342 412 342 366 L342 0 L382 0 L382 378 L382 385 C428 416 474 434 511 434 C558 434 589 414 589 366 L589 0 L629 0 L629 374 C629 438 577 471 518 471 L518 471 Z " />
<glyph glyph-name="n" unicode="n" horiz-adv-x="517" d="M95 0 L135 0 L135 382 C179 417 231 436 277 436 C347 436 385 403 385 337 L385 0 L425 0 L425 347 C425 425 374 473 289 473 C240 473 187 460 138 424 L135 424 L135 472 L95 466 L95 335 L95 0 Z " />
<glyph glyph-name="o" unicode="o" horiz-adv-x="525" d="M253 -11 C309 -11 363 13 401 55 C437 95 461 160 461 241 C461 390 377 474 269 474 C210 474 155 446 118 401 C84 360 64 297 64 226 C64 69 161 -11 253 -11 L253 -11 Z M260 26 C164 26 106 107 106 238 C106 355 172 437 263 437 C364 437 419 362 419 229 C419 116 353 26 260 26 L260 26 Z " />
<glyph glyph-name="p" unicode="p" horiz-adv-x="493" d="M259 472 C208 472 170 453 132 423 L129 423 L129 468 L92 454 C92 412 90 316 90 254 L90 -191 L130 -183 L130 3 C156 -6 189 -11 214 -11 C278 -11 331 14 370 57 C414 105 435 175 435 257 C435 378 375 472 259 472 L259 472 Z M224 26 C190 26 156 34 130 45 L130 387 C169 419 209 435 254 435 C341 435 394 367 394 247 C394 106 313 26 224 26 L224 26 Z " />
<glyph glyph-name="q" unicode="q" horiz-adv-x="500" d="M281 475 C217 475 160 445 122 399 C84 352 64 283 64 209 C64 78 125 -9 232 -9 C285 -9 337 14 371 51 L374 51 L374 -191 L415 -183 L415 446 C380 465 331 475 281 475 L281 475 Z M240 27 C160 27 104 94 104 220 C104 354 170 438 276 438 C314 438 351 430 375 420 L375 110 C345 60 298 27 240 27 L240 27 Z " />
<glyph glyph-name="r" unicode="r" horiz-adv-x="335" d="M111 0 L151 0 L151 345 C196 412 221 426 261 431 L294 426 L302 473 L269 479 C226 473 178 440 148 386 L145 386 C141 418 133 450 126 474 L88 463 C98 431 111 354 111 283 L111 0 Z " />
<glyph glyph-name="s" unicode="s" horiz-adv-x="397" d="M183 -11 C235 -11 277 3 306 27 C336 52 353 88 353 122 C353 193 289 229 216 262 C153 291 107 311 107 360 C107 405 152 436 218 436 C258 436 296 427 324 415 L330 457 C305 465 262 474 222 474 C179 474 138 461 110 439 C82 418 67 385 67 355 C67 290 121 264 188 233 C267 196 313 168 313 115 C313 64 264 27 189 27 C140 27 89 41 41 68 L49 18 C80 1 123 -11 183 -11 L183 -11 Z " />
<glyph glyph-name="t" unicode="t" horiz-adv-x="335" d="M286 61 C252 38 222 28 197 28 C166 28 151 44 151 85 L151 428 L280 428 L286 464 L151 464 L151 592 L111 573 L111 464 L34 464 L30 428 L111 428 L111 78 C111 22 133 -11 188 -11 C223 -11 256 0 281 13 L290 61 L286 61 Z " />
<glyph glyph-name="u" unicode="u" horiz-adv-x="512" d="M417 464 L377 464 L377 72 C334 44 277 28 227 28 C170 28 132 61 132 127 L132 464 L92 464 L92 117 C92 39 143 -9 224 -9 C274 -9 320 7 374 35 L377 35 L377 -8 L417 -2 L417 129 L417 464 Z " />
<glyph glyph-name="v" unicode="v" horiz-adv-x="420" d="M348 464 L207 72 L148 248 C126 313 90 414 73 471 L34 457 L105 253 L191 0 L218 0 L388 464 L348 464 Z " />
<glyph glyph-name="w" unicode="w" horiz-adv-x="633" d="M561 464 L450 74 L400 248 C382 310 354 400 338 461 L298 461 L180 73 L132 248 C114 313 86 424 73 471 L34 457 C38 444 66 344 91 253 L161 0 L192 0 L317 398 L360 253 L433 0 L463 0 L601 464 L561 464 Z " />
<glyph glyph-name="x" unicode="x" horiz-adv-x="424" d="M392 464 L346 464 L213 268 L77 472 L37 457 L192 229 L34 0 L82 0 L214 198 L352 -5 L392 4 L236 236 L392 464 Z " />
<glyph glyph-name="y" unicode="y" horiz-adv-x="435" d="M356 464 L220 55 L133 306 C116 354 104 401 82 468 L39 463 C55 412 70 363 90 305 L190 17 L206 16 L168 -87 C150 -135 131 -152 89 -152 C65 -152 43 -145 30 -140 L42 -197 L78 -199 C110 -195 142 -183 165 -163 C184 -147 196 -126 212 -79 L399 464 L356 464 Z " />
<glyph glyph-name="z" unicode="z" horiz-adv-x="397" d="M89 36 L352 434 L347 464 L57 464 L50 425 L302 428 L40 28 L52 0 L347 0 L357 39 L89 36 Z " />
<glyph glyph-name="braceleft" unicode="&#x7b;" horiz-adv-x="330" d="M211 -116 L282 -106 L273 -67 C257 -73 234 -77 213 -77 C177 -77 152 -59 152 -15 C152 41 193 135 193 206 C193 242 183 281 131 287 L131 288 C183 296 191 341 191 373 C191 441 154 540 154 592 C154 636 183 655 222 655 C242 655 265 650 285 641 L296 678 C274 685 248 690 220 690 C142 690 113 649 113 588 C113 526 151 433 151 372 C151 340 140 306 94 306 L85 306 L85 268 L94 268 C138 268 151 239 151 204 C151 144 113 53 113 -18 C113 -84 147 -116 211 -116 L211 -116 Z " />
<glyph glyph-name="bar" unicode="&#x7c;" horiz-adv-x="308" d="M134 -191 L174 -191 L174 755 L134 755 L134 -191 Z " />
<glyph glyph-name="braceright" unicode="&#x7d;" horiz-adv-x="330" d="M119 690 L48 680 L57 641 C73 647 96 651 117 651 C153 651 178 633 178 589 C178 533 137 439 137 368 C137 332 147 293 199 287 L199 286 C147 278 139 233 139 201 C139 133 176 34 176 -18 C176 -62 147 -81 108 -81 C88 -81 65 -76 45 -67 L34 -104 C56 -111 82 -116 110 -116 C188 -116 217 -75 217 -14 C217 48 179 141 179 202 C179 234 190 268 236 268 L245 268 L245 306 L236 306 C192 306 179 335 179 370 C179 430 217 521 217 592 C217 658 183 690 119 690 L119 690 Z " />
<glyph glyph-name="exclamdown" unicode="&#xa1;" horiz-adv-x="317" d="M160 476 C132 476 115 462 115 433 C115 407 132 393 156 393 C185 393 202 410 202 438 C202 464 185 476 160 476 L160 476 Z M178 333 L138 333 L138 -214 L178 -214 L178 333 Z " />
<glyph glyph-name="cent" unicode="&#xa2;" horiz-adv-x="580" d="M478 169 L475 169 C438 143 377 126 313 126 C216 126 142 174 142 317 C142 464 222 533 344 533 C385 533 431 526 454 515 L471 552 C438 564 394 570 355 570 L360 732 L316 730 L320 568 C254 561 201 535 167 499 C121 451 101 381 101 307 C101 154 193 89 302 89 L303 89 L298 -67 L342 -65 L338 91 C387 95 428 107 458 119 L478 169 Z " />
<glyph glyph-name="sterling" unicode="&#xa3;" horiz-adv-x="580" d="M138 39 C188 71 216 134 216 206 C216 245 208 288 199 331 L375 331 L375 369 L190 369 C179 419 169 468 169 511 C169 587 230 652 321 652 C373 652 420 641 464 622 L471 664 C431 679 373 688 323 688 C213 688 129 613 129 504 C129 465 138 417 148 369 L81 369 L81 331 L156 331 C167 282 176 236 176 201 C176 128 151 72 84 34 L101 0 L485 0 L485 39 L138 39 Z " />
<glyph glyph-name="yen" unicode="&#xa5;" horiz-adv-x="580" d="M517 680 L473 680 L299 349 L104 690 L63 676 L261 336 L85 336 L85 298 L274 298 L274 196 L86 196 L86 158 L274 158 L274 0 L317 0 L317 158 L505 158 L505 196 L317 196 L317 298 L505 298 L505 336 L329 336 L517 680 Z " />
<glyph glyph-name="section" unicode="&#xa7;" horiz-adv-x="522" d="M342 111 C400 137 456 190 456 250 C456 427 126 414 126 543 C126 605 190 652 276 652 C310 652 355 644 388 629 L397 675 C370 683 327 690 287 690 C235 690 184 676 148 652 C106 624 82 581 82 538 C82 475 134 440 198 411 C118 389 62 339 62 272 C62 104 386 135 386 -20 C386 -97 306 -146 216 -146 C154 -146 91 -126 63 -111 L72 -165 C95 -175 146 -184 204 -184 C277 -184 344 -161 378 -130 C411 -100 429 -59 429 -13 C429 46 392 83 342 111 L342 111 Z M105 279 C105 337 170 381 258 386 C338 354 416 321 416 247 C416 192 366 151 299 132 C209 172 105 199 105 279 L105 279 Z " />
<glyph glyph-name="dieresis" unicode="&#xa8;" horiz-adv-x="267" d="M73 599 C93 599 111 613 111 635 C111 657 97 668 77 668 C56 668 40 655 40 630 C40 610 54 599 73 599 L73 599 Z M189 599 C209 599 227 613 227 635 C227 657 213 668 193 668 C172 668 156 655 156 630 C156 610 170 599 189 599 L189 599 Z " />
<glyph glyph-name="copyright" unicode="&#xa9;" horiz-adv-x="796" d="M400 -8 C604 -8 745 133 745 336 C745 562 571 690 398 690 C225 690 51 563 51 335 C51 123 202 -8 400 -8 L400 -8 Z M402 30 C237 30 91 151 91 341 C91 530 237 652 400 652 C556 652 706 540 706 339 C706 140 558 30 402 30 L402 30 Z M409 156 C451 156 487 168 510 184 L517 227 L514 227 C490 210 457 195 414 195 C337 195 264 238 264 339 C264 434 329 485 417 485 C446 485 478 478 497 470 L510 510 C488 517 455 524 418 524 C305 524 222 443 222 333 C222 211 317 156 409 156 L409 156 Z " />
<glyph glyph-name="ordfeminine" unicode="&#xaa;" horiz-adv-x="393" d="M307 386 C300 386 297 390 297 396 L297 616 C297 656 268 690 194 690 C152 690 91 683 70 677 L55 633 C91 643 141 652 187 652 C230 652 257 638 257 607 L257 548 L190 538 C121 527 39 493 39 430 C39 382 75 352 126 352 C163 352 204 369 258 402 L258 385 C258 360 272 351 291 351 C306 351 331 355 349 361 L355 398 C333 391 317 386 307 386 L307 386 Z M80 435 C80 473 132 501 192 506 L257 511 L257 435 C208 403 163 389 136 389 C99 389 80 407 80 435 L80 435 Z " />
<glyph glyph-name="guillemotleft" unicode="&#xab;" horiz-adv-x="512" d="M203 411 L57 240 L57 231 L203 60 L256 60 L107 236 L256 411 L203 411 Z M461 411 L408 411 L262 240 L262 231 L408 60 L461 60 L312 236 L461 411 Z " />
<glyph glyph-name="logicalnot" unicode="&#xac;" horiz-adv-x="540" d="M490 412 L50 412 L50 377 L455 377 L455 132 L490 132 L490 412 Z " />
<glyph glyph-name="registered" unicode="&#xae;" horiz-adv-x="525" d="M263 690 C153 690 64 605 64 492 C64 379 153 294 263 294 C372 294 461 379 461 492 C461 605 372 690 263 690 L263 690 Z M263 330 C174 330 103 399 103 492 C103 585 174 654 263 654 C351 654 422 585 422 492 C422 399 351 330 263 330 L263 330 Z M339 540 C339 570 317 596 267 596 L191 596 L191 401 L227 401 L227 476 L267 472 L315 401 L359 401 L359 403 L304 482 C329 495 339 517 339 540 L339 540 Z M227 562 L266 562 C284 562 301 553 301 535 C301 518 290 508 274 503 L227 506 L227 562 Z " />
<glyph glyph-name="degree" unicode="&#xb0;" horiz-adv-x="330" d="M165 412 C242 412 305 473 305 551 C305 629 242 690 165 690 C88 690 25 629 25 551 C25 473 88 412 165 412 L165 412 Z M165 449 C113 449 69 489 69 551 C69 613 113 653 165 653 C217 653 261 613 261 551 C261 489 217 449 165 449 L165 449 Z " />
<glyph glyph-name="acute" unicode="&#xb4;" horiz-adv-x="330" d="M268 670 C200 637 124 607 40 580 L40 577 L50 547 L53 547 C140 570 219 597 290 626 L273 670 L268 670 Z " />
<glyph glyph-name="paragraph" unicode="&#xb6;" horiz-adv-x="547" d="M61 474 C61 377 116 300 202 300 C233 300 262 309 283 321 L283 130 C283 -22 257 -91 167 -184 L185 -201 C287 -125 328 -8 328 130 L328 680 L260 688 C142 665 61 591 61 474 L61 474 Z M385 680 L385 0 L425 0 L425 680 L385 680 Z " />
<glyph glyph-name="periodcentered" unicode="&#xb7;" horiz-adv-x="257" d="M127 200 C155 200 172 214 172 243 C172 269 155 283 131 283 C102 283 85 266 85 238 C85 212 102 200 127 200 L127 200 Z " />
<glyph glyph-name="cedilla" unicode="&#xb8;" horiz-adv-x="260" d="M122 -53 L145 0 L107 0 L76 -74 L77 -75 C155 -106 177 -119 177 -141 C177 -161 156 -177 119 -177 C95 -177 67 -171 40 -160 L48 -204 C63 -209 93 -213 111 -213 C172 -213 220 -179 220 -138 C220 -100 188 -77 122 -53 L122 -53 Z " />
<glyph glyph-name="ordmasculine" unicode="&#xba;" horiz-adv-x="444" d="M213 349 C260 349 304 366 335 396 C365 425 385 471 385 528 C385 631 317 690 228 690 C180 690 137 673 103 636 C73 603 59 564 59 515 C59 406 136 349 213 349 L213 349 Z M221 388 C145 388 100 438 100 525 C100 601 150 652 221 652 C300 652 343 605 343 516 C343 441 293 388 221 388 L221 388 Z " />
<glyph glyph-name="guillemotright" unicode="&#xbb;" horiz-adv-x="512" d="M57 412 L206 237 L57 61 L110 61 L256 232 L256 241 L110 412 L57 412 Z M315 412 L262 412 L411 237 L262 61 L315 61 L461 232 L461 241 L315 412 Z " />
<glyph glyph-name="onequarter" unicode="&#xbc;" horiz-adv-x="836" d="M240 270 L240 675 L222 684 C175 662 111 628 54 607 L73 580 C120 594 157 611 206 637 L206 270 L240 270 Z M563 680 L232 0 L273 0 L604 680 L563 680 Z M797 136 C777 136 756 136 736 135 L736 406 L707 413 L498 135 L515 100 L699 100 L699 -2 L736 -2 L736 100 L797 100 L797 136 Z M539 135 L699 347 L699 135 L539 135 Z " />
<glyph glyph-name="onehalf" unicode="&#xbd;" horiz-adv-x="836" d="M240 270 L240 675 L222 684 C175 662 111 628 54 607 L73 580 C120 594 157 611 206 637 L206 270 L240 270 Z M563 680 L232 0 L273 0 L604 680 L563 680 Z M562 32 L644 119 C707 185 775 235 775 310 C775 369 730 413 645 413 C605 413 565 404 542 392 L534 352 C563 369 608 379 640 379 C693 379 735 353 735 308 C735 251 686 214 618 140 L517 30 L529 -2 L771 -2 L782 42 C744 37 669 33 562 32 L562 32 Z " />
<glyph glyph-name="threequarters" unicode="&#xbe;" horiz-adv-x="836" d="M316 398 C316 445 281 490 204 496 C265 516 296 559 296 597 C296 645 255 685 180 685 C138 685 99 677 74 667 L67 630 C97 642 136 651 173 651 C224 651 256 629 256 589 C256 551 215 515 123 503 L125 469 C214 475 276 452 276 392 C276 346 228 299 156 299 C126 299 87 304 48 322 L59 278 C85 269 124 265 150 265 C247 265 316 325 316 398 L316 398 Z M563 680 L232 0 L273 0 L604 680 L563 680 Z M797 136 C777 136 756 136 736 135 L736 406 L707 413 L498 135 L515 100 L699 100 L699 -2 L736 -2 L736 100 L797 100 L797 136 Z M539 135 L699 347 L699 135 L539 135 Z " />
<glyph glyph-name="questiondown" unicode="&#xbf;" horiz-adv-x="468" d="M251 391 C281 391 297 408 297 437 C297 465 281 474 255 474 C227 474 210 460 210 431 C210 402 226 391 251 391 L251 391 Z M244 -190 C150 -190 92 -146 92 -72 C92 3 153 71 276 160 L276 308 L236 307 L236 177 C109 84 52 12 52 -81 C52 -160 115 -227 241 -227 C296 -227 359 -214 399 -197 L407 -152 C356 -176 297 -190 244 -190 L244 -190 Z " />
<glyph glyph-name="Agrave" unicode="&#xc0;" horiz-adv-x="658" d="M426 763 L436 793 L436 796 C356 821 280 851 208 886 L203 886 L186 842 C261 811 340 784 423 763 L426 763 Z M562 119 L345 686 L297 680 L47 0 L91 0 L189 269 L461 269 L522 107 C540 60 555 25 572 -11 L614 3 C595 41 577 79 562 119 L562 119 Z M202 307 L323 639 L447 307 L202 307 Z " />
<glyph glyph-name="Aacute" unicode="&#xc1;" horiz-adv-x="658" d="M210 763 C297 786 376 813 447 842 L430 886 L425 886 C357 853 281 823 197 796 L197 793 L207 763 L210 763 Z M562 119 L345 686 L297 680 L47 0 L91 0 L189 269 L461 269 L522 107 C540 60 555 25 572 -11 L614 3 C595 41 577 79 562 119 L562 119 Z M202 307 L323 639 L447 307 L202 307 Z " />
<glyph glyph-name="Acircumflex" unicode="&#xc2;" horiz-adv-x="658" d="M210 747 L320 859 C354 820 393 784 436 747 L439 747 L461 770 L461 773 C412 820 365 869 333 906 L308 906 L183 769 L183 766 L207 747 L210 747 Z M562 119 L345 686 L297 680 L47 0 L91 0 L189 269 L461 269 L522 107 C540 60 555 25 572 -11 L614 3 C595 41 577 79 562 119 L562 119 Z M202 307 L323 639 L447 307 L202 307 Z " />
<glyph glyph-name="Atilde" unicode="&#xc3;" horiz-adv-x="658" d="M265 808 C309 808 337 753 383 753 C412 753 443 775 475 832 L444 853 C426 820 409 798 384 798 C345 798 311 852 262 852 C228 852 200 827 168 778 L196 751 C221 792 242 808 265 808 L265 808 Z M562 119 L345 686 L297 680 L47 0 L91 0 L189 269 L461 269 L522 107 C540 60 555 25 572 -11 L614 3 C595 41 577 79 562 119 L562 119 Z M202 307 L323 639 L447 307 L202 307 Z " />
<glyph glyph-name="Adieresis" unicode="&#xc4;" horiz-adv-x="658" d="M258 785 C278 785 296 799 296 821 C296 843 282 854 262 854 C241 854 225 841 225 816 C225 796 239 785 258 785 L258 785 Z M380 785 C400 785 418 799 418 821 C418 843 404 854 384 854 C363 854 347 841 347 816 C347 796 361 785 380 785 L380 785 Z M562 119 L345 686 L297 680 L47 0 L91 0 L189 269 L461 269 L522 107 C540 60 555 25 572 -11 L614 3 C595 41 577 79 562 119 L562 119 Z M202 307 L323 639 L447 307 L202 307 Z " />
<glyph glyph-name="Aring" unicode="&#xc5;" horiz-adv-x="658" d="M323 747 C369 747 405 777 405 826 C405 876 369 906 323 906 C276 906 239 876 239 826 C239 777 276 747 323 747 L323 747 Z M324 878 C350 878 373 859 373 826 C373 793 350 775 324 775 C294 775 271 793 271 826 C271 859 294 878 324 878 L324 878 Z M562 119 L345 686 L297 680 L47 0 L91 0 L189 269 L461 269 L522 107 C540 60 555 25 572 -11 L614 3 C595 41 577 79 562 119 L562 119 Z M202 307 L323 639 L447 307 L202 307 Z " />
<glyph glyph-name="AE" unicode="&#xc6;" horiz-adv-x="878" d="M486 38 L486 360 L775 360 L777 398 L486 398 L486 642 L804 642 L807 680 L464 680 L422 684 L24 0 L68 0 L207 239 L446 239 L446 0 L822 0 L826 38 L486 38 Z M229 277 L446 649 L446 277 L229 277 Z " />
<glyph glyph-name="Ccedilla" unicode="&#xc7;" horiz-adv-x="603" d="M534 22 L546 70 C478 40 429 29 371 29 C232 29 123 115 123 321 C123 526 249 652 393 652 C436 652 486 643 520 630 L532 675 C504 684 457 690 409 690 C310 690 233 649 179 592 C116 526 82 425 82 315 C82 105 193 1 336 -9 L309 -74 L310 -75 C388 -106 410 -119 410 -141 C410 -161 389 -177 352 -177 C328 -177 300 -171 273 -160 L281 -204 C296 -209 326 -213 344 -213 C405 -213 453 -179 453 -138 C453 -100 421 -77 355 -53 L374 -10 C432 -8 502 4 534 22 L534 22 Z " />
<glyph glyph-name="Egrave" unicode="&#xc8;" horiz-adv-x="554" d="M402 763 L412 793 L412 796 C332 821 256 851 184 886 L179 886 L162 842 C237 811 316 784 399 763 L402 763 Z M162 38 L162 352 L451 352 L453 390 L162 390 L162 642 L480 642 L483 680 L122 680 L122 0 L498 0 L502 38 L162 38 Z " />
<glyph glyph-name="Eacute" unicode="&#xc9;" horiz-adv-x="554" d="M186 763 C273 786 352 813 423 842 L406 886 L401 886 C333 853 257 823 173 796 L173 793 L183 763 L186 763 Z M162 38 L162 352 L451 352 L453 390 L162 390 L162 642 L480 642 L483 680 L122 680 L122 0 L498 0 L502 38 L162 38 Z " />
<glyph glyph-name="Ecircumflex" unicode="&#xca;" horiz-adv-x="554" d="M186 747 L296 859 C330 820 369 784 412 747 L415 747 L437 770 L437 773 C388 820 341 869 309 906 L284 906 L159 769 L159 766 L183 747 L186 747 Z M162 38 L162 352 L451 352 L453 390 L162 390 L162 642 L480 642 L483 680 L122 680 L122 0 L498 0 L502 38 L162 38 Z " />
<glyph glyph-name="Edieresis" unicode="&#xcb;" horiz-adv-x="554" d="M234 785 C254 785 272 799 272 821 C272 843 258 854 238 854 C217 854 201 841 201 816 C201 796 215 785 234 785 L234 785 Z M356 785 C376 785 394 799 394 821 C394 843 380 854 360 854 C339 854 323 841 323 816 C323 796 337 785 356 785 L356 785 Z M162 38 L162 352 L451 352 L453 390 L162 390 L162 642 L480 642 L483 680 L122 680 L122 0 L498 0 L502 38 L162 38 Z " />
<glyph glyph-name="Igrave" unicode="&#xcc;" horiz-adv-x="284" d="M63 886 L58 886 L37 842 C86 815 138 790 193 767 L196 767 L210 796 L210 799 C158 826 109 855 63 886 L63 886 Z M122 0 L162 0 L162 680 L122 680 L122 0 Z " />
<glyph glyph-name="Iacute" unicode="&#xcd;" horiz-adv-x="284" d="M231 886 C185 855 136 826 84 799 L84 796 L98 767 L101 767 C156 790 208 815 257 842 L236 886 L231 886 Z M122 0 L162 0 L162 680 L122 680 L122 0 Z " />
<glyph glyph-name="Icircumflex" unicode="&#xce;" horiz-adv-x="284" d="M153 906 L129 906 L28 769 L28 766 L50 747 L53 747 L140 857 C168 819 197 786 233 747 L235 747 L256 770 L256 773 C211 820 176 873 153 906 L153 906 Z M122 0 L162 0 L162 680 L122 680 L122 0 Z " />
<glyph glyph-name="Idieresis" unicode="&#xcf;" horiz-adv-x="284" d="M78 785 C98 785 116 799 116 821 C116 843 102 854 82 854 C61 854 45 841 45 816 C45 796 59 785 78 785 L78 785 Z M200 785 C220 785 238 799 238 821 C238 843 224 854 204 854 C183 854 167 841 167 816 C167 796 181 785 200 785 L200 785 Z M122 0 L162 0 L162 680 L122 680 L122 0 Z " />
<glyph glyph-name="Eth" unicode="&#xd0;" horiz-adv-x="710" d="M275 680 L122 680 L122 372 L42 372 L42 334 L122 334 L122 0 L282 0 C454 0 628 132 628 355 C628 568 512 680 275 680 L275 680 Z M307 38 L162 38 L162 334 L347 334 L347 372 L162 372 L162 642 L278 642 C485 642 588 542 588 357 C588 168 465 54 307 38 L307 38 Z " />
<glyph glyph-name="Ntilde" unicode="&#xd1;" horiz-adv-x="754" d="M320 808 C364 808 392 753 438 753 C467 753 498 775 530 832 L499 853 C481 820 464 798 439 798 C400 798 366 852 317 852 C283 852 255 827 223 778 L251 751 C276 792 297 808 320 808 L320 808 Z M592 679 L592 78 L150 682 L122 680 L122 0 L162 0 L162 601 L602 -4 L632 1 L632 682 L592 679 Z " />
<glyph glyph-name="Ograve" unicode="&#xd2;" horiz-adv-x="736" d="M458 763 L461 763 L471 793 L471 796 C391 821 315 851 243 886 L238 886 L221 842 C296 811 375 784 458 763 L458 763 Z M364 -11 C440 -11 526 18 579 83 C624 138 654 235 654 347 C654 569 537 691 373 691 C286 691 209 657 154 585 C105 521 82 439 82 339 C82 100 214 -11 364 -11 L364 -11 Z M371 26 C218 26 123 150 123 341 C123 530 216 654 372 654 C511 654 614 555 614 346 C614 152 526 26 371 26 L371 26 Z " />
<glyph glyph-name="Oacute" unicode="&#xd3;" horiz-adv-x="736" d="M460 886 C392 853 316 823 232 796 L232 793 L242 763 L245 763 C332 786 411 813 482 842 L465 886 L460 886 Z M364 -11 C440 -11 526 18 579 83 C624 138 654 235 654 347 C654 569 537 691 373 691 C286 691 209 657 154 585 C105 521 82 439 82 339 C82 100 214 -11 364 -11 L364 -11 Z M371 26 C218 26 123 150 123 341 C123 530 216 654 372 654 C511 654 614 555 614 346 C614 152 526 26 371 26 L371 26 Z " />
<glyph glyph-name="Ocircumflex" unicode="&#xd4;" horiz-adv-x="736" d="M245 747 L355 859 C389 820 428 784 471 747 L474 747 L496 770 L496 773 C447 820 400 869 368 906 L343 906 L218 769 L218 766 L242 747 L245 747 Z M373 691 C286 691 209 657 154 585 C105 521 82 439 82 339 C82 100 214 -11 364 -11 C440 -11 526 18 579 83 C624 138 654 235 654 347 C654 569 537 691 373 691 L373 691 Z M371 26 C218 26 123 150 123 341 C123 530 216 654 372 654 C511 654 614 555 614 346 C614 152 526 26 371 26 L371 26 Z " />
<glyph glyph-name="Otilde" unicode="&#xd5;" horiz-adv-x="736" d="M231 751 C256 792 277 808 300 808 C344 808 372 753 418 753 C447 753 478 775 510 832 L479 853 C461 820 444 798 419 798 C380 798 346 852 297 852 C263 852 235 827 203 778 L231 751 Z M364 -11 C440 -11 526 18 579 83 C624 138 654 235 654 347 C654 569 537 691 373 691 C286 691 209 657 154 585 C105 521 82 439 82 339 C82 100 214 -11 364 -11 L364 -11 Z M371 26 C218 26 123 150 123 341 C123 530 216 654 372 654 C511 654 614 555 614 346 C614 152 526 26 371 26 L371 26 Z " />
<glyph glyph-name="Odieresis" unicode="&#xd6;" horiz-adv-x="736" d="M293 785 C313 785 331 799 331 821 C331 843 317 854 297 854 C276 854 260 841 260 816 C260 796 274 785 293 785 L293 785 Z M415 785 C435 785 453 799 453 821 C453 843 439 854 419 854 C398 854 382 841 382 816 C382 796 396 785 415 785 L415 785 Z M364 -11 C440 -11 526 18 579 83 C624 138 654 235 654 347 C654 569 537 691 373 691 C286 691 209 657 154 585 C105 521 82 439 82 339 C82 100 214 -11 364 -11 L364 -11 Z M371 26 C218 26 123 150 123 341 C123 530 216 654 372 654 C511 654 614 555 614 346 C614 152 526 26 371 26 L371 26 Z " />
<glyph glyph-name="multiply" unicode="&#xd7;" horiz-adv-x="540" d="M488 477 L463 502 L270 310 L77 502 L52 478 L245 285 L52 93 L77 68 L270 260 L463 68 L488 92 L295 285 L488 477 Z " />
<glyph glyph-name="Oslash" unicode="&#xd8;" horiz-adv-x="736" d="M569 609 L640 722 L611 739 L544 632 C498 671 439 691 373 691 C286 691 209 657 154 585 C105 521 82 439 82 339 C82 206 123 113 185 56 L101 -78 L131 -95 L212 35 C256 4 309 -11 364 -11 C440 -11 526 18 579 83 C624 138 654 235 654 347 C654 462 623 550 569 609 L569 609 Z M123 341 C123 530 216 654 372 654 C431 654 483 636 524 600 L207 92 C153 147 123 233 123 341 L123 341 Z M371 26 C317 26 271 41 233 69 L548 575 C589 524 614 448 614 346 C614 152 526 26 371 26 L371 26 Z " />
<glyph glyph-name="Ugrave" unicode="&#xd9;" horiz-adv-x="660" d="M436 763 L439 763 L449 793 L449 796 C369 821 293 851 221 886 L216 886 L199 842 C274 811 353 784 436 763 L436 763 Z M318 -10 C377 -10 437 6 481 45 C520 80 548 128 548 198 L548 680 L508 680 L508 193 C508 107 439 28 329 28 C239 28 162 66 162 181 L162 680 L122 680 L122 170 C122 57 198 -10 318 -10 L318 -10 Z " />
<glyph glyph-name="Uacute" unicode="&#xda;" horiz-adv-x="660" d="M438 886 C370 853 294 823 210 796 L210 793 L220 763 L223 763 C310 786 389 813 460 842 L443 886 L438 886 Z M318 -10 C377 -10 437 6 481 45 C520 80 548 128 548 198 L548 680 L508 680 L508 193 C508 107 439 28 329 28 C239 28 162 66 162 181 L162 680 L122 680 L122 170 C122 57 198 -10 318 -10 L318 -10 Z " />
<glyph glyph-name="Ucircumflex" unicode="&#xdb;" horiz-adv-x="660" d="M223 747 L333 859 C367 820 406 784 449 747 L452 747 L474 770 L474 773 C425 820 378 869 346 906 L321 906 L196 769 L196 766 L220 747 L223 747 Z M508 680 L508 193 C508 107 439 28 329 28 C239 28 162 66 162 181 L162 680 L122 680 L122 170 C122 57 198 -10 318 -10 C377 -10 437 6 481 45 C520 80 548 128 548 198 L548 680 L508 680 Z " />
<glyph glyph-name="Udieresis" unicode="&#xdc;" horiz-adv-x="660" d="M271 785 C291 785 309 799 309 821 C309 843 295 854 275 854 C254 854 238 841 238 816 C238 796 252 785 271 785 L271 785 Z M393 785 C413 785 431 799 431 821 C431 843 417 854 397 854 C376 854 360 841 360 816 C360 796 374 785 393 785 L393 785 Z M318 -10 C377 -10 437 6 481 45 C520 80 548 128 548 198 L548 680 L508 680 L508 193 C508 107 439 28 329 28 C239 28 162 66 162 181 L162 680 L122 680 L122 170 C122 57 198 -10 318 -10 L318 -10 Z " />
<glyph glyph-name="Thorn" unicode="&#xde;" horiz-adv-x="545" d="M249 546 C220 546 191 543 162 535 L162 680 L122 680 L122 0 L162 0 L162 178 C181 174 226 168 260 168 C320 168 375 180 419 217 C461 253 484 316 484 369 C484 483 402 546 249 546 L249 546 Z M268 206 C237 206 188 212 162 217 L162 500 C204 510 242 513 264 512 C389 508 443 459 443 363 C443 268 379 206 268 206 L268 206 Z " />
<glyph glyph-name="germandbls" unicode="&#xdf;" horiz-adv-x="542" d="M314 -11 C372 -11 412 3 441 27 C471 52 485 88 485 122 C485 193 429 226 367 263 C308 298 259 330 259 371 C259 442 365 462 365 574 C365 634 322 687 235 687 C144 687 80 632 80 504 L80 0 L120 0 L120 505 C120 606 164 650 235 650 C296 650 327 619 327 572 C327 481 217 446 217 368 C217 302 277 269 330 236 C398 194 444 166 444 114 C444 63 399 26 327 26 C281 26 238 40 194 70 L202 18 C229 1 267 -11 314 -11 L314 -11 Z " />
<glyph glyph-name="agrave" unicode="&#xe0;" horiz-adv-x="467" d="M321 547 L331 577 L331 580 C251 605 175 635 103 670 L98 670 L81 626 C156 595 235 568 318 547 L321 547 Z M376 27 C363 27 363 38 363 41 L363 384 C363 438 324 474 240 474 C187 474 113 462 88 452 L70 404 C120 424 184 437 233 437 C292 437 323 418 323 376 L323 268 L259 260 C187 251 132 233 97 202 C68 176 53 140 53 100 C53 30 97 -9 161 -9 C205 -9 252 10 324 48 L324 35 C324 19 328 -11 363 -11 C381 -11 410 -3 430 7 L436 48 C409 36 388 27 376 27 L376 27 Z M93 105 C93 173 145 215 265 224 L323 229 L323 83 C262 48 204 28 165 28 C117 28 93 59 93 105 L93 105 Z " />
<glyph glyph-name="aacute" unicode="&#xe1;" horiz-adv-x="467" d="M105 547 C192 570 271 597 342 626 L325 670 L320 670 C252 637 176 607 92 580 L92 577 L102 547 L105 547 Z M376 27 C363 27 363 38 363 41 L363 384 C363 438 324 474 240 474 C187 474 113 462 88 452 L70 404 C120 424 184 437 233 437 C292 437 323 418 323 376 L323 268 L259 260 C187 251 132 233 97 202 C68 176 53 140 53 100 C53 30 97 -9 161 -9 C205 -9 252 10 324 48 L324 35 C324 19 328 -11 363 -11 C381 -11 410 -3 430 7 L436 48 C409 36 388 27 376 27 L376 27 Z M93 105 C93 173 145 215 265 224 L323 229 L323 83 C262 48 204 28 165 28 C117 28 93 59 93 105 L93 105 Z " />
<glyph glyph-name="acircumflex" unicode="&#xe2;" horiz-adv-x="467" d="M105 531 L215 643 C249 604 288 568 331 531 L334 531 L356 554 L356 557 C307 604 260 653 228 690 L203 690 L78 553 L78 550 L102 531 L105 531 Z M376 27 C363 27 363 38 363 41 L363 384 C363 438 324 474 240 474 C187 474 113 462 88 452 L70 404 C120 424 184 437 233 437 C292 437 323 418 323 376 L323 268 L259 260 C187 251 132 233 97 202 C68 176 53 140 53 100 C53 30 97 -9 161 -9 C205 -9 252 10 324 48 L324 35 C324 19 328 -11 363 -11 C381 -11 410 -3 430 7 L436 48 C409 36 388 27 376 27 L376 27 Z M93 105 C93 173 145 215 265 224 L323 229 L323 83 C262 48 204 28 165 28 C117 28 93 59 93 105 L93 105 Z " />
<glyph glyph-name="atilde" unicode="&#xe3;" horiz-adv-x="467" d="M160 622 C204 622 232 567 278 567 C307 567 338 589 370 646 L339 667 C321 634 304 612 279 612 C240 612 206 666 157 666 C123 666 95 641 63 592 L91 565 C116 606 137 622 160 622 L160 622 Z M376 27 C363 27 363 38 363 41 L363 384 C363 438 324 474 240 474 C187 474 113 462 88 452 L70 404 C120 424 184 437 233 437 C292 437 323 418 323 376 L323 268 L259 260 C187 251 132 233 97 202 C68 176 53 140 53 100 C53 30 97 -9 161 -9 C205 -9 252 10 324 48 L324 35 C324 19 328 -11 363 -11 C381 -11 410 -3 430 7 L436 48 C409 36 388 27 376 27 L376 27 Z M93 105 C93 173 145 215 265 224 L323 229 L323 83 C262 48 204 28 165 28 C117 28 93 59 93 105 L93 105 Z " />
<glyph glyph-name="adieresis" unicode="&#xe4;" horiz-adv-x="467" d="M156 599 C176 599 194 613 194 635 C194 657 180 668 160 668 C139 668 123 655 123 630 C123 610 137 599 156 599 L156 599 Z M272 599 C292 599 310 613 310 635 C310 657 296 668 276 668 C255 668 239 655 239 630 C239 610 253 599 272 599 L272 599 Z M376 27 C363 27 363 38 363 41 L363 384 C363 438 324 474 240 474 C187 474 113 462 88 452 L70 404 C120 424 184 437 233 437 C292 437 323 418 323 376 L323 268 L259 260 C187 251 132 233 97 202 C68 176 53 140 53 100 C53 30 97 -9 161 -9 C205 -9 252 10 324 48 L324 35 C324 19 328 -11 363 -11 C381 -11 410 -3 430 7 L436 48 C409 36 388 27 376 27 L376 27 Z M93 105 C93 173 145 215 265 224 L323 229 L323 83 C262 48 204 28 165 28 C117 28 93 59 93 105 L93 105 Z " />
<glyph glyph-name="aring" unicode="&#xe5;" horiz-adv-x="467" d="M218 531 C264 531 300 561 300 610 C300 660 264 690 218 690 C171 690 134 660 134 610 C134 561 171 531 218 531 L218 531 Z M219 662 C245 662 268 643 268 610 C268 577 245 559 219 559 C189 559 166 577 166 610 C166 643 189 662 219 662 L219 662 Z M376 27 C363 27 363 38 363 41 L363 384 C363 438 324 474 240 474 C187 474 113 462 88 452 L70 404 C120 424 184 437 233 437 C292 437 323 418 323 376 L323 268 L259 260 C187 251 132 233 97 202 C68 176 53 140 53 100 C53 30 97 -9 161 -9 C205 -9 252 10 324 48 L324 35 C324 19 328 -11 363 -11 C381 -11 410 -3 430 7 L436 48 C409 36 388 27 376 27 L376 27 Z M93 105 C93 173 145 215 265 224 L323 229 L323 83 C262 48 204 28 165 28 C117 28 93 59 93 105 L93 105 Z " />
<glyph glyph-name="ae" unicode="&#xe6;" horiz-adv-x="739" d="M535 27 C442 27 365 81 365 218 L365 229 C365 241 366 253 367 264 L631 266 L631 265 L631 266 L671 266 C675 280 677 299 677 320 C677 399 628 470 530 470 C455 470 394 431 363 365 L363 384 C363 438 324 474 240 474 C187 474 113 462 88 452 L70 404 C120 424 183 437 237 437 C292 437 324 417 324 376 L323 266 L247 256 C190 249 138 231 103 202 C70 174 53 139 53 98 C53 30 97 -9 161 -9 C207 -9 276 8 355 81 C389 23 448 -10 528 -10 C581 -10 629 6 656 23 L672 71 L669 71 C637 47 585 27 535 27 L535 27 Z M520 433 C605 433 637 379 637 307 L637 299 L372 298 C394 391 460 433 520 433 L520 433 Z M631 265 L629 261 C630 262 630 264 631 265 L631 265 Z M168 28 C117 28 93 57 93 102 C93 170 153 212 248 221 L324 228 C323 223 323 218 323 212 C323 177 328 145 338 117 C292 52 207 28 168 28 L168 28 Z " />
<glyph glyph-name="ccedilla" unicode="&#xe7;" horiz-adv-x="441" d="M375 21 L391 69 L388 69 C354 46 301 26 250 26 C167 26 104 74 104 217 C104 364 172 433 276 433 C311 433 350 426 370 415 L385 452 C357 464 319 470 285 470 C217 470 160 444 122 399 C82 351 64 283 64 207 C64 59 138 -7 232 -11 L206 -74 L207 -75 C285 -106 307 -119 307 -141 C307 -161 286 -177 249 -177 C225 -177 197 -171 170 -160 L178 -204 C193 -209 223 -213 241 -213 C302 -213 350 -179 350 -138 C350 -100 318 -77 252 -53 L271 -9 C311 -5 353 7 375 21 L375 21 Z " />
<glyph glyph-name="egrave" unicode="&#xe8;" horiz-adv-x="478" d="M344 547 L354 577 L354 580 C274 605 198 635 126 670 L121 670 L104 626 C179 595 258 568 341 547 L344 547 Z M279 27 C187 27 106 81 106 218 C106 236 107 249 109 264 L411 266 C414 279 416 295 416 315 C416 401 364 474 266 474 C211 474 155 448 117 398 C81 355 64 292 64 220 C64 78 144 -10 273 -10 C325 -10 374 6 400 23 L416 71 L413 71 C381 47 329 27 279 27 L279 27 Z M257 437 C342 437 376 380 376 303 L376 299 L114 298 C133 395 198 437 257 437 L257 437 Z " />
<glyph glyph-name="eacute" unicode="&#xe9;" horiz-adv-x="478" d="M128 547 C215 570 294 597 365 626 L348 670 L343 670 C275 637 199 607 115 580 L115 577 L125 547 L128 547 Z M279 27 C187 27 106 81 106 218 C106 236 107 249 109 264 L411 266 C414 279 416 295 416 315 C416 401 364 474 266 474 C211 474 155 448 117 398 C81 355 64 292 64 220 C64 78 144 -10 273 -10 C325 -10 374 6 400 23 L416 71 L413 71 C381 47 329 27 279 27 L279 27 Z M257 437 C342 437 376 380 376 303 L376 299 L114 298 C133 395 198 437 257 437 L257 437 Z " />
<glyph glyph-name="ecircumflex" unicode="&#xea;" horiz-adv-x="478" d="M128 531 L238 643 C272 604 311 568 354 531 L357 531 L379 554 L379 557 C330 604 283 653 251 690 L226 690 L101 553 L101 550 L125 531 L128 531 Z M279 27 C187 27 106 81 106 218 C106 236 107 249 109 264 L411 266 C414 279 416 295 416 315 C416 401 364 474 266 474 C211 474 155 448 117 398 C81 355 64 292 64 220 C64 78 144 -10 273 -10 C325 -10 374 6 400 23 L416 71 L413 71 C381 47 329 27 279 27 L279 27 Z M257 437 C342 437 376 380 376 303 L376 299 L114 298 C133 395 198 437 257 437 L257 437 Z " />
<glyph glyph-name="edieresis" unicode="&#xeb;" horiz-adv-x="478" d="M179 599 C199 599 217 613 217 635 C217 657 203 668 183 668 C162 668 146 655 146 630 C146 610 160 599 179 599 L179 599 Z M295 599 C315 599 333 613 333 635 C333 657 319 668 299 668 C278 668 262 655 262 630 C262 610 276 599 295 599 L295 599 Z M279 27 C187 27 106 81 106 218 C106 236 107 249 109 264 L411 266 C414 279 416 295 416 315 C416 401 364 474 266 474 C211 474 155 448 117 398 C81 355 64 292 64 220 C64 78 144 -10 273 -10 C325 -10 374 6 400 23 L416 71 L413 71 C381 47 329 27 279 27 L279 27 Z M257 437 C342 437 376 380 376 303 L376 299 L114 298 C133 395 198 437 257 437 L257 437 Z " />
<glyph glyph-name="igrave" unicode="&#xec;" horiz-adv-x="220" d="M33 670 L28 670 L7 626 C56 599 108 574 163 551 L166 551 L180 580 L180 583 C128 610 79 639 33 670 L33 670 Z M90 0 L130 0 L130 466 L90 461 L90 0 Z " />
<glyph glyph-name="iacute" unicode="&#xed;" horiz-adv-x="220" d="M201 670 C155 639 106 610 54 583 L54 580 L68 551 L71 551 C126 574 178 599 227 626 L206 670 L201 670 Z M90 0 L130 0 L130 466 L90 461 L90 0 Z " />
<glyph glyph-name="icircumflex" unicode="&#xee;" horiz-adv-x="220" d="M123 690 L99 690 L-2 553 L-2 550 L20 531 L23 531 L110 641 C138 603 167 570 203 531 L205 531 L226 554 L226 557 C181 604 146 657 123 690 L123 690 Z M90 0 L130 0 L130 466 L90 461 L90 0 Z " />
<glyph glyph-name="idieresis" unicode="&#xef;" horiz-adv-x="220" d="M73 599 C91 599 107 613 107 635 C107 657 95 668 77 668 C58 668 43 655 43 630 C43 610 56 599 73 599 L73 599 Z M157 599 C175 599 191 613 191 635 C191 657 179 668 161 668 C142 668 127 655 127 630 C127 610 140 599 157 599 L157 599 Z M90 0 L130 0 L130 466 L90 461 L90 0 Z " />
<glyph glyph-name="eth" unicode="&#xf0;" horiz-adv-x="495" d="M308 598 L411 648 L399 676 L285 621 C261 644 233 667 200 689 L152 680 C190 654 222 629 249 603 L122 542 L134 514 L272 581 C313 539 341 497 360 451 C335 465 301 474 260 474 C142 474 64 363 64 222 C64 69 143 -11 238 -11 C290 -11 341 13 376 56 C409 97 431 167 431 259 C431 384 406 494 308 598 L308 598 Z M248 26 C158 26 106 105 106 228 C106 350 169 437 259 437 C309 437 352 418 374 398 C385 352 389 300 389 259 C389 118 326 26 248 26 L248 26 Z " />
<glyph glyph-name="ntilde" unicode="&#xf1;" horiz-adv-x="517" d="M134 565 C159 606 180 622 203 622 C247 622 275 567 321 567 C350 567 381 589 413 646 L382 667 C364 634 347 612 322 612 C283 612 249 666 200 666 C166 666 138 641 106 592 L134 565 Z M95 0 L135 0 L135 382 C179 417 231 436 277 436 C347 436 385 403 385 337 L385 0 L425 0 L425 347 C425 425 374 473 289 473 C240 473 187 460 138 424 L135 424 L135 472 L95 466 L95 335 L95 0 Z " />
<glyph glyph-name="ograve" unicode="&#xf2;" horiz-adv-x="525" d="M364 547 L367 547 L377 577 L377 580 C297 605 221 635 149 670 L144 670 L127 626 C202 595 281 568 364 547 L364 547 Z M253 -11 C309 -11 363 13 401 55 C437 95 461 160 461 241 C461 390 377 474 269 474 C210 474 155 446 118 401 C84 360 64 297 64 226 C64 69 161 -11 253 -11 L253 -11 Z M260 26 C164 26 106 107 106 238 C106 355 172 437 263 437 C364 437 419 362 419 229 C419 116 353 26 260 26 L260 26 Z " />
<glyph glyph-name="oacute" unicode="&#xf3;" horiz-adv-x="525" d="M366 670 C298 637 222 607 138 580 L138 577 L148 547 L151 547 C238 570 317 597 388 626 L371 670 L366 670 Z M253 -11 C309 -11 363 13 401 55 C437 95 461 160 461 241 C461 390 377 474 269 474 C210 474 155 446 118 401 C84 360 64 297 64 226 C64 69 161 -11 253 -11 L253 -11 Z M260 26 C164 26 106 107 106 238 C106 355 172 437 263 437 C364 437 419 362 419 229 C419 116 353 26 260 26 L260 26 Z " />
<glyph glyph-name="ocircumflex" unicode="&#xf4;" horiz-adv-x="525" d="M274 690 L249 690 L124 553 L124 550 L148 531 L151 531 L261 643 C295 604 334 568 377 531 L380 531 L402 554 L402 557 C353 604 306 653 274 690 L274 690 Z M253 -11 C309 -11 363 13 401 55 C437 95 461 160 461 241 C461 390 377 474 269 474 C210 474 155 446 118 401 C84 360 64 297 64 226 C64 69 161 -11 253 -11 L253 -11 Z M260 26 C164 26 106 107 106 238 C106 355 172 437 263 437 C364 437 419 362 419 229 C419 116 353 26 260 26 L260 26 Z " />
<glyph glyph-name="otilde" unicode="&#xf5;" horiz-adv-x="525" d="M137 565 C162 606 183 622 206 622 C250 622 278 567 324 567 C353 567 384 589 416 646 L385 667 C367 634 350 612 325 612 C286 612 252 666 203 666 C169 666 141 641 109 592 L137 565 Z M253 -11 C309 -11 363 13 401 55 C437 95 461 160 461 241 C461 390 377 474 269 474 C210 474 155 446 118 401 C84 360 64 297 64 226 C64 69 161 -11 253 -11 L253 -11 Z M260 26 C164 26 106 107 106 238 C106 355 172 437 263 437 C364 437 419 362 419 229 C419 116 353 26 260 26 L260 26 Z " />
<glyph glyph-name="odieresis" unicode="&#xf6;" horiz-adv-x="525" d="M202 599 C222 599 240 613 240 635 C240 657 226 668 206 668 C185 668 169 655 169 630 C169 610 183 599 202 599 L202 599 Z M318 599 C338 599 356 613 356 635 C356 657 342 668 322 668 C301 668 285 655 285 630 C285 610 299 599 318 599 L318 599 Z M253 -11 C309 -11 363 13 401 55 C437 95 461 160 461 241 C461 390 377 474 269 474 C210 474 155 446 118 401 C84 360 64 297 64 226 C64 69 161 -11 253 -11 L253 -11 Z M260 26 C164 26 106 107 106 238 C106 355 172 437 263 437 C364 437 419 362 419 229 C419 116 353 26 260 26 L260 26 Z " />
<glyph glyph-name="divide" unicode="&#xf7;" horiz-adv-x="540" d="M269 439 C297 439 314 453 314 482 C314 508 297 522 273 522 C244 522 227 505 227 477 C227 451 244 439 269 439 L269 439 Z M55 277 L484 277 L484 312 L55 312 L55 277 Z M269 65 C297 65 314 79 314 108 C314 134 297 148 273 148 C244 148 227 131 227 103 C227 77 244 65 269 65 L269 65 Z " />
<glyph glyph-name="oslash" unicode="&#xf8;" horiz-adv-x="525" d="M389 430 L432 513 L402 528 L362 449 C335 466 303 474 269 474 C210 474 155 446 118 401 C84 360 64 297 64 226 C64 132 99 65 147 27 L93 -78 L124 -92 L175 9 C200 -4 227 -11 253 -11 C309 -11 363 13 401 55 C437 95 461 160 461 241 C461 326 433 391 389 430 L389 430 Z M106 238 C106 355 172 437 263 437 C295 437 322 430 344 415 L165 62 C127 98 106 159 106 238 L106 238 Z M260 26 C235 26 212 32 192 42 L371 393 C402 358 419 302 419 229 C419 116 353 26 260 26 L260 26 Z " />
<glyph glyph-name="ugrave" unicode="&#xf9;" horiz-adv-x="512" d="M356 546 L359 546 L369 576 L369 579 C289 604 213 634 141 669 L136 669 L119 625 C194 594 273 567 356 546 L356 546 Z M417 464 L377 464 L377 72 C334 44 277 28 227 28 C170 28 132 61 132 127 L132 464 L92 464 L92 117 C92 39 143 -9 224 -9 C274 -9 320 7 374 35 L377 35 L377 -8 L417 -2 L417 129 L417 464 Z " />
<glyph glyph-name="uacute" unicode="&#xfa;" horiz-adv-x="512" d="M358 669 C290 636 214 606 130 579 L130 576 L140 546 L143 546 C230 569 309 596 380 625 L363 669 L358 669 Z M417 464 L377 464 L377 72 C334 44 277 28 227 28 C170 28 132 61 132 127 L132 464 L92 464 L92 117 C92 39 143 -9 224 -9 C274 -9 320 7 374 35 L377 35 L377 -8 L417 -2 L417 129 L417 464 Z " />
<glyph glyph-name="ucircumflex" unicode="&#xfb;" horiz-adv-x="512" d="M266 689 L241 689 L116 552 L116 549 L140 530 L143 530 L253 642 C287 603 326 567 369 530 L372 530 L394 553 L394 556 C345 603 298 652 266 689 L266 689 Z M417 464 L377 464 L377 72 C334 44 277 28 227 28 C170 28 132 61 132 127 L132 464 L92 464 L92 117 C92 39 143 -9 224 -9 C274 -9 320 7 374 35 L377 35 L377 -8 L417 -2 L417 129 L417 464 Z " />
<glyph glyph-name="udieresis" unicode="&#xfc;" horiz-adv-x="512" d="M194 598 C214 598 232 612 232 634 C232 656 218 667 198 667 C177 667 161 654 161 629 C161 609 175 598 194 598 L194 598 Z M310 598 C330 598 348 612 348 634 C348 656 334 667 314 667 C293 667 277 654 277 629 C277 609 291 598 310 598 L310 598 Z M417 464 L377 464 L377 72 C334 44 277 28 227 28 C170 28 132 61 132 127 L132 464 L92 464 L92 117 C92 39 143 -9 224 -9 C274 -9 320 7 374 35 L377 35 L377 -8 L417 -2 L417 129 L417 464 Z " />
<glyph glyph-name="thorn" unicode="&#xfe;" horiz-adv-x="483" d="M258 472 C204 472 163 453 122 423 L119 423 L119 694 L84 680 L80 -191 L120 -183 L120 2 C147 -5 181 -11 208 -11 C258 -11 305 3 352 51 C391 91 425 161 425 253 C425 378 368 472 258 472 L258 472 Z M214 26 C183 26 145 36 120 47 L120 387 C162 419 205 435 253 435 C337 435 387 367 387 247 C387 110 301 26 214 26 L214 26 Z " />
<glyph glyph-name="dotlessi" unicode="&#x131;" horiz-adv-x="220" d="M90 0 L130 0 L130 466 L90 461 L90 0 Z " />
<glyph glyph-name="OE" unicode="&#x152;" horiz-adv-x="860" d="M487 38 L487 352 L757 352 L759 390 L487 390 L487 642 L786 642 L789 680 L393 680 C192 680 82 548 82 337 C82 108 214 0 383 0 L804 0 L808 38 L487 38 Z M389 37 C218 37 123 157 123 346 C123 521 216 643 380 643 L447 643 L447 37 L389 37 Z " />
<glyph glyph-name="oe" unicode="&#x153;" horiz-adv-x="815" d="M611 27 C518 27 441 81 441 218 L441 229 C441 241 442 253 443 264 L707 266 L707 265 L707 266 L747 266 C751 280 753 299 753 320 C753 399 701 470 595 470 C540 470 492 445 455 398 C443 383 432 367 424 348 C396 430 333 474 259 474 C140 474 64 367 64 226 C64 69 156 -11 243 -11 C295 -11 346 13 381 55 C395 70 407 89 416 111 C446 36 511 -10 604 -10 C657 -10 705 6 732 23 L748 71 L745 71 C713 47 661 27 611 27 L611 27 Z M250 26 C160 26 106 107 106 238 C106 355 168 437 253 437 C348 437 399 362 399 229 C399 116 337 26 250 26 L250 26 Z M590 433 C678 433 713 379 713 307 L713 299 L448 298 C469 391 531 433 590 433 L590 433 Z M707 265 L705 261 C706 262 706 264 707 265 L707 265 Z " />
<glyph glyph-name="Utilde" unicode="&#x168;" horiz-adv-x="660" d="M209 751 C234 792 255 808 278 808 C322 808 350 753 396 753 C425 753 456 775 488 832 L457 853 C439 820 422 798 397 798 C358 798 324 852 275 852 C241 852 213 827 181 778 L209 751 Z M318 -10 C377 -10 437 6 481 45 C520 80 548 128 548 198 L548 680 L508 680 L508 193 C508 107 439 28 329 28 C239 28 162 66 162 181 L162 680 L122 680 L122 170 C122 57 198 -10 318 -10 L318 -10 Z " />
<glyph glyph-name="utilde" unicode="&#x169;" horiz-adv-x="512" d="M129 564 C154 605 175 621 198 621 C242 621 270 566 316 566 C345 566 376 588 408 645 L377 666 C359 633 342 611 317 611 C278 611 244 665 195 665 C161 665 133 640 101 591 L129 564 Z M417 464 L377 464 L377 72 C334 44 277 28 227 28 C170 28 132 61 132 127 L132 464 L92 464 L92 117 C92 39 143 -9 224 -9 C274 -9 320 7 374 35 L377 35 L377 -8 L417 -2 L417 129 L417 464 Z " />
<glyph glyph-name="uni0237" unicode="&#x237;" horiz-adv-x="234" d="M57 -190 C85 -188 102 -180 117 -168 C132 -155 137 -133 137 -112 L137 472 L97 466 L97 -116 C97 -140 87 -149 65 -149 C47 -149 28 -145 12 -140 L3 -179 L57 -190 Z " />
<glyph glyph-name="circumflex" unicode="&#x2c6;" horiz-adv-x="358" d="M190 690 L165 690 L40 553 L40 550 L64 531 L67 531 L177 643 C211 604 250 568 293 531 L296 531 L318 554 L318 557 C269 604 222 653 190 690 L190 690 Z " />
<glyph glyph-name="dotaccent" unicode="&#x2d9;" horiz-adv-x="185" d="M90 599 C110 599 128 613 128 635 C128 657 114 668 94 668 C73 668 57 655 57 630 C57 610 71 599 90 599 L90 599 Z " />
<glyph glyph-name="ring" unicode="&#x2da;" horiz-adv-x="290" d="M146 531 C192 531 228 561 228 610 C228 660 192 690 146 690 C99 690 62 660 62 610 C62 561 99 531 146 531 L146 531 Z M147 559 C117 559 94 577 94 610 C94 643 117 662 147 662 C173 662 196 643 196 610 C196 577 173 559 147 559 L147 559 Z " />
<glyph glyph-name="tilde" unicode="&#x2dc;" horiz-adv-x="387" d="M68 565 C93 606 114 622 137 622 C181 622 209 567 255 567 C284 567 315 589 347 646 L316 667 C298 634 281 612 256 612 C217 612 183 666 134 666 C100 666 72 641 40 592 L68 565 Z " />
<glyph glyph-name="gravecomb" unicode="&#x300;" d="M-53 547 L-50 547 L-40 577 L-40 580 C-120 605 -196 635 -268 670 L-273 670 L-290 626 C-215 595 -136 568 -53 547 L-53 547 Z " />
<glyph glyph-name="acutecomb" unicode="&#x301;" d="M-59 670 C-127 637 -203 607 -287 580 L-287 577 L-277 547 L-274 547 C-187 570 -108 597 -37 626 L-54 670 L-59 670 Z " />
<glyph glyph-name="uni0302" unicode="&#x302;" d="M-188 690 L-213 690 L-338 553 L-338 550 L-314 531 L-311 531 L-201 643 C-167 604 -128 568 -85 531 L-82 531 L-60 554 L-60 557 C-109 604 -156 653 -188 690 L-188 690 Z " />
<glyph glyph-name="tildecomb" unicode="&#x303;" d="M-319 565 C-294 606 -273 622 -250 622 C-206 622 -178 567 -132 567 C-103 567 -72 589 -40 646 L-71 667 C-89 634 -106 612 -131 612 C-170 612 -204 666 -253 666 C-287 666 -315 641 -347 592 L-319 565 Z " />
<glyph glyph-name="uni0307" unicode="&#x307;" d="M-95 599 C-75 599 -57 613 -57 635 C-57 657 -71 668 -91 668 C-112 668 -128 655 -128 630 C-128 610 -114 599 -95 599 L-95 599 Z " />
<glyph glyph-name="uni0308" unicode="&#x308;" d="M-194 599 C-174 599 -156 613 -156 635 C-156 657 -170 668 -190 668 C-211 668 -227 655 -227 630 C-227 610 -213 599 -194 599 L-194 599 Z M-78 599 C-58 599 -40 613 -40 635 C-40 657 -54 668 -74 668 C-95 668 -111 655 -111 630 C-111 610 -97 599 -78 599 L-78 599 Z " />
<glyph glyph-name="uni030A" unicode="&#x30a;" d="M-144 531 C-98 531 -62 561 -62 610 C-62 660 -98 690 -144 690 C-191 690 -228 660 -228 610 C-228 561 -191 531 -144 531 L-144 531 Z M-143 559 C-173 559 -196 577 -196 610 C-196 643 -173 662 -143 662 C-117 662 -94 643 -94 610 C-94 577 -117 559 -143 559 L-143 559 Z " />
<glyph glyph-name="uni0327" unicode="&#x327;" d="M-177 -53 L-154 0 L-192 0 L-223 -74 L-222 -75 C-144 -106 -122 -119 -122 -141 C-122 -161 -143 -177 -180 -177 C-204 -177 -232 -171 -259 -160 L-251 -204 C-236 -209 -206 -213 -188 -213 C-127 -213 -79 -179 -79 -138 C-79 -100 -111 -77 -177 -53 L-177 -53 Z " />
<glyph glyph-name="endash" unicode="&#x2013;" horiz-adv-x="340" d="M36 258 L304 258 L304 296 L36 296 L36 258 Z " />
<glyph glyph-name="emdash" unicode="&#x2014;" horiz-adv-x="588" d="M36 258 L552 258 L552 296 L36 296 L36 258 Z " />
<glyph glyph-name="quoteleft" unicode="&#x2018;" horiz-adv-x="245" d="M177 690 C129 649 95 601 95 543 C95 515 98 485 110 452 L162 459 C147 492 142 524 142 552 C142 597 165 636 202 671 L177 690 Z " />
<glyph glyph-name="quoteright" unicode="&#x2019;" horiz-adv-x="245" d="M68 472 C116 513 150 561 150 619 C150 647 147 677 135 710 L83 703 C98 670 103 638 103 610 C103 565 80 526 43 491 L68 472 Z " />
<glyph glyph-name="quotesinglbase" unicode="&#x201a;" horiz-adv-x="202" d="M50 -128 C98 -87 132 -39 132 19 C132 47 129 77 117 110 L65 103 C80 70 85 38 85 10 C85 -35 62 -74 25 -109 L50 -128 Z " />
<glyph glyph-name="quotedblleft" unicode="&#x201c;" horiz-adv-x="400" d="M177 690 C129 649 95 601 95 543 C95 515 98 485 110 452 L162 459 C147 492 142 524 142 552 C142 597 165 636 202 671 L177 690 Z M332 690 C284 649 250 601 250 543 C250 515 253 485 265 452 L317 459 C302 492 297 524 297 552 C297 597 320 636 357 671 L332 690 Z " />
<glyph glyph-name="quotedblright" unicode="&#x201d;" horiz-adv-x="400" d="M68 449 C116 490 150 538 150 596 C150 624 147 654 135 687 L83 680 C98 647 103 615 103 587 C103 542 80 503 43 468 L68 449 Z M223 449 C271 490 305 538 305 596 C305 624 302 654 290 687 L238 680 C253 647 258 615 258 587 C258 542 235 503 198 468 L223 449 Z " />
<glyph glyph-name="quotedblbase" unicode="&#x201e;" horiz-adv-x="357" d="M50 -128 C98 -87 132 -39 132 19 C132 47 129 77 117 110 L65 103 C80 70 85 38 85 10 C85 -35 62 -74 25 -109 L50 -128 Z M205 -128 C253 -87 287 -39 287 19 C287 47 284 77 272 110 L220 103 C235 70 240 38 240 10 C240 -35 217 -74 180 -109 L205 -128 Z " />
<glyph glyph-name="bullet" unicode="&#x2022;" horiz-adv-x="351" d="M176 255 C231 255 266 293 266 342 C266 391 231 429 176 429 C122 429 85 391 85 342 C85 293 122 255 176 255 L176 255 Z " />
<glyph glyph-name="ellipsis" unicode="&#x2026;" horiz-adv-x="586" d="M127 -10 C155 -10 172 4 172 33 C172 59 155 73 131 73 C102 73 85 56 85 28 C85 2 102 -10 127 -10 L127 -10 Z M294 -10 C322 -10 339 4 339 33 C339 59 322 73 298 73 C269 73 252 56 252 28 C252 2 269 -10 294 -10 L294 -10 Z M456 -10 C484 -10 501 4 501 33 C501 59 484 73 460 73 C431 73 414 56 414 28 C414 2 431 -10 456 -10 L456 -10 Z " />
<glyph glyph-name="guilsinglleft" unicode="&#x2039;" horiz-adv-x="307" d="M256 411 L203 411 L57 240 L57 231 L203 60 L256 60 L107 236 L256 411 Z " />
<glyph glyph-name="guilsinglright" unicode="&#x203a;" horiz-adv-x="307" d="M110 412 L57 412 L206 237 L57 61 L110 61 L256 232 L256 241 L110 412 Z " />
<glyph glyph-name="fraction" unicode="&#x2044;" horiz-adv-x="82" d="M-145 0 L-104 0 L227 680 L186 680 L-145 0 Z " />
<glyph glyph-name="Euro" unicode="&#x20ac;" horiz-adv-x="580" d="M518 70 C467 41 421 29 367 29 C259 29 176 97 157 258 L489 258 L490 296 L155 296 L155 323 C155 351 157 376 160 398 L492 398 L492 436 L167 436 C199 572 287 652 384 652 C422 652 468 643 498 630 L509 675 C485 684 439 690 399 690 C311 690 243 649 195 592 C161 551 136 497 123 436 L51 436 L51 398 L116 398 C112 371 110 343 110 315 L110 296 L51 296 L51 258 L113 258 C130 75 230 -10 354 -10 C409 -10 477 3 509 22 L521 70 L518 70 Z " />
<glyph glyph-name="trademark" unicode="&#x2122;" horiz-adv-x="829" d="M306 680 L43 680 L40 644 L152 644 L152 319 L193 319 L193 644 L304 644 L306 680 Z M739 322 L714 679 L665 680 L545 359 L442 678 L386 680 L354 319 L393 319 L417 640 L522 318 L567 318 L681 621 L701 318 L739 322 Z " />
<glyph glyph-name="oneeighth" unicode="&#x215b;" horiz-adv-x="836" d="M240 270 L240 675 L222 684 C175 662 111 628 54 607 L73 580 C120 594 157 611 206 637 L206 270 L240 270 Z M563 680 L232 0 L273 0 L604 680 L563 680 Z M688 216 C742 242 767 282 767 323 C767 376 720 416 653 416 C575 416 528 361 528 310 C528 262 560 235 604 213 C545 187 514 143 514 97 C514 37 561 -8 641 -8 C723 -8 781 48 781 111 C781 163 743 191 688 216 L688 216 Z M566 315 C566 350 601 384 649 384 C692 384 729 357 729 318 C729 288 704 253 653 231 C602 253 566 276 566 315 L566 315 Z M647 26 C588 26 555 59 555 103 C555 138 578 174 638 199 C639 198 641 198 642 197 C700 174 741 153 741 107 C741 62 697 26 647 26 L647 26 Z " />
<glyph glyph-name="threeeighths" unicode="&#x215c;" horiz-adv-x="836" d="M316 398 C316 445 281 490 204 496 C265 516 296 559 296 597 C296 645 255 685 180 685 C138 685 99 677 74 667 L67 630 C97 642 136 651 173 651 C224 651 256 629 256 589 C256 551 215 515 123 503 L125 469 C214 475 276 452 276 392 C276 346 228 299 156 299 C126 299 87 304 48 322 L59 278 C85 269 124 265 150 265 C247 265 316 325 316 398 L316 398 Z M563 680 L232 0 L273 0 L604 680 L563 680 Z M688 216 C742 242 767 282 767 323 C767 376 720 416 653 416 C575 416 528 361 528 310 C528 262 560 235 604 213 C545 187 514 143 514 97 C514 37 561 -8 641 -8 C723 -8 781 48 781 111 C781 163 743 191 688 216 L688 216 Z M566 315 C566 350 601 384 649 384 C692 384 729 357 729 318 C729 288 704 253 653 231 C602 253 566 276 566 315 L566 315 Z M647 26 C588 26 555 59 555 103 C555 138 578 174 638 199 C639 198 641 198 642 197 C700 174 741 153 741 107 C741 62 697 26 647 26 L647 26 Z " />
<glyph glyph-name="fiveeighths" unicode="&#x215d;" horiz-adv-x="836" d="M563 680 L232 0 L273 0 L604 680 L563 680 Z M320 409 C320 468 267 525 172 525 C153 525 129 522 110 518 L130 645 L296 645 L296 679 L99 679 L71 503 L96 479 C117 486 143 491 164 491 C236 491 280 453 280 402 C280 349 230 299 158 299 C126 299 92 304 57 321 L68 276 C91 269 125 264 154 264 C251 264 320 331 320 409 L320 409 Z M688 216 C742 242 767 282 767 323 C767 376 720 416 653 416 C575 416 528 361 528 310 C528 262 560 235 604 213 C545 187 514 143 514 97 C514 37 561 -8 641 -8 C723 -8 781 48 781 111 C781 163 743 191 688 216 L688 216 Z M566 315 C566 350 601 384 649 384 C692 384 729 357 729 318 C729 288 704 253 653 231 C602 253 566 276 566 315 L566 315 Z M647 26 C588 26 555 59 555 103 C555 138 578 174 638 199 C639 198 641 198 642 197 C700 174 741 153 741 107 C741 62 697 26 647 26 L647 26 Z " />
<glyph glyph-name="seveneighths" unicode="&#x215e;" horiz-adv-x="836" d="M563 680 L232 0 L273 0 L604 680 L563 680 Z M319 679 L57 679 L50 642 C125 644 210 645 279 646 C208 527 150 413 93 270 L134 270 C183 401 255 537 325 655 L319 679 Z M688 216 C742 242 767 282 767 323 C767 376 720 416 653 416 C575 416 528 361 528 310 C528 262 560 235 604 213 C545 187 514 143 514 97 C514 37 561 -8 641 -8 C723 -8 781 48 781 111 C781 163 743 191 688 216 L688 216 Z M566 315 C566 350 601 384 649 384 C692 384 729 357 729 318 C729 288 704 253 653 231 C602 253 566 276 566 315 L566 315 Z M647 26 C588 26 555 59 555 103 C555 138 578 174 638 199 C639 198 641 198 642 197 C700 174 741 153 741 107 C741 62 697 26 647 26 L647 26 Z " />
<glyph glyph-name="minus" unicode="&#x2212;" horiz-adv-x="540" d="M56 277 L485 277 L485 312 L56 312 L56 277 Z " />
<glyph glyph-name="uniF8FF" unicode="&#xf8ff;" horiz-adv-x="676" d="M639 -127 C646 -123 652 -120 652 -113 C664 -95 646 -63 643 -63 C612 -42 582 -20 552 7 C551 8 551 11 552 13 C552 16 553 22 549 24 C531 43 514 60 496 76 C481 96 469 116 456 136 C443 157 424 187 415 198 C408 208 378 247 367 262 C353 280 334 304 318 313 C304 321 261 348 244 372 C237 383 227 425 228 443 C230 461 234 471 234 471 C240 485 246 495 253 507 C260 516 270 524 270 536 C268 542 274 552 266 557 C264 557 261 554 261 554 C260 567 264 579 267 590 C270 597 265 605 265 613 C267 618 278 625 271 627 C264 630 271 640 264 640 C257 641 258 654 251 651 C237 641 216 613 214 614 C211 615 215 640 217 653 C216 659 208 656 203 655 C196 653 191 656 189 655 C188 654 169 631 168 630 L160 601 C159 597 158 591 157 597 C156 605 165 629 167 646 C165 648 162 647 161 647 C158 645 150 640 148 638 C145 635 140 623 140 623 C140 620 140 610 137 612 C133 616 137 624 137 627 C137 627 136 630 131 630 C126 630 126 631 124 631 C122 623 117 614 115 610 C110 601 103 591 103 583 C102 580 99 583 98 583 C98 583 89 587 89 580 C89 576 90 573 92 570 C94 566 103 559 102 550 C102 550 99 549 97 547 C93 540 112 505 118 494 C118 493 115 493 115 493 C104 493 64 475 57 468 C49 464 33 447 21 437 C19 434 19 428 22 430 C30 437 59 458 92 466 C125 475 138 453 138 453 C138 453 154 430 137 383 C127 347 113 318 115 273 C119 220 146 187 168 164 C189 142 252 74 261 65 C271 56 278 37 283 31 C288 24 295 16 303 10 C304 6 304 1 304 -4 C304 -9 295 -59 294 -60 C292 -63 285 -63 285 -63 C272 -59 258 -54 244 -52 C240 -52 236 -60 231 -66 C226 -71 235 -76 227 -83 C226 -84 227 -88 227 -88 C227 -88 229 -88 231 -86 C234 -83 237 -84 237 -84 C266 -93 300 -87 303 -87 C305 -86 319 -94 319 -94 L358 -114 C361 -116 364 -123 369 -118 C372 -114 366 -110 366 -110 C365 -107 345 -94 334 -87 C328 -80 322 -71 314 -66 C313 -61 321 -40 323 -32 C325 -23 325 -6 330 6 C334 11 342 16 351 20 C368 13 384 7 396 4 C402 1 406 1 411 -1 C411 -4 410 -7 410 -10 C410 -10 407 -29 407 -32 L403 -37 C402 -41 394 -40 394 -40 C381 -35 368 -31 354 -27 C349 -30 345 -37 341 -41 C335 -46 344 -53 337 -58 C335 -59 335 -63 337 -65 C337 -65 338 -65 340 -62 C342 -58 347 -60 347 -60 C375 -69 398 -62 411 -63 L428 -71 C441 -78 454 -84 467 -93 C470 -93 475 -100 478 -96 C480 -91 477 -89 475 -87 C472 -84 454 -71 443 -63 C437 -56 431 -46 423 -41 C422 -39 424 -37 424 -35 C424 -33 432 -8 432 -8 L432 -7 C450 -14 463 -19 469 -24 C485 -36 502 -45 515 -61 C539 -83 559 -103 587 -118 C611 -136 632 -131 639 -127 L639 -127 Z " />
<glyph glyph-name="fi" unicode="&#xfb01;" horiz-adv-x="529" d="M160 606 C160 632 178 648 201 648 C218 648 239 646 276 641 L283 682 L212 687 C192 687 171 682 151 664 C130 646 120 625 120 597 L120 464 L33 464 L30 428 L120 428 L120 0 L160 0 L160 428 L279 428 L286 464 L160 464 L160 606 Z M419 668 C398 668 382 655 382 630 C382 610 396 599 415 599 C435 599 453 613 453 635 C453 657 439 668 419 668 L419 668 Z M399 0 L439 0 L439 466 L399 461 L399 0 Z " />
<glyph glyph-name="fl" unicode="&#xfb02;" horiz-adv-x="519" d="M399 681 L399 0 L439 0 L439 688 L399 681 Z M160 606 C160 632 178 648 201 648 C218 648 239 646 276 641 L283 682 L212 687 C192 687 171 682 151 664 C130 646 120 625 120 597 L120 464 L33 464 L30 428 L120 428 L120 0 L160 0 L160 428 L279 428 L286 464 L160 464 L160 606 Z " />
</font>
</svg>
