<?xml version="1.0" encoding="UTF-8"?>
<svg xmlns="http://www.w3.org/2000/svg" xmlns:xlink="http://www.w3.org/1999/xlink" version="1.2" >
<font id="Reserva Sans Light">
<font-face  font-family="Reserva Sans" units-per-em="1000" ascent="780" descent="-220" font-style="normal" font-weight="300" font-stretch="normal" cap-height="680" x-height="465" underline-position="-75" underline-thickness="50" />
<missing-glyph  horiz-adv-x="500" d="M410 780 L93 780 L93 -220 L410 -220 L410 780 Z M333 713 L333 680 L267 680 L267 643 L333 643 L333 610 L167 610 L167 643 L233 643 L233 680 L168 680 L168 713 L333 713 Z M267 584 L267 514 L333 514 L333 480 L167 480 L167 584 L267 584 Z M233 550 L200 550 L200 514 L233 514 L233 550 Z M333 453 L333 420 L267 420 L267 350 L167 350 L167 383 L233 383 L233 420 L167 420 L167 453 L333 453 Z M333 393 L333 293 L167 293 L167 327 L300 327 L300 393 L333 393 Z M333 271 L333 158 L167 158 L167 271 L200 271 L200 191 L300 191 L300 238 L267 238 L267 215 L233 215 L233 271 L333 271 Z M333 98 L333 -15 L167 -15 L167 98 L333 98 Z M300 65 L200 65 L200 18 L300 18 L300 65 Z M333 -38 L333 -71 L301 -71 L231 -118 L333 -118 L333 -151 L167 -151 L167 -118 L237 -71 L167 -71 L167 -38 L333 -38 Z " />
<glyph glyph-name="NULL" d="" />
<glyph glyph-name="CR" unicode="&#xd;" horiz-adv-x="250" d="" />
<glyph glyph-name="space" unicode="&#x20;" horiz-adv-x="208" d="" />
<glyph glyph-name="exclam" unicode="&#x21;" horiz-adv-x="313" d="M133 150 L181 150 L188 680 L127 680 L133 150 Z M156 -10 C189 -10 209 6 209 41 C209 73 188 89 160 89 C125 89 104 68 104 36 C104 5 125 -10 156 -10 L156 -10 Z " />
<glyph glyph-name="quotedbl" unicode="&#x22;" horiz-adv-x="347" d="M71 452 L113 452 L142 658 L142 680 L71 680 L71 452 Z M216 452 L258 452 L287 658 L287 680 L216 680 L216 452 Z " />
<glyph glyph-name="numbersign" unicode="&#x23;" horiz-adv-x="524" d="M532 441 L532 484 L415 484 L452 680 L402 680 L365 484 L220 484 L257 680 L207 680 L170 484 L22 484 L22 441 L162 441 L127 254 L-8 254 L-8 210 L119 210 L79 0 L129 0 L169 210 L314 210 L274 0 L324 0 L364 210 L507 210 L507 254 L372 254 L407 441 L532 441 Z M322 254 L177 254 L212 441 L357 441 L322 254 Z " />
<glyph glyph-name="dollar" unicode="&#x24;" horiz-adv-x="580" d="M168 500 C168 556 235 596 320 596 C364 596 412 588 446 576 L459 637 C428 645 382 651 337 651 L335 651 L339 793 L280 790 L284 647 C246 641 209 628 180 610 C130 578 107 537 107 490 C107 323 430 338 430 192 C430 124 351 77 260 77 C198 77 129 94 86 112 L98 48 C130 35 187 24 246 24 L260 24 L255 -118 L315 -115 L310 30 C358 38 401 56 431 80 C472 113 495 156 495 204 C495 378 168 374 168 500 L168 500 Z " />
<glyph glyph-name="percent" unicode="&#x25;" horiz-adv-x="844" d="M183 262 C229 262 267 289 290 328 C314 370 328 427 328 486 C328 608 274 684 194 684 C148 684 112 659 89 621 C62 577 50 522 50 467 C50 342 104 262 183 262 L183 262 Z M229 0 L282 0 L615 680 L562 680 L229 0 Z M188 308 C133 308 103 373 103 480 C103 573 138 639 189 639 C240 639 275 581 275 475 C275 379 244 308 188 308 L188 308 Z M650 -10 C696 -10 734 17 757 56 C781 98 795 155 795 214 C795 336 741 412 661 412 C615 412 579 387 556 349 C529 305 517 250 517 195 C517 70 571 -10 650 -10 L650 -10 Z M655 36 C600 36 570 101 570 208 C570 301 605 367 656 367 C707 367 742 309 742 203 C742 107 711 36 655 36 L655 36 Z " />
<glyph glyph-name="ampersand" unicode="&#x26;" horiz-adv-x="660" d="M653 44 C599 71 543 104 489 142 C545 216 585 311 596 414 L540 425 C529 324 494 238 447 173 C417 196 388 220 362 245 C327 277 296 311 270 344 C275 347 279 351 284 354 C369 414 451 475 451 559 C451 630 392 686 307 686 C210 686 132 614 132 515 C132 464 155 407 194 350 C119 294 56 232 56 146 C56 60 123 -11 227 -11 C305 -11 385 30 451 98 C507 57 566 19 622 -11 L653 44 Z M191 522 C191 592 242 635 300 635 C349 635 392 601 392 553 C392 496 336 451 250 391 C247 389 244 387 241 384 C209 433 191 480 191 522 L191 522 Z M238 43 C164 43 117 93 117 155 C117 218 162 263 223 310 C250 276 282 242 317 209 C346 181 377 154 410 129 C357 74 295 43 238 43 L238 43 Z " />
<glyph glyph-name="quotesingle" unicode="&#x27;" horiz-adv-x="202" d="M71 452 L113 452 L142 658 L142 680 L71 680 L71 452 Z " />
<glyph glyph-name="parenleft" unicode="&#x28;" horiz-adv-x="328" d="M226 -102 L280 -102 C191 14 146 152 146 289 C146 426 191 563 280 680 L226 680 C133 563 86 426 86 289 C86 152 133 14 226 -102 L226 -102 Z " />
<glyph glyph-name="parenright" unicode="&#x29;" horiz-adv-x="328" d="M102 -102 C195 14 242 152 242 289 C242 426 195 563 102 680 L48 680 C137 563 182 426 182 289 C182 152 137 14 48 -102 L102 -102 Z " />
<glyph glyph-name="asterisk" unicode="&#x2a;" horiz-adv-x="390" d="M368 531 L349 589 L339 585 L211 528 L226 669 L226 680 L166 680 L166 669 L181 528 L51 586 L41 590 L23 532 L33 529 L171 500 L76 396 L70 387 L119 352 L125 360 L196 483 L267 360 L273 351 L322 387 L316 396 L222 500 L357 528 L368 531 Z " />
<glyph glyph-name="plus" unicode="&#x2b;" horiz-adv-x="580" d="M525 337 L316 337 L316 543 L265 543 L265 337 L56 337 L56 286 L265 286 L265 78 L316 78 L316 286 L525 286 L525 337 Z " />
<glyph glyph-name="comma" unicode="&#x2c;" horiz-adv-x="244" d="M74 -130 C127 -87 161 -38 161 22 C161 52 156 84 144 119 L81 110 C95 75 102 42 102 13 C102 -33 79 -72 40 -110 L74 -130 Z " />
<glyph glyph-name="hyphen" unicode="&#x2d;" horiz-adv-x="352" d="M41 249 L312 249 L312 301 L41 301 L41 249 Z " />
<glyph glyph-name="period" unicode="&#x2e;" horiz-adv-x="269" d="M134 -10 C167 -10 187 6 187 41 C187 73 166 89 137 89 C103 89 82 68 82 36 C82 5 102 -10 134 -10 L134 -10 Z " />
<glyph glyph-name="slash" unicode="&#x2f;" horiz-adv-x="319" d="M-22 -189 L31 -189 L312 680 L259 680 L-22 -189 Z " />
<glyph glyph-name="zero" unicode="0" horiz-adv-x="580" d="M282 -12 C358 -12 417 32 451 93 C493 166 511 265 511 363 C511 569 426 690 299 690 C227 690 167 644 132 586 C92 521 69 434 69 323 C69 117 160 -12 282 -12 L282 -12 Z M288 41 C189 41 127 160 127 333 C127 515 196 637 294 637 C385 637 454 539 454 350 C454 172 395 41 288 41 L288 41 Z " />
<glyph glyph-name="one" unicode="1" horiz-adv-x="580" d="M361 690 C277 617 181 547 95 492 L122 450 C196 495 262 541 335 600 L335 0 L393 0 L393 677 L361 690 Z " />
<glyph glyph-name="two" unicode="2" horiz-adv-x="580" d="M139 54 L273 206 C373 319 479 397 479 524 C479 618 412 691 276 691 C211 691 143 674 107 655 L94 592 C144 620 214 638 267 638 C353 638 418 593 418 518 C418 422 335 357 231 239 L69 53 L91 0 L473 0 L492 67 C427 60 305 54 139 54 L139 54 Z " />
<glyph glyph-name="three" unicode="3" horiz-adv-x="580" d="M306 376 C409 406 462 479 462 548 C462 624 395 691 266 691 C210 691 146 678 105 661 L94 602 C144 623 206 638 261 638 C347 638 400 600 400 538 C400 467 332 406 184 387 L187 334 C200 335 217 336 236 336 C343 336 432 298 432 207 C432 123 354 45 230 45 C181 45 128 54 64 82 L81 14 C129 -2 182 -9 224 -9 C386 -9 494 91 494 208 C494 295 432 370 306 376 L306 376 Z " />
<glyph glyph-name="four" unicode="4" horiz-adv-x="580" d="M532 226 C499 226 466 225 433 225 L433 680 L388 691 L45 225 L71 171 L375 171 L375 0 L433 0 L433 171 L532 171 L532 226 Z M105 224 L375 588 L375 225 C285 224 195 224 105 224 L105 224 Z " />
<glyph glyph-name="five" unicode="5" horiz-adv-x="580" d="M264 424 C226 424 190 418 162 412 L196 627 L464 627 L462 681 L147 681 L103 390 L140 351 C175 363 215 371 252 371 C369 371 440 308 440 218 C440 128 359 44 239 44 C186 44 133 54 80 81 L98 10 C133 -3 188 -10 233 -10 C392 -10 503 100 503 227 C503 331 415 424 264 424 L264 424 Z " />
<glyph glyph-name="six" unicode="6" horiz-adv-x="580" d="M302 423 C256 423 201 409 150 372 C192 478 297 603 460 662 L421 700 C196 603 65 417 65 237 C65 158 86 98 126 52 C161 11 215 -12 279 -12 C337 -12 400 11 448 59 C487 99 512 159 512 221 C512 336 425 423 302 423 L302 423 Z M286 41 C199 41 124 103 124 252 C124 270 126 292 131 313 C181 352 239 369 290 370 C380 373 452 308 452 210 C452 119 381 41 286 41 L286 41 Z " />
<glyph glyph-name="seven" unicode="7" horiz-adv-x="580" d="M496 680 L93 680 L80 622 C198 625 318 626 435 627 C320 416 227 204 154 0 L219 0 C295 221 394 433 508 643 L496 680 Z " />
<glyph glyph-name="eight" unicode="8" horiz-adv-x="580" d="M353 363 C442 403 487 469 487 541 C487 629 410 695 299 695 C171 695 94 607 94 520 C94 438 151 394 224 358 C120 313 71 239 71 164 C71 65 148 -10 281 -10 C415 -10 511 81 511 185 C511 275 444 322 353 363 L353 363 Z M154 527 C154 588 209 641 292 641 C366 641 427 597 427 533 C427 479 383 421 300 386 C217 421 154 458 154 527 L154 527 Z M291 44 C193 44 134 97 134 171 C134 238 177 296 274 336 C277 335 280 333 283 332 C381 291 448 256 448 178 C448 102 374 44 291 44 L291 44 Z " />
<glyph glyph-name="nine" unicode="9" horiz-adv-x="580" d="M454 637 C419 678 365 701 301 701 C243 701 180 678 133 630 C93 590 68 530 68 468 C68 353 156 266 278 266 C324 266 379 280 430 317 C389 212 283 87 120 27 L159 -11 C384 86 516 272 516 452 C516 531 494 592 454 637 L454 637 Z M128 479 C128 570 200 648 294 648 C381 648 457 586 457 437 C457 419 454 398 449 376 C399 337 341 320 290 319 C200 316 128 381 128 479 L128 479 Z " />
<glyph glyph-name="colon" unicode="&#x3a;" horiz-adv-x="269" d="M134 304 C167 304 187 320 187 355 C187 387 166 403 137 403 C103 403 82 382 82 350 C82 319 102 304 134 304 L134 304 Z M134 -10 C167 -10 187 6 187 41 C187 73 166 89 137 89 C103 89 82 68 82 36 C82 5 102 -10 134 -10 L134 -10 Z " />
<glyph glyph-name="semicolon" unicode="&#x3b;" horiz-adv-x="246" d="M106 302 C139 302 159 318 159 353 C159 384 138 401 109 401 C75 401 54 380 54 348 C54 317 74 302 106 302 L106 302 Z M74 -130 C127 -87 161 -38 161 22 C161 52 156 84 144 119 L81 110 C95 75 102 42 102 13 C102 -33 79 -72 40 -110 L74 -130 Z " />
<glyph glyph-name="less" unicode="&#x3c;" horiz-adv-x="540" d="M485 431 L467 480 L55 305 L55 260 L467 85 L485 134 L125 283 L485 431 Z " />
<glyph glyph-name="equal" unicode="&#x3d;" horiz-adv-x="540" d="M57 388 L483 388 L483 439 L57 439 L57 388 Z M57 148 L483 148 L483 199 L57 199 L57 148 Z " />
<glyph glyph-name="greater" unicode="&#x3e;" horiz-adv-x="540" d="M73 480 L55 431 L415 283 L55 134 L73 85 L485 260 L485 305 L73 480 Z " />
<glyph glyph-name="question" unicode="&#x3f;" horiz-adv-x="474" d="M220 691 C164 691 100 678 60 661 L50 597 C101 622 160 636 213 636 C301 636 356 597 356 530 C356 461 297 398 174 315 L176 174 L228 174 L232 291 C358 378 417 449 417 542 C417 623 352 691 220 691 L220 691 Z M207 89 C172 89 152 68 152 35 C152 4 171 -10 203 -10 C236 -10 257 6 257 41 C257 74 237 89 207 89 L207 89 Z " />
<glyph glyph-name="at" unicode="&#x40;" horiz-adv-x="800" d="M418 580 C209 580 38 422 38 205 C38 5 177 -128 373 -128 C437 -128 496 -114 539 -96 L564 -37 C511 -66 449 -80 383 -80 C218 -80 93 32 93 213 C93 402 240 534 415 534 C587 534 707 416 707 267 C707 160 658 91 592 91 C558 91 528 109 528 167 C528 179 530 202 532 223 L546 378 C512 403 461 420 413 420 C310 420 221 331 221 205 C221 111 282 48 356 48 C406 48 453 74 483 118 C494 73 528 45 585 45 C684 45 761 134 761 271 C761 448 618 580 418 580 L418 580 Z M369 97 C314 97 280 141 280 213 C280 306 337 372 411 372 C439 372 465 365 487 353 L470 160 C446 120 410 97 369 97 L369 97 Z " />
<glyph glyph-name="A" unicode="A" horiz-adv-x="655" d="M559 146 L357 686 L287 680 L41 0 L102 0 L190 251 L459 251 L501 136 C520 86 540 31 559 -10 L617 6 C598 44 579 91 559 146 L559 146 Z M208 302 L321 625 L440 302 L208 302 Z " />
<glyph glyph-name="B" unicode="B" horiz-adv-x="595" d="M380 377 C446 409 491 464 491 528 C491 613 426 680 287 680 L116 680 L116 0 L316 0 C444 0 531 98 531 199 C531 284 478 356 380 377 L380 377 Z M174 626 L272 626 C384 626 430 587 430 518 C430 462 387 415 311 392 L174 394 L174 626 Z M361 53 L174 53 L174 342 L305 342 C413 337 471 274 471 199 C471 124 428 79 361 53 L361 53 Z " />
<glyph glyph-name="C" unicode="C" horiz-adv-x="610" d="M359 -12 C422 -12 500 3 537 24 L556 90 C500 61 436 43 377 43 C235 43 134 122 134 324 C134 520 251 636 392 636 C439 636 494 624 532 608 L544 672 C515 682 460 690 412 690 C311 690 230 652 173 590 C108 523 75 420 75 311 C75 94 197 -12 359 -12 L359 -12 Z " />
<glyph glyph-name="D" unicode="D" horiz-adv-x="716" d="M288 680 L116 680 L116 0 L287 0 C469 0 641 136 641 356 C641 564 526 680 288 680 L288 680 Z M318 53 L174 53 L174 626 L281 626 C481 626 581 531 581 356 C581 176 467 71 318 53 L318 53 Z " />
<glyph glyph-name="E" unicode="E" horiz-adv-x="549" d="M174 54 L174 343 L448 343 L450 396 L174 396 L174 626 L476 626 L480 680 L116 680 L116 0 L494 0 L498 54 L174 54 Z " />
<glyph glyph-name="F" unicode="F" horiz-adv-x="512" d="M464 626 L465 680 L116 680 L116 0 L174 0 L174 317 L434 317 L435 370 L174 370 L174 626 L464 626 Z " />
<glyph glyph-name="G" unicode="G" horiz-adv-x="661" d="M525 281 L525 61 C488 51 445 44 398 44 C245 44 135 122 135 325 C135 522 265 635 419 635 C468 635 527 625 565 609 L579 673 C547 683 489 690 435 690 C330 690 242 652 179 589 C111 521 75 420 75 314 C75 96 205 -10 381 -10 C449 -10 540 4 580 24 L580 281 L525 281 Z " />
<glyph glyph-name="H" unicode="H" horiz-adv-x="710" d="M536 680 L536 386 L174 386 L174 680 L116 680 L116 0 L174 0 L174 334 L536 334 L536 0 L595 0 L595 680 L536 680 Z " />
<glyph glyph-name="I" unicode="I" horiz-adv-x="286" d="M114 0 L173 0 L173 680 L114 680 L114 0 Z " />
<glyph glyph-name="J" unicode="J" horiz-adv-x="382" d="M49 -8 C119 -3 170 18 209 51 C244 79 267 124 267 189 L267 680 L208 680 L208 180 C208 101 148 56 39 45 L49 -8 Z " />
<glyph glyph-name="K" unicode="K" horiz-adv-x="587" d="M555 -1 L243 344 L535 680 L460 680 L174 341 L174 680 L116 680 L116 0 L174 0 L174 337 L480 -9 L555 -1 Z " />
<glyph glyph-name="L" unicode="L" horiz-adv-x="503" d="M174 54 L174 680 L116 680 L116 0 L458 0 L467 54 L174 54 Z " />
<glyph glyph-name="M" unicode="M" horiz-adv-x="853" d="M767 6 L706 683 L637 680 L429 87 L215 683 L150 680 L83 0 L142 0 L191 589 L401 9 L451 11 L658 588 L710 -3 L767 6 Z " />
<glyph glyph-name="N" unicode="N" horiz-adv-x="755" d="M583 679 L583 112 L159 683 L116 680 L116 0 L173 0 L173 569 L595 -4 L639 4 L639 682 L583 679 Z " />
<glyph glyph-name="O" unicode="O" horiz-adv-x="739" d="M364 -13 C443 -13 529 18 585 85 C634 144 665 239 665 351 C665 568 544 690 377 690 C290 690 213 657 156 589 C101 524 75 439 75 335 C75 98 214 -13 364 -13 L364 -13 Z M371 40 C223 40 134 157 134 342 C134 521 224 637 371 637 C510 637 606 537 606 341 C606 158 519 40 371 40 L371 40 Z " />
<glyph glyph-name="P" unicode="P" horiz-adv-x="552" d="M263 680 L116 680 L116 0 L174 0 L174 296 C196 292 236 287 269 287 C326 287 384 300 428 337 C473 375 497 439 497 497 C497 608 418 680 263 680 L263 680 Z M276 341 C245 341 200 346 174 352 L174 630 C215 630 245 630 272 629 C386 627 436 579 436 488 C436 398 380 341 276 341 L276 341 Z " />
<glyph glyph-name="Q" unicode="Q" horiz-adv-x="731" d="M424 -7 C484 5 543 35 585 85 C634 144 665 239 665 351 C665 568 544 690 377 690 C290 690 213 657 156 589 C101 524 75 439 75 335 C75 103 209 -9 355 -13 C438 -91 547 -152 653 -196 L655 -196 L688 -139 L688 -135 C607 -111 501 -60 424 -7 L424 -7 Z M134 342 C134 521 224 637 371 637 C510 637 606 537 606 341 C606 158 519 40 371 40 C223 40 134 157 134 342 L134 342 Z " />
<glyph glyph-name="R" unicode="R" horiz-adv-x="593" d="M345 321 C416 355 487 420 487 511 C487 612 418 680 277 680 L116 680 L116 0 L174 0 L174 310 L288 305 C345 200 412 100 484 0 L557 0 L557 6 C480 106 403 213 345 321 L345 321 Z M174 626 L254 626 C371 626 428 583 428 504 C428 445 389 391 307 357 L174 362 L174 626 Z " />
<glyph glyph-name="S" unicode="S" horiz-adv-x="519" d="M210 -10 C279 -10 355 11 400 54 C438 88 459 141 459 190 C459 295 365 341 279 385 C205 421 137 454 137 519 C137 587 201 634 292 634 C331 634 377 625 411 611 L423 675 C394 683 352 690 309 690 C250 690 193 674 152 644 C106 610 80 561 80 509 C80 417 163 377 245 337 C324 300 401 262 401 179 C401 98 324 45 226 45 C162 45 96 65 57 83 L68 14 C97 0 148 -10 210 -10 L210 -10 Z " />
<glyph glyph-name="T" unicode="T" horiz-adv-x="499" d="M464 680 L42 680 L36 626 L224 626 L224 0 L282 0 L282 626 L459 626 L464 680 Z " />
<glyph glyph-name="U" unicode="U" horiz-adv-x="666" d="M319 -12 C379 -12 443 5 489 45 C534 83 561 134 561 206 L561 680 L503 680 L503 193 C503 110 436 40 334 40 C245 40 174 77 174 181 L174 680 L116 680 L116 167 C116 54 195 -12 319 -12 L319 -12 Z " />
<glyph glyph-name="V" unicode="V" horiz-adv-x="659" d="M538 680 L323 53 L117 689 L56 680 L285 -6 L359 0 L603 680 L538 680 Z " />
<glyph glyph-name="W" unicode="W" horiz-adv-x="922" d="M805 680 L646 93 L569 396 C552 465 515 593 493 681 L435 678 L269 96 L199 366 C174 461 135 617 116 690 L56 675 C67 641 106 492 137 372 L236 -3 L290 0 L462 584 C478 524 501 441 516 380 L616 -3 L671 0 L866 680 L805 680 Z " />
<glyph glyph-name="X" unicode="X" horiz-adv-x="606" d="M564 7 L339 340 L563 682 L497 682 L308 385 L103 694 L45 671 L271 336 L43 0 L111 0 L303 293 L505 -9 L564 7 Z " />
<glyph glyph-name="Y" unicode="Y" horiz-adv-x="545" d="M448 680 L281 360 L95 689 L35 678 L250 312 L248 0 L309 0 L309 314 L512 680 L448 680 Z " />
<glyph glyph-name="Z" unicode="Z" horiz-adv-x="546" d="M117 53 L487 635 L481 680 L74 680 L59 622 L419 628 L50 43 L62 0 L479 0 L497 56 L117 53 Z " />
<glyph glyph-name="bracketleft" unicode="&#x5b;" horiz-adv-x="328" d="M269 632 L269 680 L98 680 L98 -102 L269 -102 L269 -54 L155 -54 L155 632 L269 632 Z " />
<glyph glyph-name="backslash" unicode="&#x5c;" horiz-adv-x="319" d="M342 -189 L61 680 L7 680 L288 -189 L342 -189 Z " />
<glyph glyph-name="bracketright" unicode="&#x5d;" horiz-adv-x="328" d="M230 680 L59 680 L59 632 L173 632 L173 -54 L59 -54 L59 -102 L230 -102 L230 680 Z " />
<glyph glyph-name="underscore" unicode="&#x5f;" horiz-adv-x="516" d="M0 -158 L516 -158 L516 -106 L0 -106 L0 -158 Z " />
<glyph glyph-name="grave" unicode="&#x60;" horiz-adv-x="338" d="M282 545 L285 545 L298 582 L298 585 C218 611 142 644 67 682 L62 682 L40 623 C118 592 198 565 282 545 L282 545 Z " />
<glyph glyph-name="a" unicode="a" horiz-adv-x="471" d="M387 39 C375 39 374 47 374 52 L374 370 C374 428 339 475 243 475 C189 475 117 464 90 455 L72 394 C122 411 183 422 231 422 C286 422 319 403 319 358 L319 272 L240 259 C174 249 124 230 92 201 C65 176 51 141 51 103 C51 33 95 -9 158 -9 C204 -9 256 14 320 58 L321 38 C321 13 333 -11 365 -11 C386 -11 416 -3 437 5 L445 56 C418 45 397 39 387 39 L387 39 Z M107 111 C107 171 151 207 247 214 L319 220 L319 104 C259 62 207 42 171 42 C129 42 107 70 107 111 L107 111 Z " />
<glyph glyph-name="b" unicode="b" horiz-adv-x="497" d="M271 471 C223 471 184 455 151 428 L136 416 L133 416 L133 688 L78 678 L78 25 C107 6 154 -9 211 -9 C278 -9 333 17 372 59 C414 105 439 172 439 256 C439 389 382 471 271 471 L271 471 Z M224 44 C190 44 155 52 133 62 L133 361 C169 398 211 417 255 417 C332 417 382 355 382 247 C382 111 315 44 224 44 L224 44 Z " />
<glyph glyph-name="c" unicode="c" horiz-adv-x="438" d="M241 -11 C290 -11 348 3 377 22 L395 84 L392 84 C358 61 305 41 255 41 C172 41 114 91 114 219 C114 354 178 420 278 420 C311 420 350 412 370 400 L387 455 C361 466 324 472 287 472 C219 472 159 445 120 398 C78 348 58 282 58 207 C58 60 136 -11 241 -11 L241 -11 Z " />
<glyph glyph-name="d" unicode="d" horiz-adv-x="502" d="M424 114 L424 684 L369 675 L369 463 C347 470 319 474 293 474 C226 474 167 446 126 400 C85 354 58 285 58 196 C58 72 123 -10 226 -10 C284 -10 342 18 372 49 L374 49 C376 30 383 9 389 -8 L442 6 C432 34 424 73 424 114 L424 114 Z M237 41 C163 41 116 93 116 214 C116 353 193 422 279 422 C310 422 342 415 369 403 L369 96 C339 66 293 41 237 41 L237 41 Z " />
<glyph glyph-name="e" unicode="e" horiz-adv-x="477" d="M418 85 C387 62 334 42 284 42 C190 42 117 91 115 220 C115 232 116 242 117 252 L414 253 C417 271 420 297 420 318 C420 406 364 475 266 475 C212 475 156 450 116 401 C77 354 58 291 58 221 C58 78 139 -10 275 -10 C323 -10 376 6 404 25 L421 85 L418 85 Z M256 423 C333 423 369 373 369 299 L122 296 C140 386 200 423 256 423 L256 423 Z " />
<glyph glyph-name="f" unicode="f" horiz-adv-x="308" d="M290 465 L170 465 L170 591 C170 617 187 631 210 631 C229 631 249 628 277 624 L289 684 L226 688 C197 686 175 681 151 660 C123 635 114 608 114 572 L114 465 L33 465 L28 418 L114 418 L114 0 L170 0 L170 418 L282 418 L290 465 Z " />
<glyph glyph-name="g" unicode="g" horiz-adv-x="462" d="M329 74 L182 97 C144 103 129 107 129 118 C129 126 145 140 190 169 C198 168 206 167 215 167 C308 167 391 237 391 325 C391 367 368 410 333 424 L333 427 L425 422 L434 471 L293 471 C205 471 149 451 113 417 C80 386 63 347 63 304 C63 247 96 200 150 179 C82 138 63 118 63 99 C63 77 83 60 140 53 L148 52 C57 7 30 -32 30 -82 C30 -154 113 -201 209 -201 C276 -201 342 -181 386 -149 C426 -120 450 -78 450 -31 C450 23 411 62 329 74 L329 74 Z M120 312 C120 375 160 419 228 419 C296 419 335 379 335 318 C335 261 285 213 226 213 C157 213 120 252 120 312 L120 312 Z M224 -152 C150 -152 87 -117 87 -68 C87 -31 115 0 199 45 L302 30 C358 22 390 -6 390 -45 C390 -101 328 -152 224 -152 L224 -152 Z " />
<glyph glyph-name="h" unicode="h" horiz-adv-x="513" d="M89 0 L144 0 L144 385 C190 410 241 423 285 423 C338 423 373 395 373 334 L373 0 L428 0 L428 343 C428 427 377 475 296 475 C246 475 196 457 144 431 L142 431 L141 688 L89 681 L89 0 Z " />
<glyph glyph-name="i" unicode="i" horiz-adv-x="231" d="M111 590 C136 590 158 608 158 636 C158 663 141 676 116 676 C90 676 70 660 70 629 C70 604 88 590 111 590 L111 590 Z M88 0 L143 0 L143 468 L88 462 L88 0 Z " />
<glyph glyph-name="j" unicode="j" horiz-adv-x="241" d="M118 590 C143 590 165 608 165 636 C165 663 148 676 123 676 C97 676 77 660 77 629 C77 604 95 590 118 590 L118 590 Z M46 -190 C79 -187 101 -176 119 -161 C138 -146 149 -121 149 -94 L149 473 L92 466 L92 -96 C92 -124 78 -136 55 -136 C38 -136 23 -133 6 -128 L-5 -181 L46 -190 Z " />
<glyph glyph-name="k" unicode="k" horiz-adv-x="448" d="M445 0 L210 256 L289 325 C354 381 394 429 417 465 L345 465 C328 437 297 396 244 348 L147 258 L147 689 L92 681 L92 0 L147 0 L147 247 L376 -8 L445 0 Z " />
<glyph glyph-name="l" unicode="l" horiz-adv-x="211" d="M78 0 L133 0 L133 689 L78 681 L78 0 Z " />
<glyph glyph-name="m" unicode="m" horiz-adv-x="732" d="M530 473 C485 473 437 455 386 416 C368 454 328 473 284 473 C244 473 199 456 146 416 L143 416 L140 471 L89 465 C91 419 92 381 92 337 L92 0 L148 0 L148 376 C191 404 233 421 270 421 C312 421 342 401 342 353 L342 0 L397 0 L397 365 C397 370 397 374 396 379 C442 406 483 421 518 421 C559 421 592 402 592 353 L592 0 L647 0 L647 362 C647 438 592 473 530 473 L530 473 Z " />
<glyph glyph-name="n" unicode="n" horiz-adv-x="516" d="M92 0 L147 0 L147 378 C193 407 238 423 282 423 C342 423 376 396 376 333 L376 0 L431 0 L431 344 C431 428 380 475 295 475 C247 475 193 459 147 424 L144 424 C144 432 143 455 141 473 L89 466 C91 421 92 382 92 338 L92 0 Z " />
<glyph glyph-name="o" unicode="o" horiz-adv-x="522" d="M249 -11 C307 -11 363 14 401 56 C440 98 464 163 464 244 C464 392 382 475 269 475 C210 475 153 448 113 400 C77 356 58 295 58 226 C58 69 152 -11 249 -11 L249 -11 Z M261 41 C169 41 115 113 115 240 C115 350 174 423 259 423 C355 423 406 356 406 228 C406 119 348 41 261 41 L261 41 Z " />
<glyph glyph-name="p" unicode="p" horiz-adv-x="495" d="M268 473 C215 473 173 452 138 421 L135 421 L135 420 L131 470 L77 458 C80 419 81 332 81 271 L81 -192 L136 -183 L136 1 C161 -6 192 -11 217 -11 C279 -11 334 14 376 59 C420 105 443 174 443 259 C443 381 380 473 268 473 L268 473 Z M231 41 C196 41 162 49 136 60 L136 379 C171 406 210 422 253 422 C334 422 386 363 386 246 C386 118 317 41 231 41 L231 41 Z " />
<glyph glyph-name="q" unicode="q" horiz-adv-x="501" d="M284 476 C219 476 161 446 122 402 C81 354 58 287 58 206 C58 76 120 -8 226 -8 C282 -8 331 15 366 50 L369 50 L369 -192 L424 -183 L424 440 C392 461 340 476 284 476 L284 476 Z M239 44 C165 44 115 102 115 222 C115 350 177 423 269 423 C307 423 345 415 369 403 L369 115 C334 70 292 44 239 44 L239 44 Z " />
<glyph glyph-name="r" unicode="r" horiz-adv-x="337" d="M103 0 L158 0 L158 337 C200 393 223 407 260 411 L296 405 L309 471 L273 479 C232 473 189 445 154 388 L152 388 C149 418 141 453 135 476 L82 464 C91 430 103 352 103 280 L103 0 Z " />
<glyph glyph-name="s" unicode="s" horiz-adv-x="409" d="M183 -11 C238 -11 285 3 317 29 C347 54 366 90 366 129 C366 197 306 232 225 268 C165 295 121 315 121 358 C121 397 161 422 219 422 C260 422 303 413 333 402 L342 459 C315 467 272 475 231 475 C186 475 142 462 111 438 C81 416 66 382 66 351 C66 287 114 261 188 226 C269 188 312 164 312 119 C312 74 266 42 199 42 C149 42 93 57 43 83 L51 17 C82 1 128 -11 183 -11 L183 -11 Z " />
<glyph glyph-name="t" unicode="t" horiz-adv-x="342" d="M297 71 C260 49 230 40 208 40 C179 40 163 55 163 90 L163 416 L292 416 L295 465 L163 465 L163 598 L108 575 L108 465 L31 465 L27 416 L108 416 L108 81 C108 24 132 -11 193 -11 C227 -11 263 -1 290 13 L300 71 L297 71 Z " />
<glyph glyph-name="u" unicode="u" horiz-adv-x="511" d="M418 465 L364 465 L364 80 C319 56 271 42 226 42 C170 42 140 73 140 132 L140 465 L85 465 L85 121 C85 37 135 -10 216 -10 C265 -10 313 9 362 39 L365 39 C367 28 368 9 369 -8 L422 -1 C420 44 418 84 418 127 L418 465 Z " />
<glyph glyph-name="v" unicode="v" horiz-adv-x="430" d="M347 465 L214 80 L158 253 C137 319 102 414 85 472 L29 454 C41 422 74 334 101 255 L186 0 L232 0 L403 465 L347 465 Z " />
<glyph glyph-name="w" unicode="w" horiz-adv-x="644" d="M561 465 L457 76 L408 255 C390 318 366 399 350 461 L297 461 L186 80 L140 261 C123 325 100 418 86 472 L29 458 C37 434 63 341 86 255 L157 0 L207 0 L321 378 C332 333 347 284 357 248 L428 0 L480 0 L616 465 L561 465 Z " />
<glyph glyph-name="x" unicode="x" horiz-adv-x="434" d="M407 465 L343 465 L219 277 L92 475 L36 455 L189 230 L29 0 L95 0 L219 189 L348 -7 L406 6 L249 236 L407 465 Z " />
<glyph glyph-name="y" unicode="y" horiz-adv-x="446" d="M357 465 L225 66 L145 302 C113 395 113 404 91 470 L33 462 C65 367 67 357 88 297 L187 14 L204 12 L174 -69 C156 -118 131 -138 94 -138 C70 -138 50 -133 31 -127 L45 -196 L83 -199 C118 -194 150 -182 177 -158 C201 -137 217 -106 236 -52 L416 465 L357 465 Z " />
<glyph glyph-name="z" unicode="z" horiz-adv-x="412" d="M115 51 L367 428 L361 465 L60 465 L53 412 L293 414 L42 35 L56 0 L363 0 L374 54 L115 51 Z " />
<glyph glyph-name="braceleft" unicode="&#x7b;" horiz-adv-x="339" d="M217 -116 L286 -107 L288 -55 C270 -61 246 -64 225 -64 C190 -64 167 -47 167 -4 C167 51 204 144 204 212 C204 248 191 282 142 287 L142 288 C190 296 203 334 203 368 C203 431 165 524 165 579 C165 622 193 641 229 641 C249 641 271 636 289 628 L304 678 C282 685 254 690 226 690 C149 690 107 645 107 580 C107 513 145 420 145 368 C145 339 134 312 97 312 L79 312 L78 262 L97 262 C133 262 145 238 145 207 C145 153 107 56 107 -13 C107 -80 150 -116 217 -116 L217 -116 Z " />
<glyph glyph-name="bar" unicode="&#x7c;" horiz-adv-x="306" d="M126 -185 L180 -185 L180 757 L126 757 L126 -185 Z " />
<glyph glyph-name="braceright" unicode="&#x7d;" horiz-adv-x="339" d="M122 690 L53 681 L51 629 C69 635 93 638 114 638 C149 638 172 621 172 578 C172 523 135 430 135 362 C135 326 149 292 197 287 L197 286 C149 278 136 241 136 206 C136 144 174 50 174 -5 C174 -48 146 -67 110 -67 C90 -67 68 -62 50 -54 L35 -104 C57 -111 85 -116 113 -116 C190 -116 232 -71 232 -6 C232 61 194 154 194 207 C194 235 205 262 242 262 L260 262 L261 312 L242 312 C206 312 194 336 194 367 C194 421 232 518 232 587 C232 654 189 690 122 690 L122 690 Z " />
<glyph glyph-name="exclamdown" unicode="&#xa1;" horiz-adv-x="313" d="M157 476 C125 476 104 460 104 425 C104 394 125 377 154 377 C188 377 209 398 209 430 C209 461 189 476 157 476 L157 476 Z M180 316 L132 316 L126 -214 L187 -214 L180 316 Z " />
<glyph glyph-name="cent" unicode="&#xa2;" horiz-adv-x="580" d="M481 184 L478 184 C441 159 380 141 319 141 C224 141 156 191 156 319 C156 454 231 520 344 520 C384 520 430 511 454 500 L473 555 C443 566 401 572 361 572 L367 732 L309 729 L314 569 C253 560 201 534 167 498 C120 448 98 381 98 307 C98 162 185 91 299 89 L293 -66 L349 -63 L344 91 C390 96 431 108 460 122 L481 184 Z " />
<glyph glyph-name="sterling" unicode="&#xa3;" horiz-adv-x="580" d="M166 55 C207 85 232 146 232 218 C232 251 227 286 219 322 L397 322 L397 372 L208 372 C197 422 186 471 186 511 C186 581 238 636 323 636 C372 636 423 625 466 608 L476 665 C430 681 377 689 330 689 C219 689 128 612 128 499 C128 462 136 417 146 372 L83 372 L83 322 L157 322 C167 276 176 233 176 201 C176 132 153 75 88 45 L107 0 L485 0 L488 55 L166 55 Z " />
<glyph glyph-name="yen" unicode="&#xa5;" horiz-adv-x="580" d="M529 680 L464 680 L299 357 L112 686 L51 678 L246 346 L89 346 L89 296 L266 296 L266 200 L90 200 L90 150 L266 150 L266 0 L326 0 L326 150 L502 150 L502 200 L326 200 L326 296 L502 296 L502 346 L344 346 L529 680 Z " />
<glyph glyph-name="section" unicode="&#xa7;" horiz-adv-x="528" d="M349 112 C417 141 469 193 469 253 C469 420 138 422 138 540 C138 595 198 636 279 636 C316 636 363 627 396 613 L406 676 C379 683 336 690 295 690 C238 690 186 675 149 651 C103 620 79 575 79 532 C79 468 131 432 195 403 C115 382 57 330 57 262 C57 97 384 117 384 -23 C384 -90 309 -135 221 -135 C162 -135 95 -116 64 -99 L74 -169 C98 -179 149 -188 206 -188 C273 -188 342 -168 381 -136 C418 -105 441 -62 441 -13 C441 47 401 84 349 112 L349 112 Z M114 270 C114 328 185 369 277 369 C347 340 410 308 410 247 C410 196 366 156 287 141 C202 176 114 203 114 270 L114 270 Z " />
<glyph glyph-name="dieresis" unicode="&#xa8;" horiz-adv-x="303" d="M81 591 C106 591 128 609 128 637 C128 663 111 677 86 677 C60 677 40 661 40 630 C40 605 58 591 81 591 L81 591 Z M216 591 C241 591 263 609 263 637 C263 663 246 677 221 677 C195 677 175 661 175 630 C175 605 193 591 216 591 L216 591 Z " />
<glyph glyph-name="copyright" unicode="&#xa9;" horiz-adv-x="798" d="M401 -8 C607 -8 752 132 752 336 C752 562 575 690 399 690 C224 690 47 563 47 336 C47 123 200 -8 401 -8 L401 -8 Z M403 35 C238 35 93 154 93 341 C93 527 238 647 401 647 C557 647 706 537 706 339 C706 143 559 35 403 35 L403 35 Z M409 158 C449 158 485 170 507 186 L514 234 L511 234 C492 218 456 203 417 203 C342 203 274 244 274 339 C274 429 334 478 420 478 C447 478 477 472 495 463 L509 509 C486 516 455 523 422 523 C305 523 224 441 224 333 C224 214 316 158 409 158 L409 158 Z " />
<glyph glyph-name="ordfeminine" unicode="&#xaa;" horiz-adv-x="391" d="M315 398 C308 398 305 403 305 409 L305 607 C305 649 281 692 195 692 C154 692 95 685 71 679 L55 624 C92 633 140 642 182 642 C223 642 250 628 250 596 L250 553 L181 541 C111 528 37 496 37 432 C37 384 73 353 123 353 C161 353 203 371 251 403 L252 390 C253 362 269 352 290 352 C308 352 334 356 352 363 L359 409 C339 403 323 398 315 398 L315 398 Z M93 442 C93 475 137 498 186 502 L250 508 L250 442 C205 413 167 400 141 400 C110 400 93 416 93 442 L93 442 Z " />
<glyph glyph-name="guillemotleft" unicode="&#xab;" horiz-adv-x="526" d="M269 411 L199 411 L53 238 L53 229 L199 57 L269 57 L118 234 L269 411 Z M482 411 L412 411 L266 238 L266 229 L412 57 L482 57 L332 234 L482 411 Z " />
<glyph glyph-name="logicalnot" unicode="&#xac;" horiz-adv-x="540" d="M491 418 L49 418 L49 368 L442 368 L442 132 L491 132 L491 418 Z " />
<glyph glyph-name="registered" unicode="&#xae;" horiz-adv-x="528" d="M264 690 C156 690 58 607 58 488 C58 368 156 285 264 285 C371 285 469 368 469 488 C469 607 371 690 264 690 L264 690 Z M265 324 C177 324 100 392 100 488 C100 584 176 651 264 651 C351 651 427 586 427 488 C427 390 351 324 265 324 L265 324 Z M342 536 C342 567 319 593 269 593 L190 593 L190 397 L229 397 L229 470 L268 467 L314 397 L361 397 L361 399 L306 479 C331 493 342 513 342 536 L342 536 Z M229 556 L266 556 C285 556 300 547 300 531 C300 516 290 505 274 500 L229 503 L229 556 Z " />
<glyph glyph-name="degree" unicode="&#xb0;" horiz-adv-x="351" d="M175 389 C259 389 328 455 328 539 C328 624 259 690 175 690 C92 690 23 624 23 539 C23 455 92 389 175 389 L175 389 Z M175 439 C123 439 81 479 81 539 C81 600 123 640 175 640 C227 640 270 600 270 539 C270 479 227 439 175 439 L175 439 Z " />
<glyph glyph-name="acute" unicode="&#xb4;" horiz-adv-x="338" d="M271 682 C201 646 124 614 40 585 L40 582 L53 545 L56 545 C144 567 225 594 298 623 L276 682 L271 682 Z " />
<glyph glyph-name="paragraph" unicode="&#xb6;" horiz-adv-x="547" d="M55 468 C55 368 111 290 203 290 C233 290 260 298 281 309 L281 125 C281 -24 255 -91 166 -181 L187 -201 C289 -126 328 -11 328 125 L328 680 L256 688 C137 665 55 587 55 468 L55 468 Z M387 680 L387 0 L431 0 L431 680 L387 680 Z " />
<glyph glyph-name="periodcentered" unicode="&#xb7;" horiz-adv-x="269" d="M134 200 C167 200 187 216 187 251 C187 283 166 299 137 299 C103 299 82 278 82 246 C82 215 102 200 134 200 L134 200 Z " />
<glyph glyph-name="cedilla" unicode="&#xb8;" horiz-adv-x="271" d="M133 -49 L156 0 L110 0 L79 -73 L80 -74 C150 -100 177 -115 177 -137 C177 -157 158 -172 122 -172 C96 -172 66 -166 40 -156 L48 -205 C66 -211 94 -215 117 -215 C179 -215 231 -181 231 -134 C231 -96 199 -72 133 -49 L133 -49 Z " />
<glyph glyph-name="ordmasculine" unicode="&#xba;" horiz-adv-x="441" d="M210 348 C259 348 304 366 337 396 C369 427 390 472 390 528 C390 630 320 690 229 690 C178 690 132 672 97 635 C66 602 52 562 52 514 C52 405 128 348 210 348 L210 348 Z M220 399 C150 399 108 443 108 524 C108 597 153 640 219 640 C291 640 331 598 331 516 C331 444 287 399 220 399 L220 399 Z " />
<glyph glyph-name="guillemotright" unicode="&#xbb;" horiz-adv-x="526" d="M269 243 L123 415 L53 415 L203 238 L53 61 L123 61 L269 234 L269 243 Z M336 415 L266 415 L417 238 L266 61 L336 61 L482 234 L482 243 L336 415 Z " />
<glyph glyph-name="onequarter" unicode="&#xbc;" horiz-adv-x="844" d="M248 270 L248 675 L218 685 C172 661 110 627 53 604 L76 568 C119 581 157 599 199 620 L199 270 L248 270 Z M562 680 L229 0 L282 0 L615 680 L562 680 Z M809 142 C789 142 769 141 749 141 L749 405 L708 414 L502 140 L521 96 L698 96 L698 -2 L749 -2 L749 96 L809 96 L809 142 Z M552 140 L698 333 L698 140 L552 140 Z " />
<glyph glyph-name="onehalf" unicode="&#xbd;" horiz-adv-x="844" d="M248 270 L248 675 L218 685 C172 661 110 627 53 604 L76 568 C119 581 157 599 199 620 L199 270 L248 270 Z M562 680 L229 0 L282 0 L615 680 L562 680 Z M583 43 L657 122 C721 188 784 236 784 308 C784 370 735 413 651 413 C612 413 570 404 544 392 L534 341 C565 357 609 367 643 367 C691 367 729 343 729 302 C729 250 684 215 620 147 L519 39 L534 -2 L779 -2 L791 53 C749 48 684 45 583 43 L583 43 Z " />
<glyph glyph-name="threequarters" unicode="&#xbe;" horiz-adv-x="844" d="M321 401 C321 448 286 492 214 499 C273 520 301 560 301 597 C301 645 258 685 180 685 C138 685 98 677 73 667 L63 618 C94 630 133 639 169 639 C215 639 246 620 246 584 C246 549 207 516 118 504 L122 462 C208 469 265 447 265 394 C265 352 220 311 152 311 C120 311 83 316 46 332 L59 277 C84 269 123 265 148 265 C248 265 321 326 321 401 L321 401 Z M562 680 L229 0 L282 0 L615 680 L562 680 Z M809 142 C789 142 769 141 749 141 L749 405 L708 414 L502 140 L521 96 L698 96 L698 -2 L749 -2 L749 96 L809 96 L809 142 Z M552 140 L698 333 L698 140 L552 140 Z " />
<glyph glyph-name="questiondown" unicode="&#xbf;" horiz-adv-x="474" d="M260 376 C295 376 315 397 315 430 C315 461 296 475 264 475 C231 475 210 459 210 424 C210 390 231 376 260 376 L260 376 Z M254 -172 C166 -172 112 -133 112 -65 C112 3 170 67 293 150 L291 291 L239 291 L235 174 C108 86 50 16 50 -77 C50 -159 115 -226 247 -226 C303 -226 367 -213 407 -196 L418 -133 C366 -157 307 -172 254 -172 L254 -172 Z " />
<glyph glyph-name="Agrave" unicode="&#xc0;" horiz-adv-x="655" d="M429 760 L442 797 L442 800 C362 826 286 859 211 897 L206 897 L184 838 C262 807 342 780 426 760 L429 760 Z M559 146 L357 686 L287 680 L41 0 L102 0 L190 251 L459 251 L501 136 C520 86 540 31 559 -10 L617 6 C598 44 579 91 559 146 L559 146 Z M208 302 L321 625 L440 302 L208 302 Z " />
<glyph glyph-name="Aacute" unicode="&#xc1;" horiz-adv-x="655" d="M211 760 C298 782 379 809 452 838 L430 897 L425 897 C355 861 279 829 194 800 L194 797 L208 760 L211 760 Z M559 146 L357 686 L287 680 L41 0 L102 0 L190 251 L459 251 L501 136 C520 86 540 31 559 -10 L617 6 C598 44 579 91 559 146 L559 146 Z M208 302 L321 625 L440 302 L208 302 Z " />
<glyph glyph-name="Acircumflex" unicode="&#xc2;" horiz-adv-x="655" d="M211 745 L321 849 C356 812 395 779 439 745 L442 745 L470 770 L470 773 C410 832 371 874 339 911 L306 911 L178 769 L178 766 L208 745 L211 745 Z M559 146 L357 686 L287 680 L41 0 L102 0 L190 251 L459 251 L501 136 C520 86 540 31 559 -10 L617 6 C598 44 579 91 559 146 L559 146 Z M208 302 L321 625 L440 302 L208 302 Z " />
<glyph glyph-name="Atilde" unicode="&#xc3;" horiz-adv-x="655" d="M266 800 C307 800 339 750 385 750 C418 750 451 777 480 832 L441 858 C423 826 406 808 383 808 C346 808 309 857 263 857 C227 857 196 830 167 782 L200 749 C224 785 244 800 266 800 L266 800 Z M559 146 L357 686 L287 680 L41 0 L102 0 L190 251 L459 251 L501 136 C520 86 540 31 559 -10 L617 6 C598 44 579 91 559 146 L559 146 Z M208 302 L321 625 L440 302 L208 302 Z " />
<glyph glyph-name="Adieresis" unicode="&#xc4;" horiz-adv-x="655" d="M249 780 C273 780 295 798 295 826 C295 852 278 866 253 866 C227 866 207 850 207 819 C207 794 225 780 249 780 L249 780 Z M389 780 C414 780 436 798 436 826 C436 852 419 866 394 866 C368 866 348 850 348 819 C348 794 366 780 389 780 L389 780 Z M559 146 L357 686 L287 680 L41 0 L102 0 L190 251 L459 251 L501 136 C520 86 540 31 559 -10 L617 6 C598 44 579 91 559 146 L559 146 Z M208 302 L321 625 L440 302 L208 302 Z " />
<glyph glyph-name="Aring" unicode="&#xc5;" horiz-adv-x="655" d="M324 746 C375 746 416 779 416 833 C416 887 375 920 324 920 C273 920 231 887 231 833 C231 779 273 746 324 746 L324 746 Z M325 883 C350 883 372 866 372 833 C372 799 350 783 325 783 C297 783 275 799 275 833 C275 866 297 883 325 883 L325 883 Z M559 146 L357 686 L287 680 L41 0 L102 0 L190 251 L459 251 L501 136 C520 86 540 31 559 -10 L617 6 C598 44 579 91 559 146 L559 146 Z M208 302 L321 625 L440 302 L208 302 Z " />
<glyph glyph-name="AE" unicode="&#xc6;" horiz-adv-x="884" d="M509 54 L509 348 L783 348 L785 401 L509 401 L509 626 L811 626 L815 680 L474 680 L417 684 L21 0 L85 0 L215 227 L451 227 L451 0 L828 0 L833 54 L509 54 Z M245 279 L451 640 L451 279 L245 279 Z " />
<glyph glyph-name="Ccedilla" unicode="&#xc7;" horiz-adv-x="610" d="M537 24 L556 90 C500 61 436 43 377 43 C235 43 134 122 134 324 C134 520 251 636 392 636 C439 636 494 624 532 608 L544 672 C515 682 460 690 412 690 C311 690 230 652 173 590 C108 523 75 420 75 311 C75 106 184 0 332 -11 L306 -73 L307 -74 C377 -100 404 -115 404 -137 C404 -157 385 -172 349 -172 C323 -172 293 -166 267 -156 L275 -205 C293 -211 321 -215 344 -215 C406 -215 458 -181 458 -134 C458 -96 426 -72 360 -49 L378 -12 C437 -9 504 5 537 24 L537 24 Z " />
<glyph glyph-name="Egrave" unicode="&#xc8;" horiz-adv-x="549" d="M402 760 L415 797 L415 800 C335 826 259 859 184 897 L179 897 L157 838 C235 807 315 780 399 760 L402 760 Z M174 54 L174 343 L448 343 L450 396 L174 396 L174 626 L476 626 L480 680 L116 680 L116 0 L494 0 L498 54 L174 54 Z " />
<glyph glyph-name="Eacute" unicode="&#xc9;" horiz-adv-x="549" d="M184 760 C271 782 352 809 425 838 L403 897 L398 897 C328 861 252 829 167 800 L167 797 L181 760 L184 760 Z M174 54 L174 343 L448 343 L450 396 L174 396 L174 626 L476 626 L480 680 L116 680 L116 0 L494 0 L498 54 L174 54 Z " />
<glyph glyph-name="Ecircumflex" unicode="&#xca;" horiz-adv-x="549" d="M184 745 L294 849 C329 812 368 779 412 745 L415 745 L443 770 L443 773 C383 832 344 874 312 911 L279 911 L151 769 L151 766 L181 745 L184 745 Z M174 54 L174 343 L448 343 L450 396 L174 396 L174 626 L476 626 L480 680 L116 680 L116 0 L494 0 L498 54 L174 54 Z " />
<glyph glyph-name="Edieresis" unicode="&#xcb;" horiz-adv-x="549" d="M222 780 C246 780 268 798 268 826 C268 852 251 866 226 866 C200 866 180 850 180 819 C180 794 198 780 222 780 L222 780 Z M362 780 C387 780 409 798 409 826 C409 852 392 866 367 866 C341 866 321 850 321 819 C321 794 339 780 362 780 L362 780 Z M174 54 L174 343 L448 343 L450 396 L174 396 L174 626 L476 626 L480 680 L116 680 L116 0 L494 0 L498 54 L174 54 Z " />
<glyph glyph-name="Igrave" unicode="&#xcc;" horiz-adv-x="286" d="M61 896 L56 896 L32 840 C84 811 140 784 200 759 L203 759 L219 797 L219 800 C163 830 110 861 61 896 L61 896 Z M114 0 L173 0 L173 680 L114 680 L114 0 Z " />
<glyph glyph-name="Iacute" unicode="&#xcd;" horiz-adv-x="286" d="M239 896 C191 861 137 830 81 800 L81 797 L97 759 L100 759 C160 784 217 811 269 840 L244 896 L239 896 Z M114 0 L173 0 L173 680 L114 680 L114 0 Z " />
<glyph glyph-name="Icircumflex" unicode="&#xce;" horiz-adv-x="286" d="M157 911 L126 911 L22 769 L22 766 L48 745 L51 745 L140 849 C170 812 199 781 236 745 L239 745 L264 770 L264 773 C213 832 184 875 157 911 L157 911 Z M114 0 L173 0 L173 680 L114 680 L114 0 Z " />
<glyph glyph-name="Idieresis" unicode="&#xcf;" horiz-adv-x="286" d="M69 780 C93 780 115 798 115 826 C115 852 98 866 73 866 C47 866 27 850 27 819 C27 794 45 780 69 780 L69 780 Z M209 780 C234 780 256 798 256 826 C256 852 239 866 214 866 C188 866 168 850 168 819 C168 794 186 780 209 780 L209 780 Z M114 0 L173 0 L173 680 L114 680 L114 0 Z " />
<glyph glyph-name="Eth" unicode="&#xd0;" horiz-adv-x="716" d="M288 680 L116 680 L116 377 L41 377 L41 325 L116 325 L116 0 L287 0 C469 0 641 136 641 356 C641 564 526 680 288 680 L288 680 Z M318 53 L174 53 L174 325 L361 325 L361 377 L174 377 L174 626 L281 626 C481 626 581 531 581 356 C581 176 467 71 318 53 L318 53 Z " />
<glyph glyph-name="Ntilde" unicode="&#xd1;" horiz-adv-x="755" d="M320 800 C361 800 393 750 439 750 C472 750 505 777 534 832 L495 858 C477 826 460 808 437 808 C400 808 363 857 317 857 C281 857 250 830 221 782 L254 749 C278 785 298 800 320 800 L320 800 Z M583 679 L583 112 L159 683 L116 680 L116 0 L173 0 L173 569 L595 -4 L639 4 L639 682 L583 679 Z " />
<glyph glyph-name="Ograve" unicode="&#xd2;" horiz-adv-x="739" d="M462 760 L465 760 L478 797 L478 800 C398 826 322 859 247 897 L242 897 L220 838 C298 807 378 780 462 760 L462 760 Z M364 -13 C443 -13 529 18 585 85 C634 144 665 239 665 351 C665 568 544 690 377 690 C290 690 213 657 156 589 C101 524 75 439 75 335 C75 98 214 -13 364 -13 L364 -13 Z M371 40 C223 40 134 157 134 342 C134 521 224 637 371 637 C510 637 606 537 606 341 C606 158 519 40 371 40 L371 40 Z " />
<glyph glyph-name="Oacute" unicode="&#xd3;" horiz-adv-x="739" d="M461 897 C391 861 315 829 230 800 L230 797 L244 760 L247 760 C334 782 415 809 488 838 L466 897 L461 897 Z M364 -13 C443 -13 529 18 585 85 C634 144 665 239 665 351 C665 568 544 690 377 690 C290 690 213 657 156 589 C101 524 75 439 75 335 C75 98 214 -13 364 -13 L364 -13 Z M371 40 C223 40 134 157 134 342 C134 521 224 637 371 637 C510 637 606 537 606 341 C606 158 519 40 371 40 L371 40 Z " />
<glyph glyph-name="Ocircumflex" unicode="&#xd4;" horiz-adv-x="739" d="M246 745 L356 849 C391 812 430 779 474 745 L477 745 L505 770 L505 773 C445 832 406 874 374 911 L341 911 L213 769 L213 766 L243 745 L246 745 Z M377 690 C290 690 213 657 156 589 C101 524 75 439 75 335 C75 98 214 -13 364 -13 C443 -13 529 18 585 85 C634 144 665 239 665 351 C665 568 544 690 377 690 L377 690 Z M371 40 C223 40 134 157 134 342 C134 521 224 637 371 637 C510 637 606 537 606 341 C606 158 519 40 371 40 L371 40 Z " />
<glyph glyph-name="Otilde" unicode="&#xd5;" horiz-adv-x="739" d="M235 749 C259 785 279 800 301 800 C342 800 374 750 420 750 C453 750 486 777 515 832 L476 858 C458 826 441 808 418 808 C381 808 344 857 298 857 C262 857 231 830 202 782 L235 749 Z M364 -13 C443 -13 529 18 585 85 C634 144 665 239 665 351 C665 568 544 690 377 690 C290 690 213 657 156 589 C101 524 75 439 75 335 C75 98 214 -13 364 -13 L364 -13 Z M371 40 C223 40 134 157 134 342 C134 521 224 637 371 637 C510 637 606 537 606 341 C606 158 519 40 371 40 L371 40 Z " />
<glyph glyph-name="Odieresis" unicode="&#xd6;" horiz-adv-x="739" d="M285 780 C309 780 331 798 331 826 C331 852 314 866 289 866 C263 866 243 850 243 819 C243 794 261 780 285 780 L285 780 Z M425 780 C450 780 472 798 472 826 C472 852 455 866 430 866 C404 866 384 850 384 819 C384 794 402 780 425 780 L425 780 Z M364 -13 C443 -13 529 18 585 85 C634 144 665 239 665 351 C665 568 544 690 377 690 C290 690 213 657 156 589 C101 524 75 439 75 335 C75 98 214 -13 364 -13 L364 -13 Z M371 40 C223 40 134 157 134 342 C134 521 224 637 371 637 C510 637 606 537 606 341 C606 158 519 40 371 40 L371 40 Z " />
<glyph glyph-name="multiply" unicode="&#xd7;" horiz-adv-x="540" d="M484 460 L448 496 L270 318 L94 494 L57 459 L233 282 L56 104 L92 68 L269 246 L447 70 L483 105 L306 282 L484 460 Z " />
<glyph glyph-name="Oslash" unicode="&#xd8;" horiz-adv-x="739" d="M579 607 L651 722 L608 750 L540 641 C494 673 439 690 377 690 C290 690 213 657 156 589 C101 524 75 439 75 335 C75 209 114 118 174 61 L93 -67 L136 -95 L214 29 C259 1 311 -13 364 -13 C443 -13 529 18 585 85 C634 144 665 239 665 351 C665 463 633 550 579 607 L579 607 Z M134 342 C134 521 224 637 371 637 C424 637 471 622 509 593 L205 111 C159 164 134 243 134 342 L134 342 Z M371 40 C322 40 279 53 244 77 L546 556 C584 506 606 435 606 341 C606 158 519 40 371 40 L371 40 Z " />
<glyph glyph-name="Ugrave" unicode="&#xd9;" horiz-adv-x="666" d="M440 760 L443 760 L456 797 L456 800 C376 826 300 859 225 897 L220 897 L198 838 C276 807 356 780 440 760 L440 760 Z M319 -12 C379 -12 443 5 489 45 C534 83 561 134 561 206 L561 680 L503 680 L503 193 C503 110 436 40 334 40 C245 40 174 77 174 181 L174 680 L116 680 L116 167 C116 54 195 -12 319 -12 L319 -12 Z " />
<glyph glyph-name="Uacute" unicode="&#xda;" horiz-adv-x="666" d="M439 897 C369 861 293 829 208 800 L208 797 L222 760 L225 760 C312 782 393 809 466 838 L444 897 L439 897 Z M319 -12 C379 -12 443 5 489 45 C534 83 561 134 561 206 L561 680 L503 680 L503 193 C503 110 436 40 334 40 C245 40 174 77 174 181 L174 680 L116 680 L116 167 C116 54 195 -12 319 -12 L319 -12 Z " />
<glyph glyph-name="Ucircumflex" unicode="&#xdb;" horiz-adv-x="666" d="M225 745 L335 849 C370 812 409 779 453 745 L456 745 L484 770 L484 773 C424 832 385 874 353 911 L320 911 L192 769 L192 766 L222 745 L225 745 Z M503 680 L503 193 C503 110 436 40 334 40 C245 40 174 77 174 181 L174 680 L116 680 L116 167 C116 54 195 -12 319 -12 C379 -12 443 5 489 45 C534 83 561 134 561 206 L561 680 L503 680 Z " />
<glyph glyph-name="Udieresis" unicode="&#xdc;" horiz-adv-x="666" d="M263 780 C287 780 309 798 309 826 C309 852 292 866 267 866 C241 866 221 850 221 819 C221 794 239 780 263 780 L263 780 Z M403 780 C428 780 450 798 450 826 C450 852 433 866 408 866 C382 866 362 850 362 819 C362 794 380 780 403 780 L403 780 Z M319 -12 C379 -12 443 5 489 45 C534 83 561 134 561 206 L561 680 L503 680 L503 193 C503 110 436 40 334 40 C245 40 174 77 174 181 L174 680 L116 680 L116 167 C116 54 195 -12 319 -12 L319 -12 Z " />
<glyph glyph-name="Thorn" unicode="&#xde;" horiz-adv-x="552" d="M263 551 C234 551 204 548 174 541 L174 680 L116 680 L116 0 L174 0 L174 167 C196 163 236 158 269 158 C326 158 384 171 428 208 C472 246 497 310 497 368 C497 479 418 551 263 551 L263 551 Z M276 212 C245 212 200 217 174 223 L174 490 C211 499 245 501 270 500 C386 498 436 450 436 360 C436 269 380 212 276 212 L276 212 Z " />
<glyph glyph-name="germandbls" unicode="&#xdf;" horiz-adv-x="526" d="M318 -11 C373 -11 412 4 441 30 C469 55 485 89 485 128 C485 197 436 230 377 269 C322 304 282 333 282 371 C282 436 387 462 387 569 C387 634 339 687 246 687 C147 687 78 628 78 500 L78 0 L134 0 L134 502 C134 596 175 640 246 640 C302 640 332 610 332 565 C332 479 226 446 225 363 C225 301 279 268 329 234 C390 194 429 168 429 119 C429 72 390 39 332 39 C288 39 244 55 204 85 L213 16 C238 1 274 -11 318 -11 L318 -11 Z " />
<glyph glyph-name="agrave" unicode="&#xe0;" horiz-adv-x="471" d="M326 545 L339 582 L339 585 C259 611 183 644 108 682 L103 682 L81 623 C159 592 239 565 323 545 L326 545 Z M387 39 C375 39 374 47 374 52 L374 370 C374 428 339 475 243 475 C189 475 117 464 90 455 L72 394 C122 411 183 422 231 422 C286 422 319 403 319 358 L319 272 L240 259 C174 249 124 230 92 201 C65 176 51 141 51 103 C51 33 95 -9 158 -9 C204 -9 256 14 320 58 L321 38 C321 13 333 -11 365 -11 C386 -11 416 -3 437 5 L445 56 C418 45 397 39 387 39 L387 39 Z M107 111 C107 171 151 207 247 214 L319 220 L319 104 C259 62 207 42 171 42 C129 42 107 70 107 111 L107 111 Z " />
<glyph glyph-name="aacute" unicode="&#xe1;" horiz-adv-x="471" d="M108 545 C195 567 276 594 349 623 L327 682 L322 682 C252 646 176 614 91 585 L91 582 L105 545 L108 545 Z M387 39 C375 39 374 47 374 52 L374 370 C374 428 339 475 243 475 C189 475 117 464 90 455 L72 394 C122 411 183 422 231 422 C286 422 319 403 319 358 L319 272 L240 259 C174 249 124 230 92 201 C65 176 51 141 51 103 C51 33 95 -9 158 -9 C204 -9 256 14 320 58 L321 38 C321 13 333 -11 365 -11 C386 -11 416 -3 437 5 L445 56 C418 45 397 39 387 39 L387 39 Z M107 111 C107 171 151 207 247 214 L319 220 L319 104 C259 62 207 42 171 42 C129 42 107 70 107 111 L107 111 Z " />
<glyph glyph-name="acircumflex" unicode="&#xe2;" horiz-adv-x="471" d="M108 530 L217 635 C254 597 292 564 336 530 L339 530 L367 555 L367 558 C307 617 268 659 236 696 L203 696 L75 554 L75 551 L105 530 L108 530 Z M387 39 C375 39 374 47 374 52 L374 370 C374 428 339 475 243 475 C189 475 117 464 90 455 L72 394 C122 411 183 422 231 422 C286 422 319 403 319 358 L319 272 L240 259 C174 249 124 230 92 201 C65 176 51 141 51 103 C51 33 95 -9 158 -9 C204 -9 256 14 320 58 L321 38 C321 13 333 -11 365 -11 C386 -11 416 -3 437 5 L445 56 C418 45 397 39 387 39 L387 39 Z M107 111 C107 171 151 207 247 214 L319 220 L319 104 C259 62 207 42 171 42 C129 42 107 70 107 111 L107 111 Z " />
<glyph glyph-name="atilde" unicode="&#xe3;" horiz-adv-x="471" d="M163 615 C204 615 236 565 282 565 C315 565 348 591 377 647 L338 673 C320 641 303 623 280 623 C243 623 206 671 160 671 C124 671 93 645 64 597 L97 564 C121 600 141 615 163 615 L163 615 Z M387 39 C375 39 374 47 374 52 L374 370 C374 428 339 475 243 475 C189 475 117 464 90 455 L72 394 C122 411 183 422 231 422 C286 422 319 403 319 358 L319 272 L240 259 C174 249 124 230 92 201 C65 176 51 141 51 103 C51 33 95 -9 158 -9 C204 -9 256 14 320 58 L321 38 C321 13 333 -11 365 -11 C386 -11 416 -3 437 5 L445 56 C418 45 397 39 387 39 L387 39 Z M107 111 C107 171 151 207 247 214 L319 220 L319 104 C259 62 207 42 171 42 C129 42 107 70 107 111 L107 111 Z " />
<glyph glyph-name="adieresis" unicode="&#xe4;" horiz-adv-x="471" d="M149 591 C174 591 196 609 196 637 C196 663 179 677 154 677 C128 677 108 661 108 630 C108 605 126 591 149 591 L149 591 Z M284 591 C309 591 331 609 331 637 C331 663 314 677 289 677 C263 677 243 661 243 630 C243 605 261 591 284 591 L284 591 Z M387 39 C375 39 374 47 374 52 L374 370 C374 428 339 475 243 475 C189 475 117 464 90 455 L72 394 C122 411 183 422 231 422 C286 422 319 403 319 358 L319 272 L240 259 C174 249 124 230 92 201 C65 176 51 141 51 103 C51 33 95 -9 158 -9 C204 -9 256 14 320 58 L321 38 C321 13 333 -11 365 -11 C386 -11 416 -3 437 5 L445 56 C418 45 397 39 387 39 L387 39 Z M107 111 C107 171 151 207 247 214 L319 220 L319 104 C259 62 207 42 171 42 C129 42 107 70 107 111 L107 111 Z " />
<glyph glyph-name="aring" unicode="&#xe5;" horiz-adv-x="471" d="M221 531 C272 531 313 564 313 618 C313 672 272 705 221 705 C170 705 128 672 128 618 C128 564 170 531 221 531 L221 531 Z M222 668 C247 668 269 651 269 618 C269 584 247 568 222 568 C194 568 172 584 172 618 C172 651 194 668 222 668 L222 668 Z M387 39 C375 39 374 47 374 52 L374 370 C374 428 339 475 243 475 C189 475 117 464 90 455 L72 394 C122 411 183 422 231 422 C286 422 319 403 319 358 L319 272 L240 259 C174 249 124 230 92 201 C65 176 51 141 51 103 C51 33 95 -9 158 -9 C204 -9 256 14 320 58 L321 38 C321 13 333 -11 365 -11 C386 -11 416 -3 437 5 L445 56 C418 45 397 39 387 39 L387 39 Z M107 111 C107 171 151 207 247 214 L319 220 L319 104 C259 62 207 42 171 42 C129 42 107 70 107 111 L107 111 Z " />
<glyph glyph-name="ae" unicode="&#xe6;" horiz-adv-x="741" d="M544 42 C451 42 381 91 379 220 L379 231 C379 238 379 245 380 252 L676 253 C680 271 683 295 683 318 C683 405 630 472 533 472 C466 472 410 440 376 385 C371 436 334 475 245 475 C190 475 117 464 90 455 L72 394 C122 411 183 422 234 422 C288 422 323 402 323 358 L322 271 L236 259 C175 250 128 229 96 201 C66 174 51 140 51 102 C51 33 95 -9 158 -9 C210 -9 281 15 356 80 C391 23 452 -10 534 -10 C583 -10 636 6 664 25 L681 85 L678 85 C647 62 594 42 544 42 L544 42 Z M522 420 C599 420 632 372 632 302 L632 299 L386 294 C405 382 465 420 522 420 L522 420 Z M173 42 C129 42 107 69 107 110 C107 169 156 205 237 214 L322 224 L322 216 C322 183 326 153 335 126 C279 65 210 42 173 42 L173 42 Z " />
<glyph glyph-name="ccedilla" unicode="&#xe7;" horiz-adv-x="438" d="M377 22 L395 84 L392 84 C358 61 305 41 255 41 C172 41 114 91 114 219 C114 354 178 420 278 420 C311 420 350 412 370 400 L387 455 C361 466 324 472 287 472 C219 472 159 445 120 398 C78 348 58 282 58 207 C58 67 129 -4 226 -11 L199 -73 L200 -74 C270 -100 298 -115 298 -137 C298 -157 278 -172 242 -172 C216 -172 186 -166 160 -156 L168 -205 C186 -211 214 -215 238 -215 C299 -215 352 -181 352 -134 C352 -96 320 -72 254 -49 L272 -9 C312 -5 354 7 377 22 L377 22 Z " />
<glyph glyph-name="egrave" unicode="&#xe8;" horiz-adv-x="477" d="M350 545 L363 582 L363 585 C283 611 207 644 132 682 L127 682 L105 623 C183 592 263 565 347 545 L350 545 Z M418 85 C387 62 334 42 284 42 C190 42 117 91 115 220 C115 232 116 242 117 252 L414 253 C417 271 420 297 420 318 C420 406 364 475 266 475 C212 475 156 450 116 401 C77 354 58 291 58 221 C58 78 139 -10 275 -10 C323 -10 376 6 404 25 L421 85 L418 85 Z M256 423 C333 423 369 373 369 299 L122 296 C140 386 200 423 256 423 L256 423 Z " />
<glyph glyph-name="eacute" unicode="&#xe9;" horiz-adv-x="477" d="M132 545 C219 567 300 594 373 623 L351 682 L346 682 C276 646 200 614 115 585 L115 582 L129 545 L132 545 Z M418 85 C387 62 334 42 284 42 C190 42 117 91 115 220 C115 232 116 242 117 252 L414 253 C417 271 420 297 420 318 C420 406 364 475 266 475 C212 475 156 450 116 401 C77 354 58 291 58 221 C58 78 139 -10 275 -10 C323 -10 376 6 404 25 L421 85 L418 85 Z M256 423 C333 423 369 373 369 299 L122 296 C140 386 200 423 256 423 L256 423 Z " />
<glyph glyph-name="ecircumflex" unicode="&#xea;" horiz-adv-x="477" d="M132 530 L241 635 C278 597 316 564 360 530 L363 530 L391 555 L391 558 C331 617 292 659 260 696 L227 696 L99 554 L99 551 L129 530 L132 530 Z M418 85 C387 62 334 42 284 42 C190 42 117 91 115 220 C115 232 116 242 117 252 L414 253 C417 271 420 297 420 318 C420 406 364 475 266 475 C212 475 156 450 116 401 C77 354 58 291 58 221 C58 78 139 -10 275 -10 C323 -10 376 6 404 25 L421 85 L418 85 Z M256 423 C333 423 369 373 369 299 L122 296 C140 386 200 423 256 423 L256 423 Z " />
<glyph glyph-name="edieresis" unicode="&#xeb;" horiz-adv-x="477" d="M173 591 C198 591 220 609 220 637 C220 663 203 677 178 677 C152 677 132 661 132 630 C132 605 150 591 173 591 L173 591 Z M308 591 C333 591 355 609 355 637 C355 663 338 677 313 677 C287 677 267 661 267 630 C267 605 285 591 308 591 L308 591 Z M418 85 C387 62 334 42 284 42 C190 42 117 91 115 220 C115 232 116 242 117 252 L414 253 C417 271 420 297 420 318 C420 406 364 475 266 475 C212 475 156 450 116 401 C77 354 58 291 58 221 C58 78 139 -10 275 -10 C323 -10 376 6 404 25 L421 85 L418 85 Z M256 423 C333 423 369 373 369 299 L122 296 C140 386 200 423 256 423 L256 423 Z " />
<glyph glyph-name="igrave" unicode="&#xec;" horiz-adv-x="231" d="M34 681 L29 681 L5 625 C57 596 113 569 173 544 L176 544 L192 582 L192 585 C136 615 83 646 34 681 L34 681 Z M88 0 L143 0 L143 468 L88 462 L88 0 Z " />
<glyph glyph-name="iacute" unicode="&#xed;" horiz-adv-x="231" d="M212 681 C164 646 110 615 54 585 L54 582 L70 544 L73 544 C133 569 190 596 242 625 L217 681 L212 681 Z M88 0 L143 0 L143 468 L88 462 L88 0 Z " />
<glyph glyph-name="icircumflex" unicode="&#xee;" horiz-adv-x="231" d="M130 696 L99 696 L-6 554 L-6 551 L21 530 L24 530 L113 634 C143 597 172 566 209 530 L212 530 L237 555 L237 558 C186 617 157 660 130 696 L130 696 Z M88 0 L143 0 L143 468 L88 462 L88 0 Z " />
<glyph glyph-name="idieresis" unicode="&#xef;" horiz-adv-x="231" d="M64 591 C86 591 104 609 104 637 C104 663 89 677 68 677 C46 677 29 661 29 630 C29 605 44 591 64 591 L64 591 Z M168 591 C190 591 208 609 208 637 C208 663 193 677 172 677 C150 677 133 661 133 630 C133 605 148 591 168 591 L168 591 Z M88 0 L143 0 L143 468 L88 462 L88 0 Z " />
<glyph glyph-name="eth" unicode="&#xf0;" horiz-adv-x="501" d="M318 596 L419 644 L402 681 L287 627 C263 648 237 668 206 689 L143 677 C180 653 212 629 240 605 L116 546 L133 508 L272 574 C312 534 340 493 359 448 C334 463 301 473 260 473 C141 473 58 365 58 223 C58 69 139 -11 238 -11 C295 -11 347 15 384 59 C420 101 443 167 443 259 C443 383 417 493 318 596 L318 596 Z M252 41 C165 41 115 114 115 233 C115 349 173 423 255 423 C305 423 346 405 368 386 C381 342 385 290 385 249 C385 122 330 41 252 41 L252 41 Z " />
<glyph glyph-name="ntilde" unicode="&#xf1;" horiz-adv-x="516" d="M133 564 C157 600 177 615 199 615 C240 615 272 565 318 565 C351 565 384 591 413 647 L374 673 C356 641 339 623 316 623 C279 623 242 671 196 671 C160 671 129 645 100 597 L133 564 Z M92 0 L147 0 L147 378 C193 407 238 423 282 423 C342 423 376 396 376 333 L376 0 L431 0 L431 344 C431 428 380 475 295 475 C247 475 193 459 147 424 L144 424 C144 432 143 455 141 473 L89 466 C91 421 92 382 92 338 L92 0 Z " />
<glyph glyph-name="ograve" unicode="&#xf2;" horiz-adv-x="522" d="M364 545 L367 545 L380 582 L380 585 C300 611 224 644 149 682 L144 682 L122 623 C200 592 280 565 364 545 L364 545 Z M249 -11 C307 -11 363 14 401 56 C440 98 464 163 464 244 C464 392 382 475 269 475 C210 475 153 448 113 400 C77 356 58 295 58 226 C58 69 152 -11 249 -11 L249 -11 Z M261 41 C169 41 115 113 115 240 C115 350 174 423 259 423 C355 423 406 356 406 228 C406 119 348 41 261 41 L261 41 Z " />
<glyph glyph-name="oacute" unicode="&#xf3;" horiz-adv-x="522" d="M363 682 C293 646 217 614 132 585 L132 582 L146 545 L149 545 C236 567 317 594 390 623 L368 682 L363 682 Z M249 -11 C307 -11 363 14 401 56 C440 98 464 163 464 244 C464 392 382 475 269 475 C210 475 153 448 113 400 C77 356 58 295 58 226 C58 69 152 -11 249 -11 L249 -11 Z M261 41 C169 41 115 113 115 240 C115 350 174 423 259 423 C355 423 406 356 406 228 C406 119 348 41 261 41 L261 41 Z " />
<glyph glyph-name="ocircumflex" unicode="&#xf4;" horiz-adv-x="522" d="M277 696 L244 696 L116 554 L116 551 L146 530 L149 530 L258 635 C295 597 333 564 377 530 L380 530 L408 555 L408 558 C348 617 309 659 277 696 L277 696 Z M249 -11 C307 -11 363 14 401 56 C440 98 464 163 464 244 C464 392 382 475 269 475 C210 475 153 448 113 400 C77 356 58 295 58 226 C58 69 152 -11 249 -11 L249 -11 Z M261 41 C169 41 115 113 115 240 C115 350 174 423 259 423 C355 423 406 356 406 228 C406 119 348 41 261 41 L261 41 Z " />
<glyph glyph-name="otilde" unicode="&#xf5;" horiz-adv-x="522" d="M138 564 C162 600 182 615 204 615 C245 615 277 565 323 565 C356 565 389 591 418 647 L379 673 C361 641 344 623 321 623 C284 623 247 671 201 671 C165 671 134 645 105 597 L138 564 Z M249 -11 C307 -11 363 14 401 56 C440 98 464 163 464 244 C464 392 382 475 269 475 C210 475 153 448 113 400 C77 356 58 295 58 226 C58 69 152 -11 249 -11 L249 -11 Z M261 41 C169 41 115 113 115 240 C115 350 174 423 259 423 C355 423 406 356 406 228 C406 119 348 41 261 41 L261 41 Z " />
<glyph glyph-name="odieresis" unicode="&#xf6;" horiz-adv-x="522" d="M191 591 C216 591 238 609 238 637 C238 663 221 677 196 677 C170 677 150 661 150 630 C150 605 168 591 191 591 L191 591 Z M326 591 C351 591 373 609 373 637 C373 663 356 677 331 677 C305 677 285 661 285 630 C285 605 303 591 326 591 L326 591 Z M249 -11 C307 -11 363 14 401 56 C440 98 464 163 464 244 C464 392 382 475 269 475 C210 475 153 448 113 400 C77 356 58 295 58 226 C58 69 152 -11 249 -11 L249 -11 Z M261 41 C169 41 115 113 115 240 C115 350 174 423 259 423 C355 423 406 356 406 228 C406 119 348 41 261 41 L261 41 Z " />
<glyph glyph-name="divide" unicode="&#xf7;" horiz-adv-x="540" d="M270 418 C303 418 323 434 323 469 C323 500 303 516 274 516 C239 516 218 496 218 464 C218 433 239 418 270 418 L270 418 Z M56 266 L483 266 L483 314 L56 314 L56 266 Z M270 62 C303 62 323 79 323 113 C323 145 303 161 274 161 C239 161 218 140 218 108 C218 78 239 62 270 62 L270 62 Z " />
<glyph glyph-name="oslash" unicode="&#xf8;" horiz-adv-x="528" d="M390 430 L433 515 L390 537 L349 457 C324 469 296 475 265 475 C206 475 149 448 109 400 C72 356 54 295 54 226 C54 137 85 72 129 33 L75 -66 L120 -88 L170 6 C194 -5 219 -11 245 -11 C303 -11 359 14 397 56 C436 98 460 163 460 244 C460 328 433 391 390 430 L390 430 Z M111 240 C111 350 169 423 255 423 C282 423 306 418 325 407 L157 83 C127 117 111 170 111 240 L111 240 Z M257 41 C233 41 212 46 194 55 L361 378 C387 345 401 295 401 228 C401 119 344 41 257 41 L257 41 Z " />
<glyph glyph-name="ugrave" unicode="&#xf9;" horiz-adv-x="511" d="M360 545 L363 545 L376 582 L376 585 C296 611 220 644 145 682 L140 682 L118 623 C196 592 276 565 360 545 L360 545 Z M418 465 L364 465 L364 80 C319 56 271 42 226 42 C170 42 140 73 140 132 L140 465 L85 465 L85 121 C85 37 135 -10 216 -10 C265 -10 313 9 362 39 L365 39 C367 28 368 9 369 -8 L422 -1 C420 44 418 84 418 127 L418 465 Z " />
<glyph glyph-name="uacute" unicode="&#xfa;" horiz-adv-x="524" d="M375 682 C305 646 228 614 144 584 L144 581 L157 545 L160 545 C248 567 329 594 402 623 L380 682 L375 682 Z M418 465 L364 465 L364 80 C319 56 271 42 226 42 C170 42 140 73 140 132 L140 465 L85 465 L85 121 C85 37 135 -10 216 -10 C265 -10 313 9 362 39 L365 39 C367 28 368 9 369 -8 L422 -1 C420 44 418 84 418 127 L418 465 Z " />
<glyph glyph-name="ucircumflex" unicode="&#xfb;" horiz-adv-x="524" d="M281 695 L247 695 L119 554 L119 551 L149 529 L152 529 L262 634 C298 597 337 564 381 529 L384 529 L412 555 L412 558 C352 617 313 658 281 695 L281 695 Z M418 465 L364 465 L364 80 C319 56 271 42 226 42 C170 42 140 73 140 132 L140 465 L85 465 L85 121 C85 37 135 -10 216 -10 C265 -10 313 9 362 39 L365 39 C367 28 368 9 369 -8 L422 -1 C420 44 418 84 418 127 L418 465 Z " />
<glyph glyph-name="udieresis" unicode="&#xfc;" horiz-adv-x="511" d="M186 591 C211 591 233 609 233 637 C233 663 216 677 191 677 C165 677 145 661 145 630 C145 605 163 591 186 591 L186 591 Z M321 591 C346 591 368 609 368 637 C368 663 351 677 326 677 C300 677 280 661 280 630 C280 605 298 591 321 591 L321 591 Z M418 465 L364 465 L364 80 C319 56 271 42 226 42 C170 42 140 73 140 132 L140 465 L85 465 L85 121 C85 37 135 -10 216 -10 C265 -10 313 9 362 39 L365 39 C367 28 368 9 369 -8 L422 -1 C420 44 418 84 418 127 L418 465 Z " />
<glyph glyph-name="thorn" unicode="&#xfe;" horiz-adv-x="491" d="M266 473 C216 473 172 453 135 425 L132 425 L132 693 L80 680 L78 -192 L133 -183 L133 1 C159 -6 190 -11 216 -11 C270 -11 321 7 368 55 C408 96 440 165 440 257 C440 381 382 473 266 473 L266 473 Z M228 41 C195 41 159 50 133 61 L133 379 C169 406 210 422 256 422 C334 422 385 363 385 246 C385 120 312 41 228 41 L228 41 Z " />
<glyph glyph-name="dotlessi" unicode="&#x131;" horiz-adv-x="231" d="M88 0 L143 0 L143 468 L88 462 L88 0 Z " />
<glyph glyph-name="OE" unicode="&#x152;" horiz-adv-x="855" d="M496 54 L496 343 L753 343 L756 396 L496 396 L496 626 L782 626 L786 680 L389 680 C192 680 75 542 75 336 C75 107 214 0 376 0 L799 0 L804 54 L496 54 Z M382 53 C224 53 135 165 135 349 C135 515 225 627 377 627 L437 627 L437 53 L382 53 Z " />
<glyph glyph-name="oe" unicode="&#x153;" horiz-adv-x="815" d="M616 42 C525 42 453 92 452 220 L452 231 L452 252 L751 253 C755 272 758 298 758 321 C758 405 701 472 600 472 C544 472 494 448 455 401 C445 390 437 377 430 364 C398 436 337 475 264 475 C140 475 58 368 58 226 C58 69 148 -11 244 -11 C300 -11 352 14 389 56 C400 68 410 83 419 99 C452 30 517 -10 606 -10 C659 -10 708 5 738 25 L756 85 L752 85 C720 61 669 42 616 42 L616 42 Z M254 41 C166 41 115 115 115 238 C115 352 171 423 255 423 C346 423 395 354 395 231 C395 119 338 41 254 41 L254 41 Z M592 420 C671 420 706 372 706 301 L706 299 L458 295 C476 382 535 420 592 420 L592 420 Z " />
<glyph glyph-name="Utilde" unicode="&#x168;" horiz-adv-x="666" d="M214 749 C238 785 258 800 280 800 C321 800 353 750 399 750 C432 750 465 777 494 832 L455 858 C437 826 420 808 397 808 C360 808 323 857 277 857 C241 857 210 830 181 782 L214 749 Z M319 -12 C379 -12 443 5 489 45 C534 83 561 134 561 206 L561 680 L503 680 L503 193 C503 110 436 40 334 40 C245 40 174 77 174 181 L174 680 L116 680 L116 167 C116 54 195 -12 319 -12 L319 -12 Z " />
<glyph glyph-name="utilde" unicode="&#x169;" horiz-adv-x="524" d="M144 563 C168 599 188 615 210 615 C251 615 283 565 328 565 C362 565 394 591 423 647 L385 673 C367 641 350 622 327 622 C289 622 252 671 207 671 C171 671 140 645 111 597 L144 563 Z M418 465 L364 465 L364 80 C319 56 271 42 226 42 C170 42 140 73 140 132 L140 465 L85 465 L85 121 C85 37 135 -10 216 -10 C265 -10 313 9 362 39 L365 39 C367 28 368 9 369 -8 L422 -1 C420 44 418 84 418 127 L418 465 Z " />
<glyph glyph-name="uni0237" unicode="&#x237;" horiz-adv-x="241" d="M46 -190 C79 -187 101 -176 119 -161 C138 -146 149 -121 149 -94 L149 473 L92 466 L92 -96 C92 -124 78 -136 55 -136 C38 -136 23 -133 6 -128 L-5 -181 L46 -190 Z " />
<glyph glyph-name="circumflex" unicode="&#x2c6;" horiz-adv-x="372" d="M201 696 L168 696 L40 554 L40 551 L70 530 L73 530 L183 635 C219 597 257 564 301 530 L304 530 L332 555 L332 558 C273 617 234 659 201 696 L201 696 Z " />
<glyph glyph-name="dotaccent" unicode="&#x2d9;" horiz-adv-x="189" d="M92 590 C117 590 139 608 139 636 C139 663 121 676 97 676 C70 676 51 660 51 629 C51 604 68 590 92 590 L92 590 Z " />
<glyph glyph-name="ring" unicode="&#x2da;" horiz-adv-x="285" d="M143 531 C194 531 235 564 235 618 C235 672 194 705 143 705 C92 705 50 672 50 618 C50 564 92 531 143 531 L143 531 Z M144 568 C116 568 94 584 94 618 C94 651 116 668 144 668 C169 668 191 651 191 618 C191 584 169 568 144 568 L144 568 Z " />
<glyph glyph-name="tilde" unicode="&#x2dc;" horiz-adv-x="393" d="M73 564 C97 600 117 615 139 615 C180 615 212 565 258 565 C291 565 324 591 353 647 L314 673 C296 641 279 623 256 623 C219 623 182 671 136 671 C100 671 69 645 40 597 L73 564 Z " />
<glyph glyph-name="gravecomb" unicode="&#x300;" d="M-56 545 L-53 545 L-40 582 L-40 585 C-120 611 -196 644 -271 682 L-276 682 L-298 623 C-220 592 -140 565 -56 545 L-56 545 Z " />
<glyph glyph-name="acutecomb" unicode="&#x301;" d="M-65 682 C-135 646 -211 614 -296 585 L-296 582 L-282 545 L-279 545 C-192 567 -111 594 -38 623 L-60 682 L-65 682 Z " />
<glyph glyph-name="uni0302" unicode="&#x302;" d="M-183 696 L-216 696 L-344 554 L-344 551 L-314 530 L-311 530 L-202 635 C-165 597 -127 564 -83 530 L-80 530 L-52 555 L-52 558 C-112 617 -151 659 -183 696 L-183 696 Z " />
<glyph glyph-name="tildecomb" unicode="&#x303;" d="M-317 564 C-293 600 -273 615 -251 615 C-210 615 -178 565 -132 565 C-99 565 -66 591 -37 647 L-76 673 C-94 641 -111 623 -134 623 C-171 623 -208 671 -254 671 C-290 671 -321 645 -350 597 L-317 564 Z " />
<glyph glyph-name="uni0307" unicode="&#x307;" d="M-99 590 C-74 590 -52 608 -52 636 C-52 663 -69 676 -94 676 C-120 676 -140 660 -140 629 C-140 604 -122 590 -99 590 L-99 590 Z " />
<glyph glyph-name="uni0308" unicode="&#x308;" d="M-222 591 C-197 591 -175 609 -175 637 C-175 663 -192 677 -217 677 C-243 677 -263 661 -263 630 C-263 605 -245 591 -222 591 L-222 591 Z M-87 591 C-62 591 -40 609 -40 637 C-40 663 -57 677 -82 677 C-108 677 -128 661 -128 630 C-128 605 -110 591 -87 591 L-87 591 Z " />
<glyph glyph-name="uni030A" unicode="&#x30a;" d="M-142 531 C-91 531 -50 564 -50 618 C-50 672 -91 705 -142 705 C-193 705 -235 672 -235 618 C-235 564 -193 531 -142 531 L-142 531 Z M-141 568 C-169 568 -191 584 -191 618 C-191 651 -169 668 -141 668 C-116 668 -94 651 -94 618 C-94 584 -116 568 -141 568 L-141 568 Z " />
<glyph glyph-name="uni0327" unicode="&#x327;" d="M-161 -49 L-139 0 L-184 0 L-216 -73 L-215 -74 C-145 -100 -117 -115 -117 -137 C-117 -157 -137 -172 -173 -172 C-199 -172 -229 -166 -255 -156 L-247 -205 C-229 -211 -201 -215 -177 -215 C-116 -215 -63 -181 -63 -134 C-63 -96 -95 -72 -161 -49 L-161 -49 Z " />
<glyph glyph-name="endash" unicode="&#x2013;" horiz-adv-x="373" d="M41 249 L332 249 L332 301 L41 301 L41 249 Z " />
<glyph glyph-name="emdash" unicode="&#x2014;" horiz-adv-x="623" d="M41 249 L583 249 L583 301 L41 301 L41 249 Z " />
<glyph glyph-name="quoteleft" unicode="&#x2018;" horiz-adv-x="248" d="M162 690 C109 647 75 598 75 538 C75 508 80 477 92 441 L155 451 C141 486 135 518 135 547 C135 593 157 633 196 670 L162 690 Z " />
<glyph glyph-name="quoteright" unicode="&#x2019;" horiz-adv-x="248" d="M85 457 C139 500 173 549 173 609 C173 639 168 671 155 706 L92 697 C107 662 113 629 113 600 C113 554 91 515 51 477 L85 457 Z " />
<glyph glyph-name="quotesinglbase" unicode="&#x201a;" horiz-adv-x="244" d="M74 -130 C127 -87 161 -38 161 22 C161 52 156 84 144 119 L81 110 C95 75 102 42 102 13 C102 -33 79 -72 40 -110 L74 -130 Z " />
<glyph glyph-name="quotedblleft" unicode="&#x201c;" horiz-adv-x="411" d="M162 690 C109 647 75 598 75 538 C75 508 80 477 92 441 L155 451 C141 486 135 518 135 547 C135 593 157 633 196 670 L162 690 Z M326 690 C272 647 238 598 238 538 C238 508 243 477 256 441 L319 451 C304 486 298 518 298 547 C298 593 320 633 360 670 L326 690 Z " />
<glyph glyph-name="quotedblright" unicode="&#x201d;" horiz-adv-x="411" d="M85 441 C139 484 173 534 173 593 C173 623 168 655 155 690 L92 681 C107 646 113 613 113 584 C113 538 91 499 51 461 L85 441 Z M249 441 C302 484 336 534 336 593 C336 623 331 655 319 690 L256 681 C270 646 276 613 276 584 C276 538 254 499 215 461 L249 441 Z " />
<glyph glyph-name="quotedblbase" unicode="&#x201e;" horiz-adv-x="408" d="M74 -130 C127 -87 161 -38 161 22 C161 52 156 84 144 119 L81 110 C95 75 102 42 102 13 C102 -33 79 -72 40 -110 L74 -130 Z M237 -130 C291 -87 325 -38 325 22 C325 52 320 84 307 119 L244 110 C259 75 265 42 265 13 C265 -33 243 -72 203 -110 L237 -130 Z " />
<glyph glyph-name="bullet" unicode="&#x2022;" horiz-adv-x="352" d="M176 252 C234 252 270 291 270 342 C270 393 234 432 176 432 C120 432 82 393 82 342 C82 291 120 252 176 252 L176 252 Z " />
<glyph glyph-name="ellipsis" unicode="&#x2026;" horiz-adv-x="639" d="M134 -10 C167 -10 187 6 187 41 C187 73 166 89 137 89 C103 89 82 68 82 36 C82 5 102 -10 134 -10 L134 -10 Z M320 -10 C353 -10 374 6 374 41 C374 73 353 89 324 89 C289 89 269 68 269 36 C269 5 289 -10 320 -10 L320 -10 Z M504 -10 C537 -10 557 6 557 41 C557 73 536 89 507 89 C473 89 452 68 452 36 C452 5 472 -10 504 -10 L504 -10 Z " />
<glyph glyph-name="guilsinglleft" unicode="&#x2039;" horiz-adv-x="312" d="M269 411 L199 411 L53 238 L53 229 L199 57 L269 57 L118 234 L269 411 Z " />
<glyph glyph-name="guilsinglright" unicode="&#x203a;" horiz-adv-x="312" d="M123 416 L53 416 L203 239 L53 61 L123 61 L269 234 L269 243 L123 416 Z " />
<glyph glyph-name="fraction" unicode="&#x2044;" horiz-adv-x="90" d="M-148 0 L-95 0 L238 680 L185 680 L-148 0 Z " />
<glyph glyph-name="Euro" unicode="&#x20ac;" horiz-adv-x="580" d="M522 90 C480 63 424 46 370 46 C267 46 189 105 169 247 L479 247 L483 298 L167 298 C166 307 166 316 166 325 C166 352 168 376 171 398 L488 398 L492 448 L180 448 C213 567 292 635 382 635 C422 635 471 623 504 608 L515 672 C491 682 440 690 400 690 C311 690 239 654 188 590 C157 552 134 503 121 449 L42 449 L42 397 L110 397 C106 369 104 340 104 311 L104 299 L42 299 L42 246 L108 246 C127 75 225 -10 351 -10 C406 -10 475 4 508 24 L526 90 L522 90 Z " />
<glyph glyph-name="trademark" unicode="&#x2122;" horiz-adv-x="862" d="M317 680 L39 680 L36 633 L149 633 L149 310 L204 310 L204 633 L315 633 L317 680 Z M777 313 L747 680 L686 680 L571 376 L466 680 L399 680 L365 310 L416 310 L439 609 L544 311 L591 311 L703 597 L724 309 L777 313 Z " />
<glyph glyph-name="oneeighth" unicode="&#x215b;" horiz-adv-x="844" d="M248 270 L248 675 L218 685 C172 661 110 627 53 604 L76 568 C119 581 157 599 199 620 L199 270 L248 270 Z M562 680 L229 0 L282 0 L615 680 L562 680 Z M707 218 C757 243 781 283 781 322 C781 376 731 416 661 416 C579 416 530 360 530 307 C530 260 559 233 602 212 C545 184 516 141 516 98 C516 37 565 -8 649 -8 C733 -8 795 48 795 114 C795 165 760 193 707 218 L707 218 Z M581 313 C581 345 613 375 657 375 C696 375 730 351 730 315 C730 287 709 257 664 235 C616 255 581 277 581 313 L581 313 Z M655 37 C601 37 571 67 571 108 C571 140 590 171 640 195 L645 193 C703 170 741 152 741 110 C741 69 702 37 655 37 L655 37 Z " />
<glyph glyph-name="threeeighths" unicode="&#x215c;" horiz-adv-x="844" d="M321 401 C321 448 286 492 214 499 C273 520 301 560 301 597 C301 645 258 685 180 685 C138 685 98 677 73 667 L63 618 C94 630 133 639 169 639 C215 639 246 620 246 584 C246 549 207 516 118 504 L122 462 C208 469 265 447 265 394 C265 352 220 311 152 311 C120 311 83 316 46 332 L59 277 C84 269 123 265 148 265 C248 265 321 326 321 401 L321 401 Z M562 680 L229 0 L282 0 L615 680 L562 680 Z M707 218 C757 243 781 283 781 322 C781 376 731 416 661 416 C579 416 530 360 530 307 C530 260 559 233 602 212 C545 184 516 141 516 98 C516 37 565 -8 649 -8 C733 -8 795 48 795 114 C795 165 760 193 707 218 L707 218 Z M581 313 C581 345 613 375 657 375 C696 375 730 351 730 315 C730 287 709 257 664 235 C616 255 581 277 581 313 L581 313 Z M655 37 C601 37 571 67 571 108 C571 140 590 171 640 195 L645 193 C703 170 741 152 741 110 C741 69 702 37 655 37 L655 37 Z " />
<glyph glyph-name="fiveeighths" unicode="&#x215d;" horiz-adv-x="844" d="M562 680 L229 0 L282 0 L615 680 L562 680 Z M325 410 C325 472 268 527 175 527 C156 527 136 525 118 522 L134 634 L299 634 L298 679 L95 679 L67 500 L97 471 C117 478 142 483 164 483 C230 483 271 450 271 404 C271 356 224 311 156 311 C124 311 89 316 54 332 L66 276 C89 269 124 264 153 264 C253 264 325 331 325 410 L325 410 Z M707 218 C757 243 781 283 781 322 C781 376 731 416 661 416 C579 416 530 360 530 307 C530 260 559 233 602 212 C545 184 516 141 516 98 C516 37 565 -8 649 -8 C733 -8 795 48 795 114 C795 165 760 193 707 218 L707 218 Z M581 313 C581 345 613 375 657 375 C696 375 730 351 730 315 C730 287 709 257 664 235 C616 255 581 277 581 313 L581 313 Z M655 37 C601 37 571 67 571 108 C571 140 590 171 640 195 L645 193 C703 170 741 152 741 110 C741 69 702 37 655 37 L655 37 Z " />
<glyph glyph-name="seveneighths" unicode="&#x215e;" horiz-adv-x="844" d="M562 680 L229 0 L282 0 L615 680 L562 680 Z M318 679 L57 679 L49 629 C122 632 203 633 268 633 C200 521 143 406 92 270 L150 270 C195 397 260 528 329 645 L318 679 Z M707 218 C757 243 781 283 781 322 C781 376 731 416 661 416 C579 416 530 360 530 307 C530 260 559 233 602 212 C545 184 516 141 516 98 C516 37 565 -8 649 -8 C733 -8 795 48 795 114 C795 165 760 193 707 218 L707 218 Z M581 313 C581 345 613 375 657 375 C696 375 730 351 730 315 C730 287 709 257 664 235 C616 255 581 277 581 313 L581 313 Z M655 37 C601 37 571 67 571 108 C571 140 590 171 640 195 L645 193 C703 170 741 152 741 110 C741 69 702 37 655 37 L655 37 Z " />
<glyph glyph-name="minus" unicode="&#x2212;" horiz-adv-x="540" d="M57 269 L484 269 L484 320 L57 320 L57 269 Z " />
<glyph glyph-name="uniF8FF" unicode="&#xf8ff;" horiz-adv-x="676" d="M639 -127 C646 -123 652 -120 652 -113 C664 -95 646 -63 643 -63 C612 -42 582 -20 552 7 C551 8 551 11 552 13 C552 16 553 22 549 24 C531 43 514 60 496 76 C481 96 469 116 456 136 C443 157 424 187 415 198 C408 208 378 247 367 262 C353 280 334 304 318 313 C304 321 261 348 244 372 C237 383 227 425 228 443 C230 461 234 471 234 471 C240 485 246 495 253 507 C260 516 270 524 270 536 C268 542 274 552 266 557 C264 557 261 554 261 554 C260 567 264 579 267 590 C270 597 265 605 265 613 C267 618 278 625 271 627 C264 630 271 640 264 640 C257 641 258 654 251 651 C237 641 216 613 214 614 C211 615 215 640 217 653 C216 659 208 656 203 655 C196 653 191 656 189 655 C188 654 169 631 168 630 L160 601 C159 597 158 591 157 597 C156 605 165 629 167 646 C165 648 162 647 161 647 C158 645 150 640 148 638 C145 635 140 623 140 623 C140 620 140 610 137 612 C133 616 137 624 137 627 C137 627 136 630 131 630 C126 630 126 631 124 631 C122 623 117 614 115 610 C110 601 103 591 103 583 C102 580 99 583 98 583 C98 583 89 587 89 580 C89 576 90 573 92 570 C94 566 103 559 102 550 C102 550 99 549 97 547 C93 540 112 505 118 494 C118 493 115 493 115 493 C104 493 64 475 57 468 C49 464 33 447 21 437 C19 434 19 428 22 430 C30 437 59 458 92 466 C125 475 138 453 138 453 C138 453 154 430 137 383 C127 347 113 318 115 273 C119 220 146 187 168 164 C189 142 252 74 261 65 C271 56 278 37 283 31 C288 24 295 16 303 10 C304 6 304 1 304 -4 C304 -9 295 -59 294 -60 C292 -63 285 -63 285 -63 C272 -59 258 -54 244 -52 C240 -52 236 -60 231 -66 C226 -71 235 -76 227 -83 C226 -84 227 -88 227 -88 C227 -88 229 -88 231 -86 C234 -83 237 -84 237 -84 C266 -93 300 -87 303 -87 C305 -86 319 -94 319 -94 L358 -114 C361 -116 364 -123 369 -118 C372 -114 366 -110 366 -110 C365 -107 345 -94 334 -87 C328 -80 322 -71 314 -66 C313 -61 321 -40 323 -32 C325 -23 325 -6 330 6 C334 11 342 16 351 20 C368 13 384 7 396 4 C402 1 406 1 411 -1 C411 -4 410 -7 410 -10 C410 -10 407 -29 407 -32 L403 -37 C402 -41 394 -40 394 -40 C381 -35 368 -31 354 -27 C349 -30 345 -37 341 -41 C335 -46 344 -53 337 -58 C335 -59 335 -63 337 -65 C337 -65 338 -65 340 -62 C342 -58 347 -60 347 -60 C375 -69 398 -62 411 -63 L428 -71 C441 -78 454 -84 467 -93 C470 -93 475 -100 478 -96 C480 -91 477 -89 475 -87 C472 -84 454 -71 443 -63 C437 -56 431 -46 423 -41 C422 -39 424 -37 424 -35 C424 -33 432 -8 432 -8 L432 -7 C450 -14 463 -19 469 -24 C485 -36 502 -45 515 -61 C539 -83 559 -103 587 -118 C611 -136 632 -131 639 -127 L639 -127 Z " />
<glyph glyph-name="fi" unicode="&#xfb01;" horiz-adv-x="539" d="M170 591 C170 617 187 631 210 631 C229 631 249 628 277 624 L289 684 L226 688 C197 686 175 681 151 660 C123 635 114 608 114 572 L114 465 L33 465 L28 418 L114 418 L114 0 L170 0 L170 418 L282 418 L290 465 L170 465 L170 591 Z M424 676 C398 676 378 660 378 629 C378 604 396 590 419 590 C444 590 466 608 466 636 C466 663 449 676 424 676 L424 676 Z M396 0 L451 0 L451 468 L396 462 L396 0 Z " />
<glyph glyph-name="fl" unicode="&#xfb02;" horiz-adv-x="528" d="M396 681 L396 0 L451 0 L451 689 L396 681 Z M170 591 C170 617 187 631 210 631 C229 631 249 628 277 624 L289 684 L226 688 C197 686 175 681 151 660 C123 635 114 608 114 572 L114 465 L33 465 L28 418 L114 418 L114 0 L170 0 L170 418 L282 418 L290 465 L170 465 L170 591 Z " />
</font>
</svg>
