<?xml version="1.0" encoding="UTF-8"?>
<svg xmlns="http://www.w3.org/2000/svg" xmlns:xlink="http://www.w3.org/1999/xlink" version="1.2" >
<font id="Reserva Sans Medium Italic">
<font-face  font-family="Reserva Sans" units-per-em="1000" ascent="780" descent="-220" font-style="italic" font-weight="500" font-stretch="normal" slope="-12" cap-height="680" x-height="467" underline-position="-75" underline-thickness="50" />
<missing-glyph  horiz-adv-x="500" d="M410 780 L93 780 L93 -220 L410 -220 L410 780 Z M333 713 L333 680 L267 680 L267 643 L333 643 L333 610 L167 610 L167 643 L233 643 L233 680 L168 680 L168 713 L333 713 Z M267 584 L267 514 L333 514 L333 480 L167 480 L167 584 L267 584 Z M233 550 L200 550 L200 514 L233 514 L233 550 Z M333 453 L333 420 L267 420 L267 350 L167 350 L167 383 L233 383 L233 420 L167 420 L167 453 L333 453 Z M333 393 L333 293 L167 293 L167 327 L300 327 L300 393 L333 393 Z M333 271 L333 158 L167 158 L167 271 L200 271 L200 191 L300 191 L300 238 L267 238 L267 215 L233 215 L233 271 L333 271 Z M333 98 L333 -15 L167 -15 L167 98 L333 98 Z M300 65 L200 65 L200 18 L300 18 L300 65 Z M333 -38 L333 -71 L301 -71 L231 -118 L333 -118 L333 -151 L167 -151 L167 -118 L237 -71 L167 -71 L167 -38 L333 -38 Z " />
<glyph glyph-name="NULL" d="" />
<glyph glyph-name="CR" unicode="&#xd;" horiz-adv-x="250" d="" />
<glyph glyph-name="space" unicode="&#x20;" horiz-adv-x="203" d="" />
<glyph glyph-name="exclam" unicode="&#x21;" horiz-adv-x="268" d="M103 204 L187 204 L305 680 L188 680 L103 204 Z M90 -10 C140 -10 171 19 171 67 C171 107 142 131 101 131 C54 131 19 99 19 52 C19 10 47 -10 90 -10 L90 -10 Z " />
<glyph glyph-name="quotedbl" unicode="&#x22;" horiz-adv-x="433" d="M107 418 L177 418 L279 651 L282 680 L168 680 L107 418 Z M291 418 L360 418 L462 651 L466 680 L352 680 L291 418 Z " />
<glyph glyph-name="numbersign" unicode="&#x23;" horiz-adv-x="566" d="M597 435 L611 499 L507 499 L580 680 L509 680 L436 499 L299 499 L372 680 L300 680 L227 499 L98 499 L84 435 L202 435 L135 269 L19 269 L5 204 L109 204 L27 0 L99 0 L181 204 L318 204 L236 0 L307 0 L389 204 L523 204 L537 269 L415 269 L482 435 L597 435 Z M344 269 L207 269 L274 435 L411 435 L344 269 Z " />
<glyph glyph-name="dollar" unicode="&#x24;" horiz-adv-x="628" d="M398 551 C441 551 492 543 523 535 L557 641 C527 648 479 652 440 652 L474 790 L374 784 L353 643 C318 636 283 624 256 608 C186 566 150 508 150 450 C150 307 387 305 387 208 C387 159 326 120 248 120 C195 120 120 134 74 154 L80 44 C109 33 154 25 206 25 L208 25 L171 -113 L275 -107 L296 34 C341 44 384 60 416 82 C459 110 514 167 514 238 C514 380 273 389 273 474 C273 518 326 550 398 551 L398 551 Z " />
<glyph glyph-name="percent" unicode="&#x25;" horiz-adv-x="867" d="M192 263 C238 263 281 286 316 323 C367 379 398 467 398 544 C398 631 356 684 281 684 C239 684 198 663 166 629 C113 572 82 482 82 402 C82 315 122 263 192 263 L192 263 Z M245 0 L330 0 L667 680 L582 680 L245 0 Z M213 338 C183 338 168 361 168 407 C168 479 200 609 264 609 C295 609 310 584 310 536 C310 463 275 338 213 338 L213 338 Z M624 -9 C670 -9 713 14 748 51 C799 107 830 195 830 272 C830 359 788 412 713 412 C671 412 630 391 598 357 C545 300 514 210 514 130 C514 43 554 -9 624 -9 L624 -9 Z M645 66 C615 66 600 89 600 135 C600 207 632 337 696 337 C727 337 742 312 742 264 C742 191 707 66 645 66 L645 66 Z " />
<glyph glyph-name="ampersand" unicode="&#x26;" horiz-adv-x="692" d="M678 428 L582 452 C545 347 495 265 442 206 C422 223 403 240 387 258 C361 285 339 313 321 341 C403 387 533 465 533 574 C533 644 476 689 394 689 C269 689 158 581 158 462 C158 426 167 388 184 350 C95 298 7 230 7 129 C7 46 73 -11 183 -11 C263 -11 344 20 419 73 C462 40 507 12 554 -11 L635 90 C592 107 550 129 511 154 C582 229 641 323 678 428 L678 428 Z M369 599 C397 599 421 580 421 552 C421 501 356 447 287 407 C277 434 271 460 271 484 C271 560 327 599 369 599 L369 599 Z M224 85 C164 85 132 118 132 160 C132 210 169 247 221 282 C240 253 263 223 289 194 C310 171 331 149 353 128 C308 99 264 85 224 85 L224 85 Z " />
<glyph glyph-name="quotesingle" unicode="&#x27;" horiz-adv-x="249" d="M107 418 L177 418 L279 651 L282 680 L168 680 L107 418 Z " />
<glyph glyph-name="parenleft" unicode="&#x28;" horiz-adv-x="363" d="M157 -111 L257 -111 C210 -31 188 65 188 163 C188 344 279 544 423 680 L311 680 C166 548 77 349 77 170 C77 71 103 -30 157 -111 L157 -111 Z " />
<glyph glyph-name="parenright" unicode="&#x29;" horiz-adv-x="368" d="M75 -111 C221 28 316 230 316 409 C316 503 291 599 236 680 L135 680 C183 603 205 510 205 412 C205 231 103 32 -40 -111 L75 -111 Z " />
<glyph glyph-name="asterisk" unicode="&#x2a;" horiz-adv-x="436" d="M475 489 L457 585 L436 578 L302 512 L347 659 L351 680 L251 680 L247 659 L253 511 L133 579 L114 586 L70 491 L88 483 L225 463 L108 362 L93 346 L167 287 L181 304 L266 438 L314 304 L324 287 L412 346 L403 362 L315 462 L454 482 L475 489 Z " />
<glyph glyph-name="plus" unicode="&#x2b;" horiz-adv-x="580" d="M518 340 L336 340 L336 519 L245 519 L245 340 L63 340 L63 251 L245 251 L245 71 L336 71 L336 251 L518 251 L518 340 Z " />
<glyph glyph-name="comma" unicode="&#x2c;" horiz-adv-x="283" d="M19 -138 C91 -96 168 -30 168 73 C168 97 162 123 155 141 L47 123 C56 100 61 73 61 53 C61 -18 20 -65 -32 -107 L19 -138 Z " />
<glyph glyph-name="hyphen" unicode="&#x2d;" horiz-adv-x="370" d="M42 227 L326 227 L345 317 L61 317 L42 227 Z " />
<glyph glyph-name="period" unicode="&#x2e;" horiz-adv-x="284" d="M100 -10 C150 -10 182 19 181 67 C182 107 152 131 111 131 C64 131 29 99 29 52 C29 10 57 -10 100 -10 L100 -10 Z " />
<glyph glyph-name="slash" unicode="&#x2f;" horiz-adv-x="342" d="M-128 -189 L-32 -189 L434 680 L338 680 L-128 -189 Z " />
<glyph glyph-name="zero" unicode="0" horiz-adv-x="580" d="M229 -14 C419 -14 568 246 568 463 C568 606 503 690 386 690 C195 690 56 434 56 205 C56 65 123 -14 229 -14 L229 -14 Z M255 84 C199 84 172 132 172 214 C172 404 266 592 364 592 C421 592 451 542 451 458 C451 273 353 84 255 84 L255 84 Z " />
<glyph glyph-name="one" unicode="1" horiz-adv-x="580" d="M437 692 C348 639 229 577 118 523 L146 441 C223 472 291 501 368 542 L251 0 L364 0 L507 672 L437 692 Z " />
<glyph glyph-name="two" unicode="2" horiz-adv-x="580" d="M302 204 C425 305 569 412 569 549 C569 638 491 691 368 691 C302 691 224 676 169 653 L149 547 C208 573 281 589 335 589 C398 589 444 563 444 513 C444 433 351 361 230 258 L28 86 L41 0 L444 0 L492 118 C426 109 317 101 175 99 L302 204 Z " />
<glyph glyph-name="three" unicode="3" horiz-adv-x="580" d="M389 386 C489 424 551 493 551 567 C551 637 490 691 364 691 C297 691 218 675 168 655 L146 553 C200 573 269 589 324 589 C385 589 422 568 422 529 C422 464 339 410 199 394 L192 304 C210 306 231 307 251 307 C330 307 389 280 389 226 C389 154 300 93 192 93 C136 93 87 101 36 125 L31 12 C67 -2 123 -9 176 -9 C365 -9 517 116 517 244 C517 316 470 370 389 386 L389 386 Z " />
<glyph glyph-name="four" unicode="4" horiz-adv-x="580" d="M551 251 C519 250 487 248 455 247 L546 677 L459 695 L36 245 L52 150 L322 150 L290 0 L403 0 L435 150 L530 150 L551 251 Z M150 244 L399 510 L342 245 C278 244 214 244 150 244 L150 244 Z " />
<glyph glyph-name="five" unicode="5" horiz-adv-x="580" d="M547 582 L565 681 L219 681 L109 374 L157 317 C191 329 231 337 267 337 C352 337 402 300 402 245 C402 165 306 93 201 93 C144 93 96 101 45 127 L29 23 C67 2 123 -9 178 -9 C370 -9 523 121 523 266 C523 361 446 432 307 432 C281 432 254 429 227 425 L283 582 L547 582 Z " />
<glyph glyph-name="six" unicode="6" horiz-adv-x="580" d="M347 423 C300 423 252 407 211 375 C288 490 413 569 575 617 L523 695 C209 592 47 386 45 192 C45 67 124 -11 257 -11 C397 -11 537 99 536 247 C536 356 456 423 347 423 L347 423 Z M276 83 C207 83 163 128 163 206 C163 231 167 253 175 275 C212 313 268 334 308 334 C374 334 418 292 418 225 C418 140 346 83 276 83 L276 83 Z " />
<glyph glyph-name="seven" unicode="7" horiz-adv-x="580" d="M596 680 L169 680 L130 571 C243 576 360 578 468 580 C328 402 195 203 83 0 L213 0 C327 213 461 417 611 605 L596 680 Z " />
<glyph glyph-name="eight" unicode="8" horiz-adv-x="580" d="M424 365 C525 411 583 482 583 552 C583 633 511 695 392 695 C245 695 129 598 129 482 C129 419 164 381 206 355 C94 308 36 231 36 147 C36 54 109 -10 233 -10 C398 -10 531 104 531 224 C531 293 486 332 424 365 L424 365 Z M373 610 C426 610 465 582 465 538 C465 486 416 438 340 404 C288 429 243 459 243 507 C243 564 304 610 373 610 L373 610 Z M263 86 C198 86 159 121 159 171 C159 231 204 282 283 318 C284 317 284 317 285 317 C359 286 411 256 411 201 C411 136 341 86 263 86 L263 86 Z " />
<glyph glyph-name="nine" unicode="9" horiz-adv-x="580" d="M371 698 C231 698 91 587 91 439 C92 331 172 264 281 264 C328 264 376 279 417 312 C338 196 213 118 53 69 L105 -9 C419 94 581 301 582 495 C583 620 503 698 371 698 L371 698 Z M453 411 C417 374 360 353 320 353 C254 353 210 394 210 461 C210 546 281 603 352 603 C420 603 465 559 465 480 C465 455 461 433 453 411 L453 411 Z " />
<glyph glyph-name="colon" unicode="&#x3a;" horiz-adv-x="284" d="M167 304 C217 304 249 333 248 381 C249 421 219 445 178 445 C131 445 96 413 96 366 C96 324 124 304 167 304 L167 304 Z M100 -10 C150 -10 182 19 181 67 C182 107 152 131 111 131 C64 131 29 99 29 52 C29 10 57 -10 100 -10 L100 -10 Z " />
<glyph glyph-name="semicolon" unicode="&#x3b;" horiz-adv-x="288" d="M146 294 C196 294 227 323 227 371 C226 411 198 435 157 435 C110 435 75 403 75 356 C74 314 103 294 146 294 L146 294 Z M24 -138 C89 -99 173 -33 173 74 C173 98 167 124 162 134 L55 116 C61 100 66 73 66 51 C66 -18 24 -66 -27 -107 L24 -138 Z " />
<glyph glyph-name="less" unicode="&#x3c;" horiz-adv-x="580" d="M510 428 L480 511 L74 330 L74 253 L480 71 L510 155 L195 292 L510 428 Z " />
<glyph glyph-name="equal" unicode="&#x3d;" horiz-adv-x="580" d="M76 369 L503 369 L503 458 L76 458 L76 369 Z M76 129 L503 129 L503 218 L76 218 L76 129 Z " />
<glyph glyph-name="greater" unicode="&#x3e;" horiz-adv-x="580" d="M100 511 L70 428 L385 292 L70 155 L100 71 L506 253 L506 330 L100 511 Z " />
<glyph glyph-name="question" unicode="&#x3f;" horiz-adv-x="499" d="M515 547 C515 624 438 691 313 691 C255 691 182 676 136 655 L120 546 C176 575 235 589 284 589 C341 589 383 566 383 527 C383 465 310 410 173 348 L152 212 L248 212 L277 302 C406 364 515 435 515 547 L515 547 Z M163 131 C116 131 82 99 81 52 C82 10 110 -10 152 -10 C203 -10 234 19 233 67 C234 107 205 131 163 131 L163 131 Z " />
<glyph glyph-name="at" unicode="&#x40;" horiz-adv-x="860" d="M497 610 C240 610 30 401 30 141 C30 -50 163 -151 322 -151 C381 -151 442 -140 479 -124 L519 -33 C464 -63 407 -75 344 -75 C216 -75 119 7 119 154 C119 377 282 535 492 535 C649 535 748 449 748 325 C748 212 680 105 613 105 C588 105 570 120 570 152 C570 173 580 204 589 233 L636 384 C605 413 545 436 480 436 C346 436 222 299 222 160 C222 79 269 34 329 34 C384 34 437 65 484 137 C483 63 516 26 580 26 C712 26 835 175 835 338 C835 493 702 610 497 610 L497 610 Z M491 235 C467 157 417 116 380 116 C346 116 330 140 330 182 C330 266 394 353 467 353 C489 353 507 349 523 341 L491 235 Z " />
<glyph glyph-name="A" unicode="A" horiz-adv-x="639" d="M540 215 L470 686 L337 680 L-36 0 L89 0 L190 197 L427 197 C435 134 446 53 457 -9 L577 8 C565 59 552 135 540 215 L540 215 Z M236 286 L379 566 L415 286 L236 286 Z " />
<glyph glyph-name="B" unicode="B" horiz-adv-x="617" d="M471 369 C545 400 598 466 598 535 C598 617 529 680 393 680 L188 680 L43 0 L284 0 C426 0 569 102 569 232 C569 296 533 345 471 369 L471 369 Z M284 582 L357 582 C436 582 472 553 472 508 C472 452 432 414 369 398 L245 400 L284 582 Z M336 96 L181 96 L226 311 L352 311 C416 303 450 270 450 226 C450 158 404 117 336 96 L336 96 Z " />
<glyph glyph-name="C" unicode="C" horiz-adv-x="596" d="M323 -14 C376 -14 447 3 495 27 L524 144 C479 116 408 90 354 90 C256 90 190 140 190 258 C190 439 305 584 465 584 C512 584 563 571 600 549 L639 666 C599 680 540 690 483 690 C244 690 66 485 66 236 C66 80 176 -14 323 -14 L323 -14 Z " />
<glyph glyph-name="D" unicode="D" horiz-adv-x="706" d="M394 680 L188 680 L43 0 L282 0 C510 16 682 198 682 415 C682 570 583 680 394 680 L394 680 Z M313 95 L180 96 L284 585 L367 585 C487 585 556 525 556 405 C556 243 453 129 313 95 L313 95 Z " />
<glyph glyph-name="E" unicode="E" horiz-adv-x="545" d="M549 579 L568 680 L188 680 L43 0 L440 0 L469 101 L182 101 L227 313 L466 313 L490 410 L247 410 L283 579 L549 579 Z " />
<glyph glyph-name="F" unicode="F" horiz-adv-x="509" d="M536 579 L566 680 L188 680 L43 0 L160 0 L220 283 L447 283 L472 380 L240 380 L283 579 L536 579 Z " />
<glyph glyph-name="G" unicode="G" horiz-adv-x="660" d="M493 580 C545 580 604 567 643 550 L684 668 C650 679 582 690 525 690 C273 690 68 487 68 255 C68 80 180 -10 340 -10 C406 -10 495 5 544 25 L604 307 L499 307 L457 103 C429 97 400 94 371 94 C267 94 193 143 193 272 C193 441 320 580 493 580 L493 580 Z " />
<glyph glyph-name="H" unicode="H" horiz-adv-x="701" d="M586 680 L526 400 L246 400 L306 680 L188 680 L43 0 L161 0 L226 304 L506 304 L441 0 L558 0 L703 680 L586 680 Z " />
<glyph glyph-name="I" unicode="I" horiz-adv-x="292" d="M38 0 L155 0 L300 680 L183 680 L38 0 Z " />
<glyph glyph-name="J" unicode="J" horiz-adv-x="406" d="M33 -11 C100 -8 155 10 203 47 C249 81 290 129 305 200 L408 680 L291 680 L191 205 C175 132 117 95 16 89 L33 -11 Z " />
<glyph glyph-name="K" unicode="K" horiz-adv-x="630" d="M688 680 L543 680 L232 336 L305 680 L188 680 L43 0 L160 0 L230 328 L424 -8 L554 1 L353 333 L688 680 Z " />
<glyph glyph-name="L" unicode="L" horiz-adv-x="508" d="M182 101 L305 680 L188 680 L43 0 L417 0 L450 101 L182 101 Z " />
<glyph glyph-name="M" unicode="M" horiz-adv-x="868" d="M713 680 L416 172 L343 686 L226 680 L14 0 L124 0 L269 498 L343 4 L417 7 L702 489 L636 -3 L753 0 L836 685 L713 680 Z " />
<glyph glyph-name="N" unicode="N" horiz-adv-x="743" d="M635 679 L531 186 L283 686 L191 680 L43 0 L156 0 L261 497 L507 -6 L601 6 L745 684 L635 679 Z " />
<glyph glyph-name="O" unicode="O" horiz-adv-x="718" d="M304 -14 C390 -14 485 24 563 107 C644 190 697 320 697 431 C697 578 601 689 448 689 C365 689 275 650 207 584 C123 503 67 371 67 243 C67 84 169 -14 304 -14 L304 -14 Z M330 87 C239 87 189 145 189 251 C189 432 288 588 428 588 C521 588 573 524 573 421 C573 245 468 87 330 87 L330 87 Z " />
<glyph glyph-name="P" unicode="P" horiz-adv-x="582" d="M371 680 L188 680 L43 0 L160 0 L214 255 C242 250 277 246 306 246 C362 246 430 263 480 297 C547 345 595 419 595 503 C595 600 518 680 371 680 L371 680 Z M314 343 C291 343 260 347 235 352 L285 587 L345 587 C420 587 468 554 468 491 C468 409 405 343 314 343 L314 343 Z " />
<glyph glyph-name="Q" unicode="Q" horiz-adv-x="724" d="M563 107 C644 190 697 320 697 431 C697 578 601 689 448 689 C365 689 275 650 207 584 C123 503 67 371 67 243 C67 84 169 -14 304 -14 C319 -14 333 -13 348 -11 C401 -97 477 -164 541 -205 L543 -205 L634 -110 L636 -106 C578 -80 501 -28 450 22 C490 42 528 70 563 107 L563 107 Z M189 251 C189 432 288 588 428 588 C521 588 573 524 573 421 C573 245 468 87 330 87 C239 87 189 145 189 251 L189 251 Z " />
<glyph glyph-name="R" unicode="R" horiz-adv-x="623" d="M589 521 C589 606 516 680 390 680 L188 680 L43 0 L160 0 L219 276 L302 272 C335 180 373 93 418 0 L551 0 L552 6 C499 99 451 200 412 305 C499 339 589 414 589 521 L589 521 Z M285 586 L345 586 C421 586 461 556 461 503 C461 449 420 399 342 368 L239 371 L285 586 Z " />
<glyph glyph-name="S" unicode="S" horiz-adv-x="521" d="M159 -10 C220 -10 296 1 359 43 C432 91 472 154 472 222 C472 307 395 352 330 392 C279 423 235 454 235 493 C235 544 293 581 367 581 C406 581 459 571 489 563 L522 677 C494 683 456 690 408 690 C336 690 268 670 209 630 C151 590 114 533 114 473 C114 393 186 349 250 308 C302 275 349 243 349 199 C349 139 282 93 201 93 C143 93 69 110 24 129 L27 12 C53 -1 104 -10 159 -10 L159 -10 Z " />
<glyph glyph-name="T" unicode="T" horiz-adv-x="528" d="M595 680 L131 680 L102 578 L283 578 L160 0 L276 0 L399 578 L568 578 L595 680 Z " />
<glyph glyph-name="U" unicode="U" horiz-adv-x="683" d="M274 -16 C327 -16 405 -1 467 44 C530 89 573 152 586 217 L685 680 L569 680 L473 226 C453 134 385 84 303 84 C242 84 200 107 200 167 C200 178 201 188 204 201 L306 680 L189 680 L89 215 C83 188 81 166 81 150 C81 38 169 -16 274 -16 L274 -16 Z " />
<glyph glyph-name="V" unicode="V" horiz-adv-x="603" d="M548 680 C474 484 382 288 278 93 L254 450 C248 543 237 618 229 687 L108 679 C123 591 132 527 140 447 L184 -5 L329 0 C447 194 562 420 675 680 L548 680 Z " />
<glyph glyph-name="W" unicode="W" horiz-adv-x="900" d="M856 680 C789 500 709 319 619 135 L611 386 C607 483 598 577 594 675 L490 675 L237 152 L235 386 C235 490 231 578 225 687 L106 673 C115 579 121 489 126 377 L145 0 L255 0 L500 509 L506 359 L523 0 L643 0 C766 227 876 456 972 680 L856 680 Z " />
<glyph glyph-name="X" unicode="X" horiz-adv-x="623" d="M704 682 L566 682 L350 423 L242 695 L121 664 L272 346 L-35 0 L102 0 L319 262 L432 -11 L551 10 L397 340 L704 682 Z " />
<glyph glyph-name="Y" unicode="Y" horiz-adv-x="583" d="M525 680 L334 397 L240 689 L116 680 L256 305 L191 0 L307 0 L372 301 L657 680 L525 680 Z " />
<glyph glyph-name="Z" unicode="Z" horiz-adv-x="567" d="M595 590 L594 680 L156 680 L123 576 L444 581 L8 90 L14 0 L464 0 L496 104 L153 100 L595 590 Z " />
<glyph glyph-name="bracketleft" unicode="&#x5b;" horiz-adv-x="358" d="M383 597 L400 680 L180 680 L12 -111 L233 -111 L250 -28 L136 -28 L268 597 L383 597 Z " />
<glyph glyph-name="backslash" unicode="&#x5c;" horiz-adv-x="386" d="M245 -189 L336 -189 L181 680 L90 680 L245 -189 Z " />
<glyph glyph-name="bracketright" unicode="&#x5d;" horiz-adv-x="358" d="M368 680 L148 680 L130 597 L244 597 L113 -28 L-3 -28 L-20 -111 L200 -111 L368 680 Z " />
<glyph glyph-name="underscore" unicode="&#x5f;" horiz-adv-x="580" d="M-62 -187 L518 -187 L535 -107 L-45 -107 L-62 -187 Z " />
<glyph glyph-name="grave" unicode="&#x60;" horiz-adv-x="364" d="M360 537 L363 537 L400 593 L401 596 C325 630 255 672 186 716 L181 716 L123 623 C200 590 277 560 360 537 L360 537 Z " />
<glyph glyph-name="a" unicode="a" horiz-adv-x="503" d="M437 467 L399 430 C364 461 324 479 280 479 C138 479 26 278 26 123 C26 41 60 -9 122 -9 C183 -9 259 42 309 140 C298 82 294 44 293 0 L399 0 C401 68 409 129 428 210 L489 467 L437 467 Z M172 84 C149 84 136 103 136 146 C136 247 209 395 291 395 C316 395 340 381 360 360 C308 159 217 84 172 84 L172 84 Z " />
<glyph glyph-name="b" unicode="b" horiz-adv-x="504" d="M349 476 C296 476 245 447 211 385 L209 385 L272 690 L162 675 L58 171 C46 114 31 66 19 28 C56 4 112 -12 188 -12 C343 -12 474 153 474 324 C474 411 427 476 349 476 L349 476 Z M210 78 C188 78 168 81 147 88 L174 214 C199 334 246 383 301 383 C338 383 357 350 357 299 C357 189 289 78 210 78 L210 78 Z " />
<glyph glyph-name="c" unicode="c" horiz-adv-x="416" d="M205 -11 C240 -11 298 1 334 20 L343 117 L340 117 C314 99 268 85 229 85 C177 85 145 117 145 180 C145 291 222 383 305 383 C340 383 368 372 391 360 L423 459 C406 468 362 478 321 478 C158 478 34 332 34 162 C34 55 102 -11 205 -11 L205 -11 Z " />
<glyph glyph-name="d" unicode="d" horiz-adv-x="493" d="M541 688 L435 680 L378 448 C351 468 323 479 291 479 C138 479 25 272 25 119 C25 37 60 -9 126 -9 C189 -9 263 47 310 145 C298 84 293 45 293 0 L400 0 C398 65 405 127 423 201 L541 688 Z M174 84 C150 84 136 105 136 144 C136 250 211 393 293 393 C318 393 339 381 358 364 C320 182 222 84 174 84 L174 84 Z " />
<glyph glyph-name="e" unicode="e" horiz-adv-x="455" d="M218 204 C363 220 445 283 445 375 C445 436 395 479 315 479 C171 479 34 333 34 161 C34 58 101 -10 209 -10 C267 -10 327 10 370 35 L389 141 L386 141 C352 112 289 83 235 83 C177 83 141 109 141 176 C141 184 141 192 142 199 C169 200 195 201 218 204 L218 204 Z M300 399 C330 399 349 385 349 358 C349 319 307 288 203 275 C189 273 174 272 157 271 C184 346 241 399 300 399 L300 399 Z " />
<glyph glyph-name="f" unicode="f" horiz-adv-x="357" d="M332 589 C357 589 378 585 395 582 L431 684 L373 692 C315 688 283 677 248 649 C198 610 178 573 167 521 L156 467 L85 467 L60 386 L139 386 L20 -177 L130 -177 L250 386 L369 386 L387 467 L267 467 L285 552 C290 577 306 589 332 589 L332 589 Z " />
<glyph glyph-name="g" unicode="g" horiz-adv-x="494" d="M441 467 L408 431 C373 462 334 479 296 479 C144 479 25 273 25 122 C25 44 58 -2 121 -2 C182 -2 260 46 314 134 L274 -19 C258 -81 224 -106 178 -106 C126 -106 62 -84 11 -48 L2 -150 C38 -172 106 -193 179 -196 C259 -187 345 -134 373 -26 L497 467 L441 467 Z M171 91 C147 91 135 112 135 149 C135 251 210 396 287 396 C318 396 345 379 367 360 C309 163 220 91 171 91 L171 91 Z " />
<glyph glyph-name="h" unicode="h" horiz-adv-x="536" d="M24 0 L130 0 L167 167 C204 338 292 388 334 388 C363 388 381 371 381 341 C381 319 374 287 366 252 L309 0 L416 0 L469 240 C481 292 493 340 493 379 C493 435 457 479 389 479 C331 479 260 449 207 355 L203 357 C230 486 252 604 259 687 L156 677 C149 604 132 501 104 373 L24 0 Z " />
<glyph glyph-name="i" unicode="i" horiz-adv-x="254" d="M198 562 C245 562 282 597 282 642 C282 674 260 692 222 692 C172 692 137 660 137 613 C137 580 161 562 198 562 L198 562 Z M23 0 L132 0 L231 468 L122 466 L23 0 Z " />
<glyph glyph-name="j" unicode="j" horiz-adv-x="253" d="M201 562 C248 562 285 597 285 642 C285 674 263 692 225 692 C175 692 140 660 140 613 C140 580 164 562 201 562 L201 562 Z M-64 -193 C-21 -187 15 -171 52 -145 C88 -119 117 -87 127 -37 L234 467 L124 467 L14 -49 C7 -83 -17 -99 -42 -99 C-56 -99 -68 -98 -84 -94 L-116 -185 L-64 -193 Z " />
<glyph glyph-name="k" unicode="k" horiz-adv-x="490" d="M373 322 C431 372 464 411 509 467 L379 467 C364 442 323 395 278 352 L181 259 L276 692 L166 681 L15 0 L124 0 L179 249 L307 -8 L423 0 L286 248 L373 322 Z " />
<glyph glyph-name="l" unicode="l" horiz-adv-x="241" d="M15 0 L123 0 L273 692 L163 681 L15 0 Z " />
<glyph glyph-name="m" unicode="m" horiz-adv-x="779" d="M24 0 L132 0 L171 177 C201 316 274 384 319 384 C345 384 357 365 357 340 C357 320 350 288 340 243 L286 0 L395 0 L432 168 C458 287 517 384 583 384 C608 384 621 366 621 340 C621 320 616 287 607 249 L548 0 L656 0 L713 241 C724 289 734 338 734 374 C734 431 697 478 630 478 C574 478 511 444 466 370 L465 370 C466 430 435 478 368 478 C312 478 262 449 210 369 L207 369 C214 408 218 444 218 474 L118 467 C113 425 104 371 96 330 L24 0 Z " />
<glyph glyph-name="n" unicode="n" horiz-adv-x="533" d="M25 0 L132 0 L168 167 C207 345 290 387 329 387 C361 387 378 366 378 339 C378 319 371 287 363 252 L308 0 L415 0 L467 240 C478 292 491 341 491 380 C491 435 453 479 386 479 C328 479 260 449 210 368 L206 370 C217 432 218 457 218 476 L117 463 C111 415 105 376 96 331 L25 0 Z " />
<glyph glyph-name="o" unicode="o" horiz-adv-x="494" d="M195 -11 C345 -11 460 152 460 306 C460 414 391 479 292 479 C148 479 34 323 34 162 C34 62 92 -11 195 -11 L195 -11 Z M213 82 C171 82 148 117 148 180 C148 292 204 387 276 387 C318 387 347 353 347 292 C347 172 291 82 213 82 L213 82 Z " />
<glyph glyph-name="p" unicode="p" horiz-adv-x="500" d="M344 478 C294 478 249 450 202 381 L200 382 C213 434 214 464 214 477 L107 467 C107 430 96 357 81 286 L-25 -195 L84 -183 L127 10 C151 -3 182 -11 217 -11 C345 -11 470 154 470 329 C470 419 419 478 344 478 L344 478 Z M214 78 C192 78 167 87 147 101 L171 210 C199 338 261 384 306 384 C340 384 356 360 356 314 C356 190 288 78 214 78 L214 78 Z " />
<glyph glyph-name="q" unicode="q" horiz-adv-x="503" d="M434 467 L396 431 C362 462 325 479 284 479 C145 479 26 281 26 125 C26 42 60 -9 126 -9 C188 -9 269 50 307 141 L234 -193 L345 -181 L485 467 L434 467 Z M174 84 C150 84 136 107 136 146 C136 249 206 393 289 393 C313 393 335 379 353 362 C299 159 220 84 174 84 L174 84 Z " />
<glyph glyph-name="r" unicode="r" horiz-adv-x="347" d="M23 0 L130 0 L172 197 C198 317 246 358 296 358 C316 358 337 355 352 352 L371 469 C353 475 332 478 318 478 C286 478 256 448 195 350 L193 350 C204 404 207 444 208 477 L106 467 C105 414 100 364 90 313 L23 0 Z " />
<glyph glyph-name="s" unicode="s" horiz-adv-x="397" d="M137 -11 C246 -11 351 57 351 156 C351 216 307 248 243 281 C195 304 172 318 172 345 C172 372 202 392 240 392 C283 392 329 381 366 368 L377 462 C348 471 311 478 268 478 C160 478 66 416 66 325 C66 266 102 239 163 207 C217 176 248 158 248 130 C248 101 211 75 169 75 C126 75 64 91 20 117 L9 17 C37 1 88 -11 137 -11 L137 -11 Z " />
<glyph glyph-name="t" unicode="t" horiz-adv-x="368" d="M237 382 L359 382 L365 467 L256 467 L286 610 L278 610 L172 579 L148 467 L77 467 L50 382 L130 382 L82 160 C74 122 69 96 69 73 C69 18 99 -11 163 -11 C200 -11 242 -2 276 15 L299 106 L296 106 C264 88 232 80 211 80 C192 80 182 90 182 109 C182 122 186 136 191 164 L237 382 Z " />
<glyph glyph-name="u" unicode="u" horiz-adv-x="528" d="M149 -10 C216 -10 273 23 317 103 L320 103 C311 68 309 32 309 0 L410 0 C412 52 418 95 427 137 L497 467 L391 467 L348 262 C322 137 254 82 205 82 C175 82 160 102 160 129 C160 148 164 170 169 194 L227 467 L120 467 L63 208 C53 164 45 132 45 97 C45 31 87 -10 149 -10 L149 -10 Z " />
<glyph glyph-name="v" unicode="v" horiz-adv-x="458" d="M369 467 C329 347 273 228 204 110 L190 297 C186 356 178 413 165 475 L57 457 C71 401 81 341 87 287 L118 0 L228 0 C334 155 418 311 484 473 L369 467 Z " />
<glyph glyph-name="w" unicode="w" horiz-adv-x="690" d="M610 467 C573 342 524 231 469 128 C465 244 455 358 439 467 L346 467 C300 346 247 233 189 129 L186 280 C185 352 179 418 170 475 L63 457 C73 400 81 339 85 278 L104 0 L201 0 C262 91 315 196 363 309 C373 205 379 110 383 0 L486 0 C578 141 655 297 715 467 L610 467 Z " />
<glyph glyph-name="x" unicode="x" horiz-adv-x="477" d="M512 467 L388 467 C354 414 306 356 258 304 L193 480 L80 453 L184 240 C105 166 34 83 -32 0 L95 0 C132 57 178 114 226 167 L298 -10 L409 9 L298 232 C379 311 450 388 512 467 L512 467 Z " />
<glyph glyph-name="y" unicode="y" horiz-adv-x="479" d="M381 470 C336 348 280 229 214 105 L197 284 C191 355 181 418 169 477 L54 461 C71 400 82 336 91 271 L127 17 L156 11 L139 -19 C109 -73 70 -94 39 -94 C13 -94 -14 -89 -35 -83 L-59 -181 L14 -199 C126 -199 193 -107 232 -43 C348 151 431 312 497 470 L381 470 Z " />
<glyph glyph-name="z" unicode="z" horiz-adv-x="434" d="M428 402 L407 467 L102 467 L74 375 C144 377 214 377 284 378 L-3 67 L17 0 L338 0 L372 97 C299 94 213 91 135 90 L428 402 Z " />
<glyph glyph-name="braceleft" unicode="&#x7b;" horiz-adv-x="346" d="M161 -116 L229 -109 L259 -25 C239 -30 215 -31 193 -31 C166 -31 149 -21 149 5 C149 89 229 151 229 231 C229 267 212 285 179 287 L179 289 C230 298 258 331 258 399 C258 433 254 470 254 505 C254 574 282 605 327 605 C346 605 366 600 378 594 L394 678 C378 685 352 690 323 690 C229 690 153 635 153 504 C153 462 157 421 157 392 C157 347 141 327 111 327 L81 327 L60 247 L92 247 C112 247 124 238 124 221 C124 154 36 67 36 -27 C36 -84 80 -116 161 -116 L161 -116 Z " />
<glyph glyph-name="bar" unicode="&#x7c;" horiz-adv-x="383" d="M104 -172 L194 -172 L306 766 L216 766 L104 -172 Z " />
<glyph glyph-name="braceright" unicode="&#x7d;" horiz-adv-x="341" d="M205 690 L137 683 L109 599 C127 604 147 605 168 605 C196 605 215 594 215 565 C215 478 135 409 135 342 C135 311 148 290 185 287 L185 285 C132 276 106 241 106 175 C106 141 111 104 111 69 C111 0 82 -31 37 -31 C18 -31 -2 -26 -15 -20 L-28 -104 C-12 -111 14 -116 40 -116 C135 -116 210 -58 210 81 C210 118 207 156 207 183 C207 227 224 247 253 247 L283 247 L304 327 L271 327 C251 327 240 336 240 355 C240 430 328 495 328 604 C328 656 285 690 205 690 L205 690 Z " />
<glyph glyph-name="exclamdown" unicode="&#xa1;" horiz-adv-x="269" d="M179 479 C129 479 97 450 98 402 C97 362 126 338 168 338 C215 338 249 370 250 417 C249 459 222 479 179 479 L179 479 Z M165 265 L81 265 L-37 -211 L80 -211 L165 265 Z " />
<glyph glyph-name="cent" unicode="&#xa2;" horiz-adv-x="505" d="M366 483 C406 483 450 473 475 461 L520 561 C498 568 460 575 420 577 L461 736 L358 730 L332 572 C185 544 58 417 58 274 C58 169 118 104 217 91 L176 -66 L274 -62 L297 92 C336 96 374 105 404 117 L448 224 L444 224 C407 203 345 186 292 186 C220 186 173 220 173 298 C173 403 257 483 366 483 L366 483 Z " />
<glyph glyph-name="sterling" unicode="&#xa3;" horiz-adv-x="580" d="M421 584 C465 584 515 574 551 559 L593 669 C557 681 501 690 441 690 C301 690 178 581 178 443 C178 427 179 404 180 379 L104 379 L85 302 L184 302 C185 284 186 269 186 258 C186 141 133 97 63 80 L87 1 L458 1 L494 100 L221 100 C284 136 306 200 306 288 L306 302 L468 302 L487 379 L301 379 C299 406 297 433 297 460 C297 537 333 584 421 584 L421 584 Z " />
<glyph glyph-name="yen" unicode="&#xa5;" horiz-adv-x="580" d="M651 680 L519 680 L328 372 L244 680 L118 680 L230 361 L109 361 L93 286 L249 286 L232 207 L77 207 L61 131 L215 131 L187 0 L305 0 L333 131 L488 131 L504 207 L349 207 L366 286 L521 286 L537 361 L413 361 L651 680 Z " />
<glyph glyph-name="section" unicode="&#xa7;" horiz-adv-x="533" d="M248 518 C248 563 300 595 363 595 C398 595 453 585 482 574 L519 679 C493 684 444 690 397 690 C331 690 267 671 216 636 C166 602 130 551 130 491 C130 439 159 406 197 380 C110 352 46 290 46 217 C46 77 290 69 290 -19 C290 -66 228 -107 157 -107 C106 -107 35 -88 4 -70 L-9 -179 C17 -189 67 -198 124 -198 C193 -198 264 -178 319 -141 C373 -105 412 -53 412 4 C412 53 383 85 345 110 C435 147 497 212 497 281 C497 408 248 434 248 518 L248 518 Z M260 153 C206 177 159 199 159 238 C159 287 225 326 295 328 C341 306 378 284 378 248 C378 201 335 166 260 153 L260 153 Z " />
<glyph glyph-name="dieresis" unicode="&#xa8;" horiz-adv-x="377" d="M172 564 C217 564 252 599 252 644 C252 676 231 694 195 694 C148 694 116 662 116 615 C116 582 138 564 172 564 L172 564 Z M352 564 C397 564 432 599 432 644 C432 676 411 694 375 694 C328 694 296 662 296 615 C296 582 318 564 352 564 L352 564 Z " />
<glyph glyph-name="copyright" unicode="&#xa9;" horiz-adv-x="778" d="M367 -8 C584 -8 770 172 770 395 C770 569 622 690 458 690 C238 690 53 504 53 286 C53 113 188 -8 367 -8 L367 -8 Z M372 54 C232 54 122 158 122 297 C122 481 268 628 447 628 C583 628 702 528 702 386 C702 199 554 54 372 54 L372 54 Z M382 167 C414 167 451 176 480 190 L498 258 L495 258 C473 245 440 233 409 233 C358 233 319 259 319 316 C319 390 375 451 453 451 C482 451 510 444 526 435 L551 496 C529 506 492 517 455 517 C339 517 240 415 240 305 C240 210 306 167 382 167 L382 167 Z " />
<glyph glyph-name="ordfeminine" unicode="&#xaa;" horiz-adv-x="414" d="M412 681 L386 654 C355 679 323 689 293 689 C177 689 88 536 88 432 C88 371 119 336 167 336 C213 336 278 369 314 441 C309 400 305 374 307 342 L397 342 C397 404 405 452 417 499 L463 681 L412 681 Z M214 419 C196 419 187 434 187 458 C187 521 240 618 297 618 C315 618 333 609 349 598 C311 469 246 419 214 419 L214 419 Z " />
<glyph glyph-name="guillemotleft" unicode="&#xab;" horiz-adv-x="561" d="M327 413 L211 413 L31 237 L29 227 L138 51 L251 51 L136 231 L327 413 Z M559 413 L444 413 L264 237 L262 227 L370 51 L484 51 L369 231 L559 413 Z " />
<glyph glyph-name="logicalnot" unicode="&#xac;" horiz-adv-x="580" d="M515 441 L65 441 L65 352 L426 352 L426 134 L515 134 L515 441 Z " />
<glyph glyph-name="registered" unicode="&#xae;" horiz-adv-x="501" d="M333 690 C200 690 91 575 91 443 C91 344 163 268 269 268 C398 268 514 384 514 513 C514 614 440 690 333 690 L333 690 Z M277 311 C193 311 137 372 137 450 C137 556 219 647 325 647 C409 647 469 586 469 508 C469 402 378 311 277 311 L277 311 Z M397 537 C397 564 375 583 333 583 L250 583 L208 385 L254 385 L269 455 L305 453 L328 385 L380 385 L381 387 L346 468 C379 486 397 510 397 537 L397 537 Z M287 540 L320 540 C337 540 346 534 346 523 C346 510 334 498 318 492 L277 493 L287 540 Z " />
<glyph glyph-name="degree" unicode="&#xb0;" horiz-adv-x="418" d="M235 337 C351 337 445 436 445 549 C445 635 386 690 297 690 C183 690 92 591 92 478 C92 393 150 337 235 337 L235 337 Z M248 419 C207 419 180 447 180 490 C180 553 227 606 285 606 C329 606 357 578 357 533 C357 470 306 419 248 419 L248 419 Z " />
<glyph glyph-name="acute" unicode="&#xb4;" horiz-adv-x="364" d="M308 716 C224 672 138 634 41 596 L40 593 L54 537 L57 537 C155 562 244 591 330 623 L313 716 L308 716 Z " />
<glyph glyph-name="paragraph" unicode="&#xb6;" horiz-adv-x="554" d="M344 690 C191 663 80 539 80 398 C80 312 126 255 218 255 C245 255 268 260 287 267 L253 107 C226 -21 193 -88 86 -170 L110 -201 C227 -130 285 -20 313 107 L435 680 L344 690 Z M497 680 L352 0 L411 0 L556 680 L497 680 Z " />
<glyph glyph-name="periodcentered" unicode="&#xb7;" horiz-adv-x="284" d="M141 185 C192 185 223 214 222 262 C223 302 194 326 152 326 C106 326 71 294 70 247 C71 205 99 185 141 185 L141 185 Z " />
<glyph glyph-name="cedilla" unicode="&#xb8;" horiz-adv-x="302" d="M104 -39 L132 0 L65 0 L15 -73 L15 -74 C67 -91 99 -109 99 -130 C99 -152 74 -167 42 -167 C16 -167 -18 -160 -42 -150 L-46 -217 C-24 -225 3 -229 34 -229 C116 -229 186 -178 186 -118 C186 -83 157 -58 104 -39 L104 -39 Z " />
<glyph glyph-name="ordmasculine" unicode="&#xba;" horiz-adv-x="409" d="M229 336 C341 336 434 444 434 559 C434 644 374 690 299 690 C187 690 95 585 95 469 C95 386 148 336 229 336 L229 336 Z M240 412 C207 412 188 436 188 479 C188 543 228 615 285 615 C318 615 342 592 342 548 C342 481 296 412 240 412 L240 412 Z " />
<glyph glyph-name="guillemotright" unicode="&#xbb;" horiz-adv-x="564" d="M298 246 L190 422 L82 422 L192 248 L-7 60 L114 60 L296 237 L298 246 Z M422 422 L313 422 L424 248 L225 60 L346 60 L528 237 L530 246 L422 422 Z " />
<glyph glyph-name="onequarter" unicode="&#xbc;" horiz-adv-x="867" d="M266 270 L351 674 L291 687 C244 658 185 628 118 597 L139 536 C177 549 210 562 242 577 L177 270 L266 270 Z M582 680 L245 0 L330 0 L667 680 L582 680 Z M827 156 L768 153 L821 403 L753 416 L499 154 L508 83 L668 83 L650 -2 L735 -2 L753 83 L812 83 L827 156 Z M576 151 L713 292 L683 152 C647 151 612 151 576 151 L576 151 Z " />
<glyph glyph-name="onehalf" unicode="&#xbd;" horiz-adv-x="867" d="M266 270 L351 674 L291 687 C244 658 185 628 118 597 L139 536 C177 549 210 562 242 577 L177 270 L266 270 Z M582 680 L245 0 L330 0 L667 680 L582 680 Z M674 126 C748 186 828 246 828 321 C828 376 774 413 697 413 C661 413 616 406 583 393 L559 312 C596 326 638 335 675 335 C706 335 730 322 730 296 C730 256 682 219 614 163 L490 62 L501 -2 L751 -2 L785 83 C736 79 685 75 607 72 L674 126 Z " />
<glyph glyph-name="threequarters" unicode="&#xbe;" horiz-adv-x="867" d="M369 422 C369 461 346 492 301 504 C355 526 388 560 388 603 C388 649 348 685 269 685 C227 685 182 677 153 667 L135 586 C166 598 207 607 237 607 C266 607 289 598 289 577 C289 544 240 517 162 508 L158 444 C227 451 271 439 271 404 C271 369 224 341 164 341 C130 341 102 345 71 359 L65 275 C87 269 125 265 153 265 C267 265 369 338 369 422 L369 422 Z M582 680 L245 0 L330 0 L667 680 L582 680 Z M827 156 L768 153 L821 403 L753 416 L499 154 L508 83 L668 83 L650 -2 L735 -2 L753 83 L812 83 L827 156 Z M576 151 L713 292 L683 152 C647 151 612 151 576 151 L576 151 Z " />
<glyph glyph-name="questiondown" unicode="&#xbf;" horiz-adv-x="499" d="M357 477 C306 477 275 448 275 400 C275 361 304 337 345 337 C392 337 427 368 428 415 C427 458 399 477 357 477 L357 477 Z M126 -59 C126 3 199 57 336 119 L357 255 L261 255 L232 166 C103 103 -7 32 -7 -80 C-7 -157 71 -224 196 -224 C254 -224 326 -209 373 -188 L389 -79 C333 -107 274 -122 224 -122 C167 -122 126 -99 126 -59 L126 -59 Z " />
<glyph glyph-name="Agrave" unicode="&#xc0;" horiz-adv-x="639" d="M519 750 L556 806 L557 809 C482 843 411 885 342 929 L337 929 L279 836 C356 803 433 773 516 750 L519 750 Z M540 215 L470 686 L337 680 L-36 0 L89 0 L190 197 L427 197 C435 134 446 53 457 -9 L577 8 C565 59 552 135 540 215 L540 215 Z M236 286 L379 566 L415 286 L236 286 Z " />
<glyph glyph-name="Aacute" unicode="&#xc1;" horiz-adv-x="639" d="M299 750 C397 775 486 804 572 836 L555 929 L550 929 C466 885 380 847 283 809 L282 806 L296 750 L299 750 Z M540 215 L470 686 L337 680 L-36 0 L89 0 L190 197 L427 197 C435 134 446 53 457 -9 L577 8 C565 59 552 135 540 215 L540 215 Z M236 286 L379 566 L415 286 L236 286 Z " />
<glyph glyph-name="Acircumflex" unicode="&#xc2;" horiz-adv-x="639" d="M479 930 L414 930 L251 776 L250 773 L294 739 L298 739 L426 836 C459 801 493 771 533 739 L536 739 L582 772 L582 775 C530 847 506 886 479 930 L479 930 Z M470 686 L337 680 L-36 0 L89 0 L190 197 L427 197 C435 134 446 53 457 -9 L577 8 C565 59 552 135 540 215 L470 686 Z M236 286 L379 566 L415 286 L236 286 Z " />
<glyph glyph-name="Atilde" unicode="&#xc3;" horiz-adv-x="639" d="M361 792 C400 792 435 748 481 748 C520 748 563 779 604 840 L554 887 C529 856 509 842 485 842 C448 842 413 884 370 884 C327 884 284 851 248 793 L286 744 C314 775 338 792 361 792 L361 792 Z M470 686 L337 680 L-36 0 L89 0 L190 197 L427 197 C435 134 446 53 457 -9 L577 8 C565 59 552 135 540 215 L470 686 Z M236 286 L379 566 L415 286 L236 286 Z " />
<glyph glyph-name="Adieresis" unicode="&#xc4;" horiz-adv-x="639" d="M327 763 C372 763 406 798 406 842 C406 875 385 893 349 893 C303 893 270 860 270 814 C270 781 292 763 327 763 L327 763 Z M510 763 C555 763 590 798 590 842 C590 875 568 893 533 893 C486 893 453 860 453 814 C453 781 476 763 510 763 L510 763 Z M470 686 L337 680 L-36 0 L89 0 L190 197 L427 197 C435 134 446 53 457 -9 L577 8 C565 59 552 135 540 215 L470 686 Z M236 286 L379 566 L415 286 L236 286 Z " />
<glyph glyph-name="Aring" unicode="&#xc5;" horiz-adv-x="639" d="M416 744 C493 744 554 800 554 866 C554 921 511 954 452 954 C376 954 315 896 315 830 C315 776 359 744 416 744 L416 744 Z M444 897 C467 897 483 884 483 859 C483 827 458 800 425 800 C403 800 386 811 386 838 C386 870 410 897 444 897 L444 897 Z M540 215 L470 686 L337 680 L-36 0 L89 0 L190 197 L427 197 C435 134 446 53 457 -9 L577 8 C565 59 552 135 540 215 L540 215 Z M236 286 L379 566 L415 286 L236 286 Z " />
<glyph glyph-name="AE" unicode="&#xc6;" horiz-adv-x="891" d="M896 579 L912 680 L588 680 L476 685 L-43 0 L91 0 L225 184 L438 184 L399 0 L787 0 L816 101 L530 101 L575 313 L813 313 L838 410 L595 410 L631 579 L896 579 Z M292 275 L526 595 L458 275 L292 275 Z " />
<glyph glyph-name="Ccedilla" unicode="&#xc7;" horiz-adv-x="596" d="M465 584 C512 584 563 571 600 549 L639 666 C599 680 540 690 483 690 C244 690 66 485 66 236 C66 95 156 5 281 -11 L238 -73 L239 -74 C291 -91 322 -109 322 -130 C322 -152 297 -167 265 -167 C239 -167 206 -160 182 -150 L178 -217 C200 -225 227 -229 258 -229 C339 -229 409 -178 409 -118 C409 -83 381 -58 327 -38 L346 -13 C395 -9 454 6 495 27 L524 144 C479 116 408 90 354 90 C256 90 190 140 190 258 C190 439 305 584 465 584 L465 584 Z " />
<glyph glyph-name="Egrave" unicode="&#xc8;" horiz-adv-x="545" d="M509 750 L546 806 L547 809 C472 843 401 885 332 929 L327 929 L269 836 C346 803 423 773 506 750 L509 750 Z M549 579 L568 680 L188 680 L43 0 L440 0 L469 101 L182 101 L227 313 L466 313 L490 410 L247 410 L283 579 L549 579 Z " />
<glyph glyph-name="Eacute" unicode="&#xc9;" horiz-adv-x="545" d="M289 750 C387 775 476 804 562 836 L545 929 L540 929 C456 885 370 847 273 809 L272 806 L286 750 L289 750 Z M549 579 L568 680 L188 680 L43 0 L440 0 L469 101 L182 101 L227 313 L466 313 L490 410 L247 410 L283 579 L549 579 Z " />
<glyph glyph-name="Ecircumflex" unicode="&#xca;" horiz-adv-x="545" d="M470 930 L405 930 L242 776 L241 773 L285 739 L289 739 L417 836 C450 801 484 771 524 739 L527 739 L573 772 L573 775 C521 847 497 886 470 930 L470 930 Z M568 680 L188 680 L43 0 L440 0 L469 101 L182 101 L227 313 L466 313 L490 410 L247 410 L283 579 L549 579 L568 680 Z " />
<glyph glyph-name="Edieresis" unicode="&#xcb;" horiz-adv-x="545" d="M317 763 C362 763 396 798 396 842 C396 875 375 893 339 893 C293 893 260 860 260 814 C260 781 282 763 317 763 L317 763 Z M500 763 C545 763 580 798 580 842 C580 875 558 893 523 893 C476 893 443 860 443 814 C443 781 466 763 500 763 L500 763 Z M568 680 L188 680 L43 0 L440 0 L469 101 L182 101 L227 313 L466 313 L490 410 L247 410 L283 579 L549 579 L568 680 Z " />
<glyph glyph-name="Igrave" unicode="&#xcc;" horiz-adv-x="292" d="M151 930 L146 930 L105 839 C168 804 235 772 307 743 L310 743 L335 802 L335 805 C271 845 208 885 151 930 L151 930 Z M38 0 L155 0 L300 680 L183 680 L38 0 Z " />
<glyph glyph-name="Iacute" unicode="&#xcd;" horiz-adv-x="292" d="M344 930 C287 885 224 845 160 805 L160 802 L185 743 L188 743 C261 772 327 804 390 839 L349 930 L344 930 Z M38 0 L155 0 L300 680 L183 680 L38 0 Z " />
<glyph glyph-name="Icircumflex" unicode="&#xce;" horiz-adv-x="292" d="M320 930 L263 930 L117 768 L116 765 L155 739 L158 739 L272 839 C299 802 325 772 355 738 L358 738 L402 769 L402 772 C363 849 343 880 320 930 L320 930 Z M38 0 L155 0 L300 680 L183 680 L38 0 Z " />
<glyph glyph-name="Idieresis" unicode="&#xcf;" horiz-adv-x="292" d="M171 763 C216 763 250 798 250 842 C250 875 229 893 193 893 C147 893 114 860 114 814 C114 781 136 763 171 763 L171 763 Z M354 763 C399 763 434 798 434 842 C434 875 412 893 377 893 C330 893 297 860 297 814 C297 781 320 763 354 763 L354 763 Z M38 0 L155 0 L300 680 L183 680 L38 0 Z " />
<glyph glyph-name="Eth" unicode="&#xd0;" horiz-adv-x="712" d="M400 680 L194 680 L132 391 L61 391 L43 302 L113 302 L49 0 L288 0 C515 16 687 198 687 415 C687 570 589 680 400 680 L400 680 Z M319 95 L185 96 L229 302 L384 302 L403 391 L248 391 L289 585 L373 585 C493 585 561 525 561 405 C561 243 458 129 319 95 L319 95 Z " />
<glyph glyph-name="Ntilde" unicode="&#xd1;" horiz-adv-x="743" d="M433 792 C472 792 507 748 553 748 C592 748 635 779 676 840 L626 887 C601 856 581 842 557 842 C520 842 485 884 442 884 C399 884 356 851 320 793 L358 744 C386 775 410 792 433 792 L433 792 Z M635 679 L531 186 L283 686 L191 680 L43 0 L156 0 L261 497 L507 -6 L601 6 L745 684 L635 679 Z " />
<glyph glyph-name="Ograve" unicode="&#xd2;" horiz-adv-x="718" d="M560 750 L563 750 L600 806 L601 809 C526 843 455 885 386 929 L381 929 L323 836 C400 803 477 773 560 750 L560 750 Z M304 -14 C390 -14 485 24 563 107 C644 190 697 320 697 431 C697 578 601 689 448 689 C365 689 275 650 207 584 C123 503 67 371 67 243 C67 84 169 -14 304 -14 L304 -14 Z M330 87 C239 87 189 145 189 251 C189 432 288 588 428 588 C521 588 573 524 573 421 C573 245 468 87 330 87 L330 87 Z " />
<glyph glyph-name="Oacute" unicode="&#xd3;" horiz-adv-x="718" d="M594 929 C510 885 424 847 327 809 L326 806 L340 750 L343 750 C441 775 530 804 616 836 L599 929 L594 929 Z M304 -14 C390 -14 485 24 563 107 C644 190 697 320 697 431 C697 578 601 689 448 689 C365 689 275 650 207 584 C123 503 67 371 67 243 C67 84 169 -14 304 -14 L304 -14 Z M330 87 C239 87 189 145 189 251 C189 432 288 588 428 588 C521 588 573 524 573 421 C573 245 468 87 330 87 L330 87 Z " />
<glyph glyph-name="Ocircumflex" unicode="&#xd4;" horiz-adv-x="718" d="M343 739 L471 836 C504 801 538 771 578 739 L581 739 L627 772 L627 775 C575 847 551 886 524 930 L459 930 L296 776 L295 773 L339 739 L343 739 Z M448 689 C365 689 275 650 207 584 C123 503 67 371 67 243 C67 84 169 -14 304 -14 C390 -14 485 24 563 107 C644 190 697 320 697 431 C697 578 601 689 448 689 L448 689 Z M330 87 C239 87 189 145 189 251 C189 432 288 588 428 588 C521 588 573 524 573 421 C573 245 468 87 330 87 L330 87 Z " />
<glyph glyph-name="Otilde" unicode="&#xd5;" horiz-adv-x="718" d="M330 744 C358 775 382 792 405 792 C444 792 479 748 525 748 C564 748 607 779 648 840 L598 887 C573 856 553 842 529 842 C492 842 457 884 414 884 C371 884 328 851 292 793 L330 744 Z M304 -14 C390 -14 485 24 563 107 C644 190 697 320 697 431 C697 578 601 689 448 689 C365 689 275 650 207 584 C123 503 67 371 67 243 C67 84 169 -14 304 -14 L304 -14 Z M330 87 C239 87 189 145 189 251 C189 432 288 588 428 588 C521 588 573 524 573 421 C573 245 468 87 330 87 L330 87 Z " />
<glyph glyph-name="Odieresis" unicode="&#xd6;" horiz-adv-x="718" d="M376 777 C421 777 456 812 456 857 C456 889 435 907 399 907 C352 907 320 875 320 828 C320 795 342 777 376 777 L376 777 Z M556 777 C601 777 636 812 636 857 C636 889 615 907 579 907 C532 907 500 875 500 828 C500 795 522 777 556 777 L556 777 Z M304 -14 C390 -14 485 24 563 107 C644 190 697 320 697 431 C697 578 601 689 448 689 C365 689 275 650 207 584 C123 503 67 371 67 243 C67 84 169 -14 304 -14 L304 -14 Z M330 87 C239 87 189 145 189 251 C189 432 288 588 428 588 C521 588 573 524 573 421 C573 245 468 87 330 87 L330 87 Z " />
<glyph glyph-name="multiply" unicode="&#xd7;" horiz-adv-x="580" d="M503 433 L439 496 L291 347 L146 493 L81 429 L226 283 L77 133 L141 69 L289 218 L434 72 L499 136 L354 282 L503 433 Z " />
<glyph glyph-name="Oslash" unicode="&#xd8;" horiz-adv-x="718" d="M615 629 L676 722 L615 762 L554 668 C523 682 487 689 448 689 C365 689 275 650 207 584 C123 503 67 371 67 243 C67 158 96 90 145 45 L77 -58 L138 -99 L206 5 C236 -7 269 -14 304 -14 C390 -14 485 24 563 107 C644 190 697 320 697 431 C697 512 668 583 615 629 L615 629 Z M189 251 C189 432 288 588 428 588 C452 588 474 584 492 575 L212 148 C197 174 189 209 189 251 L189 251 Z M330 87 C306 87 285 91 267 99 L548 526 C564 499 573 463 573 421 C573 245 468 87 330 87 L330 87 Z " />
<glyph glyph-name="Ugrave" unicode="&#xd9;" horiz-adv-x="683" d="M554 750 L557 750 L594 806 L595 809 C520 843 449 885 380 929 L375 929 L317 836 C394 803 471 773 554 750 L554 750 Z M274 -16 C327 -16 405 -1 467 44 C530 89 573 152 586 217 L685 680 L569 680 L473 226 C453 134 385 84 303 84 C242 84 200 107 200 167 C200 178 201 188 204 201 L306 680 L189 680 L89 215 C83 188 81 166 81 150 C81 38 169 -16 274 -16 L274 -16 Z " />
<glyph glyph-name="Uacute" unicode="&#xda;" horiz-adv-x="683" d="M588 929 C504 885 418 847 321 809 L320 806 L334 750 L337 750 C435 775 524 804 610 836 L593 929 L588 929 Z M274 -16 C327 -16 405 -1 467 44 C530 89 573 152 586 217 L685 680 L569 680 L473 226 C453 134 385 84 303 84 C242 84 200 107 200 167 C200 178 201 188 204 201 L306 680 L189 680 L89 215 C83 188 81 166 81 150 C81 38 169 -16 274 -16 L274 -16 Z " />
<glyph glyph-name="Ucircumflex" unicode="&#xdb;" horiz-adv-x="683" d="M336 739 L464 836 C497 801 531 771 571 739 L574 739 L620 772 L620 775 C568 847 544 886 517 930 L452 930 L289 776 L288 773 L332 739 L336 739 Z M569 680 L473 226 C453 134 385 84 303 84 C242 84 200 107 200 167 C200 178 201 188 204 201 L306 680 L189 680 L89 215 C83 188 81 166 81 150 C81 38 169 -16 274 -16 C327 -16 405 -1 467 44 C530 89 573 152 586 217 L685 680 L569 680 Z " />
<glyph glyph-name="Udieresis" unicode="&#xdc;" horiz-adv-x="683" d="M365 763 C410 763 444 798 444 842 C444 875 423 893 387 893 C341 893 308 860 308 814 C308 781 330 763 365 763 L365 763 Z M548 763 C593 763 628 798 628 842 C628 875 606 893 571 893 C524 893 491 860 491 814 C491 781 514 763 548 763 L548 763 Z M274 -16 C327 -16 405 -1 467 44 C530 89 573 152 586 217 L685 680 L569 680 L473 226 C453 134 385 84 303 84 C242 84 200 107 200 167 C200 178 201 188 204 201 L306 680 L189 680 L89 215 C83 188 81 166 81 150 C81 38 169 -16 274 -16 L274 -16 Z " />
<glyph glyph-name="Thorn" unicode="&#xde;" horiz-adv-x="576" d="M367 570 C340 570 311 567 283 561 L309 680 L192 680 L43 0 L160 0 L191 143 C214 139 243 136 271 136 C333 136 400 153 454 190 C518 234 566 315 566 393 C566 495 497 570 367 570 L367 570 Z M292 234 C268 234 237 238 213 243 L262 466 C286 471 309 473 330 473 C403 473 438 443 438 380 C438 298 377 234 292 234 L292 234 Z " />
<glyph glyph-name="germandbls" unicode="&#xdf;" horiz-adv-x="561" d="M307 -11 C353 -11 399 2 439 32 C473 58 513 107 513 168 C513 220 486 251 442 288 C403 321 377 339 377 362 C377 420 522 444 522 565 C522 634 460 689 355 689 C239 689 147 621 118 485 L-22 -177 L89 -177 L230 490 C246 567 290 607 351 607 C390 607 418 586 418 554 C418 467 265 451 265 334 C265 287 302 258 340 229 C383 195 404 176 404 143 C404 108 370 78 331 78 C288 78 239 98 207 122 L196 13 C216 0 265 -11 307 -11 L307 -11 Z " />
<glyph glyph-name="agrave" unicode="&#xe0;" horiz-adv-x="503" d="M438 518 L475 574 L476 577 C401 611 330 653 261 697 L256 697 L198 604 C275 571 352 541 435 518 L438 518 Z M437 467 L399 430 C364 461 324 479 280 479 C138 479 26 278 26 123 C26 41 60 -9 122 -9 C183 -9 259 42 309 140 C298 82 294 44 293 0 L399 0 C401 68 409 129 428 210 L489 467 L437 467 Z M172 84 C149 84 136 103 136 146 C136 247 209 395 291 395 C316 395 340 381 360 360 C308 159 217 84 172 84 L172 84 Z " />
<glyph glyph-name="aacute" unicode="&#xe1;" horiz-adv-x="503" d="M218 518 C316 543 405 572 491 604 L474 697 L469 697 C385 653 299 615 202 577 L201 574 L215 518 L218 518 Z M399 430 C364 461 324 479 280 479 C138 479 26 278 26 123 C26 41 60 -9 122 -9 C183 -9 259 42 309 140 C298 82 294 44 293 0 L399 0 C401 68 409 129 428 210 L489 467 L437 467 L399 430 Z M172 84 C149 84 136 103 136 146 C136 247 209 395 291 395 C316 395 340 381 360 360 C308 159 217 84 172 84 L172 84 Z " />
<glyph glyph-name="acircumflex" unicode="&#xe2;" horiz-adv-x="503" d="M399 698 L334 698 L171 544 L170 541 L214 507 L218 507 L346 604 C379 569 413 539 453 507 L456 507 L502 540 L502 543 C450 615 426 654 399 698 L399 698 Z M399 430 C364 461 324 479 280 479 C138 479 26 278 26 123 C26 41 60 -9 122 -9 C183 -9 259 42 309 140 C298 82 294 44 293 0 L399 0 C401 68 409 129 428 210 L489 467 L437 467 L399 430 Z M172 84 C149 84 136 103 136 146 C136 247 209 395 291 395 C316 395 340 381 360 360 C308 159 217 84 172 84 L172 84 Z " />
<glyph glyph-name="atilde" unicode="&#xe3;" horiz-adv-x="503" d="M290 584 C325 584 350 541 396 541 C432 541 475 578 511 637 L467 679 C444 650 424 634 406 634 C372 634 343 676 303 676 C266 676 223 641 186 587 L219 537 C246 568 269 584 290 584 L290 584 Z M399 430 C364 461 324 479 280 479 C138 479 26 278 26 123 C26 41 60 -9 122 -9 C183 -9 259 42 309 140 C298 82 294 44 293 0 L399 0 C401 68 409 129 428 210 L489 467 L437 467 L399 430 Z M172 84 C149 84 136 103 136 146 C136 247 209 395 291 395 C316 395 340 381 360 360 C308 159 217 84 172 84 L172 84 Z " />
<glyph glyph-name="adieresis" unicode="&#xe4;" horiz-adv-x="503" d="M251 545 C296 545 331 580 331 625 C331 657 310 675 274 675 C227 675 195 643 195 596 C195 563 217 545 251 545 L251 545 Z M431 545 C476 545 511 580 511 625 C511 657 490 675 454 675 C407 675 375 643 375 596 C375 563 397 545 431 545 L431 545 Z M399 430 C364 461 324 479 280 479 C138 479 26 278 26 123 C26 41 60 -9 122 -9 C183 -9 259 42 309 140 C298 82 294 44 293 0 L399 0 C401 68 409 129 428 210 L489 467 L437 467 L399 430 Z M172 84 C149 84 136 103 136 146 C136 247 209 395 291 395 C316 395 340 381 360 360 C308 159 217 84 172 84 L172 84 Z " />
<glyph glyph-name="aring" unicode="&#xe5;" horiz-adv-x="503" d="M336 512 C413 512 474 568 474 634 C474 689 431 722 372 722 C296 722 235 664 235 598 C235 544 279 512 336 512 L336 512 Z M364 665 C387 665 403 652 403 627 C403 595 378 568 345 568 C323 568 306 579 306 606 C306 638 330 665 364 665 L364 665 Z M437 467 L399 430 C364 461 324 479 280 479 C138 479 26 278 26 123 C26 41 60 -9 122 -9 C183 -9 259 42 309 140 C298 82 294 44 293 0 L399 0 C401 68 409 129 428 210 L489 467 L437 467 Z M172 84 C149 84 136 103 136 146 C136 247 209 395 291 395 C316 395 340 381 360 360 C308 159 217 84 172 84 L172 84 Z " />
<glyph glyph-name="ae" unicode="&#xe6;" horiz-adv-x="733" d="M495 204 C641 220 722 283 722 375 C722 436 672 479 592 479 C529 479 468 451 418 406 C403 450 359 477 278 477 C230 477 167 465 131 452 L96 353 C148 376 208 391 255 391 C305 391 337 374 337 327 C337 319 336 311 335 302 L331 282 L200 259 C87 237 15 180 15 90 C15 29 53 -9 120 -9 C186 -9 252 22 329 77 C357 23 412 -10 486 -10 C545 -10 605 10 647 35 L667 141 L664 141 C630 112 567 83 513 83 C454 83 419 109 419 176 C419 184 419 192 420 199 C447 200 472 201 495 204 L495 204 Z M578 399 C608 399 626 385 626 358 C626 319 585 288 481 275 C467 273 452 272 435 271 C462 346 519 399 578 399 L578 399 Z M166 77 C142 77 127 92 127 116 C127 158 159 191 225 198 L314 208 C312 193 311 177 311 161 C311 155 311 149 312 143 C243 96 195 77 166 77 L166 77 Z " />
<glyph glyph-name="ccedilla" unicode="&#xe7;" horiz-adv-x="416" d="M305 383 C340 383 368 372 391 360 L423 459 C406 468 362 478 321 478 C158 478 34 332 34 162 C34 72 82 11 158 -6 L111 -73 L112 -74 C164 -91 195 -109 195 -130 C195 -152 170 -167 138 -167 C112 -167 79 -160 55 -150 L51 -217 C73 -225 100 -229 131 -229 C212 -229 282 -178 282 -118 C282 -83 254 -58 200 -38 L221 -10 C255 -8 303 4 334 20 L343 117 L340 117 C314 99 268 85 229 85 C177 85 145 117 145 180 C145 291 222 383 305 383 L305 383 Z " />
<glyph glyph-name="egrave" unicode="&#xe8;" horiz-adv-x="455" d="M239 716 L234 716 L176 623 C253 590 330 560 413 537 L416 537 L453 593 L454 596 C379 630 308 672 239 716 L239 716 Z M315 479 C171 479 34 333 34 161 C34 58 101 -10 209 -10 C267 -10 327 10 370 35 L389 141 L386 141 C352 112 289 83 235 83 C177 83 141 109 141 176 C141 184 141 192 142 199 C169 200 195 201 218 204 C363 220 445 283 445 375 C445 436 395 479 315 479 L315 479 Z M203 275 C189 273 174 272 157 271 C184 346 241 399 300 399 C330 399 349 385 349 358 C349 319 307 288 203 275 L203 275 Z " />
<glyph glyph-name="eacute" unicode="&#xe9;" horiz-adv-x="455" d="M196 537 C294 562 383 591 469 623 L452 716 L447 716 C363 672 277 634 180 596 L179 593 L193 537 L196 537 Z M315 479 C171 479 34 333 34 161 C34 58 101 -10 209 -10 C267 -10 327 10 370 35 L389 141 L386 141 C352 112 289 83 235 83 C177 83 141 109 141 176 C141 184 141 192 142 199 C169 200 195 201 218 204 C363 220 445 283 445 375 C445 436 395 479 315 479 L315 479 Z M203 275 C189 273 174 272 157 271 C184 346 241 399 300 399 C330 399 349 385 349 358 C349 319 307 288 203 275 L203 275 Z " />
<glyph glyph-name="ecircumflex" unicode="&#xea;" horiz-adv-x="455" d="M377 717 L312 717 L149 563 L148 560 L192 526 L196 526 L324 623 C357 588 391 558 431 526 L434 526 L480 559 L480 562 C428 634 404 673 377 717 L377 717 Z M315 479 C171 479 34 333 34 161 C34 58 101 -10 209 -10 C267 -10 327 10 370 35 L389 141 L386 141 C352 112 289 83 235 83 C177 83 141 109 141 176 C141 184 141 192 142 199 C169 200 195 201 218 204 C363 220 445 283 445 375 C445 436 395 479 315 479 L315 479 Z M203 275 C189 273 174 272 157 271 C184 346 241 399 300 399 C330 399 349 385 349 358 C349 319 307 288 203 275 L203 275 Z " />
<glyph glyph-name="edieresis" unicode="&#xeb;" horiz-adv-x="455" d="M228 564 C273 564 308 599 308 644 C308 676 287 694 251 694 C204 694 172 662 172 615 C172 582 194 564 228 564 L228 564 Z M431 694 C384 694 352 662 352 615 C352 582 374 564 408 564 C453 564 488 599 488 644 C488 676 467 694 431 694 L431 694 Z M315 479 C171 479 34 333 34 161 C34 58 101 -10 209 -10 C267 -10 327 10 370 35 L389 141 L386 141 C352 112 289 83 235 83 C177 83 141 109 141 176 C141 184 141 192 142 199 C169 200 195 201 218 204 C363 220 445 283 445 375 C445 436 395 479 315 479 L315 479 Z M203 275 C189 273 174 272 157 271 C184 346 241 399 300 399 C330 399 349 385 349 358 C349 319 307 288 203 275 L203 275 Z " />
<glyph glyph-name="igrave" unicode="&#xec;" horiz-adv-x="254" d="M86 717 L81 717 L40 626 C103 591 170 559 242 530 L245 530 L270 589 L270 592 C206 632 143 672 86 717 L86 717 Z M23 0 L132 0 L231 468 L122 466 L23 0 Z " />
<glyph glyph-name="iacute" unicode="&#xed;" horiz-adv-x="254" d="M279 717 C222 672 159 632 95 592 L95 589 L120 530 L123 530 C196 559 262 591 325 626 L284 717 L279 717 Z M23 0 L132 0 L231 468 L122 466 L23 0 Z " />
<glyph glyph-name="icircumflex" unicode="&#xee;" horiz-adv-x="254" d="M255 717 L198 717 L52 555 L51 552 L90 526 L93 526 L207 626 C234 590 260 559 290 525 L293 525 L337 556 L337 559 C298 636 278 667 255 717 L255 717 Z M23 0 L132 0 L231 468 L122 466 L23 0 Z " />
<glyph glyph-name="idieresis" unicode="&#xef;" horiz-adv-x="254" d="M128 564 C162 564 191 598 191 641 C191 674 173 694 144 694 C108 694 81 661 81 618 C81 584 99 564 128 564 L128 564 Z M277 564 C312 564 341 598 341 641 C341 674 323 694 294 694 C258 694 231 661 231 618 C231 584 249 564 277 564 L277 564 Z M23 0 L132 0 L231 468 L122 466 L23 0 Z " />
<glyph glyph-name="eth" unicode="&#xf0;" horiz-adv-x="488" d="M476 633 L463 691 L365 644 C351 660 335 676 317 691 L196 668 C225 646 252 624 275 601 L170 551 L185 493 L314 555 C339 521 357 485 367 446 C344 459 315 467 279 467 C151 467 34 320 34 163 C34 56 93 -11 188 -11 C347 -11 467 179 467 384 C467 458 448 530 402 597 L476 633 Z M365 323 C353 192 291 83 215 83 C169 83 143 118 143 178 C143 290 204 386 280 386 C313 386 342 372 364 358 C365 352 366 333 365 323 L365 323 Z " />
<glyph glyph-name="ntilde" unicode="&#xf1;" horiz-adv-x="533" d="M218 556 C245 587 268 603 289 603 C324 603 349 560 395 560 C431 560 474 597 510 656 L466 698 C443 669 423 653 405 653 C371 653 342 695 302 695 C265 695 222 660 185 606 L218 556 Z M25 0 L132 0 L168 167 C207 345 290 387 329 387 C361 387 378 366 378 339 C378 319 371 287 363 252 L308 0 L415 0 L467 240 C478 292 491 341 491 380 C491 435 453 479 386 479 C328 479 260 449 210 368 L206 370 C217 432 218 457 218 476 L117 463 C111 415 105 376 96 331 L25 0 Z " />
<glyph glyph-name="ograve" unicode="&#xf2;" horiz-adv-x="494" d="M418 537 L421 537 L458 593 L459 596 C384 630 313 672 244 716 L239 716 L181 623 C258 590 335 560 418 537 L418 537 Z M195 -11 C345 -11 460 152 460 306 C460 414 391 479 292 479 C148 479 34 323 34 162 C34 62 92 -11 195 -11 L195 -11 Z M213 82 C171 82 148 117 148 180 C148 292 204 387 276 387 C318 387 347 353 347 292 C347 172 291 82 213 82 L213 82 Z " />
<glyph glyph-name="oacute" unicode="&#xf3;" horiz-adv-x="494" d="M452 716 C368 672 282 634 185 596 L184 593 L198 537 L201 537 C299 562 388 591 474 623 L457 716 L452 716 Z M195 -11 C345 -11 460 152 460 306 C460 414 391 479 292 479 C148 479 34 323 34 162 C34 62 92 -11 195 -11 L195 -11 Z M213 82 C171 82 148 117 148 180 C148 292 204 387 276 387 C318 387 347 353 347 292 C347 172 291 82 213 82 L213 82 Z " />
<glyph glyph-name="ocircumflex" unicode="&#xf4;" horiz-adv-x="494" d="M382 717 L317 717 L154 563 L153 560 L197 526 L201 526 L329 623 C362 588 396 558 436 526 L439 526 L485 559 L485 562 C433 634 409 673 382 717 L382 717 Z M292 479 C148 479 34 323 34 162 C34 62 92 -11 195 -11 C345 -11 460 152 460 306 C460 414 391 479 292 479 L292 479 Z M213 82 C171 82 148 117 148 180 C148 292 204 387 276 387 C318 387 347 353 347 292 C347 172 291 82 213 82 L213 82 Z " />
<glyph glyph-name="otilde" unicode="&#xf5;" horiz-adv-x="494" d="M202 556 C229 587 252 603 273 603 C308 603 333 560 379 560 C415 560 458 597 494 656 L450 698 C427 669 407 653 389 653 C355 653 326 695 286 695 C249 695 206 660 169 606 L202 556 Z M195 -11 C345 -11 460 152 460 306 C460 414 391 479 292 479 C148 479 34 323 34 162 C34 62 92 -11 195 -11 L195 -11 Z M213 82 C171 82 148 117 148 180 C148 292 204 387 276 387 C318 387 347 353 347 292 C347 172 291 82 213 82 L213 82 Z " />
<glyph glyph-name="odieresis" unicode="&#xf6;" horiz-adv-x="494" d="M234 564 C279 564 314 599 314 644 C314 676 293 694 257 694 C210 694 178 662 178 615 C178 582 200 564 234 564 L234 564 Z M414 564 C459 564 494 599 494 644 C494 676 473 694 437 694 C390 694 358 662 358 615 C358 582 380 564 414 564 L414 564 Z M195 -11 C345 -11 460 152 460 306 C460 414 391 479 292 479 C148 479 34 323 34 162 C34 62 92 -11 195 -11 L195 -11 Z M213 82 C171 82 148 117 148 180 C148 292 204 387 276 387 C318 387 347 353 347 292 C347 172 291 82 213 82 L213 82 Z " />
<glyph glyph-name="divide" unicode="&#xf7;" horiz-adv-x="580" d="M299 398 C342 398 369 419 369 464 C369 507 342 528 302 528 C257 528 229 500 229 459 C229 418 256 398 299 398 L299 398 Z M77 248 L521 248 L521 330 L77 330 L77 248 Z M299 47 C342 47 369 68 369 113 C369 156 342 177 302 177 C257 177 229 149 229 108 C229 67 256 47 299 47 L299 47 Z " />
<glyph glyph-name="oslash" unicode="&#xf8;" horiz-adv-x="494" d="M499 508 L434 550 L369 463 C346 474 320 479 292 479 C148 479 34 323 34 162 C34 121 44 85 62 56 L-13 -42 L49 -86 L119 5 C141 -5 166 -11 195 -11 C345 -11 460 152 460 306 C460 351 448 388 427 416 L499 508 Z M276 387 C290 387 303 383 314 375 L149 154 C148 162 148 171 148 180 C148 292 204 387 276 387 L276 387 Z M213 82 C199 82 187 86 177 93 L344 322 C346 313 347 303 347 292 C347 172 291 82 213 82 L213 82 Z " />
<glyph glyph-name="ugrave" unicode="&#xf9;" horiz-adv-x="528" d="M432 537 L435 537 L472 593 L473 596 C398 630 327 672 258 716 L253 716 L195 623 C272 590 349 560 432 537 L432 537 Z M149 -10 C216 -10 273 23 317 103 L320 103 C311 68 309 32 309 0 L410 0 C412 52 418 95 427 137 L497 467 L391 467 L348 262 C322 137 254 82 205 82 C175 82 160 102 160 129 C160 148 164 170 169 194 L227 467 L120 467 L63 208 C53 164 45 132 45 97 C45 31 87 -10 149 -10 L149 -10 Z " />
<glyph glyph-name="uacute" unicode="&#xfa;" horiz-adv-x="508" d="M427 717 C343 673 257 635 160 596 L159 593 L173 537 L176 537 C274 563 363 592 449 624 L432 717 L427 717 Z M131 -10 C198 -10 255 23 300 103 L302 103 C294 68 291 32 291 0 L392 0 C394 52 401 95 410 137 L480 467 L373 467 L331 262 C305 137 237 82 187 82 C158 82 143 102 143 129 C143 148 146 170 151 194 L210 467 L102 467 L45 208 C35 164 28 132 28 97 C28 31 69 -10 131 -10 L131 -10 Z " />
<glyph glyph-name="ucircumflex" unicode="&#xfb;" horiz-adv-x="508" d="M167 526 L295 624 C328 589 362 558 402 526 L405 526 L451 559 L451 562 C400 635 375 674 348 717 L283 717 L120 563 L119 560 L164 526 L167 526 Z M373 467 L331 262 C305 137 237 82 187 82 C158 82 143 102 143 129 C143 148 146 170 151 194 L210 467 L102 467 L45 208 C35 164 28 132 28 97 C28 31 69 -10 131 -10 C198 -10 255 23 300 103 L302 103 C294 68 291 32 291 0 L392 0 C394 52 401 95 410 137 L480 467 L373 467 Z " />
<glyph glyph-name="udieresis" unicode="&#xfc;" horiz-adv-x="528" d="M248 564 C293 564 328 599 328 644 C328 676 307 694 271 694 C224 694 192 662 192 615 C192 582 214 564 248 564 L248 564 Z M428 564 C473 564 508 599 508 644 C508 676 487 694 451 694 C404 694 372 662 372 615 C372 582 394 564 428 564 L428 564 Z M149 -10 C216 -10 273 23 317 103 L320 103 C311 68 309 32 309 0 L410 0 C412 52 418 95 427 137 L497 467 L391 467 L348 262 C322 137 254 82 205 82 C175 82 160 102 160 129 C160 148 164 170 169 194 L227 467 L120 467 L63 208 C53 164 45 132 45 97 C45 31 87 -10 149 -10 L149 -10 Z " />
<glyph glyph-name="thorn" unicode="&#xfe;" horiz-adv-x="505" d="M353 478 C301 478 253 447 207 374 L204 375 C229 479 248 582 264 686 L163 680 C150 592 133 502 113 413 L-25 -195 L84 -183 L128 10 C154 -3 185 -11 217 -11 C347 -11 475 154 475 327 C475 420 429 478 353 478 L353 478 Z M215 81 C192 81 170 89 150 102 L175 213 C202 329 263 384 311 384 C342 384 359 360 359 314 C359 192 288 81 215 81 L215 81 Z " />
<glyph glyph-name="dotlessi" unicode="&#x131;" horiz-adv-x="254" d="M23 0 L132 0 L231 468 L122 466 L23 0 Z " />
<glyph glyph-name="OE" unicode="&#x152;" horiz-adv-x="855" d="M860 579 L890 680 L477 680 C243 680 68 480 68 251 C68 86 184 0 331 0 L749 0 L779 101 L511 101 L556 313 L778 313 L803 410 L577 410 L613 579 L860 579 Z M394 101 L347 101 C248 101 194 160 194 269 C194 440 302 578 458 578 L497 578 L394 101 Z " />
<glyph glyph-name="oe" unicode="&#x153;" horiz-adv-x="764" d="M524 203 C667 218 752 279 752 378 C752 438 701 479 620 479 C551 479 484 443 434 386 C409 445 356 479 288 479 C148 479 34 323 34 161 C34 63 91 -11 196 -11 C260 -11 318 23 363 74 C388 21 441 -10 513 -10 C575 -10 639 11 686 39 L685 132 L682 132 C650 106 590 82 540 82 C481 82 447 109 447 176 C447 183 447 190 448 197 C475 198 500 199 524 203 L524 203 Z M608 400 C636 400 655 381 655 357 C655 319 613 288 509 275 C495 273 480 272 464 271 C491 345 547 400 608 400 L608 400 Z M211 83 C167 83 144 118 144 178 C144 278 199 386 278 386 C320 386 350 353 350 292 C350 186 289 83 211 83 L211 83 Z " />
<glyph glyph-name="Utilde" unicode="&#x168;" horiz-adv-x="683" d="M324 744 C352 775 376 792 399 792 C438 792 473 748 519 748 C558 748 601 779 642 840 L592 887 C567 856 547 842 523 842 C486 842 451 884 408 884 C365 884 322 851 286 793 L324 744 Z M274 -16 C327 -16 405 -1 467 44 C530 89 573 152 586 217 L685 680 L569 680 L473 226 C453 134 385 84 303 84 C242 84 200 107 200 167 C200 178 201 188 204 201 L306 680 L189 680 L89 215 C83 188 81 166 81 150 C81 38 169 -16 274 -16 L274 -16 Z " />
<glyph glyph-name="utilde" unicode="&#x169;" horiz-adv-x="508" d="M151 557 C178 588 201 604 222 604 C257 604 282 560 328 560 C364 560 407 598 443 657 L399 699 C376 670 356 654 339 654 C304 654 275 696 235 696 C198 696 155 660 118 606 L151 557 Z M131 -10 C198 -10 255 23 300 103 L302 103 C294 68 291 32 291 0 L392 0 C394 52 401 95 410 137 L480 467 L373 467 L331 262 C305 137 237 82 187 82 C158 82 143 102 143 129 C143 148 146 170 151 194 L210 467 L102 467 L45 208 C35 164 28 132 28 97 C28 31 69 -10 131 -10 L131 -10 Z " />
<glyph glyph-name="uni0237" unicode="&#x237;" horiz-adv-x="253" d="M-64 -193 C-21 -187 15 -171 52 -145 C88 -119 117 -87 127 -37 L234 467 L124 467 L14 -49 C7 -83 -17 -99 -42 -99 C-56 -99 -68 -98 -84 -94 L-116 -185 L-64 -193 Z " />
<glyph glyph-name="circumflex" unicode="&#x2c6;" horiz-adv-x="412" d="M338 717 L273 717 L110 563 L109 560 L154 526 L157 526 L285 623 C318 588 352 558 392 526 L395 526 L441 559 L441 562 C390 634 365 673 338 717 L338 717 Z " />
<glyph glyph-name="dotaccent" unicode="&#x2d9;" horiz-adv-x="223" d="M183 562 C231 562 268 597 268 642 C268 674 245 692 207 692 C157 692 123 660 123 613 C123 580 146 562 183 562 L183 562 Z " />
<glyph glyph-name="ring" unicode="&#x2da;" horiz-adv-x="316" d="M225 531 C302 531 363 587 363 653 C363 708 320 741 261 741 C185 741 124 683 124 617 C124 563 168 531 225 531 L225 531 Z M234 587 C212 587 195 598 195 625 C195 657 219 684 252 684 C276 684 292 671 292 646 C292 614 267 587 234 587 L234 587 Z " />
<glyph glyph-name="tilde" unicode="&#x2dc;" horiz-adv-x="394" d="M151 556 C179 587 202 603 222 603 C257 603 283 560 329 560 C365 560 407 597 444 656 L400 698 C377 669 357 653 339 653 C305 653 275 695 236 695 C198 695 156 660 119 606 L151 556 Z " />
<glyph glyph-name="gravecomb" unicode="&#x300;" d="M79 537 L82 537 L119 593 L120 596 C44 630 -26 672 -95 716 L-100 716 L-158 623 C-81 590 -4 560 79 537 L79 537 Z " />
<glyph glyph-name="acutecomb" unicode="&#x301;" d="M97 716 C13 672 -73 634 -170 596 L-171 593 L-157 537 L-154 537 C-56 562 33 591 119 623 L102 716 L97 716 Z " />
<glyph glyph-name="uni0302" unicode="&#x302;" d="M-29 717 L-94 717 L-257 563 L-258 560 L-214 526 L-210 526 L-82 623 C-49 588 -15 558 25 526 L28 526 L74 559 L74 562 C22 634 -2 673 -29 717 L-29 717 Z " />
<glyph glyph-name="tildecomb" unicode="&#x303;" d="M-141 556 C-114 587 -91 603 -70 603 C-35 603 -10 560 36 560 C72 560 115 597 151 656 L107 698 C84 669 64 653 46 653 C12 653 -17 695 -57 695 C-94 695 -137 660 -174 606 L-141 556 Z " />
<glyph glyph-name="uni0307" unicode="&#x307;" d="M40 562 C87 562 124 597 124 642 C124 674 102 692 64 692 C14 692 -21 660 -21 613 C-21 580 3 562 40 562 L40 562 Z " />
<glyph glyph-name="uni0308" unicode="&#x308;" d="M-205 564 C-160 564 -125 599 -125 644 C-125 676 -146 694 -182 694 C-229 694 -261 662 -261 615 C-261 582 -239 564 -205 564 L-205 564 Z M-25 564 C20 564 55 599 55 644 C55 676 34 694 -2 694 C-49 694 -81 662 -81 615 C-81 582 -59 564 -25 564 L-25 564 Z " />
<glyph glyph-name="uni030A" unicode="&#x30a;" d="M-91 531 C-14 531 47 587 47 653 C47 708 4 741 -55 741 C-131 741 -192 683 -192 617 C-192 563 -148 531 -91 531 L-91 531 Z M-82 587 C-104 587 -121 598 -121 625 C-121 657 -97 684 -64 684 C-40 684 -24 671 -24 646 C-24 614 -49 587 -82 587 L-82 587 Z " />
<glyph glyph-name="uni0327" unicode="&#x327;" d="M-267 -38 L-239 0 L-305 0 L-356 -73 L-355 -74 C-303 -91 -272 -109 -272 -130 C-272 -152 -297 -167 -329 -167 C-355 -167 -388 -160 -412 -150 L-416 -217 C-394 -225 -367 -229 -336 -229 C-255 -229 -185 -178 -185 -118 C-185 -83 -213 -58 -267 -38 L-267 -38 Z " />
<glyph glyph-name="endash" unicode="&#x2013;" horiz-adv-x="429" d="M42 227 L384 227 L403 317 L61 317 L42 227 Z " />
<glyph glyph-name="emdash" unicode="&#x2014;" horiz-adv-x="683" d="M41 224 L637 224 L656 314 L60 314 L41 224 Z " />
<glyph glyph-name="quoteleft" unicode="&#x2018;" horiz-adv-x="255" d="M127 421 L234 438 C223 463 219 490 219 510 C219 575 258 625 308 668 L251 693 C175 649 114 587 114 490 C114 465 119 440 127 421 L127 421 Z " />
<glyph glyph-name="quoteright" unicode="&#x2019;" horiz-adv-x="255" d="M132 418 C202 463 273 523 273 621 C273 644 269 667 260 690 L153 672 C163 649 167 625 167 601 C167 536 129 486 79 443 L132 418 Z " />
<glyph glyph-name="quotesinglbase" unicode="&#x201a;" horiz-adv-x="283" d="M19 -138 C91 -96 168 -30 168 73 C168 97 162 123 155 141 L47 123 C56 100 61 73 61 53 C61 -18 20 -65 -32 -107 L19 -138 Z " />
<glyph glyph-name="quotedblleft" unicode="&#x201c;" horiz-adv-x="451" d="M253 691 C183 646 113 584 113 487 C113 462 118 438 126 418 L233 436 C222 461 218 487 218 508 C218 572 256 622 307 665 L253 691 Z M449 691 C380 646 310 584 310 487 C310 465 314 440 322 418 L429 436 C418 461 414 487 414 508 C414 572 453 623 503 665 L449 691 Z " />
<glyph glyph-name="quotedblright" unicode="&#x201d;" horiz-adv-x="452" d="M132 418 C202 463 273 523 273 621 C273 643 269 667 260 690 L153 672 C163 649 167 625 167 601 C167 536 129 486 79 443 L132 418 Z M329 418 C398 463 469 523 469 621 C469 643 465 667 456 690 L349 672 C359 649 364 625 364 601 C364 536 325 486 275 443 L329 418 Z " />
<glyph glyph-name="quotedblbase" unicode="&#x201e;" horiz-adv-x="478" d="M19 -138 C91 -96 168 -30 168 73 C168 97 162 123 155 141 L47 123 C56 100 61 73 61 53 C61 -18 20 -65 -32 -107 L19 -138 Z M213 -138 C285 -96 363 -30 363 73 C363 97 357 123 349 141 L242 123 C251 100 256 73 256 53 C256 -18 215 -65 163 -107 L213 -138 Z " />
<glyph glyph-name="bullet" unicode="&#x2022;" horiz-adv-x="344" d="M178 238 C245 238 302 294 302 359 C302 409 269 446 210 446 C144 446 87 390 87 325 C87 275 121 238 178 238 L178 238 Z " />
<glyph glyph-name="ellipsis" unicode="&#x2026;" horiz-adv-x="741" d="M100 -10 C150 -10 182 19 181 67 C182 107 152 131 111 131 C64 131 29 99 29 52 C29 10 57 -10 100 -10 L100 -10 Z M328 -10 C379 -10 410 19 409 67 C410 107 381 131 339 131 C292 131 258 99 257 52 C258 10 286 -10 328 -10 L328 -10 Z M556 -10 C607 -10 638 19 637 67 C638 107 609 131 567 131 C521 131 486 99 485 52 C486 10 514 -10 556 -10 L556 -10 Z " />
<glyph glyph-name="guilsinglleft" unicode="&#x2039;" horiz-adv-x="329" d="M327 413 L211 413 L31 237 L29 227 L138 51 L251 51 L136 231 L327 413 Z " />
<glyph glyph-name="guilsinglright" unicode="&#x203a;" horiz-adv-x="332" d="M190 422 L82 422 L192 248 L-7 60 L114 60 L296 237 L298 246 L190 422 Z " />
<glyph glyph-name="fraction" unicode="&#x2044;" horiz-adv-x="113" d="M-132 0 L-47 0 L290 680 L204 680 L-132 0 Z " />
<glyph glyph-name="Euro" unicode="&#x20ac;" horiz-adv-x="580" d="M474 590 C523 590 566 577 597 560 L634 670 C607 681 558 690 497 690 C354 690 230 599 161 471 L82 471 L64 388 L126 388 C117 362 111 335 107 307 L46 307 L29 224 L103 224 C110 65 193 -10 326 -10 C379 -10 448 4 487 23 L529 135 L524 135 C488 114 418 93 366 93 C279 93 226 130 218 229 L479 229 L503 302 L219 302 C222 334 229 365 238 393 L532 393 L556 465 L269 465 C314 541 385 590 474 590 L474 590 Z " />
<glyph glyph-name="trademark" unicode="&#x2122;" horiz-adv-x="922" d="M816 680 L665 426 L622 684 L520 680 L398 285 L487 285 L559 530 L600 293 L656 292 L803 525 L771 284 L870 290 L913 683 L816 680 Z M417 598 L439 680 L128 680 L107 598 L217 598 L150 285 L245 285 L312 598 L417 598 Z " />
<glyph glyph-name="oneeighth" unicode="&#x215b;" horiz-adv-x="867" d="M266 270 L351 674 L291 687 C244 658 185 628 118 597 L139 536 C177 549 210 562 242 577 L177 270 L266 270 Z M582 680 L245 0 L330 0 L667 680 L582 680 Z M751 220 C805 248 839 286 839 329 C839 378 789 416 715 416 C625 416 551 356 551 283 C551 248 568 226 594 209 C533 180 499 135 499 87 C499 30 540 -8 625 -8 C718 -8 809 66 809 142 C809 176 789 200 751 220 L751 220 Z M702 354 C729 354 752 339 752 317 C752 291 725 265 692 247 C660 262 638 278 638 302 C638 332 669 354 702 354 L702 354 Z M641 63 C609 63 588 80 588 105 C588 136 611 161 648 182 C699 160 720 149 720 124 C720 93 682 63 641 63 L641 63 Z " />
<glyph glyph-name="threeeighths" unicode="&#x215c;" horiz-adv-x="867" d="M369 422 C369 461 346 492 301 504 C355 526 388 560 388 603 C388 649 348 685 269 685 C227 685 182 677 153 667 L135 586 C166 598 207 607 237 607 C266 607 289 598 289 577 C289 544 240 517 162 508 L158 444 C227 451 271 439 271 404 C271 369 224 341 164 341 C130 341 102 345 71 359 L65 275 C87 269 125 265 153 265 C267 265 369 338 369 422 L369 422 Z M582 680 L245 0 L330 0 L667 680 L582 680 Z M751 220 C805 248 839 286 839 329 C839 378 789 416 715 416 C625 416 551 356 551 283 C551 248 568 226 594 209 C533 180 499 135 499 87 C499 30 540 -8 625 -8 C718 -8 809 66 809 142 C809 176 789 200 751 220 L751 220 Z M702 354 C729 354 752 339 752 317 C752 291 725 265 692 247 C660 262 638 278 638 302 C638 332 669 354 702 354 L702 354 Z M641 63 C609 63 588 80 588 105 C588 136 611 161 648 182 C699 160 720 149 720 124 C720 93 682 63 641 63 L641 63 Z " />
<glyph glyph-name="fiveeighths" unicode="&#x215d;" horiz-adv-x="867" d="M582 680 L245 0 L330 0 L667 680 L582 680 Z M372 426 C372 484 320 533 238 533 C224 533 210 532 196 530 L223 605 L382 605 L393 679 L176 679 L107 488 L143 451 C164 458 187 463 209 463 C253 463 283 441 283 412 C283 373 230 341 171 341 C139 341 104 346 71 362 L67 277 C89 270 131 265 162 265 C272 265 372 335 372 426 L372 426 Z M751 220 C805 248 839 286 839 329 C839 378 789 416 715 416 C625 416 551 356 551 283 C551 248 568 226 594 209 C533 180 499 135 499 87 C499 30 540 -8 625 -8 C718 -8 809 66 809 142 C809 176 789 200 751 220 L751 220 Z M702 354 C729 354 752 339 752 317 C752 291 725 265 692 247 C660 262 638 278 638 302 C638 332 669 354 702 354 L702 354 Z M641 63 C609 63 588 80 588 105 C588 136 611 161 648 182 C699 160 720 149 720 124 C720 93 682 63 641 63 L641 63 Z " />
<glyph glyph-name="seveneighths" unicode="&#x215e;" horiz-adv-x="867" d="M582 680 L245 0 L330 0 L667 680 L582 680 Z M409 679 L150 679 L119 596 C187 600 255 602 314 602 C235 508 158 395 90 270 L193 270 C257 392 330 510 418 619 L409 679 Z M751 220 C805 248 839 286 839 329 C839 378 789 416 715 416 C625 416 551 356 551 283 C551 248 568 226 594 209 C533 180 499 135 499 87 C499 30 540 -8 625 -8 C718 -8 809 66 809 142 C809 176 789 200 751 220 L751 220 Z M702 354 C729 354 752 339 752 317 C752 291 725 265 692 247 C660 262 638 278 638 302 C638 332 669 354 702 354 L702 354 Z M641 63 C609 63 588 80 588 105 C588 136 611 161 648 182 C699 160 720 149 720 124 C720 93 682 63 641 63 L641 63 Z " />
<glyph glyph-name="minus" unicode="&#x2212;" horiz-adv-x="522" d="M47 250 L475 250 L475 339 L47 339 L47 250 Z " />
<glyph glyph-name="uniF8FF" unicode="&#xf8ff;" horiz-adv-x="705" d="M639 -127 C646 -123 652 -120 652 -113 C664 -95 646 -63 643 -63 C612 -42 582 -20 552 7 C551 8 551 11 552 13 C552 16 553 22 549 24 C531 43 514 60 496 76 C481 96 469 116 456 136 C443 157 424 187 415 198 C408 208 378 247 367 262 C353 280 334 304 318 313 C304 321 261 348 244 372 C237 383 227 425 228 443 C230 461 234 471 234 471 C240 485 246 495 253 507 C260 516 270 524 270 536 C268 542 274 552 266 557 C264 557 261 554 261 554 C260 567 264 579 267 590 C270 597 265 605 265 613 C267 618 278 625 271 627 C264 630 271 640 264 640 C257 641 258 654 251 651 C237 641 216 613 214 614 C211 615 215 640 217 653 C216 659 208 656 203 655 C196 653 191 656 189 655 C188 654 169 631 168 630 L160 601 C159 597 158 591 157 597 C156 605 165 629 167 646 C165 648 162 647 161 647 C158 645 150 640 148 638 C145 635 140 623 140 623 C140 620 140 610 137 612 C133 616 137 624 137 627 C137 627 136 630 131 630 C126 630 126 631 124 631 C122 623 117 614 115 610 C110 601 103 591 103 583 C102 580 99 583 98 583 C98 583 89 587 89 580 C89 576 90 573 92 570 C94 566 103 559 102 550 C102 550 99 549 97 547 C93 540 112 505 118 494 C118 493 115 493 115 493 C104 493 64 475 57 468 C49 464 33 447 21 437 C19 434 19 428 22 430 C30 437 59 458 92 466 C125 475 138 453 138 453 C138 453 154 430 137 383 C127 347 113 318 115 273 C119 220 146 187 168 164 C189 142 252 74 261 65 C271 56 278 37 283 31 C288 24 295 16 303 10 C304 6 304 1 304 -4 C304 -9 295 -59 294 -60 C292 -63 285 -63 285 -63 C272 -59 258 -54 244 -52 C240 -52 236 -60 231 -66 C226 -71 235 -76 227 -83 C226 -84 227 -88 227 -88 C227 -88 229 -88 231 -86 C234 -83 237 -84 237 -84 C266 -93 300 -87 303 -87 C305 -86 319 -94 319 -94 L358 -114 C361 -116 364 -123 369 -118 C372 -114 366 -110 366 -110 C365 -107 345 -94 334 -87 C328 -80 322 -71 314 -66 C313 -61 321 -40 323 -32 C325 -23 325 -6 330 6 C334 11 342 16 351 20 C368 13 384 7 396 4 C402 1 406 1 411 -1 C411 -4 410 -7 410 -10 C410 -10 407 -29 407 -32 L403 -37 C402 -41 394 -40 394 -40 C381 -35 368 -31 354 -27 C349 -30 345 -37 341 -41 C335 -46 344 -53 337 -58 C335 -59 335 -63 337 -65 C337 -65 338 -65 340 -62 C342 -58 347 -60 347 -60 C375 -69 398 -62 411 -63 L428 -71 C441 -78 454 -84 467 -93 C470 -93 475 -100 478 -96 C480 -91 477 -89 475 -87 C472 -84 454 -71 443 -63 C437 -56 431 -46 423 -41 C422 -39 424 -37 424 -35 C424 -33 432 -8 432 -8 L432 -7 C450 -14 463 -19 469 -24 C485 -36 502 -45 515 -61 C539 -83 559 -103 587 -118 C611 -136 632 -131 639 -127 L639 -127 Z " />
<glyph glyph-name="fi" unicode="&#xfb01;" horiz-adv-x="611" d="M387 467 L267 467 L285 552 C290 577 306 589 332 589 C357 589 378 585 395 582 L431 684 L373 692 C315 688 283 677 248 649 C198 610 178 573 167 521 L156 467 L85 467 L60 386 L139 386 L20 -177 L130 -177 L250 386 L369 386 L387 467 Z M579 692 C529 692 494 660 494 613 C494 580 518 562 555 562 C602 562 639 597 639 642 C639 674 617 692 579 692 L579 692 Z M380 0 L489 0 L588 468 L479 466 L380 0 Z " />
<glyph glyph-name="fl" unicode="&#xfb02;" horiz-adv-x="598" d="M387 467 L267 467 L285 552 C290 577 306 589 332 589 C357 589 378 585 395 582 L431 684 L373 692 C315 688 283 677 248 649 C198 610 178 573 167 521 L156 467 L85 467 L60 386 L139 386 L20 -177 L130 -177 L250 386 L369 386 L387 467 Z M520 681 L372 0 L480 0 L630 692 L520 681 Z " />
</font>
</svg>
